<svg xmlns:xlink="http://www.w3.org/1999/xlink" xmlns="http://www.w3.org/2000/svg" width="66" height="66" viewBox="0 0 66 66" fill="none"><path d="M63.0021 7.13832V19.5527H4.03711V7.13832C4.03711 6.58957 4.25509 6.06333 4.64309 5.6753C5.03109 5.28728 5.55734 5.06926 6.10605 5.06926H60.8607C61.1384 5.05953 61.4153 5.10591 61.6747 5.20552C61.9341 5.30514 62.1708 5.45593 62.3707 5.64904C62.5705 5.84214 62.7295 6.07359 62.838 6.32946C62.9464 6.58533 63.0022 6.86041 63.0021 7.13832Z" fill="#F5F5F5"></path><path d="M62.9989 19.5524V60.9337C62.9989 61.4825 62.7809 62.0087 62.3929 62.3967C62.0049 62.7847 61.4786 63.0028 60.9299 63.0028H7.13731C6.58859 63.0028 6.06234 62.7847 5.67434 62.3967C5.28634 62.0087 5.06836 61.4825 5.06836 60.9337V19.5524H62.9989Z" fill="#CCD3EB"></path><path d="M6.10605 18.5178H57.8297V52.8126C57.8051 54.437 57.1384 55.9856 55.9753 57.1197C54.8121 58.2538 53.2472 58.8812 51.6228 58.8646H4.03711V18.6213" fill="#F5F5F5"></path><path d="M37.1371 9.20715H10.2408C9.09817 9.20715 8.17188 10.1335 8.17188 11.2762V13.3453C8.17188 14.488 9.09817 15.4144 10.2408 15.4144H37.1371C38.2797 15.4144 39.206 14.488 39.206 13.3453V11.2762C39.206 10.1335 38.2797 9.20715 37.1371 9.20715Z" fill="#F5F7FF"></path><path d="M50.5885 14.3798C51.7311 14.3798 52.6574 13.4535 52.6574 12.3108C52.6574 11.1681 51.7311 10.2418 50.5885 10.2418C49.4458 10.2418 48.5195 11.1681 48.5195 12.3108C48.5195 13.4535 49.4458 14.3798 50.5885 14.3798Z" fill="#F5F7FF"></path><path d="M44.3795 14.3798C45.5221 14.3798 46.4484 13.4535 46.4484 12.3108C46.4484 11.1681 45.5221 10.2418 44.3795 10.2418C43.2368 10.2418 42.3105 11.1681 42.3105 12.3108C42.3105 13.4535 43.2368 14.3798 44.3795 14.3798Z" fill="#F5F7FF"></path><path d="M56.7935 14.3798C57.9362 14.3798 58.8625 13.4535 58.8625 12.3108C58.8625 11.1681 57.9362 10.2418 56.7935 10.2418C55.6509 10.2418 54.7246 11.1681 54.7246 12.3108C54.7246 13.4535 55.6509 14.3798 56.7935 14.3798Z" fill="#F5F7FF"></path><path d="M32.9998 46.0922C36.4277 46.0922 39.2066 43.3131 39.2066 39.885C39.2066 36.4569 36.4277 33.6778 32.9998 33.6778C29.5719 33.6778 26.793 36.4569 26.793 39.885C26.793 43.3131 29.5719 46.0922 32.9998 46.0922Z" fill="#E3E7F2"></path><path d="M41.5573 31.0252C41.7462 31.1817 41.9845 31.266 42.2297 31.2631C42.3791 31.2631 42.5268 31.2308 42.6625 31.1683C42.7982 31.1058 42.9188 31.0146 43.0159 30.901C43.1036 30.7972 43.17 30.677 43.2112 30.5474C43.2525 30.4179 43.2677 30.2815 43.2562 30.146C43.2447 30.0105 43.2065 29.8786 43.144 29.7579C43.0815 29.6372 42.9958 29.5299 42.8918 29.4423C42.5366 29.1375 42.1636 28.8543 41.7745 28.5941C41.5481 28.443 41.2713 28.3873 41.0041 28.439C40.7369 28.4907 40.5008 28.6456 40.347 28.8701C40.1932 29.0947 40.1341 29.3709 40.1825 29.6387C40.2309 29.9065 40.3829 30.1445 40.6056 30.3011C40.9358 30.525 41.2535 30.7667 41.5573 31.0252Z" fill="#428DFF"></path><path d="M50.5874 38.8505H48.3839C48.2092 36.1462 47.3204 33.5367 45.8081 31.288C45.732 31.1753 45.6345 31.0787 45.5211 31.0036C45.4076 30.9286 45.2805 30.8765 45.147 30.8506C45.0135 30.8246 44.8762 30.8253 44.7429 30.8525C44.6096 30.8796 44.483 30.9327 44.3702 31.0088C44.2575 31.0849 44.1608 31.1824 44.0857 31.2958C44.0107 31.4093 43.9587 31.5364 43.9328 31.6699C43.9068 31.8034 43.9074 31.9407 43.9346 32.074C43.9617 32.2073 44.0148 32.3339 44.0909 32.4467C45.3698 34.3549 46.1358 36.5603 46.315 38.8505H43.3461C43.0717 38.8505 42.8086 38.9594 42.6146 39.1534C42.4206 39.3475 42.3116 39.6106 42.3116 39.885C42.3116 40.1594 42.4206 40.4226 42.6146 40.6166C42.8086 40.8106 43.0717 40.9195 43.3461 40.9195H46.3047C46.0537 44.09 44.6805 47.067 42.4317 49.3159C40.183 51.5647 37.2061 52.938 34.0358 53.189V50.2303C34.0358 49.9559 33.9269 49.6927 33.7329 49.4987C33.5389 49.3047 33.2757 49.1958 33.0014 49.1958C32.727 49.1958 32.4639 49.3047 32.2699 49.4987C32.0759 49.6927 31.9669 49.9559 31.9669 50.2303V53.189C28.7966 52.938 25.8197 51.5647 23.571 49.3159C21.3222 47.067 19.9491 44.09 19.6981 40.9195H22.6566C22.931 40.9195 23.1941 40.8106 23.3881 40.6166C23.5821 40.4226 23.6911 40.1594 23.6911 39.885C23.6911 39.6106 23.5821 39.3475 23.3881 39.1534C23.1941 38.9594 22.931 38.8505 22.6566 38.8505H19.6981C19.9491 35.68 21.3222 32.703 23.571 30.4542C25.8197 28.2053 28.7966 26.832 31.9669 26.581V29.5397C31.9669 29.8141 32.0759 30.0773 32.2699 30.2713C32.4639 30.4653 32.727 30.5743 33.0014 30.5743C33.2757 30.5743 33.5389 30.4653 33.7329 30.2713C33.9269 30.0773 34.0358 29.8141 34.0358 29.5397V26.5706C35.1212 26.6518 36.1919 26.8708 37.222 27.2224C37.4755 27.2895 37.7451 27.2578 37.9761 27.1337C38.2072 27.0097 38.3825 26.8025 38.4666 26.5541C38.5507 26.3057 38.5373 26.0347 38.4292 25.7957C38.321 25.5568 38.1262 25.3678 37.8841 25.2671C36.6398 24.8468 35.3462 24.5895 34.0358 24.5016V22.298C34.0358 22.0236 33.9269 21.7605 33.7329 21.5664C33.5389 21.3724 33.2757 21.2635 33.0014 21.2635C32.727 21.2635 32.4639 21.3724 32.2699 21.5664C32.0759 21.7605 31.9669 22.0236 31.9669 22.298V24.5119C28.2479 24.7658 24.7467 26.3579 22.1109 28.9939C19.4751 31.6299 17.883 35.1313 17.6291 38.8505H15.4153C15.141 38.8505 14.8779 38.9594 14.6839 39.1534C14.4899 39.3475 14.3809 39.6106 14.3809 39.885C14.3809 40.1594 14.4899 40.4226 14.6839 40.6166C14.8779 40.8106 15.141 40.9195 15.4153 40.9195H17.6291C17.8808 44.6395 19.4722 48.1421 22.1085 50.7785C24.7448 53.4149 28.2472 55.0064 31.9669 55.2581V57.472C31.9669 57.7464 32.0759 58.0096 32.2699 58.2036C32.4639 58.3976 32.727 58.5065 33.0014 58.5065C33.2757 58.5065 33.5389 58.3976 33.7329 58.2036C33.9269 58.0096 34.0358 57.7464 34.0358 57.472V55.2581C37.7556 55.0064 41.258 53.4149 43.8942 50.7785C46.5305 48.1421 48.1219 44.6395 48.3736 40.9195H50.5874C50.8617 40.9195 51.1249 40.8106 51.3189 40.6166C51.5129 40.4226 51.6218 40.1594 51.6218 39.885C51.6218 39.6106 51.5129 39.3475 51.3189 39.1534C51.1249 38.9594 50.8617 38.8505 50.5874 38.8505Z" fill="#428DFF"></path><path d="M32.9991 32.6432C31.5669 32.6432 30.1669 33.0679 28.9761 33.8636C27.7852 34.6593 26.8571 35.7903 26.309 37.1136C25.7609 38.4368 25.6176 39.8929 25.897 41.2977C26.1764 42.7024 26.866 43.9928 27.8787 45.0055C28.8915 46.0183 30.1817 46.708 31.5864 46.9875C32.9911 47.2669 34.4471 47.1235 35.7703 46.5754C37.0934 46.0273 38.2243 45.0991 39.02 43.9082C39.8157 42.7174 40.2404 41.3172 40.2404 39.8849C40.2404 37.9643 39.4775 36.1224 38.1195 34.7643C36.7615 33.4062 34.9196 32.6432 32.9991 32.6432ZM32.9991 45.0576C31.9761 45.0576 30.9761 44.7542 30.1255 44.1858C29.2749 43.6174 28.612 42.8096 28.2205 41.8644C27.829 40.9193 27.7266 39.8792 27.9261 38.8758C28.1257 37.8724 28.6183 36.9507 29.3417 36.2273C30.0651 35.5039 30.9867 35.0112 31.99 34.8116C32.9934 34.6121 34.0334 34.7145 34.9785 35.106C35.9236 35.4975 36.7314 36.1605 37.2998 37.0112C37.8681 37.8618 38.1715 38.8619 38.1715 39.8849C38.1715 41.2568 37.6265 42.5725 36.6565 43.5425C35.6865 44.5126 34.3709 45.0576 32.9991 45.0576Z" fill="#428DFF"></path><path d="M10.2401 16.4488H37.1364C37.9595 16.4488 38.7489 16.1218 39.3309 15.5398C39.9129 14.9577 40.2398 14.1683 40.2398 13.3452V11.2761C40.2398 10.453 39.9129 9.66359 39.3309 9.08155C38.7489 8.49951 37.9595 8.17255 37.1364 8.17255H10.2401C9.41706 8.17255 8.62771 8.49951 8.0457 9.08155C7.4637 9.66359 7.13672 10.453 7.13672 11.2761V13.3452C7.13672 14.1683 7.4637 14.9577 8.0457 15.5398C8.62771 16.1218 9.41706 16.4488 10.2401 16.4488ZM9.20566 11.2761C9.20566 11.0018 9.31467 10.7386 9.50867 10.5446C9.70267 10.3506 9.96578 10.2416 10.2401 10.2416H37.1364C37.4108 10.2416 37.6739 10.3506 37.8679 10.5446C38.0619 10.7386 38.1709 11.0018 38.1709 11.2761V13.3452C38.1709 13.6196 38.0619 13.8828 37.8679 14.0768C37.6739 14.2708 37.4108 14.3797 37.1364 14.3797H10.2401C9.96578 14.3797 9.70267 14.2708 9.50867 14.0768C9.31467 13.8828 9.20566 13.6196 9.20566 13.3452V11.2761Z" fill="#428DFF"></path><path d="M50.5885 14.3798C51.7311 14.3798 52.6574 13.4535 52.6574 12.3108C52.6574 11.1681 51.7311 10.2418 50.5885 10.2418C49.4458 10.2418 48.5195 11.1681 48.5195 12.3108C48.5195 13.4535 49.4458 14.3798 50.5885 14.3798Z" fill="#428DFF"></path><path d="M44.0611 14.1013C45.2038 14.1013 46.1301 13.1749 46.1301 12.0322C46.1301 10.8895 45.2038 9.9632 44.0611 9.9632C42.9185 9.9632 41.9922 10.8895 41.9922 12.0322C41.9922 13.1749 42.9185 14.1013 44.0611 14.1013Z" fill="#428DFF"></path><path d="M56.7935 14.3798C57.9362 14.3798 58.8625 13.4535 58.8625 12.3108C58.8625 11.1681 57.9362 10.2418 56.7935 10.2418C55.6509 10.2418 54.7246 11.1681 54.7246 12.3108C54.7246 13.4535 55.6509 14.3798 56.7935 14.3798Z" fill="#428DFF"></path><path d="M59.896 3H6.10342C5.28034 3 4.49099 3.32697 3.90898 3.909C3.32698 4.49104 3 5.28047 3 6.10359V59.8992C3 60.7223 3.32698 61.5118 3.90898 62.0938C4.49099 62.6758 5.28034 63.0028 6.10342 63.0028H59.896C60.7191 63.0028 61.5085 62.6758 62.0905 62.0938C62.6725 61.5118 62.9994 60.7223 62.9994 59.8992V6.10359C62.9994 5.28047 62.6725 4.49104 62.0905 3.909C61.5085 3.32697 60.7191 3 59.896 3ZM6.10342 5.06906H59.896C60.1704 5.06906 60.4335 5.17801 60.6275 5.37202C60.8215 5.56603 60.9305 5.82922 60.9305 6.10359V18.518H5.06895V6.10359C5.06895 5.82922 5.17795 5.56603 5.37195 5.37202C5.56595 5.17801 5.82906 5.06906 6.10342 5.06906ZM59.896 60.9338H6.10342C5.82906 60.9338 5.56595 60.8248 5.37195 60.6308C5.17795 60.4368 5.06895 60.1736 5.06895 59.8992V20.587H60.9305V59.8992C60.9305 60.1736 60.8215 60.4368 60.6275 60.6308C60.4335 60.8248 60.1704 60.9338 59.896 60.9338Z" fill="#428DFF"></path><path d="M32.9993 58.5065C32.725 58.5065 32.4619 58.3975 32.2679 58.2035C32.0738 58.0095 31.9648 57.7463 31.9648 57.4719V50.2303C31.9648 49.9559 32.0738 49.6927 32.2679 49.4987C32.4619 49.3047 32.725 49.1957 32.9993 49.1957C33.2737 49.1957 33.5368 49.3047 33.7308 49.4987C33.9248 49.6927 34.0338 49.9559 34.0338 50.2303V57.4719C34.0338 57.7463 33.9248 58.0095 33.7308 58.2035C33.5368 58.3975 33.2737 58.5065 32.9993 58.5065Z" fill="#428DFF"></path><path d="M32.9993 30.5742C32.725 30.5742 32.4619 30.4653 32.2679 30.2713C32.0738 30.0772 31.9648 29.8141 31.9648 29.5397V22.298C31.9648 22.0236 32.0738 21.7605 32.2679 21.5664C32.4619 21.3724 32.725 21.2635 32.9993 21.2635C33.2737 21.2635 33.5368 21.3724 33.7308 21.5664C33.9248 21.7605 34.0338 22.0236 34.0338 22.298V29.5397C34.0338 29.8141 33.9248 30.0772 33.7308 30.2713C33.5368 30.4653 33.2737 30.5742 32.9993 30.5742Z" fill="#428DFF"></path><path d="M50.5863 40.9195H43.345C43.0707 40.9195 42.8076 40.8105 42.6136 40.6165C42.4196 40.4225 42.3105 40.1593 42.3105 39.8849C42.3105 39.6105 42.4196 39.3473 42.6136 39.1533C42.8076 38.9593 43.0707 38.8503 43.345 38.8503H50.5863C50.8607 38.8503 51.1238 38.9593 51.3178 39.1533C51.5118 39.3473 51.6208 39.6105 51.6208 39.8849C51.6208 40.1593 51.5118 40.4225 51.3178 40.6165C51.1238 40.8105 50.8607 40.9195 50.5863 40.9195Z" fill="#428DFF"></path><path d="M22.6566 40.9195H15.4153C15.141 40.9195 14.8779 40.8105 14.6839 40.6165C14.4899 40.4225 14.3809 40.1593 14.3809 39.8849C14.3809 39.6105 14.4899 39.3473 14.6839 39.1533C14.8779 38.9593 15.141 38.8503 15.4153 38.8503H22.6566C22.931 38.8503 23.1941 38.9593 23.3881 39.1533C23.5821 39.3473 23.6911 39.6105 23.6911 39.8849C23.6911 40.1593 23.5821 40.4225 23.3881 40.6165C23.1941 40.8105 22.931 40.9195 22.6566 40.9195Z" fill="#428DFF"></path></svg>