<svg xmlns:xlink="http://www.w3.org/1999/xlink" xmlns="http://www.w3.org/2000/svg" width="66" height="66" viewBox="0 0 66 66" fill="none"><path d="M63.91 40.0172V44.362C63.91 46.0905 63.2234 47.7482 62.0013 48.9704C60.7791 50.1926 59.1216 50.8793 57.3932 50.8793H9.60281C7.87443 50.8793 6.21683 50.1926 4.99468 48.9704C3.77253 47.7482 3.08594 46.0905 3.08594 44.362V40.0172H63.91Z" fill="#F5F5F5"></path><path d="M40.1983 50.8793H26.7952L22.3203 63.9138H44.6732L40.1983 50.8793Z" fill="#F5F5F5"></path><path d="M46.5306 65H20.4631C20.175 65 19.8988 64.8856 19.6951 64.6818C19.4914 64.4781 19.377 64.2019 19.377 63.9138C19.377 63.6257 19.4914 63.3494 19.6951 63.1457C19.8988 62.942 20.175 62.8276 20.4631 62.8276H46.5306C46.8186 62.8276 47.0949 62.942 47.2986 63.1457C47.5023 63.3494 47.6167 63.6257 47.6167 63.9138C47.6167 64.2019 47.5023 64.4781 47.2986 64.6818C47.0949 64.8856 46.8186 65 46.5306 65Z" fill="#0668CB"></path><path d="M34.5828 46.5345H32.4104C32.1223 46.5345 31.8461 46.4201 31.6424 46.2164C31.4387 46.0127 31.3242 45.7364 31.3242 45.4483C31.3242 45.1602 31.4387 44.8839 31.6424 44.6802C31.8461 44.4764 32.1223 44.362 32.4104 44.362H34.5828C34.8709 44.362 35.1472 44.4764 35.3509 44.6802C35.5546 44.8839 35.669 45.1602 35.669 45.4483C35.669 45.7364 35.5546 46.0127 35.3509 46.2164C35.1472 46.4201 34.8709 46.5345 34.5828 46.5345Z" fill="url(&quot;#paint0_linear&quot;)"></path><path d="M63.91 9.60351V40.0173H3.08594V9.60351C3.08748 8.25705 3.50599 6.94412 4.28395 5.84518C5.06191 4.74625 6.16113 3.91526 7.43052 3.46644C8.12663 3.21297 8.86199 3.08427 9.60281 3.08627H57.3932C59.1216 3.08627 60.7792 3.7729 62.0013 4.99512C63.2234 6.21734 63.91 7.87503 63.91 9.60351Z" fill="#CCD3EB"></path><path d="M60.6516 9.60351V40.0173H3.08594V9.60351C3.08748 8.25705 3.50599 6.94412 4.28395 5.84518C5.06191 4.74625 6.16113 3.91526 7.43052 3.46644C8.12663 3.21297 8.86199 3.08427 9.60281 3.08627H54.1347C55.8631 3.08627 57.5207 3.7729 58.7429 4.99512C59.965 6.21734 60.6516 7.87503 60.6516 9.60351Z" fill="#F5F5F5"></path><path d="M47.6177 38.931H46.5315C46.2434 38.931 45.9672 39.0455 45.7635 39.2492C45.5598 39.4529 45.4453 39.7292 45.4453 40.0173C45.4453 40.3054 45.5598 40.5817 45.7635 40.7854C45.9672 40.9891 46.2434 41.1036 46.5315 41.1036H47.6177C47.9058 41.1036 48.1821 40.9891 48.3858 40.7854C48.5895 40.5817 48.7039 40.3054 48.7039 40.0173C48.7039 39.7292 48.5895 39.4529 48.3858 39.2492C48.1821 39.0455 47.9058 38.931 47.6177 38.931Z" fill="#428DFF"></path><path d="M34.5828 44.362H32.4104C32.1223 44.362 31.8461 44.4764 31.6424 44.6802C31.4387 44.8839 31.3242 45.1602 31.3242 45.4483C31.3242 45.7364 31.4387 46.0127 31.6424 46.2164C31.8461 46.4201 32.1223 46.5345 32.4104 46.5345H34.5828C34.8709 46.5345 35.1472 46.4201 35.3509 46.2164C35.5546 46.0127 35.669 45.7364 35.669 45.4483C35.669 45.1602 35.5546 44.8839 35.3509 44.6802C35.1472 44.4764 34.8709 44.362 34.5828 44.362Z" fill="#428DFF"></path><path d="M57.3934 2H9.60301C7.58657 2 5.65271 2.80108 4.22687 4.227C2.80102 5.65292 2 7.58689 2 9.60345V44.3621C2 46.3786 2.80102 48.3126 4.22687 49.7385C5.65271 51.1644 7.58657 51.9655 9.60301 51.9655H25.2761L21.5506 62.8276H20.4645C20.1764 62.8276 19.9001 62.942 19.6964 63.1457C19.4928 63.3494 19.3783 63.6257 19.3783 63.9138C19.3783 64.2019 19.4928 64.4782 19.6964 64.6819C19.9001 64.8856 20.1764 65 20.4645 65H46.5319C46.82 65 47.0963 64.8856 47.3 64.6819C47.5037 64.4782 47.6181 64.2019 47.6181 63.9138C47.6181 63.6257 47.5037 63.3494 47.3 63.1457C47.0963 62.942 46.82 62.8276 46.5319 62.8276H45.4458L41.7203 51.9655H57.3934C59.4098 51.9655 61.3437 51.1644 62.7695 49.7385C64.1954 48.3126 64.9964 46.3786 64.9964 44.3621V9.60345C64.9964 7.58689 64.1954 5.65292 62.7695 4.227C61.3437 2.80108 59.4098 2 57.3934 2ZM43.1432 62.8276H23.8424L27.5679 51.9655H39.4286L43.1432 62.8276ZM57.3934 49.7931H9.60301C8.1627 49.7931 6.78137 49.2209 5.76291 48.2024C4.74445 47.1839 4.17229 45.8025 4.17229 44.3621V41.1035H42.1874C42.4754 41.1035 42.7517 40.989 42.9554 40.7853C43.1591 40.5816 43.2735 40.3053 43.2735 40.0172C43.2735 39.7292 43.1591 39.4529 42.9554 39.2492C42.7517 39.0455 42.4754 38.931 42.1874 38.931H4.17229V9.60345C4.17229 8.16305 4.74445 6.78165 5.76291 5.76313C6.78137 4.74461 8.1627 4.17241 9.60301 4.17241H57.3934C58.8337 4.17241 60.215 4.74461 61.2335 5.76313C62.2519 6.78165 62.8241 8.16305 62.8241 9.60345V38.931H51.9627C51.6746 38.931 51.3983 39.0455 51.1946 39.2492C50.991 39.4529 50.8765 39.7292 50.8765 40.0172C50.8765 40.3053 50.991 40.5816 51.1946 40.7853C51.3983 40.989 51.6746 41.1035 51.9627 41.1035H62.8241V44.3621C62.8241 45.8025 62.2519 47.1839 61.2335 48.2024C60.215 49.2209 58.8337 49.7931 57.3934 49.7931Z" fill="#428DFF"></path><path d="M51.9636 25.897C51.9636 26.5415 52.1547 27.1715 52.5128 27.7074C52.8708 28.2433 53.3797 28.661 53.9751 28.9076C54.5705 29.1542 55.2257 29.2188 55.8577 29.093C56.4898 28.9673 57.0704 28.6569 57.5261 28.2012C57.9818 27.7455 58.2921 27.1649 58.4179 26.5327C58.5436 25.9006 58.4791 25.2454 58.2324 24.65C57.9858 24.0546 57.5682 23.5456 57.0323 23.1876C56.4965 22.8295 55.8665 22.6384 55.222 22.6384C54.5673 22.638 53.9277 22.8348 53.3865 23.2032L42.0362 14.8829C42.1814 14.3976 42.2115 13.8852 42.1241 13.3863C42.0367 12.8874 41.8342 12.4157 41.5327 12.0088C41.2312 11.6018 40.8389 11.2707 40.3871 11.0418C39.9353 10.8129 39.4363 10.6925 38.9299 10.6901C38.0657 10.6901 37.2369 11.0334 36.6258 11.6446C36.0147 12.2557 35.6714 13.0845 35.6714 13.9487C35.6748 14.5562 35.8478 15.1506 36.1711 15.665L26.9606 27.1787C26.6127 27.0508 26.2451 26.9846 25.8744 26.9832C25.1916 26.9853 24.5267 27.2019 23.9737 27.6024L14.8826 21.3241C14.9641 21.0451 15.008 20.7566 15.013 20.466C15.013 19.8215 14.8219 19.1915 14.4638 18.6556C14.1058 18.1197 13.5969 17.7021 13.0015 17.4554C12.4061 17.2088 11.7509 17.1442 11.1188 17.27C10.4868 17.3957 9.90617 17.7061 9.45047 18.1618C8.99477 18.6175 8.68443 19.1982 8.55871 19.8303C8.43298 20.4624 8.4975 21.1176 8.74413 21.713C8.99075 22.3084 9.40839 22.8174 9.94424 23.1754C10.4801 23.5335 11.1101 23.7246 11.7545 23.7246C12.4346 23.7262 13.0971 23.5091 13.6444 23.1055L22.7463 29.3946C22.6643 29.6697 22.6205 29.9548 22.616 30.2418C22.616 31.1061 22.9593 31.9349 23.5704 32.546C24.1814 33.1571 25.0102 33.5005 25.8744 33.5005C26.7386 33.5005 27.5674 33.1571 28.1785 32.546C28.7895 31.9349 29.1328 31.1061 29.1328 30.2418C29.1322 29.6374 28.9588 29.0457 28.6332 28.5365L37.8437 17.0118C38.1914 17.1407 38.5591 17.2069 38.9299 17.2074C39.5846 17.2078 40.2242 17.011 40.7655 16.6425L52.1157 24.9629C52.0211 25.2655 51.9699 25.58 51.9636 25.897ZM56.3082 25.897C56.3082 26.1118 56.2445 26.3219 56.1251 26.5005C56.0058 26.6791 55.8362 26.8183 55.6377 26.9005C55.4392 26.9828 55.2208 27.0043 55.0102 26.9624C54.7995 26.9204 54.6059 26.817 54.454 26.6651C54.3021 26.5132 54.1987 26.3196 54.1568 26.1089C54.1149 25.8982 54.1364 25.6798 54.2186 25.4813C54.3008 25.2829 54.44 25.1132 54.6186 24.9939C54.7972 24.8745 55.0072 24.8108 55.222 24.8108C55.5101 24.8108 55.7864 24.9253 55.9901 25.129C56.1938 25.3327 56.3082 25.6089 56.3082 25.897ZM10.6901 20.466C10.6901 20.2512 10.7538 20.0412 10.8732 19.8625C10.9925 19.6839 11.1621 19.5447 11.3606 19.4625C11.5591 19.3803 11.7775 19.3587 11.9882 19.4007C12.1988 19.4426 12.3924 19.546 12.5443 19.6979C12.6962 19.8498 12.7996 20.0434 12.8415 20.2541C12.8834 20.4648 12.8619 20.6832 12.7797 20.8817C12.6975 21.0801 12.5583 21.2498 12.3797 21.3691C12.2011 21.4885 11.9911 21.5522 11.7763 21.5522C11.4882 21.5522 11.2119 21.4378 11.0082 21.234C10.8045 21.0303 10.6901 20.7541 10.6901 20.466ZM25.8961 31.3281C25.6813 31.3281 25.4713 31.2644 25.2927 31.145C25.1141 31.0256 24.9749 30.856 24.8927 30.6575C24.8105 30.459 24.7889 30.2406 24.8309 30.0299C24.8728 29.8192 24.9762 29.6257 25.1281 29.4738C25.28 29.3219 25.4735 29.2184 25.6842 29.1765C25.8949 29.1346 26.1133 29.1561 26.3118 29.2383C26.5103 29.3205 26.6799 29.4598 26.7992 29.6384C26.9186 29.817 26.9823 30.027 26.9823 30.2418C26.9823 30.5299 26.8678 30.8062 26.6642 31.0099C26.4605 31.2136 26.1842 31.3281 25.8961 31.3281ZM37.8437 13.9487C37.8437 13.7339 37.9074 13.5239 38.0268 13.3453C38.1461 13.1667 38.3158 13.0274 38.5142 12.9452C38.7127 12.863 38.9311 12.8415 39.1418 12.8834C39.3525 12.9253 39.546 13.0288 39.6979 13.1807C39.8498 13.3326 39.9532 13.5261 39.9951 13.7368C40.0371 13.9475 40.0156 14.1659 39.9333 14.3644C39.8511 14.5629 39.7119 14.7325 39.5333 14.8519C39.3547 14.9713 39.1447 15.035 38.9299 15.035C38.6418 15.035 38.3655 14.9205 38.1619 14.7168C37.9582 14.5131 37.8437 14.2368 37.8437 13.9487Z" fill="#428DFF"></path><defs><linearGradient id="paint0_linear" x1="428.441" y1="336.307" x2="445.821" y2="336.307" gradientUnits="userSpaceOnUse"><stop stop-color="#D3E6F5"></stop><stop offset="1" stop-color="#F0F7FC"></stop></linearGradient><linearGradient id="paint0_linear" x1="145.043" y1="445.227" x2="143.59" y2="267.568" gradientUnits="userSpaceOnUse"><stop stop-color="#F2F2F2" stop-opacity="0.1"></stop><stop offset="1" stop-color="#F2F2F2" stop-opacity="0"></stop></linearGradient></defs></svg>