<svg xmlns:xlink="http://www.w3.org/1999/xlink" xmlns="http://www.w3.org/2000/svg" width="66" height="66" viewBox="0 0 66 66" fill="none"><path d="M63.9959 5.2071V18.0346H3.06836V5.2071C3.06836 4.64009 3.29356 4.09627 3.69447 3.69533C4.09539 3.29439 4.63919 3.06918 5.20617 3.06918H61.7833C62.0702 3.05913 62.3563 3.10698 62.6244 3.20991C62.8924 3.31284 63.137 3.46872 63.3435 3.66825C63.55 3.86779 63.7142 4.10687 63.8263 4.37126C63.9384 4.63564 63.9961 4.91994 63.9959 5.2071Z" fill="#F5F5F5"></path><path d="M63.9973 18.0344V60.7929C63.9973 61.3599 63.772 61.9037 63.3711 62.3046C62.9702 62.7056 62.4265 62.9309 61.8595 62.9309H6.27648C5.7095 62.9309 5.1657 62.7056 4.76479 62.3046C4.36387 61.9037 4.13867 61.3599 4.13867 60.7929V18.0344H63.9973Z" fill="#E3E7F2"></path><path d="M58.6514 19.0073V53.6204C58.6038 55.2782 57.903 56.85 56.7017 57.9933C55.5004 59.1366 53.896 59.7588 52.238 59.7242H3.06836V19.1035H5.20617V19.0073H58.6514Z" fill="#F5F5F5"></path><path d="M37.275 7.34479H9.48351C8.30283 7.34479 7.3457 8.30196 7.3457 9.4827V11.6206C7.3457 12.8013 8.30283 13.7585 9.48351 13.7585H37.275C38.4557 13.7585 39.4128 12.8013 39.4128 11.6206V9.4827C39.4128 8.30196 38.4557 7.34479 37.275 7.34479Z" fill="#F5F5F5"></path><path d="M51.169 12.6896C52.3497 12.6896 53.3068 11.7324 53.3068 10.5516C53.3068 9.37089 52.3497 8.4137 51.169 8.4137C49.9884 8.4137 49.0312 9.37089 49.0312 10.5516C49.0312 11.7324 49.9884 12.6896 51.169 12.6896Z" fill="#F5F5F5"></path><path d="M44.757 12.6896C45.9377 12.6896 46.8948 11.7324 46.8948 10.5516C46.8948 9.37089 45.9377 8.4137 44.757 8.4137C43.5763 8.4137 42.6191 9.37089 42.6191 10.5516C42.6191 11.7324 43.5763 12.6896 44.757 12.6896Z" fill="#F5F5F5"></path><path d="M57.5812 12.6896C58.7619 12.6896 59.719 11.7324 59.719 10.5516C59.719 9.37089 58.7619 8.4137 57.5812 8.4137C56.4005 8.4137 55.4434 9.37089 55.4434 10.5516C55.4434 11.7324 56.4005 12.6896 57.5812 12.6896Z" fill="#F5F5F5"></path><path d="M9.48015 14.8275H37.2717C38.1221 14.8275 38.9377 14.4896 39.5391 13.8882C40.1405 13.2868 40.4784 12.4711 40.4784 11.6206V9.48265C40.4784 8.63213 40.1405 7.81642 39.5391 7.21502C38.9377 6.61361 38.1221 6.27576 37.2717 6.27576H9.48015C8.62968 6.27576 7.81402 6.61361 7.21264 7.21502C6.61127 7.81642 6.27344 8.63213 6.27344 9.48265V11.6206C6.27344 12.4711 6.61127 13.2868 7.21264 13.8882C7.81402 14.4896 8.62968 14.8275 9.48015 14.8275ZM8.41125 9.48265C8.41125 9.19914 8.52381 8.92726 8.72427 8.72679C8.92473 8.52632 9.19666 8.41369 9.48015 8.41369H37.2717C37.5551 8.41369 37.827 8.52632 38.0275 8.72679C38.2279 8.92726 38.3406 9.19914 38.3406 9.48265V11.6206C38.3406 11.9041 38.2279 12.176 38.0275 12.3764C37.827 12.5769 37.5551 12.6895 37.2717 12.6895H9.48015C9.19666 12.6895 8.92473 12.5769 8.72427 12.3764C8.52381 12.176 8.41125 11.9041 8.41125 11.6206V9.48265Z" fill="#428DFF"></path><path d="M51.169 12.6896C52.3497 12.6896 53.3068 11.7324 53.3068 10.5516C53.3068 9.37089 52.3497 8.4137 51.169 8.4137C49.9884 8.4137 49.0312 9.37089 49.0312 10.5516C49.0312 11.7324 49.9884 12.6896 51.169 12.6896Z" fill="#428DFF"></path><path d="M44.757 12.6896C45.9377 12.6896 46.8948 11.7324 46.8948 10.5516C46.8948 9.37089 45.9377 8.4137 44.757 8.4137C43.5763 8.4137 42.6191 9.37089 42.6191 10.5516C42.6191 11.7324 43.5763 12.6896 44.757 12.6896Z" fill="#428DFF"></path><path d="M38.3411 39.4138C37.6473 40.3389 37.2722 41.4642 37.2722 42.6207C37.2722 43.7771 37.6473 44.9024 38.3411 45.8276V51.2365C38.3338 51.5757 38.2872 51.9129 38.2022 52.2414H21.2387C20.1047 52.2414 19.0172 51.7909 18.2153 50.989C17.4135 50.1871 16.963 49.0995 16.963 47.9655V29.7931C16.9598 29.4321 17.0066 29.0723 17.102 28.7241H34.0655C35.1995 28.7241 36.287 29.1746 37.0888 29.9765C37.8907 30.7784 38.3411 31.866 38.3411 33V39.4138Z" fill="#E3E7F2"></path><path d="M57.5812 12.6896C58.7619 12.6896 59.719 11.7324 59.719 10.5516C59.719 9.37089 58.7619 8.4137 57.5812 8.4137C56.4005 8.4137 55.4434 9.37089 55.4434 10.5516C55.4434 11.7324 56.4005 12.6896 57.5812 12.6896Z" fill="#428DFF"></path><path d="M60.7897 2H5.20671C4.35624 2 3.54058 2.33785 2.93921 2.93926C2.33783 3.54067 2 4.35637 2 5.2069V60.7931C2 61.6436 2.33783 62.4593 2.93921 63.0607C3.54058 63.6622 4.35624 64 5.20671 64H60.7897C61.6402 64 62.4558 63.6622 63.0572 63.0607C63.6585 62.4593 63.9964 61.6436 63.9964 60.7931V5.2069C63.9964 4.35637 63.6585 3.54067 63.0572 2.93926C62.4558 2.33785 61.6402 2 60.7897 2ZM5.20671 4.13793H60.7897C61.0732 4.13793 61.3451 4.25057 61.5455 4.45104C61.746 4.65151 61.8586 4.92339 61.8586 5.2069V16.9655H4.13781V5.2069C4.13781 4.92339 4.25037 4.65151 4.45083 4.45104C4.65129 4.25057 4.92322 4.13793 5.20671 4.13793ZM60.7897 61.8621H5.20671C4.92322 61.8621 4.65129 61.7494 4.45083 61.549C4.25037 61.3485 4.13781 61.0766 4.13781 60.7931V19.1034H61.8586V60.7931C61.8586 61.0766 61.746 61.3485 61.5455 61.549C61.3451 61.7494 61.0732 61.8621 60.7897 61.8621Z" fill="#428DFF"></path><path d="M12.688 42.6207C12.9715 42.6207 13.2434 42.508 13.4438 42.3076C13.6443 42.1071 13.7569 41.8352 13.7569 41.5517V40.4827C13.7569 40.1992 13.6443 39.9273 13.4438 39.7269C13.2434 39.5264 12.9715 39.4138 12.688 39.4138C12.4045 39.4138 12.1326 39.5264 11.9322 39.7269C11.7317 39.9273 11.6191 40.1992 11.6191 40.4827V41.5517C11.6191 41.8352 11.7317 42.1071 11.9322 42.3076C12.1326 42.508 12.4045 42.6207 12.688 42.6207Z" fill="#428DFF"></path><path d="M16.9634 47.9655H22.308C22.5915 47.9655 22.8633 47.8528 23.0638 47.6524C23.2642 47.4519 23.3769 47.18 23.3769 46.8965C23.3769 46.613 23.2642 46.3411 23.0638 46.1407C22.8633 45.9402 22.5915 45.8276 22.308 45.8276H16.9634C16.6799 45.8276 16.408 45.9402 16.2076 46.1407C16.0071 46.3411 15.8945 46.613 15.8945 46.8965C15.8945 47.18 16.0071 47.4519 16.2076 47.6524C16.408 47.8528 16.6799 47.9655 16.9634 47.9655Z" fill="#428DFF"></path><path d="M16.9634 52.2414H22.308C22.5915 52.2414 22.8633 52.1287 23.0638 51.9283C23.2642 51.7278 23.3769 51.4559 23.3769 51.1724C23.3769 50.8889 23.2642 50.617 23.0638 50.4165C22.8633 50.216 22.5915 50.1034 22.308 50.1034H16.9634C16.6799 50.1034 16.408 50.216 16.2076 50.4165C16.0071 50.617 15.8945 50.8889 15.8945 51.1724C15.8945 51.4559 16.0071 51.7278 16.2076 51.9283C16.408 52.1287 16.6799 52.2414 16.9634 52.2414Z" fill="#428DFF"></path><path d="M28.724 28.7241V35.1379L25.5173 34.0689L22.3105 35.1379V28.7241H28.724Z" fill="#F5F5F5"></path><path d="M22.308 47.9655H16.9634C16.6799 47.9655 16.408 47.8528 16.2076 47.6524C16.0071 47.4519 15.8945 47.18 15.8945 46.8965C15.8945 46.613 16.0071 46.3411 16.2076 46.1407C16.408 45.9402 16.6799 45.8276 16.9634 45.8276H22.308C22.5915 45.8276 22.8633 45.9402 23.0638 46.1407C23.2642 46.3411 23.3769 46.613 23.3769 46.8965C23.3769 47.18 23.2642 47.4519 23.0638 47.6524C22.8633 47.8528 22.5915 47.9655 22.308 47.9655Z" fill="#F5F5F5"></path><path d="M22.308 52.2414H16.9634C16.6799 52.2414 16.408 52.1287 16.2076 51.9283C16.0071 51.7278 15.8945 51.4559 15.8945 51.1724C15.8945 50.8889 16.0071 50.617 16.2076 50.4165C16.408 50.216 16.6799 50.1034 16.9634 50.1034H22.308C22.5915 50.1034 22.8633 50.216 23.0638 50.4165C23.2642 50.617 23.3769 50.8889 23.3769 51.1724C23.3769 51.4559 23.2642 51.7278 23.0638 51.9283C22.8633 52.1287 22.5915 52.2414 22.308 52.2414Z" fill="#F5F5F5"></path><path d="M54.3758 40.4827H52.0028C51.7595 39.4261 51.3404 38.418 50.7629 37.5003L52.4411 35.8221C52.5413 35.7227 52.6208 35.6044 52.675 35.4742C52.7293 35.3439 52.7572 35.2042 52.7572 35.0631C52.7572 34.922 52.7293 34.7822 52.675 34.652C52.6208 34.5217 52.5413 34.4035 52.4411 34.3041L50.9339 32.7969C50.8345 32.6967 50.7163 32.6172 50.586 32.5629C50.4558 32.5086 50.316 32.4807 50.1749 32.4807C50.0338 32.4807 49.8942 32.5086 49.7639 32.5629C49.6337 32.6172 49.5154 32.6967 49.4161 32.7969L47.7379 34.4752C46.8203 33.8976 45.8122 33.4784 44.7557 33.2351V30.8621C44.7557 30.5785 44.643 30.3067 44.4426 30.1062C44.2421 29.9057 43.9702 29.7931 43.6868 29.7931H41.5489C41.2655 29.7931 40.9935 29.9057 40.7931 30.1062C40.5926 30.3067 40.48 30.5785 40.48 30.8621V33.2351C39.7386 33.4031 39.0206 33.6616 38.3422 34.0048C38.0517 34.1447 37.7696 34.3017 37.4978 34.4752L35.7768 32.7969C35.6775 32.6967 35.5592 32.6172 35.429 32.5629C35.2987 32.5086 35.159 32.4807 35.0179 32.4807C34.8768 32.4807 34.7371 32.5086 34.6068 32.5629C34.4766 32.6172 34.3584 32.6967 34.259 32.7969L32.7518 34.3041C32.6516 34.4035 32.5721 34.5217 32.5179 34.652C32.4636 34.7822 32.4357 34.922 32.4357 35.0631C32.4357 35.2042 32.4636 35.3439 32.5179 35.4742C32.5721 35.6044 32.6516 35.7227 32.7518 35.8221L34.43 37.5003C33.8525 38.418 33.4334 39.4261 33.1901 40.4827H30.8599C30.5764 40.4827 30.3045 40.5954 30.104 40.7958C29.9036 40.9963 29.791 41.2682 29.791 41.5517V43.6896C29.791 43.9731 29.9036 44.245 30.104 44.4455C30.3045 44.646 30.5764 44.7586 30.8599 44.7586H33.2329C33.4761 45.8152 33.8953 46.8234 34.4728 47.741L32.7946 49.4193C32.6944 49.5186 32.6149 49.6369 32.5606 49.7671C32.5063 49.8974 32.4784 50.0371 32.4784 50.1783C32.4784 50.3194 32.5063 50.4591 32.5606 50.5894C32.6149 50.7196 32.6944 50.8378 32.7946 50.9372L34.3018 52.4445C34.4011 52.5446 34.5194 52.6241 34.6496 52.6784C34.7799 52.7327 34.9196 52.7606 35.0607 52.7606C35.2018 52.7606 35.3415 52.7327 35.4718 52.6784C35.602 52.6241 35.7202 52.5446 35.8196 52.4445L37.4978 50.7662C37.7696 50.9396 38.0517 51.0967 38.3422 51.2365C39.0206 51.5797 39.7386 51.8381 40.48 52.0061V54.3793C40.48 54.6628 40.5926 54.9347 40.7931 55.1351C40.9935 55.3356 41.2655 55.4482 41.5489 55.4482H43.6868C43.9702 55.4482 44.2421 55.3356 44.4426 55.1351C44.643 54.9347 44.7557 54.6628 44.7557 54.3793V52.0061C45.8122 51.7629 46.8203 51.3437 47.7379 50.7662L49.4161 52.4445C49.5154 52.5446 49.6337 52.6241 49.7639 52.6784C49.8942 52.7327 50.0338 52.7606 50.1749 52.7606C50.316 52.7606 50.4558 52.7327 50.586 52.6784C50.7163 52.6241 50.8345 52.5446 50.9339 52.4445L52.4411 50.9372C52.5413 50.8378 52.6208 50.7196 52.675 50.5894C52.7293 50.4591 52.7572 50.3194 52.7572 50.1783C52.7572 50.0371 52.7293 49.8974 52.675 49.7671C52.6208 49.6369 52.5413 49.5186 52.4411 49.4193L50.7415 47.741C51.319 46.8234 51.7381 45.8152 51.9814 44.7586H54.3544C54.6379 44.7586 54.9097 44.646 55.1102 44.4455C55.3107 44.245 55.4233 43.9731 55.4233 43.6896V41.5517C55.4233 41.2719 55.3137 41.0031 55.1178 40.8033C54.922 40.6034 54.6556 40.4883 54.3758 40.4827ZM42.6179 47.9655C41.7881 47.9655 40.9698 47.7723 40.2277 47.4012C39.4856 47.0301 38.8401 46.4914 38.3422 45.8276C37.6484 44.9024 37.2733 43.7771 37.2733 42.6207C37.2733 41.4642 37.6484 40.3389 38.3422 39.4138C38.8888 38.6849 39.6126 38.1079 40.4449 37.7375C41.2773 37.3671 42.1904 37.2156 43.0978 37.2974C44.0051 37.3793 44.8765 37.6917 45.6291 38.205C46.3817 38.7183 46.9907 39.4155 47.3981 40.2304C47.8055 41.0452 47.9979 41.9508 47.957 42.8609C47.916 43.771 47.6431 44.6556 47.1641 45.4306C46.6852 46.2056 46.0161 46.8453 45.2204 47.289C44.4247 47.7326 43.5289 47.9655 42.6179 47.9655Z" fill="#F5F5F5"></path><path d="M54.3753 39.4137H52.8147C52.625 38.8174 52.3855 38.2381 52.0985 37.682L53.1674 36.613C53.3678 36.4143 53.5268 36.1778 53.6354 35.9172C53.7439 35.6567 53.7998 35.3773 53.7998 35.0951C53.7998 34.8129 53.7439 34.5334 53.6354 34.2729C53.5268 34.0124 53.3678 33.7759 53.1674 33.5771L51.6496 32.0699C51.451 31.8711 51.2152 31.7134 50.9557 31.6058C50.6962 31.4982 50.418 31.4428 50.1371 31.4428C49.8561 31.4428 49.578 31.4982 49.3184 31.6058C49.0589 31.7134 48.8232 31.8711 48.6246 32.0699L47.5557 33.1389C46.9996 32.8519 46.4204 32.6124 45.8241 32.4227V30.862C45.8241 30.295 45.5988 29.7511 45.1979 29.3502C44.797 28.9492 44.2533 28.724 43.6863 28.724H41.5485C40.9815 28.724 40.4377 28.9492 40.0368 29.3502C39.6359 29.7511 39.4107 30.295 39.4107 30.862V32.4227H39.3465C39.2098 31.1146 38.5955 29.9028 37.6213 29.0192C36.6471 28.1356 35.3813 27.6423 34.0661 27.6337H16.9637C15.5462 27.6337 14.1868 28.1968 13.1845 29.1991C12.1822 30.2015 11.6191 31.561 11.6191 32.9785V36.1854C11.6191 36.4689 11.7317 36.7408 11.9322 36.9413C12.1326 37.1417 12.4046 37.2544 12.688 37.2544C12.9715 37.2544 13.2434 37.1417 13.4439 36.9413C13.6443 36.7408 13.7569 36.4689 13.7569 36.1854V32.9785C13.7569 32.128 14.0948 31.3123 14.6962 30.7109C15.2975 30.1095 16.1132 29.7716 16.9637 29.7716H21.2393V35.1164C21.2388 35.2851 21.2783 35.4515 21.3545 35.602C21.4307 35.7525 21.5413 35.8828 21.6775 35.9823C21.8146 36.0816 21.9733 36.147 22.1405 36.173C22.3078 36.199 22.4788 36.185 22.6395 36.132L25.5149 35.1806L28.3796 36.132C28.4926 36.1526 28.6085 36.1526 28.7216 36.132C28.9451 36.1351 29.1632 36.0636 29.3415 35.9289C29.4797 35.8305 29.5925 35.7007 29.6705 35.5501C29.7486 35.3996 29.7897 35.2326 29.7905 35.063V29.7182H34.0661C34.8689 29.7149 35.6436 30.0129 36.2373 30.5532C36.8311 31.0936 37.2006 31.8369 37.2728 32.6364L36.5994 31.963C36.4009 31.7642 36.1651 31.6065 35.9056 31.499C35.6461 31.3914 35.3678 31.336 35.0869 31.336C34.8059 31.336 34.5278 31.3914 34.2682 31.499C34.0087 31.6065 33.773 31.7642 33.5744 31.963L32.0673 33.481C31.8685 33.6795 31.7108 33.9153 31.6032 34.1748C31.4956 34.4344 31.4403 34.7126 31.4403 34.9935C31.4403 35.2745 31.4956 35.5527 31.6032 35.8122C31.7108 36.0717 31.8685 36.3075 32.0673 36.5061L33.1362 37.575C32.8448 38.1291 32.605 38.7088 32.42 39.3068H30.8594C30.2924 39.3068 29.7486 39.532 29.3477 39.933C28.9468 40.3339 28.7216 40.8778 28.7216 41.4448V43.5827C28.7216 44.1497 28.9468 44.6935 29.3477 45.0944C29.7486 45.4954 30.2924 45.7206 30.8594 45.7206H32.42C32.6049 46.3221 32.8447 46.9053 33.1362 47.463L32.0673 48.532C31.8685 48.7305 31.7108 48.9664 31.6032 49.2259C31.4956 49.4854 31.4403 49.7636 31.4403 50.0446C31.4403 50.3256 31.4956 50.6037 31.6032 50.8633C31.7108 51.1228 31.8685 51.3586 32.0673 51.5572L33.5744 53.0644C33.7733 53.2645 34.0098 53.4232 34.2703 53.5315C34.5308 53.6397 34.8101 53.6953 35.0922 53.6951C35.6082 53.6918 36.1055 53.5019 36.4925 53.1606C36.1912 53.4974 35.8222 53.7668 35.4096 53.951C34.9969 54.1353 34.55 54.2302 34.0982 54.2296H16.9957C16.1452 54.2296 15.3296 53.8917 14.7282 53.2903C14.1268 52.6889 13.789 51.8732 13.789 51.0227V45.6778C13.789 45.3943 13.6764 45.1224 13.4759 44.922C13.2754 44.7215 13.0036 44.6089 12.7201 44.6089C12.4366 44.6089 12.1647 44.7215 11.9643 44.922C11.7638 45.1224 11.6512 45.3943 11.6512 45.6778V51.0227C11.6512 52.4402 12.2143 53.7997 13.2166 54.802C14.2189 55.8044 15.5782 56.3675 16.9957 56.3675H34.0982C35.2391 56.3625 36.3484 55.9924 37.2639 55.3115C38.1794 54.6306 38.853 53.6747 39.1862 52.5834L39.4427 52.6689V54.2296C39.4427 54.7966 39.668 55.3404 40.0689 55.7414C40.4698 56.1423 41.0135 56.3675 41.5805 56.3675H43.7183C44.2853 56.3675 44.8291 56.1423 45.23 55.7414C45.6309 55.3404 45.8561 54.7966 45.8561 54.2296V52.6689C46.4541 52.4839 47.0338 52.2441 47.5877 51.9527L48.6566 53.0216C48.8555 53.2217 49.0921 53.3805 49.3526 53.4887C49.6131 53.597 49.8924 53.6526 50.1745 53.6524C50.4566 53.6526 50.7359 53.597 50.9964 53.4887C51.2569 53.3805 51.4935 53.2217 51.6924 53.0216L53.1995 51.5144C53.3982 51.3159 53.556 51.0801 53.6635 50.8205C53.7711 50.561 53.8265 50.2828 53.8265 50.0018C53.8265 49.7208 53.7711 49.4426 53.6635 49.1831C53.556 48.9236 53.3982 48.6878 53.1995 48.4892L52.1306 47.4203C52.4176 46.8605 52.6571 46.2776 52.8467 45.6778H54.4073C54.9743 45.6778 55.5181 45.4526 55.919 45.0517C56.32 44.6507 56.5452 44.1069 56.5452 43.5399V41.402C56.5069 40.8557 56.2605 40.3449 55.8568 39.975C55.4531 39.6051 54.9228 39.4042 54.3753 39.4137ZM27.6527 33.652L25.8463 33.0533C25.7363 33.038 25.6248 33.038 25.5149 33.0533C25.4015 33.0371 25.2863 33.0371 25.1728 33.0533L23.3771 33.652V29.793H27.6527V33.652ZM54.3753 43.6896H52.0023H51.9062H51.7031L51.5106 43.7644L51.3503 43.8713C51.2954 43.9119 51.2452 43.9585 51.2006 44.0103L51.0831 44.1706C51.0482 44.2354 51.0195 44.3035 50.9975 44.3737V44.4592C50.7925 45.3966 50.4311 46.2928 49.9286 47.1103V47.1958C49.8973 47.2609 49.8723 47.3289 49.8538 47.3989C49.8488 47.4629 49.8488 47.5273 49.8538 47.5913C49.8482 47.6589 49.8482 47.7268 49.8538 47.7944C49.8477 47.8619 49.8477 47.9299 49.8538 47.9975C49.8694 48.0615 49.8947 48.1228 49.9286 48.1793C49.964 48.2422 50.0033 48.3029 50.0462 48.361V48.4358L51.7244 50.1248L50.2173 51.632L48.5391 49.9537C48.5107 49.9504 48.482 49.9504 48.4535 49.9537C48.3998 49.9048 48.3385 49.8651 48.2719 49.8361C48.2169 49.797 48.1553 49.7681 48.0902 49.7506H47.8978H47.6947H47.5022L47.2992 49.8254H47.2029C46.3847 50.3263 45.4889 50.6876 44.5521 50.8944C44.5521 50.8944 44.5521 50.8944 44.4666 50.8944L44.2742 50.9906C44.2168 51.02 44.1629 51.0558 44.1138 51.0975C44.0621 51.1421 44.0154 51.1923 43.9748 51.2472C43.9297 51.2998 43.8903 51.3571 43.8573 51.4182C43.8248 51.4743 43.8031 51.5359 43.7931 51.6C43.7831 51.6709 43.7831 51.7428 43.7931 51.8137C43.7884 51.842 43.7884 51.8709 43.7931 51.8992V54.2724H41.6553V51.8992C41.6553 51.8992 41.6553 51.8992 41.6553 51.8137C41.6654 51.7428 41.6654 51.6709 41.6553 51.6C41.5982 51.4055 41.487 51.2312 41.3347 51.0975L41.1743 50.9906C41.1098 50.9522 41.0418 50.92 40.9712 50.8944C40.9712 50.8944 40.9178 50.8944 40.8857 50.8944C40.2163 50.7329 39.5672 50.4962 38.951 50.1889C38.7158 50.0713 38.4914 49.9537 38.2669 49.8147H38.1814L37.9783 49.7399H37.7859H37.5828H37.3904C37.3219 49.7572 37.2568 49.7862 37.198 49.8254C37.1328 49.857 37.0717 49.8965 37.0163 49.943C37.0163 49.943 36.9629 49.943 36.9415 49.943L35.2526 51.6213L33.7454 50.1034L35.4236 48.4251C35.4236 48.4251 35.4236 48.4251 35.4236 48.3503C35.4699 48.2922 35.5127 48.2316 35.5519 48.1686C35.5813 48.1099 35.6064 48.0492 35.6267 47.9868C35.6328 47.9193 35.6328 47.8513 35.6267 47.7837C35.6321 47.7161 35.6321 47.6482 35.6267 47.5806C35.6318 47.5166 35.6318 47.4523 35.6267 47.3882C35.6082 47.3183 35.5832 47.2503 35.5519 47.1851C35.5519 47.1851 35.5519 47.121 35.5519 47.0996C35.0527 46.2804 34.6916 45.3848 34.483 44.4486C34.483 44.4486 34.483 44.4485 34.483 44.363C34.4619 44.2906 34.4295 44.222 34.3868 44.1599L34.2799 43.9996C34.2353 43.9478 34.1852 43.9012 34.1303 43.8606L33.9592 43.7537L33.7775 43.6789H33.5637H33.4782H30.8594V41.5409H33.2324C33.3638 41.5367 33.4937 41.5115 33.6171 41.4661L33.7348 41.402L33.9379 41.263C33.9728 41.2301 34.005 41.1944 34.034 41.1561L34.173 40.9637C34.1775 40.9139 34.1775 40.8638 34.173 40.8141V40.7178C34.3798 39.781 34.741 38.8851 35.2419 38.0668C35.2419 38.0668 35.2419 38.0027 35.2419 37.9706C35.2714 37.9084 35.2965 37.844 35.3167 37.7782C35.3211 37.7105 35.3211 37.6427 35.3167 37.575C35.3221 37.5075 35.3221 37.4395 35.3167 37.3719C35.3217 37.3079 35.3217 37.2436 35.3167 37.1795C35.2983 37.1165 35.2732 37.0556 35.2419 36.9978C35.2056 36.933 35.1626 36.8721 35.1136 36.8161C35.1136 36.8161 35.1136 36.7627 35.1136 36.7413L33.4355 35.0523L34.9533 33.5451L36.6315 35.2234C36.7254 35.3044 36.8297 35.3727 36.9415 35.4265H37.0163C37.1328 35.4688 37.2558 35.4905 37.3797 35.4906C37.5001 35.4892 37.6193 35.4676 37.7325 35.4265H37.8286H37.9463C38.7637 34.9239 39.6598 34.5626 40.5971 34.3575H40.6827L40.8857 34.272L41.046 34.1544C41.1003 34.1125 41.1473 34.062 41.185 34.0047C41.2267 33.9556 41.2626 33.9018 41.2919 33.8444C41.323 33.7828 41.348 33.7184 41.3667 33.652C41.3779 33.5847 41.3779 33.5161 41.3667 33.4489C41.3667 33.4489 41.3667 33.3847 41.3667 33.3527V30.9795H43.5045V33.3527C43.4995 33.3846 43.4995 33.417 43.5045 33.4489C43.4933 33.5161 43.4933 33.5847 43.5045 33.652C43.5146 33.7193 43.5363 33.7844 43.5686 33.8444C43.6017 33.902 43.6412 33.9559 43.6863 34.0047C43.724 34.062 43.771 34.1125 43.8252 34.1544C43.8741 34.1995 43.9278 34.2389 43.9855 34.272L44.1779 34.3575H44.2635C45.2017 34.5596 46.0983 34.9212 46.9143 35.4265H47.0319H47.1281C47.2446 35.4688 47.3676 35.4905 47.4916 35.4906C47.6119 35.4892 47.7311 35.4676 47.8443 35.4265H47.9191C48.0335 35.3773 48.1384 35.3086 48.2291 35.2234L49.9072 33.5451L51.4144 35.0523L49.7362 36.7413V36.8161C49.691 36.8726 49.6516 36.9334 49.6187 36.9978C49.5829 37.0534 49.5576 37.1149 49.5438 37.1795C49.5389 37.2436 49.5389 37.3079 49.5438 37.3719C49.5388 37.4396 49.5388 37.5074 49.5438 37.575C49.5399 37.6427 49.5399 37.7105 49.5438 37.7782C49.5641 37.844 49.5891 37.9084 49.6187 37.9706V38.0668C50.124 38.8828 50.4855 39.7795 50.6876 40.7178V40.8141L50.7517 40.9637C50.7869 41.0326 50.83 41.0971 50.88 41.1561L50.9868 41.263C51.0484 41.3177 51.1166 41.3644 51.1899 41.402L51.3076 41.4661C51.4301 41.5146 51.5606 41.5399 51.6924 41.5409H54.0653L54.3753 43.6896Z" fill="#428DFF"></path><path d="M42.6166 36.2068C41.3481 36.2068 40.1082 36.583 39.0535 37.2878C37.9988 37.9925 37.1768 38.9942 36.6914 40.1662C36.2059 41.3382 36.0789 42.6278 36.3263 43.8719C36.5738 45.1161 37.1846 46.2589 38.0816 47.1559C38.9785 48.0529 40.1213 48.6637 41.3653 48.9112C42.6094 49.1587 43.899 49.0317 45.0709 48.5462C46.2428 48.0608 47.2444 47.2387 47.9491 46.184C48.6538 45.1292 49.03 43.8892 49.03 42.6207C49.03 40.9196 48.3543 39.2882 47.1515 38.0854C45.9488 36.8825 44.3175 36.2068 42.6166 36.2068ZM42.6166 46.8965C41.771 46.8965 40.9443 46.6457 40.2412 46.1759C39.5381 45.7061 38.99 45.0382 38.6664 44.2569C38.3428 43.4756 38.2581 42.6159 38.4231 41.7864C38.5881 40.957 38.9953 40.1951 39.5933 39.5972C40.1912 38.9992 40.953 38.5919 41.7824 38.4269C42.6118 38.2619 43.4715 38.3467 44.2528 38.6703C45.034 38.9939 45.7018 39.5419 46.1716 40.2451C46.6414 40.9483 46.8922 41.775 46.8922 42.6207C46.8922 43.7547 46.4417 44.8423 45.6399 45.6442C44.8381 46.446 43.7506 46.8965 42.6166 46.8965Z" fill="#428DFF"></path></svg>