<svg xmlns:xlink="http://www.w3.org/1999/xlink" xmlns="http://www.w3.org/2000/svg" width="66" height="66" viewBox="0 0 66 66" fill="none"><path d="M61.0141 7.94841V19.7415H5V7.94841C5 7.42712 5.20707 6.92716 5.57565 6.55855C5.94424 6.18994 6.44415 5.98289 6.96541 5.98289H58.9799C59.2437 5.97365 59.5067 6.01765 59.7532 6.11228C59.9996 6.20691 60.2245 6.35021 60.4143 6.53366C60.6042 6.7171 60.7551 6.93691 60.8582 7.17997C60.9612 7.42304 61.0142 7.6844 61.0141 7.94841Z" fill="#F5F5F5"></path><path d="M61.9982 19.7413V59.0517C61.9982 59.573 61.7911 60.0729 61.4225 60.4415C61.0539 60.8101 60.554 61.0172 60.0328 61.0172H8.9322C8.41094 61.0172 7.91103 60.8101 7.54245 60.4415C7.17386 60.0729 6.9668 59.573 6.9668 59.0517V19.7413H61.9982Z" fill="#CCD3EB"></path><path d="M57.083 20.6357V52.4575C57.0392 53.9815 56.395 55.4266 55.2905 56.4777C54.1861 57.5288 52.7111 58.1008 51.1868 58.069H5.98242V20.7242H7.94783V20.6357H57.083Z" fill="#F5F5F5"></path><path d="M37.4297 9.91376H11.8795C10.794 9.91376 9.91406 10.7938 9.91406 11.8793V13.8448C9.91406 14.9303 10.794 15.8103 11.8795 15.8103H37.4297C38.5152 15.8103 39.3952 14.9303 39.3952 13.8448V11.8793C39.3952 10.7938 38.5152 9.91376 37.4297 9.91376Z" fill="#F5F7FF"></path><path d="M50.2037 14.8276C51.2891 14.8276 52.1691 13.9476 52.1691 12.8621C52.1691 11.7765 51.2891 10.8965 50.2037 10.8965C49.1182 10.8965 48.2383 11.7765 48.2383 12.8621C48.2383 13.9476 49.1182 14.8276 50.2037 14.8276Z" fill="#428DFF"></path><path d="M44.3092 14.8276C45.3946 14.8276 46.2746 13.9476 46.2746 12.8621C46.2746 11.7765 45.3946 10.8965 44.3092 10.8965C43.2237 10.8965 42.3438 11.7765 42.3438 12.8621C42.3438 13.9476 43.2237 14.8276 44.3092 14.8276Z" fill="#428DFF"></path><path d="M56.1021 14.8276C57.1876 14.8276 58.0675 13.9476 58.0675 12.8621C58.0675 11.7765 57.1876 10.8965 56.1021 10.8965C55.0167 10.8965 54.1367 11.7765 54.1367 12.8621C54.1367 13.9476 55.0167 14.8276 56.1021 14.8276Z" fill="#428DFF"></path><path d="M11.8778 16.7931H37.4281C38.21 16.7931 38.9599 16.4825 39.5127 15.9296C40.0656 15.3767 40.3762 14.6268 40.3762 13.8448V11.8793C40.3762 11.0974 40.0656 10.3475 39.5127 9.79455C38.9599 9.24164 38.21 8.93103 37.4281 8.93103H11.8778C11.0959 8.93103 10.3461 9.24164 9.79318 9.79455C9.2403 10.3475 8.92969 11.0974 8.92969 11.8793V13.8448C8.92969 14.6268 9.2403 15.3767 9.79318 15.9296C10.3461 16.4825 11.0959 16.7931 11.8778 16.7931ZM10.8951 11.8793C10.8951 11.6187 10.9986 11.3687 11.1829 11.1844C11.3672 11.0001 11.6172 10.8966 11.8778 10.8966H37.4281C37.6887 10.8966 37.9387 11.0001 38.123 11.1844C38.3073 11.3687 38.4108 11.6187 38.4108 11.8793V13.8448C38.4108 14.1055 38.3073 14.3554 38.123 14.5397C37.9387 14.7241 37.6887 14.8276 37.4281 14.8276H11.8778C11.6172 14.8276 11.3672 14.7241 11.1829 14.5397C10.9986 14.3554 10.8951 14.1055 10.8951 13.8448V11.8793Z" fill="#428DFF"></path><path d="M59.0487 5H7.94811C7.16622 5 6.41637 5.3106 5.86349 5.86351C5.31062 6.41642 5 7.16634 5 7.94828V59.0517C5 59.8337 5.31062 60.5836 5.86349 61.1365C6.41637 61.6894 7.16622 62 7.94811 62H59.0487C59.8306 62 60.5804 61.6894 61.1333 61.1365C61.6862 60.5836 61.9968 59.8337 61.9968 59.0517V7.94828C61.9968 7.16634 61.6862 6.41642 61.1333 5.86351C60.5804 5.3106 59.8306 5 59.0487 5ZM7.94811 6.96552H59.0487C59.3093 6.96552 59.5593 7.06907 59.7436 7.25337C59.9279 7.43768 60.0314 7.68763 60.0314 7.94828V18.7586H6.96541V7.94828C6.96541 7.68763 7.06896 7.43768 7.25325 7.25337C7.43754 7.06907 7.68748 6.96552 7.94811 6.96552ZM59.0487 60.0345H7.94811C7.68748 60.0345 7.43754 59.9309 7.25325 59.7466C7.06896 59.5623 6.96541 59.3124 6.96541 59.0517V20.7241H60.0314V59.0517C60.0314 59.3124 59.9279 59.5623 59.7436 59.7466C59.5593 59.9309 59.3093 60.0345 59.0487 60.0345Z" fill="#428DFF"></path><path d="M48.5231 32.9791C48.3401 33.1632 48.2373 33.4123 48.2373 33.672C48.2373 33.9316 48.3401 34.1807 48.5231 34.3648C49.0752 34.9176 49.3853 35.667 49.3853 36.4483C49.3853 37.2296 49.0752 37.9789 48.5231 38.5317C48.431 38.6231 48.3579 38.7318 48.308 38.8515C48.2581 38.9713 48.2324 39.0998 48.2324 39.2295C48.2324 39.3592 48.2581 39.4877 48.308 39.6075C48.3579 39.7272 48.431 39.8359 48.5231 39.9272C48.6149 40.0183 48.7238 40.0904 48.8436 40.1393C48.9633 40.1882 49.0915 40.213 49.2208 40.2123C49.3502 40.213 49.4784 40.1882 49.5981 40.1393C49.7178 40.0904 49.8267 40.0183 49.9185 39.9272C50.8397 39.0057 51.3572 37.7562 51.3572 36.4532C51.3572 35.1502 50.8397 33.9006 49.9185 32.9791C49.8272 32.887 49.7185 32.8139 49.5988 32.764C49.479 32.7141 49.3506 32.6884 49.2208 32.6884C49.0911 32.6884 48.9626 32.7141 48.8429 32.764C48.7231 32.8139 48.6145 32.887 48.5231 32.9791Z" fill="#CCD3EB"></path><path d="M53.4372 32.9791C53.2541 33.1632 53.1514 33.4123 53.1514 33.672C53.1514 33.9316 53.2541 34.1807 53.4372 34.3648C53.9893 34.9176 54.2994 35.667 54.2994 36.4483C54.2994 37.2296 53.9893 37.9789 53.4372 38.5317C53.3451 38.6231 53.272 38.7318 53.2221 38.8515C53.1722 38.9713 53.1465 39.0998 53.1465 39.2295C53.1465 39.3592 53.1722 39.4877 53.2221 39.6075C53.272 39.7272 53.3451 39.8359 53.4372 39.9272C53.529 40.0183 53.6379 40.0904 53.7576 40.1393C53.8774 40.1882 54.0056 40.213 54.1349 40.2123C54.2642 40.213 54.3924 40.1882 54.5122 40.1393C54.6319 40.0904 54.7408 40.0183 54.8326 39.9272C55.7538 39.0057 56.2713 37.7562 56.2713 36.4532C56.2713 35.1502 55.7538 33.9006 54.8326 32.9791C54.7413 32.887 54.6326 32.8139 54.5128 32.764C54.3931 32.7141 54.2646 32.6884 54.1349 32.6884C54.0052 32.6884 53.8767 32.7141 53.757 32.764C53.6372 32.8139 53.5285 32.887 53.4372 32.9791Z" fill="#CCD3EB"></path><path d="M18.6407 32.9791C18.5493 32.887 18.4407 32.8139 18.3209 32.764C18.2012 32.7141 18.0727 32.6884 17.943 32.6884C17.8133 32.6884 17.6848 32.7141 17.5651 32.764C17.4453 32.8139 17.3366 32.887 17.2452 32.9791C16.3241 33.9006 15.8066 35.1502 15.8066 36.4532C15.8066 37.7562 16.3241 39.0058 17.2452 39.9272C17.3366 40.0193 17.4453 40.0925 17.5651 40.1424C17.6848 40.1923 17.8133 40.218 17.943 40.218C18.0727 40.218 18.2012 40.1923 18.3209 40.1424C18.4407 40.0925 18.5493 40.0193 18.6407 39.9272C18.7328 39.8359 18.8059 39.7272 18.8558 39.6075C18.9057 39.4877 18.9314 39.3592 18.9314 39.2295C18.9314 39.0998 18.9057 38.9713 18.8558 38.8516C18.8059 38.7318 18.7328 38.6231 18.6407 38.5317C18.0886 37.9789 17.7785 37.2296 17.7785 36.4483C17.7785 35.667 18.0886 34.9176 18.6407 34.3648C18.8237 34.1807 18.9265 33.9316 18.9265 33.672C18.9265 33.4123 18.8237 33.1632 18.6407 32.9791Z" fill="#CCD3EB"></path><path d="M13.7266 32.9791C13.6353 32.887 13.5266 32.8139 13.4068 32.764C13.2871 32.7141 13.1586 32.6884 13.0289 32.6884C12.8992 32.6884 12.7707 32.7141 12.651 32.764C12.5312 32.8139 12.4225 32.887 12.3312 32.9791C11.41 33.9006 10.8926 35.1502 10.8926 36.4532C10.8926 37.7562 11.41 39.0058 12.3312 39.9272C12.4225 40.0193 12.5312 40.0925 12.651 40.1424C12.7707 40.1923 12.8992 40.218 13.0289 40.218C13.1586 40.218 13.2871 40.1923 13.4068 40.1424C13.5266 40.0925 13.6353 40.0193 13.7266 39.9272C13.8187 39.8359 13.8919 39.7272 13.9417 39.6075C13.9916 39.4877 14.0173 39.3592 14.0173 39.2295C14.0173 39.0998 13.9916 38.9713 13.9417 38.8516C13.8919 38.7318 13.8187 38.6231 13.7266 38.5317C13.1745 37.9789 12.8645 37.2296 12.8645 36.4483C12.8645 35.667 13.1745 34.9176 13.7266 34.3648C13.9097 34.1807 14.0124 33.9316 14.0124 33.672C14.0124 33.4123 13.9097 33.1632 13.7266 32.9791Z" fill="#CCD3EB"></path><path d="M44 34.5207C44.0003 36.3058 43.5476 38.0615 42.6842 39.6228C41.8209 41.1842 40.5755 42.4998 39.065 43.4459L38.8836 46H28.1164L27.935 43.4459C26.3853 42.4752 25.1152 41.116 24.2504 39.5027C23.3855 37.8894 22.9557 36.0778 23.0036 34.247C23.0515 32.4162 23.5753 30.6296 24.5234 29.0639C25.4714 27.4982 26.8108 26.2076 28.4091 25.3196C30.0074 24.4316 31.8093 23.9771 33.6366 24.0009C35.4639 24.0247 37.2534 24.5261 38.8281 25.4554C40.4028 26.3848 41.7083 27.7099 42.6153 29.2998C43.5224 30.8897 43.9997 32.6893 44 34.5207Z" fill="#CCD3EB"></path><path d="M37.0369 33.6965C36.8284 33.5402 36.5663 33.473 36.3083 33.5099C36.0503 33.5467 35.8175 33.6846 35.6611 33.8931L33.4992 36.7824L31.3372 33.8931C31.1809 33.6846 30.948 33.5467 30.69 33.5099C30.432 33.473 30.1699 33.5402 29.9614 33.6965C29.7529 33.8529 29.6151 34.0857 29.5782 34.3438C29.5414 34.6018 29.6085 34.8639 29.7649 35.0724L32.5165 38.7479V46.2758C32.5165 46.5365 32.62 46.7864 32.8043 46.9707C32.9886 47.155 33.2385 47.2586 33.4992 47.2586C33.7598 47.2586 34.0098 47.155 34.1941 46.9707C34.3783 46.7864 34.4819 46.5365 34.4819 46.2758V38.7479L37.2335 35.0724C37.3109 34.9691 37.3672 34.8517 37.3992 34.7266C37.4313 34.6016 37.4384 34.4715 37.4201 34.3438C37.4019 34.216 37.3586 34.0931 37.2929 33.982C37.2271 33.871 37.1401 33.774 37.0369 33.6965Z" fill="#FE9661"></path><path d="M39.042 46.2759L38.757 50.2069H28.242L28.1045 48.2414L27.957 46.2759H39.042Z" fill="#F5F5F5"></path><path d="M43.443 29.1955C43.1824 29.1955 42.9325 29.2991 42.7482 29.4834C42.5639 29.6677 42.4603 29.9176 42.4603 30.1783C42.4574 30.3369 42.4982 30.4933 42.5783 30.6304C43.0767 31.8399 43.3337 33.1352 43.335 34.4435C43.3415 36.1115 42.9203 37.7534 42.1118 39.2124C41.3032 40.6714 40.1341 41.8987 38.7162 42.7772L38.6573 42.8362C38.6036 42.8769 38.5542 42.923 38.5099 42.9738C38.4686 43.0153 38.4323 43.0614 38.4018 43.1113L38.3232 43.2785C38.3022 43.3427 38.2858 43.4084 38.274 43.475C38.274 43.475 38.274 43.475 38.274 43.5438L38.1561 45.2538H34.4808V38.7086L37.2324 35.0331C37.3098 34.9298 37.3661 34.8124 37.3982 34.6874C37.4302 34.5623 37.4373 34.4322 37.419 34.3045C37.4008 34.1767 37.3575 34.0538 37.2918 33.9427C37.226 33.8317 37.1391 33.7346 37.0358 33.6572C36.9326 33.5798 36.8151 33.5234 36.6901 33.4914C36.5651 33.4594 36.435 33.4523 36.3072 33.4705C36.1795 33.4888 36.0566 33.5321 35.9455 33.5978C35.8345 33.6636 35.7375 33.7505 35.66 33.8538L33.4981 36.7431L31.3362 33.8538C31.1798 33.6453 30.947 33.5074 30.6889 33.4705C30.4309 33.4337 30.1688 33.5008 29.9603 33.6572C29.7518 33.8136 29.614 34.0465 29.5772 34.3045C29.5403 34.5625 29.6074 34.8246 29.7638 35.0331L32.5154 38.7086V45.2538H28.8696L28.7516 43.5438C28.7474 43.521 28.7474 43.4977 28.7516 43.475L28.6927 43.2785C28.6758 43.2236 28.6527 43.1708 28.6239 43.1212L28.4961 42.9541C28.4582 42.913 28.4152 42.8767 28.3684 42.846L28.3094 42.7772C26.8896 41.9008 25.719 40.6739 24.9101 39.2144C24.1013 37.755 23.6814 36.1121 23.6907 34.4435C23.6907 31.837 24.7261 29.3373 26.569 27.4943C28.4119 25.6512 30.9115 24.6159 33.5178 24.6159C34.6051 24.6163 35.6846 24.799 36.7115 25.1564C36.9578 25.2424 37.2282 25.227 37.4632 25.1137C37.6981 25.0003 37.8785 24.7983 37.9645 24.552C38.0505 24.3057 38.0351 24.0353 37.9218 23.8003C37.8084 23.5653 37.6064 23.385 37.3601 23.299C36.1253 22.8668 34.826 22.6475 33.5178 22.6504C31.0061 22.6556 28.5616 23.4628 26.5406 24.9542C24.5196 26.4456 23.0275 28.5434 22.2818 30.942C21.536 33.3405 21.5756 35.9145 22.3946 38.2891C23.2137 40.6636 24.7695 42.7146 26.8353 44.1433L27.366 51.5041C27.4556 52.7451 28.0125 53.9058 28.9245 54.7521C29.8364 55.5985 31.0354 56.0674 32.2795 56.0641H34.7854C36.0295 56.0674 37.2286 55.5985 38.1405 54.7521C39.0524 53.9058 39.6094 52.7451 39.6989 51.5041L40.2198 44.1433C41.7999 43.0671 43.0926 41.6204 43.985 39.9296C44.8775 38.2388 45.3426 36.3553 45.3397 34.4435C45.3276 32.8437 44.9934 31.2627 44.357 29.795C44.2811 29.6158 44.1537 29.4632 43.991 29.3564C43.8283 29.2497 43.6376 29.1937 43.443 29.1955ZM38.0185 47.2586L37.8711 49.2241H29.1742L29.0366 47.2586H38.0185ZM34.7756 54.1379H32.2697C31.5239 54.1399 30.805 53.8592 30.2579 53.3522C29.7109 52.8452 29.3763 52.1497 29.3216 51.4058V51.1896H37.7335V51.396C37.6808 52.1485 37.3417 52.8521 36.786 53.3622C36.2303 53.8722 35.5003 54.1498 34.7461 54.1379H34.7756Z" fill="#428DFF"></path><path d="M40.5451 27.6328C40.6373 27.7269 40.7474 27.8015 40.869 27.8521C40.9905 27.9028 41.121 27.9285 41.2527 27.9277C41.5057 27.9267 41.7486 27.8281 41.9307 27.6525C42.1138 27.4684 42.2165 27.2193 42.2165 26.9596C42.2165 26.7 42.1138 26.451 41.9307 26.2668C41.606 25.9351 41.2614 25.6233 40.8989 25.3332C40.7976 25.2532 40.6815 25.1939 40.5573 25.1588C40.4331 25.1236 40.3032 25.1132 40.175 25.1283C40.0468 25.1433 39.9228 25.1835 39.8101 25.2465C39.6974 25.3095 39.5982 25.394 39.5182 25.4953C39.4382 25.5966 39.3789 25.7127 39.3438 25.8369C39.3086 25.9611 39.2983 26.0911 39.3134 26.2193C39.3284 26.3475 39.3686 26.4715 39.4315 26.5842C39.4945 26.6969 39.5791 26.7961 39.6804 26.8761C39.9853 27.1087 40.2742 27.3614 40.5451 27.6328Z" fill="#428DFF"></path></svg>