<svg width="66" height="66" viewBox="0 0 66 66" fill="none" xmlns="http://www.w3.org/2000/svg">
<path d="M45.4493 53.8697C47.0545 53.8697 48.3557 52.5685 48.3557 50.9633C48.3557 49.3582 47.0545 48.057 45.4493 48.057C43.8442 48.057 42.543 49.3582 42.543 50.9633C42.543 52.5685 43.8442 53.8697 45.4493 53.8697Z" fill="#E3E7F2"/>
<path d="M38.3692 59.7744C39.4393 59.7744 40.3067 58.9069 40.3067 57.8368C40.3067 56.7668 39.4393 55.8993 38.3692 55.8993C37.2991 55.8993 36.4316 56.7668 36.4316 57.8368C36.4316 58.9069 37.2991 59.7744 38.3692 59.7744Z" fill="#E3E7F2"/>
<path d="M62.372 24.2033C62.372 18.9648 58.135 14.718 52.9085 14.718C51.9291 14.718 50.9845 14.8672 50.0959 15.144C48.6966 8.56598 42.8668 3.63184 35.8865 3.63184C29.6983 3.63184 24.4145 7.50967 22.3199 12.9728C21.4292 12.5417 20.4303 12.2999 19.3747 12.2999C15.6295 12.2999 12.5932 15.343 12.5932 19.097C12.5932 19.6108 12.652 20.1105 12.7598 20.5918L13.2153 22.2672C10.4036 23.9796 8.52539 27.0784 8.52539 30.6168C8.52539 36.0087 12.8864 40.3797 18.2659 40.3797C21.0455 40.3797 23.5529 39.2127 25.3275 37.341C27.5001 40.6263 31.2216 42.793 35.4486 42.793C39.0181 42.793 42.2274 41.2481 44.4477 38.7891C45.9791 39.7946 47.8099 40.3797 49.7773 40.3797C55.0299 40.3797 59.3107 36.2123 59.5098 30.9965C61.2746 29.2737 62.372 26.8675 62.372 24.2033Z" fill="#E3E7F2"/>
<path d="M24.1611 14.1769C23.9275 14.1769 23.6916 14.1094 23.4836 13.9687C22.9296 13.5938 22.7845 12.841 23.1594 12.287C25.393 8.98636 29.1103 6.94176 33.1032 6.81763C33.7704 6.79765 34.3304 7.32191 34.3512 7.9904C34.372 8.6589 33.8469 9.21755 33.1784 9.23838C29.96 9.33841 26.9644 10.9855 25.1651 13.6444C24.9311 13.9905 24.5495 14.1769 24.1611 14.1769Z" fill="#428DFF"/>
<path d="M37.6425 10.0329C37.4941 10.0329 37.3434 10.0054 37.1971 9.94751L37.1621 9.93371C36.5402 9.6875 36.2356 8.98377 36.4818 8.36202C36.728 7.74027 37.4318 7.43558 38.0535 7.6819L38.0885 7.69571C38.7104 7.94191 39.015 8.64565 38.7687 9.26739C38.5804 9.74297 38.1246 10.0329 37.6425 10.0329Z" fill="#428DFF"/>
<path d="M33.001 47.6536C28.5559 47.6536 24.4024 45.6526 21.6339 42.2382C19.4912 44.0216 16.8245 44.9895 13.9887 44.9895C12.6754 44.9895 11.3837 44.7781 10.1501 44.3612C9.51644 44.1471 9.17614 43.4601 9.39025 42.8264C9.60436 42.1929 10.2915 41.8522 10.925 42.0668C11.9087 42.3989 12.9394 42.5675 13.9887 42.5675C16.6365 42.5675 19.0996 41.5099 20.9244 39.5896C21.1784 39.3222 21.54 39.1852 21.9079 39.2174C22.2753 39.2496 22.608 39.4474 22.8117 39.7549C25.0848 43.1842 28.8939 45.2317 33.001 45.2317C36.4452 45.2317 39.7473 43.766 42.0605 41.2101C42.4608 40.7679 43.1233 40.6829 43.6219 41.0096C45.1779 42.0288 46.9877 42.5675 48.8555 42.5675C54.0184 42.5675 58.2171 38.5291 58.4142 33.3737C58.4261 33.0633 58.5568 32.7692 58.7793 32.5525C60.5855 30.7931 61.5801 28.4377 61.5801 25.9205C61.5801 20.8142 57.426 16.6601 52.3199 16.6601C51.3809 16.6601 50.4548 16.8 49.5672 17.076C49.2422 17.1769 48.8895 17.1365 48.5958 16.9646C48.3022 16.7925 48.0942 16.5049 48.0233 16.1719C46.5718 9.36373 40.4578 4.42196 33.4855 4.42196C27.3748 4.42196 21.7965 8.25393 19.6046 13.9573C19.4832 14.2734 19.2349 14.5243 18.92 14.6489C18.6052 14.7734 18.2525 14.7607 17.9476 14.6135C17.0923 14.2005 16.1733 13.9911 15.2155 13.9911C11.7457 13.9911 8.92279 16.814 8.92279 20.2838C8.92279 20.7362 8.97304 21.1935 9.07199 21.6431L9.56863 23.4652C9.71057 23.9862 9.4904 24.5382 9.02899 24.8184C6.14418 26.571 4.42196 29.63 4.42196 33.0008C4.42196 34.2397 4.65496 35.4447 5.11455 36.582C5.36512 37.2021 5.0655 37.9078 4.44533 38.1584C3.82516 38.409 3.11948 38.1094 2.86892 37.4893C2.29234 36.0622 2 34.552 2 33.0007C2 29.0859 3.85301 25.5071 7.00147 23.2563L6.72778 22.2518C6.72293 22.2342 6.71857 22.2166 6.71458 22.1988C6.57276 21.5671 6.50083 20.9229 6.50083 20.2835C6.50083 15.4783 10.4102 11.5689 15.2155 11.5689C16.1115 11.5689 16.9837 11.7016 17.8214 11.9647C19.1038 9.21961 21.079 6.86753 23.5869 5.11286C26.498 3.07661 29.9208 2 33.4855 2C37.4674 2 41.3541 3.38688 44.4296 5.90512C47.1364 8.12156 49.1143 11.1219 50.0858 14.452C50.8188 14.31 51.5663 14.2383 52.3198 14.2383C58.7613 14.2383 64.002 19.4789 64.002 25.9206C64.002 28.9364 62.871 31.7675 60.8065 33.9455C60.5789 36.8679 59.3013 39.581 57.1775 41.6301C54.932 43.7964 51.9764 44.9895 48.8555 44.9895C46.8536 44.9895 44.9045 44.4953 43.1612 43.5523C40.4437 46.1701 36.7944 47.6536 33.001 47.6536Z" fill="#428DFF"/>
<path d="M6.71902 42.1711C6.42801 42.1711 6.13615 42.0669 5.90411 41.8556L5.85313 41.8088C5.36132 41.3555 5.3302 40.5894 5.78349 40.0976C6.23678 39.6059 7.00301 39.5745 7.49457 40.028L7.53453 40.0647C8.029 40.5151 8.06497 41.2809 7.6147 41.7754C7.37589 42.0378 7.04806 42.1711 6.71902 42.1711Z" fill="#428DFF"/>
<path d="M19.0821 29.6101C20.9547 29.6101 22.4727 28.092 22.4727 26.2194C22.4727 24.3468 20.9547 22.8288 19.0821 22.8288C17.2095 22.8288 15.6914 24.3468 15.6914 26.2194C15.6914 28.092 17.2095 29.6101 19.0821 29.6101Z" fill="white"/>
<path d="M33.002 29.6101C34.8746 29.6101 36.3927 28.092 36.3927 26.2194C36.3927 24.3468 34.8746 22.8288 33.002 22.8288C31.1294 22.8288 29.6113 24.3468 29.6113 26.2194C29.6113 28.092 31.1294 29.6101 33.002 29.6101Z" fill="white"/>
<path d="M46.92 29.6101C48.7926 29.6101 50.3106 28.092 50.3106 26.2194C50.3106 24.3468 48.7926 22.8288 46.92 22.8288C45.0474 22.8288 43.5293 24.3468 43.5293 26.2194C43.5293 28.092 45.0474 29.6101 46.92 29.6101Z" fill="white"/>
<path d="M19.0822 30.8212C16.5448 30.8212 14.4805 28.7568 14.4805 26.2194C14.4805 23.6821 16.5448 21.6177 19.0822 21.6177C21.6195 21.6177 23.6839 23.6821 23.6839 26.2194C23.6839 28.7568 21.6195 30.8212 19.0822 30.8212ZM19.0822 24.0397C17.8803 24.0397 16.9024 25.0176 16.9024 26.2194C16.9024 27.4213 17.8803 28.3992 19.0822 28.3992C20.284 28.3992 21.2619 27.4213 21.2619 26.2194C21.2619 25.0176 20.2841 24.0397 19.0822 24.0397Z" fill="#428DFF"/>
<path d="M33.0002 30.8212C30.4628 30.8212 28.3984 28.7568 28.3984 26.2194C28.3984 23.6821 30.4628 21.6177 33.0002 21.6177C35.5375 21.6177 37.6019 23.6821 37.6019 26.2194C37.6019 28.7568 35.5375 30.8212 33.0002 30.8212ZM33.0002 24.0397C31.7983 24.0397 30.8204 25.0176 30.8204 26.2194C30.8204 27.4213 31.7983 28.3992 33.0002 28.3992C34.202 28.3992 35.1799 27.4213 35.1799 26.2194C35.1799 25.0176 34.202 24.0397 33.0002 24.0397Z" fill="#428DFF"/>
<path d="M46.9201 30.8212C44.3827 30.8212 42.3184 28.7568 42.3184 26.2194C42.3184 23.6821 44.3827 21.6177 46.9201 21.6177C49.4574 21.6177 51.5218 23.6821 51.5218 26.2194C51.5218 28.7568 49.4574 30.8212 46.9201 30.8212ZM46.9201 24.0397C45.7182 24.0397 44.7403 25.0176 44.7403 26.2194C44.7403 27.4213 45.7182 28.3992 46.9201 28.3992C48.1219 28.3992 49.0998 27.4213 49.0998 26.2194C49.0998 25.0176 48.1219 24.0397 46.9201 24.0397Z" fill="#428DFF"/>
<path d="M45.4474 55.081C43.177 55.081 41.3301 53.234 41.3301 50.9637C41.3301 48.6934 43.177 46.8464 45.4474 46.8464C47.7177 46.8464 49.5647 48.6934 49.5647 50.9637C49.5647 53.234 47.7177 55.081 45.4474 55.081ZM45.4474 49.2684C44.5124 49.2684 43.752 50.0289 43.752 50.9637C43.752 51.8985 44.5126 52.659 45.4474 52.659C46.3822 52.659 47.1427 51.8985 47.1427 50.9637C47.1427 50.0289 46.3823 49.2684 45.4474 49.2684Z" fill="#428DFF"/>
<path d="M38.3693 60.9848C36.6333 60.9848 35.2207 59.5724 35.2207 57.8362C35.2207 56.1 36.6331 54.6876 38.3693 54.6876C40.1054 54.6876 41.5179 56.0999 41.5179 57.8362C41.5177 59.5724 40.1053 60.9848 38.3693 60.9848ZM38.3693 57.1097C37.9686 57.1097 37.6427 57.4356 37.6427 57.8363C37.6427 58.237 37.9686 58.5629 38.3693 58.5629C38.77 58.5629 39.0959 58.237 39.0959 57.8363C39.0959 57.4356 38.7698 57.1097 38.3693 57.1097Z" fill="#428DFF"/>
<path d="M33.0066 64.0052C32.9075 64.0052 32.8074 63.9929 32.7082 63.9676C32.6545 63.9545 32.6014 63.9375 32.5488 63.9167C31.9269 63.6705 31.6224 62.9668 31.8686 62.345C32.0956 61.7718 32.7114 61.4687 33.2932 61.6171C33.3469 61.6301 33.4 61.6471 33.4526 61.6679C34.0745 61.9141 34.379 62.6179 34.1328 63.2396C33.9446 63.7153 33.4887 64.0052 33.0066 64.0052Z" fill="#428DFF"/>
</svg>
