<svg width="66" height="66" viewBox="0 0 66 66" fill="none" xmlns="http://www.w3.org/2000/svg">
<ellipse cx="32.9995" cy="33" rx="25.4545" ry="25.4545" fill="white"/>
<path d="M32.9993 32.4712C37.4442 32.4712 41.0474 28.868 41.0474 24.4231C41.0474 19.9783 37.4442 16.375 32.9993 16.375C28.5544 16.375 24.9512 19.9783 24.9512 24.4231C24.9512 28.868 28.5544 32.4712 32.9993 32.4712Z" fill="#F5F5F5"/>
<path d="M36.1249 31.8412C35.1649 32.2475 34.1087 32.4712 32.9999 32.4712C28.5549 32.4712 24.9512 28.8675 24.9512 24.4237C24.9512 19.9787 28.5549 16.375 32.9999 16.375C34.1087 16.375 35.1649 16.5987 36.1249 17.005C33.2312 18.225 31.2012 21.0875 31.2012 24.4237C31.2012 27.76 33.2312 30.6212 36.1249 31.8412Z" fill="#F5F5F5"/>
<path d="M45.1607 44.6322V45.8106C41.7132 48.2171 37.5202 49.625 32.9983 49.625C28.4764 49.625 24.2834 48.2171 20.8359 45.8106V44.6322C20.8359 37.9169 26.2807 32.4721 32.9983 32.4721C36.3583 32.4721 39.3966 33.8327 41.5996 36.0332C43.8002 38.234 45.1607 41.2746 45.1607 44.6322Z" fill="#F5F5F5"/>
<path d="M30.6097 46.483C32.6597 47.7451 34.9403 48.6674 37.3734 49.175C35.9609 49.47 34.4972 49.625 32.9984 49.625C28.4772 49.625 24.2834 48.2175 20.8359 45.8113V44.6325C20.8359 37.9175 26.2809 32.4725 32.9984 32.4725C34.5409 32.4725 36.0172 32.7588 37.3747 33.2838C32.8184 35.0388 29.5859 39.4588 29.5859 44.6325C29.5859 45.3844 29.9694 46.0889 30.6097 46.483Z" fill="#CCD3EB"/>
<path d="M33 13.1875C34.0355 13.1875 34.875 12.348 34.875 11.3125V3.8125C34.875 2.777 34.0355 1.9375 33 1.9375C31.9645 1.9375 31.125 2.777 31.125 3.8125V11.3125C31.125 12.348 31.9645 13.1875 33 13.1875Z" fill="#CCD3EB"/>
<path d="M33 64.0625C34.0355 64.0625 34.875 63.223 34.875 62.1875V54.6875C34.875 53.652 34.0355 52.8125 33 52.8125C31.9645 52.8125 31.125 53.652 31.125 54.6875V62.1875C31.125 63.223 31.9645 64.0625 33 64.0625Z" fill="#CCD3EB"/>
<path d="M13.1875 33C13.1875 31.9645 12.348 31.125 11.3125 31.125H3.8125C2.777 31.125 1.9375 31.9645 1.9375 33C1.9375 34.0355 2.777 34.875 3.8125 34.875H11.3125C12.348 34.875 13.1875 34.0355 13.1875 33Z" fill="#CCD3EB"/>
<path d="M64.0625 33C64.0625 31.9645 63.223 31.125 62.1875 31.125H54.6875C53.652 31.125 52.8125 31.9645 52.8125 33C52.8125 34.0355 53.652 34.875 54.6875 34.875H62.1875C63.223 34.875 64.0625 34.0355 64.0625 33Z" fill="#CCD3EB"/>
<path d="M19.8984 44.6325V45.8112C19.8984 46.1177 20.0482 46.4049 20.2996 46.5801C21.3838 47.3366 22.5398 47.998 23.7353 48.546C24.2058 48.7618 24.7623 48.5551 24.9782 48.0844C25.1939 47.6136 24.9873 47.0572 24.5166 46.8415C23.5688 46.4071 22.6481 45.8946 21.7734 45.3151V44.6325C21.7734 38.4444 26.8089 33.41 32.9984 33.41C35.9968 33.41 38.8162 34.5772 40.9368 36.6966C43.0562 38.8161 44.2234 41.6344 44.2234 44.6325V45.3154C40.8953 47.523 37.0249 48.6875 32.9984 48.6875C31.4502 48.6875 29.9107 48.5135 28.4229 48.1702C27.9186 48.0536 27.4151 48.3685 27.2987 48.873C27.1823 49.3775 27.4969 49.8809 28.0014 49.9972C29.6273 50.3722 31.3086 50.5625 32.9984 50.5625C37.5736 50.5625 41.9648 49.1854 45.6974 46.58C45.9487 46.4046 46.0984 46.1176 46.0984 45.8112V44.6325C46.0984 41.1336 44.7362 37.8444 42.2624 35.3706C40.8579 33.9669 39.1907 32.9216 37.3719 32.2795C39.5012 31.0972 41.1154 29.066 41.7267 26.5662C41.8496 26.0632 41.5416 25.5559 41.0387 25.4329C40.5354 25.31 40.0283 25.6179 39.9053 26.1209C39.1261 29.308 36.2859 31.5338 32.9984 31.5338C29.0773 31.5338 25.8872 28.3442 25.8872 24.4237C25.8872 20.5026 29.0773 17.3125 32.9984 17.3125C36.1786 17.3125 38.9957 19.4495 39.8492 22.5094C39.9883 23.0081 40.5052 23.2997 41.0041 23.1605C41.5028 23.0214 41.7943 22.5044 41.6552 22.0056C40.5766 18.1384 37.0167 15.4375 32.9984 15.4375C28.0434 15.4375 24.0122 19.4688 24.0122 24.4237C24.0122 27.7992 25.8843 30.7445 28.6441 32.2798C23.5549 34.0784 19.8984 38.9361 19.8984 44.6325Z" fill="#428DFF"/>
<path d="M62.1875 30.1875H58.7854C58.1511 24.3331 55.5285 18.8474 51.3406 14.6594C47.1528 10.4714 41.6669 7.84888 35.8125 7.21462V3.8125C35.8125 2.26163 34.5509 1 33 1C31.4491 1 30.1875 2.26163 30.1875 3.8125V7.21425C22.6576 8.02437 15.9195 12.0446 11.5983 18.3421C11.3053 18.7691 11.4139 19.3526 11.8407 19.6456C12.0029 19.7569 12.1875 19.8101 12.3704 19.8101C12.669 19.8101 12.9625 19.6677 13.1442 19.403C17.115 13.6163 23.2844 9.903 30.1875 9.10175V11.3125C30.1875 12.8634 31.4491 14.125 33 14.125C34.5509 14.125 35.8125 12.8634 35.8125 11.3125V9.10087C46.7882 10.3881 55.6119 19.2118 56.8991 30.1875H54.6875C53.1366 30.1875 51.875 31.4491 51.875 33C51.875 34.5509 53.1366 35.8125 54.6875 35.8125H56.8991C55.6119 46.7882 46.7882 55.6119 35.8125 56.8991V54.6875C35.8125 53.1366 34.5509 51.875 33 51.875C31.4491 51.875 30.1875 53.1366 30.1875 54.6875V56.8991C19.2118 55.6119 10.3881 46.7882 9.10087 35.8125H11.3125C12.8634 35.8125 14.125 34.5509 14.125 33C14.125 31.4491 12.8634 30.1875 11.3125 30.1875H9.0995C9.37475 27.819 9.998 25.5181 10.9571 23.3345C11.1654 22.8605 10.9499 22.3074 10.4757 22.0991C10.0017 21.8907 9.44862 22.1064 9.24037 22.5805C8.17662 25.0021 7.49738 27.5573 7.214 30.1875H3.8125C2.26163 30.1875 1 31.4491 1 33C1 34.5509 2.26163 35.8125 3.8125 35.8125H7.21462C7.84888 41.6669 10.4715 47.1526 14.6594 51.3406C18.8472 55.5286 24.333 58.1511 30.1875 58.7854V62.1875C30.1875 63.7384 31.4491 65 33 65C34.5509 65 35.8125 63.7384 35.8125 62.1875V58.7854C41.6669 58.1511 47.1526 55.5285 51.3406 51.3406C55.5286 47.1528 58.1511 41.667 58.7854 35.8125H62.1875C63.7384 35.8125 65 34.5509 65 33C65 31.4491 63.7384 30.1875 62.1875 30.1875ZM33.9375 11.3125C33.9375 11.8295 33.517 12.25 33 12.25C32.483 12.25 32.0625 11.8295 32.0625 11.3125V3.8125C32.0625 3.2955 32.483 2.875 33 2.875C33.517 2.875 33.9375 3.2955 33.9375 3.8125V11.3125ZM2.875 33C2.875 32.483 3.2955 32.0625 3.8125 32.0625H8.06812H8.06975H8.071H11.3125C11.8295 32.0625 12.25 32.483 12.25 33C12.25 33.517 11.8295 33.9375 11.3125 33.9375H3.8125C3.2955 33.9375 2.875 33.517 2.875 33ZM33.9375 62.1875C33.9375 62.7045 33.517 63.125 33 63.125C32.483 63.125 32.0625 62.7045 32.0625 62.1875V54.6875C32.0625 54.1705 32.483 53.75 33 53.75C33.517 53.75 33.9375 54.1705 33.9375 54.6875V62.1875ZM62.1875 33.9375H54.6875C54.1705 33.9375 53.75 33.517 53.75 33C53.75 32.483 54.1705 32.0625 54.6875 32.0625H57.929H57.9302H57.9319H62.1875C62.7045 32.0625 63.125 32.483 63.125 33C63.125 33.517 62.7045 33.9375 62.1875 33.9375Z" fill="#428DFF"/>
</svg>
