<svg width="66" height="66" viewBox="0 0 66 66" fill="none" xmlns="http://www.w3.org/2000/svg">
<path d="M33.5 15.9844H23.3594V19.6719L14.1406 13.2188L23.3594 6.76562V10.4531H33.5V15.9844Z" fill="#CCD3EB"/>
<path d="M33.5 21.5156H43.6406V25.2031L52.8594 18.75L43.6406 12.2969V15.9844H33.5V21.5156Z" fill="#F5F5F5"/>
<path d="M33.5 32.5781H23.3594V36.2656L14.1406 29.8125L23.3594 23.3594V27.0469H33.5V32.5781Z" fill="#CCD3EB"/>
<path d="M33.5 38.1094H43.6406V41.7969L52.8594 35.3438L43.6406 28.8906V32.5781H33.5V38.1094Z" fill="#F5F5F5"/>
<path d="M11.375 24.7422V36.2656L23.3594 48.25V60.2344H15.0625V55.625L6.76562 44.5625V24.7422C6.76562 23.4691 7.7972 22.4375 9.07031 22.4375C10.3434 22.4375 11.375 23.4691 11.375 24.7422Z" fill="#F5F5F5"/>
<path d="M58.5957 24.3325V35.8559L46.6113 47.8403V59.8247H52.3474V55.625L60.5419 44.1528L59.7224 24.4861C59.7224 23.213 60.1761 22.0278 58.903 22.0278C57.6299 22.0278 58.5957 23.0594 58.5957 24.3325Z" fill="#F5F5F5"/>
<path d="M23.3594 61.1563H15.0625C14.5527 61.1563 14.1406 60.7442 14.1406 60.2344V55.9431L6.04011 45.5913C5.91289 45.4291 5.84375 45.2299 5.84375 45.0234V24.7422C5.84375 22.963 7.29109 21.5156 9.07031 21.5156C10.8495 21.5156 12.2969 22.963 12.2969 24.7422V35.884L24.0111 47.5982C24.1845 47.7706 24.2812 48.0048 24.2812 48.25V60.2344C24.2812 60.7442 23.8692 61.1563 23.3594 61.1563ZM15.9844 59.3125H22.4375V48.6317L14.2485 40.4436C13.935 40.1311 13.5027 39.9531 13.0602 39.9531C12.1309 39.9531 11.375 40.7091 11.375 41.6383C11.375 42.0817 11.5548 42.5169 11.8682 42.8303L17.558 48.5201L16.2545 49.8236L10.5647 44.1338C9.89816 43.4673 9.53125 42.5814 9.53125 41.6383C9.53125 40.0407 10.5997 38.6865 12.059 38.2541L10.7232 36.9174C10.5499 36.745 10.4531 36.5108 10.4531 36.2656V24.7422C10.4531 23.9798 9.8327 23.3594 9.07031 23.3594C8.30792 23.3594 7.6875 23.9798 7.6875 24.7422V44.7054L15.788 55.0571C15.9152 55.2194 15.9844 55.4185 15.9844 55.625V59.3125Z" fill="#428DFF"/>
<path d="M51.9375 61.1563H43.6406C43.1308 61.1563 42.7188 60.7442 42.7188 60.2344V48.25C42.7188 48.0048 42.8155 47.7706 42.9889 47.5982L54.7031 35.884V24.7422C54.7031 22.963 56.1505 21.5156 57.9297 21.5156C59.7089 21.5156 61.1562 22.963 61.1562 24.7422V45.0234C61.1562 45.2299 61.0871 45.4291 60.9599 45.5913L52.8594 55.9431V60.2344C52.8594 60.7442 52.4473 61.1563 51.9375 61.1563ZM44.5625 59.3125H51.0156V55.625C51.0156 55.4185 51.0848 55.2194 51.212 55.0571L59.3125 44.7054V24.7422C59.3125 23.9798 58.6921 23.3594 57.9297 23.3594C57.1673 23.3594 56.5469 23.9798 56.5469 24.7422V36.2656C56.5469 36.5108 56.4501 36.745 56.2768 36.9174L54.941 38.2541C56.4003 38.6865 57.4688 40.0407 57.4688 41.6383C57.4688 42.5805 57.1018 43.4673 56.4353 44.1338L50.7455 49.8236L49.442 48.5201L55.1318 42.8303C55.4452 42.5169 55.625 42.0827 55.625 41.6383C55.625 40.7091 54.8691 39.9531 53.9398 39.9531C53.4982 39.9531 53.065 40.1311 52.7515 40.4436L44.5625 48.6317V59.3125Z" fill="#428DFF"/>
<path d="M43.6406 26.125C43.495 26.125 43.3493 26.0909 43.2147 26.0208C42.9096 25.8623 42.7188 25.547 42.7188 25.2031V22.4375H33.5V20.5937H43.6406C44.1504 20.5937 44.5625 21.0058 44.5625 21.5156V23.4322L51.2516 18.75L44.5625 14.0678V15.9844C44.5625 16.4942 44.1504 16.9062 43.6406 16.9062H24.2812V19.6719C24.2812 20.0157 24.0904 20.331 23.7853 20.4896C23.4801 20.649 23.1132 20.6251 22.8311 20.4278L13.6124 13.9747C13.3653 13.8014 13.2188 13.5193 13.2188 13.2187C13.2188 12.9182 13.3653 12.6361 13.6124 12.4637L22.8311 6.0106C23.1132 5.81239 23.4801 5.78935 23.7853 5.94883C24.0904 6.10647 24.2812 6.42175 24.2812 6.76561V9.53124H33.5V11.375H23.3594C22.8496 11.375 22.4375 10.9629 22.4375 10.4531V8.53653L15.7484 13.2187L22.4375 17.9009V15.9844C22.4375 15.4746 22.8496 15.0625 23.3594 15.0625H42.7188V12.2969C42.7188 11.953 42.9096 11.6377 43.2147 11.4792C43.5199 11.3188 43.8868 11.3436 44.1689 11.5409L53.3876 17.9941C53.6347 18.1674 53.7812 18.4495 53.7812 18.75C53.7812 19.0505 53.6347 19.3326 53.3876 19.505L44.1689 25.9581C44.0112 26.0688 43.8259 26.125 43.6406 26.125Z" fill="#428DFF"/>
<path d="M35.3438 9.53125H37.1875V11.375H35.3438V9.53125Z" fill="#428DFF"/>
<path d="M39.0312 9.53125H40.875V11.375H39.0312V9.53125Z" fill="#428DFF"/>
<path d="M26.125 20.5938H27.9688V22.4375H26.125V20.5938Z" fill="#428DFF"/>
<path d="M29.8125 20.5938H31.6562V22.4375H29.8125V20.5938Z" fill="#428DFF"/>
<path d="M43.6406 42.7187C43.495 42.7187 43.3493 42.6846 43.2147 42.6146C42.9096 42.456 42.7188 42.1407 42.7188 41.7969V39.0312H33.5V37.1875H43.6406C44.1504 37.1875 44.5625 37.5996 44.5625 38.1094V40.0259L51.2516 35.3437L44.5625 30.6615V32.5781C44.5625 33.0879 44.1504 33.5 43.6406 33.5H24.2812V36.2656C24.2812 36.6095 24.0904 36.9248 23.7853 37.0833C23.4801 37.2428 23.1132 37.2188 22.8311 37.0215L13.6124 30.5684C13.3653 30.3951 13.2188 30.113 13.2188 29.8125C13.2188 29.512 13.3653 29.2299 13.6124 29.0575L22.8311 22.6044C23.1132 22.4062 23.4801 22.3831 23.7853 22.5426C24.0904 22.7002 24.2812 23.0155 24.2812 23.3594V26.125H33.5V27.9687H23.3594C22.8496 27.9687 22.4375 27.5567 22.4375 27.0469V25.1303L15.7484 29.8125L22.4375 34.4947V32.5781C22.4375 32.0683 22.8496 31.6562 23.3594 31.6562H42.7188V28.8906C42.7188 28.5468 42.9096 28.2315 43.2147 28.0729C43.5199 27.9134 43.8868 27.9374 44.1689 28.1347L53.3876 34.5878C53.6347 34.7611 53.7812 35.0432 53.7812 35.3437C53.7812 35.6443 53.6347 35.9264 53.3876 36.0988L44.1689 42.5519C44.0112 42.6625 43.8259 42.7187 43.6406 42.7187Z" fill="#428DFF"/>
<path d="M35.3438 26.125H37.1875V27.9688H35.3438V26.125Z" fill="#428DFF"/>
<path d="M39.0312 26.125H40.875V27.9688H39.0312V26.125Z" fill="#428DFF"/>
<path d="M26.125 37.1875H27.9688V39.0312H26.125V37.1875Z" fill="#428DFF"/>
<path d="M29.8125 37.1875H31.6562V39.0312H29.8125V37.1875Z" fill="#428DFF"/>
</svg>
