<svg width="66" height="66" viewBox="0 0 66 66" fill="none" xmlns="http://www.w3.org/2000/svg">
<g clip-path="url(#clip0)">
<path d="M44.4436 4.84961H9.0955C7.84545 4.84961 6.83203 5.86302 6.83203 7.11308V58.8869C6.83203 60.137 7.84545 61.1504 9.0955 61.1504H44.4437C45.6936 61.1504 46.707 60.137 46.707 58.8869V7.11297C46.707 5.86303 45.6936 4.84961 44.4436 4.84961Z" fill="#F5F5F5"/>
<path d="M44.4434 61.1504H41.0449C42.295 61.1504 43.3084 60.137 43.3084 58.8869V7.11296C43.3084 5.86291 42.295 4.84949 41.0449 4.84949H44.4434C45.6934 4.84949 46.7068 5.86291 46.7068 7.11296V58.8869C46.7068 60.137 45.6934 61.1504 44.4434 61.1504Z" fill="#CCD3EB"/>
<path d="M43.5234 21.562L45.9261 23.9646L49.9306 19.9602L47.5279 17.5575L43.5234 21.562Z" fill="#CCD3EB"/>
<path d="M58.6713 8.826C58.0077 8.16239 56.9319 8.16239 56.2683 8.826L47.5371 17.5572L49.9401 19.9602L58.6713 11.229C59.3348 10.5655 59.3348 9.4896 58.6713 8.826Z" fill="#428DFF"/>
<path d="M33.6777 17.3921C42.7494 17.3921 50.1035 24.7462 50.1035 33.8179C50.1035 42.8896 42.7494 50.2437 33.6777 50.2437C24.606 50.2437 17.252 42.8896 17.252 33.8179C17.252 24.7462 24.606 17.3921 33.6777 17.3921Z" fill="#CCD3EB"/>
<path d="M45.2926 45.4326C41.6524 49.0728 36.729 50.6462 31.9785 50.155C35.5993 49.7806 39.1195 48.2071 41.8941 45.4326C48.3088 39.018 48.3088 28.6177 41.8941 22.2031C39.1197 19.4286 35.5993 17.8551 31.9785 17.4807C36.729 16.9895 41.6524 18.563 45.2926 22.2031C51.7072 28.6177 51.7072 39.018 45.2926 45.4326Z" fill="#F5F5F5"/>
<path d="M33.6777 20.7906C40.8725 20.7906 46.7051 26.6231 46.7051 33.8179C46.7051 41.0127 40.8725 46.8452 33.6777 46.8452C26.4829 46.8452 20.6504 41.0127 20.6504 33.8179C20.6504 26.6231 26.4829 20.7906 33.6777 20.7906Z" fill="#F5F5F5"/>
<path d="M34.6275 5.69922H9.09539C8.3159 5.69922 7.68164 6.33348 7.68164 7.11298V51.1394C7.68164 51.6086 7.30124 51.989 6.83203 51.989C6.36282 51.989 5.98242 51.6086 5.98242 51.1394V7.11298C5.98242 5.39654 7.37895 4 9.09539 4H34.6275C35.0968 4 35.4771 4.3804 35.4771 4.84961C35.4771 5.31882 35.0968 5.69922 34.6275 5.69922Z" fill="#428DFF"/>
<path d="M13.3457 53.0508H24.2207C24.6899 53.0508 25.0703 53.4312 25.0703 53.9004C25.0703 54.3696 24.6899 54.75 24.2207 54.75H13.3457C12.8765 54.75 12.4961 54.3696 12.4961 53.9004C12.4961 53.4312 12.8765 53.0508 13.3457 53.0508Z" fill="#428DFF"/>
<path d="M24.2207 11.7031C24.6899 11.7031 25.0703 12.0835 25.0703 12.5527C25.0703 13.0219 24.6899 13.4023 24.2207 13.4023H13.3457C12.8765 13.4023 12.4961 13.0219 12.4961 12.5527C12.4961 12.0835 12.8765 11.7031 13.3457 11.7031H24.2207Z" fill="#428DFF"/>
<path d="M59.2711 11.8299L50.54 20.561C50.5389 20.5622 50.5376 20.5631 50.5366 20.5642L47.5616 23.5401C48.8419 25.2682 49.7952 27.2232 50.356 29.302C51.115 32.115 51.1511 35.0984 50.4598 37.93C50.3486 38.3858 49.8888 38.6649 49.433 38.554C48.9772 38.4427 48.6978 37.9829 48.8091 37.5272C49.4325 34.9731 49.4002 32.2819 48.7156 29.7448C48.0101 27.1306 46.619 24.7305 44.6924 22.804C38.6195 16.7309 28.7377 16.7309 22.6644 22.804C16.5913 28.8771 16.5913 38.7589 22.6644 44.832C25.6064 47.774 29.518 49.3942 33.6784 49.3942C37.8389 49.3942 41.7505 47.774 44.6926 44.832C45.9085 43.6159 46.9066 42.2245 47.6587 40.6963C47.866 40.2754 48.3753 40.1017 48.7962 40.3092C49.2172 40.5164 49.3905 41.0257 49.1834 41.4467C48.7231 42.3817 48.1773 43.2684 47.5568 44.1036V58.887C47.5566 60.6035 46.1601 62 44.4437 62H9.09539C7.37895 62 5.98242 60.6035 5.98242 58.887V54.7644C5.98242 54.2952 6.36282 53.9148 6.83203 53.9148C7.30124 53.9148 7.68164 54.2952 7.68164 54.7644V58.887C7.68164 59.6665 8.3159 60.3008 9.09539 60.3008H44.4437C45.2233 60.3008 45.8574 59.6665 45.8574 58.887V46.0691C42.5987 49.3091 38.2758 51.0933 33.6784 51.0933C29.064 51.0933 24.7258 49.2963 21.463 46.0333C21.4308 46.0012 21.3998 45.9682 21.3679 45.9358H15.9338C15.4646 45.9358 15.0842 45.5554 15.0842 45.0862C15.0842 44.617 15.4646 44.2366 15.9338 44.2366H19.8986C19.3818 43.5541 18.9224 42.8418 18.5205 42.106H13.3457C12.8765 42.106 12.4961 41.7256 12.4961 41.2564C12.4961 40.7872 12.8765 40.4068 13.3457 40.4068H17.7099C17.4234 39.71 17.1841 38.9982 16.9926 38.2762H13.3457C12.8765 38.2762 12.4961 37.8958 12.4961 37.4266C12.4961 36.9574 12.8765 36.577 13.3457 36.577H16.6322C15.7829 31.2857 17.3924 25.6727 21.463 21.6022C24.8308 18.2344 29.2547 16.5504 33.6784 16.5504C37.2979 16.5504 40.9171 17.6784 43.9583 19.9329L45.8574 18.0343V7.11274C45.8574 6.33325 45.2232 5.69899 44.4437 5.69899H38.2105C37.7412 5.69899 37.3609 5.31859 37.3609 4.84938C37.3609 4.38017 37.7412 3.99977 38.2105 3.99977H44.4437C46.1601 3.99977 47.5566 5.39631 47.5566 7.11274V16.3349L55.6664 8.22517C56.1479 7.74372 56.7879 7.47864 57.4687 7.47864C58.1496 7.47864 58.7896 7.74383 59.2709 8.22517H59.2711C59.7524 8.70661 60.0176 9.34665 60.0176 10.0275C60.0176 10.7084 59.7524 11.3486 59.2711 11.8299ZM45.894 21.6023C46.0947 21.8031 46.2886 22.01 46.4787 22.2198L48.7375 19.9603L47.5362 18.7591L45.2781 21.0163C45.487 21.2057 45.6925 21.4008 45.894 21.6023ZM58.0696 9.42685C57.9091 9.26633 57.6956 9.17797 57.4687 9.17797C57.2418 9.17797 57.0284 9.26633 56.868 9.42685L48.7376 17.5572L49.9392 18.7586L58.0695 10.6282C58.2299 10.4677 58.3182 10.2545 58.3182 10.0275C58.3184 9.80068 58.23 9.58737 58.0696 9.42685Z" fill="#428DFF"/>
<path d="M23.8651 43.6303C21.2479 41.0132 19.8066 37.5284 19.8066 33.8178C19.8066 30.1071 21.248 26.6224 23.8651 24.0052C26.5703 21.3 30.1238 19.9473 33.6775 19.9473C37.231 19.9473 40.7846 21.2999 43.49 24.0052C46.1071 26.6224 47.5483 30.1071 47.5483 33.8178C47.5483 37.5283 46.107 41.0132 43.49 43.6303C38.0792 49.0411 29.2757 49.041 23.8651 43.6303ZM42.2884 25.2069C39.9142 22.8327 36.7964 21.6456 33.6775 21.6458C30.5594 21.6462 27.4403 22.8331 25.0665 25.2069C22.7703 27.5031 21.5057 30.5612 21.5057 33.8179C21.5057 37.0746 22.7703 40.1328 25.0665 42.4289C27.4405 44.8029 30.559 45.99 33.6775 45.99C36.796 45.99 39.9144 44.8029 42.2884 42.4289C44.5846 40.1326 45.8492 37.0746 45.8492 33.8179C45.8492 30.5612 44.5845 27.503 42.2884 25.2069Z" fill="#428DFF"/>
</g>
<defs>
<clipPath id="clip0">
<rect width="58" height="58" fill="white" transform="matrix(1 0 0 -1 4 62)"/>
</clipPath>
</defs>
</svg>
