<svg width="66" height="66" viewBox="0 0 66 66" fill="none" xmlns="http://www.w3.org/2000/svg">
<path d="M55.0943 32.6091C54.738 32.3851 54.2847 32.3851 53.9288 32.6091L46.7578 37.1184L54.4558 41.9664L62.2656 37.1184L55.0943 32.6091Z" fill="white"/>
<path d="M46.7578 37.1184V44.8999C46.7578 45.2749 46.95 45.6242 47.2668 45.8247L54.4558 50.378V50.3364V41.9664L46.7578 37.1184Z" fill="white"/>
<path d="M54.4551 41.9664V50.378L61.7496 45.824C62.0699 45.6239 62.2649 45.2728 62.2649 44.8953V37.1184L54.4551 41.9664Z" fill="white"/>
<path d="M7.35745 36.0675C5.79999 35.7773 4.57251 34.5751 4.27646 33.0495C4.26157 32.973 4.15457 32.973 4.13968 33.0495C3.84363 34.5751 2.61615 35.7777 1.05869 36.0675C0.980436 36.082 0.980436 36.187 1.05869 36.2015C2.61615 36.4917 3.84363 37.6939 4.13968 39.2198C4.15457 39.2963 4.26157 39.2963 4.27646 39.2198C4.57251 37.6942 5.79999 36.4917 7.35745 36.2015C7.4357 36.1866 7.4357 36.082 7.35745 36.0675Z" fill="#E3E7F2"/>
<path d="M54.8646 9.53872C53.9692 9.37182 53.2631 8.68034 53.0931 7.80328C53.0845 7.7593 53.0232 7.7593 53.0145 7.80328C52.8442 8.68069 52.1385 9.37217 51.2427 9.53872C51.1977 9.54703 51.1977 9.60727 51.2427 9.61558C52.1382 9.78248 52.8442 10.474 53.0145 11.351C53.0232 11.395 53.0845 11.395 53.0931 11.351C53.2635 10.4736 53.9692 9.78213 54.8646 9.61558C54.9092 9.60727 54.9092 9.54703 54.8646 9.53872Z" fill="#E3E7F2"/>
<path d="M55.3998 23.174H56.2065V22.3672C56.2065 21.7633 56.6958 21.2741 57.2997 21.2741C57.9036 21.2741 58.3928 21.7633 58.3928 22.3672V23.174H59.1992C59.8031 23.174 60.2924 23.6633 60.2924 24.2671C60.2924 24.871 59.8031 25.3603 59.1992 25.3603H58.3928V26.167C58.3928 26.7709 57.9036 27.2602 57.2997 27.2602C56.6958 27.2602 56.2065 26.7709 56.2065 26.167V25.3603H55.3998C54.7959 25.3603 54.3066 24.871 54.3066 24.2671C54.3066 23.6636 54.7959 23.174 55.3998 23.174Z" fill="#E3E7F2"/>
<path d="M63.8021 31.2303C64.4479 31.2303 64.9714 30.7068 64.9714 30.061C64.9714 29.4152 64.4479 28.8917 63.8021 28.8917C63.1563 28.8917 62.6328 29.4152 62.6328 30.061C62.6328 30.7068 63.1563 31.2303 63.8021 31.2303Z" fill="#E3E7F2"/>
<path d="M11.4994 23.6674C12.1452 23.6674 12.6687 23.1438 12.6687 22.498C12.6687 21.8523 12.1452 21.3287 11.4994 21.3287C10.8536 21.3287 10.3301 21.8523 10.3301 22.498C10.3301 23.1438 10.8536 23.6674 11.4994 23.6674Z" fill="#E3E7F2"/>
<path d="M54.0069 50.0934L47.267 45.8247C46.9502 45.6239 46.758 45.2749 46.758 44.8999V43.5072L43.0845 42.5827L40.3308 41.2251C39.1473 40.6413 38.3976 39.4363 38.3976 38.1164V36.4086C36.9773 37.1818 35.3526 37.6219 33.6297 37.6219C32.0234 37.6219 30.5033 37.2372 29.1536 36.5586V38.1164C29.1536 39.4363 28.404 40.6413 27.2204 41.2251L24.4667 42.5827L16.6752 44.5439C14.9952 44.9667 13.785 46.4331 13.6887 48.163L12.9256 58.3627C12.8903 58.9936 13.3927 59.5244 14.0246 59.5244H53.5266C54.1585 59.5244 54.6606 58.9936 54.6256 58.3627L54.0069 50.0934Z" fill="#EDF4FC"/>
<path d="M32.3684 44.6665C32.5433 44.8493 32.5952 45.1024 32.5319 45.3299H35.0003C34.9069 45.0844 34.9564 44.7967 35.153 44.5979L39.2822 40.4207C38.725 39.7964 38.3968 38.983 38.3968 38.1164V36.4086C36.9764 37.1818 35.3514 37.6219 33.6288 37.6219C32.0225 37.6219 30.5025 37.2372 29.1528 36.5586V38.1164C29.1528 38.9734 28.8328 39.7787 28.2871 40.4003L32.3684 44.6665Z" fill="white"/>
<path d="M54.0065 50.0934L47.2666 45.8247C46.9498 45.6239 46.7576 45.2749 46.7576 44.8999V43.5072L43.0842 42.5827L40.5707 41.3435L36.0254 59.5247H53.5262C54.1582 59.5247 54.6602 58.9939 54.6253 58.363L54.0065 50.0934Z" fill="white"/>
<path d="M16.6752 44.5436L24.4666 42.5824L26.9801 41.3431L31.5254 59.524H14.0246C13.3927 59.524 12.8906 58.9932 12.9256 58.3624L13.6887 48.1627C13.7853 46.4328 14.9951 44.9664 16.6752 44.5436Z" fill="white"/>
<path d="M32.3673 44.6665L28.2863 40.3999C27.9917 40.7355 27.634 41.0201 27.2188 41.2247L26.9785 41.3431L27.9529 45.2399L29.7756 47.1457C30.0394 47.4213 30.4767 47.431 30.7527 47.1675L32.3458 45.6436C32.6211 45.3795 32.6308 44.9421 32.3673 44.6665Z" fill="#EDF4FC"/>
<path d="M37.7032 47.1194L39.6073 45.1931L40.5699 41.3434L40.3296 41.225C39.9234 41.0245 39.573 40.7472 39.2818 40.421L35.1527 44.5983C34.8843 44.8697 34.8871 45.3071 35.1582 45.5754L36.7261 47.1252C36.9975 47.3933 37.4352 47.3905 37.7032 47.1194Z" fill="#EDF4FC"/>
<path d="M35.16 45.5747C35.0876 45.503 35.0356 45.4189 35.0017 45.3296H32.5333C32.501 45.4452 32.4408 45.5543 32.348 45.6433L31.1953 46.7458L32.2182 48.7918H35.3341L36.3528 46.7541L35.16 45.5747Z" fill="#E3E7F2"/>
<path d="M35.3331 48.7918H32.2175L31.1191 57.9005L31.525 59.5244H36.0256L36.4293 57.9095L35.3331 48.7918Z" fill="#E3E7F2"/>
<path d="M42.4225 51.3964C42.5395 51.2793 42.6133 51.1256 42.6309 50.9608L43.517 42.6915L43.0842 42.5824L40.5707 41.3431L36.0254 59.524H39.7511L41.3875 56.0874C41.4973 55.8568 41.4779 55.5857 41.3363 55.3731L40.5098 54.1332C40.3179 53.8454 40.356 53.4625 40.6005 53.218L42.4225 51.3964Z" fill="white"/>
<path d="M25.1258 51.3964C25.0087 51.2793 24.935 51.1256 24.9173 50.9608L24.0312 42.6915L24.4641 42.5824L26.9775 41.3431L31.5229 59.524H27.7971L26.1607 56.0874C26.051 55.8568 26.0704 55.5857 26.212 55.3731L27.0385 54.1332C27.2303 53.8454 27.1922 53.4625 26.9478 53.218L25.1258 51.3964Z" fill="white"/>
<path d="M35.1329 15.4171C31.4684 20.0255 26.0627 19.3749 24.2452 18.9947C23.9148 18.9254 23.598 19.1744 23.5977 19.512V19.5189V27.5891C23.5977 33.1071 28.1122 37.6216 33.6301 37.6216C39.1481 37.6216 43.6626 33.1071 43.6626 27.5891V18.6522C43.6626 18.5999 43.6619 18.5477 43.6608 18.4954C43.6553 18.2107 43.4274 17.9763 43.1428 17.968C38.9749 17.8458 36.779 16.1941 35.9351 15.3669C35.7052 15.1408 35.3337 15.1647 35.1329 15.4171Z" fill="white"/>
<path d="M44.3057 19.9431C44.0865 19.9431 43.8718 19.9614 43.662 19.994V27.5891C43.662 27.8152 43.6516 28.0393 43.6367 28.2619C43.8552 28.2972 44.0775 28.3204 44.3057 28.3204C46.619 28.3204 48.4944 26.4451 48.4944 24.1318C48.4944 21.8184 46.619 19.9431 44.3057 19.9431Z" fill="white"/>
<path d="M23.596 27.5891C23.596 26.5497 23.596 22.0608 23.596 19.994C23.3862 19.9614 23.1715 19.9431 22.9523 19.9431C20.639 19.9431 18.7637 21.8184 18.7637 24.1318C18.7637 26.4451 20.639 28.3204 22.9523 28.3204C23.1805 28.3204 23.4032 28.2972 23.6213 28.2619C23.6064 28.0393 23.596 27.8152 23.596 27.5891Z" fill="white"/>
<path d="M25.1067 19.4218C25.3089 19.4218 25.507 19.4386 25.7006 19.4683V19.0336C25.7006 19.0314 25.7006 19.0295 25.7006 19.0273C25.7009 18.7186 25.9933 18.491 26.298 18.5543C27.975 18.9022 32.9626 19.4968 36.3436 15.283C36.5289 15.0522 36.872 15.0304 37.0845 15.2368C37.8631 15.9932 39.8892 17.5034 43.7347 17.6152C43.9973 17.6228 44.2075 17.8371 44.2126 18.0974C44.2136 18.1452 44.2142 18.193 44.2142 18.2408V19.4677C44.4078 19.4379 44.6059 19.4212 44.8081 19.4212C45.85 19.4212 46.7937 19.8318 47.4885 20.4958V13.6072C47.4885 10.7251 45.1091 8.36692 42.2009 8.36692C41.2147 8.36692 40.2924 8.64301 39.4997 9.11413C38.5742 7.5833 36.8877 6.54956 34.9654 6.54956H32.2502C26.9951 6.54956 22.6953 10.8105 22.6953 16.0188V20.2618C23.3566 19.7371 24.194 19.4218 25.1067 19.4218Z" fill="#E3E7F2"/>
<path d="M33.6309 38.4872C27.6216 38.4872 22.7324 33.5984 22.7324 27.5891V19.5189C22.7328 19.0913 22.9208 18.6979 23.248 18.4324C23.5787 18.1644 24.0066 18.0601 24.4228 18.1477C26.3397 18.5487 31.152 19.0331 34.4556 14.8787L34.4553 14.8791C34.7036 14.5668 35.0734 14.3735 35.4709 14.349C35.8666 14.3223 36.2579 14.4702 36.5425 14.7492C37.2254 15.4185 39.2385 16.9878 43.1695 17.1031C43.9157 17.1249 44.5127 17.7288 44.5276 18.4784L44.5293 18.6526V27.5898C44.5289 33.5984 39.6401 38.4872 33.6309 38.4872ZM24.4637 19.9175V27.5891C24.4637 32.6438 28.5759 36.7559 33.6309 36.7559C38.6855 36.7559 42.7977 32.6438 42.7977 27.5891V18.8209C38.9487 18.6363 36.7025 17.2177 35.5893 16.2267C31.8487 20.6564 26.544 20.2783 24.4637 19.9175ZM35.1333 15.4172H35.1367H35.1333Z" fill="#428DFF"/>
<path d="M47.2102 21.9839C46.99 21.9839 46.7736 21.9001 46.6091 21.7415C45.9852 21.1401 45.167 20.8087 44.3048 20.8087C44.1407 20.8087 43.9686 20.8226 43.793 20.8496C43.5437 20.888 43.2892 20.8156 43.0974 20.6512C42.9056 20.4867 42.7951 20.2467 42.7951 19.994V18.8208C38.9461 18.6363 36.7 17.2177 35.5868 16.2267C31.8461 20.6557 26.5418 20.2786 24.4615 19.9174V19.994C24.4615 20.2464 24.3514 20.4867 24.1592 20.6512C23.9674 20.8156 23.7129 20.888 23.4636 20.8496C23.2881 20.8222 23.116 20.8087 22.9518 20.8087C22.1915 20.8087 21.4747 21.0608 20.8795 21.5372C20.6195 21.7453 20.2635 21.7858 19.9633 21.6418C19.6631 21.4978 19.4727 21.1944 19.4727 20.8617V16.2218C19.4727 10.0339 24.5065 5 30.6938 5H33.6366C35.6622 5 37.5867 5.96086 38.8308 7.55191C39.6667 7.18142 40.5687 6.98786 41.4787 6.98786C45.1161 6.98786 48.0752 9.94697 48.0752 13.5844V21.1183C48.0752 21.4656 47.8674 21.7793 47.5482 21.915C47.4391 21.9614 47.3242 21.9839 47.2102 21.9839ZM44.5264 19.0819C45.1601 19.1096 45.7747 19.2547 46.3443 19.5068V13.5844C46.3443 10.9016 44.1618 8.71915 41.479 8.71915C40.6123 8.71915 39.754 8.9591 38.9963 9.41304C38.7997 9.53077 38.5632 9.56574 38.3409 9.51C38.1179 9.45425 37.9268 9.31228 37.8087 9.11526C36.9275 7.64471 35.3288 6.73128 33.637 6.73128H30.6941C25.4615 6.73128 21.2043 10.9885 21.2043 16.2215V19.3915C21.714 19.2031 22.2534 19.0965 22.7998 19.0798C22.8819 18.8274 23.0353 18.6037 23.2462 18.4323C23.5761 18.1643 24.0045 18.0601 24.4207 18.1477C26.3375 18.5487 31.1498 19.0331 34.4535 14.8787C34.7014 14.5667 35.0712 14.3735 35.4687 14.3489C35.8644 14.3223 36.2557 14.4701 36.5403 14.7492C37.2232 15.4185 39.2363 16.9878 43.1674 17.1031C43.9135 17.1249 44.5105 17.7287 44.5254 18.4784L44.5264 19.0819Z" fill="#428DFF"/>
<path d="M53.5269 60.39H14.0246C13.4865 60.39 12.9657 60.166 12.5962 59.7751C12.2268 59.3842 12.0315 58.8516 12.0616 58.3142L12.8255 48.0983C12.9425 45.9948 14.4054 44.2223 16.4639 43.7043L24.1664 41.7656L26.8378 40.4484C27.7325 40.0073 28.2879 39.1139 28.2879 38.1164V36.5586C28.2879 36.2584 28.4434 35.9793 28.6993 35.8217C28.9551 35.6642 29.2741 35.6507 29.5427 35.785C30.8246 36.4294 32.1999 36.7563 33.63 36.7563C35.1469 36.7563 36.6524 36.3733 37.9841 35.6482C38.2521 35.5025 38.5776 35.5084 38.8404 35.6642C39.1029 35.8203 39.2639 36.1032 39.2639 36.4083V38.116C39.2639 39.1136 39.8193 40.0069 40.714 40.4481L43.3854 41.7652L46.8075 42.6264C47.2711 42.7431 47.5522 43.2136 47.4356 43.6773C47.3185 44.1409 46.8483 44.4227 46.3847 44.3054L42.8736 43.4217C42.8144 43.4068 42.7569 43.3857 42.7022 43.3587L39.9485 42.001C38.4582 41.2663 37.5323 39.7777 37.5323 38.116V37.7601C36.2909 38.2383 34.9641 38.4876 33.6296 38.4876C32.3852 38.4876 31.1757 38.2798 30.0192 37.8684V38.116C30.0192 39.7777 29.0933 41.2663 27.603 42.001L24.8492 43.3587C24.7945 43.3857 24.737 43.4068 24.6778 43.4217L16.8864 45.3829C15.5661 45.715 14.6284 46.8514 14.5529 48.2108L13.7891 58.4268C13.7853 58.4939 13.8223 58.5514 13.8542 58.585C13.8861 58.6186 13.9411 58.6584 14.0246 58.6584H53.5269C53.6104 58.6584 53.6654 58.6186 53.6973 58.585C53.7291 58.5514 53.7658 58.4939 53.7613 58.4105L53.1692 50.4982C53.1336 50.0214 53.4912 49.6059 53.968 49.5702C54.4486 49.5383 54.86 49.8922 54.896 50.369L55.4891 58.2976C55.5203 58.8513 55.325 59.3838 54.9556 59.7747C54.5854 60.1657 54.065 60.39 53.5269 60.39Z" fill="#428DFF"/>
<path d="M46.6488 60.0437C46.1707 60.0437 45.7832 59.6563 45.7832 59.1781V50.5334C45.7832 50.0553 46.1707 49.6678 46.6488 49.6678C47.127 49.6678 47.5145 50.0553 47.5145 50.5334V59.1781C47.5145 59.6563 47.127 60.0437 46.6488 60.0437Z" fill="#428DFF"/>
<path d="M20.9008 60.0437C20.4226 60.0437 20.0352 59.6563 20.0352 59.1781V50.5334C20.0352 50.0553 20.4226 49.6678 20.9008 49.6678C21.379 49.6678 21.7664 50.0553 21.7664 50.5334V59.1781C21.7664 59.6563 21.379 60.0437 20.9008 60.0437Z" fill="#428DFF"/>
<path d="M44.306 29.186C44.0535 29.186 43.7897 29.1632 43.4992 29.1164C43.0584 29.0451 42.7437 28.65 42.7734 28.2041C42.7869 28.0005 42.7963 27.7958 42.7963 27.5891V19.994C42.7963 19.5674 43.1072 19.2041 43.529 19.1387C46.6667 18.6501 49.3603 21.0912 49.3603 24.1317C49.3606 26.9187 47.093 29.186 44.306 29.186ZM44.5279 20.816V27.4475C46.2575 27.3329 47.6293 25.8893 47.6293 24.1317C47.6293 22.3741 46.2575 20.9302 44.5279 20.816Z" fill="#428DFF"/>
<path d="M22.9511 29.186C20.1641 29.186 17.8965 26.9188 17.8965 24.1317C17.8965 21.3447 20.1641 19.0774 22.9511 19.0774C23.2046 19.0774 23.466 19.0982 23.7278 19.1387C24.1495 19.2042 24.4605 19.5674 24.4605 19.994V27.5891C24.4605 27.7955 24.4698 27.9994 24.4837 28.2027C24.5141 28.649 24.1997 29.0448 23.7583 29.1161C23.4681 29.1632 23.2043 29.186 22.9511 29.186ZM22.7292 20.816C20.9996 20.9306 19.6278 22.3741 19.6278 24.1317C19.6278 25.8893 20.9996 27.3332 22.7292 27.4475V20.816Z" fill="#428DFF"/>
<path d="M36.0734 60.1933C36.0038 60.1933 35.9335 60.185 35.8628 60.1674C35.3989 60.0514 35.1173 59.5815 35.233 59.1175L39.6658 41.3871C39.7818 40.9234 40.2516 40.6416 40.7156 40.7572C41.1796 40.8732 41.4611 41.3431 41.3455 41.8071L36.9127 59.5375C36.814 59.9309 36.4612 60.1933 36.0734 60.1933Z" fill="#428DFF"/>
<path d="M31.4791 60.2096C31.0913 60.2096 30.7381 59.9471 30.6398 59.5538L26.1783 41.707C26.0626 41.243 26.3445 40.7732 26.8081 40.6572C27.2718 40.5415 27.7416 40.823 27.858 41.287L32.3195 59.1338C32.4351 59.5978 32.1533 60.0676 31.6897 60.1836C31.619 60.2009 31.5487 60.2096 31.4791 60.2096Z" fill="#428DFF"/>
<path d="M30.2774 48.2246C30.2656 48.2246 30.2535 48.2246 30.2414 48.2243C29.8259 48.2149 29.4388 48.0442 29.1514 47.744L27.4139 45.9275C27.0835 45.582 27.0957 45.0342 27.4409 44.7035C27.7864 44.3729 28.3342 44.3853 28.6649 44.7309L30.2816 46.421L31.6223 45.1384L27.8917 41.2382C27.5614 40.8926 27.5735 40.3448 27.9187 40.0142C28.2643 39.6838 28.8121 39.6956 29.1427 40.0415L32.9941 44.0678C33.5873 44.6879 33.5651 45.6751 32.9457 46.2683L31.3518 47.7925C31.0606 48.0723 30.6805 48.2246 30.2774 48.2246Z" fill="#428DFF"/>
<path d="M37.2115 48.1893C36.8153 48.1893 36.4199 48.0397 36.1169 47.7402L34.5494 46.1904C33.939 45.5872 33.9334 44.5996 34.5366 43.9892L38.5071 39.9726C38.8437 39.6322 39.3915 39.6291 39.7315 39.9653C40.0712 40.3016 40.0747 40.8493 39.7388 41.1894L35.8912 45.082L37.2111 46.3863L38.8922 44.6852C39.2287 44.3448 39.7769 44.3417 40.1165 44.6779C40.4562 45.0141 40.4597 45.5619 40.1238 45.9019L38.3195 47.727C38.0144 48.0352 37.6128 48.1893 37.2115 48.1893Z" fill="#428DFF"/>
<path d="M34.8579 46.1952H32.6938C32.2156 46.1952 31.8281 45.8077 31.8281 45.3295C31.8281 44.8514 32.2156 44.4639 32.6938 44.4639H34.8579C35.3361 44.4639 35.7235 44.8514 35.7235 45.3295C35.7235 45.8077 35.3361 46.1952 34.8579 46.1952Z" fill="#428DFF"/>
<path d="M35.3318 49.6578C35.2016 49.6578 35.0697 49.6283 34.9454 49.5663C34.5181 49.3523 34.3446 48.8326 34.5582 48.405L35.5094 46.5023C35.7234 46.0747 36.2428 45.9016 36.6708 46.1152C37.098 46.3292 37.2715 46.8489 37.0579 47.2765L36.1067 49.1792C35.955 49.4822 35.6493 49.6578 35.3318 49.6578Z" fill="#428DFF"/>
<path d="M32.2194 49.6578C31.9019 49.6578 31.5962 49.4826 31.4445 49.1792L30.5778 47.4462C30.3642 47.0186 30.5373 46.4985 30.965 46.2849C31.3915 46.0709 31.9123 46.2444 32.1263 46.672L32.993 48.405C33.2066 48.8326 33.0335 49.3527 32.6059 49.5663C32.4819 49.6283 32.3496 49.6578 32.2194 49.6578Z" fill="#428DFF"/>
<path d="M31.1249 58.7224C31.0903 58.7224 31.0556 58.7204 31.02 58.7159C30.5456 58.6587 30.207 58.2273 30.2641 57.7529L31.3572 48.6879C31.4099 48.253 31.779 47.9258 32.2166 47.9258H35.3323C35.7706 47.9258 36.1394 48.253 36.1917 48.6883L37.2769 57.7128C37.3336 58.1875 36.9953 58.6186 36.5206 58.6754C36.0456 58.7332 35.6152 58.3939 35.5577 57.9191L34.5643 49.6571H32.9843L31.9829 57.96C31.9303 58.3997 31.5567 58.7224 31.1249 58.7224Z" fill="#428DFF"/>
<path d="M39.8455 60.1906C39.7208 60.1906 39.5941 60.1635 39.4739 60.1064C39.0425 59.9007 38.8593 59.3845 39.0647 58.9527L40.5719 55.7876L39.7894 54.6137C39.3701 53.9849 39.4535 53.1408 39.9881 52.6065L41.7748 50.8195L42.6349 42.7918C42.6855 42.3164 43.1082 41.9726 43.5878 42.0232C44.0632 42.0741 44.407 42.5006 44.3561 42.976L43.4909 51.0528C43.4528 51.4126 43.2904 51.7519 43.0345 52.0082L41.2939 53.7491L42.0563 54.8935C42.3655 55.3572 42.4088 55.9576 42.1688 56.4603L40.6277 59.6968C40.4795 60.0084 40.1692 60.1906 39.8455 60.1906Z" fill="#428DFF"/>
<path d="M27.6663 60.1175C27.3425 60.1175 27.0323 59.9354 26.8841 59.6237L25.3775 56.4596C25.1379 55.9569 25.1812 55.3565 25.4901 54.8932L26.2525 53.7488L24.5122 52.0082C24.256 51.7516 24.0936 51.4123 24.0552 51.0525L23.2062 43.126C23.1553 42.6506 23.4991 42.224 23.9745 42.1731C24.4513 42.1222 24.8765 42.4664 24.9274 42.9414L25.7716 50.8191L27.5583 52.6062C28.0929 53.1404 28.1763 53.9846 27.757 54.6134L26.9745 55.7872L28.4468 58.8793C28.6524 59.3111 28.4689 59.8273 28.0371 60.033C27.9177 60.0905 27.7913 60.1175 27.6663 60.1175Z" fill="#428DFF"/>
<path d="M62.2631 37.984C62.1056 37.984 61.9463 37.9411 61.8029 37.8511L54.632 33.3418C54.5585 33.2954 54.463 33.295 54.3882 33.3418L47.2172 37.8511C46.8121 38.1059 46.2782 37.984 46.0237 37.5793C45.7692 37.1745 45.8907 36.6402 46.2955 36.3857L53.4664 31.8764C54.1001 31.4779 54.9197 31.4775 55.5533 31.8764L62.7247 36.3857C63.1294 36.6402 63.2513 37.1745 62.9965 37.5793C62.8324 37.8407 62.5509 37.984 62.2631 37.984Z" fill="#428DFF"/>
<path d="M54.4553 42.8321C54.295 42.8321 54.135 42.7877 53.9941 42.6988L46.6468 38.0717C46.2421 37.8172 46.1205 37.2826 46.3757 36.8782C46.6302 36.4734 47.1659 36.3526 47.5693 36.6071L54.4584 40.9457L61.5622 36.5357C61.968 36.284 62.5019 36.4083 62.754 36.8148C63.0064 37.221 62.8811 37.7545 62.4749 38.0066L54.9113 42.7019C54.7721 42.7884 54.6135 42.8321 54.4553 42.8321Z" fill="#428DFF"/>
<path d="M54.4555 50.8358C53.9773 50.8358 53.5898 50.4483 53.5898 49.9701V41.9664C53.5898 41.4882 53.9773 41.1007 54.4555 41.1007C54.9337 41.1007 55.3211 41.4882 55.3211 41.9664V49.9701C55.3211 50.4479 54.9333 50.8358 54.4555 50.8358Z" fill="#428DFF"/>
<path d="M54.4536 51.2437C54.295 51.2437 54.1347 51.2004 53.991 51.109L46.802 46.5557C46.2317 46.1942 45.8906 45.5751 45.8906 44.8995V37.1184C45.8906 36.6403 46.2781 36.2528 46.7563 36.2528C47.2344 36.2528 47.6219 36.6403 47.6219 37.1184V44.8999C47.6219 44.9792 47.6617 45.0515 47.7286 45.0938L54.9175 49.6471C55.3213 49.9029 55.4414 50.4376 55.1855 50.8416C55.0204 51.1013 54.7403 51.2437 54.4536 51.2437Z" fill="#428DFF"/>
<path d="M54.4562 51.2437C54.1678 51.2437 53.8856 51.0993 53.7211 50.8361C53.4683 50.4306 53.5916 49.8967 53.997 49.6436L61.2916 45.0896C61.3591 45.0474 61.3996 44.9747 61.3996 44.895V37.1184C61.3996 36.6403 61.7871 36.2528 62.2653 36.2528C62.7435 36.2528 63.1309 36.6403 63.1309 37.1184V44.895C63.1309 45.5761 62.7861 46.1977 62.2085 46.5581L54.9143 51.1121C54.7713 51.2014 54.6127 51.2437 54.4562 51.2437Z" fill="#428DFF"/>
</svg>
