<svg width="66" height="66" viewBox="0 0 66 66" fill="none" xmlns="http://www.w3.org/2000/svg">
<path d="M54.6484 43.7417H51.6289C52.2368 42.2662 52.5741 40.6506 52.5741 38.9557C52.5741 33.9815 49.6861 29.6821 45.4956 27.6417C45.0492 30.1116 43.8586 32.3223 42.1642 34.0338C40.472 35.7429 39.1662 37.7936 38.4205 40.0782C38.2715 40.0429 38.1168 40.0223 37.9572 40.0223H29.0449C28.8848 40.0223 28.7298 40.043 28.5804 40.0785C27.8335 37.8302 26.5878 35.7741 24.9065 34.1027C23.8162 33.0186 22.9302 31.7295 22.3103 30.2984C17.7875 31.3927 14.428 35.4665 14.428 40.3256C14.428 41.5233 14.6343 42.6723 15.0096 43.7419H12.3535C7.70107 43.7419 3.89453 47.5484 3.89453 52.2008C3.89453 56.8533 7.70107 60.6598 12.3535 60.6598H54.6484C59.3009 60.6598 63.1074 56.8533 63.1074 52.2008C63.1074 47.5483 59.3009 43.7417 54.6484 43.7417Z" fill="#F5F5F5"/>
<path d="M25.3574 34.5737C25.2103 34.4139 25.0609 34.2561 24.9065 34.1025C23.8173 33.0197 22.9321 31.7322 22.3124 30.303C17.87 31.3882 14.5266 35.3714 14.4301 40.1129C14.4042 41.3873 14.6122 42.6091 15.0096 43.7416H12.3535C7.70107 43.7416 3.89453 47.5482 3.89453 52.2006C3.89453 56.0386 6.48596 59.2986 10.0048 60.3232C9.192 59.0252 8.71973 57.4947 8.71973 55.8586C8.71973 51.2061 12.5263 47.3996 17.1787 47.3996C18.444 47.3996 19.4383 46.3077 19.308 45.0492C19.2646 44.63 19.2464 44.2034 19.2552 43.7707C19.3385 39.6871 21.8301 36.1661 25.3574 34.5737Z" fill="white"/>
<path d="M33.1984 13.2751C26.7496 13.4319 21.4897 18.6781 21.317 25.1266C21.223 28.6372 22.6144 31.8228 24.9076 34.1027C26.589 35.7741 27.8346 37.8303 28.5815 40.0785C28.7309 40.0431 28.8859 40.0223 29.046 40.0223H37.9583C38.118 40.0223 38.2726 40.0429 38.4216 40.0782C39.1673 37.7936 40.4731 35.7429 42.1653 34.0338C44.3452 31.8321 45.6917 28.8042 45.6917 25.461C45.6918 18.6278 40.0695 13.1079 33.1984 13.2751Z" fill="#F5F5F5"/>
<path d="M28.9213 34.103C26.6279 31.8232 25.2366 28.6376 25.3306 25.127C25.4879 19.2555 29.8629 14.3813 35.5126 13.4377C34.7621 13.3131 33.9887 13.2563 33.1984 13.2755C26.7496 13.4323 21.4897 18.6785 21.317 25.127C21.223 28.6376 22.6144 31.8232 24.9076 34.103C26.589 35.7745 27.8346 37.8307 28.5815 40.0789C28.7309 40.0435 28.8859 40.0227 29.046 40.0227H32.5754C31.8266 37.7964 30.5885 35.7604 28.9213 34.103Z" fill="#CCD3EB"/>
<path d="M33.503 32.5285C37.4062 32.5285 40.5704 29.3643 40.5704 25.461C40.5704 21.5578 37.4062 18.3936 33.503 18.3936C29.5997 18.3936 26.4355 21.5578 26.4355 25.461C26.4355 29.3643 29.5997 32.5285 33.503 32.5285Z" fill="#F5F5F5"/>
<path d="M35.3584 49.1182C35.3584 48.8781 35.3705 48.6411 35.3941 48.4072H29.4902L30.0042 50.7885C30.3617 52.4449 31.8267 53.6273 33.5212 53.6273C34.5694 53.6273 35.5286 53.1746 36.1931 52.4383C35.6609 51.4499 35.3584 50.3195 35.3584 49.1182Z" fill="#F5F5F5"/>
<path d="M33.0032 50.7885L32.5242 48.5686H29.5254L30.0045 50.7885C30.362 52.4449 31.8269 53.6274 33.5215 53.6274C34.0531 53.6274 34.5618 53.511 35.0209 53.3003C34.0159 52.8391 33.2487 51.9256 33.0032 50.7885Z" fill="#CCD3EB"/>
<path d="M40.0886 42.4862C40.119 42.3415 40.1353 42.1916 40.1353 42.0378C40.1353 40.8356 39.1606 39.8609 37.9584 39.8609H29.0461C27.8438 39.8609 26.8691 40.8356 26.8691 42.0378C26.8691 43.24 27.8438 44.2147 29.0461 44.2147H37.3586C38.1139 43.4428 39.0456 42.8455 40.0886 42.4862Z" fill="#F5F5F5"/>
<path d="M30.8811 42.0378C30.8811 40.8356 31.8558 39.8609 33.058 39.8609H29.0461C27.8438 39.8609 26.8691 40.8356 26.8691 42.0378C26.8691 43.2401 27.8438 44.2148 29.0461 44.2148H33.058C31.8558 44.2148 30.8811 43.2402 30.8811 42.0378Z" fill="#CCD3EB"/>
<path d="M37.3586 44.2148H29.0461C27.8438 44.2148 26.8691 45.1895 26.8691 46.3917C26.8691 47.594 27.8438 48.5687 29.0461 48.5687H35.3815C35.5126 46.8786 36.2416 45.3569 37.3586 44.2148Z" fill="#F5F5F5"/>
<path d="M30.8811 46.3917C30.8811 45.1895 31.8558 44.2148 33.058 44.2148H29.0461C27.8438 44.2148 26.8691 45.1895 26.8691 46.3917C26.8691 47.594 27.8438 48.5687 29.0461 48.5687H33.058C31.8558 48.5687 30.8811 47.5941 30.8811 46.3917Z" fill="#CCD3EB"/>
<path d="M33.5019 28.541C35.2029 28.541 36.5819 27.1621 36.5819 25.461C36.5819 23.76 35.2029 22.381 33.5019 22.381C31.8008 22.381 30.4219 23.76 30.4219 25.461C30.4219 27.1621 31.8008 28.541 33.5019 28.541Z" fill="#F5F5F5"/>
<path d="M33.418 25.461C33.418 24.3039 34.0565 23.2964 35 22.77C34.5564 22.5225 34.0458 22.381 33.5019 22.381C31.8008 22.381 30.4219 23.7599 30.4219 25.461C30.4219 27.1621 31.8008 28.541 33.5019 28.541C34.0458 28.541 34.5564 28.3995 35 28.152C34.0565 27.6257 33.418 26.6181 33.418 25.461Z" fill="#CCD3EB"/>
<path d="M42.3716 56.1324C46.2454 56.1324 49.3858 52.992 49.3858 49.1182C49.3858 45.2444 46.2454 42.104 42.3716 42.104C38.4978 42.104 35.3574 45.2444 35.3574 49.1182C35.3574 52.992 38.4978 56.1324 42.3716 56.1324Z" fill="#F5F5F5"/>
<path d="M39.3696 49.1182C39.3696 45.9418 41.4817 43.2599 44.3777 42.3968C43.7419 42.2072 43.0689 42.104 42.3716 42.104C38.4977 42.104 35.3574 45.2443 35.3574 49.1182C35.3574 52.992 38.4977 56.1324 42.3716 56.1324C43.0689 56.1324 43.7419 56.0292 44.3777 55.8396C41.4817 54.9765 39.3696 52.2946 39.3696 49.1182Z" fill="#CCD3EB"/>
<path d="M33.499 10.1638C33.9926 10.1638 34.3926 9.76378 34.3926 9.2703V4.89355C34.3926 4.40006 33.9926 3.99999 33.499 3.99999C33.0055 3.99999 32.6055 4.40006 32.6055 4.89355V9.2703C32.6055 9.76378 33.0055 10.1638 33.499 10.1638Z" fill="#428DFF"/>
<path d="M12.8096 26.4772H17.1863C17.6798 26.4772 18.0799 26.0771 18.0799 25.5836C18.0799 25.0901 17.6798 24.6901 17.1863 24.6901H12.8096C12.3161 24.6901 11.916 25.0901 11.916 25.5836C11.916 26.0771 12.3161 26.4772 12.8096 26.4772Z" fill="#428DFF"/>
<path d="M49.8115 26.4772H54.1883C54.6819 26.4772 55.0818 26.0771 55.0818 25.5836C55.0818 25.0901 54.6819 24.6901 54.1883 24.6901H49.8115C49.3179 24.6901 48.918 25.0901 48.918 25.5836C48.918 26.0771 49.3179 26.4772 49.8115 26.4772Z" fill="#428DFF"/>
<path d="M45.0322 14.942C45.2608 14.942 45.4896 14.8548 45.6641 14.6802L48.7589 11.5853C49.1079 11.2364 49.1079 10.6706 48.7588 10.3217C48.4099 9.97263 47.8441 9.97274 47.4952 10.3217L44.4004 13.4166C44.0514 13.7656 44.0514 14.3314 44.4005 14.6802C44.5748 14.8548 44.8036 14.942 45.0322 14.942Z" fill="#428DFF"/>
<path d="M21.3332 14.6803C21.5076 14.8547 21.7364 14.942 21.965 14.942C22.1936 14.942 22.4224 14.8548 22.5968 14.6803C22.9458 14.3313 22.9458 13.7655 22.5968 13.4167L19.5019 10.3217C19.1529 9.97278 18.5871 9.97278 18.2383 10.3217C17.8893 10.6707 17.8893 11.2365 18.2383 11.5853L21.3332 14.6803Z" fill="#428DFF"/>
<path d="M13.6045 51.4221H22.8975C23.3909 51.4221 23.791 51.0221 23.791 50.5286C23.791 50.0351 23.3909 49.635 22.8975 49.635H13.6045C13.111 49.635 12.7109 50.0351 12.7109 50.5286C12.7109 51.0221 13.111 51.4221 13.6045 51.4221Z" fill="#428DFF"/>
<path d="M13.6045 54.521H22.8975C23.3909 54.521 23.791 54.1209 23.791 53.6274C23.791 53.1339 23.3909 52.7339 22.8975 52.7339H13.6045C13.111 52.7339 12.7109 53.1339 12.7109 53.6274C12.7109 54.1209 13.111 54.521 13.6045 54.521Z" fill="#428DFF"/>
<path d="M54.6475 42.8482H52.8938C53.2742 41.5901 53.4665 40.2858 53.4665 38.9557C53.4665 33.8751 50.6389 29.443 46.475 27.149C46.5463 26.5935 46.5832 26.0301 46.5832 25.461C46.5832 22.8242 45.8015 20.282 44.3229 18.1091C44.0454 17.7012 43.4897 17.5955 43.0814 17.8731C42.6735 18.1508 42.5677 18.7066 42.8455 19.1145C44.1216 20.9897 44.7961 23.1843 44.7961 25.461C44.7961 28.4554 43.6355 31.2766 41.5281 33.4051C39.921 35.0284 38.6693 36.9371 37.8713 38.9673H34.3936V33.3704C38.364 32.9247 41.4609 29.5485 41.4609 25.461C41.4609 21.0714 37.8896 17.5002 33.5 17.5002C29.1104 17.5002 25.5391 21.0714 25.5391 25.461C25.5391 29.5485 28.6361 32.9247 32.6064 33.3704V38.9673H29.1253C28.3094 36.8921 27.0801 35.0046 25.5354 33.469C23.3055 31.252 22.1237 28.2978 22.2081 25.1506C22.2854 22.2619 23.4663 19.5357 25.5331 17.4742C27.5998 15.4127 30.3291 14.2387 33.218 14.1684C35.7371 14.1075 38.135 14.8564 40.1579 16.3351C40.5562 16.6263 41.1152 16.5394 41.4065 16.141C41.6977 15.7426 41.6109 15.1835 41.2125 14.8923C38.8686 13.1792 36.0867 12.3102 33.1745 12.3819C29.8255 12.4634 26.6635 13.8224 24.2709 16.2089C21.8783 18.5954 20.5112 21.754 20.4216 25.1028C20.3788 26.7018 20.6183 28.2579 21.1187 29.7177C16.7109 31.2282 13.5333 35.4124 13.5333 40.3257C13.5333 41.1788 13.6296 42.0233 13.8204 42.8484H12.3525C7.19554 42.8484 3 47.044 3 52.201C3 57.358 7.19554 61.5535 12.3525 61.5535H19.4527C19.9462 61.5535 20.3463 61.1534 20.3463 60.6599C20.3463 60.1665 19.9462 59.7664 19.4527 59.7664H12.3525C8.18095 59.7664 4.78711 56.3725 4.78711 52.201C4.78711 48.0294 8.18095 44.6355 12.3525 44.6355H15.0087C15.2984 44.6355 15.5701 44.4951 15.7377 44.2587C15.9053 44.0223 15.9477 43.7195 15.8518 43.446C15.4994 42.4414 15.3206 41.3917 15.3206 40.3257C15.3206 36.1508 18.0513 32.6048 21.8193 31.3712C22.4428 32.5982 23.2659 33.7327 24.2757 34.7365C25.6032 36.0563 26.6687 37.672 27.3937 39.4506C26.5406 39.9967 25.9735 40.9521 25.9735 42.0379C25.9735 42.888 26.3209 43.6583 26.881 44.2148C26.3209 44.7714 25.9735 45.5417 25.9735 46.3918C25.9735 48.0023 27.2202 49.3263 28.7991 49.4517L29.1283 50.9771C29.5715 53.0307 31.4179 54.5211 33.5187 54.5211C34.4191 54.5211 35.2702 54.2483 35.985 53.776C37.4249 55.7443 39.7501 57.026 42.3701 57.026C45.9055 57.026 49.0374 54.6488 49.9862 51.2452C50.1187 50.7698 49.8407 50.2771 49.3654 50.1445C48.8898 50.0115 48.3972 50.2899 48.2647 50.7652C47.5305 53.3992 45.1064 55.2388 42.3701 55.2388C38.9951 55.2388 36.2494 52.4931 36.2494 49.1181C36.2494 45.7432 38.9951 42.9975 42.3701 42.9975C44.9817 42.9975 47.3073 44.6566 48.1573 47.1259C48.318 47.5925 48.8263 47.8408 49.2929 47.68C49.7596 47.5194 50.0076 47.011 49.847 46.5443C48.7489 43.3538 45.7441 41.2102 42.37 41.2102C41.8837 41.2102 41.4083 41.2567 40.946 41.3412C40.7616 40.5491 40.27 39.8742 39.6038 39.4486C40.3156 37.7075 41.4066 36.0676 42.7981 34.6623C44.3856 33.0588 45.5087 31.1157 46.1003 28.9988C49.4444 31.0566 51.6794 34.7494 51.6794 38.9555C51.6794 40.4915 51.3841 41.9873 50.8017 43.4012C50.6882 43.6768 50.7196 43.991 50.8854 44.2387C51.0513 44.4864 51.3298 44.6351 51.6278 44.6351H54.6475C58.819 44.6351 62.2129 48.0289 62.2129 52.2005C62.2129 56.3721 58.819 59.7659 54.6475 59.7659H23.6226C23.1292 59.7659 22.7291 60.166 22.7291 60.6595C22.7291 61.1529 23.1292 61.553 23.6226 61.553H54.6475C59.8045 61.553 64 57.3575 64 52.2005C64 47.0437 59.8045 42.8482 54.6475 42.8482ZM33.5 27.6475C32.2944 27.6475 31.3135 26.6666 31.3135 25.461C31.3135 24.2555 32.2944 23.2746 33.5 23.2746C34.7056 23.2746 35.6866 24.2555 35.6866 25.461C35.6866 26.6666 34.7056 27.6475 33.5 27.6475ZM27.3263 25.461C27.3263 22.0568 30.0958 19.2873 33.5 19.2873C36.9042 19.2873 39.6737 22.0568 39.6737 25.461C39.6737 28.5618 37.3758 31.135 34.3936 31.5694V29.332C36.1555 28.9254 37.4737 27.3448 37.4737 25.461C37.4737 23.27 35.6911 21.4875 33.5 21.4875C31.309 21.4875 29.5264 23.27 29.5264 25.461C29.5264 27.3448 30.8445 28.9254 32.6064 29.332V31.5694C29.6242 31.135 27.3263 28.5617 27.3263 25.461ZM33.5187 52.7339C32.2538 52.7339 31.142 51.8364 30.8751 50.5999L30.6295 49.4623H34.471C34.5129 50.4372 34.7316 51.367 35.0967 52.2199C34.6483 52.5443 34.1007 52.7339 33.5187 52.7339ZM34.5966 47.675H29.0439C28.3363 47.675 27.7605 47.0994 27.7605 46.3917C27.7605 45.684 28.3363 45.1083 29.0439 45.1083H35.5584C35.0973 45.8884 34.7672 46.7539 34.5966 47.675ZM36.999 43.3212H29.0438C28.3362 43.3212 27.7604 42.7454 27.7604 42.0378C27.7604 41.3302 28.3362 40.7544 29.0438 40.7544H37.9561C38.6047 40.7544 39.1409 41.2384 39.2264 41.8638C38.4016 42.2227 37.6498 42.7178 36.999 43.3212Z" fill="#428DFF"/>
<path d="M44.9087 46.8539L41.9248 49.8379L39.8321 47.7451C39.483 47.3961 38.9173 47.3961 38.5684 47.7451C38.2194 48.0941 38.2194 48.6599 38.5684 49.0087L41.293 51.7333C41.4606 51.901 41.6878 51.9951 41.9249 51.9951C42.162 51.9951 42.3891 51.901 42.5568 51.7333L46.1726 48.1175C46.5216 47.7686 46.5216 47.2028 46.1726 46.8539C45.8234 46.5051 45.2578 46.5051 44.9087 46.8539Z" fill="#428DFF"/>
</svg>
