<svg width="66" height="66" viewBox="0 0 66 66" fill="none" xmlns="http://www.w3.org/2000/svg">
<path d="M26.5094 57.4429V57.4539L29.1274 63.5698C29.4783 64.3757 30.2725 64.8979 31.1513 64.9008H34.8473C35.7263 64.8979 36.5204 64.3756 36.8713 63.5698L39.4892 57.4539V57.4429L39.5992 57.4209L44.9342 61.4029C45.6334 61.9335 46.5822 61.9942 47.3432 61.557L48.9493 60.622L50.5553 59.698C51.3153 59.2614 51.7401 58.412 51.6333 57.5421L50.8523 50.92L50.9183 50.854L57.5403 51.6351C58.4103 51.7418 59.2597 51.3172 59.6963 50.557L60.6203 48.951L61.5552 47.3449C61.9925 46.5839 61.9319 45.6351 61.4012 44.936L57.4194 39.6009L57.4415 39.491H57.4524L63.5684 36.873C64.3743 36.5221 64.8965 35.7279 64.8993 34.8491V31.1531C64.8965 30.2741 64.3742 29.48 63.5684 29.1291L57.4524 26.5112H57.4415L57.4194 26.4012L61.4015 21.0662C61.932 20.367 61.9927 19.4182 61.5555 18.6572L60.6205 17.0511L59.6965 15.4451C59.2599 14.6851 58.4106 14.2603 57.5406 14.3671L50.9186 15.1481L50.8526 15.0821L51.6336 8.46006C51.7403 7.59007 51.3157 6.74071 50.5556 6.30411L48.9495 5.38011L47.3435 4.44515C46.5824 4.00791 45.6337 4.06862 44.9345 4.5992L39.5995 8.58097L39.4895 8.55893V8.54797L36.8715 2.43203C36.5207 1.62611 35.7265 1.10391 34.8476 1.10107H31.1516C30.2726 1.10391 29.4785 1.62624 29.1276 2.43203L26.5097 8.54797V8.55893L26.3995 8.58097L21.0644 4.59894C20.3653 4.06836 19.4165 4.00765 18.6554 4.4449L17.0494 5.37985L15.4434 6.30385C14.6833 6.74045 14.2586 7.58982 14.3653 8.4598L15.1464 15.0818L15.0804 15.1478L8.45834 14.3668C7.58835 14.2601 6.73899 14.6847 6.30238 15.4448L5.37839 17.0509L4.44343 18.6569C4.00618 19.418 4.0669 20.3667 4.59747 21.0659L8.57951 26.4009L8.55747 26.5109H8.54651L2.43056 29.1289C1.62464 29.4797 1.10245 30.2739 1.09961 31.1528V34.8488C1.10245 35.7278 1.62477 36.5219 2.43056 36.8728L8.54651 39.4907H8.55747L8.57951 39.6007L4.59747 44.9357C4.0669 45.6349 4.00618 46.5836 4.44343 47.3447L5.37839 48.9507L6.30238 50.5568C6.73899 51.3168 7.58835 51.7415 8.45834 51.6348L15.0804 50.8538L15.1464 50.9198L14.3653 57.5418C14.2586 58.4118 14.6832 59.2611 15.4434 59.6978L17.0494 60.6217L18.6554 61.5567C19.4165 61.994 20.3653 61.9334 21.0644 61.4027L26.3995 57.4209L26.5094 57.4429Z" fill="#E3E7F2"/>
<path d="M64.9011 31.1519V34.8479C64.8983 35.7269 64.376 36.521 63.5702 36.8718L57.4542 39.4898H57.4433L57.4212 39.5997L61.4033 44.9348C61.9338 45.634 61.9945 46.5827 61.5573 47.3438L60.6223 48.9498L59.6983 50.5559C59.2617 51.3159 58.4124 51.7406 57.5424 51.6339L55.5294 51.3919C55.8917 51.2003 56.1927 50.9106 56.3983 50.556L57.3223 48.9499L58.2573 47.3439C58.6946 46.5828 58.634 45.6341 58.1033 44.9349L54.1211 39.5999L54.1431 39.4899H54.1541L60.27 36.872C61.076 36.5211 61.5982 35.7269 61.601 34.848V31.152C61.5982 30.273 61.0758 29.479 60.27 29.1281L54.1541 26.5101H54.1431L54.1211 26.4002L58.1031 21.0651C58.6337 20.3659 58.6944 19.4172 58.2572 18.6561L57.3222 17.0501L56.3982 15.444C56.1926 15.0894 55.8915 14.7998 55.5293 14.6081L57.5423 14.3661C58.4122 14.2594 59.2616 14.684 59.6982 15.4442L60.6222 17.0502L61.5572 18.6563C61.9944 19.4173 61.9338 20.3661 61.4031 21.0653L57.4211 26.3999L57.4431 26.5099H57.4541L63.57 29.1278C64.376 29.4788 64.8982 30.2729 64.9011 31.1519Z" fill="#A4C2F7"/>
<path d="M51.6362 57.5411C51.7429 58.411 51.3183 59.2604 50.5581 59.697L48.9521 60.621L47.3461 61.556C46.585 61.9932 45.6363 61.9326 44.9371 61.4019L44.6621 61.193L45.6521 60.621L47.2581 59.697C48.0182 59.2604 48.4429 58.411 48.3362 57.5411L47.5551 50.919L47.6211 50.853L50.8881 51.2381L51.6362 57.5411Z" fill="#A4C2F7"/>
<path d="M38.7317 59.2349L36.8728 63.5689C36.5219 64.3748 35.7277 64.897 34.8488 64.8998H31.5488C32.4278 64.897 33.2219 64.3747 33.5728 63.5689L36.1907 57.4529V57.442L36.3007 57.4199L38.7317 59.2349Z" fill="#A4C2F7"/>
<path d="M38.7317 6.765L36.3007 8.58L36.1907 8.55795V8.547L33.5728 2.43105C33.2219 1.62513 32.4277 1.10293 31.5488 1.1001H34.8488C35.7278 1.10293 36.5219 1.62526 36.8728 2.43105L38.7317 6.765Z" fill="#A4C2F7"/>
<path d="M51.6362 8.45909L50.8881 14.7621L47.6211 15.1471L47.5551 15.0811L48.3362 8.45909C48.4429 7.5891 48.0183 6.73974 47.2581 6.30314L45.6521 5.37914L44.6621 4.80718L44.9371 4.59823C45.6363 4.06765 46.585 4.00694 47.3461 4.44418L48.9521 5.37914L50.5581 6.30314C51.3182 6.73974 51.7429 7.5891 51.6362 8.45909Z" fill="#A4C2F7"/>
<path d="M58.3013 32.9999C58.2837 46.9655 46.9669 58.2823 33.0013 58.2999C32.4513 58.2999 31.8903 58.2779 31.3513 58.2449C18.0548 57.3667 7.71875 46.3255 7.71875 32.9999C7.71875 19.6744 18.0548 8.63323 31.3513 7.75499C31.8903 7.72199 32.4513 7.69995 33.0013 7.69995C46.9669 7.71761 58.2837 19.0344 58.3013 32.9999Z" fill="#A4C2F7"/>
<path d="M31.3492 58.245C44.4108 58.245 54.9992 46.9425 54.9992 33.0001C54.9992 19.0577 44.4108 7.75513 31.3492 7.75513C18.2877 7.75513 7.69922 19.0577 7.69922 33.0001C7.69922 46.9425 18.2877 58.245 31.3492 58.245Z" fill="#D4E1F4"/>
<path d="M53.8995 33C53.8995 44.5428 44.5423 53.8999 32.9996 53.8999C32.4496 53.8999 31.8886 53.8779 31.3496 53.8339C20.4849 52.9685 12.1094 43.8991 12.1094 33C12.1094 22.1009 20.4849 13.0316 31.3496 12.1661C31.8886 12.1221 32.4496 12.1001 32.9996 12.1001C38.5426 12.1001 43.8587 14.3021 47.7782 18.2216C51.6976 22.141 53.8995 27.4571 53.8995 33Z" fill="#A4C2F7"/>
<path d="M31.3495 53.8341C41.981 53.8341 50.5994 44.5064 50.5994 33.0002C50.5994 21.4939 41.981 12.1663 31.3495 12.1663C20.7181 12.1663 12.0996 21.4939 12.0996 33.0002C12.0996 44.5064 20.7181 53.8341 31.3495 53.8341Z" fill="#F5F5F5"/>
<path d="M39.5996 31.9V40.7C39.5996 44.3451 36.6447 47.3 32.9996 47.3H29.6996C26.0545 47.3 23.0996 44.3451 23.0996 40.7V31.9C23.0996 31.2925 23.5922 30.8 24.1996 30.8H38.4995C39.1072 30.7999 39.5996 31.2925 39.5996 31.9Z" fill="#E3E7F2"/>
<path d="M18.7439 6.30314L20.35 5.37914L21.34 4.8028L21.065 4.59823C20.3658 4.06765 19.4171 4.00694 18.656 4.44418L17.05 5.37914L15.4439 6.30314C14.6839 6.73974 14.2592 7.5891 14.3659 8.45909L15.1095 14.7609L18.3809 15.147L18.4469 15.081L17.6659 8.45896C17.5591 7.58911 17.9839 6.73974 18.7439 6.30314Z" fill="white"/>
<path d="M15.4439 59.697L17.05 60.621L18.656 61.556C19.4171 61.9932 20.3658 61.9326 21.065 61.4019L21.34 61.1973L20.35 60.621L18.7439 59.697C17.9839 59.2604 17.5591 58.411 17.6659 57.5411L18.4469 50.919L18.3809 50.853L15.1095 51.2391L14.3659 57.5409C14.2592 58.411 14.6839 59.2604 15.4439 59.697Z" fill="white"/>
<path d="M31.1522 64.9001H34.4522C33.5732 64.8972 32.7791 64.3749 32.4282 63.5691L29.8103 57.4532C29.7817 57.4454 29.7542 57.4345 29.7256 57.4267L29.7003 57.4202L27.2715 59.233L29.1282 63.5691C29.4791 64.3749 30.2732 64.8971 31.1522 64.9001Z" fill="white"/>
<path d="M29.7256 8.58013C29.7542 8.57239 29.7817 8.56143 29.8103 8.5537L32.4282 2.43776C32.7772 1.62926 33.5716 1.10422 34.4522 1.1001H31.1522C30.2732 1.10293 29.4791 1.62526 29.1282 2.43105L27.2715 6.76719L29.7003 8.58013H29.7256Z" fill="white"/>
<path d="M9.60251 50.556L8.67851 48.9499L7.74355 47.3439C7.3063 46.5828 7.36702 45.6341 7.8976 44.9349L11.8795 39.6L11.8575 39.49H11.8465L5.73056 36.8721C4.92464 36.5212 4.40244 35.727 4.3996 34.8481V31.1521C4.40244 30.2731 4.92477 29.4791 5.73056 29.1282L11.8465 26.5102H11.8575L11.8795 26.4003L7.89747 21.0653C7.36689 20.3661 7.30618 19.4173 7.74343 18.6563L8.67838 17.0502L9.60238 15.4442C9.81108 15.0872 10.1161 14.7964 10.4824 14.6049L8.45847 14.3661C7.58848 14.2594 6.73912 14.684 6.30251 15.4442L5.37852 17.0502L4.44356 18.6563C4.00631 19.4173 4.06703 20.3661 4.5976 21.0653L8.57951 26.4L8.55747 26.51H8.54651L2.43056 29.1279C1.62464 29.4788 1.10245 30.273 1.09961 31.1519V34.8479C1.10245 35.7269 1.62477 36.521 2.43056 36.8718L8.54651 39.4898H8.55747L8.57951 39.5997L4.59747 44.9348C4.0669 45.634 4.00618 46.5827 4.44343 47.3438L5.37839 48.9498L6.30238 50.5559C6.73899 51.3159 7.58835 51.7406 8.45834 51.6339L10.4823 51.3952C10.1162 51.2037 9.81121 50.9129 9.60251 50.556Z" fill="white"/>
<path d="M41.2147 26.0736C40.6521 25.5119 39.7399 25.5119 39.1772 26.0736L28.4883 36.746L26.8053 35.0656C26.2399 34.5203 25.3411 34.5281 24.7854 35.0831C24.2295 35.6381 24.2217 36.5354 24.7678 37.0999L27.4696 39.7975C28.0322 40.3591 28.9444 40.3591 29.5071 39.7975L41.2147 28.1079C41.7773 27.5461 41.7773 26.6353 41.2147 26.0736Z" fill="#428DFF"/>
<path d="M33 11C20.8497 11 11 20.8497 11 33C11 45.1503 20.8497 55 33 55C45.1503 55 55 45.1503 55 33C54.9861 20.8555 45.1445 11.0139 33 11ZM33 52.8C22.0648 52.8 13.2 43.9352 13.2 33C13.2 22.0648 22.0648 13.2 33 13.2C43.9352 13.2 52.8 22.0648 52.8 33C52.7872 43.9299 43.9299 52.7872 33 52.8Z" fill="#428DFF"/>
<path d="M64.0022 28.1181L59.083 26.0117L62.2829 21.7217C63.0765 20.6679 63.1632 19.2415 62.5029 18.0994L60.645 14.8897C59.9905 13.7471 58.7146 13.1085 57.4076 13.2693L52.0968 13.8963L52.7227 8.59326C52.8859 7.28332 52.2466 6.00354 51.1013 5.34715L47.8959 3.49258C46.7546 2.83206 45.3288 2.91869 44.2759 3.71262L39.9859 6.91246L37.8794 1.98992C37.3536 0.78362 36.1639 0.00257812 34.8479 0H31.1519C29.8334 0.00309374 28.642 0.787487 28.1181 1.99766L26.0117 6.91684L21.7217 3.717C20.6679 2.92307 19.2415 2.83645 18.0994 3.49696L14.8929 5.35153C13.7508 6.0065 13.1123 7.28203 13.2725 8.58888L13.8995 13.8997L8.59648 13.2738C7.28654 13.1104 6.0065 13.7496 5.35037 14.8952L3.49245 18.1039C2.8331 19.2455 2.91972 20.6707 3.71249 21.724L6.91233 26.014L1.98979 28.1205C0.78362 28.6463 0.00257812 29.8359 0 31.1519V34.8479C0.00309374 36.1665 0.787487 37.3579 1.99766 37.8817L6.91684 39.9882L3.717 44.2782C2.92333 45.332 2.83671 46.7583 3.49696 47.9004L5.35488 51.1102C5.93612 52.1265 7.01545 52.7556 8.18631 52.7602C8.32204 52.7599 8.45752 52.7516 8.59223 52.7349L13.903 52.1079L13.2772 57.411C13.114 58.7209 13.7532 60.0007 14.8986 60.6571L18.1073 62.515C18.6038 62.8034 19.1678 62.9551 19.742 62.955C20.4557 62.9536 21.1501 62.7222 21.722 62.295L26.0119 59.0951L28.1206 64.0209C28.6497 65.223 29.8388 65.9991 31.1522 65.9997H34.8482C36.1668 65.9966 37.3581 65.2123 37.882 64.0021L39.9884 59.0829L44.2784 62.2827C44.8521 62.7115 45.5489 62.943 46.265 62.9427C46.8395 62.9427 47.4038 62.791 47.9007 62.5028L51.1105 60.6449C52.2526 59.9899 52.891 58.7144 52.7308 57.4075L52.1038 52.0967L57.4069 52.7226C57.5426 52.7392 57.6793 52.7476 57.816 52.7478C58.9888 52.7451 60.0707 52.1158 60.6529 51.0978L62.5108 47.8891C63.1701 46.7475 63.0835 45.3224 62.2907 44.269L59.0909 39.979L64.0167 37.8704C65.2175 37.3438 65.995 36.1588 66 34.8475V31.1516C65.9968 29.8334 65.2124 28.642 64.0022 28.1181ZM56.4124 39.1181C56.4046 39.1379 56.4014 39.1588 56.3947 39.1797C54.1559 47.5837 47.5944 54.1493 39.1918 56.3935L39.1335 56.41C35.1171 57.4601 30.8981 57.4601 26.8818 56.41C26.8609 56.4023 26.84 56.3991 26.8192 56.3924C18.4162 54.1535 11.8511 47.5933 9.60633 39.1917C9.60079 39.1718 9.59641 39.1531 9.58983 39.1334C8.53977 35.117 8.53977 30.898 9.58983 26.8817C9.59757 26.8608 9.60079 26.8399 9.60749 26.819C11.8463 18.416 18.4067 11.851 26.8082 9.6062L26.8665 9.5897C30.8833 8.53964 35.1025 8.53964 39.1194 9.5897C39.1392 9.59744 39.1601 9.60066 39.181 9.60736C47.584 11.8462 54.149 18.4066 56.3938 26.8081C56.3938 26.8279 56.4037 26.8466 56.4103 26.8663C57.4604 30.8832 57.4604 35.1024 56.4103 39.1192L56.4124 39.1181ZM57.6762 15.4561C58.1063 15.4053 58.5254 15.6161 58.7409 15.9918L60.6098 19.2082C60.8253 19.5883 60.7923 20.0606 60.5261 20.4071L57.8301 24.0184C56.7638 21.0876 55.1865 18.3688 53.1715 15.9885L57.6762 15.4561ZM45.5938 5.47799C45.9388 5.21077 46.4102 5.17609 46.7906 5.38995L50.0047 7.25999C50.385 7.47629 50.5969 7.90078 50.5415 8.33467L50.0101 12.838C47.6296 10.8231 44.911 9.24578 41.9802 8.17947L45.5938 5.47799ZM30.1399 2.87215C30.315 2.46791 30.7115 2.20468 31.1519 2.20004H34.8479C35.2862 2.2012 35.6829 2.45966 35.861 2.86004L37.6386 7.01249C34.571 6.45742 31.4288 6.45742 28.3613 7.01249L30.1399 2.87215ZM15.9929 7.25999L19.2082 5.39884C19.5882 5.18241 20.0609 5.21541 20.4071 5.4825L24.0184 8.17857C21.0876 9.24488 18.3688 10.822 15.9885 12.8371L15.4561 8.32707C15.403 7.89549 15.6148 7.47449 15.9929 7.25999ZM5.38995 19.2093L7.25999 15.9952C7.47784 15.6166 7.90117 15.405 8.33468 15.4584L12.838 15.9898C10.8231 18.3703 9.24578 21.0889 8.17947 24.0197L5.47786 20.4062C5.21141 20.0609 5.17674 19.5897 5.38995 19.2093ZM2.20004 34.8479V31.1519C2.2012 30.7137 2.45966 30.317 2.86004 30.1389L7.01249 28.3613C6.45742 31.4288 6.45742 34.571 7.01249 37.6386L2.87215 35.86C2.46791 35.6849 2.20455 35.2884 2.20004 34.8479ZM8.32153 50.5428C7.89137 50.5935 7.47229 50.3828 7.25676 50.007L5.39562 46.7917C5.18009 46.4116 5.21309 45.9393 5.47928 45.5928L8.17535 41.9815C9.24166 44.9123 10.8188 47.631 12.8339 50.0114L8.32153 50.5428ZM20.4061 60.5219C20.0597 60.7865 19.5891 60.8194 19.2093 60.6055L15.9952 58.7399C15.6149 58.5236 15.403 58.0991 15.4584 57.6652L15.9898 53.1619C18.3703 55.1768 21.0889 56.7541 24.0197 57.8204L20.4061 60.5219ZM35.86 63.1277C35.6849 63.532 35.2884 63.7952 34.8479 63.7998H31.1519C30.7137 63.7987 30.317 63.5402 30.1389 63.1398L28.3613 58.9874C31.4288 59.5425 34.571 59.5425 37.6386 58.9874L35.86 63.1277ZM50.007 58.7399L46.7917 60.6099C46.4116 60.8255 45.9393 60.7925 45.5928 60.5263L41.9815 57.8302C44.9123 56.7639 47.631 55.1866 50.0114 53.1717L50.5438 57.6817C50.5932 58.1102 50.3819 58.5267 50.007 58.7399ZM60.6099 46.7906L58.7399 50.0047C58.5242 50.3856 58.0992 50.5979 57.6652 50.5415L53.1619 50.0101C55.1768 47.6296 56.7541 44.911 57.8204 41.9802L60.5176 45.5925C60.786 45.9372 60.8224 46.409 60.6099 46.7906ZM63.7998 34.8479C63.7987 35.2862 63.5402 35.6829 63.1398 35.861L58.9874 37.6386C59.5425 34.571 59.5425 31.4288 58.9874 28.3613L63.1277 30.1399C63.532 30.315 63.7952 30.7115 63.7998 31.1519V34.8479Z" fill="#428DFF"/>
</svg>
