<svg width="66" height="66" viewBox="0 0 66 66" fill="none" xmlns="http://www.w3.org/2000/svg">
<g clip-path="url(#clip0)">
<path d="M64.9001 8.7998L64.8998 60.4118C64.923 62.8657 62.9537 64.8744 60.4999 64.8998H5.49982C3.04596 64.8744 1.07666 62.8657 1.09987 60.4118L1.09961 8.7998H64.9001Z" fill="#E3E7F2"/>
<path d="M61.6001 8.7998L61.5998 60.4118C61.623 62.8657 59.6537 64.8744 57.1999 64.8998H5.49982C3.04596 64.8744 1.07666 62.8657 1.09987 60.4118L1.09961 8.7998H61.6001Z" fill="#F5F5F5"/>
<path d="M64.8996 5.49981V9.89977H1.09961V5.49981C1.09961 3.0698 3.06955 1.09985 5.49957 1.09985H60.4996C62.9296 1.09985 64.8996 3.0698 64.8996 5.49981Z" fill="#A4C2F7"/>
<path d="M61.5996 5.49981V9.89977H1.09961V5.49981C1.09961 3.0698 3.06955 1.09985 5.49957 1.09985H57.1996C59.6296 1.09985 61.5996 3.0698 61.5996 5.49981Z" fill="#E3E7F2"/>
<path d="M48.3997 16.4996V28.7866C48.3997 28.7866 48.3997 43.7906 32.9996 52.7996C32.4277 52.4696 31.8776 52.1176 31.3496 51.7766C23.3591 46.7476 18.2503 38.2055 17.5996 28.7866V16.4996C17.5996 15.8921 18.0922 15.3997 18.6996 15.3997H47.2996C47.9073 15.3997 48.3997 15.8921 48.3997 16.4996Z" fill="#A4C2F7"/>
<path d="M45.0997 16.4996V28.7866C44.4491 38.2055 39.3402 46.7476 31.3497 51.7766C23.3591 46.7476 18.2503 38.2055 17.5996 28.7866V16.4996C17.5996 15.8921 18.0922 15.3997 18.6996 15.3997H43.9996C44.6073 15.3997 45.0997 15.8921 45.0997 16.4996Z" fill="#E3E7F2"/>
<path d="M5.49977 64.8998H8.79977C6.34591 64.8744 4.37661 62.8657 4.39981 60.4118V5.49981C4.39981 3.0698 6.36976 1.09985 8.79977 1.09985H5.49977C3.06976 1.09985 1.09981 3.0698 1.09981 5.49981V60.4118C1.07661 62.8657 3.04591 64.8744 5.49977 64.8998Z" fill="white"/>
<path d="M0 60.5V46.2V5.5H2.20004V46.2V60.5H0Z" fill="white"/>
<path d="M0.682043 52.7119C0.744434 52.7437 0.811078 52.7659 0.880043 52.7779C0.952746 52.7901 1.02635 52.7975 1.10009 52.7999C1.39129 52.7956 1.67011 52.6817 1.88113 52.4809C1.98052 52.3757 2.05902 52.2524 2.11213 52.1179C2.27803 51.7075 2.18767 51.2381 1.88113 50.9189C1.77594 50.8195 1.65271 50.741 1.51813 50.6879C1.38587 50.6316 1.24382 50.6017 1.10009 50.5999C0.808887 50.6041 0.530062 50.7181 0.319043 50.9189C-0.106348 51.3527 -0.106348 52.0471 0.319043 52.4809L0.484043 52.6129C0.545402 52.6545 0.611918 52.6877 0.682043 52.7119Z" fill="#428DFF"/>
<path d="M60.5001 0H5.50004C2.46404 0.00360938 0.00373828 2.46391 0 5.50004V47.3001C0 47.9076 0.492551 48.4 1.09996 48.4C1.70736 48.4 2.19991 47.9076 2.19991 47.3001V11.0001H63.8V60.5001C63.8 62.3226 62.3224 63.8001 60.5 63.8001H5.50004C3.67757 63.8001 2.20004 62.3226 2.20004 60.5001V56.1C2.20004 55.4925 1.70749 55 1.10009 55C0.49268 55 0 55.4925 0 56.1V60.5C0.00373828 63.5361 2.46404 65.9964 5.50004 66H60.5001C63.5361 65.9964 65.9964 63.5361 66.0001 60.5V5.50004C65.9964 2.46391 63.5361 0.00360938 60.5001 0ZM2.20004 8.80004V5.50004C2.20004 3.67757 3.67757 2.20004 5.50004 2.20004H60.5001C62.3226 2.20004 63.8001 3.67757 63.8001 5.50004V8.80004H2.20004Z" fill="#428DFF"/>
<path d="M7.70004 4.40039H6.59996C5.99242 4.40039 5.5 4.89294 5.5 5.50035C5.5 6.10775 5.99255 6.60031 6.59996 6.60031H7.69991C8.30745 6.60031 8.79987 6.10775 8.79987 5.50035C8.79987 4.89294 8.30758 4.40039 7.70004 4.40039Z" fill="#428DFF"/>
<path d="M13.1999 4.40039H12.1C11.4924 4.40039 11 4.89294 11 5.50035C11 6.10775 11.4926 6.60031 12.1 6.60031H13.1999C13.8074 6.60031 14.2999 6.10775 14.2999 5.50035C14.2999 4.89294 13.8074 4.40039 13.1999 4.40039Z" fill="#428DFF"/>
<path d="M18.6999 4.40039H17.6C16.9924 4.40039 16.5 4.89294 16.5 5.50035C16.5 6.10775 16.9925 6.60031 17.6 6.60031H18.6999C19.3074 6.60031 19.7999 6.10775 19.7999 5.50035C19.7999 4.89294 19.3074 4.40039 18.6999 4.40039Z" fill="#428DFF"/>
<path d="M59.4001 4.40039H23.1C22.4924 4.40039 22 4.89294 22 5.50035C22 6.10775 22.4925 6.60031 23.1 6.60031H59.4C60.0075 6.60031 60.4999 6.10775 60.4999 5.50035C60.4999 4.89294 60.0075 4.40039 59.4001 4.40039Z" fill="#428DFF"/>
<path d="M5.50035 58.2998H60.5004C61.1079 58.2998 61.6003 57.8072 61.6003 57.1998C61.6003 56.5924 61.1079 56.0999 60.5004 56.0999H5.50035C4.89281 56.0999 4.40039 56.5923 4.40039 57.1998C4.40039 57.8073 4.89281 58.2998 5.50035 58.2998Z" fill="#428DFF"/>
<path d="M5.50035 50.6003H16.5003C17.1078 50.6003 17.6003 50.1078 17.6003 49.5004C17.6003 48.8928 17.1077 48.4004 16.5003 48.4004H5.50035C4.89281 48.4004 4.40039 48.8929 4.40039 49.5004C4.40039 50.1078 4.89281 50.6003 5.50035 50.6003Z" fill="#428DFF"/>
<path d="M5.50035 46.1999H9.9003C10.5078 46.1999 11.0003 45.7074 11.0003 45.1C11.0003 44.4925 10.5077 44 9.9003 44H5.50035C4.89281 44 4.40039 44.4924 4.40039 45.1C4.40039 45.7075 4.89281 46.1999 5.50035 46.1999Z" fill="#428DFF"/>
<path d="M14.3011 44C13.6936 44 13.2012 44.4924 13.2012 45.1C13.2012 45.7075 13.6937 46.1999 14.3011 46.1999H16.501C17.1086 46.1999 17.601 45.7074 17.601 45.1C17.601 44.4925 17.1084 44 16.501 44H14.3011Z" fill="#428DFF"/>
<path d="M48.4004 49.5001C48.4004 50.1076 48.8928 50.6001 49.5003 50.6001H60.5003C61.1078 50.6001 61.6003 50.1075 61.6003 49.5001C61.6003 48.8926 61.1078 48.4001 60.5003 48.4001H49.5003C48.8929 48.4001 48.4004 48.8926 48.4004 49.5001Z" fill="#428DFF"/>
<path d="M60.4999 46.1999C61.1075 46.1999 61.5999 45.7074 61.5999 45.1C61.5999 44.4925 61.1075 44 60.4999 44H56.1C55.4924 44 55 44.4924 55 45.1C55 45.7075 55.4924 46.1999 56.1 46.1999H60.4999Z" fill="#428DFF"/>
<path d="M51.7004 44H49.5003C48.8928 44 48.4004 44.4924 48.4004 45.1C48.4004 45.7075 48.8928 46.1999 49.5003 46.1999H51.7004C52.3079 46.1999 52.8003 45.7074 52.8003 45.1C52.8003 44.4925 52.3079 44 51.7004 44Z" fill="#428DFF"/>
<path d="M48.3999 14.3H17.6C16.9924 14.3 16.5 14.7926 16.5 15.4V28.7903C17.0613 37.9814 21.7818 46.4154 29.3227 51.7H26.3999C25.7923 51.7 25.2999 52.1924 25.2999 52.8C25.2999 53.4075 25.7925 53.8999 26.3999 53.8999H39.5999C40.2074 53.8999 40.6998 53.4074 40.6998 52.8C40.6998 52.1926 40.2073 51.7 39.5999 51.7H36.6772C44.2181 46.4154 48.9386 37.9814 49.4999 28.7903V15.4C49.4999 14.7925 49.0075 14.3 48.3999 14.3ZM47.3 27.5H34.1V16.5H47.3V27.5ZM31.8999 16.5V27.4999H18.6999V16.5H31.8999ZM32.9999 51.5185C25.0863 46.8894 19.811 38.8074 18.7582 29.7H31.8999V45.1C31.8999 45.7075 32.3925 46.2 32.9999 46.2C33.6073 46.2 34.0998 45.7074 34.0998 45.1V29.7H47.2404C46.1889 38.8076 40.9138 46.8897 32.9999 51.5185Z" fill="#428DFF"/>
</g>
<defs>
<clipPath id="clip0">
<rect width="66" height="66" fill="white"/>
</clipPath>
</defs>
</svg>
