<svg width="66" height="67" viewBox="0 0 66 67" fill="none" xmlns="http://www.w3.org/2000/svg">
<path d="M64.8628 39.8301V44.3821C64.8628 46.193 64.1435 47.9297 62.863 49.2102C61.5826 50.4907 59.846 51.21 58.0352 51.21H7.96626C6.15547 51.21 4.41884 50.4907 3.13842 49.2102C1.858 47.9297 1.13867 46.193 1.13867 44.3821V39.8301H64.8628Z" fill="#F5F5F5"/>
<path d="M40.0214 51.21H25.9793L21.291 64.8659H44.7096L40.0214 51.21Z" fill="#E3E7F2"/>
<path d="M46.6553 66.0035H19.345C19.0432 66.0035 18.7537 65.8836 18.5403 65.6702C18.3269 65.4568 18.207 65.1674 18.207 64.8655C18.207 64.5637 18.3269 64.2743 18.5403 64.0608C18.7537 63.8474 19.0432 63.7275 19.345 63.7275H46.6553C46.9571 63.7275 47.2465 63.8474 47.4599 64.0608C47.6734 64.2743 47.7932 64.5637 47.7932 64.8655C47.7932 65.1674 47.6734 65.4568 47.4599 65.6702C47.2465 65.8836 46.9571 66.0035 46.6553 66.0035Z" fill="#428DFF"/>
<path d="M34.1364 46.6578H31.8606C31.5588 46.6578 31.2694 46.5379 31.0559 46.3245C30.8425 46.1111 30.7227 45.8216 30.7227 45.5198C30.7227 45.218 30.8425 44.9286 31.0559 44.7151C31.2694 44.5017 31.5588 44.3818 31.8606 44.3818H34.1364C34.4382 44.3818 34.7277 44.5017 34.9411 44.7151C35.1545 44.9286 35.2744 45.218 35.2744 45.5198C35.2744 45.8216 35.1545 46.1111 34.9411 46.3245C34.7277 46.5379 34.4382 46.6578 34.1364 46.6578Z" fill="url(#paint0_linear)"/>
<path d="M64.8628 7.96594V39.8298H1.13867V7.96594C1.14028 6.55528 1.57875 5.17975 2.39381 4.02842C3.20886 2.87709 4.36049 2.00649 5.6904 1.53627C6.4197 1.27071 7.19012 1.13587 7.96626 1.13796H58.0352C59.846 1.13796 61.5826 1.85734 62.8631 3.13783C64.1435 4.41833 64.8628 6.15505 64.8628 7.96594Z" fill="#D3DFF2"/>
<path d="M61.449 7.96594V39.8298H1.13867V7.96594C1.14028 6.55528 1.57875 5.17975 2.39381 4.02842C3.20886 2.87709 4.36049 2.00649 5.6904 1.53627C6.4197 1.27071 7.19012 1.13587 7.96626 1.13796H54.6214C56.4322 1.13796 58.1688 1.85734 59.4493 3.13783C60.7297 4.41833 61.449 6.15505 61.449 7.96594Z" fill="#F5F5F5"/>
<path d="M47.7915 38.6919H46.6536C46.3518 38.6919 46.0623 38.8118 45.8489 39.0252C45.6355 39.2386 45.5156 39.5281 45.5156 39.8299C45.5156 40.1317 45.6355 40.4212 45.8489 40.6346C46.0623 40.848 46.3518 40.9679 46.6536 40.9679H47.7915C48.0933 40.9679 48.3827 40.848 48.5961 40.6346C48.8095 40.4212 48.9294 40.1317 48.9294 39.8299C48.9294 39.5281 48.8095 39.2386 48.5961 39.0252C48.3827 38.8118 48.0933 38.6919 47.7915 38.6919Z" fill="#428DFF"/>
<path d="M34.1364 44.3818H31.8606C31.5588 44.3818 31.2694 44.5017 31.0559 44.7151C30.8425 44.9286 30.7227 45.218 30.7227 45.5198C30.7227 45.8216 30.8425 46.1111 31.0559 46.3245C31.2694 46.5379 31.5588 46.6578 31.8606 46.6578H34.1364C34.4382 46.6578 34.7277 46.5379 34.9411 46.3245C35.1545 46.1111 35.2744 45.8216 35.2744 45.5198C35.2744 45.218 35.1545 44.9286 34.9411 44.7151C34.7277 44.5017 34.4382 44.3818 34.1364 44.3818Z" fill="#428DFF"/>
<path d="M58.0345 0H7.96552C5.85293 0 3.82686 0.839272 2.33304 2.33318C0.839216 3.82709 0 5.85326 0 7.96597V44.3818C0 46.4946 0.839216 48.5207 2.33304 50.0146C3.82686 51.5085 5.85293 52.3478 7.96552 52.3478H24.3859L20.4828 63.7278H19.3448C19.043 63.7278 18.7536 63.8477 18.5402 64.0611C18.3268 64.2745 18.2069 64.564 18.2069 64.8658C18.2069 65.1676 18.3268 65.457 18.5402 65.6705C18.7536 65.8839 19.043 66.0038 19.3448 66.0038H46.6552C46.957 66.0038 47.2464 65.8839 47.4598 65.6705C47.6732 65.457 47.7931 65.1676 47.7931 64.8658C47.7931 64.564 47.6732 64.2745 47.4598 64.0611C47.2464 63.8477 46.957 63.7278 46.6552 63.7278H45.5172L41.6141 52.3478H58.0345C60.1471 52.3478 62.1731 51.5085 63.667 50.0146C65.1608 48.5207 66 46.4946 66 44.3818V7.96597C66 5.85326 65.1608 3.82709 63.667 2.33318C62.1731 0.839272 60.1471 0 58.0345 0ZM43.1048 63.7278H22.8838L26.7869 52.3478H39.2131L43.1048 63.7278ZM58.0345 50.0718H7.96552C6.45653 50.0718 5.00934 49.4723 3.94232 48.4053C2.8753 47.3382 2.27586 45.8909 2.27586 44.3818V40.9679H42.1034C42.4052 40.9679 42.6947 40.848 42.9081 40.6345C43.1215 40.4211 43.2414 40.1317 43.2414 39.8299C43.2414 39.528 43.1215 39.2386 42.9081 39.0252C42.6947 38.8118 42.4052 38.6919 42.1034 38.6919H2.27586V7.96597C2.27586 6.45689 2.8753 5.00963 3.94232 3.94255C5.00934 2.87547 6.45653 2.27599 7.96552 2.27599H58.0345C59.5435 2.27599 60.9907 2.87547 62.0577 3.94255C63.1247 5.00963 63.7241 6.45689 63.7241 7.96597V38.6919H52.3448C52.043 38.6919 51.7536 38.8118 51.5402 39.0252C51.3268 39.2386 51.2069 39.528 51.2069 39.8299C51.2069 40.1317 51.3268 40.4211 51.5402 40.6345C51.7536 40.848 52.043 40.9679 52.3448 40.9679H63.7241V44.3818C63.7241 45.8909 63.1247 47.3382 62.0577 48.4053C60.9907 49.4723 59.5435 50.0718 58.0345 50.0718Z" fill="#428DFF"/>
<path d="M52.3447 25.0359C52.3447 25.7112 52.5449 26.3712 52.92 26.9327C53.2951 27.4941 53.8283 27.9317 54.4521 28.1901C55.0759 28.4485 55.7623 28.5161 56.4245 28.3843C57.0867 28.2526 57.695 27.9275 58.1724 27.45C58.6498 26.9725 58.975 26.3642 59.1067 25.702C59.2384 25.0397 59.1708 24.3533 58.9124 23.7295C58.654 23.1056 58.2165 22.5725 57.6551 22.1973C57.0937 21.8222 56.4337 21.622 55.7585 21.622C55.0726 21.6215 54.4024 21.8277 53.8354 22.2137L41.944 13.4967C42.0961 12.9883 42.1276 12.4514 42.0361 11.9287C41.9445 11.406 41.7323 10.9119 41.4164 10.4855C41.1005 10.0591 40.6896 9.71228 40.2162 9.47247C39.7429 9.23266 39.2201 9.10649 38.6895 9.104C37.7841 9.104 36.9158 9.4637 36.2756 10.1039C35.6354 10.7442 35.2757 11.6125 35.2757 12.518C35.2792 13.1544 35.4605 13.7772 35.7992 14.316L26.1495 26.3788C25.785 26.2447 25.3999 26.1754 25.0116 26.1739C24.2962 26.1762 23.5996 26.4031 23.0202 26.8226L13.4957 20.245C13.5811 19.9527 13.627 19.6504 13.6323 19.346C13.6323 18.6707 13.4321 18.0107 13.057 17.4493C12.6818 16.8878 12.1487 16.4503 11.5249 16.1919C10.9011 15.9335 10.2147 15.8659 9.55249 15.9976C8.89028 16.1293 8.282 16.4545 7.80457 16.9319C7.32714 17.4094 7.00201 18.0177 6.87028 18.6799C6.73856 19.3422 6.80617 20.0286 7.06455 20.6524C7.32293 21.2763 7.76048 21.8095 8.32188 22.1846C8.88327 22.5597 9.54329 22.76 10.2185 22.76C10.9309 22.7616 11.6251 22.5342 12.1985 22.1113L21.7343 28.7003C21.6485 28.9885 21.6025 29.2872 21.5978 29.5879C21.5978 30.4934 21.9575 31.3617 22.5977 32.002C23.2379 32.6422 24.1062 33.0019 25.0116 33.0019C25.917 33.0019 26.7853 32.6422 27.4255 32.002C28.0657 31.3617 28.4254 30.4934 28.4254 29.5879C28.4247 28.9547 28.2431 28.3348 27.9019 27.8013L37.5516 15.7271C37.9158 15.8621 38.3011 15.9314 38.6895 15.932C39.3754 15.9324 40.0456 15.7262 40.6126 15.3402L52.504 24.0573C52.4049 24.3743 52.3513 24.7038 52.3447 25.0359ZM56.8964 25.0359C56.8964 25.261 56.8297 25.481 56.7046 25.6682C56.5796 25.8553 56.4019 26.0012 56.194 26.0873C55.986 26.1735 55.7572 26.196 55.5365 26.1521C55.3157 26.1082 55.113 25.9998 54.9538 25.8406C54.7947 25.6815 54.6863 25.4787 54.6424 25.258C54.5985 25.0372 54.621 24.8084 54.7072 24.6005C54.7933 24.3925 54.9391 24.2148 55.1263 24.0897C55.3134 23.9647 55.5334 23.898 55.7585 23.898C56.0603 23.898 56.3497 24.0178 56.5631 24.2313C56.7765 24.4447 56.8964 24.7341 56.8964 25.0359ZM9.10331 19.346C9.10331 19.1209 9.17004 18.9009 9.29508 18.7137C9.42012 18.5266 9.59785 18.3807 9.80578 18.2946C10.0137 18.2085 10.2425 18.1859 10.4632 18.2298C10.684 18.2738 10.8867 18.3821 11.0459 18.5413C11.205 18.7004 11.3134 18.9032 11.3573 19.124C11.4012 19.3447 11.3787 19.5735 11.2926 19.7815C11.2064 19.9894 11.0606 20.1671 10.8734 20.2922C10.6863 20.4172 10.4663 20.484 10.2412 20.484C9.93944 20.484 9.65001 20.3641 9.4366 20.1507C9.2232 19.9372 9.10331 19.6478 9.10331 19.346ZM25.0343 30.7259C24.8093 30.7259 24.5893 30.6592 24.4021 30.5341C24.215 30.4091 24.0692 30.2314 23.983 30.0234C23.8969 29.8155 23.8744 29.5867 23.9183 29.3659C23.9622 29.1452 24.0706 28.9424 24.2297 28.7832C24.3888 28.6241 24.5916 28.5157 24.8123 28.4718C25.0331 28.4279 25.2619 28.4504 25.4698 28.5366C25.6777 28.6227 25.8555 28.7686 25.9805 28.9557C26.1055 29.1428 26.1723 29.3629 26.1723 29.5879C26.1723 29.8897 26.0524 30.1792 25.839 30.3926C25.6256 30.606 25.3361 30.7259 25.0343 30.7259ZM37.5516 12.518C37.5516 12.2929 37.6183 12.0729 37.7434 11.8858C37.8684 11.6986 38.0461 11.5528 38.254 11.4666C38.462 11.3805 38.6908 11.358 38.9115 11.4019C39.1323 11.4458 39.335 11.5542 39.4942 11.7133C39.6533 11.8725 39.7617 12.0752 39.8056 12.296C39.8495 12.5167 39.827 12.7455 39.7408 12.9535C39.6547 13.1614 39.5089 13.3392 39.3217 13.4642C39.1346 13.5893 38.9146 13.656 38.6895 13.656C38.3877 13.656 38.0983 13.5361 37.8849 13.3227C37.6715 13.1093 37.5516 12.8198 37.5516 12.518Z" fill="#428DFF"/>
<defs>
<linearGradient id="paint0_linear" x1="446.75" y1="350.229" x2="464.957" y2="350.229" gradientUnits="userSpaceOnUse">
<stop stop-color="#D3E6F5"/>
<stop offset="1" stop-color="#F0F7FC"/>
</linearGradient>
</defs>
</svg>
