<svg width="210" height="210" viewBox="0 0 210 210" fill="none" xmlns="http://www.w3.org/2000/svg">
<path fill-rule="evenodd" clip-rule="evenodd" d="M27.076 40.8684H157.325C160.983 40.8684 163.948 43.8335 163.948 47.4912V129.173C163.948 132.83 160.983 135.796 157.325 135.796H27.076C23.4183 135.796 20.4531 132.83 20.4531 129.173V47.4912C20.4531 43.8335 23.4183 40.8684 27.076 40.8684Z" fill="#A1C0F7"/>
<path opacity="0.965588" fill-rule="evenodd" clip-rule="evenodd" d="M32.594 62.9446H63.5006C64.1102 62.9446 64.6044 63.4388 64.6044 64.0484V126.965C64.6044 127.575 64.1102 128.069 63.5006 128.069H32.594C31.9844 128.069 31.4902 127.575 31.4902 126.965V64.0484C31.4902 63.4388 31.9844 62.9446 32.594 62.9446ZM71.2272 62.9446H151.805C152.415 62.9446 152.909 63.4388 152.909 64.0484V71.775C152.909 72.3846 152.415 72.8788 151.805 72.8788H71.2272C70.6176 72.8788 70.1234 72.3846 70.1234 71.775V64.0484C70.1234 63.4388 70.6176 62.9446 71.2272 62.9446ZM71.2272 79.5016H151.805C152.415 79.5016 152.909 79.9958 152.909 80.6054V134.14H70.1234V80.6054C70.1234 79.9958 70.6176 79.5016 71.2272 79.5016Z" fill="#D2E1FA"/>
<path opacity="0.965588" fill-rule="evenodd" clip-rule="evenodd" d="M34.8016 53.0103C32.9728 53.0103 31.4902 51.5277 31.4902 49.6989C31.4902 47.87 32.9728 46.3875 34.8016 46.3875C36.6305 46.3875 38.1131 47.87 38.1131 49.6989C38.1131 51.5277 36.6305 53.0103 34.8016 53.0103ZM44.184 53.0103C42.3551 53.0103 40.8726 51.5277 40.8726 49.6989C40.8726 47.87 42.3551 46.3875 44.184 46.3875C46.0128 46.3875 47.4954 47.87 47.4954 49.6989C47.4954 51.5277 46.0128 53.0103 44.184 53.0103ZM53.5663 53.0103C51.7375 53.0103 50.2549 51.5277 50.2549 49.6989C50.2549 47.87 51.7375 46.3875 53.5663 46.3875C55.3952 46.3875 56.8777 47.87 56.8777 49.6989C56.8777 51.5277 55.3952 53.0103 53.5663 53.0103Z" fill="#D2E1FA"/>
<path d="M193.199 120.631C193.199 120.021 193.693 119.527 194.302 119.527C194.912 119.527 195.406 120.021 195.406 120.631V123.942C195.406 124.552 194.912 125.046 194.302 125.046C193.693 125.046 193.199 124.552 193.199 123.942V120.631ZM193.199 129.461C193.199 128.851 193.693 128.357 194.302 128.357C194.912 128.357 195.406 128.851 195.406 129.461V132.772C195.406 133.382 194.912 133.876 194.302 133.876C193.693 133.876 193.199 133.382 193.199 132.772V129.461ZM193.199 138.291C193.199 137.682 193.693 137.188 194.302 137.188C194.912 137.188 195.406 137.682 195.406 138.291V141.603C195.406 142.212 194.912 142.707 194.302 142.707C193.693 142.707 193.199 142.212 193.199 141.603V138.291ZM193.199 147.122C193.199 146.512 193.693 146.018 194.302 146.018C194.912 146.018 195.406 146.512 195.406 147.122V150.433C195.406 151.043 194.912 151.537 194.302 151.537C193.693 151.537 193.199 151.043 193.199 150.433V147.122ZM193.199 155.952C193.199 155.343 193.693 154.848 194.302 154.848C194.912 154.848 195.406 155.343 195.406 155.952V159.264C195.406 159.873 194.912 160.368 194.302 160.368C193.693 160.368 193.199 159.873 193.199 159.264V155.952ZM193.199 164.783C193.199 164.173 193.693 163.679 194.302 163.679C194.912 163.679 195.406 164.173 195.406 164.783V167.254C195.406 167.579 195.387 167.903 195.349 168.222C195.278 168.828 194.729 169.26 194.124 169.189C193.518 169.117 193.086 168.569 193.157 167.963C193.185 167.73 193.199 167.493 193.199 167.254V164.783ZM190.891 171.877C191.388 171.524 192.077 171.641 192.43 172.138C192.783 172.635 192.666 173.325 192.168 173.677C191.074 174.454 189.799 174.906 188.458 174.972C187.849 175.002 187.331 174.533 187.301 173.924C187.271 173.315 187.74 172.797 188.349 172.767C189.264 172.722 190.135 172.413 190.891 171.877ZM182.925 172.773C183.534 172.773 184.028 173.267 184.028 173.877C184.028 174.486 183.534 174.981 182.925 174.981H179.613C179.004 174.981 178.51 174.486 178.51 173.877C178.51 173.267 179.004 172.773 179.613 172.773H182.925ZM174.094 172.773C174.704 172.773 175.198 173.267 175.198 173.877C175.198 174.486 174.704 174.981 174.094 174.981H170.782C170.173 174.981 169.678 174.486 169.678 173.877C169.678 173.267 170.173 172.773 170.782 172.773H174.094ZM165.265 172.773C165.875 172.773 166.369 173.267 166.369 173.877C166.369 174.486 165.875 174.981 165.265 174.981H161.954C161.344 174.981 160.85 174.486 160.85 173.877C160.85 173.267 161.344 172.773 161.954 172.773H165.265ZM156.436 172.773C157.045 172.773 157.54 173.267 157.54 173.877C157.54 174.486 157.045 174.981 156.436 174.981H153.124C152.515 174.981 152.021 174.486 152.021 173.877C152.021 173.267 152.515 172.773 153.124 172.773H156.436ZM147.604 172.773C148.214 172.773 148.708 173.267 148.708 173.877C148.708 174.486 148.214 174.981 147.604 174.981H144.293C143.683 174.981 143.189 174.486 143.189 173.877C143.189 173.267 143.683 172.773 144.293 172.773H147.604ZM138.774 172.773C139.384 172.773 139.878 173.267 139.878 173.877C139.878 174.486 139.384 174.981 138.774 174.981H136.53C135.92 174.981 135.426 174.486 135.426 173.877C135.426 173.267 135.92 172.773 136.53 172.773H138.774ZM11.6711 80.0535C11.6711 80.6631 11.1769 81.1573 10.5673 81.1573C9.95766 81.1573 9.46347 80.6631 9.46347 80.0535V76.7421C9.46347 76.1325 9.95766 75.6383 10.5673 75.6383C11.1769 75.6383 11.6711 76.1325 11.6711 76.7421V80.0535ZM11.6711 71.2231C11.6711 71.8327 11.1769 72.3269 10.5673 72.3269C9.95766 72.3269 9.46347 71.8327 9.46347 71.2231V67.9117C9.46347 67.3021 9.95766 66.8079 10.5673 66.8079C11.1769 66.8079 11.6711 67.3021 11.6711 67.9117V71.2231ZM11.6711 62.3927C11.6711 63.0023 11.1769 63.4965 10.5673 63.4965C9.95766 63.4965 9.46347 63.0023 9.46347 62.3927V59.0812C9.46347 58.4716 9.95766 57.9774 10.5673 57.9774C11.1769 57.9774 11.6711 58.4716 11.6711 59.0812V62.3927ZM11.6711 53.5622C11.6711 54.1718 11.1769 54.666 10.5673 54.666C9.95766 54.666 9.46347 54.1718 9.46347 53.5622V50.2508C9.46347 49.6412 9.95766 49.147 10.5673 49.147C11.1769 49.147 11.6711 49.6412 11.6711 50.2508V53.5622ZM11.6711 44.7318C11.6711 45.3414 11.1769 45.8356 10.5673 45.8356C9.95766 45.8356 9.46347 45.3414 9.46347 44.7318V41.4204C9.46347 40.8108 9.95766 40.3166 10.5673 40.3166C11.1769 40.3166 11.6711 40.8108 11.6711 41.4204V44.7318ZM11.6711 35.9014C11.6711 36.511 11.1769 37.0052 10.5673 37.0052C9.95766 37.0052 9.46347 36.511 9.46347 35.9014V33.43C9.46347 33.1016 9.48402 32.7755 9.52477 32.453C9.6012 31.8482 10.1534 31.4199 10.7582 31.4963C11.3631 31.5727 11.7914 32.125 11.715 32.7298C11.6858 32.9605 11.6711 33.1942 11.6711 33.43V35.9014ZM14.0684 28.8779C13.5661 29.2232 12.8789 29.0959 12.5336 28.5935C12.1883 28.0911 12.3156 27.4039 12.818 27.0586C13.8919 26.3205 15.1368 25.8633 16.4511 25.7384C17.058 25.6807 17.5967 26.1259 17.6544 26.7328C17.7121 27.3396 17.2669 27.8784 16.66 27.9361C15.7221 28.0252 14.8351 28.351 14.0684 28.8779ZM22.042 27.911C21.4324 27.911 20.9382 27.4168 20.9382 26.8072C20.9382 26.1976 21.4324 25.7034 22.042 25.7034H25.3534C25.963 25.7034 26.4572 26.1976 26.4572 26.8072C26.4572 27.4168 25.963 27.911 25.3534 27.911H22.042ZM30.8724 27.911C30.2628 27.911 29.7686 27.4168 29.7686 26.8072C29.7686 26.1976 30.2628 25.7034 30.8724 25.7034H34.1838C34.7934 25.7034 35.2876 26.1976 35.2876 26.8072C35.2876 27.4168 34.7934 27.911 34.1838 27.911H30.8724ZM39.7028 27.911C39.0932 27.911 38.599 27.4168 38.599 26.8072C38.599 26.1976 39.0932 25.7034 39.7028 25.7034H43.0143C43.6239 25.7034 44.1181 26.1976 44.1181 26.8072C44.1181 27.4168 43.6239 27.911 43.0143 27.911H39.7028ZM48.5333 27.911C47.9237 27.911 47.4295 27.4168 47.4295 26.8072C47.4295 26.1976 47.9237 25.7034 48.5333 25.7034H51.8447C52.4543 25.7034 52.9485 26.1976 52.9485 26.8072C52.9485 27.4168 52.4543 27.911 51.8447 27.911H48.5333ZM57.3637 27.911C56.7541 27.911 56.2599 27.4168 56.2599 26.8072C56.2599 26.1976 56.7541 25.7034 57.3637 25.7034H60.6751C61.2847 25.7034 61.7789 26.1976 61.7789 26.8072C61.7789 27.4168 61.2847 27.911 60.6751 27.911H57.3637ZM66.1941 27.911C65.5845 27.911 65.0903 27.4168 65.0903 26.8072C65.0903 26.1976 65.5845 25.7034 66.1941 25.7034H69.5055C70.1152 25.7034 70.6094 26.1976 70.6094 26.8072C70.6094 27.4168 70.1152 27.911 69.5055 27.911H66.1941ZM75.0246 27.911C74.415 27.911 73.9208 27.4168 73.9208 26.8072C73.9208 26.1976 74.415 25.7034 75.0246 25.7034H78.336C78.9456 25.7034 79.4398 26.1976 79.4398 26.8072C79.4398 27.4168 78.9456 27.911 78.336 27.911H75.0246ZM83.855 27.911C83.2454 27.911 82.7512 27.4168 82.7512 26.8072C82.7512 26.1976 83.2454 25.7034 83.855 25.7034H87.1664C87.776 25.7034 88.2702 26.1976 88.2702 26.8072C88.2702 27.4168 87.776 27.911 87.1664 27.911H83.855ZM92.6854 27.911C92.0758 27.911 91.5816 27.4168 91.5816 26.8072C91.5816 26.1976 92.0758 25.7034 92.6854 25.7034H92.7524C93.362 25.7034 93.8562 26.1976 93.8562 26.8072C93.8562 27.4168 93.362 27.911 92.7524 27.911H92.6854ZM194.578 114.823C193.207 114.823 192.095 113.711 192.095 112.34C192.095 110.968 193.207 109.856 194.578 109.856C195.95 109.856 197.062 110.968 197.062 112.34C197.062 113.711 195.95 114.823 194.578 114.823ZM194.578 116.479C196.864 116.479 198.718 114.626 198.718 112.34C198.718 110.054 196.864 108.201 194.578 108.201C192.292 108.201 190.439 110.054 190.439 112.34C190.439 114.626 192.292 116.479 194.578 116.479ZM194.578 118.135C191.378 118.135 188.783 115.54 188.783 112.34C188.783 109.139 191.378 106.545 194.578 106.545C197.779 106.545 200.373 109.139 200.373 112.34C200.373 115.54 197.779 118.135 194.578 118.135ZM101.859 29.2785C100.487 29.2785 99.3753 28.1666 99.3753 26.795C99.3753 25.4233 100.487 24.3114 101.859 24.3114C103.23 24.3114 104.342 25.4233 104.342 26.795C104.342 28.1666 103.23 29.2785 101.859 29.2785ZM101.859 30.9342C104.145 30.9342 105.998 29.081 105.998 26.795C105.998 24.5089 104.145 22.6557 101.859 22.6557C99.5728 22.6557 97.7195 24.5089 97.7195 26.795C97.7195 29.081 99.5728 30.9342 101.859 30.9342ZM101.859 32.5899C98.6583 32.5899 96.0638 29.9954 96.0638 26.795C96.0638 23.5945 98.6583 21 101.859 21C105.059 21 107.654 23.5945 107.654 26.795C107.654 29.9954 105.059 32.5899 101.859 32.5899ZM10.795 91.0916C9.42334 91.0916 8.31141 89.9796 8.31141 88.608C8.31141 87.2364 9.42334 86.1245 10.795 86.1245C12.1666 86.1245 13.2785 87.2364 13.2785 88.608C13.2785 89.9796 12.1666 91.0916 10.795 91.0916ZM10.795 92.7473C13.081 92.7473 14.9342 90.8941 14.9342 88.608C14.9342 86.322 13.081 84.4687 10.795 84.4687C8.50892 84.4687 6.65571 86.322 6.65571 88.608C6.65571 90.8941 8.50892 92.7473 10.795 92.7473ZM10.795 94.403C7.5945 94.403 5 91.8085 5 88.608C5 85.4075 7.5945 82.813 10.795 82.813C13.9954 82.813 16.5899 85.4075 16.5899 88.608C16.5899 91.8085 13.9954 94.403 10.795 94.403Z" fill="#D4DFFF"/>
<path fill-rule="evenodd" clip-rule="evenodd" d="M46.3924 67.9116H176.641C180.299 67.9116 183.264 70.8768 183.264 74.5344V156.216C183.264 159.874 180.299 162.839 176.641 162.839H46.3924C42.7347 162.839 39.7695 159.874 39.7695 156.216V74.5344C39.7695 70.8768 42.7347 67.9116 46.3924 67.9116Z" fill="#428DFF"/>
<path opacity="0.965588" fill-rule="evenodd" clip-rule="evenodd" d="M51.9124 89.9878H82.8189C83.4285 89.9878 83.9227 90.482 83.9227 91.0916V98.8182C83.9227 99.4278 83.4285 99.922 82.8189 99.922H51.9124C51.3028 99.922 50.8086 99.4278 50.8086 98.8182V91.0916C50.8086 90.482 51.3028 89.9878 51.9124 89.9878ZM51.9124 105.441H82.8189C83.4285 105.441 83.9227 105.935 83.9227 106.545V114.271C83.9227 114.881 83.4285 115.375 82.8189 115.375H51.9124C51.3028 115.375 50.8086 114.881 50.8086 114.271V106.545C50.8086 105.935 51.3028 105.441 51.9124 105.441ZM90.5455 89.9878H171.123C171.733 89.9878 172.227 90.482 172.227 91.0916V98.8182C172.227 99.4278 171.733 99.922 171.123 99.922H90.5455C89.9359 99.922 89.4417 99.4278 89.4417 98.8182V91.0916C89.4417 90.482 89.9359 89.9878 90.5455 89.9878ZM90.5455 106.545H171.123C171.733 106.545 172.227 107.039 172.227 107.649V161.183H89.4417V107.649C89.4417 107.039 89.9359 106.545 90.5455 106.545Z" fill="#A1C0F7"/>
<path d="M51.9124 120.894H82.8189C83.4285 120.894 83.9227 121.388 83.9227 121.998V129.725C83.9227 130.334 83.4285 130.829 82.8189 130.829H51.9124C51.3028 130.829 50.8086 130.334 50.8086 129.725V121.998C50.8086 121.388 51.3028 120.894 51.9124 120.894Z" fill="#9EBEF7"/>
<path opacity="0.965588" fill-rule="evenodd" clip-rule="evenodd" d="M54.12 80.0535C52.2912 80.0535 50.8086 78.5709 50.8086 76.7421C50.8086 74.9132 52.2912 73.4307 54.12 73.4307C55.9488 73.4307 57.4314 74.9132 57.4314 76.7421C57.4314 78.5709 55.9488 80.0535 54.12 80.0535ZM63.5023 80.0535C61.6735 80.0535 60.1909 78.5709 60.1909 76.7421C60.1909 74.9132 61.6735 73.4307 63.5023 73.4307C65.3312 73.4307 66.8138 74.9132 66.8138 76.7421C66.8138 78.5709 65.3312 80.0535 63.5023 80.0535ZM72.8847 80.0535C71.0558 80.0535 69.5733 78.5709 69.5733 76.7421C69.5733 74.9132 71.0558 73.4307 72.8847 73.4307C74.7135 73.4307 76.1961 74.9132 76.1961 76.7421C76.1961 78.5709 74.7135 80.0535 72.8847 80.0535Z" fill="#9EBEF7"/>
<path d="M105.446 167.254H113.172C113.782 167.254 114.276 167.748 114.276 168.358V169.078C114.276 169.688 113.782 170.182 113.172 170.182H105.446C104.836 170.182 104.342 169.688 104.342 169.078V168.358C104.342 167.748 104.836 167.254 105.446 167.254ZM105.446 172.773H124.21C124.82 172.773 125.314 173.267 125.314 173.877V174.597C125.314 175.207 124.82 175.701 124.21 175.701H105.446C104.836 175.701 104.342 175.207 104.342 174.597V173.877C104.342 173.267 104.836 172.773 105.446 172.773Z" fill="#FB65BC"/>
<path fill-rule="evenodd" clip-rule="evenodd" d="M14.9506 175.93C0.252938 159.022 2.04455 133.401 18.9523 118.703C35.86 104.005 61.4813 105.797 76.179 122.705C90.8767 139.612 89.0851 165.234 72.1773 179.931C55.2696 194.629 29.6483 192.838 14.9506 175.93Z" fill="#966AFF"/>
<path fill-rule="evenodd" clip-rule="evenodd" d="M82.9901 133.866C89.568 149.509 85.7318 168.236 72.1884 179.972C60.3126 190.262 44.1344 192.437 30.4699 186.971L30.3867 185.711C35.1066 179.779 39.709 176.257 44.194 175.143C50.9215 173.471 47.134 185.103 54.6561 183.015C62.1783 180.926 55.8544 175.196 64.8035 172.718C73.7526 170.24 71.1528 160.363 66.8553 151.348C63.9903 145.339 69.1372 139.235 82.2961 133.036L82.9901 133.866Z" fill="#CDB6FF"/>
<path opacity="0.965588" fill-rule="evenodd" clip-rule="evenodd" d="M17.0414 120.342C28.4577 128.062 32.5498 135.417 29.3179 142.408C24.4606 152.914 11.14 155.914 16.9032 166.274C20.7453 173.181 21.7875 177.923 20.0296 180.5L19.0846 180.285C17.6112 179.007 16.2112 177.606 14.8987 176.082C0.828924 159.747 1.94889 135.311 17.0414 120.342Z" fill="#CFB9FF"/>
<path opacity="0.965588" fill-rule="evenodd" clip-rule="evenodd" d="M53.9778 122.955C58.9944 127.416 63.447 121.693 65.0223 128.216C66.5975 134.739 53.8081 133.876 51.6267 140.123C49.4453 146.369 43.0836 141.287 41.9795 134.979C40.8754 128.67 29.0612 124.009 31.9412 118.454C34.8211 112.9 46.4626 110.892 49.3247 114.258C52.1867 117.625 48.9611 118.495 53.9778 122.955Z" fill="#CFB9FF"/>
<path d="M169.779 100.724C207.899 84.1658 202.998 48.7778 201.596 41.7135C201.53 41.386 201.334 41.1004 201.054 40.9231C200.775 40.7459 200.436 40.6924 200.116 40.7753C182.357 44.9807 173.599 35.125 170.828 31.0611C170.602 30.7228 170.226 30.52 169.823 30.52C169.42 30.52 169.043 30.7228 168.818 31.0611C166.037 35.1251 157.25 44.9844 139.487 40.7753C139.168 40.6924 138.829 40.7459 138.549 40.9231C138.269 41.1004 138.074 41.386 138.007 41.7135C136.606 48.7778 131.704 84.1658 169.825 100.724H169.779Z" fill="#E3E7F2"/>
<path d="M169.801 95.3261C141.485 81.9427 141.041 56.7275 142.214 46.3001C144.056 46.573 145.914 46.7123 147.776 46.7169C156.062 46.877 164.043 43.547 169.817 37.5204C175.578 43.5462 183.549 46.8762 191.826 46.7145C193.687 46.7099 195.545 46.5705 197.386 46.2976C198.562 56.7288 198.118 81.9427 169.801 95.3261Z" fill="#E3E7F2"/>
<path d="M169.798 100.712C169.18 100.441 168.573 100.171 167.979 99.888C204.096 83.0049 199.328 48.6733 197.957 41.7134C197.925 41.5494 197.859 41.3942 197.763 41.2585C198.527 41.1356 199.316 40.9634 200.117 40.7789C200.435 40.6982 200.773 40.7521 201.052 40.9282C201.331 41.1043 201.528 41.3878 201.597 41.7134C202.992 48.7839 207.893 84.1485 169.798 100.712Z" fill="#A4C2F7"/>
<path d="M169.794 95.3264C169.175 95.0313 168.569 94.7362 167.986 94.4288C194.192 81.0011 194.883 57.0599 193.791 46.6571C194.994 46.6035 196.193 46.4844 197.382 46.3004C198.559 56.7279 198.11 81.9479 169.794 95.3264Z" fill="#A4C2F7"/>
<path d="M169.821 100.724L169.798 100.713L169.775 100.724H169.821Z" fill="white"/>
<path d="M141.835 41.2524C141.067 41.1184 140.287 40.966 139.482 40.7753C139.162 40.6925 138.823 40.7459 138.543 40.9232C138.264 41.1004 138.068 41.386 138.002 41.7135C136.623 48.6623 131.891 82.9928 167.999 99.8759L167.976 99.8881C168.545 100.159 169.128 100.418 169.719 100.677C169.746 100.689 169.771 100.702 169.797 100.713C170.426 100.44 171.026 100.155 171.631 99.872C135.532 82.9866 140.263 48.661 141.641 41.7135C141.674 41.548 141.74 41.391 141.835 41.2524Z" fill="white"/>
<path d="M171.643 32.1738C171.331 31.7704 171.058 31.3942 170.83 31.0584C170.604 30.7201 170.228 30.5173 169.825 30.5173C169.422 30.5173 169.045 30.7201 168.82 31.0584C164.386 37.4567 157.27 41.4033 149.562 41.7392C161.773 42.4536 168.649 36.0262 171.643 32.1738Z" fill="white"/>
<path d="M169.342 101.854C164.401 99.7342 159.735 97.0085 155.449 93.7382C147.507 87.68 141.583 79.3049 138.471 69.7368C136.948 64.9874 136.073 60.0494 135.869 55.0597C135.624 50.0583 136.04 45.0464 137.104 40.1564L139.45 40.7859C138.451 45.4353 138.062 50.1978 138.293 54.9502C138.487 59.7157 139.323 64.4317 140.776 68.9681C143.733 78.0684 149.368 86.0328 156.924 91.7904C161.051 94.9354 165.543 97.556 170.298 99.5938L169.342 101.854Z" fill="white"/>
<path d="M164.882 99.7173C166.295 100.464 167.761 101.098 169.201 101.787C169.375 101.891 169.572 101.948 169.774 101.953H169.82C170.05 101.954 170.274 101.886 170.466 101.76C213.148 83.0693 202.603 40.5836 202.495 40.1545C202.323 39.4983 201.66 39.1069 201.012 39.2803C180.309 44.8075 172.015 31.0024 170.965 29.0557C170.932 28.9508 170.887 28.8504 170.83 28.7569C170.589 28.4159 170.2 28.2137 169.786 28.2137C169.372 28.2137 168.983 28.4159 168.742 28.7569C168.673 28.8711 168.623 28.9956 168.593 29.1257C167.394 31.3024 159.058 44.7399 138.585 39.2816C137.938 39.1091 137.275 39.5002 137.104 40.1558C136.04 45.0457 135.624 50.0577 135.869 55.0591C136.073 60.0487 136.948 64.9868 138.471 69.7362C141.583 79.305 147.507 87.6803 155.449 93.7389C155.776 93.9947 156.118 94.2308 156.453 94.4767C156.994 94.8713 157.748 94.7499 158.141 94.2048C158.535 93.6598 158.421 92.8951 157.886 92.4921C157.566 92.2572 157.237 92.0322 156.924 91.7887C149.37 86.0327 143.734 78.0706 140.776 68.9726C139.323 64.4362 138.487 59.72 138.293 54.9547C138.098 50.6056 138.413 46.2485 139.231 41.9745C157.521 46.2832 166.804 36.0439 169.797 31.7401C172.793 36.0439 182.087 46.3114 200.414 41.9609C201.84 48.8666 206.771 82.9598 169.798 99.3559C168.523 98.7535 167.231 98.1828 165.987 97.5237C165.399 97.214 164.674 97.443 164.364 98.0364C164.05 98.6454 164.281 99.3976 164.882 99.7173Z" fill="#428DFF"/>
<path d="M160.573 97.2623C160.85 97.4328 161.181 97.4907 161.499 97.4246L161.717 97.3446C161.79 97.3105 161.86 97.2662 161.922 97.2131C161.986 97.1716 162.045 97.1201 162.094 97.0606C162.146 96.9975 162.194 96.9309 162.237 96.8615C162.394 96.5757 162.444 96.242 162.376 95.9221C162.335 95.7667 162.266 95.6203 162.173 95.4905C161.89 95.0949 161.403 94.9078 160.933 95.0147C160.779 95.057 160.634 95.1275 160.505 95.2225C160.101 95.5042 159.908 96.0075 160.019 96.4914C160.102 96.8096 160.299 97.0847 160.573 97.2623Z" fill="#428DFF"/>
<path d="M169.797 96.5565C169.974 96.5568 170.149 96.5173 170.31 96.4409C199.616 82.605 199.873 56.6595 198.624 46.1485C198.585 45.8195 198.416 45.5203 198.157 45.3189C197.897 45.1174 197.568 45.0308 197.244 45.0787C195.449 45.3464 193.637 45.4833 191.823 45.4882C191.153 45.4882 190.609 46.0388 190.609 46.7178C190.609 47.3968 191.153 47.9474 191.823 47.9474C193.334 47.9448 194.844 47.8545 196.345 47.6769C197.333 58.2604 196.08 81.2734 169.797 93.9682C167.303 92.7732 164.896 91.4017 162.593 89.8637C162.232 89.6053 161.761 89.5663 161.363 89.7618C160.966 89.9573 160.704 90.3565 160.681 90.8038C160.658 91.2511 160.877 91.6757 161.252 91.9122C163.815 93.6242 166.5 95.1389 169.286 96.4434C169.446 96.5183 169.62 96.5569 169.797 96.5565Z" fill="#428DFF"/>
<path d="M147.775 47.9462C155.955 48.1162 163.87 45.005 169.797 39.2894C173.138 42.5432 177.173 44.9728 181.59 46.3893C182.005 46.5321 182.464 46.4366 182.791 46.1393C183.117 45.8421 183.259 45.3894 183.163 44.9557C183.067 44.5218 182.748 44.1744 182.328 44.0469C177.901 42.622 173.897 40.0965 170.681 36.701C170.195 36.2214 169.421 36.2214 168.936 36.701C163.396 42.4821 155.732 45.6652 147.783 45.4868C145.977 45.482 144.174 45.3464 142.388 45.0811C142.063 45.0337 141.733 45.1216 141.474 45.3245C141.214 45.5273 141.047 45.8281 141.009 46.1582C140.376 51.7526 140.61 57.4129 141.701 62.9342C143.24 70.9379 146.943 78.3507 152.398 84.3448C152.692 84.6673 153.134 84.8057 153.557 84.7083C153.98 84.6108 154.32 84.2922 154.448 83.8721C154.576 83.4522 154.473 82.9949 154.178 82.6724C149.023 77.0093 145.522 70.0046 144.068 62.441C143.108 57.5861 142.844 52.6164 143.284 47.6852C144.775 47.8586 146.275 47.9456 147.775 47.9462Z" fill="#428DFF"/>
<path d="M160.117 79.8199H169.823C170.493 79.8199 171.036 79.2693 171.036 78.5903C171.036 77.9112 170.493 77.3607 169.823 77.3607H160.117C159.447 77.3607 158.904 77.9113 158.904 78.5903C158.904 79.2693 159.448 79.8199 160.117 79.8199Z" fill="#428DFF"/>
<path d="M174.672 77.3604C174.002 77.3604 173.459 77.911 173.459 78.5899C173.459 79.2691 174.002 79.8195 174.672 79.8195H179.525C180.195 79.8195 180.738 79.2689 180.738 78.5899C180.738 77.9108 180.195 77.3604 179.525 77.3604H174.672Z" fill="#428DFF"/>
<path d="M200.148 101.954C200.818 101.954 201.361 101.403 201.361 100.724V98.2646H203.787C204.457 98.2646 205 97.7141 205 97.035C205 96.3559 204.457 95.8054 203.787 95.8054H201.361V93.3461C201.361 92.6669 200.818 92.1165 200.148 92.1165C199.478 92.1165 198.935 92.6669 198.935 93.3461V95.8054H196.508C195.838 95.8054 195.295 96.356 195.295 97.035C195.295 97.714 195.838 98.2646 196.508 98.2646H198.935V100.724C198.935 101.403 199.478 101.954 200.148 101.954Z" fill="#428DFF"/>
<path d="M196.509 28.1748C195.839 28.1748 195.295 28.7254 195.295 29.4044V30.634H194.082C193.412 30.634 192.869 31.1846 192.869 31.8636C192.869 32.5426 193.412 33.0932 194.082 33.0932H195.295V34.3228C195.295 35.0019 195.839 35.5524 196.509 35.5524C197.179 35.5524 197.722 35.0018 197.722 34.3228V33.0932H198.935C199.605 33.0932 200.148 32.5426 200.148 31.8636C200.148 31.1846 199.605 30.634 198.935 30.634H197.722V29.4044C197.722 28.7254 197.179 28.1748 196.509 28.1748Z" fill="#428DFF"/>
<path d="M180.385 55.5873C179.912 55.1073 179.144 55.1073 178.67 55.5873L163.756 70.7033L160.974 67.8837C160.498 67.4177 159.741 67.4243 159.273 67.8987C158.805 68.3731 158.799 69.14 159.259 69.6224L162.898 73.3113C163.372 73.7913 164.14 73.7913 164.614 73.3113L180.385 57.326C180.859 56.8457 180.859 56.0674 180.385 55.5873Z" fill="#428DFF"/>
</svg>
