<svg width="210" height="210" viewBox="0 0 210 210" fill="none" xmlns="http://www.w3.org/2000/svg">
<path opacity="0.965588" fill-rule="evenodd" clip-rule="evenodd" d="M26.6232 28.4595H154.191C157.773 28.4595 160.678 31.3636 160.678 34.946V114.946C160.678 118.529 157.773 121.433 154.191 121.433H26.6232C23.0408 121.433 20.1367 118.529 20.1367 114.946V34.946C20.1367 31.3636 23.0408 28.4595 26.6232 28.4595Z" fill="#9EBEF7"/>
<path opacity="0.965588" fill-rule="evenodd" clip-rule="evenodd" d="M32.0303 50.0812H62.3006C62.8977 50.0812 63.3817 50.5652 63.3817 51.1623V112.784C63.3817 113.381 62.8977 113.865 62.3006 113.865H32.0303C31.4332 113.865 30.9492 113.381 30.9492 112.784V51.1623C30.9492 50.5652 31.4332 50.0812 32.0303 50.0812ZM69.8682 50.0812H148.787C149.384 50.0812 149.868 50.5652 149.868 51.1623V58.7298C149.868 59.3269 149.384 59.8109 148.787 59.8109H69.8682C69.2712 59.8109 68.7871 59.3269 68.7871 58.7298V51.1623C68.7871 50.5652 69.2712 50.0812 69.8682 50.0812ZM69.8682 66.2974H148.787C149.384 66.2974 149.868 66.7814 149.868 67.3785V119.811H68.7871V67.3785C68.7871 66.7814 69.2712 66.2974 69.8682 66.2974Z" fill="#D4E2FA"/>
<path opacity="0.965588" fill-rule="evenodd" clip-rule="evenodd" d="M34.1925 40.3512C32.4013 40.3512 30.9492 38.8992 30.9492 37.108C30.9492 35.3168 32.4013 33.8647 34.1925 33.8647C35.9837 33.8647 37.4357 35.3168 37.4357 37.108C37.4357 38.8992 35.9837 40.3512 34.1925 40.3512ZM43.3817 40.3512C41.5905 40.3512 40.1384 38.8992 40.1384 37.108C40.1384 35.3168 41.5905 33.8647 43.3817 33.8647C45.1729 33.8647 46.6249 35.3168 46.6249 37.108C46.6249 38.8992 45.1729 40.3512 43.3817 40.3512ZM52.5709 40.3512C50.7797 40.3512 49.3276 38.8992 49.3276 37.108C49.3276 35.3168 50.7797 33.8647 52.5709 33.8647C54.3621 33.8647 55.8141 35.3168 55.8141 37.108C55.8141 38.8992 54.3621 40.3512 52.5709 40.3512Z" fill="#D4E2FA"/>
<path d="M189.325 106.58C189.325 105.983 189.809 105.499 190.406 105.499C191.003 105.499 191.487 105.983 191.487 106.58V109.823C191.487 110.42 191.003 110.904 190.406 110.904C189.809 110.904 189.325 110.42 189.325 109.823V106.58ZM189.325 115.228C189.325 114.631 189.809 114.147 190.406 114.147C191.003 114.147 191.487 114.631 191.487 115.228V118.472C191.487 119.069 191.003 119.553 190.406 119.553C189.809 119.553 189.325 119.069 189.325 118.472V115.228ZM189.325 123.877C189.325 123.28 189.809 122.796 190.406 122.796C191.003 122.796 191.487 123.28 191.487 123.877V127.12C191.487 127.717 191.003 128.201 190.406 128.201C189.809 128.201 189.325 127.717 189.325 127.12V123.877ZM189.325 132.526C189.325 131.929 189.809 131.445 190.406 131.445C191.003 131.445 191.487 131.929 191.487 132.526V135.769C191.487 136.366 191.003 136.85 190.406 136.85C189.809 136.85 189.325 136.366 189.325 135.769V132.526ZM189.325 141.174C189.325 140.577 189.809 140.093 190.406 140.093C191.003 140.093 191.487 140.577 191.487 141.174V144.418C191.487 145.015 191.003 145.499 190.406 145.499C189.809 145.499 189.325 145.015 189.325 144.418V141.174ZM189.325 149.823C189.325 149.226 189.809 148.742 190.406 148.742C191.003 148.742 191.487 149.226 191.487 149.823V152.244C191.487 152.562 191.468 152.879 191.431 153.192C191.361 153.785 190.824 154.209 190.231 154.139C189.638 154.069 189.214 153.531 189.284 152.938C189.311 152.709 189.325 152.477 189.325 152.244V149.823ZM187.064 156.771C187.551 156.426 188.226 156.54 188.572 157.027C188.917 157.514 188.803 158.189 188.316 158.535C187.244 159.295 185.995 159.738 184.682 159.803C184.086 159.832 183.578 159.373 183.549 158.776C183.519 158.18 183.979 157.673 184.575 157.643C185.471 157.599 186.324 157.296 187.064 156.771ZM179.262 157.649C179.859 157.649 180.343 158.133 180.343 158.73C180.343 159.327 179.859 159.811 179.262 159.811H176.019C175.422 159.811 174.938 159.327 174.938 158.73C174.938 158.133 175.422 157.649 176.019 157.649H179.262ZM170.613 157.649C171.21 157.649 171.694 158.133 171.694 158.73C171.694 159.327 171.21 159.811 170.613 159.811H167.37C166.773 159.811 166.289 159.327 166.289 158.73C166.289 158.133 166.773 157.649 167.37 157.649H170.613ZM161.966 157.649C162.563 157.649 163.047 158.133 163.047 158.73C163.047 159.327 162.563 159.811 161.966 159.811H158.723C158.126 159.811 157.642 159.327 157.642 158.73C157.642 158.133 158.126 157.649 158.723 157.649H161.966ZM153.319 157.649C153.916 157.649 154.4 158.133 154.4 158.73C154.4 159.327 153.916 159.811 153.319 159.811H150.075C149.478 159.811 148.994 159.327 148.994 158.73C148.994 158.133 149.478 157.649 150.075 157.649H153.319ZM144.669 157.649C145.266 157.649 145.75 158.133 145.75 158.73C145.75 159.327 145.266 159.811 144.669 159.811H141.425C140.828 159.811 140.344 159.327 140.344 158.73C140.344 158.133 140.828 157.649 141.425 157.649H144.669ZM136.021 157.649C136.618 157.649 137.102 158.133 137.102 158.73C137.102 159.327 136.618 159.811 136.021 159.811H133.822C133.225 159.811 132.741 159.327 132.741 158.73C132.741 158.133 133.225 157.649 133.822 157.649H136.021ZM11.5338 66.838C11.5338 67.435 11.0497 67.919 10.4527 67.919C9.85561 67.919 9.37159 67.435 9.37159 66.838V63.5947C9.37159 62.9976 9.85561 62.5136 10.4527 62.5136C11.0497 62.5136 11.5338 62.9976 11.5338 63.5947V66.838ZM11.5338 58.1893C11.5338 58.7864 11.0497 59.2704 10.4527 59.2704C9.85561 59.2704 9.37159 58.7864 9.37159 58.1893V54.946C9.37159 54.349 9.85561 53.865 10.4527 53.865C11.0497 53.865 11.5338 54.349 11.5338 54.946V58.1893ZM11.5338 49.5406C11.5338 50.1377 11.0497 50.6217 10.4527 50.6217C9.85561 50.6217 9.37159 50.1377 9.37159 49.5406V46.2974C9.37159 45.7003 9.85561 45.2163 10.4527 45.2163C11.0497 45.2163 11.5338 45.7003 11.5338 46.2974V49.5406ZM11.5338 40.892C11.5338 41.489 11.0497 41.973 10.4527 41.973C9.85561 41.973 9.37159 41.489 9.37159 40.892V37.6487C9.37159 37.0516 9.85561 36.5676 10.4527 36.5676C11.0497 36.5676 11.5338 37.0516 11.5338 37.6487V40.892ZM11.5338 32.2433C11.5338 32.8404 11.0497 33.3244 10.4527 33.3244C9.85561 33.3244 9.37159 32.8404 9.37159 32.2433V29C9.37159 28.403 9.85561 27.919 10.4527 27.919C11.0497 27.919 11.5338 28.403 11.5338 29V32.2433ZM11.5338 23.5946C11.5338 24.1917 11.0497 24.6757 10.4527 24.6757C9.85561 24.6757 9.37159 24.1917 9.37159 23.5946V21.1742C9.37159 20.8525 9.39172 20.5331 9.43163 20.2173C9.50649 19.6249 10.0474 19.2054 10.6397 19.2802C11.2321 19.3551 11.6516 19.896 11.5767 20.4883C11.5482 20.7143 11.5338 20.9432 11.5338 21.1742V23.5946ZM13.8818 16.7158C13.3897 17.054 12.7167 16.9292 12.3785 16.4372C12.0403 15.9452 12.165 15.2721 12.657 14.9339C13.7088 14.211 14.9281 13.7632 16.2154 13.6408C16.8098 13.5843 17.3374 14.0204 17.3939 14.6148C17.4504 15.2091 17.0144 15.7368 16.42 15.7933C15.5014 15.8806 14.6327 16.1996 13.8818 16.7158ZM21.6912 15.7688C21.0941 15.7688 20.6101 15.2847 20.6101 14.6877C20.6101 14.0906 21.0941 13.6066 21.6912 13.6066H24.9344C25.5315 13.6066 26.0155 14.0906 26.0155 14.6877C26.0155 15.2847 25.5315 15.7688 24.9344 15.7688H21.6912ZM30.3398 15.7688C29.7428 15.7688 29.2588 15.2847 29.2588 14.6877C29.2588 14.0906 29.7428 13.6066 30.3398 13.6066H33.5831C34.1802 13.6066 34.6642 14.0906 34.6642 14.6877C34.6642 15.2847 34.1802 15.7688 33.5831 15.7688H30.3398ZM38.9885 15.7688C38.3914 15.7688 37.9074 15.2847 37.9074 14.6877C37.9074 14.0906 38.3914 13.6066 38.9885 13.6066H42.2318C42.8288 13.6066 43.3128 14.0906 43.3128 14.6877C43.3128 15.2847 42.8288 15.7688 42.2318 15.7688H38.9885ZM47.6372 15.7688C47.0401 15.7688 46.5561 15.2847 46.5561 14.6877C46.5561 14.0906 47.0401 13.6066 47.6372 13.6066H50.8804C51.4775 13.6066 51.9615 14.0906 51.9615 14.6877C51.9615 15.2847 51.4775 15.7688 50.8804 15.7688H47.6372ZM56.2858 15.7688C55.6888 15.7688 55.2048 15.2847 55.2048 14.6877C55.2048 14.0906 55.6888 13.6066 56.2858 13.6066H59.5291C60.1262 13.6066 60.6102 14.0906 60.6102 14.6877C60.6102 15.2847 60.1262 15.7688 59.5291 15.7688H56.2858ZM64.9345 15.7688C64.3374 15.7688 63.8534 15.2847 63.8534 14.6877C63.8534 14.0906 64.3374 13.6066 64.9345 13.6066H68.1778C68.7748 13.6066 69.2588 14.0906 69.2588 14.6877C69.2588 15.2847 68.7748 15.7688 68.1778 15.7688H64.9345ZM73.5832 15.7688C72.9861 15.7688 72.5021 15.2847 72.5021 14.6877C72.5021 14.0906 72.9861 13.6066 73.5832 13.6066H76.8264C77.4235 13.6066 77.9075 14.0906 77.9075 14.6877C77.9075 15.2847 77.4235 15.7688 76.8264 15.7688H73.5832ZM82.2318 15.7688C81.6348 15.7688 81.1508 15.2847 81.1508 14.6877C81.1508 14.0906 81.6348 13.6066 82.2318 13.6066H85.4751C86.0722 13.6066 86.5562 14.0906 86.5562 14.6877C86.5562 15.2847 86.0722 15.7688 85.4751 15.7688H82.2318ZM90.8805 15.7688C90.2834 15.7688 89.7994 15.2847 89.7994 14.6877C89.7994 14.0906 90.2834 13.6066 90.8805 13.6066H93.1083C93.7053 13.6066 94.1894 14.0906 94.1894 14.6877C94.1894 15.2847 93.7053 15.7688 93.1083 15.7688H90.8805ZM190.676 100.892C189.333 100.892 188.244 99.803 188.244 98.4596C188.244 97.1162 189.333 96.0272 190.676 96.0272C192.019 96.0272 193.108 97.1162 193.108 98.4596C193.108 99.803 192.019 100.892 190.676 100.892ZM190.676 102.514C192.915 102.514 194.73 100.699 194.73 98.4596C194.73 96.2206 192.915 94.4056 190.676 94.4056C188.437 94.4056 186.622 96.2206 186.622 98.4596C186.622 100.699 188.437 102.514 190.676 102.514ZM190.676 104.135C187.541 104.135 185 101.594 185 98.4596C185 95.3251 187.541 92.784 190.676 92.784C193.811 92.784 196.352 95.3251 196.352 98.4596C196.352 101.594 193.811 104.135 190.676 104.135ZM99.8651 17.1081C98.5217 17.1081 97.4326 16.0191 97.4326 14.6757C97.4326 13.3323 98.5217 12.2432 99.8651 12.2432C101.208 12.2432 102.297 13.3323 102.297 14.6757C102.297 16.0191 101.208 17.1081 99.8651 17.1081ZM99.8651 18.7297C102.104 18.7297 103.919 16.9147 103.919 14.6757C103.919 12.4367 102.104 10.6216 99.8651 10.6216C97.6261 10.6216 95.811 12.4367 95.811 14.6757C95.811 16.9147 97.6261 18.7297 99.8651 18.7297ZM99.8651 20.3514C96.7305 20.3514 94.1894 17.8103 94.1894 14.6757C94.1894 11.5411 96.7305 9 99.8651 9C103 9 105.541 11.5411 105.541 14.6757C105.541 17.8103 103 20.3514 99.8651 20.3514ZM10.6757 77.6488C9.33229 77.6488 8.24325 76.5598 8.24325 75.2164C8.24325 73.873 9.33229 72.7839 10.6757 72.7839C12.0191 72.7839 13.1081 73.873 13.1081 75.2164C13.1081 76.5598 12.0191 77.6488 10.6757 77.6488ZM10.6757 79.2704C12.9147 79.2704 14.7297 77.4554 14.7297 75.2164C14.7297 72.9774 12.9147 71.1623 10.6757 71.1623C8.43669 71.1623 6.62162 72.9774 6.62162 75.2164C6.62162 77.4554 8.43669 79.2704 10.6757 79.2704ZM10.6757 80.892C7.54109 80.892 5 78.351 5 75.2164C5 72.0818 7.54109 69.5407 10.6757 69.5407C13.8103 69.5407 16.3514 72.0818 16.3514 75.2164C16.3514 78.351 13.8103 80.892 10.6757 80.892Z" fill="#D4DFFF"/>
<path fill-rule="evenodd" clip-rule="evenodd" d="M45.5392 54.946H173.107C176.689 54.946 179.594 57.8501 179.594 61.4325V141.433C179.594 145.015 176.689 147.919 173.107 147.919H45.5392C41.9568 147.919 39.0527 145.015 39.0527 141.433V61.4325C39.0527 57.8501 41.9568 54.946 45.5392 54.946Z" fill="#428DFF"/>
<path opacity="0.965588" fill-rule="evenodd" clip-rule="evenodd" d="M50.9463 76.5677H81.2167C81.8137 76.5677 82.2977 77.0518 82.2977 77.6488V85.2164C82.2977 85.8135 81.8137 86.2975 81.2167 86.2975H50.9463C50.3493 86.2975 49.8652 85.8135 49.8652 85.2164V77.6488C49.8652 77.0518 50.3493 76.5677 50.9463 76.5677ZM50.9463 91.7029H81.2167C81.8137 91.7029 82.2977 92.1869 82.2977 92.784V100.352C82.2977 100.949 81.8137 101.433 81.2167 101.433H50.9463C50.3493 101.433 49.8652 100.949 49.8652 100.352V92.784C49.8652 92.1869 50.3493 91.7029 50.9463 91.7029ZM50.9463 106.838H81.2167C81.8137 106.838 82.2977 107.322 82.2977 107.919V115.487C82.2977 116.084 81.8137 116.568 81.2167 116.568H50.9463C50.3493 116.568 49.8652 116.084 49.8652 115.487V107.919C49.8652 107.322 50.3493 106.838 50.9463 106.838ZM88.7842 76.5677H167.703C168.3 76.5677 168.784 77.0518 168.784 77.6488V85.2164C168.784 85.8135 168.3 86.2975 167.703 86.2975H88.7842C88.1872 86.2975 87.7031 85.8135 87.7031 85.2164V77.6488C87.7031 77.0518 88.1872 76.5677 88.7842 76.5677ZM88.7842 92.784H167.703C168.3 92.784 168.784 93.268 168.784 93.8651V146.298H87.7031V93.8651C87.7031 93.268 88.1872 92.784 88.7842 92.784Z" fill="#A1C0F7"/>
<path opacity="0.965588" fill-rule="evenodd" clip-rule="evenodd" d="M53.1085 66.8379C51.3173 66.8379 49.8652 65.3859 49.8652 63.5947C49.8652 61.8035 51.3173 60.3514 53.1085 60.3514C54.8997 60.3514 56.3517 61.8035 56.3517 63.5947C56.3517 65.3859 54.8997 66.8379 53.1085 66.8379ZM62.2977 66.8379C60.5065 66.8379 59.0544 65.3859 59.0544 63.5947C59.0544 61.8035 60.5065 60.3514 62.2977 60.3514C64.0889 60.3514 65.5409 61.8035 65.5409 63.5947C65.5409 65.3859 64.0889 66.8379 62.2977 66.8379ZM71.4869 66.8379C69.6957 66.8379 68.2436 65.3859 68.2436 63.5947C68.2436 61.8035 69.6957 60.3514 71.4869 60.3514C73.2781 60.3514 74.7301 61.8035 74.7301 63.5947C74.7301 65.3859 73.2781 66.8379 71.4869 66.8379Z" fill="#A1C0F7"/>
<path fill-rule="evenodd" clip-rule="evenodd" d="M185.54 75.4866H193.108C193.705 75.4866 194.189 75.9706 194.189 76.5677V77.2734C194.189 77.8704 193.705 78.3544 193.108 78.3544H185.54C184.943 78.3544 184.459 77.8704 184.459 77.2734V76.5677C184.459 75.9706 184.943 75.4866 185.54 75.4866ZM185.54 80.892H203.918C204.516 80.892 205 81.376 205 81.9731V82.6788C205 83.2758 204.516 83.7599 203.918 83.7599H185.54C184.943 83.7599 184.459 83.2758 184.459 82.6788V81.9731C184.459 81.376 184.943 80.892 185.54 80.892Z" fill="#FB65BC"/>
<path d="M86.684 139.241C86.684 146.919 80.4599 153.143 72.7821 153.143H20.65C12.9721 153.143 6.74805 146.919 6.74805 139.241C6.74805 131.563 12.9721 125.339 20.65 125.339H20.6673C16.9843 120.449 16.1493 113.98 18.4702 108.315C20.7911 102.65 25.9247 98.6267 31.9802 97.7264C32.8318 97.6009 33.6912 97.537 34.552 97.5352C40.8239 97.5358 46.6061 100.925 49.6702 106.398C49.9317 106.842 50.1696 107.301 50.3828 107.77C51.7052 107.136 53.1085 106.686 54.5534 106.432C59.0892 105.685 63.7247 106.966 67.2333 109.936C70.742 112.906 72.7705 117.266 72.7821 121.863C72.7829 123.033 72.6487 124.199 72.3823 125.339H72.7821C80.4599 125.339 86.684 131.563 86.684 139.241Z" fill="#A4C2F7"/>
<path d="M81.4708 139.241C81.4708 146.918 75.2467 153.142 67.5689 153.142H20.65C12.9721 153.142 6.74805 146.918 6.74805 139.241C6.74805 131.563 12.9721 125.339 20.65 125.339H20.6673C16.9843 120.449 16.1493 113.98 18.4702 108.315C20.7911 102.65 25.9247 98.6264 31.9802 97.7261C37.7923 98.628 42.7546 102.407 45.1696 107.77C46.5926 107.09 48.1097 106.627 49.6702 106.398C49.9317 106.842 50.1696 107.3 50.3828 107.77C51.7052 107.136 53.1085 106.685 54.5533 106.432C62.0657 107.729 67.5577 114.24 67.5691 121.863C67.5699 123.033 67.4357 124.199 67.1693 125.339H67.5691C75.2467 125.339 81.4708 131.563 81.4708 139.241Z" fill="#E3E7F2"/>
<path d="M69.3062 161.831V187.897C69.3062 193.656 64.6381 198.324 58.8798 198.324H34.5514C28.8018 198.303 24.146 193.647 24.125 187.897V161.831C24.125 160.871 24.9031 160.094 25.8627 160.094H67.5683C68.5281 160.093 69.3062 160.871 69.3062 161.831Z" fill="#A4C2F7"/>
<path d="M64.093 161.831V187.897C64.093 193.656 59.4249 198.324 53.6666 198.324H34.5514C28.8018 198.303 24.146 193.647 24.125 187.897V161.831C24.125 160.871 24.9031 160.094 25.8627 160.094H62.3551C63.3149 160.093 64.093 160.871 64.093 161.831Z" fill="#E3E7F2"/>
<path d="M46.7177 179.209C48.6372 179.209 50.1933 177.652 50.1933 175.733C50.1933 173.813 48.6372 172.257 46.7177 172.257C44.7982 172.257 43.2422 173.813 43.2422 175.733C43.2422 177.652 44.7982 179.209 46.7177 179.209Z" fill="#A4C2F7"/>
<path d="M6.74805 139.241C6.74805 146.919 12.9721 153.143 20.65 153.143H25.8632C18.1853 153.143 11.9613 146.919 11.9613 139.241C11.9613 131.563 18.1853 125.339 25.8632 125.339H25.8805C22.2044 120.458 21.3658 114.003 23.6726 108.345C25.9793 102.687 31.0915 98.6582 37.1325 97.7384C36.2786 97.6062 35.416 97.5382 34.552 97.5352C33.6912 97.537 32.8316 97.6009 31.9802 97.7264C25.9247 98.6267 20.7913 102.65 18.4704 108.315C16.1495 113.98 16.9845 120.449 20.6675 125.339H20.6502C12.9721 125.339 6.74805 131.563 6.74805 139.241Z" fill="white"/>
<path d="M31.0759 160.094H25.8627C24.9029 160.094 24.125 160.871 24.125 161.831V187.897C24.146 193.647 28.8018 198.303 34.5514 198.324H39.7646C34.015 198.303 29.3592 193.647 29.3382 187.897V161.831C29.338 160.872 30.1161 160.094 31.0759 160.094Z" fill="white"/>
<path d="M58.8831 200.061H36.2926H34.5547V196.586H36.2926H58.8831V200.061Z" fill="white"/>
<path d="M43.7462 197.09C43.5892 197.256 43.4652 197.451 43.3813 197.663C43.2923 197.872 43.2451 198.097 43.2422 198.324C43.2381 199.03 43.6615 199.668 44.3136 199.939C44.9656 200.209 45.7167 200.059 46.2137 199.558L46.4223 199.297C46.488 199.2 46.5406 199.095 46.5787 198.984C46.629 198.886 46.664 198.78 46.6829 198.671C46.7023 198.556 46.7139 198.44 46.7178 198.324C46.711 197.864 46.531 197.423 46.2137 197.09C46.0476 196.933 45.8529 196.809 45.6403 196.725C44.9921 196.463 44.2504 196.606 43.7462 197.09Z" fill="#428DFF"/>
<path d="M72.785 154.88C81.1074 154.886 87.9766 148.373 88.4138 140.062C88.8508 131.751 82.7027 124.553 74.4255 123.686C75.0637 117.725 72.5791 111.856 67.8545 108.165C63.1298 104.473 56.8342 103.483 51.2042 105.544C46.9381 97.9814 38.1109 94.2438 29.7111 96.4439C21.3113 98.6441 15.4499 106.229 15.4395 114.912C15.4346 118.042 16.2068 121.124 17.6865 123.882C9.7665 125.406 4.30363 132.702 5.07196 140.731C5.8403 148.759 12.5877 154.887 20.6527 154.88H27.6036V158.356H25.8659C23.9464 158.356 22.3904 159.912 22.3904 161.831V187.897C22.3981 194.612 27.8396 200.054 34.5545 200.061H38.03C38.9898 200.061 39.7677 199.284 39.7677 198.324C39.7677 197.364 38.9898 196.586 38.03 196.586H34.5545C30.4271 196.581 26.8709 193.678 26.0396 189.635H31.0791C32.0389 189.635 32.8168 188.857 32.8168 187.898C32.8168 186.938 32.0387 186.16 31.0791 186.16H25.8659V182.684H31.0791C32.0389 182.684 32.8168 181.907 32.8168 180.947C32.8168 179.987 32.0387 179.209 31.0791 179.209H25.8659V175.733H31.0791C32.0389 175.733 32.8168 174.955 32.8168 173.995C32.8168 173.036 32.0387 172.258 31.0791 172.258H25.8659V168.782H31.0791C32.0389 168.782 32.8168 168.004 32.8168 167.045C32.8168 166.085 32.0387 165.307 31.0791 165.307H25.8659V161.831H67.5716V165.307H62.3584C61.3986 165.307 60.6207 166.085 60.6207 167.045C60.6207 168.004 61.3986 168.782 62.3584 168.782H67.5716V172.258H62.3584C61.3986 172.258 60.6207 173.036 60.6207 173.995C60.6207 174.955 61.3986 175.733 62.3584 175.733H67.5716V179.209H62.3584C61.3986 179.209 60.6207 179.987 60.6207 180.946C60.6207 181.906 61.3986 182.684 62.3584 182.684H67.5716V186.16H62.3584C61.3986 186.16 60.6207 186.937 60.6207 187.897C60.6207 188.857 61.3986 189.635 62.3584 189.635H67.3979C66.5664 193.678 63.0102 196.581 58.8831 196.586H51.9322C50.9724 196.586 50.1945 197.364 50.1945 198.323C50.1945 199.283 50.9726 200.061 51.9322 200.061H58.8831C65.5979 200.053 71.0396 194.612 71.0471 187.897V161.831C71.0471 159.911 69.4911 158.355 67.5716 158.355H65.8339V154.88H72.785ZM8.48865 139.241C8.49822 132.52 13.9493 127.077 20.6702 127.077C21.3284 127.077 21.9302 126.705 22.2244 126.116C22.5187 125.527 22.4554 124.823 22.0603 124.296C18.4601 119.502 17.9199 113.07 20.67 107.743C23.4202 102.415 28.9757 99.1299 34.9693 99.2878C40.9629 99.4454 46.338 103.018 48.8041 108.483C48.9963 108.908 49.3514 109.238 49.7893 109.398C50.2271 109.559 50.7112 109.536 51.1325 109.336C55.4385 107.261 60.5087 107.547 64.5546 110.092C68.6006 112.637 71.053 117.084 71.0469 121.864C71.0502 122.9 70.9335 123.933 70.6993 124.943C70.5786 125.458 70.6995 126.001 71.0276 126.416C71.3559 126.832 71.8554 127.075 72.3848 127.077H72.7846C79.5027 127.077 84.9487 132.523 84.9487 139.241C84.9487 145.959 79.5025 151.405 72.7846 151.405H65.8337V144.454C65.8337 133.897 57.2755 125.339 46.7186 125.339C36.1616 125.339 27.6034 133.897 27.6034 144.454V151.405H20.6525C13.9379 151.397 8.49639 145.956 8.48865 139.241ZM48.4566 158.356H31.0794V154.88H50.1945C51.1543 154.88 51.9322 154.102 51.9322 153.143C51.9322 152.183 51.1541 151.405 50.1945 151.405H31.0794V144.454C31.0794 135.816 38.0815 128.814 46.719 128.814C55.3564 128.814 62.3586 135.816 62.3586 144.454V151.405H57.1454C56.1856 151.405 55.4077 152.183 55.4077 153.142C55.4077 154.102 56.1858 154.88 57.1454 154.88H62.3586V158.356H48.4566V158.356Z" fill="#428DFF"/>
<path d="M48.4571 184.422V180.627C50.8509 179.78 52.2868 177.333 51.8575 174.83C51.4283 172.328 49.2585 170.498 46.7195 170.498C44.1805 170.498 42.0107 172.328 41.5814 174.83C41.1521 177.333 42.588 179.78 44.9818 180.627V184.422C44.9818 185.382 45.7599 186.16 46.7195 186.16C47.679 186.16 48.4571 185.382 48.4571 184.422ZM46.7195 173.996C47.6792 173.996 48.4571 174.773 48.4571 175.733C48.4571 176.693 47.6792 177.471 46.7195 177.471C45.7597 177.471 44.9818 176.693 44.9818 175.733C44.9818 174.773 45.7597 173.996 46.7195 173.996Z" fill="#428DFF"/>
</svg>
