<svg width="66" height="66" viewBox="0 0 66 66" fill="none" xmlns="http://www.w3.org/2000/svg">
<path d="M64.8628 7.96555V39.8276H1.13867V7.96555C1.14028 6.55497 1.57875 5.17951 2.39381 4.02825C3.20886 2.87698 4.36049 2.00644 5.6904 1.53625C6.4197 1.2707 7.19012 1.13587 7.96626 1.13796H58.0352C59.846 1.13796 61.5826 1.85729 62.863 3.13771C64.1435 4.41813 64.8628 6.15476 64.8628 7.96555Z" fill="#CCD3EB"/>
<path d="M61.449 7.96555V39.8276H1.13867V7.96555C1.14028 6.55497 1.57875 5.17951 2.39381 4.02825C3.20886 2.87698 4.36049 2.00644 5.6904 1.53625C6.4197 1.2707 7.19012 1.13587 7.96626 1.13796H54.6214C56.4322 1.13796 58.1688 1.85729 59.4493 3.13771C60.7297 4.41813 61.449 6.15476 61.449 7.96555Z" fill="#F5F5F5"/>
<path d="M64.8628 39.8276V44.3794C64.8628 46.1902 64.1435 47.9268 62.863 49.2072C61.5826 50.4876 59.846 51.207 58.0352 51.207H7.96626C6.15547 51.207 4.41884 50.4876 3.13842 49.2072C1.858 47.9268 1.13867 46.1902 1.13867 44.3794V39.8276H64.8628Z" fill="#F5F5F5"/>
<path d="M40.0214 51.207H25.9793L21.291 64.8622H44.7096L40.0214 51.207Z" fill="#F5F5F5"/>
<path d="M42.8429 31.862H16.2267C14.6016 31.8309 13.0204 31.3288 11.675 30.4168L11.4702 30.2575C11.0919 29.9935 10.7377 29.6965 10.4119 29.3699C9.23155 28.1924 8.42247 26.6946 8.08482 25.0619C7.74717 23.4292 7.89579 21.7334 8.51227 20.1843C9.12875 18.6353 10.186 17.301 11.5532 16.3468C12.9203 15.3925 14.5373 14.8602 16.204 14.8158C16.4296 14.0569 16.7671 13.3358 17.2053 12.6764C17.6257 12.5961 18.052 12.5504 18.4798 12.5399C18.702 11.7852 19.0357 11.068 19.4698 10.412C20.5084 9.73067 21.6918 9.30167 22.9257 9.15924C24.1596 9.01681 25.4096 9.16488 26.5761 9.59166C27.7425 10.0184 28.793 10.7121 29.6436 11.6172C30.4942 12.5223 31.1214 13.6137 31.475 14.8044C31.6379 15.3409 31.7372 15.8947 31.7709 16.4544C32.1221 15.8452 32.559 15.2895 33.0681 14.8044C33.3638 14.508 33.6878 14.2412 34.0353 14.0078C34.1063 13.9447 34.1824 13.8876 34.2629 13.8372C35.5585 12.9794 37.0788 12.5241 38.6326 12.5285C39.2895 12.5248 39.9439 12.609 40.5784 12.7789L42.5243 29.5975L42.8429 31.862Z" fill="#E3E7F2"/>
<path d="M59.1727 21.6208C59.1727 24.0829 58.3742 26.4786 56.8969 28.4483C55.8369 29.8616 54.4625 31.0087 52.8824 31.7987C51.3023 32.5888 49.56 33.0001 47.7934 33.0001C46.0268 33.0001 44.2845 32.5888 42.7044 31.7987C41.1244 31.0087 39.7499 29.8616 38.69 28.4483C36.8792 26.034 36.1017 22.9991 36.5285 20.0115C36.9553 17.0238 38.5515 14.3281 40.9658 12.5173C42.9356 11.04 45.3313 10.2415 47.7934 10.2415C50.2556 10.2415 52.6513 11.04 54.621 12.5173C56.0343 13.5773 57.1813 14.9517 57.9714 16.5318C58.7614 18.1119 59.1727 19.8542 59.1727 21.6208Z" fill="#E3E7F2"/>
<path d="M50.2057 25.171C50.0559 25.1718 49.9075 25.1431 49.7688 25.0865C49.6302 25.0299 49.5041 24.9464 49.3977 24.8409L44.5729 20.0503C44.4663 19.9445 44.3816 19.8186 44.3238 19.68C44.2661 19.5413 44.2363 19.3926 44.2363 19.2423C44.2363 19.0921 44.2661 18.9434 44.3238 18.8047C44.3816 18.6661 44.4663 18.5402 44.5729 18.4344C44.7861 18.2225 45.0745 18.1035 45.3752 18.1035C45.6758 18.1035 45.9642 18.2225 46.1774 18.4344L51.0136 23.2706C51.2256 23.4838 51.3445 23.7722 51.3445 24.0729C51.3445 24.3735 51.2256 24.6619 51.0136 24.8751C50.7934 25.0756 50.5033 25.1819 50.2057 25.171Z" fill="#428DFF"/>
<path d="M45.381 25.171C45.2313 25.1719 45.0828 25.1432 44.9442 25.0866C44.8055 25.0299 44.6794 24.9465 44.5731 24.841C44.3612 24.6278 44.2422 24.3394 44.2422 24.0388C44.2422 23.7382 44.3612 23.4497 44.5731 23.2365L49.3979 18.4003C49.504 18.2942 49.63 18.2101 49.7686 18.1526C49.9072 18.0952 50.0558 18.0657 50.2058 18.0657C50.3559 18.0657 50.5045 18.0952 50.6431 18.1526C50.7817 18.2101 50.9077 18.2942 51.0138 18.4003C51.1199 18.5064 51.204 18.6324 51.2615 18.771C51.3189 18.9096 51.3484 19.0582 51.3484 19.2083C51.3484 19.3583 51.3189 19.5069 51.2615 19.6455C51.204 19.7841 51.1199 19.9101 51.0138 20.0162L46.2003 24.841C46.0927 24.9479 45.9647 25.0321 45.824 25.0888C45.6833 25.1454 45.5327 25.1734 45.381 25.171Z" fill="#428DFF"/>
<path d="M34.1384 44.3794H31.8625C31.5607 44.3794 31.2713 44.4993 31.0579 44.7127C30.8445 44.9261 30.7246 45.2155 30.7246 45.5173C30.7246 45.8191 30.8445 46.1085 31.0579 46.3219C31.2713 46.5353 31.5607 46.6552 31.8625 46.6552H34.1384C34.4402 46.6552 34.7296 46.5353 34.943 46.3219C35.1564 46.1085 35.2763 45.8191 35.2763 45.5173C35.2763 45.2155 35.1564 44.9261 34.943 44.7127C34.7296 44.4993 34.4402 44.3794 34.1384 44.3794Z" fill="#428DFF"/>
<path d="M58.0345 0H7.96552C5.85293 0 3.82686 0.839233 2.33304 2.33306C0.839216 3.82688 0 5.85293 0 7.96552V44.3793C0 46.4919 0.839216 48.518 2.33304 50.0118C3.82686 51.5056 5.85293 52.3448 7.96552 52.3448H24.3859L20.4828 63.7241H19.3448C19.043 63.7241 18.7536 63.844 18.5402 64.0574C18.3268 64.2709 18.2069 64.5603 18.2069 64.8621C18.2069 65.1639 18.3268 65.4533 18.5402 65.6667C18.7536 65.8801 19.043 66 19.3448 66H46.6552C46.957 66 47.2464 65.8801 47.4598 65.6667C47.6732 65.4533 47.7931 65.1639 47.7931 64.8621C47.7931 64.5603 47.6732 64.2709 47.4598 64.0574C47.2464 63.844 46.957 63.7241 46.6552 63.7241H45.5172L41.6141 52.3448H58.0345C60.1471 52.3448 62.1731 51.5056 63.667 50.0118C65.1608 48.518 66 46.4919 66 44.3793V7.96552C66 5.85293 65.1608 3.82688 63.667 2.33306C62.1731 0.839233 60.1471 0 58.0345 0ZM7.96552 2.27586H58.0345C59.5435 2.27586 60.9907 2.87528 62.0577 3.9423C63.1247 5.00932 63.7241 6.45653 63.7241 7.96552V38.6897H2.27586V7.96552C2.27586 6.45653 2.8753 5.00932 3.94232 3.9423C5.00934 2.87528 6.45653 2.27586 7.96552 2.27586ZM43.1048 63.7241H22.8838L26.7869 52.3448H39.2131L43.1048 63.7241ZM58.0345 50.069H7.96552C6.45653 50.069 5.00934 49.4695 3.94232 48.4025C2.8753 47.3355 2.27586 45.8883 2.27586 44.3793V40.9655H63.7241V44.3793C63.7241 45.8883 63.1247 47.3355 62.0577 48.4025C60.9907 49.4695 59.5435 50.069 58.0345 50.069Z" fill="#428DFF"/>
<path d="M10.8103 31.1335C10.8995 31.2127 10.9946 31.285 11.0948 31.3497C12.5716 32.3572 14.3037 32.9253 16.0903 32.9884H42.6041C44.2308 33.7393 46.0014 34.1276 47.7931 34.1263C51.1129 34.1263 54.2967 32.8075 56.6441 30.4601C58.9915 28.1126 60.3103 24.9288 60.3103 21.6091C60.3126 20.7012 60.2095 19.7962 60.0031 18.9122C59.9694 18.7665 59.9075 18.6288 59.8206 18.5071C59.7338 18.3853 59.6239 18.2819 59.4971 18.2026C59.241 18.0426 58.9318 17.9908 58.6376 18.0587C58.3433 18.1266 58.0881 18.3086 57.928 18.5647C57.768 18.8208 57.7162 19.13 57.7841 19.4243C57.9548 20.1399 58.0388 20.8734 58.0345 21.6091C58.0345 23.8283 57.3137 25.9876 55.9804 27.7618C54.6472 29.536 52.7737 30.8291 50.642 31.4465C48.5103 32.0638 46.2358 31.972 44.1608 31.1849C42.0858 30.3978 40.3226 28.958 39.1366 27.0821C37.9507 25.2063 37.4061 22.996 37.585 20.7839C37.7639 18.5718 38.6564 16.4778 40.1283 14.8168C41.6003 13.1559 43.5719 12.018 45.7464 11.5745C47.9209 11.131 50.1807 11.4059 52.1855 12.3577C52.3213 12.435 52.4716 12.4834 52.627 12.5001C52.7824 12.5167 52.9396 12.5011 53.0887 12.4544C53.2378 12.4076 53.3757 12.3306 53.4938 12.2282C53.6118 12.1258 53.7075 12.0002 53.7749 11.8591C53.8422 11.7181 53.8799 11.5647 53.8853 11.4086C53.8908 11.2524 53.8641 11.0967 53.8068 10.9513C53.7495 10.806 53.6629 10.6739 53.5523 10.5635C53.4417 10.453 53.3096 10.3666 53.1641 10.3094C51.1212 9.33218 48.8503 8.93121 46.5963 9.14979C44.3423 9.36837 42.1908 10.1982 40.3738 11.5498C39.8193 11.4369 39.2554 11.3759 38.6896 11.3677C36.3446 11.3596 34.0897 12.2706 32.4082 13.9053C31.7753 12.1573 30.6179 10.6475 29.0944 9.58228C27.5709 8.51702 25.7555 7.94832 23.8965 7.9539C22.0771 7.96395 20.3024 8.51895 18.8015 9.54731C17.3005 10.5757 16.1422 12.0302 15.4758 13.7232C13.1158 13.9958 10.9374 15.1235 9.35226 16.8931C7.76715 18.6627 6.8852 20.9517 6.87307 23.3273C6.87032 24.5962 7.11934 25.8531 7.60571 27.025C8.09208 28.197 8.80614 29.2608 9.70652 30.1549C10.0454 30.5125 10.4147 30.8399 10.8103 31.1335ZM16.2838 15.9422C16.5261 15.9373 16.7605 15.8552 16.9529 15.7079C17.1453 15.5605 17.2856 15.3556 17.3534 15.1229C17.7726 13.7129 18.636 12.476 19.815 11.5964C20.994 10.7168 22.4255 10.2414 23.8965 10.2411C25.3675 10.2414 26.799 10.7168 27.978 11.5964C29.157 12.476 30.0204 13.7129 30.4396 15.1229C30.5734 15.5751 30.6573 16.0407 30.69 16.5112C30.7031 16.7569 30.7957 16.9918 30.9536 17.1806C31.1116 17.3693 31.3265 17.5018 31.5662 17.558H31.8279C32.0284 17.5588 32.2256 17.5066 32.3994 17.4067C32.5733 17.3068 32.7176 17.1627 32.8179 16.9891C33.1232 16.4703 33.5071 16.002 33.9558 15.6008C35.0834 14.4825 36.5715 13.801 38.1548 13.6777C36.1433 16.1361 35.1416 19.2674 35.3529 22.4369C35.5642 25.6064 36.9726 28.577 39.2927 30.7466H16.261C14.8666 30.7136 13.5114 30.279 12.3579 29.4949L12.1758 29.347C11.8535 29.1252 11.5525 28.8737 11.2769 28.596C10.2518 27.5769 9.54839 26.2793 9.25374 24.8643C8.95908 23.4492 9.08615 21.9788 9.61921 20.6352C10.1523 19.2917 11.0679 18.1341 12.2525 17.3059C13.4372 16.4778 14.8389 16.0155 16.2838 15.9763V15.9422Z" fill="#428DFF"/>
<path d="M56.1225 15.6806C56.2283 15.8292 56.3684 15.9502 56.5308 16.0334C56.6932 16.1166 56.8732 16.1595 57.0556 16.1585C57.2877 16.1579 57.514 16.0865 57.7042 15.9537C57.9514 15.7814 58.1201 15.5181 58.1734 15.2216C58.2268 14.9251 58.1603 14.6196 57.9887 14.372C57.7253 13.9715 57.4324 13.5911 57.1125 13.234C56.9073 13.0122 56.6224 12.881 56.3204 12.8693C56.0184 12.8575 55.7242 12.9662 55.5024 13.1714C55.2805 13.3766 55.1493 13.6616 55.1376 13.9636C55.1258 14.2655 55.2345 14.5598 55.4398 14.7816C55.689 15.0642 55.9172 15.3647 56.1225 15.6806Z" fill="#428DFF"/>
</svg>
