<svg width="66" height="71" viewBox="0 0 66 71" fill="none" xmlns="http://www.w3.org/2000/svg">
<path d="M60.1064 8.2499V55.3928H25.9278C24.6276 55.3966 23.5744 56.4498 23.5706 57.75V62.4642C23.5706 66.3697 20.4046 69.5357 16.4991 69.5357H15.3206C14.9253 69.5365 14.5309 69.501 14.1421 69.4296C10.7398 68.8595 8.24779 65.9139 8.24917 62.4642V15.3213H3.53493C2.23472 15.3175 1.1816 14.2644 1.17773 12.9642V8.2499C1.17773 4.34445 4.34372 1.17847 8.24917 1.17847H53.035C56.9404 1.17847 60.1064 4.34445 60.1064 8.2499Z" fill="#A4C2F7"/>
<path d="M56.5707 8.24991V55.3928H22.392C21.0918 55.3967 20.0387 56.4498 20.0349 57.75V62.4642C20.0362 65.9139 17.5442 68.8595 14.1419 69.4296C10.7396 68.8595 8.24765 65.9139 8.24903 62.4642V15.3213H3.53493C2.23472 15.3175 1.1816 14.2644 1.17773 12.9642V8.24991C1.17773 4.34445 4.34372 1.17847 8.24917 1.17847H49.4993C53.4047 1.17847 56.5707 4.34445 56.5707 8.24991Z" fill="#F5F5F5"/>
<path d="M64.8215 57.7498V62.464C64.8215 66.3695 61.6555 69.5355 57.7501 69.5355H16.5C20.4055 69.5355 23.5714 66.3695 23.5714 62.464V57.7498C23.5753 56.4496 24.6284 55.3964 25.9286 55.3926H62.4643C63.7645 55.3966 64.8177 56.4496 64.8215 57.7498Z" fill="#A4C2F7"/>
<path d="M61.2858 57.75V62.4643C61.2858 66.3697 58.1198 69.5357 54.2144 69.5357H16.5C20.4055 69.5357 23.5714 66.3697 23.5714 62.4643V57.75C23.5753 56.4498 24.6284 55.3967 25.9286 55.3928H58.9286C60.2288 55.3968 61.2819 56.4498 61.2858 57.75Z" fill="#F5F5F5"/>
<path d="M51.8566 33C51.8532 42.7624 43.9403 50.6753 34.178 50.6786C33.5991 50.6832 33.0204 50.6517 32.4455 50.5843C32.4218 50.5843 32.3984 50.5961 32.3747 50.5843C23.3654 49.6501 16.5195 42.0577 16.5195 33C16.5195 23.9424 23.3654 16.35 32.3747 15.4158C32.3984 15.404 32.4218 15.4158 32.4455 15.4158C33.0204 15.3485 33.5991 15.317 34.178 15.3215C43.9403 15.3248 51.8534 23.2379 51.8566 33Z" fill="#F5F5F5"/>
<path d="M48.3208 32.9999C48.3132 42.062 41.4596 49.6534 32.4455 50.5841C32.4218 50.5841 32.3984 50.5959 32.3747 50.5841C23.3654 49.6499 16.5195 42.0575 16.5195 32.9999C16.5195 23.9422 23.3654 16.3498 32.3747 15.4156C32.3984 15.4039 32.4218 15.4156 32.4455 15.4156C41.4597 16.3465 48.3132 23.9378 48.3208 32.9999Z" fill="#F5F5F5"/>
<path d="M14.1429 69.4297C14.5317 69.5011 14.9262 69.5366 15.3214 69.5357H18.8572C18.4619 69.5366 18.0674 69.5011 17.6786 69.4297C14.2763 68.8595 11.7843 65.914 11.7857 62.4643V15.3213H8.25V62.4642C8.24862 65.914 10.7406 68.8595 14.1429 69.4297Z" fill="white"/>
<path d="M1.17773 8.2499V12.9642C1.1816 14.2644 2.23472 15.3175 3.53493 15.3213H7.07065C5.77044 15.3175 4.71732 14.2644 4.71345 12.9642V8.2499C4.71345 4.34445 7.87944 1.17847 11.7849 1.17847H8.24917C4.34372 1.17847 1.17773 4.34445 1.17773 8.2499Z" fill="white"/>
<path d="M7.07227 55.3931V40.0716V15.3215H9.42932V40.0716V55.3931H7.07227Z" fill="white"/>
<path d="M7.80211 47.0485C7.86896 47.0826 7.94036 47.1064 8.01425 47.1192C8.09215 47.1324 8.17101 47.1402 8.25002 47.1429C8.56202 47.1383 8.86076 47.0162 9.08685 46.801C9.19333 46.6883 9.27745 46.5563 9.33435 46.4121C9.5121 45.9725 9.41528 45.4695 9.08685 45.1275C8.97415 45.021 8.84211 44.9369 8.69792 44.88C8.55621 44.8196 8.40401 44.7876 8.25002 44.7857C7.77117 44.7829 7.33832 45.07 7.15463 45.5123C6.97094 45.9545 7.07315 46.4639 7.41318 46.801L7.58997 46.9425C7.65571 46.9871 7.72698 47.0227 7.80211 47.0485Z" fill="#428DFF"/>
<path d="M0 8.24996V12.9642C0 14.9169 1.58306 16.4999 3.53572 16.4999H7.07144V41.25C7.07144 41.9009 7.59917 42.4285 8.24996 42.4285C8.90076 42.4285 9.42849 41.9009 9.42849 41.25V8.24996C9.42849 7.59903 8.90076 7.07144 8.24996 7.07144C7.59917 7.07144 7.07144 7.59917 7.07144 8.24996V14.1429H3.53572C2.88479 14.1429 2.35719 13.6151 2.35719 12.9643V8.24996C2.36106 4.9971 4.9971 2.36106 8.24996 2.35719H53.0358C56.2886 2.36106 58.9247 4.9971 58.9287 8.2501V54.2144H25.9286C23.9758 54.2144 22.3928 55.7975 22.3928 57.7502V62.4644C22.389 65.7173 19.7529 68.3533 16.4999 68.3573H15.3214C12.0685 68.3535 9.4325 65.7174 9.42849 62.4644V50.6787C9.42849 50.0278 8.90076 49.5002 8.24996 49.5002C7.59917 49.5002 7.07144 50.0278 7.07144 50.6787V62.4644C7.07724 67.0183 10.7675 70.7086 15.3214 70.7144H57.75C62.3039 70.7086 65.9942 67.0183 66 62.4644V57.7502C66 55.7975 64.4169 54.2144 62.4643 54.2144H61.2857V8.2501C61.2799 3.69607 57.5897 0.00580079 53.0358 0H8.24996C3.69607 0.00580079 0.00580079 3.69607 0 8.24996ZM62.4643 56.5715C63.1152 56.5715 63.6428 57.0991 63.6428 57.75V62.4643C63.6389 65.7171 61.0029 68.3532 57.7499 68.3572H22.262C23.8531 66.8095 24.7506 64.684 24.75 62.4643V57.75C24.75 57.0991 25.2778 56.5715 25.9286 56.5715H62.4643Z" fill="#428DFF"/>
<path d="M34.1794 51.8572C44.5939 51.8572 53.0365 43.4146 53.0365 33.0001C53.0365 22.5856 44.594 14.1428 34.1794 14.1428C23.7648 14.1428 15.3223 22.5855 15.3223 32.9999C15.3346 43.4095 23.77 51.8448 34.1794 51.8572ZM34.1794 16.5C43.2921 16.5 50.6795 23.8873 50.6795 33.0001C50.6795 42.1128 43.2921 49.5 34.1794 49.5C25.0666 49.5 17.6793 42.1127 17.6793 32.9999C17.6891 23.8913 25.0708 16.5097 34.1794 16.5Z" fill="#428DFF"/>
<path d="M35.3572 24.7501C35.3572 24.0991 34.8296 23.5715 34.1787 23.5715C33.5277 23.5715 33 24.0991 33 24.7501V33C33 33.3126 33.1243 33.6123 33.3453 33.8333L39.2382 39.7262C39.7006 40.1728 40.4358 40.1665 40.8903 39.7118C41.345 39.2571 41.3513 38.5221 40.9047 38.0597L35.3572 32.5122V24.7501Z" fill="#428DFF"/>
<path d="M33.0008 21.2142H35.358C36.0089 21.2142 36.5365 20.6865 36.5365 20.0357C36.5365 19.3848 36.0089 18.8572 35.358 18.8572H33.0008C32.3499 18.8572 31.8223 19.3849 31.8223 20.0357C31.8223 20.6865 32.3499 21.2142 33.0008 21.2142Z" fill="#428DFF"/>
<path d="M33.0008 47.1429H35.358C36.0089 47.1429 36.5365 46.6153 36.5365 45.9644C36.5365 45.3135 36.0089 44.7859 35.358 44.7859H33.0008C32.3499 44.7859 31.8223 45.3135 31.8223 45.9644C31.8223 46.6153 32.3499 47.1429 33.0008 47.1429Z" fill="#428DFF"/>
<path d="M24.1783 25.845C24.4909 25.845 24.7906 25.7207 25.0116 25.4997L26.6781 23.8332C26.9844 23.5372 27.1073 23.0991 26.9994 22.687C26.8916 22.2749 26.5698 21.9532 26.1578 21.8453C25.7456 21.7375 25.3075 21.8604 25.0116 22.1667L23.3451 23.8332C23.0081 24.1702 22.9074 24.6771 23.0897 25.1174C23.272 25.5578 23.7017 25.845 24.1783 25.845Z" fill="#428DFF"/>
<path d="M42.5123 44.1788C42.825 44.1796 43.1251 44.0553 43.3456 43.8335L45.012 42.167C45.4587 41.7046 45.4523 40.9694 44.9977 40.5149C44.543 40.0602 43.808 40.0539 43.3456 40.5005L41.6791 42.167C41.3421 42.5042 41.2414 43.0109 41.4237 43.4512C41.606 43.8915 42.0357 44.1787 42.5123 44.1788Z" fill="#428DFF"/>
<path d="M21.2137 31.8215C20.5628 31.8215 20.0352 32.3493 20.0352 33.0001V35.3573C20.0352 36.0082 20.5629 36.5358 21.2137 36.5358C21.8646 36.5358 22.3922 36.008 22.3922 35.3573V33.0001C22.3922 32.3493 21.8646 31.8215 21.2137 31.8215Z" fill="#428DFF"/>
<path d="M47.1434 35.3573C47.7943 35.3573 48.3219 34.8297 48.3219 34.1788V31.8216C48.3219 31.1707 47.7943 30.6431 47.1434 30.6431C46.4924 30.6431 45.9648 31.1707 45.9648 31.8216V34.1788C45.9648 34.8297 46.4924 35.3573 47.1434 35.3573Z" fill="#428DFF"/>
<path d="M25.011 43.8335C25.307 44.1398 25.7451 44.2628 26.1572 44.1549C26.5692 44.047 26.891 43.7252 26.9989 43.3132C27.1068 42.9012 26.9838 42.463 26.6775 42.167L25.011 40.5005C24.5486 40.0539 23.8134 40.0602 23.3589 40.5149C22.9042 40.9696 22.8979 41.7046 23.3445 42.167L25.011 43.8335Z" fill="#428DFF"/>
<path d="M43.345 25.4995C43.641 25.8059 44.0791 25.9288 44.4912 25.8209C44.9033 25.713 45.225 25.3912 45.3329 24.9792C45.4407 24.5673 45.3178 24.129 45.0115 23.833L43.345 22.1666C42.8826 21.7199 42.1474 21.7262 41.6929 22.1809C41.2382 22.6356 41.2319 23.3706 41.6785 23.833L43.345 25.4995Z" fill="#428DFF"/>
</svg>
