<svg width="210" height="210" viewBox="0 0 210 210" fill="none" xmlns="http://www.w3.org/2000/svg">
<path fill-rule="evenodd" clip-rule="evenodd" d="M48.3174 123.598C27.0399 99.1211 29.6336 62.0297 54.1105 40.7522C78.5875 19.4747 115.679 22.0684 136.956 46.5454C158.234 71.0223 155.64 108.114 131.163 129.391C106.686 150.669 69.5949 148.075 48.3174 123.598Z" fill="#966AFF"/>
<path fill-rule="evenodd" clip-rule="evenodd" d="M146.815 62.3732C156.346 85.111 150.788 112.333 131.164 129.391C113.957 144.349 90.5167 147.51 70.7182 139.565L70.5977 137.734C77.4363 129.112 84.1048 123.991 90.6032 122.372C100.351 119.942 94.8629 136.85 105.762 133.814C116.661 130.778 107.498 122.449 120.464 118.847C133.431 115.245 129.664 100.889 123.437 87.7851C119.286 79.0494 126.744 70.1767 145.809 61.1669L146.815 62.3732Z" fill="url(#paint0_linear)"/>
<path opacity="0.965588" fill-rule="evenodd" clip-rule="evenodd" d="M51.4355 43.2246C68.0492 54.3558 74.0044 64.9616 69.301 75.042C62.2325 90.1915 42.8474 94.5163 51.2344 109.456C56.8258 119.416 58.3424 126.253 55.7842 129.968L54.409 129.659C52.2647 127.816 50.2274 125.795 48.3174 123.598C27.8421 100.044 29.4719 64.8085 51.4355 43.2246Z" fill="#CFB9FF"/>
<path opacity="0.965588" fill-rule="evenodd" clip-rule="evenodd" d="M104.608 46.5036C111.976 52.9101 118.515 44.69 120.829 54.0586C123.142 63.4273 104.359 62.1889 101.156 71.1605C97.9519 80.132 88.6086 72.8329 86.9871 63.7723C85.3656 54.7118 68.0146 48.0162 72.2443 40.0391C76.474 32.062 93.5713 29.177 97.7746 34.0124C101.978 38.8477 97.2406 40.0971 104.608 46.5036Z" fill="#CFB9FF"/>
<path d="M195.625 119.436C195.798 118.788 196.465 118.403 197.114 118.577C197.762 118.751 198.147 119.417 197.973 120.066C197.653 121.261 197.308 122.446 196.939 123.621C196.737 124.262 196.055 124.618 195.414 124.417C194.774 124.215 194.418 123.533 194.619 122.892C194.978 121.75 195.313 120.598 195.625 119.436ZM192.618 128.54C192.865 127.916 193.571 127.61 194.196 127.857C194.82 128.104 195.126 128.81 194.879 129.434C194.425 130.583 193.947 131.719 193.445 132.843C193.171 133.456 192.452 133.731 191.839 133.458C191.226 133.184 190.951 132.465 191.224 131.852C191.712 130.76 192.177 129.656 192.618 128.54ZM188.583 137.232C188.9 136.64 189.637 136.418 190.229 136.736C190.821 137.054 191.043 137.791 190.725 138.383C190.14 139.471 189.532 140.546 188.901 141.606C188.558 142.183 187.812 142.372 187.235 142.029C186.658 141.685 186.468 140.939 186.812 140.362C187.424 139.333 188.015 138.289 188.583 137.232ZM183.565 145.392C183.949 144.842 184.707 144.707 185.258 145.092C185.808 145.476 185.943 146.234 185.558 146.785C184.852 147.795 184.124 148.79 183.375 149.769C182.967 150.302 182.203 150.403 181.67 149.995C181.137 149.587 181.036 148.824 181.444 148.29C182.172 147.34 182.879 146.374 183.565 145.392ZM177.62 152.923C178.066 152.421 178.835 152.376 179.337 152.822C179.839 153.268 179.884 154.036 179.438 154.538C178.619 155.46 177.78 156.363 176.922 157.248C176.454 157.73 175.685 157.742 175.203 157.274C174.721 156.807 174.709 156.037 175.176 155.555C176.01 154.696 176.825 153.818 177.62 152.923ZM170.838 159.714C171.339 159.267 172.108 159.311 172.555 159.813C173.001 160.314 172.957 161.083 172.456 161.529C171.534 162.351 170.595 163.152 169.639 163.932C169.119 164.357 168.353 164.279 167.928 163.759C167.504 163.239 167.581 162.473 168.101 162.048C169.03 161.29 169.943 160.512 170.838 159.714ZM163.351 165.649C163.901 165.263 164.659 165.395 165.045 165.945C165.431 166.494 165.299 167.252 164.75 167.638C163.741 168.348 162.716 169.035 161.678 169.7C161.112 170.062 160.36 169.897 159.998 169.332C159.636 168.766 159.801 168.015 160.366 167.652C161.376 167.006 162.371 166.338 163.351 165.649ZM155.194 170.707C155.784 170.386 156.522 170.605 156.843 171.195C157.163 171.785 156.944 172.523 156.354 172.844C155.27 173.432 154.174 173.997 153.066 174.538C152.463 174.832 151.735 174.582 151.44 173.978C151.146 173.375 151.396 172.647 151.999 172.352C153.076 171.827 154.141 171.278 155.194 170.707ZM146.511 174.79C147.134 174.54 147.842 174.842 148.092 175.465C148.342 176.088 148.04 176.796 147.417 177.046C146.272 177.506 145.118 177.941 143.954 178.35C143.321 178.573 142.627 178.24 142.404 177.607C142.181 176.974 142.513 176.279 143.147 176.056C144.277 175.659 145.399 175.236 146.511 174.79ZM137.416 177.843C138.064 177.666 138.732 178.049 138.908 178.696C139.085 179.344 138.703 180.013 138.055 180.189C136.864 180.513 135.667 180.811 134.464 181.083C133.809 181.231 133.158 180.82 133.01 180.165C132.862 179.511 133.273 178.86 133.927 178.712C135.097 178.447 136.26 178.158 137.416 177.843ZM128.017 179.822C128.681 179.722 129.301 180.18 129.4 180.844C129.5 181.508 129.043 182.127 128.379 182.227C127.159 182.41 125.935 182.567 124.707 182.697C124.04 182.767 123.441 182.283 123.37 181.616C123.3 180.948 123.784 180.349 124.451 180.279C125.644 180.153 126.833 180 128.017 179.822ZM118.447 180.692C119.119 180.671 119.68 181.197 119.702 181.868C119.723 182.539 119.196 183.101 118.525 183.122C117.293 183.162 116.059 183.174 114.824 183.16C114.153 183.152 113.615 182.601 113.623 181.93C113.631 181.258 114.182 180.721 114.853 180.729C116.052 180.743 117.251 180.73 118.447 180.692ZM108.949 180.446C109.619 180.502 110.115 181.09 110.059 181.759C110.003 182.429 109.415 182.926 108.746 182.869C107.519 182.766 106.292 182.637 105.067 182.48C104.401 182.394 103.93 181.785 104.015 181.119C104.1 180.453 104.709 179.983 105.375 180.068C106.565 180.22 107.757 180.346 108.949 180.446ZM99.4573 179.092C100.115 179.225 100.541 179.866 100.408 180.524C100.275 181.182 99.6335 181.608 98.9753 181.475C97.769 181.231 96.5656 180.961 95.3657 180.664C94.7139 180.503 94.3161 179.844 94.4773 179.192C94.6385 178.54 95.2976 178.142 95.9495 178.303C97.1156 178.592 98.2851 178.855 99.4573 179.092ZM30.5493 56.2179C30.27 56.8286 29.5486 57.0971 28.9379 56.8178C28.3273 56.5384 28.0588 55.817 28.3381 55.2064C28.853 54.0808 29.3979 52.969 29.972 51.8724C30.2834 51.2775 31.0181 51.0477 31.613 51.3592C32.2079 51.6706 32.4377 52.4053 32.1262 53.0002C31.5721 54.0586 31.0463 55.1316 30.5493 56.2179ZM35.1298 47.8348C34.7668 48.3997 34.0146 48.5634 33.4497 48.2005C32.8848 47.8375 32.7211 47.0853 33.084 46.5204C33.7528 45.4795 34.4492 44.4565 35.1723 43.4527C35.5648 42.9079 36.3247 42.7844 36.8695 43.1769C37.4143 43.5694 37.5378 44.3292 37.1453 44.874C36.4473 45.8428 35.7752 46.8301 35.1298 47.8348ZM40.8532 40.1824C40.4138 40.6902 39.646 40.7456 39.1383 40.3062C38.6305 39.8667 38.5752 39.0989 39.0146 38.5912C39.8243 37.6556 40.6589 36.7417 41.5175 35.8507C41.9834 35.3672 42.7531 35.3529 43.2366 35.8189C43.7201 36.2848 43.7344 37.0545 43.2684 37.538C42.4399 38.3978 41.6346 39.2796 40.8532 40.1824ZM47.5962 33.4308C47.0889 33.8708 46.3211 33.8163 45.8811 33.309C45.4411 32.8018 45.4956 32.0339 46.0028 31.594C46.9377 30.7831 47.8944 29.9972 48.872 29.2374C49.4022 28.8253 50.166 28.9211 50.5781 29.4513C50.9901 29.9814 50.8944 30.7453 50.3642 31.1573C49.421 31.8904 48.4981 32.6485 47.5962 33.4308ZM55.2492 27.702C54.6841 28.0647 53.932 27.9005 53.5693 27.3354C53.2066 26.7703 53.3707 26.0182 53.9358 25.6555C54.9768 24.9875 56.0364 24.3471 57.1138 23.7351C57.6976 23.4035 58.4398 23.6079 58.7714 24.1918C59.1031 24.7756 58.8986 25.5178 58.3148 25.8494C57.2755 26.4398 56.2533 27.0576 55.2492 27.702ZM63.6617 23.1238C63.0503 23.4015 62.3296 23.131 62.0519 22.5196C61.7742 21.9082 62.0447 21.1875 62.6561 20.9098C63.781 20.3989 64.9213 19.9174 66.0761 19.4658C66.7014 19.2212 67.4066 19.5299 67.6512 20.1553C67.8957 20.7806 67.587 21.4858 66.9617 21.7304C65.8473 22.1661 64.7471 22.6308 63.6617 23.1238ZM72.5756 19.8154C71.9312 20.0041 71.2558 19.6347 71.0671 18.9903C70.8784 18.3459 71.2478 17.6705 71.8922 17.4818C72.413 17.3293 72.9362 17.1826 73.4617 17.0417C74.1103 16.8679 74.777 17.2528 74.9508 17.9014C75.1246 18.55 74.7397 19.2167 74.0912 19.3905C73.5837 19.5265 73.0785 19.6681 72.5756 19.8154ZM198.618 108.074C197.107 108.074 195.883 106.849 195.883 105.338C195.883 103.827 197.107 102.602 198.618 102.602C200.129 102.602 201.354 103.827 201.354 105.338C201.354 106.849 200.129 108.074 198.618 108.074ZM198.618 109.897C201.136 109.897 203.177 107.856 203.177 105.338C203.177 102.82 201.136 100.779 198.618 100.779C196.1 100.779 194.059 102.82 194.059 105.338C194.059 107.856 196.1 109.897 198.618 109.897ZM198.618 111.721C195.093 111.721 192.235 108.863 192.235 105.338C192.235 101.813 195.093 98.955 198.618 98.955C202.143 98.955 205.001 101.813 205.001 105.338C205.001 108.863 202.143 111.721 198.618 111.721ZM24.758 67.344C23.2472 67.344 22.0224 66.1193 22.0224 64.6085C22.0224 63.0976 23.2472 61.8729 24.758 61.8729C26.2688 61.8729 27.4935 63.0976 27.4935 64.6085C27.4935 66.1193 26.2688 67.344 24.758 67.344ZM24.758 69.1677C27.276 69.1677 29.3172 67.1265 29.3172 64.6085C29.3172 62.0904 27.276 60.0492 24.758 60.0492C22.24 60.0492 20.1987 62.0904 20.1987 64.6085C20.1987 67.1265 22.24 69.1677 24.758 69.1677ZM24.758 70.9914C21.2328 70.9914 18.375 68.1337 18.375 64.6085C18.375 61.0832 21.2328 58.2255 24.758 58.2255C28.2832 58.2255 31.141 61.0832 31.141 64.6085C31.141 68.1337 28.2832 70.9914 24.758 70.9914Z" fill="#D4DFFF"/>
<path d="M147.924 157.557H167.286V162.663H147.924C146.514 162.663 145.371 161.52 145.371 160.11C145.371 158.7 146.514 157.557 147.924 157.557Z" fill="url(#paint1_linear)"/>
<path d="M18.3739 79.5021H26.2766C26.9481 79.5021 27.4924 80.0464 27.4924 80.7179V81.5115C27.4924 82.183 26.9481 82.7273 26.2766 82.7273H18.3739C17.7024 82.7273 17.1581 82.183 17.1581 81.5115V80.7179C17.1581 80.0464 17.7024 79.5021 18.3739 79.5021ZM6.21581 85.5811H26.2766C26.9481 85.5811 27.4924 86.1254 27.4924 86.7969V87.5906C27.4924 88.262 26.9481 88.8064 26.2766 88.8064H6.21581C5.54433 88.8064 5 88.262 5 87.5906V86.7969C5 86.1254 5.54433 85.5811 6.21581 85.5811Z" fill="#FB65BC"/>
<path fill-rule="evenodd" clip-rule="evenodd" d="M34.4083 94.1989H165.28C168.981 94.1989 171.982 97.2398 171.982 100.991V184.533C171.982 188.284 168.981 191.325 165.28 191.325H34.4083C30.7073 191.325 27.707 188.284 27.707 184.533V100.991C27.707 97.2398 30.7073 94.1989 34.4083 94.1989Z" fill="#428DFF"/>
<path opacity="0.965588" fill-rule="evenodd" clip-rule="evenodd" d="M37.0946 100.991H162.587C164.068 100.991 165.268 102.207 165.268 103.708V184.533H34.4141V103.708C34.4141 102.207 35.6142 100.991 37.0946 100.991Z" fill="#9EBEF7"/>
<path opacity="0.965588" fill-rule="evenodd" clip-rule="evenodd" d="M56.5633 113.896H162.596C164.076 113.896 165.276 115.112 165.276 116.613V184.533H53.8828V116.613C53.8828 115.112 55.0829 113.896 56.5633 113.896Z" fill="#E3E7F2"/>
<path d="M71.313 124.084H165.27V140.385H71.313C66.8718 140.385 63.2715 136.736 63.2715 132.234C63.2715 127.733 66.8718 124.084 71.313 124.084ZM78.2546 133.147C78.2546 131.691 77.639 130.963 76.4079 130.963C76.0285 130.963 75.6903 131.037 75.3932 131.186C75.0962 131.334 74.8582 131.55 74.6792 131.832V129.3C74.6792 129.112 74.6184 128.963 74.4967 128.855C74.375 128.746 74.214 128.692 74.0136 128.692C73.8132 128.692 73.6503 128.75 73.525 128.866C73.3998 128.982 73.3372 129.134 73.3372 129.322V135.821C73.3372 136.024 73.3962 136.183 73.5143 136.299C73.6324 136.415 73.7953 136.473 74.0028 136.473C74.2104 136.473 74.375 136.415 74.4967 136.299C74.6184 136.183 74.6792 136.024 74.6792 135.821V133.397C74.6792 132.984 74.7956 132.655 75.0282 132.408C75.2608 132.162 75.5704 132.039 75.9569 132.039C76.2862 132.039 76.5277 132.128 76.6816 132.305C76.8355 132.483 76.9125 132.763 76.9125 133.147V135.821C76.9125 136.024 76.9733 136.183 77.095 136.299C77.2167 136.415 77.3813 136.473 77.5889 136.473C77.7965 136.473 77.9593 136.415 78.0774 136.299C78.1955 136.183 78.2546 136.024 78.2546 135.821V133.147ZM83.2149 135.951C83.2149 135.647 83.036 135.484 82.6781 135.462L82.3882 135.44C81.9015 135.404 81.6581 135.118 81.6581 134.582V132.115H82.5707C82.764 132.115 82.9125 132.071 83.0163 131.985C83.1201 131.898 83.172 131.771 83.172 131.604C83.172 131.438 83.1201 131.311 83.0163 131.224C82.9125 131.137 82.764 131.093 82.5707 131.093H81.6581V130.094C81.6581 129.898 81.5973 129.742 81.4756 129.626C81.3539 129.51 81.1929 129.452 80.9924 129.452C80.7849 129.452 80.6202 129.51 80.4985 129.626C80.3769 129.742 80.316 129.898 80.316 130.094V131.093H79.7792C79.5859 131.093 79.4374 131.137 79.3336 131.224C79.2298 131.311 79.1779 131.438 79.1779 131.604C79.1779 131.771 79.2298 131.898 79.3336 131.985C79.4374 132.071 79.5859 132.115 79.7792 132.115H80.316V134.484C80.316 135.701 80.9173 136.353 82.1198 136.44L82.4097 136.462C82.6674 136.476 82.866 136.438 83.0056 136.348C83.1451 136.257 83.2149 136.125 83.2149 135.951ZM87.4345 135.951C87.4345 135.647 87.2555 135.484 86.8976 135.462L86.6077 135.44C86.121 135.404 85.8776 135.118 85.8776 134.582V132.115H86.7903C86.9835 132.115 87.132 132.071 87.2358 131.985C87.3396 131.898 87.3915 131.771 87.3915 131.604C87.3915 131.438 87.3396 131.311 87.2358 131.224C87.132 131.137 86.9835 131.093 86.7903 131.093H85.8776V130.094C85.8776 129.898 85.8168 129.742 85.6951 129.626C85.5734 129.51 85.4124 129.452 85.212 129.452C85.0044 129.452 84.8398 129.51 84.7181 129.626C84.5964 129.742 84.5356 129.898 84.5356 130.094V131.093H83.9987C83.8055 131.093 83.6569 131.137 83.5531 131.224C83.4494 131.311 83.3975 131.438 83.3975 131.604C83.3975 131.771 83.4494 131.898 83.5531 131.985C83.6569 132.071 83.8055 132.115 83.9987 132.115H84.5356V134.484C84.5356 135.701 85.1368 136.353 86.3393 136.44L86.6292 136.462C86.8869 136.476 87.0855 136.438 87.2251 136.348C87.3647 136.257 87.4345 136.125 87.4345 135.951ZM92.6901 131.311C92.3358 131.079 91.9332 130.963 91.4822 130.963C91.1028 130.963 90.7646 131.044 90.4676 131.207C90.1705 131.371 89.9433 131.601 89.7858 131.898V131.626C89.7858 131.43 89.725 131.275 89.6033 131.159C89.4816 131.043 89.3205 130.985 89.1201 130.985C88.9197 130.985 88.7605 131.043 88.6423 131.159C88.5242 131.275 88.4652 131.43 88.4652 131.626V137.788C88.4652 137.976 88.5278 138.128 88.6531 138.244C88.7783 138.36 88.9412 138.418 89.1416 138.418C89.342 138.418 89.5031 138.364 89.6248 138.255C89.7464 138.146 89.8073 137.998 89.8073 137.809V135.592C89.9648 135.875 90.1902 136.096 90.4837 136.255C90.7772 136.415 91.11 136.494 91.4822 136.494C91.9403 136.494 92.3447 136.382 92.6955 136.158C93.0462 135.933 93.32 135.614 93.5168 135.201C93.7137 134.788 93.8121 134.306 93.8121 133.756C93.8121 133.205 93.7137 132.718 93.5168 132.294C93.32 131.87 93.0444 131.543 92.6901 131.311ZM92.1157 135C91.8795 135.294 91.5502 135.44 91.1279 135.44C90.6984 135.44 90.3674 135.292 90.1348 134.995C89.9021 134.698 89.7858 134.278 89.7858 133.734C89.7858 133.184 89.9021 132.76 90.1348 132.463C90.3674 132.166 90.6984 132.017 91.1279 132.017C91.5502 132.017 91.8795 132.169 92.1157 132.474C92.3519 132.778 92.47 133.205 92.47 133.756C92.47 134.292 92.3519 134.707 92.1157 135ZM95.2615 136.027C95.7411 136.339 96.371 136.494 97.1512 136.494C97.824 136.494 98.3626 136.346 98.7671 136.049C99.1715 135.752 99.3737 135.357 99.3737 134.864C99.3737 134.56 99.3146 134.31 99.1965 134.114C99.0784 133.919 98.8834 133.756 98.6114 133.625C98.3394 133.495 97.9636 133.379 97.484 133.278C97.0331 133.184 96.7289 133.089 96.5714 132.995C96.4139 132.901 96.3352 132.763 96.3352 132.582C96.3352 132.394 96.4122 132.245 96.566 132.137C96.7199 132.028 96.9293 131.974 97.1941 131.974C97.416 131.974 97.6021 132.001 97.7525 132.055C97.9028 132.109 98.0817 132.191 98.2893 132.3C98.4038 132.365 98.4987 132.414 98.5738 132.446C98.649 132.479 98.7259 132.495 98.8046 132.495C98.9192 132.495 99.0158 132.446 99.0945 132.349C99.1733 132.251 99.2126 132.129 99.2126 131.985C99.2126 131.745 99.0981 131.553 98.8691 131.409C98.6472 131.264 98.3967 131.153 98.1175 131.077C97.8383 131.001 97.5485 130.963 97.2478 130.963C96.8327 130.963 96.4623 131.034 96.1366 131.175C95.8109 131.316 95.555 131.515 95.3689 131.773C95.1828 132.03 95.0897 132.318 95.0897 132.637C95.0897 133.057 95.2275 133.386 95.5031 133.625C95.7787 133.865 96.235 134.049 96.872 134.18C97.2299 134.259 97.4966 134.33 97.6719 134.392C97.8473 134.453 97.969 134.52 98.037 134.593C98.105 134.665 98.139 134.763 98.139 134.886C98.139 135.067 98.0549 135.208 97.8867 135.31C97.7185 135.411 97.484 135.462 97.1834 135.462C96.8899 135.462 96.6484 135.433 96.4587 135.375C96.269 135.317 96.0596 135.234 95.8306 135.125C95.6158 135.009 95.4476 134.951 95.326 134.951C95.2114 134.951 95.1148 134.997 95.0361 135.087C94.9573 135.178 94.918 135.295 94.918 135.44C94.918 135.694 95.0325 135.889 95.2615 136.027ZM100.855 132.37C101.006 132.526 101.195 132.604 101.424 132.604C101.653 132.604 101.843 132.526 101.993 132.37C102.144 132.215 102.219 132.021 102.219 131.789C102.219 131.557 102.144 131.365 101.993 131.213C101.843 131.061 101.653 130.985 101.424 130.985C101.195 130.985 101.006 131.061 100.855 131.213C100.705 131.365 100.63 131.557 100.63 131.789C100.63 132.021 100.705 132.215 100.855 132.37ZM100.855 136.239C101.006 136.395 101.195 136.473 101.424 136.473C101.653 136.473 101.843 136.395 101.993 136.239C102.144 136.083 102.219 135.889 102.219 135.658C102.219 135.426 102.144 135.232 101.993 135.076C101.843 134.92 101.653 134.843 101.424 134.843C101.195 134.843 101.006 134.92 100.855 135.076C100.705 135.232 100.63 135.426 100.63 135.658C100.63 135.889 100.705 136.083 100.855 136.239ZM104.398 137.081C104.492 137.016 104.56 136.915 104.602 136.777L107.093 128.876C107.115 128.811 107.126 128.746 107.126 128.681C107.126 128.529 107.07 128.404 106.959 128.306C106.848 128.208 106.721 128.159 106.578 128.159C106.464 128.159 106.36 128.192 106.267 128.257C106.174 128.322 106.106 128.424 106.063 128.561L103.572 136.462C103.55 136.527 103.54 136.592 103.54 136.657C103.54 136.81 103.595 136.935 103.706 137.032C103.817 137.13 103.944 137.179 104.087 137.179C104.202 137.179 104.305 137.146 104.398 137.081ZM107.587 137.081C107.68 137.016 107.748 136.915 107.791 136.777L110.282 128.876C110.304 128.811 110.314 128.746 110.314 128.681C110.314 128.529 110.259 128.404 110.148 128.306C110.037 128.208 109.91 128.159 109.767 128.159C109.652 128.159 109.549 128.192 109.455 128.257C109.362 128.322 109.294 128.424 109.251 128.561L106.761 136.462C106.739 136.527 106.728 136.592 106.728 136.657C106.728 136.81 106.784 136.935 106.895 137.032C107.006 137.13 107.133 137.179 107.276 137.179C107.39 137.179 107.494 137.146 107.587 137.081Z" fill="white"/>
<path d="M66.2849 153.29H130.041C131.336 153.29 132.386 154.354 132.386 155.667C132.386 156.98 131.336 158.044 130.041 158.044H66.2849C64.9895 158.044 63.9395 156.98 63.9395 155.667C63.9395 154.354 64.9895 153.29 66.2849 153.29Z" fill="white"/>
<path d="M105.881 163.478H165.271V168.232H105.881C104.585 168.232 103.535 167.168 103.535 165.855C103.535 164.542 104.585 163.478 105.881 163.478Z" fill="white"/>
<path d="M66.2849 163.478H96.4883C97.7837 163.478 98.8338 164.542 98.8338 165.855C98.8338 167.168 97.7837 168.232 96.4883 168.232H66.2849C64.9895 168.232 63.9395 167.168 63.9395 165.855C63.9395 164.542 64.9895 163.478 66.2849 163.478Z" fill="white"/>
<path d="M126.013 173.666H165.273V178.42H126.013C124.718 178.42 123.668 177.356 123.668 176.043C123.668 174.73 124.718 173.666 126.013 173.666Z" fill="white"/>
<path d="M66.2849 173.666H116.62C117.915 173.666 118.965 174.73 118.965 176.043C118.965 177.356 117.915 178.42 116.62 178.42H66.2849C64.9895 178.42 63.9395 177.356 63.9395 176.043C63.9395 174.73 64.9895 173.666 66.2849 173.666Z" fill="white"/>
<path fill-rule="evenodd" clip-rule="evenodd" d="M18.9824 184.533H182.046C182.046 189.035 178.446 192.684 174.005 192.684H27.0239C22.5827 192.684 18.9824 189.035 18.9824 184.533Z" fill="#428DFF"/>
<path d="M73.3359 184.533H122.322C122.322 186.409 120.822 187.929 118.972 187.929H76.6866C74.8361 187.929 73.3359 186.409 73.3359 184.533Z" fill="#316FCD"/>
<path d="M157.929 133.385C199.917 115.147 194.518 76.1678 192.975 68.3866C192.902 68.0259 192.686 67.7113 192.378 67.5161C192.07 67.3208 191.696 67.2619 191.344 67.3532C171.784 71.9853 162.137 61.1296 159.085 56.6534C158.836 56.2807 158.421 56.0574 157.977 56.0574C157.534 56.0574 157.119 56.2807 156.87 56.6534C153.808 61.1298 144.129 71.9894 124.564 67.3532C124.212 67.2619 123.838 67.3208 123.53 67.5161C123.222 67.7113 123.006 68.0259 122.933 68.3866C121.39 76.1678 115.991 115.147 157.979 133.385H157.929Z" fill="#E3E7F2"/>
<path d="M157.953 127.439C126.763 112.698 126.274 84.924 127.566 73.4385C129.595 73.7391 131.642 73.8926 133.692 73.8977C142.819 74.074 151.61 70.4061 157.97 63.7679C164.315 70.4052 173.095 74.073 182.212 73.895C184.261 73.8899 186.308 73.7364 188.336 73.4358C189.631 84.9254 189.142 112.698 157.953 127.439Z" fill="#E3E7F2"/>
<path d="M157.95 133.371C157.268 133.073 156.6 132.775 155.945 132.464C195.727 113.868 190.476 76.0525 188.966 68.3864C188.93 68.2058 188.858 68.0349 188.752 67.8853C189.594 67.75 190.462 67.5603 191.344 67.3571C191.696 67.2682 192.067 67.3276 192.375 67.5216C192.682 67.7155 192.899 68.0277 192.975 68.3864C194.511 76.1744 199.91 115.127 157.95 133.371Z" fill="#A4C2F7"/>
<path d="M157.946 127.439C157.265 127.114 156.597 126.789 155.955 126.451C184.819 111.66 185.581 85.2899 184.378 73.8316C185.703 73.7725 187.023 73.6414 188.334 73.4387C189.63 84.9242 189.136 112.703 157.946 127.439Z" fill="#A4C2F7"/>
<path d="M157.976 133.385L157.951 133.373L157.926 133.385H157.976Z" fill="white"/>
<path d="M127.152 67.8786C126.306 67.7309 125.447 67.563 124.56 67.353C124.208 67.2618 123.834 67.3207 123.526 67.5159C123.218 67.7111 123.002 68.0257 122.929 68.3865C121.411 76.0403 116.198 113.854 155.971 132.45L155.945 132.464C156.572 132.762 157.214 133.048 157.864 133.333C157.895 133.346 157.922 133.361 157.951 133.373C158.643 133.072 159.305 132.758 159.97 132.446C120.209 113.847 125.42 76.0389 126.938 68.3865C126.974 68.2041 127.047 68.0312 127.152 67.8786Z" fill="white"/>
<path d="M159.983 57.8787C159.64 57.4344 159.339 57.02 159.088 56.6502C158.839 56.2775 158.424 56.0542 157.981 56.0542C157.537 56.0542 157.122 56.2775 156.873 56.6502C151.989 63.6977 144.151 68.0448 135.662 68.4147C149.112 69.2017 156.685 62.1221 159.983 57.8787Z" fill="white"/>
<path d="M157.449 134.629C152.007 132.294 146.867 129.292 142.145 125.69C133.398 119.017 126.872 109.792 123.445 99.2533C121.768 94.022 120.803 88.5829 120.579 83.0869C120.31 77.578 120.767 72.0576 121.939 66.6714L124.523 67.3648C123.424 72.486 122.995 77.7317 123.249 82.9663C123.463 88.2153 124.383 93.4099 125.984 98.4066C129.241 108.43 135.448 117.203 143.77 123.545C148.316 127.009 153.264 129.895 158.502 132.14L157.449 134.629Z" fill="white"/>
<path d="M152.535 132.276C154.092 133.098 155.707 133.797 157.293 134.555C157.485 134.67 157.702 134.733 157.925 134.738H157.976C158.228 134.739 158.475 134.665 158.687 134.526C205.699 113.938 194.084 67.1419 193.965 66.6692C193.776 65.9464 193.045 65.5153 192.332 65.7063C169.528 71.7943 160.393 56.5884 159.236 54.4443C159.2 54.3287 159.15 54.2181 159.087 54.1151C158.822 53.7395 158.394 53.5168 157.937 53.5168C157.481 53.5168 157.053 53.7395 156.788 54.1151C156.712 54.2409 156.657 54.3781 156.623 54.5214C155.303 56.9189 146.121 71.7199 123.571 65.7077C122.858 65.5177 122.128 65.9485 121.939 66.6707C120.767 72.0567 120.309 77.5773 120.579 83.0862C120.804 88.5821 121.768 94.0213 123.445 99.2525C126.872 109.792 133.398 119.017 142.146 125.691C142.506 125.973 142.883 126.233 143.252 126.503C143.848 126.938 144.678 126.804 145.111 126.204C145.545 125.604 145.419 124.761 144.83 124.317C144.478 124.059 144.115 123.811 143.771 123.543C135.449 117.203 129.243 108.433 125.984 98.4115C124.383 93.4148 123.463 88.22 123.249 82.9711C123.034 78.1808 123.381 73.3815 124.282 68.6739C144.428 73.4198 154.653 62.1416 157.95 57.4011C161.249 62.1416 171.487 73.4509 191.673 68.659C193.245 76.2653 198.675 113.818 157.951 131.878C156.547 131.214 155.124 130.586 153.753 129.86C153.105 129.519 152.307 129.771 151.966 130.424C151.619 131.095 151.874 131.924 152.535 132.276Z" fill="#428DFF"/>
<path d="M147.79 129.572C148.096 129.76 148.461 129.823 148.811 129.751L149.05 129.663C149.132 129.625 149.208 129.576 149.276 129.518C149.347 129.472 149.411 129.415 149.466 129.35C149.523 129.28 149.576 129.207 149.623 129.13C149.796 128.816 149.851 128.448 149.777 128.096C149.732 127.925 149.656 127.763 149.552 127.62C149.242 127.185 148.704 126.978 148.187 127.096C148.017 127.143 147.857 127.22 147.715 127.325C147.271 127.635 147.058 128.19 147.181 128.723C147.272 129.073 147.489 129.376 147.79 129.572Z" fill="#428DFF"/>
<path d="M157.948 128.794C158.144 128.795 158.337 128.751 158.514 128.667C190.794 113.427 191.077 84.8491 189.701 73.2715C189.657 72.9092 189.472 72.5796 189.186 72.3578C188.9 72.1359 188.537 72.0405 188.181 72.0932C186.204 72.3881 184.208 72.5389 182.209 72.5443C181.471 72.5443 180.873 73.1507 180.873 73.8986C180.873 74.6465 181.471 75.253 182.209 75.253C183.874 75.2501 185.537 75.1506 187.191 74.9551C188.279 86.6125 186.898 111.96 157.948 125.943C155.202 124.627 152.55 123.116 150.013 121.422C149.616 121.138 149.097 121.095 148.659 121.31C148.221 121.526 147.933 121.965 147.908 122.458C147.883 122.951 148.124 123.418 148.537 123.679C151.359 125.565 154.317 127.233 157.386 128.67C157.562 128.752 157.754 128.795 157.948 128.794Z" fill="#428DFF"/>
<path d="M133.694 75.2518C142.704 75.4391 151.422 72.0121 157.951 65.7166C161.63 69.3005 166.075 71.9767 170.94 73.537C171.397 73.6942 171.903 73.589 172.263 73.2616C172.622 72.9341 172.779 72.4356 172.673 71.9578C172.567 71.4799 172.215 71.0973 171.753 70.9568C166.877 69.3874 162.467 66.6056 158.924 62.8655C158.389 62.3373 157.537 62.3373 157.002 62.8655C150.9 69.2332 142.459 72.7394 133.702 72.5429C131.714 72.5375 129.728 72.3881 127.76 72.0959C127.402 72.0437 127.039 72.1405 126.753 72.364C126.467 72.5875 126.283 72.9187 126.242 73.2824C125.545 79.4444 125.802 85.6791 127.003 91.7606C128.699 100.576 132.778 108.741 138.786 115.344C139.11 115.699 139.597 115.851 140.063 115.744C140.529 115.637 140.903 115.286 141.044 114.823C141.185 114.361 141.072 113.857 140.747 113.502C135.068 107.264 131.212 99.5484 129.61 91.2173C128.553 85.8699 128.262 80.3959 128.747 74.9643C130.39 75.1553 132.041 75.2511 133.694 75.2518Z" fill="#428DFF"/>
<path d="M147.287 110.36H157.978C158.716 110.36 159.314 109.753 159.314 109.005C159.314 108.257 158.716 107.651 157.978 107.651H147.287C146.549 107.651 145.951 108.257 145.951 109.005C145.951 109.753 146.55 110.36 147.287 110.36Z" fill="#428DFF"/>
<path d="M163.321 107.651C162.583 107.651 161.984 108.257 161.984 109.005C161.984 109.753 162.583 110.359 163.321 110.359H168.666C169.404 110.359 170.002 109.753 170.002 109.005C170.002 108.257 169.404 107.651 168.666 107.651H163.321Z" fill="#428DFF"/>
<path d="M125.904 127.967C126.642 127.967 127.24 127.361 127.24 126.613V123.904H129.913C130.651 123.904 131.249 123.297 131.249 122.549C131.249 121.801 130.651 121.195 129.913 121.195H127.24V118.486C127.24 117.738 126.642 117.132 125.904 117.132C125.166 117.132 124.568 117.738 124.568 118.486V121.195H121.895C121.157 121.195 120.559 121.801 120.559 122.549C120.559 123.297 121.157 123.904 121.895 123.904H124.568V126.613C124.568 127.361 125.166 127.967 125.904 127.967Z" fill="#428DFF"/>
<path d="M191.376 134.739C192.114 134.739 192.713 134.133 192.713 133.385V130.676H195.385C196.123 130.676 196.722 130.069 196.722 129.321C196.722 128.573 196.123 127.967 195.385 127.967H192.713V125.258C192.713 124.51 192.114 123.904 191.376 123.904C190.638 123.904 190.04 124.51 190.04 125.258V127.967H187.368C186.629 127.967 186.031 128.574 186.031 129.321C186.031 130.069 186.629 130.676 187.368 130.676H190.04V133.385C190.04 134.133 190.639 134.739 191.376 134.739Z" fill="#428DFF"/>
<path d="M187.372 53.4741C186.634 53.4741 186.036 54.0806 186.036 54.8285V56.1828H184.7C183.961 56.1828 183.363 56.7893 183.363 57.5372C183.363 58.2851 183.962 58.8916 184.7 58.8916H186.036V60.2459C186.036 60.994 186.634 61.6003 187.372 61.6003C188.11 61.6003 188.708 60.9938 188.708 60.2459V58.8916H190.045C190.783 58.8916 191.381 58.2851 191.381 57.5372C191.381 56.7893 190.783 56.1828 190.045 56.1828H188.708V54.8285C188.708 54.0806 188.11 53.4741 187.372 53.4741Z" fill="#428DFF"/>
<path d="M169.61 83.668C169.089 83.1393 168.243 83.1393 167.721 83.668L151.294 100.318L148.23 97.2121C147.705 96.6988 146.872 96.7061 146.356 97.2286C145.841 97.7511 145.834 98.5958 146.34 99.1272L150.349 103.19C150.871 103.719 151.717 103.719 152.238 103.19L169.61 85.5831C170.132 85.0541 170.132 84.1969 169.61 83.668Z" fill="#428DFF"/>
<defs>
<linearGradient id="paint0_linear" x1="110.98" y1="61.1669" x2="110.98" y2="143.796" gradientUnits="userSpaceOnUse">
<stop stop-color="#966AFF"/>
<stop offset="1" stop-color="#E885E0"/>
</linearGradient>
<linearGradient id="paint1_linear" x1="173.159" y1="159.452" x2="168.842" y2="183.253" gradientUnits="userSpaceOnUse">
<stop stop-color="white"/>
<stop offset="0.458052" stop-color="#CFE5FF"/>
<stop offset="1" stop-color="#57B6FF"/>
</linearGradient>
</defs>
</svg>
