<svg xmlns="http://www.w3.org/2000/svg" fill="none" viewBox="0 0 243 271" style="max-height: 500px" width="243" height="271">
<path fill="#31235C" d="M264.881 203.844V71.5234H305.953C314.286 71.5234 321.429 72.7155 327.976 75.6957C334.524 78.6759 339.286 82.8481 342.857 89.4045C346.429 95.9609 348.215 104.305 348.215 114.438C348.215 124.571 346.429 132.915 342.857 138.876C339.286 145.432 334.524 149.604 327.976 152.584C321.429 155.565 314.286 156.757 305.953 156.757H282.738V203.248H264.881V203.844ZM282.738 141.26H303.572C312.5 141.26 319.643 138.876 323.81 134.703C328.572 130.531 330.357 123.379 330.357 114.438C330.357 105.498 327.976 98.3451 323.81 94.1728C319.643 90.0006 312.5 87.6164 302.977 87.6164H282.143V141.26H282.738Z"/>
<path fill="#31235C" d="M390.477 205.633C383.929 205.633 377.977 204.441 373.215 201.461C368.453 198.48 364.882 194.308 362.501 188.348C360.12 182.387 358.929 174.639 358.929 165.698V112.055H375.001V160.93C375.001 170.467 376.786 178.215 379.762 183.579C382.739 188.944 388.096 191.328 395.239 191.328C400.001 191.328 404.762 190.136 408.929 187.752C413.096 185.368 416.072 181.195 417.858 175.831L415.477 185.368V111.459H431.548V203.845H416.667L413.691 185.964L417.858 188.944C414.881 194.904 411.31 199.076 407.143 201.461C402.977 204.441 397.62 205.633 390.477 205.633Z"/>
<path fill="#31235C" d="M448.216 203.842V111.456H461.311L463.097 126.953C467.263 120.993 472.025 116.82 475.597 113.84C479.763 110.86 483.93 109.668 488.692 109.668C489.882 109.668 491.668 109.668 492.859 110.264L491.073 128.741C490.478 128.741 489.287 128.145 488.692 128.145C488.097 128.145 486.906 128.145 485.716 128.145C480.954 128.145 476.787 129.337 473.216 131.125C469.049 133.509 466.668 135.894 464.882 138.278V203.842H448.216Z"/>
<path fill="#31235C" d="M500.598 249.739V111.458H513.098L516.074 132.32L511.907 128.743C515.479 122.783 520.24 118.015 525.598 114.439C530.955 110.862 537.502 109.074 545.24 109.074C552.978 109.074 560.121 111.458 565.478 115.631C571.431 119.803 575.597 125.763 578.574 132.916C581.55 140.068 583.336 148.413 583.336 157.353C583.336 166.294 582.145 174.638 579.169 181.791C576.193 188.943 572.026 194.904 566.669 199.076C561.312 203.248 554.169 205.632 545.836 205.632C538.693 205.632 532.74 203.844 526.788 200.864C521.431 197.884 517.264 193.115 514.883 187.155L517.264 183.579V249.143H500.598V249.739ZM541.669 190.731C549.407 190.731 555.359 187.751 560.121 181.791C564.288 175.83 566.669 168.082 566.669 157.353C566.669 147.221 564.288 138.876 560.121 132.916C555.955 126.955 549.407 123.975 541.669 123.975C536.907 123.975 532.74 125.167 528.574 127.551C524.407 129.936 521.431 133.512 519.05 138.28C516.669 143.048 515.479 149.605 515.479 156.757C515.479 164.506 516.669 171.062 519.05 175.83C521.431 180.599 524.407 184.175 528.574 186.559C532.74 189.539 536.907 190.731 541.669 190.731Z"/>
<path fill="#31235C" d="M617.858 205.633C612.501 205.633 607.739 204.441 604.167 202.653C600.596 200.269 598.215 197.885 597.025 194.308C595.834 190.732 594.644 187.156 594.644 183.58V61.9883H610.715V173.447C610.715 178.812 611.31 182.984 611.905 185.368C612.501 187.752 613.691 189.54 616.072 190.732C617.858 191.328 620.834 191.924 625.001 191.924L622.62 205.633H617.858Z"/>
<path fill="#31235C" d="M675.001 205.632C664.882 205.632 655.953 203.248 648.81 199.076C641.668 194.307 636.31 188.943 632.739 181.195C629.168 174.042 627.382 165.698 627.382 156.757C627.382 148.413 629.168 140.068 632.144 132.916C635.715 125.763 640.477 119.803 647.025 115.631C653.572 111.458 661.31 109.074 670.239 109.074C677.382 109.074 683.929 110.862 689.882 113.843C695.834 116.823 700.001 121.591 702.977 126.955C705.953 132.916 707.739 140.068 707.739 148.413C707.739 149.605 707.739 151.393 707.739 152.585C707.739 154.373 707.739 155.565 707.144 157.353H644.048C644.644 165.698 647.025 172.85 650.001 177.618C652.977 182.387 657.144 185.963 661.906 187.751C666.667 189.539 671.429 190.731 677.382 190.731C681.548 190.731 685.715 190.135 689.882 189.539C694.048 188.943 698.215 187.155 702.382 185.367L704.763 199.076C701.191 200.864 697.025 202.056 692.263 203.844C686.906 205.036 680.953 205.632 675.001 205.632ZM645.239 146.028H691.072C691.072 141.856 690.477 137.684 688.691 134.704C686.905 131.724 684.525 128.743 681.548 127.551C678.572 125.763 674.406 125.167 669.644 125.167C662.501 125.167 657.144 126.955 652.977 130.532C650.001 134.108 647.025 138.876 645.239 146.028Z"/>
<path fill="#31235C" d="M727.381 203.844V71.5234H766.667C777.976 71.5234 786.309 73.9076 792.857 79.2719C799.405 84.6362 802.381 92.9808 802.381 103.709C802.381 110.862 800.595 117.418 797.619 123.379C794.643 128.743 789.881 132.915 783.928 134.107L786.309 131.127C795.238 132.915 801.786 136.491 806.547 141.856C811.309 147.816 813.69 155.565 813.69 165.697C813.69 177.022 810.119 186.559 802.976 193.115C795.833 199.671 786.309 203.248 773.809 203.248H727.381V203.844ZM744.643 126.359H764.881C770.833 126.359 775.595 125.167 779.762 122.783C783.333 120.398 785.714 115.034 785.714 107.286C785.714 99.5372 783.928 94.1728 779.762 91.7887C776.19 89.4045 770.833 87.6164 764.881 87.6164H744.643V126.359ZM744.643 187.751H773.214C780.357 187.751 785.714 185.963 789.881 182.386C794.047 178.81 795.833 173.446 795.833 165.697C795.833 157.353 793.452 151.392 789.286 148.412C785.119 144.836 779.762 143.048 773.214 143.048H744.643V187.751Z"/>
<path fill="#31235C" d="M869.046 205.632C860.117 205.632 852.379 203.248 845.831 199.076C839.284 194.904 834.522 188.943 830.95 181.791C827.379 174.638 825.593 166.294 825.593 157.353C825.593 148.413 827.379 140.068 830.95 132.916C834.522 125.763 839.284 119.803 845.831 115.631C852.379 111.458 860.117 109.074 869.046 109.074C877.974 109.074 885.712 111.458 892.26 115.631C898.807 119.803 903.569 125.763 907.141 132.916C910.712 140.068 912.498 148.413 912.498 157.353C912.498 166.294 910.712 174.638 907.141 181.791C903.569 188.943 898.807 194.904 892.26 199.076C885.712 203.248 877.974 205.632 869.046 205.632ZM869.046 190.731C877.974 190.731 884.522 187.751 889.284 181.791C894.046 175.83 896.427 168.082 896.427 157.353C896.427 147.221 894.046 138.876 889.284 132.916C884.522 126.955 877.974 123.975 869.046 123.975C860.712 123.975 853.569 126.955 849.403 132.916C844.641 138.876 842.26 146.625 842.26 157.353C842.26 167.486 844.641 175.83 849.403 181.791C853.569 187.751 860.117 190.731 869.046 190.731Z"/>
<path fill="#31235C" d="M919.643 203.845L950 157.95L920.238 111.459H938.095L960.119 147.817L980.357 111.459H998.81L970.238 156.162L1000 203.845H982.143L960.119 167.486L937.5 203.845H919.643Z"/>
<path fill="#544697" d="M0 195.5V63.7759L113.69 0L225.595 63.7759L111.905 129.34V260.468L0 195.5Z"/>
<path fill="#4C368C" d="M2.38317 65.5635L110.716 128.743C111.312 129.339 111.907 129.339 112.502 128.743L223.216 65.5635C224.407 64.9674 224.407 63.1793 223.216 62.5833L114.883 0.595465C114.288 -0.000571668 113.692 -0.000571668 113.097 0.595465L2.97841 62.5833C1.78793 63.1793 1.78793 64.9674 2.38317 65.5635Z"/>
<path fill="#31235C" d="M127.381 138.873L241.071 73.3086V203.841L127.381 270.001V138.873Z"/>
</svg>