<svg xmlns="http://www.w3.org/2000/svg" xmlns:xlink="http://www.w3.org/1999/xlink" width="1080" zoomAndPan="magnify" viewBox="0 0 810 809.999993" height="1080" preserveAspectRatio="xMidYMid meet" version="1.0"><defs><filter x="0%" y="0%" width="100%" height="100%" id="9bed89b755"><feColorMatrix values="0 0 0 0 1 0 0 0 0 1 0 0 0 0 1 0 0 0 1 0" color-interpolation-filters="sRGB"/></filter><g/><mask id="ea6e7f6f15"><g filter="url(#9bed89b755)"><rect x="-81" width="972" fill="#000000" y="-80.999999" height="971.999992" fill-opacity="0.52"/></g></mask><clipPath id="c9edb6cbf9"><path d="M 1 1.183594 L 780.160156 1.183594 L 780.160156 676 L 1 676 Z M 1 1.183594 " clip-rule="nonzero"/></clipPath><clipPath id="d2cd04d980"><rect x="0" width="781" y="0" height="677"/></clipPath><clipPath id="99cf6fc165"><path d="M 3.097656 63.144531 L 783 63.144531 L 783 738.144531 L 3.097656 738.144531 Z M 3.097656 63.144531 " clip-rule="nonzero"/></clipPath><clipPath id="9c36ba5002"><path d="M 249.441406 527 L 482 527 L 482 686 L 249.441406 686 Z M 249.441406 527 " clip-rule="nonzero"/></clipPath><clipPath id="1575619ba0"><path d="M 249.441406 582 L 482 582 L 482 686 L 249.441406 686 Z M 249.441406 582 " clip-rule="nonzero"/></clipPath><clipPath id="0da81bac24"><path d="M 265 406.238281 L 466 406.238281 L 466 528 L 265 528 Z M 265 406.238281 " clip-rule="nonzero"/></clipPath><clipPath id="0916911c0e"><path d="M 439 590 L 555.441406 590 L 555.441406 712.238281 L 439 712.238281 Z M 439 590 " clip-rule="nonzero"/></clipPath><clipPath id="5a4a88e05e"><path d="M 473 624 L 555.441406 624 L 555.441406 712.238281 L 473 712.238281 Z M 473 624 " clip-rule="nonzero"/></clipPath><mask id="816ec26c84"><g filter="url(#9bed89b755)"><rect x="-81" width="972" fill="#000000" y="-80.999999" height="971.999992" fill-opacity="0.7"/></g></mask><clipPath id="fcff0b0a11"><rect x="0" width="438" y="0" height="264"/></clipPath></defs><g mask="url(#ea6e7f6f15)"><g transform="matrix(1, 0, 0, 1, 20, 71)"><g clip-path="url(#d2cd04d980)"><g clip-path="url(#c9edb6cbf9)"><path fill="#142a99" d="M 581.101562 668.453125 L 200.140625 668.453125 L 9.640625 338.519531 L 200.140625 8.582031 L 581.101562 8.582031 L 771.59375 338.519531 Z M 585.386719 1.167969 L 195.855469 1.167969 L 1.089844 338.519531 L 195.855469 675.867188 L 585.386719 675.867188 L 780.15625 338.519531 L 585.386719 1.167969 " fill-opacity="1" fill-rule="nonzero"/></g></g></g></g><path fill="#ffffff" d="M 586.445312 65.523438 L 199.558594 65.523438 L 6.113281 400.578125 L 199.558594 735.644531 L 586.445312 735.644531 L 779.890625 400.578125 Z M 586.445312 65.523438 " fill-opacity="1" fill-rule="nonzero"/><g clip-path="url(#99cf6fc165)"><path fill="#f0ad1c" d="M 587.824219 738.027344 L 198.175781 738.027344 L 3.359375 400.578125 L 198.175781 63.144531 L 587.824219 63.144531 L 782.644531 400.578125 L 587.824219 738.015625 Z M 200.929688 733.261719 L 585.070312 733.261719 L 777.148438 400.589844 L 585.070312 67.90625 L 200.929688 67.90625 L 8.855469 400.578125 L 200.929688 733.253906 Z M 200.929688 733.261719 " fill-opacity="1" fill-rule="nonzero"/></g><g clip-path="url(#9c36ba5002)"><path fill="#1934bf" d="M 460.476562 685.859375 L 270.546875 685.859375 C 258.890625 685.859375 249.441406 676.410156 249.441406 664.757812 L 249.441406 527.585938 L 481.582031 527.585938 L 481.582031 664.757812 C 481.582031 676.410156 472.132812 685.859375 460.476562 685.859375 Z M 460.476562 685.859375 " fill-opacity="1" fill-rule="nonzero"/></g><g clip-path="url(#1575619ba0)"><path fill="#142a99" d="M 270.546875 685.859375 L 460.476562 685.859375 C 472.132812 685.859375 481.582031 676.410156 481.582031 664.757812 L 481.582031 582.957031 C 451.652344 623.378906 360.761719 653.851562 249.441406 658.761719 L 249.441406 664.757812 C 249.441406 676.410156 258.890625 685.859375 270.546875 685.859375 Z M 270.546875 685.859375 " fill-opacity="1" fill-rule="nonzero"/></g><g clip-path="url(#0da81bac24)"><path fill="#efe6dd" d="M 296.925781 527.585938 L 296.925781 506.480469 C 296.925781 468.601562 327.632812 437.894531 365.511719 437.894531 C 403.390625 437.894531 434.097656 468.601562 434.097656 506.480469 L 434.097656 527.585938 L 465.753906 527.585938 L 465.753906 506.480469 C 465.753906 451.117188 420.875 406.238281 365.511719 406.238281 C 310.148438 406.238281 265.269531 451.117188 265.269531 506.480469 L 265.269531 527.585938 Z M 296.925781 527.585938 " fill-opacity="1" fill-rule="nonzero"/></g><g clip-path="url(#0916911c0e)"><path fill="#fdcf24" d="M 497.40625 590.894531 C 483.679688 608.054688 464.953125 620.515625 443.820312 626.554688 L 439.375 627.824219 L 444.300781 645.894531 C 451.308594 671.589844 467.746094 693.699219 490.328125 707.816406 L 497.40625 712.238281 L 504.484375 707.816406 C 527.070312 693.699219 543.507812 671.589844 550.515625 645.894531 L 555.441406 627.824219 L 550.992188 626.554688 C 529.863281 620.515625 511.136719 608.054688 497.40625 590.894531 Z M 497.40625 590.894531 " fill-opacity="1" fill-rule="nonzero"/></g><g clip-path="url(#5a4a88e05e)"><path fill="#f0ad1c" d="M 544.429688 624.402344 C 540.675781 655.675781 512.484375 682.066406 473.140625 694.324219 C 478.375 699.351562 484.089844 703.914062 490.328125 707.816406 L 497.40625 712.238281 L 504.484375 707.816406 C 527.070312 693.699219 543.507812 671.589844 550.515625 645.894531 L 555.441406 627.824219 L 550.992188 626.554688 C 548.773438 625.917969 546.59375 625.175781 544.429688 624.402344 Z M 544.429688 624.402344 " fill-opacity="1" fill-rule="nonzero"/></g><path fill="#fdcf24" d="M 286.375 627.824219 L 292.894531 639.984375 L 307.476562 641.933594 L 296.925781 651.394531 L 299.414062 664.757812 L 286.375 658.449219 L 273.332031 664.757812 L 275.820312 651.394531 L 265.269531 641.933594 L 279.851562 639.984375 Z M 286.375 627.824219 " fill-opacity="1" fill-rule="nonzero"/><path fill="#fdcf24" d="M 344.40625 627.824219 L 350.929688 639.984375 L 365.511719 641.933594 L 354.960938 651.394531 L 357.449219 664.757812 L 344.40625 658.449219 L 331.363281 664.757812 L 333.855469 651.394531 L 323.304688 641.933594 L 337.886719 639.984375 Z M 344.40625 627.824219 " fill-opacity="1" fill-rule="nonzero"/><path fill="#fdcf24" d="M 402.441406 627.824219 L 408.964844 639.984375 L 423.546875 641.933594 L 412.992188 651.394531 L 415.484375 664.757812 L 402.441406 658.449219 L 389.398438 664.757812 L 391.890625 651.394531 L 381.339844 641.933594 L 395.921875 639.984375 Z M 402.441406 627.824219 " fill-opacity="1" fill-rule="nonzero"/><path fill="#d6cabe" d="M 265.269531 517.03125 L 296.925781 517.03125 L 296.925781 527.585938 L 265.269531 527.585938 Z M 265.269531 517.03125 " fill-opacity="1" fill-rule="nonzero"/><path fill="#d6cabe" d="M 434.097656 517.03125 L 465.753906 517.03125 L 465.753906 527.585938 L 434.097656 527.585938 Z M 434.097656 517.03125 " fill-opacity="1" fill-rule="nonzero"/><path fill="#efe6dd" d="M 291.648438 612 C 280.011719 612 270.546875 602.53125 270.546875 590.894531 L 270.546875 564.515625 C 270.546875 552.878906 280.011719 543.410156 291.648438 543.410156 C 303.285156 543.410156 312.753906 552.878906 312.753906 564.515625 L 302.199219 564.515625 C 302.199219 558.695312 297.46875 553.964844 291.648438 553.964844 C 285.828125 553.964844 281.097656 558.695312 281.097656 564.515625 L 281.097656 590.894531 C 281.097656 596.714844 285.828125 601.445312 291.648438 601.445312 C 297.46875 601.445312 302.199219 596.714844 302.199219 590.894531 L 302.199219 585.617188 L 296.925781 585.617188 L 296.925781 575.066406 L 312.753906 575.066406 L 312.753906 590.894531 C 312.753906 602.53125 303.285156 612 291.648438 612 Z M 291.648438 612 " fill-opacity="1" fill-rule="nonzero"/><path fill="#efe6dd" d="M 339.132812 612 L 323.304688 612 L 323.304688 543.410156 L 339.132812 543.410156 C 350.769531 543.410156 360.234375 552.878906 360.234375 564.515625 L 360.234375 590.894531 C 360.234375 602.53125 350.769531 612 339.132812 612 Z M 333.855469 601.445312 L 339.132812 601.445312 C 344.953125 601.445312 349.683594 596.714844 349.683594 590.894531 L 349.683594 564.515625 C 349.683594 558.695312 344.953125 553.964844 339.132812 553.964844 L 333.855469 553.964844 Z M 333.855469 601.445312 " fill-opacity="1" fill-rule="nonzero"/><path fill="#efe6dd" d="M 381.339844 612 L 370.789062 612 L 370.789062 543.410156 L 386.613281 543.410156 C 398.25 543.410156 407.71875 552.878906 407.71875 564.515625 C 407.71875 576.152344 398.25 585.617188 386.613281 585.617188 L 381.339844 585.617188 Z M 381.339844 575.066406 L 386.613281 575.066406 C 392.433594 575.066406 397.167969 570.335938 397.167969 564.515625 C 397.167969 558.695312 392.433594 553.964844 386.613281 553.964844 L 381.339844 553.964844 Z M 381.339844 575.066406 " fill-opacity="1" fill-rule="nonzero"/><path fill="#efe6dd" d="M 455.199219 612 L 447.390625 612 L 428.820312 588.789062 L 428.820312 612 L 418.269531 612 L 418.269531 543.410156 L 434.097656 543.410156 C 445.734375 543.410156 455.199219 552.878906 455.199219 564.515625 C 455.199219 574.363281 448.421875 582.65625 439.28125 584.976562 L 452.460938 601.445312 L 455.199219 601.445312 Z M 431.355469 575.066406 L 434.097656 575.066406 C 439.917969 575.066406 444.648438 570.335938 444.648438 564.515625 C 444.648438 558.695312 439.917969 553.964844 434.097656 553.964844 L 428.820312 553.964844 L 428.820312 575.066406 Z M 431.355469 575.066406 " fill-opacity="1" fill-rule="nonzero"/><path fill="#272734" d="M 486.855469 677.492188 L 467.296875 657.933594 L 474.757812 650.476562 L 486.855469 662.570312 L 520.058594 629.371094 L 527.515625 636.832031 Z M 486.855469 677.492188 " fill-opacity="1" fill-rule="nonzero"/><g mask="url(#816ec26c84)"><g transform="matrix(1, 0, 0, 1, 173, 108)"><g clip-path="url(#fcff0b0a11)"><g fill="#000000" fill-opacity="1"><g transform="translate(81.606277, 46.233353)"><g><path d="M 18.515625 -18.46875 L 33.703125 -18.46875 L 33.703125 0 L 30.671875 0 L 29.53125 -4.46875 C 28.0625 -2.582031 26.332031 -1.210938 24.34375 -0.359375 C 22.351562 0.492188 20.285156 0.921875 18.140625 0.921875 C 14.679688 0.921875 11.785156 0.164062 9.453125 -1.34375 C 7.128906 -2.863281 5.320312 -4.953125 4.03125 -7.609375 C 2.75 -10.273438 2.109375 -13.597656 2.109375 -17.578125 C 2.109375 -22.546875 3.582031 -26.765625 6.53125 -30.234375 C 9.488281 -33.710938 13.46875 -35.453125 18.46875 -35.453125 C 22.195312 -35.453125 25.453125 -34.410156 28.234375 -32.328125 C 31.023438 -30.242188 32.648438 -27.488281 33.109375 -24.0625 L 28.59375 -24.0625 C 28.050781 -26.332031 26.894531 -28.109375 25.125 -29.390625 C 23.351562 -30.679688 21.054688 -31.328125 18.234375 -31.328125 C 14.835938 -31.328125 12.101562 -30.046875 10.03125 -27.484375 C 7.96875 -24.921875 6.9375 -21.53125 6.9375 -17.3125 C 6.9375 -12.414062 7.960938 -8.816406 10.015625 -6.515625 C 12.066406 -4.222656 14.867188 -3.078125 18.421875 -3.078125 C 20.742188 -3.078125 22.707031 -3.535156 24.3125 -4.453125 C 25.914062 -5.367188 27.144531 -6.613281 28 -8.1875 C 28.863281 -9.757812 29.296875 -11.851562 29.296875 -14.46875 L 18.515625 -14.46875 Z M 18.515625 -18.46875 "/></g></g></g><g fill="#000000" fill-opacity="1"><g transform="translate(117.268166, 46.233353)"><g><path d="M 20.4375 -14.59375 C 20.21875 -17.320312 19.5 -19.253906 18.28125 -20.390625 C 17.0625 -21.523438 15.441406 -22.09375 13.421875 -22.09375 C 11.367188 -22.09375 9.710938 -21.367188 8.453125 -19.921875 C 7.191406 -18.484375 6.519531 -16.707031 6.4375 -14.59375 Z M 24.484375 -7.890625 C 24.015625 -5.296875 22.738281 -3.144531 20.65625 -1.4375 C 18.820312 0.0078125 16.410156 0.75 13.421875 0.78125 C 9.890625 0.75 7.085938 -0.40625 5.015625 -2.6875 C 2.953125 -4.96875 1.921875 -8.035156 1.921875 -11.890625 C 1.921875 -16.304688 2.984375 -19.742188 5.109375 -22.203125 C 7.242188 -24.660156 10.207031 -25.890625 14 -25.890625 C 17.40625 -25.890625 20.0625 -24.617188 21.96875 -22.078125 C 23.882812 -19.546875 24.84375 -15.921875 24.84375 -11.203125 L 6.4375 -11.203125 C 6.4375 -8.578125 7.046875 -6.539062 8.265625 -5.09375 C 9.492188 -3.65625 11.328125 -2.9375 13.765625 -2.9375 C 15.492188 -2.9375 16.972656 -3.457031 18.203125 -4.5 C 19.441406 -5.539062 20.125 -6.671875 20.25 -7.890625 Z M 24.484375 -7.890625 "/></g></g></g><g fill="#000000" fill-opacity="1"><g transform="translate(142.496216, 46.233353)"><g><path d="M 23.6875 0 L 19.4375 0 L 19.4375 -15.484375 C 19.4375 -17.867188 19.019531 -19.566406 18.1875 -20.578125 C 17.351562 -21.585938 15.972656 -22.09375 14.046875 -22.09375 C 12.148438 -22.09375 10.566406 -21.367188 9.296875 -19.921875 C 8.035156 -18.484375 7.40625 -16.414062 7.40625 -13.71875 L 7.40625 0 L 3.171875 0 L 3.171875 -25.171875 L 7.171875 -25.171875 L 7.171875 -21.625 L 7.265625 -21.625 C 9.253906 -24.46875 11.789062 -25.890625 14.875 -25.890625 C 17.726562 -25.890625 19.910156 -25.132812 21.421875 -23.625 C 22.929688 -22.113281 23.6875 -19.945312 23.6875 -17.125 Z M 23.6875 0 "/></g></g></g><g fill="#000000" fill-opacity="1"><g transform="translate(167.606767, 46.233353)"><g><path d="M 20.4375 -14.59375 C 20.21875 -17.320312 19.5 -19.253906 18.28125 -20.390625 C 17.0625 -21.523438 15.441406 -22.09375 13.421875 -22.09375 C 11.367188 -22.09375 9.710938 -21.367188 8.453125 -19.921875 C 7.191406 -18.484375 6.519531 -16.707031 6.4375 -14.59375 Z M 24.484375 -7.890625 C 24.015625 -5.296875 22.738281 -3.144531 20.65625 -1.4375 C 18.820312 0.0078125 16.410156 0.75 13.421875 0.78125 C 9.890625 0.75 7.085938 -0.40625 5.015625 -2.6875 C 2.953125 -4.96875 1.921875 -8.035156 1.921875 -11.890625 C 1.921875 -16.304688 2.984375 -19.742188 5.109375 -22.203125 C 7.242188 -24.660156 10.207031 -25.890625 14 -25.890625 C 17.40625 -25.890625 20.0625 -24.617188 21.96875 -22.078125 C 23.882812 -19.546875 24.84375 -15.921875 24.84375 -11.203125 L 6.4375 -11.203125 C 6.4375 -8.578125 7.046875 -6.539062 8.265625 -5.09375 C 9.492188 -3.65625 11.328125 -2.9375 13.765625 -2.9375 C 15.492188 -2.9375 16.972656 -3.457031 18.203125 -4.5 C 19.441406 -5.539062 20.125 -6.671875 20.25 -7.890625 Z M 24.484375 -7.890625 "/></g></g></g><g fill="#000000" fill-opacity="1"><g transform="translate(192.834817, 46.233353)"><g><path d="M 7.40625 0 L 3.171875 0 L 3.171875 -25.171875 L 7.171875 -25.171875 L 7.171875 -20.984375 L 7.265625 -20.984375 C 9.097656 -24.253906 11.453125 -25.890625 14.328125 -25.890625 C 14.785156 -25.890625 15.15625 -25.84375 15.4375 -25.75 L 15.4375 -21.359375 L 13.859375 -21.359375 C 11.960938 -21.359375 10.410156 -20.710938 9.203125 -19.421875 C 8.003906 -18.140625 7.40625 -16.546875 7.40625 -14.640625 Z M 7.40625 0 "/></g></g></g><g fill="#000000" fill-opacity="1"><g transform="translate(207.065034, 46.233353)"><g><path d="M 18.46875 -12.859375 C 18.15625 -12.523438 17.539062 -12.253906 16.625 -12.046875 C 15.707031 -11.847656 13.992188 -11.582031 11.484375 -11.25 C 9.640625 -11.03125 8.28125 -10.578125 7.40625 -9.890625 C 6.539062 -9.203125 6.109375 -8.296875 6.109375 -7.171875 C 6.109375 -5.785156 6.472656 -4.707031 7.203125 -3.9375 C 7.941406 -3.175781 9.117188 -2.796875 10.734375 -2.796875 C 12.753906 -2.796875 14.546875 -3.367188 16.109375 -4.515625 C 17.679688 -5.671875 18.46875 -7.070312 18.46875 -8.71875 Z M 2.984375 -17.5 C 3.078125 -20.34375 3.992188 -22.453125 5.734375 -23.828125 C 7.484375 -25.203125 10.03125 -25.890625 13.375 -25.890625 C 16.03125 -25.890625 18.257812 -25.285156 20.0625 -24.078125 C 21.863281 -22.878906 22.765625 -21.144531 22.765625 -18.875 L 22.765625 -4.375 C 22.765625 -3.382812 23.210938 -2.890625 24.109375 -2.890625 C 24.472656 -2.890625 24.9375 -2.953125 25.5 -3.078125 L 25.5 0 C 24.726562 0.3125 23.925781 0.46875 23.09375 0.46875 C 21.65625 0.46875 20.582031 0.160156 19.875 -0.453125 C 19.175781 -1.078125 18.8125 -2.046875 18.78125 -3.359375 C 16.363281 -0.628906 13.332031 0.734375 9.6875 0.734375 C 7.300781 0.734375 5.382812 0.0625 3.9375 -1.28125 C 2.5 -2.632812 1.78125 -4.394531 1.78125 -6.5625 C 1.78125 -8.769531 2.40625 -10.550781 3.65625 -11.90625 C 4.914062 -13.269531 6.742188 -14.09375 9.140625 -14.375 L 16.609375 -15.296875 C 17.960938 -15.503906 18.640625 -16.5 18.640625 -18.28125 C 18.640625 -19.59375 18.148438 -20.601562 17.171875 -21.3125 C 16.191406 -22.019531 14.707031 -22.375 12.71875 -22.375 C 10.945312 -22.375 9.585938 -21.976562 8.640625 -21.1875 C 7.691406 -20.40625 7.125 -19.175781 6.9375 -17.5 Z M 2.984375 -17.5 "/></g></g></g><g fill="#000000" fill-opacity="1"><g transform="translate(232.058087, 46.233353)"><g><path d="M 7.40625 0 L 3.171875 0 L 3.171875 -34.546875 L 7.40625 -34.546875 Z M 7.40625 0 "/></g></g></g><g fill="#000000" fill-opacity="1"><g transform="translate(241.212381, 46.233353)"><g/></g></g><g fill="#000000" fill-opacity="1"><g transform="translate(251.518158, 46.233353)"><g><path d="M 8.578125 -4 L 17.625 -4 C 20.757812 -4 23.210938 -5.195312 24.984375 -7.59375 C 26.753906 -10 27.640625 -13.285156 27.640625 -17.453125 C 27.640625 -21.578125 26.742188 -24.78125 24.953125 -27.0625 C 23.171875 -29.351562 20.59375 -30.515625 17.21875 -30.546875 L 8.578125 -30.546875 Z M 3.90625 -34.546875 L 17.90625 -34.546875 C 22.4375 -34.546875 25.976562 -32.988281 28.53125 -29.875 C 31.09375 -26.769531 32.375 -22.734375 32.375 -17.765625 C 32.375 -12.441406 31.09375 -8.148438 28.53125 -4.890625 C 25.976562 -1.628906 22.375 0 17.71875 0 L 3.90625 0 Z M 3.90625 -34.546875 "/></g></g></g><g fill="#000000" fill-opacity="1"><g transform="translate(284.736074, 46.233353)"><g><path d="M 18.46875 -12.859375 C 18.15625 -12.523438 17.539062 -12.253906 16.625 -12.046875 C 15.707031 -11.847656 13.992188 -11.582031 11.484375 -11.25 C 9.640625 -11.03125 8.28125 -10.578125 7.40625 -9.890625 C 6.539062 -9.203125 6.109375 -8.296875 6.109375 -7.171875 C 6.109375 -5.785156 6.472656 -4.707031 7.203125 -3.9375 C 7.941406 -3.175781 9.117188 -2.796875 10.734375 -2.796875 C 12.753906 -2.796875 14.546875 -3.367188 16.109375 -4.515625 C 17.679688 -5.671875 18.46875 -7.070312 18.46875 -8.71875 Z M 2.984375 -17.5 C 3.078125 -20.34375 3.992188 -22.453125 5.734375 -23.828125 C 7.484375 -25.203125 10.03125 -25.890625 13.375 -25.890625 C 16.03125 -25.890625 18.257812 -25.285156 20.0625 -24.078125 C 21.863281 -22.878906 22.765625 -21.144531 22.765625 -18.875 L 22.765625 -4.375 C 22.765625 -3.382812 23.210938 -2.890625 24.109375 -2.890625 C 24.472656 -2.890625 24.9375 -2.953125 25.5 -3.078125 L 25.5 0 C 24.726562 0.3125 23.925781 0.46875 23.09375 0.46875 C 21.65625 0.46875 20.582031 0.160156 19.875 -0.453125 C 19.175781 -1.078125 18.8125 -2.046875 18.78125 -3.359375 C 16.363281 -0.628906 13.332031 0.734375 9.6875 0.734375 C 7.300781 0.734375 5.382812 0.0625 3.9375 -1.28125 C 2.5 -2.632812 1.78125 -4.394531 1.78125 -6.5625 C 1.78125 -8.769531 2.40625 -10.550781 3.65625 -11.90625 C 4.914062 -13.269531 6.742188 -14.09375 9.140625 -14.375 L 16.609375 -15.296875 C 17.960938 -15.503906 18.640625 -16.5 18.640625 -18.28125 C 18.640625 -19.59375 18.148438 -20.601562 17.171875 -21.3125 C 16.191406 -22.019531 14.707031 -22.375 12.71875 -22.375 C 10.945312 -22.375 9.585938 -21.976562 8.640625 -21.1875 C 7.691406 -20.40625 7.125 -19.175781 6.9375 -17.5 Z M 2.984375 -17.5 "/></g></g></g><g fill="#000000" fill-opacity="1"><g transform="translate(309.729116, 46.233353)"><g><path d="M 8.265625 -21.671875 L 8.265625 -5.28125 C 8.265625 -4.644531 8.441406 -4.15625 8.796875 -3.8125 C 9.148438 -3.476562 9.78125 -3.3125 10.6875 -3.3125 L 12.3125 -3.3125 L 12.3125 0 C 10.78125 0.21875 9.722656 0.328125 9.140625 0.328125 C 7.367188 0.328125 6.078125 -0.09375 5.265625 -0.9375 C 4.453125 -1.78125 4.046875 -3.148438 4.046875 -5.046875 L 4.046875 -21.671875 L 0.640625 -21.671875 L 0.640625 -25.171875 L 4.046875 -25.171875 L 4.046875 -32.1875 L 8.265625 -32.1875 L 8.265625 -25.171875 L 12.3125 -25.171875 L 12.3125 -21.671875 Z M 8.265625 -21.671875 "/></g></g></g><g fill="#000000" fill-opacity="1"><g transform="translate(321.60938, 46.233353)"><g><path d="M 18.46875 -12.859375 C 18.15625 -12.523438 17.539062 -12.253906 16.625 -12.046875 C 15.707031 -11.847656 13.992188 -11.582031 11.484375 -11.25 C 9.640625 -11.03125 8.28125 -10.578125 7.40625 -9.890625 C 6.539062 -9.203125 6.109375 -8.296875 6.109375 -7.171875 C 6.109375 -5.785156 6.472656 -4.707031 7.203125 -3.9375 C 7.941406 -3.175781 9.117188 -2.796875 10.734375 -2.796875 C 12.753906 -2.796875 14.546875 -3.367188 16.109375 -4.515625 C 17.679688 -5.671875 18.46875 -7.070312 18.46875 -8.71875 Z M 2.984375 -17.5 C 3.078125 -20.34375 3.992188 -22.453125 5.734375 -23.828125 C 7.484375 -25.203125 10.03125 -25.890625 13.375 -25.890625 C 16.03125 -25.890625 18.257812 -25.285156 20.0625 -24.078125 C 21.863281 -22.878906 22.765625 -21.144531 22.765625 -18.875 L 22.765625 -4.375 C 22.765625 -3.382812 23.210938 -2.890625 24.109375 -2.890625 C 24.472656 -2.890625 24.9375 -2.953125 25.5 -3.078125 L 25.5 0 C 24.726562 0.3125 23.925781 0.46875 23.09375 0.46875 C 21.65625 0.46875 20.582031 0.160156 19.875 -0.453125 C 19.175781 -1.078125 18.8125 -2.046875 18.78125 -3.359375 C 16.363281 -0.628906 13.332031 0.734375 9.6875 0.734375 C 7.300781 0.734375 5.382812 0.0625 3.9375 -1.28125 C 2.5 -2.632812 1.78125 -4.394531 1.78125 -6.5625 C 1.78125 -8.769531 2.40625 -10.550781 3.65625 -11.90625 C 4.914062 -13.269531 6.742188 -14.09375 9.140625 -14.375 L 16.609375 -15.296875 C 17.960938 -15.503906 18.640625 -16.5 18.640625 -18.28125 C 18.640625 -19.59375 18.148438 -20.601562 17.171875 -21.3125 C 16.191406 -22.019531 14.707031 -22.375 12.71875 -22.375 C 10.945312 -22.375 9.585938 -21.976562 8.640625 -21.1875 C 7.691406 -20.40625 7.125 -19.175781 6.9375 -17.5 Z M 2.984375 -17.5 "/></g></g></g><g fill="#000000" fill-opacity="1"><g transform="translate(346.610839, 46.233353)"><g/></g></g><g fill="#000000" fill-opacity="1"><g transform="translate(1.157254, 109.771271)"><g><path d="M 8.578125 -18.59375 L 17.859375 -18.59375 C 20.191406 -18.59375 21.945312 -19.101562 23.125 -20.125 C 24.300781 -21.15625 24.890625 -22.710938 24.890625 -24.796875 C 24.890625 -26.660156 24.320312 -28.082031 23.1875 -29.0625 C 22.0625 -30.050781 20.347656 -30.546875 18.046875 -30.546875 L 8.578125 -30.546875 Z M 8.578125 0 L 3.90625 0 L 3.90625 -34.546875 L 19.4375 -34.546875 C 22.519531 -34.546875 25 -33.644531 26.875 -31.84375 C 28.757812 -30.050781 29.703125 -27.71875 29.703125 -24.84375 C 29.703125 -21.84375 28.789062 -19.382812 26.96875 -17.46875 C 25.15625 -15.550781 22.644531 -14.59375 19.4375 -14.59375 L 8.578125 -14.59375 Z M 8.578125 0 "/></g></g></g><g fill="#000000" fill-opacity="1"><g transform="translate(30.826736, 109.771271)"><g><path d="M 7.40625 0 L 3.171875 0 L 3.171875 -25.171875 L 7.171875 -25.171875 L 7.171875 -20.984375 L 7.265625 -20.984375 C 9.097656 -24.253906 11.453125 -25.890625 14.328125 -25.890625 C 14.785156 -25.890625 15.15625 -25.84375 15.4375 -25.75 L 15.4375 -21.359375 L 13.859375 -21.359375 C 11.960938 -21.359375 10.410156 -20.710938 9.203125 -19.421875 C 8.003906 -18.140625 7.40625 -16.546875 7.40625 -14.640625 Z M 7.40625 0 "/></g></g></g><g fill="#000000" fill-opacity="1"><g transform="translate(45.056953, 109.771271)"><g><path d="M 6.109375 -12.625 C 6.109375 -9.8125 6.742188 -7.5 8.015625 -5.6875 C 9.285156 -3.882812 11.085938 -2.984375 13.421875 -2.984375 C 15.828125 -2.984375 17.65625 -3.929688 18.90625 -5.828125 C 20.164062 -7.722656 20.796875 -9.988281 20.796875 -12.625 C 20.796875 -15.28125 20.164062 -17.535156 18.90625 -19.390625 C 17.65625 -21.253906 15.828125 -22.1875 13.421875 -22.1875 C 11.179688 -22.1875 9.398438 -21.3125 8.078125 -19.5625 C 6.765625 -17.8125 6.109375 -15.5 6.109375 -12.625 Z M 1.78125 -12.625 C 1.78125 -16.363281 2.820312 -19.507812 4.90625 -22.0625 C 6.988281 -24.613281 9.828125 -25.890625 13.421875 -25.890625 C 17.085938 -25.890625 19.953125 -24.597656 22.015625 -22.015625 C 24.085938 -19.429688 25.125 -16.300781 25.125 -12.625 C 25.125 -8.925781 24.097656 -5.773438 22.046875 -3.171875 C 19.992188 -0.566406 17.117188 0.734375 13.421875 0.734375 C 9.859375 0.734375 7.023438 -0.523438 4.921875 -3.046875 C 2.828125 -5.578125 1.78125 -8.769531 1.78125 -12.625 Z M 1.78125 -12.625 "/></g></g></g><g fill="#000000" fill-opacity="1"><g transform="translate(70.519999, 109.771271)"><g><path d="M 8.265625 -21.671875 L 8.265625 -5.28125 C 8.265625 -4.644531 8.441406 -4.15625 8.796875 -3.8125 C 9.148438 -3.476562 9.78125 -3.3125 10.6875 -3.3125 L 12.3125 -3.3125 L 12.3125 0 C 10.78125 0.21875 9.722656 0.328125 9.140625 0.328125 C 7.367188 0.328125 6.078125 -0.09375 5.265625 -0.9375 C 4.453125 -1.78125 4.046875 -3.148438 4.046875 -5.046875 L 4.046875 -21.671875 L 0.640625 -21.671875 L 0.640625 -25.171875 L 4.046875 -25.171875 L 4.046875 -32.1875 L 8.265625 -32.1875 L 8.265625 -25.171875 L 12.3125 -25.171875 L 12.3125 -21.671875 Z M 8.265625 -21.671875 "/></g></g></g><g fill="#000000" fill-opacity="1"><g transform="translate(82.400252, 109.771271)"><g><path d="M 20.4375 -14.59375 C 20.21875 -17.320312 19.5 -19.253906 18.28125 -20.390625 C 17.0625 -21.523438 15.441406 -22.09375 13.421875 -22.09375 C 11.367188 -22.09375 9.710938 -21.367188 8.453125 -19.921875 C 7.191406 -18.484375 6.519531 -16.707031 6.4375 -14.59375 Z M 24.484375 -7.890625 C 24.015625 -5.296875 22.738281 -3.144531 20.65625 -1.4375 C 18.820312 0.0078125 16.410156 0.75 13.421875 0.78125 C 9.890625 0.75 7.085938 -0.40625 5.015625 -2.6875 C 2.953125 -4.96875 1.921875 -8.035156 1.921875 -11.890625 C 1.921875 -16.304688 2.984375 -19.742188 5.109375 -22.203125 C 7.242188 -24.660156 10.207031 -25.890625 14 -25.890625 C 17.40625 -25.890625 20.0625 -24.617188 21.96875 -22.078125 C 23.882812 -19.546875 24.84375 -15.921875 24.84375 -11.203125 L 6.4375 -11.203125 C 6.4375 -8.578125 7.046875 -6.539062 8.265625 -5.09375 C 9.492188 -3.65625 11.328125 -2.9375 13.765625 -2.9375 C 15.492188 -2.9375 16.972656 -3.457031 18.203125 -4.5 C 19.441406 -5.539062 20.125 -6.671875 20.25 -7.890625 Z M 24.484375 -7.890625 "/></g></g></g><g fill="#000000" fill-opacity="1"><g transform="translate(107.628301, 109.771271)"><g><path d="M 19.0625 -16.703125 C 18.445312 -20.296875 16.457031 -22.09375 13.09375 -22.09375 C 11.007812 -22.09375 9.332031 -21.253906 8.0625 -19.578125 C 6.789062 -17.910156 6.15625 -15.59375 6.15625 -12.625 C 6.15625 -9.375 6.742188 -6.945312 7.921875 -5.34375 C 9.097656 -3.738281 10.804688 -2.9375 13.046875 -2.9375 C 14.546875 -2.9375 15.84375 -3.488281 16.9375 -4.59375 C 18.039062 -5.695312 18.75 -7.132812 19.0625 -8.90625 L 23.140625 -8.90625 C 22.722656 -5.789062 21.625 -3.40625 19.84375 -1.75 C 18.0625 -0.09375 15.765625 0.734375 12.953125 0.734375 C 9.640625 0.734375 6.925781 -0.394531 4.8125 -2.65625 C 2.695312 -4.925781 1.640625 -8.003906 1.640625 -11.890625 C 1.640625 -16.148438 2.695312 -19.546875 4.8125 -22.078125 C 6.925781 -24.617188 9.894531 -25.890625 13.71875 -25.890625 C 16.507812 -25.890625 18.726562 -25.054688 20.375 -23.390625 C 22.03125 -21.722656 22.953125 -19.492188 23.140625 -16.703125 Z M 19.0625 -16.703125 "/></g></g></g><g fill="#000000" fill-opacity="1"><g transform="translate(130.858881, 109.771271)"><g><path d="M 8.265625 -21.671875 L 8.265625 -5.28125 C 8.265625 -4.644531 8.441406 -4.15625 8.796875 -3.8125 C 9.148438 -3.476562 9.78125 -3.3125 10.6875 -3.3125 L 12.3125 -3.3125 L 12.3125 0 C 10.78125 0.21875 9.722656 0.328125 9.140625 0.328125 C 7.367188 0.328125 6.078125 -0.09375 5.265625 -0.9375 C 4.453125 -1.78125 4.046875 -3.148438 4.046875 -5.046875 L 4.046875 -21.671875 L 0.640625 -21.671875 L 0.640625 -25.171875 L 4.046875 -25.171875 L 4.046875 -32.1875 L 8.265625 -32.1875 L 8.265625 -25.171875 L 12.3125 -25.171875 L 12.3125 -21.671875 Z M 8.265625 -21.671875 "/></g></g></g><g fill="#000000" fill-opacity="1"><g transform="translate(142.739134, 109.771271)"><g><path d="M 3.171875 -29.75 L 3.171875 -34.546875 L 7.40625 -34.546875 L 7.40625 -29.75 Z M 7.40625 0 L 3.171875 0 L 3.171875 -25.171875 L 7.40625 -25.171875 Z M 7.40625 0 "/></g></g></g><g fill="#000000" fill-opacity="1"><g transform="translate(151.893429, 109.771271)"><g><path d="M 6.109375 -12.625 C 6.109375 -9.8125 6.742188 -7.5 8.015625 -5.6875 C 9.285156 -3.882812 11.085938 -2.984375 13.421875 -2.984375 C 15.828125 -2.984375 17.65625 -3.929688 18.90625 -5.828125 C 20.164062 -7.722656 20.796875 -9.988281 20.796875 -12.625 C 20.796875 -15.28125 20.164062 -17.535156 18.90625 -19.390625 C 17.65625 -21.253906 15.828125 -22.1875 13.421875 -22.1875 C 11.179688 -22.1875 9.398438 -21.3125 8.078125 -19.5625 C 6.765625 -17.8125 6.109375 -15.5 6.109375 -12.625 Z M 1.78125 -12.625 C 1.78125 -16.363281 2.820312 -19.507812 4.90625 -22.0625 C 6.988281 -24.613281 9.828125 -25.890625 13.421875 -25.890625 C 17.085938 -25.890625 19.953125 -24.597656 22.015625 -22.015625 C 24.085938 -19.429688 25.125 -16.300781 25.125 -12.625 C 25.125 -8.925781 24.097656 -5.773438 22.046875 -3.171875 C 19.992188 -0.566406 17.117188 0.734375 13.421875 0.734375 C 9.859375 0.734375 7.023438 -0.523438 4.921875 -3.046875 C 2.828125 -5.578125 1.78125 -8.769531 1.78125 -12.625 Z M 1.78125 -12.625 "/></g></g></g><g fill="#000000" fill-opacity="1"><g transform="translate(177.356475, 109.771271)"><g><path d="M 23.6875 0 L 19.4375 0 L 19.4375 -15.484375 C 19.4375 -17.867188 19.019531 -19.566406 18.1875 -20.578125 C 17.351562 -21.585938 15.972656 -22.09375 14.046875 -22.09375 C 12.148438 -22.09375 10.566406 -21.367188 9.296875 -19.921875 C 8.035156 -18.484375 7.40625 -16.414062 7.40625 -13.71875 L 7.40625 0 L 3.171875 0 L 3.171875 -25.171875 L 7.171875 -25.171875 L 7.171875 -21.625 L 7.265625 -21.625 C 9.253906 -24.46875 11.789062 -25.890625 14.875 -25.890625 C 17.726562 -25.890625 19.910156 -25.132812 21.421875 -23.625 C 22.929688 -22.113281 23.6875 -19.945312 23.6875 -17.125 Z M 23.6875 0 "/></g></g></g><g fill="#000000" fill-opacity="1"><g transform="translate(202.467014, 109.771271)"><g/></g></g><g fill="#000000" fill-opacity="1"><g transform="translate(212.772791, 109.771271)"><g><path d="M 8.578125 -18.828125 L 19.390625 -18.828125 C 21.890625 -18.828125 23.679688 -19.335938 24.765625 -20.359375 C 25.859375 -21.390625 26.40625 -22.867188 26.40625 -24.796875 C 26.40625 -26.546875 25.9375 -27.941406 25 -28.984375 C 24.0625 -30.023438 22.445312 -30.546875 20.15625 -30.546875 L 8.578125 -30.546875 Z M 8.578125 0 L 3.90625 0 L 3.90625 -34.546875 L 19.875 -34.546875 C 23.59375 -34.546875 26.40625 -33.753906 28.3125 -32.171875 C 30.226562 -30.585938 31.1875 -28.285156 31.1875 -25.265625 C 31.1875 -23.273438 30.800781 -21.613281 30.03125 -20.28125 C 29.257812 -18.945312 28.050781 -17.847656 26.40625 -16.984375 C 27.820312 -16.472656 28.84375 -15.75 29.46875 -14.8125 C 30.09375 -13.882812 30.453125 -12.441406 30.546875 -10.484375 L 30.859375 -4.046875 C 30.890625 -2.972656 31.054688 -2.222656 31.359375 -1.796875 C 31.660156 -1.367188 32.085938 -1.03125 32.640625 -0.78125 L 32.640625 0 L 26.859375 0 C 26.554688 -0.863281 26.34375 -2.171875 26.21875 -3.921875 C 26.09375 -5.679688 26.03125 -7.265625 26.03125 -8.671875 C 26.03125 -9.378906 25.96875 -10.097656 25.84375 -10.828125 C 25.71875 -11.566406 25.441406 -12.234375 25.015625 -12.828125 C 24.597656 -13.421875 23.984375 -13.898438 23.171875 -14.265625 C 22.359375 -14.640625 21.257812 -14.828125 19.875 -14.828125 L 8.578125 -14.828125 Z M 8.578125 0 "/></g></g></g><g fill="#000000" fill-opacity="1"><g transform="translate(245.685223, 109.771271)"><g><path d="M 20.4375 -14.59375 C 20.21875 -17.320312 19.5 -19.253906 18.28125 -20.390625 C 17.0625 -21.523438 15.441406 -22.09375 13.421875 -22.09375 C 11.367188 -22.09375 9.710938 -21.367188 8.453125 -19.921875 C 7.191406 -18.484375 6.519531 -16.707031 6.4375 -14.59375 Z M 24.484375 -7.890625 C 24.015625 -5.296875 22.738281 -3.144531 20.65625 -1.4375 C 18.820312 0.0078125 16.410156 0.75 13.421875 0.78125 C 9.890625 0.75 7.085938 -0.40625 5.015625 -2.6875 C 2.953125 -4.96875 1.921875 -8.035156 1.921875 -11.890625 C 1.921875 -16.304688 2.984375 -19.742188 5.109375 -22.203125 C 7.242188 -24.660156 10.207031 -25.890625 14 -25.890625 C 17.40625 -25.890625 20.0625 -24.617188 21.96875 -22.078125 C 23.882812 -19.546875 24.84375 -15.921875 24.84375 -11.203125 L 6.4375 -11.203125 C 6.4375 -8.578125 7.046875 -6.539062 8.265625 -5.09375 C 9.492188 -3.65625 11.328125 -2.9375 13.765625 -2.9375 C 15.492188 -2.9375 16.972656 -3.457031 18.203125 -4.5 C 19.441406 -5.539062 20.125 -6.671875 20.25 -7.890625 Z M 24.484375 -7.890625 "/></g></g></g><g fill="#000000" fill-opacity="1"><g transform="translate(270.913261, 109.771271)"><g><path d="M 6.25 -12.671875 C 6.25 -9.578125 6.859375 -7.179688 8.078125 -5.484375 C 9.304688 -3.785156 10.960938 -2.9375 13.046875 -2.9375 C 15.066406 -2.9375 16.71875 -3.671875 18 -5.140625 C 19.28125 -6.617188 19.921875 -8.703125 19.921875 -11.390625 C 19.921875 -14.929688 19.359375 -17.597656 18.234375 -19.390625 C 17.117188 -21.191406 15.421875 -22.09375 13.140625 -22.09375 C 10.835938 -22.09375 9.113281 -21.328125 7.96875 -19.796875 C 6.820312 -18.265625 6.25 -15.890625 6.25 -12.671875 Z M 23.96875 -1.4375 C 23.96875 2.601562 22.992188 5.617188 21.046875 7.609375 C 19.109375 9.597656 16.179688 10.59375 12.265625 10.59375 C 9.441406 10.59375 7.195312 9.941406 5.53125 8.640625 C 3.863281 7.347656 2.90625 5.492188 2.65625 3.078125 L 6.890625 3.078125 C 7.109375 4.296875 7.675781 5.265625 8.59375 5.984375 C 9.507812 6.710938 10.835938 7.078125 12.578125 7.078125 C 14.941406 7.078125 16.722656 6.441406 17.921875 5.171875 C 19.128906 3.898438 19.734375 1.835938 19.734375 -1.015625 L 19.734375 -2.796875 L 19.640625 -2.796875 C 18.054688 -0.441406 15.828125 0.734375 12.953125 0.734375 C 9.359375 0.734375 6.613281 -0.585938 4.71875 -3.234375 C 2.820312 -5.890625 1.875 -9.253906 1.875 -13.328125 C 1.875 -17.054688 2.828125 -20.082031 4.734375 -22.40625 C 6.648438 -24.726562 9.191406 -25.890625 12.359375 -25.890625 C 15.535156 -25.890625 18.039062 -24.46875 19.875 -21.625 L 19.96875 -21.625 L 19.96875 -25.171875 L 23.96875 -25.171875 Z M 23.96875 -1.4375 "/></g></g></g><g fill="#000000" fill-opacity="1"><g transform="translate(296.376296, 109.771271)"><g><path d="M 2.9375 -25.171875 L 7.171875 -25.171875 L 7.171875 -8.453125 C 7.171875 -6.609375 7.585938 -5.226562 8.421875 -4.3125 C 9.265625 -3.394531 10.46875 -2.9375 12.03125 -2.9375 C 14.207031 -2.9375 15.90625 -3.707031 17.125 -5.25 C 18.351562 -6.789062 18.96875 -8.804688 18.96875 -11.296875 L 18.96875 -25.171875 L 23.1875 -25.171875 L 23.1875 0 L 19.203125 0 L 19.203125 -3.671875 L 19.109375 -3.765625 C 17.503906 -0.765625 14.835938 0.734375 11.109375 0.734375 C 8.703125 0.734375 6.738281 0.078125 5.21875 -1.234375 C 3.695312 -2.554688 2.9375 -4.503906 2.9375 -7.078125 Z M 2.9375 -25.171875 "/></g></g></g><g fill="#000000" fill-opacity="1"><g transform="translate(321.29885, 109.771271)"><g><path d="M 7.40625 0 L 3.171875 0 L 3.171875 -34.546875 L 7.40625 -34.546875 Z M 7.40625 0 "/></g></g></g><g fill="#000000" fill-opacity="1"><g transform="translate(330.453134, 109.771271)"><g><path d="M 18.46875 -12.859375 C 18.15625 -12.523438 17.539062 -12.253906 16.625 -12.046875 C 15.707031 -11.847656 13.992188 -11.582031 11.484375 -11.25 C 9.640625 -11.03125 8.28125 -10.578125 7.40625 -9.890625 C 6.539062 -9.203125 6.109375 -8.296875 6.109375 -7.171875 C 6.109375 -5.785156 6.472656 -4.707031 7.203125 -3.9375 C 7.941406 -3.175781 9.117188 -2.796875 10.734375 -2.796875 C 12.753906 -2.796875 14.546875 -3.367188 16.109375 -4.515625 C 17.679688 -5.671875 18.46875 -7.070312 18.46875 -8.71875 Z M 2.984375 -17.5 C 3.078125 -20.34375 3.992188 -22.453125 5.734375 -23.828125 C 7.484375 -25.203125 10.03125 -25.890625 13.375 -25.890625 C 16.03125 -25.890625 18.257812 -25.285156 20.0625 -24.078125 C 21.863281 -22.878906 22.765625 -21.144531 22.765625 -18.875 L 22.765625 -4.375 C 22.765625 -3.382812 23.210938 -2.890625 24.109375 -2.890625 C 24.472656 -2.890625 24.9375 -2.953125 25.5 -3.078125 L 25.5 0 C 24.726562 0.3125 23.925781 0.46875 23.09375 0.46875 C 21.65625 0.46875 20.582031 0.160156 19.875 -0.453125 C 19.175781 -1.078125 18.8125 -2.046875 18.78125 -3.359375 C 16.363281 -0.628906 13.332031 0.734375 9.6875 0.734375 C 7.300781 0.734375 5.382812 0.0625 3.9375 -1.28125 C 2.5 -2.632812 1.78125 -4.394531 1.78125 -6.5625 C 1.78125 -8.769531 2.40625 -10.550781 3.65625 -11.90625 C 4.914062 -13.269531 6.742188 -14.09375 9.140625 -14.375 L 16.609375 -15.296875 C 17.960938 -15.503906 18.640625 -16.5 18.640625 -18.28125 C 18.640625 -19.59375 18.148438 -20.601562 17.171875 -21.3125 C 16.191406 -22.019531 14.707031 -22.375 12.71875 -22.375 C 10.945312 -22.375 9.585938 -21.976562 8.640625 -21.1875 C 7.691406 -20.40625 7.125 -19.175781 6.9375 -17.5 Z M 2.984375 -17.5 "/></g></g></g><g fill="#000000" fill-opacity="1"><g transform="translate(355.446175, 109.771271)"><g><path d="M 8.265625 -21.671875 L 8.265625 -5.28125 C 8.265625 -4.644531 8.441406 -4.15625 8.796875 -3.8125 C 9.148438 -3.476562 9.78125 -3.3125 10.6875 -3.3125 L 12.3125 -3.3125 L 12.3125 0 C 10.78125 0.21875 9.722656 0.328125 9.140625 0.328125 C 7.367188 0.328125 6.078125 -0.09375 5.265625 -0.9375 C 4.453125 -1.78125 4.046875 -3.148438 4.046875 -5.046875 L 4.046875 -21.671875 L 0.640625 -21.671875 L 0.640625 -25.171875 L 4.046875 -25.171875 L 4.046875 -32.1875 L 8.265625 -32.1875 L 8.265625 -25.171875 L 12.3125 -25.171875 L 12.3125 -21.671875 Z M 8.265625 -21.671875 "/></g></g></g><g fill="#000000" fill-opacity="1"><g transform="translate(367.326439, 109.771271)"><g><path d="M 3.171875 -29.75 L 3.171875 -34.546875 L 7.40625 -34.546875 L 7.40625 -29.75 Z M 7.40625 0 L 3.171875 0 L 3.171875 -25.171875 L 7.40625 -25.171875 Z M 7.40625 0 "/></g></g></g><g fill="#000000" fill-opacity="1"><g transform="translate(376.480745, 109.771271)"><g><path d="M 6.109375 -12.625 C 6.109375 -9.8125 6.742188 -7.5 8.015625 -5.6875 C 9.285156 -3.882812 11.085938 -2.984375 13.421875 -2.984375 C 15.828125 -2.984375 17.65625 -3.929688 18.90625 -5.828125 C 20.164062 -7.722656 20.796875 -9.988281 20.796875 -12.625 C 20.796875 -15.28125 20.164062 -17.535156 18.90625 -19.390625 C 17.65625 -21.253906 15.828125 -22.1875 13.421875 -22.1875 C 11.179688 -22.1875 9.398438 -21.3125 8.078125 -19.5625 C 6.765625 -17.8125 6.109375 -15.5 6.109375 -12.625 Z M 1.78125 -12.625 C 1.78125 -16.363281 2.820312 -19.507812 4.90625 -22.0625 C 6.988281 -24.613281 9.828125 -25.890625 13.421875 -25.890625 C 17.085938 -25.890625 19.953125 -24.597656 22.015625 -22.015625 C 24.085938 -19.429688 25.125 -16.300781 25.125 -12.625 C 25.125 -8.925781 24.097656 -5.773438 22.046875 -3.171875 C 19.992188 -0.566406 17.117188 0.734375 13.421875 0.734375 C 9.859375 0.734375 7.023438 -0.523438 4.921875 -3.046875 C 2.828125 -5.578125 1.78125 -8.769531 1.78125 -12.625 Z M 1.78125 -12.625 "/></g></g></g><g fill="#000000" fill-opacity="1"><g transform="translate(401.943779, 109.771271)"><g><path d="M 23.6875 0 L 19.4375 0 L 19.4375 -15.484375 C 19.4375 -17.867188 19.019531 -19.566406 18.1875 -20.578125 C 17.351562 -21.585938 15.972656 -22.09375 14.046875 -22.09375 C 12.148438 -22.09375 10.566406 -21.367188 9.296875 -19.921875 C 8.035156 -18.484375 7.40625 -16.414062 7.40625 -13.71875 L 7.40625 0 L 3.171875 0 L 3.171875 -25.171875 L 7.171875 -25.171875 L 7.171875 -21.625 L 7.265625 -21.625 C 9.253906 -24.46875 11.789062 -25.890625 14.875 -25.890625 C 17.726562 -25.890625 19.910156 -25.132812 21.421875 -23.625 C 22.929688 -22.113281 23.6875 -19.945312 23.6875 -17.125 Z M 23.6875 0 "/></g></g></g><g fill="#000000" fill-opacity="1"><g transform="translate(427.059865, 109.771271)"><g/></g></g><g fill="#000000" fill-opacity="1"><g transform="translate(34.516918, 235.403064)"><g><path d="M 32.96875 -81.140625 C 26.414062 -69.421875 22.273438 -59.882812 20.546875 -52.53125 C 18.816406 -45.1875 17.953125 -37.082031 17.953125 -28.21875 C 17.953125 -19.457031 19.128906 -11.289062 21.484375 -3.71875 C 23.847656 3.84375 27.710938 12.722656 33.078125 22.921875 L 26.59375 22.921875 C 20.46875 13.984375 15.753906 5.535156 12.453125 -2.421875 C 9.160156 -10.390625 7.515625 -19.222656 7.515625 -28.921875 C 7.515625 -38.035156 9.007812 -46.726562 12 -55 C 14.988281 -63.269531 19.726562 -71.984375 26.21875 -81.140625 Z M 32.96875 -81.140625 "/></g></g></g><g fill="#000000" fill-opacity="1"><g transform="translate(68.06167, 235.403064)"><g><path d="M 42.59375 -42.484375 L 77.515625 -42.484375 L 77.515625 0 L 70.546875 0 L 67.953125 -10.265625 C 64.554688 -5.941406 60.570312 -2.796875 56 -0.828125 C 51.425781 1.128906 46.671875 2.109375 41.734375 2.109375 C 33.765625 2.109375 27.101562 0.367188 21.75 -3.109375 C 16.40625 -6.585938 12.253906 -11.390625 9.296875 -17.515625 C 6.335938 -23.640625 4.859375 -31.28125 4.859375 -40.4375 C 4.859375 -51.851562 8.253906 -61.5625 15.046875 -69.5625 C 21.847656 -77.5625 30.992188 -81.5625 42.484375 -81.5625 C 51.066406 -81.5625 58.5625 -79.164062 64.96875 -74.375 C 71.382812 -69.582031 75.113281 -63.242188 76.15625 -55.359375 L 65.78125 -55.359375 C 64.519531 -60.578125 61.851562 -64.660156 57.78125 -67.609375 C 53.707031 -70.566406 48.429688 -72.046875 41.953125 -72.046875 C 34.128906 -72.046875 27.835938 -69.097656 23.078125 -63.203125 C 18.328125 -57.316406 15.953125 -49.53125 15.953125 -39.84375 C 15.953125 -28.5625 18.3125 -20.28125 23.03125 -15 C 27.75 -9.71875 34.195312 -7.078125 42.375 -7.078125 C 47.707031 -7.078125 52.21875 -8.128906 55.90625 -10.234375 C 59.601562 -12.347656 62.441406 -15.210938 64.421875 -18.828125 C 66.410156 -22.453125 67.40625 -27.273438 67.40625 -33.296875 L 42.59375 -33.296875 Z M 42.59375 -42.484375 "/></g></g></g><g fill="#000000" fill-opacity="1"><g transform="translate(150.094466, 235.403064)"><g><path d="M 19.734375 -9.1875 L 40.546875 -9.1875 C 47.742188 -9.1875 53.378906 -11.953125 57.453125 -17.484375 C 61.523438 -23.015625 63.5625 -30.570312 63.5625 -40.15625 C 63.5625 -49.632812 61.507812 -57.003906 57.40625 -62.265625 C 53.300781 -67.523438 47.375 -70.191406 39.625 -70.265625 L 19.734375 -70.265625 Z M 8.96875 -79.453125 L 41.1875 -79.453125 C 51.601562 -79.453125 59.753906 -75.875 65.640625 -68.71875 C 71.535156 -61.570312 74.484375 -52.285156 74.484375 -40.859375 C 74.484375 -28.609375 71.535156 -18.734375 65.640625 -11.234375 C 59.753906 -3.742188 51.457031 0 40.75 0 L 8.96875 0 Z M 8.96875 -79.453125 "/></g></g></g><g fill="#000000" fill-opacity="1"><g transform="translate(226.505461, 235.403064)"><g><path d="M 19.734375 -42.75 L 41.078125 -42.75 C 46.453125 -42.75 50.488281 -43.929688 53.1875 -46.296875 C 55.894531 -48.660156 57.25 -52.238281 57.25 -57.03125 C 57.25 -61.3125 55.945312 -64.585938 53.34375 -66.859375 C 50.75 -69.128906 46.804688 -70.265625 41.515625 -70.265625 L 19.734375 -70.265625 Z M 19.734375 0 L 8.96875 0 L 8.96875 -79.453125 L 44.703125 -79.453125 C 51.804688 -79.453125 57.519531 -77.390625 61.84375 -73.265625 C 66.164062 -69.140625 68.328125 -63.765625 68.328125 -57.140625 C 68.328125 -50.253906 66.234375 -44.601562 62.046875 -40.1875 C 57.867188 -35.769531 52.085938 -33.5625 44.703125 -33.5625 L 19.734375 -33.5625 Z M 19.734375 0 "/></g></g></g><g fill="#000000" fill-opacity="1"><g transform="translate(294.754038, 235.403064)"><g><path d="M 19.734375 -43.296875 L 44.59375 -43.296875 C 50.363281 -43.296875 54.5 -44.472656 57 -46.828125 C 59.5 -49.191406 60.75 -52.59375 60.75 -57.03125 C 60.75 -61.0625 59.664062 -64.273438 57.5 -66.671875 C 55.34375 -69.066406 51.632812 -70.265625 46.375 -70.265625 L 19.734375 -70.265625 Z M 19.734375 0 L 8.96875 0 L 8.96875 -79.453125 L 45.734375 -79.453125 C 54.273438 -79.453125 60.742188 -77.632812 65.140625 -74 C 69.535156 -70.363281 71.734375 -65.066406 71.734375 -58.109375 C 71.734375 -53.535156 70.847656 -49.710938 69.078125 -46.640625 C 67.316406 -43.578125 64.539062 -41.054688 60.75 -39.078125 C 64 -37.890625 66.34375 -36.222656 67.78125 -34.078125 C 69.226562 -31.929688 70.054688 -28.609375 70.265625 -24.109375 L 70.96875 -9.296875 C 71.039062 -6.847656 71.425781 -5.128906 72.125 -4.140625 C 72.832031 -3.148438 73.816406 -2.363281 75.078125 -1.78125 L 75.078125 0 L 61.78125 0 C 61.09375 -1.976562 60.601562 -4.984375 60.3125 -9.015625 C 60.03125 -13.054688 59.890625 -16.703125 59.890625 -19.953125 C 59.890625 -21.566406 59.742188 -23.21875 59.453125 -24.90625 C 59.171875 -26.601562 58.539062 -28.132812 57.5625 -29.5 C 56.59375 -30.875 55.171875 -31.984375 53.296875 -32.828125 C 51.421875 -33.679688 48.898438 -34.109375 45.734375 -34.109375 L 19.734375 -34.109375 Z M 19.734375 0 "/></g></g></g><g fill="#000000" fill-opacity="1"><g transform="translate(370.462303, 235.403064)"><g><path d="M 3.890625 22.921875 C 10.378906 11.171875 14.488281 1.628906 16.21875 -5.703125 C 17.945312 -13.035156 18.8125 -21.132812 18.8125 -30 C 18.8125 -38.789062 17.648438 -46.96875 15.328125 -54.53125 C 13.003906 -62.101562 9.15625 -70.972656 3.78125 -81.140625 L 10.15625 -81.140625 C 16.351562 -72.203125 21.097656 -63.75 24.390625 -55.78125 C 27.691406 -47.820312 29.34375 -39.007812 29.34375 -29.34375 C 29.34375 -20.195312 27.847656 -11.488281 24.859375 -3.21875 C 21.867188 5.050781 17.132812 13.765625 10.65625 22.921875 Z M 3.890625 22.921875 "/></g></g></g></g></g></g></svg>