<svg width="1332" height="1332" viewBox="0 0 1332 1332" fill="none" xmlns="http://www.w3.org/2000/svg">
<rect width="1332" height="1332" fill="url(#paint0_radial_3007_1171)"/>
<g filter="url(#filter0_d_3007_1171)">
<rect x="104" y="488" width="631" height="132" rx="40" fill="white" shape-rendering="crispEdges"/>
<path d="M199.688 544.449H189.063C188.76 542.706 188.201 541.163 187.387 539.818C186.573 538.455 185.559 537.299 184.347 536.352C183.135 535.405 181.753 534.695 180.2 534.222C178.665 533.729 177.008 533.483 175.228 533.483C172.065 533.483 169.262 534.278 166.819 535.869C164.376 537.441 162.463 539.752 161.08 542.801C159.698 545.831 159.006 549.534 159.006 553.909C159.006 558.36 159.698 562.11 161.08 565.159C162.482 568.189 164.395 570.481 166.819 572.034C169.262 573.568 172.056 574.335 175.2 574.335C176.942 574.335 178.571 574.108 180.086 573.653C181.62 573.18 182.993 572.489 184.205 571.58C185.436 570.67 186.469 569.553 187.302 568.227C188.154 566.902 188.741 565.386 189.063 563.682L199.688 563.739C199.29 566.504 198.429 569.098 197.103 571.523C195.796 573.947 194.082 576.087 191.961 577.943C189.84 579.78 187.359 581.22 184.518 582.261C181.677 583.284 178.523 583.795 175.058 583.795C169.944 583.795 165.379 582.612 161.364 580.244C157.349 577.877 154.186 574.458 151.876 569.989C149.565 565.519 148.41 560.159 148.41 553.909C148.41 547.64 149.575 542.28 151.904 537.83C154.234 533.36 157.406 529.941 161.421 527.574C165.436 525.206 169.982 524.023 175.058 524.023C178.296 524.023 181.308 524.477 184.092 525.386C186.876 526.295 189.357 527.631 191.535 529.392C193.713 531.134 195.503 533.275 196.904 535.812C198.325 538.331 199.253 541.21 199.688 544.449ZM215.668 599.364C214.267 599.364 212.969 599.25 211.776 599.023C210.602 598.814 209.665 598.568 208.964 598.284L211.35 590.273C212.846 590.708 214.182 590.917 215.356 590.898C216.53 590.879 217.562 590.509 218.452 589.79C219.362 589.089 220.129 587.915 220.754 586.267L221.634 583.909L205.81 539.364H216.719L226.776 572.318H227.231L237.316 539.364H248.254L230.782 588.284C229.968 590.595 228.888 592.574 227.543 594.222C226.199 595.888 224.551 597.157 222.6 598.028C220.668 598.919 218.358 599.364 215.668 599.364ZM255.825 583V524.818H266.109V546.58H266.535C267.065 545.519 267.813 544.392 268.779 543.199C269.745 541.987 271.052 540.955 272.7 540.102C274.347 539.231 276.45 538.795 279.006 538.795C282.378 538.795 285.417 539.657 288.126 541.381C290.853 543.085 293.012 545.614 294.603 548.966C296.213 552.299 297.018 556.39 297.018 561.239C297.018 566.03 296.232 570.102 294.66 573.455C293.088 576.807 290.948 579.364 288.239 581.125C285.531 582.886 282.463 583.767 279.035 583.767C276.535 583.767 274.461 583.35 272.813 582.517C271.165 581.684 269.84 580.68 268.836 579.506C267.851 578.312 267.084 577.186 266.535 576.125H265.938V583H255.825ZM265.91 561.182C265.91 564.004 266.308 566.475 267.103 568.597C267.917 570.718 269.082 572.375 270.597 573.568C272.131 574.742 273.987 575.33 276.165 575.33C278.438 575.33 280.342 574.723 281.876 573.511C283.41 572.28 284.565 570.604 285.342 568.483C286.137 566.343 286.535 563.909 286.535 561.182C286.535 558.473 286.147 556.068 285.37 553.966C284.594 551.864 283.438 550.216 281.904 549.023C280.37 547.83 278.457 547.233 276.165 547.233C273.969 547.233 272.103 547.811 270.569 548.966C269.035 550.121 267.87 551.741 267.075 553.824C266.298 555.907 265.91 558.36 265.91 561.182ZM325.079 583.852C320.704 583.852 316.925 582.943 313.744 581.125C310.581 579.288 308.147 576.693 306.442 573.341C304.738 569.97 303.886 566.002 303.886 561.438C303.886 556.949 304.738 553.009 306.442 549.619C308.166 546.21 310.571 543.559 313.658 541.665C316.746 539.752 320.372 538.795 324.539 538.795C327.228 538.795 329.766 539.231 332.153 540.102C334.558 540.955 336.679 542.28 338.516 544.08C340.372 545.879 341.831 548.17 342.891 550.955C343.952 553.72 344.482 557.015 344.482 560.841V563.994H308.715V557.062H334.624C334.605 555.093 334.179 553.341 333.346 551.807C332.513 550.254 331.348 549.032 329.852 548.142C328.374 547.252 326.651 546.807 324.681 546.807C322.579 546.807 320.732 547.318 319.141 548.341C317.55 549.345 316.31 550.67 315.42 552.318C314.549 553.947 314.103 555.737 314.085 557.688V563.739C314.085 566.277 314.549 568.455 315.477 570.273C316.405 572.072 317.702 573.455 319.369 574.42C321.035 575.367 322.986 575.841 325.221 575.841C326.717 575.841 328.071 575.633 329.283 575.216C330.496 574.78 331.547 574.146 332.437 573.312C333.327 572.479 333.999 571.447 334.454 570.216L344.056 571.295C343.45 573.833 342.295 576.049 340.59 577.943C338.905 579.818 336.746 581.277 334.113 582.318C331.48 583.341 328.469 583.852 325.079 583.852ZM353.183 583V539.364H363.154V546.636H363.609C364.404 544.117 365.768 542.176 367.7 540.812C369.65 539.43 371.876 538.739 374.376 538.739C374.944 538.739 375.578 538.767 376.279 538.824C376.999 538.862 377.595 538.928 378.069 539.023V548.483C377.633 548.331 376.942 548.199 375.995 548.085C375.067 547.953 374.167 547.886 373.296 547.886C371.421 547.886 369.736 548.294 368.239 549.108C366.762 549.903 365.597 551.011 364.745 552.432C363.893 553.852 363.467 555.491 363.467 557.347V583H353.183ZM419.39 550.898L410.015 551.92C409.75 550.973 409.286 550.083 408.623 549.25C407.979 548.417 407.108 547.744 406.009 547.233C404.911 546.722 403.566 546.466 401.975 546.466C399.835 546.466 398.036 546.93 396.577 547.858C395.138 548.786 394.428 549.989 394.447 551.466C394.428 552.735 394.892 553.767 395.839 554.562C396.805 555.358 398.396 556.011 400.612 556.523L408.055 558.114C412.183 559.004 415.252 560.415 417.259 562.347C419.286 564.278 420.308 566.807 420.327 569.932C420.308 572.678 419.504 575.102 417.913 577.205C416.341 579.288 414.153 580.917 411.35 582.091C408.547 583.265 405.327 583.852 401.691 583.852C396.35 583.852 392.051 582.735 388.793 580.5C385.536 578.246 383.594 575.112 382.969 571.097L392.998 570.131C393.452 572.1 394.418 573.587 395.896 574.591C397.373 575.595 399.295 576.097 401.663 576.097C404.106 576.097 406.066 575.595 407.543 574.591C409.04 573.587 409.788 572.347 409.788 570.869C409.788 569.619 409.305 568.587 408.339 567.773C407.392 566.958 405.915 566.333 403.907 565.898L396.464 564.335C392.278 563.464 389.182 561.996 387.174 559.932C385.166 557.848 384.172 555.216 384.191 552.034C384.172 549.345 384.901 547.015 386.379 545.045C387.875 543.057 389.949 541.523 392.6 540.443C395.271 539.345 398.348 538.795 401.833 538.795C406.947 538.795 410.971 539.884 413.907 542.062C416.862 544.241 418.689 547.186 419.39 550.898ZM448.126 583.852C443.751 583.852 439.972 582.943 436.79 581.125C433.628 579.288 431.194 576.693 429.489 573.341C427.785 569.97 426.933 566.002 426.933 561.438C426.933 556.949 427.785 553.009 429.489 549.619C431.213 546.21 433.618 543.559 436.705 541.665C439.792 539.752 443.419 538.795 447.586 538.795C450.275 538.795 452.813 539.231 455.2 540.102C457.605 540.955 459.726 542.28 461.563 544.08C463.419 545.879 464.878 548.17 465.938 550.955C466.999 553.72 467.529 557.015 467.529 560.841V563.994H431.762V557.062H457.671C457.652 555.093 457.226 553.341 456.393 551.807C455.559 550.254 454.395 549.032 452.898 548.142C451.421 547.252 449.698 546.807 447.728 546.807C445.626 546.807 443.779 547.318 442.188 548.341C440.597 549.345 439.357 550.67 438.467 552.318C437.595 553.947 437.15 555.737 437.131 557.688V563.739C437.131 566.277 437.595 568.455 438.523 570.273C439.451 572.072 440.749 573.455 442.415 574.42C444.082 575.367 446.033 575.841 448.268 575.841C449.764 575.841 451.118 575.633 452.33 575.216C453.542 574.78 454.594 574.146 455.484 573.312C456.374 572.479 457.046 571.447 457.501 570.216L467.103 571.295C466.497 573.833 465.342 576.049 463.637 577.943C461.951 579.818 459.792 581.277 457.16 582.318C454.527 583.341 451.516 583.852 448.126 583.852ZM495.263 583.852C490.907 583.852 487.167 582.896 484.042 580.983C480.936 579.07 478.54 576.428 476.854 573.057C475.188 569.667 474.354 565.765 474.354 561.352C474.354 556.92 475.207 553.009 476.911 549.619C478.616 546.21 481.021 543.559 484.127 541.665C487.252 539.752 490.945 538.795 495.207 538.795C498.748 538.795 501.883 539.449 504.61 540.756C507.356 542.044 509.544 543.871 511.173 546.239C512.801 548.587 513.729 551.333 513.957 554.477H504.127C503.729 552.375 502.782 550.623 501.286 549.222C499.809 547.801 497.83 547.091 495.349 547.091C493.246 547.091 491.4 547.659 489.809 548.795C488.218 549.913 486.978 551.523 486.087 553.625C485.216 555.727 484.781 558.246 484.781 561.182C484.781 564.155 485.216 566.712 486.087 568.852C486.959 570.973 488.18 572.612 489.752 573.767C491.343 574.903 493.209 575.472 495.349 575.472C496.864 575.472 498.218 575.187 499.411 574.619C500.623 574.032 501.637 573.189 502.451 572.091C503.265 570.992 503.824 569.657 504.127 568.085H513.957C513.71 571.172 512.801 573.909 511.229 576.295C509.657 578.663 507.517 580.519 504.809 581.864C502.101 583.189 498.919 583.852 495.263 583.852ZM550.214 564.648V539.364H560.498V583H550.526V575.244H550.072C549.087 577.687 547.468 579.686 545.214 581.239C542.979 582.792 540.223 583.568 536.947 583.568C534.087 583.568 531.558 582.934 529.362 581.665C527.183 580.377 525.479 578.511 524.248 576.068C523.017 573.606 522.401 570.633 522.401 567.148V539.364H532.685V565.557C532.685 568.322 533.443 570.519 534.958 572.148C536.473 573.777 538.462 574.591 540.924 574.591C542.439 574.591 543.907 574.222 545.327 573.483C546.748 572.744 547.913 571.646 548.822 570.188C549.75 568.71 550.214 566.864 550.214 564.648ZM571.073 583V539.364H581.045V546.636H581.499C582.295 544.117 583.658 542.176 585.59 540.812C587.541 539.43 589.766 538.739 592.266 538.739C592.835 538.739 593.469 538.767 594.17 538.824C594.889 538.862 595.486 538.928 595.96 539.023V548.483C595.524 548.331 594.833 548.199 593.886 548.085C592.958 547.953 592.058 547.886 591.187 547.886C589.312 547.886 587.626 548.294 586.13 549.108C584.653 549.903 583.488 551.011 582.636 552.432C581.783 553.852 581.357 555.491 581.357 557.347V583H571.073ZM602.792 583V539.364H613.076V583H602.792ZM607.962 533.17C606.334 533.17 604.932 532.631 603.758 531.551C602.584 530.453 601.996 529.136 601.996 527.602C601.996 526.049 602.584 524.733 603.758 523.653C604.932 522.555 606.334 522.006 607.962 522.006C609.61 522.006 611.012 522.555 612.167 523.653C613.341 524.733 613.928 526.049 613.928 527.602C613.928 529.136 613.341 530.453 612.167 531.551C611.012 532.631 609.61 533.17 607.962 533.17ZM645.441 539.364V547.318H620.356V539.364H645.441ZM626.549 528.909H636.833V569.875C636.833 571.258 637.041 572.318 637.458 573.057C637.894 573.777 638.462 574.269 639.163 574.534C639.863 574.799 640.64 574.932 641.492 574.932C642.136 574.932 642.723 574.884 643.254 574.79C643.803 574.695 644.219 574.61 644.504 574.534L646.237 582.574C645.687 582.763 644.901 582.972 643.879 583.199C642.875 583.426 641.644 583.559 640.185 583.597C637.61 583.672 635.29 583.284 633.225 582.432C631.161 581.561 629.522 580.216 628.31 578.398C627.117 576.58 626.53 574.307 626.549 571.58V528.909ZM660.434 599.364C659.032 599.364 657.735 599.25 656.542 599.023C655.368 598.814 654.43 598.568 653.729 598.284L656.116 590.273C657.612 590.708 658.947 590.917 660.121 590.898C661.296 590.879 662.328 590.509 663.218 589.79C664.127 589.089 664.894 587.915 665.519 586.267L666.4 583.909L650.576 539.364H661.485L671.542 572.318H671.996L682.082 539.364H693.019L675.548 588.284C674.733 590.595 673.654 592.574 672.309 594.222C670.964 595.888 669.317 597.157 667.366 598.028C665.434 598.919 663.123 599.364 660.434 599.364Z" fill="#428DFF"/>
</g>
<path d="M108.5 267V197.182H127.455V224.455H152.545V197.182H171.5V267H152.545V239.727H127.455V267H108.5ZM208.744 267.955C203.153 267.955 198.335 266.886 194.289 264.75C190.266 262.591 187.164 259.5 184.982 255.477C182.823 251.432 181.744 246.591 181.744 240.955C181.744 235.545 182.835 230.818 185.016 226.773C187.198 222.727 190.278 219.58 194.255 217.33C198.232 215.08 202.925 213.955 208.335 213.955C212.289 213.955 215.869 214.568 219.073 215.795C222.278 217.023 225.016 218.807 227.289 221.148C229.562 223.466 231.312 226.284 232.539 229.602C233.766 232.92 234.38 236.659 234.38 240.818V245.182H187.607V234.818H217.062C217.039 233.318 216.653 232 215.903 230.864C215.175 229.705 214.187 228.807 212.937 228.17C211.71 227.511 210.312 227.182 208.744 227.182C207.221 227.182 205.823 227.511 204.55 228.17C203.278 228.807 202.255 229.693 201.482 230.83C200.732 231.966 200.335 233.295 200.289 234.818V246C200.289 247.682 200.641 249.182 201.346 250.5C202.05 251.818 203.062 252.852 204.38 253.602C205.698 254.352 207.289 254.727 209.153 254.727C210.448 254.727 211.63 254.545 212.698 254.182C213.789 253.818 214.721 253.295 215.494 252.614C216.266 251.909 216.835 251.068 217.198 250.091H234.38C233.789 253.727 232.391 256.886 230.187 259.568C227.982 262.227 225.062 264.295 221.425 265.773C217.812 267.227 213.585 267.955 208.744 267.955ZM259.53 267.818C256.189 267.818 253.234 267.273 250.666 266.182C248.121 265.068 246.121 263.386 244.666 261.136C243.212 258.886 242.484 256.023 242.484 252.545C242.484 249.682 242.973 247.239 243.95 245.216C244.928 243.17 246.291 241.5 248.041 240.205C249.791 238.909 251.825 237.92 254.144 237.239C256.484 236.557 259.007 236.114 261.712 235.909C264.644 235.682 266.996 235.409 268.769 235.091C270.564 234.75 271.859 234.284 272.655 233.693C273.45 233.08 273.848 232.273 273.848 231.273V231.136C273.848 229.773 273.325 228.727 272.28 228C271.234 227.273 269.894 226.909 268.257 226.909C266.462 226.909 264.996 227.307 263.859 228.102C262.746 228.875 262.075 230.068 261.848 231.682H244.53C244.757 228.5 245.769 225.568 247.564 222.886C249.382 220.182 252.03 218.023 255.507 216.409C258.984 214.773 263.325 213.955 268.53 213.955C272.28 213.955 275.644 214.398 278.621 215.284C281.598 216.148 284.132 217.364 286.223 218.932C288.314 220.477 289.905 222.295 290.996 224.386C292.109 226.455 292.666 228.705 292.666 231.136V267H275.075V259.636H274.666C273.621 261.591 272.348 263.17 270.848 264.375C269.371 265.58 267.678 266.455 265.769 267C263.882 267.545 261.803 267.818 259.53 267.818ZM265.666 255.955C267.098 255.955 268.439 255.659 269.689 255.068C270.962 254.477 271.996 253.625 272.791 252.511C273.587 251.398 273.984 250.045 273.984 248.455V244.091C273.484 244.295 272.95 244.489 272.382 244.67C271.837 244.852 271.246 245.023 270.609 245.182C269.996 245.341 269.337 245.489 268.632 245.625C267.95 245.761 267.234 245.886 266.484 246C265.03 246.227 263.837 246.602 262.905 247.125C261.996 247.625 261.314 248.25 260.859 249C260.428 249.727 260.212 250.545 260.212 251.455C260.212 252.909 260.723 254.023 261.746 254.795C262.769 255.568 264.075 255.955 265.666 255.955ZM323.356 197.182V267H304.538V197.182H323.356ZM367.051 214.636V228.273H332.551V214.636H367.051ZM339.233 202.091H358.051V250.159C358.051 250.886 358.176 251.5 358.426 252C358.676 252.477 359.063 252.841 359.585 253.091C360.108 253.318 360.779 253.432 361.597 253.432C362.165 253.432 362.824 253.364 363.574 253.227C364.347 253.091 364.915 252.977 365.279 252.886L368.006 266.114C367.165 266.364 365.96 266.67 364.392 267.034C362.847 267.398 361.006 267.636 358.869 267.75C354.551 267.977 350.926 267.534 347.994 266.42C345.063 265.284 342.858 263.5 341.381 261.068C339.904 258.636 339.188 255.591 339.233 251.932V202.091ZM397.553 237.545V267H378.735V197.182H396.872V224.591H397.417C398.599 221.25 400.565 218.648 403.315 216.784C406.065 214.898 409.372 213.955 413.235 213.955C416.94 213.955 420.156 214.795 422.883 216.477C425.633 218.159 427.758 220.477 429.258 223.432C430.781 226.386 431.531 229.773 431.508 233.591V267H412.69V237.545C412.712 234.955 412.065 232.92 410.747 231.443C409.451 229.966 407.599 229.227 405.19 229.227C403.667 229.227 402.326 229.568 401.167 230.25C400.031 230.909 399.144 231.864 398.508 233.114C397.894 234.341 397.576 235.818 397.553 237.545ZM468.905 267.955C463.223 267.955 458.36 266.83 454.314 264.58C450.269 262.307 447.166 259.148 445.007 255.102C442.848 251.034 441.769 246.318 441.769 240.955C441.769 235.591 442.848 230.886 445.007 226.841C447.166 222.773 450.269 219.614 454.314 217.364C458.36 215.091 463.223 213.955 468.905 213.955C474.041 213.955 478.485 214.886 482.235 216.75C486.007 218.591 488.928 221.205 490.996 224.591C493.064 227.955 494.11 231.909 494.132 236.455H476.678C476.428 233.705 475.632 231.614 474.291 230.182C472.973 228.727 471.269 228 469.178 228C467.541 228 466.11 228.477 464.882 229.432C463.655 230.364 462.7 231.784 462.019 233.693C461.337 235.58 460.996 237.955 460.996 240.818C460.996 243.682 461.337 246.068 462.019 247.977C462.7 249.864 463.655 251.284 464.882 252.239C466.11 253.17 467.541 253.636 469.178 253.636C470.564 253.636 471.791 253.318 472.86 252.682C473.928 252.023 474.791 251.068 475.45 249.818C476.132 248.545 476.541 247 476.678 245.182H494.132C494.064 249.795 493.007 253.818 490.962 257.25C488.916 260.659 486.019 263.295 482.269 265.159C478.541 267.023 474.087 267.955 468.905 267.955ZM519.367 267.818C516.026 267.818 513.072 267.273 510.504 266.182C507.958 265.068 505.958 263.386 504.504 261.136C503.049 258.886 502.322 256.023 502.322 252.545C502.322 249.682 502.811 247.239 503.788 245.216C504.765 243.17 506.129 241.5 507.879 240.205C509.629 238.909 511.663 237.92 513.981 237.239C516.322 236.557 518.845 236.114 521.549 235.909C524.481 235.682 526.833 235.409 528.606 235.091C530.401 234.75 531.697 234.284 532.492 233.693C533.288 233.08 533.686 232.273 533.686 231.273V231.136C533.686 229.773 533.163 228.727 532.117 228C531.072 227.273 529.731 226.909 528.095 226.909C526.299 226.909 524.833 227.307 523.697 228.102C522.583 228.875 521.913 230.068 521.686 231.682H504.367C504.595 228.5 505.606 225.568 507.401 222.886C509.22 220.182 511.867 218.023 515.345 216.409C518.822 214.773 523.163 213.955 528.367 213.955C532.117 213.955 535.481 214.398 538.458 215.284C541.436 216.148 543.97 217.364 546.061 218.932C548.151 220.477 549.742 222.295 550.833 224.386C551.947 226.455 552.504 228.705 552.504 231.136V267H534.913V259.636H534.504C533.458 261.591 532.186 263.17 530.686 264.375C529.208 265.58 527.515 266.455 525.606 267C523.72 267.545 521.64 267.818 519.367 267.818ZM525.504 255.955C526.936 255.955 528.276 255.659 529.526 255.068C530.799 254.477 531.833 253.625 532.629 252.511C533.424 251.398 533.822 250.045 533.822 248.455V244.091C533.322 244.295 532.788 244.489 532.22 244.67C531.674 244.852 531.083 245.023 530.447 245.182C529.833 245.341 529.174 245.489 528.47 245.625C527.788 245.761 527.072 245.886 526.322 246C524.867 246.227 523.674 246.602 522.742 247.125C521.833 247.625 521.151 248.25 520.697 249C520.265 249.727 520.049 250.545 520.049 251.455C520.049 252.909 520.561 254.023 521.583 254.795C522.606 255.568 523.913 255.955 525.504 255.955ZM564.375 267V214.636H582.648V224.591H583.193C584.148 220.909 585.659 218.216 587.728 216.511C589.818 214.807 592.262 213.955 595.057 213.955C595.875 213.955 596.682 214.023 597.478 214.159C598.296 214.273 599.08 214.443 599.83 214.67V230.727C598.898 230.409 597.75 230.17 596.387 230.011C595.023 229.852 593.853 229.773 592.875 229.773C591.034 229.773 589.375 230.193 587.898 231.034C586.443 231.852 585.296 233.011 584.455 234.511C583.614 235.989 583.193 237.727 583.193 239.727V267H564.375ZM630.971 267.955C625.38 267.955 620.562 266.886 616.517 264.75C612.494 262.591 609.392 259.5 607.21 255.477C605.051 251.432 603.971 246.591 603.971 240.955C603.971 235.545 605.062 230.818 607.244 226.773C609.426 222.727 612.505 219.58 616.483 217.33C620.46 215.08 625.153 213.955 630.562 213.955C634.517 213.955 638.096 214.568 641.301 215.795C644.505 217.023 647.244 218.807 649.517 221.148C651.789 223.466 653.539 226.284 654.767 229.602C655.994 232.92 656.608 236.659 656.608 240.818V245.182H609.835V234.818H639.289C639.267 233.318 638.88 232 638.13 230.864C637.403 229.705 636.414 228.807 635.164 228.17C633.937 227.511 632.539 227.182 630.971 227.182C629.448 227.182 628.051 227.511 626.778 228.17C625.505 228.807 624.483 229.693 623.71 230.83C622.96 231.966 622.562 233.295 622.517 234.818V246C622.517 247.682 622.869 249.182 623.573 250.5C624.278 251.818 625.289 252.852 626.608 253.602C627.926 254.352 629.517 254.727 631.38 254.727C632.676 254.727 633.858 254.545 634.926 254.182C636.017 253.818 636.948 253.295 637.721 252.614C638.494 251.909 639.062 251.068 639.426 250.091H656.608C656.017 253.727 654.619 256.886 652.414 259.568C650.21 262.227 647.289 264.295 643.653 265.773C640.039 267.227 635.812 267.955 630.971 267.955ZM725.767 267.818C722.426 267.818 719.472 267.273 716.904 266.182C714.358 265.068 712.358 263.386 710.904 261.136C709.449 258.886 708.722 256.023 708.722 252.545C708.722 249.682 709.211 247.239 710.188 245.216C711.165 243.17 712.529 241.5 714.279 240.205C716.029 238.909 718.063 237.92 720.381 237.239C722.722 236.557 725.245 236.114 727.949 235.909C730.881 235.682 733.233 235.409 735.006 235.091C736.801 234.75 738.097 234.284 738.892 233.693C739.688 233.08 740.086 232.273 740.086 231.273V231.136C740.086 229.773 739.563 228.727 738.517 228C737.472 227.273 736.131 226.909 734.495 226.909C732.699 226.909 731.233 227.307 730.097 228.102C728.983 228.875 728.313 230.068 728.086 231.682H710.767C710.995 228.5 712.006 225.568 713.801 222.886C715.62 220.182 718.267 218.023 721.745 216.409C725.222 214.773 729.563 213.955 734.767 213.955C738.517 213.955 741.881 214.398 744.858 215.284C747.836 216.148 750.37 217.364 752.461 218.932C754.551 220.477 756.142 222.295 757.233 224.386C758.347 226.455 758.904 228.705 758.904 231.136V267H741.313V259.636H740.904C739.858 261.591 738.586 263.17 737.086 264.375C735.608 265.58 733.915 266.455 732.006 267C730.12 267.545 728.04 267.818 725.767 267.818ZM731.904 255.955C733.336 255.955 734.676 255.659 735.926 255.068C737.199 254.477 738.233 253.625 739.029 252.511C739.824 251.398 740.222 250.045 740.222 248.455V244.091C739.722 244.295 739.188 244.489 738.62 244.67C738.074 244.852 737.483 245.023 736.847 245.182C736.233 245.341 735.574 245.489 734.87 245.625C734.188 245.761 733.472 245.886 732.722 246C731.267 246.227 730.074 246.602 729.142 247.125C728.233 247.625 727.551 248.25 727.097 249C726.665 249.727 726.449 250.545 726.449 251.455C726.449 252.909 726.961 254.023 727.983 254.795C729.006 255.568 730.313 255.955 731.904 255.955ZM789.593 237.545V267H770.775V214.636H788.639V224.591H789.184C790.321 221.273 792.321 218.67 795.184 216.784C798.071 214.898 801.434 213.955 805.275 213.955C808.98 213.955 812.196 214.807 814.923 216.511C817.673 218.193 819.798 220.511 821.298 223.466C822.821 226.42 823.571 229.795 823.548 233.591V267H804.73V237.545C804.753 234.955 804.093 232.92 802.753 231.443C801.434 229.966 799.593 229.227 797.23 229.227C795.684 229.227 794.332 229.568 793.173 230.25C792.037 230.909 791.162 231.864 790.548 233.114C789.934 234.341 789.616 235.818 789.593 237.545ZM854.672 267.682C850.945 267.682 847.513 266.705 844.377 264.75C841.263 262.795 838.763 259.83 836.877 255.852C835.013 251.875 834.081 246.864 834.081 240.818C834.081 234.5 835.059 229.364 837.013 225.409C838.99 221.455 841.536 218.557 844.65 216.716C847.786 214.875 851.081 213.955 854.536 213.955C857.127 213.955 859.4 214.409 861.354 215.318C863.309 216.205 864.945 217.398 866.263 218.898C867.581 220.375 868.581 222 869.263 223.773H869.536V197.182H888.354V267H869.672V258.409H869.263C868.536 260.182 867.49 261.773 866.127 263.182C864.786 264.568 863.15 265.67 861.218 266.489C859.309 267.284 857.127 267.682 854.672 267.682ZM861.627 253.227C863.354 253.227 864.831 252.727 866.059 251.727C867.309 250.705 868.263 249.273 868.922 247.432C869.604 245.568 869.945 243.364 869.945 240.818C869.945 238.227 869.604 236.011 868.922 234.17C868.263 232.307 867.309 230.886 866.059 229.909C864.831 228.909 863.354 228.409 861.627 228.409C859.9 228.409 858.422 228.909 857.195 229.909C855.99 230.886 855.059 232.307 854.4 234.17C853.763 236.011 853.445 238.227 853.445 240.818C853.445 243.409 853.763 245.636 854.4 247.5C855.059 249.341 855.99 250.761 857.195 251.761C858.422 252.739 859.9 253.227 861.627 253.227ZM108.5 387V317.182H127.455V344.455H152.545V317.182H171.5V387H152.545V359.727H127.455V387H108.5ZM208.744 387.955C203.153 387.955 198.335 386.886 194.289 384.75C190.266 382.591 187.164 379.5 184.982 375.477C182.823 371.432 181.744 366.591 181.744 360.955C181.744 355.545 182.835 350.818 185.016 346.773C187.198 342.727 190.278 339.58 194.255 337.33C198.232 335.08 202.925 333.955 208.335 333.955C212.289 333.955 215.869 334.568 219.073 335.795C222.278 337.023 225.016 338.807 227.289 341.148C229.562 343.466 231.312 346.284 232.539 349.602C233.766 352.92 234.38 356.659 234.38 360.818V365.182H187.607V354.818H217.062C217.039 353.318 216.653 352 215.903 350.864C215.175 349.705 214.187 348.807 212.937 348.17C211.71 347.511 210.312 347.182 208.744 347.182C207.221 347.182 205.823 347.511 204.55 348.17C203.278 348.807 202.255 349.693 201.482 350.83C200.732 351.966 200.335 353.295 200.289 354.818V366C200.289 367.682 200.641 369.182 201.346 370.5C202.05 371.818 203.062 372.852 204.38 373.602C205.698 374.352 207.289 374.727 209.153 374.727C210.448 374.727 211.63 374.545 212.698 374.182C213.789 373.818 214.721 373.295 215.494 372.614C216.266 371.909 216.835 371.068 217.198 370.091H234.38C233.789 373.727 232.391 376.886 230.187 379.568C227.982 382.227 225.062 384.295 221.425 385.773C217.812 387.227 213.585 387.955 208.744 387.955ZM259.53 387.818C256.189 387.818 253.234 387.273 250.666 386.182C248.121 385.068 246.121 383.386 244.666 381.136C243.212 378.886 242.484 376.023 242.484 372.545C242.484 369.682 242.973 367.239 243.95 365.216C244.928 363.17 246.291 361.5 248.041 360.205C249.791 358.909 251.825 357.92 254.144 357.239C256.484 356.557 259.007 356.114 261.712 355.909C264.644 355.682 266.996 355.409 268.769 355.091C270.564 354.75 271.859 354.284 272.655 353.693C273.45 353.08 273.848 352.273 273.848 351.273V351.136C273.848 349.773 273.325 348.727 272.28 348C271.234 347.273 269.894 346.909 268.257 346.909C266.462 346.909 264.996 347.307 263.859 348.102C262.746 348.875 262.075 350.068 261.848 351.682H244.53C244.757 348.5 245.769 345.568 247.564 342.886C249.382 340.182 252.03 338.023 255.507 336.409C258.984 334.773 263.325 333.955 268.53 333.955C272.28 333.955 275.644 334.398 278.621 335.284C281.598 336.148 284.132 337.364 286.223 338.932C288.314 340.477 289.905 342.295 290.996 344.386C292.109 346.455 292.666 348.705 292.666 351.136V387H275.075V379.636H274.666C273.621 381.591 272.348 383.17 270.848 384.375C269.371 385.58 267.678 386.455 265.769 387C263.882 387.545 261.803 387.818 259.53 387.818ZM265.666 375.955C267.098 375.955 268.439 375.659 269.689 375.068C270.962 374.477 271.996 373.625 272.791 372.511C273.587 371.398 273.984 370.045 273.984 368.455V364.091C273.484 364.295 272.95 364.489 272.382 364.67C271.837 364.852 271.246 365.023 270.609 365.182C269.996 365.341 269.337 365.489 268.632 365.625C267.95 365.761 267.234 365.886 266.484 366C265.03 366.227 263.837 366.602 262.905 367.125C261.996 367.625 261.314 368.25 260.859 369C260.428 369.727 260.212 370.545 260.212 371.455C260.212 372.909 260.723 374.023 261.746 374.795C262.769 375.568 264.075 375.955 265.666 375.955ZM323.356 317.182V387H304.538V317.182H323.356ZM367.051 334.636V348.273H332.551V334.636H367.051ZM339.233 322.091H358.051V370.159C358.051 370.886 358.176 371.5 358.426 372C358.676 372.477 359.063 372.841 359.585 373.091C360.108 373.318 360.779 373.432 361.597 373.432C362.165 373.432 362.824 373.364 363.574 373.227C364.347 373.091 364.915 372.977 365.279 372.886L368.006 386.114C367.165 386.364 365.96 386.67 364.392 387.034C362.847 387.398 361.006 387.636 358.869 387.75C354.551 387.977 350.926 387.534 347.994 386.42C345.063 385.284 342.858 383.5 341.381 381.068C339.904 378.636 339.188 375.591 339.233 371.932V322.091ZM397.553 357.545V387H378.735V317.182H396.872V344.591H397.417C398.599 341.25 400.565 338.648 403.315 336.784C406.065 334.898 409.372 333.955 413.235 333.955C416.94 333.955 420.156 334.795 422.883 336.477C425.633 338.159 427.758 340.477 429.258 343.432C430.781 346.386 431.531 349.773 431.508 353.591V387H412.69V357.545C412.712 354.955 412.065 352.92 410.747 351.443C409.451 349.966 407.599 349.227 405.19 349.227C403.667 349.227 402.326 349.568 401.167 350.25C400.031 350.909 399.144 351.864 398.508 353.114C397.894 354.341 397.576 355.818 397.553 357.545ZM484.365 317.182V387H465.41V317.182H484.365ZM494.318 332.455V317.182H555V332.455H534V387H515.318V332.455H494.318ZM624.655 339C624.473 336.727 623.621 334.955 622.098 333.682C620.598 332.409 618.314 331.773 615.246 331.773C613.291 331.773 611.689 332.011 610.439 332.489C609.212 332.943 608.303 333.568 607.712 334.364C607.121 335.159 606.814 336.068 606.791 337.091C606.746 337.932 606.894 338.693 607.235 339.375C607.598 340.034 608.166 340.636 608.939 341.182C609.712 341.705 610.701 342.182 611.905 342.614C613.11 343.045 614.541 343.432 616.201 343.773L621.928 345C625.791 345.818 629.098 346.898 631.848 348.239C634.598 349.58 636.848 351.159 638.598 352.977C640.348 354.773 641.632 356.795 642.451 359.045C643.291 361.295 643.723 363.75 643.746 366.409C643.723 371 642.576 374.886 640.303 378.068C638.03 381.25 634.78 383.67 630.553 385.33C626.348 386.989 621.291 387.818 615.382 387.818C609.314 387.818 604.019 386.92 599.496 385.125C594.996 383.33 591.496 380.568 588.996 376.841C586.519 373.091 585.269 368.295 585.246 362.455H603.246C603.36 364.591 603.894 366.386 604.848 367.841C605.803 369.295 607.144 370.398 608.871 371.148C610.621 371.898 612.701 372.273 615.11 372.273C617.132 372.273 618.826 372.023 620.189 371.523C621.553 371.023 622.587 370.33 623.291 369.443C623.996 368.557 624.36 367.545 624.382 366.409C624.36 365.341 624.007 364.409 623.326 363.614C622.666 362.795 621.576 362.068 620.053 361.432C618.53 360.773 616.473 360.159 613.882 359.591L606.928 358.091C600.746 356.75 595.871 354.511 592.303 351.375C588.757 348.216 586.996 343.909 587.019 338.455C586.996 334.023 588.178 330.148 590.564 326.83C592.973 323.489 596.303 320.886 600.553 319.023C604.826 317.159 609.723 316.227 615.246 316.227C620.882 316.227 625.757 317.17 629.871 319.057C633.985 320.943 637.155 323.602 639.382 327.034C641.632 330.443 642.769 334.432 642.791 339H624.655ZM679.2 387.955C673.609 387.955 668.791 386.886 664.745 384.75C660.723 382.591 657.62 379.5 655.439 375.477C653.279 371.432 652.2 366.591 652.2 360.955C652.2 355.545 653.291 350.818 655.473 346.773C657.654 342.727 660.734 339.58 664.711 337.33C668.689 335.08 673.382 333.955 678.791 333.955C682.745 333.955 686.325 334.568 689.529 335.795C692.734 337.023 695.473 338.807 697.745 341.148C700.018 343.466 701.768 346.284 702.995 349.602C704.223 352.92 704.836 356.659 704.836 360.818V365.182H658.064V354.818H687.518C687.495 353.318 687.109 352 686.359 350.864C685.632 349.705 684.643 348.807 683.393 348.17C682.166 347.511 680.768 347.182 679.2 347.182C677.677 347.182 676.279 347.511 675.007 348.17C673.734 348.807 672.711 349.693 671.939 350.83C671.189 351.966 670.791 353.295 670.745 354.818V366C670.745 367.682 671.098 369.182 671.802 370.5C672.507 371.818 673.518 372.852 674.836 373.602C676.154 374.352 677.745 374.727 679.609 374.727C680.904 374.727 682.086 374.545 683.154 374.182C684.245 373.818 685.177 373.295 685.95 372.614C686.723 371.909 687.291 371.068 687.654 370.091H704.836C704.245 373.727 702.848 376.886 700.643 379.568C698.439 382.227 695.518 384.295 691.882 385.773C688.268 387.227 684.041 387.955 679.2 387.955ZM740.622 387.955C734.941 387.955 730.077 386.83 726.032 384.58C721.986 382.307 718.884 379.148 716.725 375.102C714.566 371.034 713.486 366.318 713.486 360.955C713.486 355.591 714.566 350.886 716.725 346.841C718.884 342.773 721.986 339.614 726.032 337.364C730.077 335.091 734.941 333.955 740.622 333.955C745.759 333.955 750.202 334.886 753.952 336.75C757.725 338.591 760.645 341.205 762.713 344.591C764.782 347.955 765.827 351.909 765.85 356.455H748.395C748.145 353.705 747.35 351.614 746.009 350.182C744.691 348.727 742.986 348 740.895 348C739.259 348 737.827 348.477 736.6 349.432C735.372 350.364 734.418 351.784 733.736 353.693C733.054 355.58 732.713 357.955 732.713 360.818C732.713 363.682 733.054 366.068 733.736 367.977C734.418 369.864 735.372 371.284 736.6 372.239C737.827 373.17 739.259 373.636 740.895 373.636C742.282 373.636 743.509 373.318 744.577 372.682C745.645 372.023 746.509 371.068 747.168 369.818C747.85 368.545 748.259 367 748.395 365.182H765.85C765.782 369.795 764.725 373.818 762.679 377.25C760.634 380.659 757.736 383.295 753.986 385.159C750.259 387.023 745.804 387.955 740.622 387.955ZM810.449 364.091V334.636H829.267V387H811.403V377.045H810.858C809.721 380.386 807.733 383 804.892 384.886C802.051 386.75 798.676 387.682 794.767 387.682C791.108 387.682 787.903 386.841 785.153 385.159C782.426 383.477 780.301 381.159 778.778 378.205C777.278 375.25 776.517 371.864 776.494 368.045V334.636H795.312V364.091C795.335 366.682 795.994 368.716 797.289 370.193C798.608 371.67 800.449 372.409 802.812 372.409C804.38 372.409 805.733 372.08 806.869 371.42C808.028 370.739 808.914 369.784 809.528 368.557C810.164 367.307 810.471 365.818 810.449 364.091ZM841.718 387V334.636H859.99V344.591H860.536C861.49 340.909 863.002 338.216 865.07 336.511C867.161 334.807 869.604 333.955 872.4 333.955C873.218 333.955 874.025 334.023 874.82 334.159C875.638 334.273 876.422 334.443 877.172 334.67V350.727C876.24 350.409 875.093 350.17 873.729 350.011C872.365 349.852 871.195 349.773 870.218 349.773C868.377 349.773 866.718 350.193 865.24 351.034C863.786 351.852 862.638 353.011 861.797 354.511C860.956 355.989 860.536 357.727 860.536 359.727V387H841.718ZM886.223 387V334.636H905.041V387H886.223ZM895.632 329.182C893.086 329.182 890.905 328.341 889.086 326.659C887.268 324.977 886.359 322.955 886.359 320.591C886.359 318.227 887.268 316.205 889.086 314.523C890.905 312.841 893.086 312 895.632 312C898.2 312 900.382 312.841 902.177 314.523C903.995 316.205 904.905 318.227 904.905 320.591C904.905 322.955 903.995 324.977 902.177 326.659C900.382 328.341 898.2 329.182 895.632 329.182ZM948.736 334.636V348.273H914.236V334.636H948.736ZM920.918 322.091H939.736V370.159C939.736 370.886 939.861 371.5 940.111 372C940.361 372.477 940.748 372.841 941.27 373.091C941.793 373.318 942.464 373.432 943.282 373.432C943.85 373.432 944.509 373.364 945.259 373.227C946.032 373.091 946.6 372.977 946.964 372.886L949.691 386.114C948.85 386.364 947.645 386.67 946.077 387.034C944.532 387.398 942.691 387.636 940.554 387.75C936.236 387.977 932.611 387.534 929.679 386.42C926.748 385.284 924.543 383.5 923.066 381.068C921.589 378.636 920.873 375.591 920.918 371.932V322.091ZM970.75 406.636C968.591 406.636 966.534 406.466 964.579 406.125C962.625 405.807 960.909 405.364 959.432 404.795L963.523 391.432C965.068 391.977 966.477 392.33 967.75 392.489C969.045 392.648 970.148 392.557 971.057 392.216C971.988 391.875 972.659 391.227 973.068 390.273L973.477 389.318L955.068 334.636H974.704L983.159 370.909H983.704L992.295 334.636H1012.07L992.977 391.364C992.023 394.25 990.636 396.841 988.818 399.136C987.023 401.455 984.659 403.284 981.727 404.625C978.795 405.966 975.136 406.636 970.75 406.636Z" fill="white"/>
<path d="M1023.7 674.308V769.591L1109.64 820.849L1194.5 770.065V674.071L1109.64 623.316L1023.7 674.308Z" fill="white" fill-opacity="0.15" stroke="white" stroke-width="4"/>
<path d="M1188.55 676.752V767.621L1108.91 815.099L1029.27 767.621V676.752L1108.91 629.273L1188.55 676.752ZM1115.55 617.778C1113.53 616.613 1111.24 616 1108.91 616C1106.58 616 1104.29 616.613 1102.28 617.778L1022.64 665.257C1020.62 666.422 1018.94 668.097 1017.78 670.115C1016.61 672.133 1016 674.422 1016 676.752V767.621C1016 769.951 1016.61 772.24 1017.78 774.257C1018.94 776.275 1020.62 777.951 1022.64 779.115L1102.28 826.594C1104.29 827.759 1106.58 828.372 1108.91 828.372C1111.24 828.372 1113.53 827.759 1115.55 826.594L1195.19 779.115C1197.21 777.951 1198.88 776.275 1200.05 774.257C1201.21 772.24 1201.83 769.951 1201.83 767.621V676.752C1201.83 674.422 1201.21 672.133 1200.05 670.115C1198.88 668.097 1197.21 666.422 1195.19 665.257L1115.55 617.778Z" fill="white" fill-opacity="0.15"/>
<g opacity="0.8">
<path d="M1105.62 775.373L1059.3 748.826V695.733L1105.62 722.28V775.373Z" fill="white"/>
<path d="M1151.95 748.826L1105.62 775.373V722.28L1151.95 695.733V748.826Z" fill="#EBEBEB"/>
<path d="M1105.62 721.744L1059.3 695.333L1105.62 668.922L1151.94 695.333L1105.62 721.744Z" fill="#FBFBFB"/>
<path d="M1105.62 721.897L1061.31 696.863L1059.3 698.012L1105.62 724.176L1151.94 698.012V695.733L1105.62 721.897Z" fill="white"/>
</g>
<path d="M743.656 951.305V1145.27L918.601 1249.61L1091.36 1146.23V950.823L918.601 847.506L743.656 951.305Z" fill="white" fill-opacity="0.15" stroke="white" stroke-width="4"/>
<path d="M1079.25 956.281V1141.26L917.136 1237.9L755.019 1141.26V956.281L917.136 859.632L1079.25 956.281ZM930.646 836.233C926.538 833.862 921.879 832.613 917.136 832.613C912.393 832.613 907.734 833.862 903.626 836.233L741.51 932.882C737.402 935.253 733.992 938.664 731.62 942.771C729.249 946.879 728 951.538 728 956.281V1141.26C728 1146 729.249 1150.66 731.62 1154.77C733.992 1158.87 737.402 1162.28 741.51 1164.65L903.626 1261.3C907.734 1263.67 912.393 1264.92 917.136 1264.92C921.879 1264.92 926.538 1263.67 930.646 1261.3L1092.76 1164.65C1096.87 1162.28 1100.28 1158.87 1102.65 1154.77C1105.02 1150.66 1106.27 1146 1106.27 1141.26V956.281C1106.27 951.538 1105.02 946.879 1102.65 942.771C1100.28 938.664 1096.87 935.253 1092.76 932.882L930.646 836.233Z" fill="white" fill-opacity="0.15"/>
<path d="M916.918 1010C918.251 1010 919.53 1009.47 920.473 1008.51C921.415 1007.56 921.945 1006.26 921.945 1004.91V991.769C921.945 990.419 921.415 989.124 920.473 988.169C919.53 987.215 918.251 986.679 916.918 986.679C915.585 986.679 914.306 987.215 913.363 988.169C912.42 989.124 911.891 990.419 911.891 991.769V1004.91C911.891 1006.26 912.42 1007.56 913.363 1008.51C914.306 1009.47 915.585 1010 916.918 1010Z" fill="white" stroke="white" stroke-width="0.5"/>
<path d="M975.103 1045.42H962.121C960.788 1045.42 959.509 1045.95 958.566 1046.91C957.623 1047.86 957.094 1049.16 957.094 1050.51C957.094 1051.86 957.623 1053.15 958.566 1054.1C959.509 1055.06 960.788 1055.6 962.121 1055.6H975.103C976.436 1055.6 977.715 1055.06 978.658 1054.1C979.6 1053.15 980.13 1051.86 980.13 1050.51C980.13 1049.16 979.6 1047.86 978.658 1046.91C977.715 1045.95 976.436 1045.42 975.103 1045.42Z" fill="white" stroke="white" stroke-width="0.5"/>
<path d="M871.884 1045.42H858.902C857.569 1045.42 856.29 1045.95 855.347 1046.91C854.405 1047.86 853.875 1049.16 853.875 1050.51C853.875 1051.86 854.405 1053.15 855.347 1054.1C856.29 1055.06 857.569 1055.6 858.902 1055.6H871.884C873.217 1055.6 874.496 1055.06 875.439 1054.1C876.382 1053.15 876.911 1051.86 876.911 1050.51C876.911 1049.16 876.382 1047.86 875.439 1046.91C874.496 1045.95 873.217 1045.42 871.884 1045.42Z" fill="white" stroke="white" stroke-width="0.5"/>
<path d="M834.027 992.95C834.687 992.95 835.341 992.818 835.951 992.562C836.561 992.306 837.115 991.932 837.582 991.459C838.049 990.986 838.419 990.425 838.672 989.808C838.924 989.19 839.054 988.528 839.054 987.86V973.18H853.553C854.886 973.18 856.165 972.643 857.108 971.689C858.05 970.734 858.58 969.44 858.58 968.09C858.58 966.74 858.05 965.445 857.108 964.491C856.165 963.536 854.886 963 853.553 963H834.027C832.694 963 831.415 963.536 830.472 964.491C829.53 965.445 829 966.74 829 968.09V987.86C829 989.21 829.53 990.504 830.472 991.459C831.415 992.413 832.694 992.95 834.027 992.95Z" fill="white" stroke="white" stroke-width="0.5"/>
<path d="M999.974 963H980.445C979.112 963 977.833 963.536 976.89 964.491C975.948 965.445 975.418 966.74 975.418 968.09C975.418 969.44 975.948 970.734 976.89 971.689C977.833 972.643 979.112 973.18 980.445 973.18H994.946V987.86C994.946 989.21 995.476 990.504 996.419 991.459C997.362 992.413 998.64 992.95 999.974 992.95C1001.31 992.95 1002.59 992.413 1003.53 991.459C1004.47 990.504 1005 989.21 1005 987.86V968.09C1005 966.74 1004.47 965.445 1003.53 964.491C1002.59 963.536 1001.31 963 999.974 963Z" fill="white" stroke="white" stroke-width="0.5"/>
<path d="M853.553 1128.82H839.054V1114.14C839.054 1112.79 838.525 1111.5 837.582 1110.54C836.639 1109.59 835.361 1109.05 834.027 1109.05C832.694 1109.05 831.415 1109.59 830.472 1110.54C829.53 1111.5 829 1112.79 829 1114.14V1133.91C829 1135.26 829.53 1136.56 830.472 1137.51C831.415 1138.46 832.694 1139 834.027 1139H853.553C854.886 1139 856.165 1138.46 857.108 1137.51C858.05 1136.56 858.58 1135.26 858.58 1133.91C858.58 1132.56 858.05 1131.27 857.108 1130.31C856.165 1129.36 854.886 1128.82 853.553 1128.82Z" fill="white" stroke="white" stroke-width="0.5"/>
<path d="M999.974 1109.05C998.64 1109.05 997.362 1109.59 996.419 1110.54C995.476 1111.5 994.946 1112.79 994.946 1114.14V1128.82H980.445C979.112 1128.82 977.833 1129.36 976.89 1130.31C975.948 1131.27 975.418 1132.56 975.418 1133.91C975.418 1135.26 975.948 1136.56 976.89 1137.51C977.833 1138.46 979.112 1139 980.445 1139H999.974C1001.31 1139 1002.59 1138.46 1003.53 1137.51C1004.47 1136.56 1005 1135.26 1005 1133.91V1114.14C1005 1112.79 1004.47 1111.5 1003.53 1110.54C1002.59 1109.59 1001.31 1109.05 999.974 1109.05Z" fill="white" stroke="white" stroke-width="0.5"/>
<path d="M916.918 1091.19C915.585 1091.19 914.306 1091.72 913.363 1092.68C912.42 1093.63 911.891 1094.93 911.891 1096.28V1109.42C911.891 1110.77 912.42 1112.07 913.363 1113.02C914.306 1113.97 915.585 1114.51 916.918 1114.51C918.251 1114.51 919.53 1113.97 920.473 1113.02C921.415 1112.07 921.945 1110.77 921.945 1109.42V1096.28C921.945 1094.93 921.415 1093.63 920.473 1092.68C919.53 1091.72 918.251 1091.19 916.918 1091.19Z" fill="white" stroke="white" stroke-width="0.5"/>
<path d="M917.009 968.734C901.019 968.734 885.387 973.535 872.092 982.529C858.796 991.524 848.434 1004.31 842.314 1019.27C836.195 1034.22 834.594 1050.68 837.714 1066.56C840.833 1082.44 848.533 1097.02 859.84 1108.47C871.147 1119.92 885.553 1127.71 901.236 1130.87C916.919 1134.03 933.175 1132.41 947.948 1126.21C962.722 1120.02 975.348 1109.53 984.232 1096.07C993.116 1082.61 997.858 1066.78 997.858 1050.59C997.858 1039.84 995.767 1029.2 991.704 1019.27C987.641 1009.33 981.685 1000.31 974.178 992.709C966.67 985.108 957.758 979.079 947.949 974.965C938.14 970.852 927.626 968.734 917.009 968.734ZM975.112 1062.86H967.087C964.855 1072.18 960.133 1080.7 953.439 1087.49C946.744 1094.27 938.335 1099.06 929.132 1101.32V1109.42C929.132 1112.69 927.846 1115.84 925.556 1118.16C923.266 1120.48 920.161 1121.78 916.923 1121.78C913.685 1121.78 910.579 1120.48 908.29 1118.16C906 1115.84 904.714 1112.69 904.714 1109.42V1101.3C895.529 1099.02 887.14 1094.23 880.462 1087.45C873.784 1080.67 869.074 1072.17 866.845 1062.86H858.907C855.669 1062.86 852.563 1061.56 850.274 1059.24C847.984 1056.93 846.698 1053.78 846.698 1050.5C846.698 1047.22 847.984 1044.08 850.274 1041.76C852.563 1039.44 855.669 1038.14 858.907 1038.14H866.89C869.142 1028.88 873.858 1020.41 880.526 1013.66C887.194 1006.92 895.559 1002.15 904.714 999.879V991.765C904.714 988.486 906 985.342 908.29 983.024C910.579 980.706 913.685 979.404 916.923 979.404C920.161 979.404 923.266 980.706 925.556 983.024C927.846 985.342 929.132 988.486 929.132 991.765V999.858C938.305 1002.12 946.69 1006.88 953.375 1013.63C960.059 1020.38 964.787 1028.86 967.043 1038.14H975.112C978.35 1038.14 981.455 1039.44 983.745 1041.76C986.034 1044.08 987.321 1047.22 987.321 1050.5C987.321 1053.78 986.034 1056.93 983.745 1059.24C981.455 1061.56 978.35 1062.86 975.112 1062.86Z" fill="#CCCCCC" stroke="white" stroke-width="0.5"/>
<path d="M944.802 1068.37C941.828 1061.76 936.48 1056.54 929.844 1053.77C929.347 1053.56 928.924 1053.2 928.629 1052.74C928.333 1052.28 928.178 1051.74 928.182 1051.2V1051.17C928.188 1050.78 928.27 1050.4 928.424 1050.04C928.577 1049.68 928.799 1049.36 929.076 1049.1C931.532 1046.67 933.217 1043.55 933.918 1040.15C934.619 1036.75 934.303 1033.22 933.011 1030C931.718 1026.78 929.508 1024.02 926.663 1022.08C923.817 1020.13 920.464 1019.09 917.031 1019.09C913.599 1019.08 910.243 1020.11 907.391 1022.05C904.539 1023.98 902.321 1026.73 901.019 1029.94C899.716 1033.16 899.39 1036.7 900.08 1040.1C900.77 1043.5 902.446 1046.62 904.894 1049.06C905.177 1049.33 905.403 1049.65 905.558 1050.02C905.713 1050.38 905.795 1050.77 905.798 1051.16V1051.21C905.798 1051.76 905.641 1052.29 905.346 1052.74C905.051 1053.19 904.631 1053.55 904.138 1053.76C897.484 1056.54 892.128 1061.79 889.162 1068.43C888.38 1070.1 887.737 1071.84 887.24 1073.63C886.995 1074.52 886.983 1075.46 887.204 1076.36C887.425 1077.26 887.872 1078.09 888.501 1078.77C893.414 1084.04 899.667 1087.84 906.573 1089.76C907.66 1087.97 909.182 1086.49 910.992 1085.47C912.803 1084.45 914.842 1083.91 916.915 1083.91C918.988 1083.92 921.027 1084.46 922.835 1085.48C924.643 1086.51 926.161 1087.99 927.244 1089.78C934.226 1087.86 940.541 1084.01 945.479 1078.66C946.102 1077.98 946.544 1077.15 946.762 1076.26C946.979 1075.36 946.965 1074.42 946.72 1073.53C946.225 1071.76 945.583 1070.03 944.802 1068.37Z" fill="white" stroke="white" stroke-width="0.5"/>
<defs>
<filter id="filter0_d_3007_1171" x="64" y="464" width="711" height="212" filterUnits="userSpaceOnUse" color-interpolation-filters="sRGB">
<feFlood flood-opacity="0" result="BackgroundImageFix"/>
<feColorMatrix in="SourceAlpha" type="matrix" values="0 0 0 0 0 0 0 0 0 0 0 0 0 0 0 0 0 0 127 0" result="hardAlpha"/>
<feOffset dy="16"/>
<feGaussianBlur stdDeviation="20"/>
<feComposite in2="hardAlpha" operator="out"/>
<feColorMatrix type="matrix" values="0 0 0 0 0 0 0 0 0 0 0 0 0 0 0 0 0 0 0.05 0"/>
<feBlend mode="normal" in2="BackgroundImageFix" result="effect1_dropShadow_3007_1171"/>
<feBlend mode="normal" in="SourceGraphic" in2="effect1_dropShadow_3007_1171" result="shape"/>
</filter>
<radialGradient id="paint0_radial_3007_1171" cx="0" cy="0" r="1" gradientUnits="userSpaceOnUse" gradientTransform="translate(-355.2 -322.136) rotate(36.5012) scale(2238.73 3337.02)">
<stop offset="0.120942" stop-color="#321179"/>
<stop offset="1" stop-color="#160E2B"/>
</radialGradient>
</defs>
</svg>
