<svg xmlns="http://www.w3.org/2000/svg" xmlns:xlink="http://www.w3.org/1999/xlink" width="1080" zoomAndPan="magnify" viewBox="0 0 810 809.999993" height="1080" preserveAspectRatio="xMidYMid meet" version="1.0"><defs><filter x="0%" y="0%" width="100%" height="100%" id="ba5bfa089f"><feColorMatrix values="0 0 0 0 1 0 0 0 0 1 0 0 0 0 1 0 0 0 1 0" color-interpolation-filters="sRGB"/></filter><g/><mask id="54b5959a71"><g filter="url(#ba5bfa089f)"><rect x="-81" width="972" fill="#000000" y="-80.999999" height="971.999992" fill-opacity="0.8"/></g></mask><clipPath id="09d749d461"><path d="M 1 1.183594 L 780.160156 1.183594 L 780.160156 676 L 1 676 Z M 1 1.183594 " clip-rule="nonzero"/></clipPath><clipPath id="eb454498e7"><rect x="0" width="781" y="0" height="677"/></clipPath><clipPath id="ad2037a1fd"><path d="M 3.097656 63.144531 L 783 63.144531 L 783 738.144531 L 3.097656 738.144531 Z M 3.097656 63.144531 " clip-rule="nonzero"/></clipPath><clipPath id="9e0a2e01ef"><path d="M 262 410.898438 L 549 410.898438 L 549 728.898438 L 262 728.898438 Z M 262 410.898438 " clip-rule="nonzero"/></clipPath><mask id="d967cdb642"><g filter="url(#ba5bfa089f)"><rect x="-81" width="972" fill="#000000" y="-80.999999" height="971.999992" fill-opacity="0.7"/></g></mask><clipPath id="b83514ac57"><rect x="0" width="576" y="0" height="266"/></clipPath></defs><g mask="url(#54b5959a71)"><g transform="matrix(1, 0, 0, 1, 20, 71)"><g clip-path="url(#eb454498e7)"><g clip-path="url(#09d749d461)"><path fill="#117dba" d="M 581.101562 668.453125 L 200.140625 668.453125 L 9.640625 338.519531 L 200.140625 8.582031 L 581.101562 8.582031 L 771.59375 338.519531 Z M 585.386719 1.167969 L 195.855469 1.167969 L 1.089844 338.519531 L 195.855469 675.871094 L 585.386719 675.871094 L 780.15625 338.519531 L 585.386719 1.167969 " fill-opacity="1" fill-rule="nonzero"/></g></g></g></g><path fill="#ffffff" d="M 586.445312 65.523438 L 199.558594 65.523438 L 6.113281 400.578125 L 199.558594 735.644531 L 586.445312 735.644531 L 779.890625 400.578125 Z M 586.445312 65.523438 " fill-opacity="1" fill-rule="nonzero"/><g clip-path="url(#ad2037a1fd)"><path fill="#1ab7e2" d="M 587.824219 738.027344 L 198.175781 738.027344 L 3.359375 400.578125 L 198.175781 63.144531 L 587.824219 63.144531 L 782.644531 400.578125 L 587.824219 738.015625 Z M 200.929688 733.261719 L 585.070312 733.261719 L 777.148438 400.589844 L 585.070312 67.90625 L 200.929688 67.90625 L 8.855469 400.578125 L 200.929688 733.253906 Z M 200.929688 733.261719 " fill-opacity="1" fill-rule="nonzero"/></g><g clip-path="url(#9e0a2e01ef)"><path fill="#117dba" d="M 531.757812 554.226562 C 520.109375 530.25 517.441406 508.804688 523.601562 488.664062 C 526.597656 478.871094 532.347656 464.828125 542.746094 453.503906 L 546.640625 449.25 L 500.261719 410.898438 L 496.628906 412.191406 C 460.328125 425.128906 426.957031 428.417969 405.300781 428.890625 C 383.5625 428.40625 350.105469 425.117188 313.804688 412.191406 L 310.171875 410.898438 L 263.605469 449.238281 L 267.511719 453.503906 C 277.917969 464.828125 283.671875 478.871094 286.667969 488.664062 C 292.835938 508.8125 290.171875 530.257812 278.523438 554.226562 C 267.4375 577.039062 255.964844 600.632812 266.054688 628.789062 C 271.15625 643.042969 281.179688 661.996094 299.886719 671.304688 C 304.957031 673.828125 310.214844 676.175781 315.285156 678.433594 C 320.367188 680.703125 325.625 683.039062 330.578125 685.515625 C 332.617188 686.535156 334.738281 687.574219 336.898438 688.652344 C 358.328125 699.230469 384.980469 705.851562 395.78125 723.765625 C 397.921875 727.308594 402.09375 728.898438 405.289062 728.898438 C 409.085938 728.898438 412.753906 726.878906 414.640625 723.765625 C 425.453125 705.820312 452.136719 699.1875 473.566406 688.597656 C 475.683594 687.542969 477.757812 686.523438 479.769531 685.515625 C 484.71875 683.039062 489.976562 680.691406 495.046875 678.421875 C 500.121094 676.164062 505.355469 673.816406 510.425781 671.296875 C 529.109375 661.996094 539.121094 643.042969 544.238281 628.777344 C 554.3125 600.644531 542.84375 577.050781 531.757812 554.226562 Z M 532.238281 625.203125 C 527.835938 637.484375 519.441406 653.6875 504.390625 661.175781 C 499.558594 663.578125 494.457031 665.855469 489.503906 668.070312 C 484.300781 670.394531 478.921875 672.796875 473.707031 675.40625 C 471.722656 676.402344 469.667969 677.414062 467.5625 678.453125 C 445.617188 689.296875 418.515625 696.148438 405.210938 715.664062 C 391.929688 696.183594 364.847656 689.351562 342.914062 678.507812 C 340.765625 677.445312 338.667969 676.414062 336.648438 675.394531 C 331.433594 672.785156 326.042969 670.386719 320.828125 668.0625 C 315.878906 665.855469 310.753906 663.566406 305.921875 661.164062 C 290.851562 653.664062 282.453125 637.460938 278.050781 625.191406 C 269.46875 601.25 279.46875 580.667969 290.058594 558.886719 C 302.949219 532.375 305.8125 508.375 298.820312 485.539062 C 295.855469 475.867188 290.433594 462.40625 280.9375 450.464844 L 312.859375 424.1875 C 349.535156 436.695312 383.125 439.929688 405.132812 440.402344 L 405.441406 440.402344 C 427.386719 439.929688 460.886719 436.707031 497.550781 424.1875 L 529.332031 450.476562 C 519.835938 462.417969 514.402344 475.878906 511.449219 485.558594 C 504.457031 508.386719 507.332031 532.386719 520.21875 558.90625 C 530.8125 580.691406 540.8125 601.269531 532.238281 625.203125 Z M 532.238281 625.203125 " fill-opacity="1" fill-rule="nonzero"/></g><path fill="#1ab7e2" d="M 515.160156 561.351562 C 501.625 533.492188 498.648438 508.15625 506.070312 483.914062 C 508.726562 475.234375 513.511719 462.964844 521.636719 451.410156 L 496.386719 430.535156 C 460.085938 442.484375 427.089844 445.585938 405.574219 446.046875 L 405.300781 446.058594 L 405.023438 446.046875 C 383.433594 445.585938 350.335938 442.484375 314.035156 430.535156 L 288.65625 451.417969 C 296.765625 462.976562 301.542969 475.234375 304.199219 483.914062 C 311.628906 508.179688 308.65625 533.503906 295.121094 561.363281 C 284.625 582.949219 275.570312 601.597656 283.351562 623.316406 C 287.402344 634.621094 295.042969 649.5 308.4375 656.15625 C 313.15625 658.5 318.226562 660.757812 323.125 662.941406 C 328.390625 665.285156 333.847656 667.722656 339.171875 670.386719 C 341.171875 671.382812 343.234375 672.402344 345.351562 673.445312 L 345.417969 673.476562 C 350.765625 676.117188 356.363281 678.488281 362.277344 680.988281 C 377.964844 687.632812 394.113281 694.460938 405.222656 706.628906 C 416.34375 694.4375 432.511719 687.585938 448.21875 680.933594 C 454.136719 678.421875 459.722656 676.054688 465.070312 673.410156 C 467.167969 672.378906 469.207031 671.359375 471.183594 670.375 C 476.507812 667.710938 481.941406 665.285156 487.234375 662.917969 C 492.117188 660.738281 497.167969 658.480469 501.875 656.132812 C 515.246094 649.476562 522.886719 634.601562 526.9375 623.296875 C 534.71875 601.609375 525.652344 582.949219 515.160156 561.351562 Z M 515.160156 561.351562 " fill-opacity="1" fill-rule="nonzero"/><path fill="#ffffff" d="M 372.621094 624.097656 C 371.214844 625.226562 369.523438 625.773438 367.832031 625.773438 C 365.738281 625.773438 363.652344 624.917969 362.148438 623.253906 L 312.167969 567.84375 L 323.53125 557.625 L 368.667969 607.671875 L 487.34375 512.464844 L 496.914062 524.371094 Z M 372.621094 624.097656 " fill-opacity="1" fill-rule="nonzero"/><g mask="url(#d967cdb642)"><g transform="matrix(1, 0, 0, 1, 103, 108)"><g clip-path="url(#b83514ac57)"><g fill="#000000" fill-opacity="1"><g transform="translate(126.218325, 107.984665)"><g><path d="M 74.625 0 L 63.453125 0 L 63.453125 -38.515625 L 20.328125 -38.515625 L 20.328125 0 L 9.328125 0 L 9.328125 -82.546875 L 20.328125 -82.546875 L 20.328125 -48.40625 L 63.453125 -48.40625 L 63.453125 -82.546875 L 74.625 -82.546875 Z M 74.625 0 "/></g></g></g><g fill="#000000" fill-opacity="1"><g transform="translate(206.713236, 107.984665)"><g><path d="M 20.5 0 L 9.328125 0 L 9.328125 -82.546875 L 20.5 -82.546875 Z M 20.5 0 "/></g></g></g><g fill="#000000" fill-opacity="1"><g transform="translate(232.910671, 107.984665)"><g><path d="M 20.5 -44.421875 L 42.671875 -44.421875 C 48.253906 -44.421875 52.445312 -45.644531 55.25 -48.09375 C 58.0625 -50.539062 59.46875 -54.253906 59.46875 -59.234375 C 59.46875 -63.691406 58.117188 -67.097656 55.421875 -69.453125 C 52.722656 -71.816406 48.625 -73 43.125 -73 L 20.5 -73 Z M 20.5 0 L 9.328125 0 L 9.328125 -82.546875 L 46.4375 -82.546875 C 53.8125 -82.546875 59.742188 -80.398438 64.234375 -76.109375 C 68.734375 -71.828125 70.984375 -66.242188 70.984375 -59.359375 C 70.984375 -52.203125 68.8125 -46.332031 64.46875 -41.75 C 60.125 -37.164062 54.113281 -34.875 46.4375 -34.875 L 20.5 -34.875 Z M 20.5 0 "/></g></g></g><g fill="#000000" fill-opacity="1"><g transform="translate(303.803852, 107.984665)"><g><path d="M 50.59375 -33.921875 L 38.40625 -70.25 L 38.1875 -70.25 L 24.9375 -33.921875 Z M 21.5 -24.03125 L 12.859375 0 L 1.40625 0 L 32.453125 -82.546875 L 45.09375 -82.546875 L 74.96875 0 L 62.78125 0 L 54.640625 -24.03125 Z M 21.5 -24.03125 "/></g></g></g><g fill="#000000" fill-opacity="1"><g transform="translate(377.055363, 107.984665)"><g><path d="M 50.59375 -33.921875 L 38.40625 -70.25 L 38.1875 -70.25 L 24.9375 -33.921875 Z M 21.5 -24.03125 L 12.859375 0 L 1.40625 0 L 32.453125 -82.546875 L 45.09375 -82.546875 L 74.96875 0 L 62.78125 0 L 54.640625 -24.03125 Z M 21.5 -24.03125 "/></g></g></g><g fill="#000000" fill-opacity="1"><g transform="translate(1.589425, 236.234659)"><g><path d="M 66.703125 -57.71875 C 65.472656 -63.332031 62.882812 -67.585938 58.9375 -70.484375 C 54.988281 -73.390625 49.867188 -74.84375 43.578125 -74.84375 C 35.453125 -74.84375 28.914062 -71.894531 23.96875 -66 C 19.03125 -60.101562 16.5625 -52.140625 16.5625 -42.109375 C 16.5625 -30.503906 18.898438 -21.863281 23.578125 -16.1875 C 28.265625 -10.519531 35.039062 -7.6875 43.90625 -7.6875 C 49.75 -7.6875 54.773438 -9.625 58.984375 -13.5 C 63.203125 -17.375 66.039062 -23 67.5 -30.375 L 78.328125 -30.375 C 76.867188 -19.78125 72.84375 -11.703125 66.25 -6.140625 C 59.664062 -0.585938 51.660156 2.1875 42.234375 2.1875 C 30.960938 2.1875 21.945312 -1.6875 15.1875 -9.4375 C 8.425781 -17.1875 5.046875 -27.945312 5.046875 -41.71875 C 5.046875 -55.007812 8.570312 -65.5 15.625 -73.1875 C 22.6875 -80.882812 32.003906 -84.734375 43.578125 -84.734375 C 53.160156 -84.734375 60.925781 -82.257812 66.875 -77.3125 C 72.832031 -72.375 76.367188 -65.84375 77.484375 -57.71875 Z M 66.703125 -57.71875 "/></g></g></g><g fill="#000000" fill-opacity="1"><g transform="translate(81.29823, 236.234659)"><g><path d="M 14.59375 -30.15625 C 14.59375 -23.457031 16.109375 -17.941406 19.140625 -13.609375 C 22.179688 -9.285156 26.488281 -7.125 32.0625 -7.125 C 37.820312 -7.125 42.195312 -9.390625 45.1875 -13.921875 C 48.1875 -18.453125 49.6875 -23.863281 49.6875 -30.15625 C 49.6875 -36.519531 48.1875 -41.921875 45.1875 -46.359375 C 42.195312 -50.796875 37.820312 -53.015625 32.0625 -53.015625 C 26.707031 -53.015625 22.457031 -50.925781 19.3125 -46.75 C 16.164062 -42.570312 14.59375 -37.039062 14.59375 -30.15625 Z M 4.265625 -30.15625 C 4.265625 -39.101562 6.753906 -46.625 11.734375 -52.71875 C 16.710938 -58.820312 23.488281 -61.875 32.0625 -61.875 C 40.820312 -61.875 47.671875 -58.785156 52.609375 -52.609375 C 57.554688 -46.429688 60.03125 -38.945312 60.03125 -30.15625 C 60.03125 -21.320312 57.578125 -13.796875 52.671875 -7.578125 C 47.765625 -1.367188 40.894531 1.734375 32.0625 1.734375 C 23.5625 1.734375 16.800781 -1.273438 11.78125 -7.296875 C 6.769531 -13.328125 4.265625 -20.945312 4.265625 -30.15625 Z M 4.265625 -30.15625 "/></g></g></g><g fill="#000000" fill-opacity="1"><g transform="translate(142.140489, 236.234659)"><g><path d="M 7.578125 -60.140625 L 17.125 -60.140625 L 17.125 -51.65625 L 17.34375 -51.65625 C 21.875 -58.46875 27.941406 -61.875 35.546875 -61.875 C 43.066406 -61.875 48.398438 -58.617188 51.546875 -52.109375 C 54.429688 -55.628906 57.21875 -58.132812 59.90625 -59.625 C 62.601562 -61.125 65.9375 -61.875 69.90625 -61.875 C 75.113281 -61.875 79.519531 -60.171875 83.125 -56.765625 C 86.738281 -53.359375 88.546875 -48.304688 88.546875 -41.609375 L 88.546875 0 L 78.4375 0 L 78.4375 -38.859375 C 78.4375 -43.535156 77.554688 -47.023438 75.796875 -49.328125 C 74.046875 -51.628906 71.203125 -52.78125 67.265625 -52.78125 C 63.296875 -52.78125 59.945312 -51.171875 57.21875 -47.953125 C 54.488281 -44.734375 53.125 -40.972656 53.125 -36.671875 L 53.125 0 L 43.015625 0 L 43.015625 -41.609375 C 43.015625 -45.085938 42.207031 -47.816406 40.59375 -49.796875 C 38.988281 -51.785156 36.648438 -52.78125 33.578125 -52.78125 C 28.742188 -52.78125 24.882812 -50.984375 22 -47.390625 C 19.125 -43.796875 17.6875 -38.929688 17.6875 -32.796875 L 17.6875 0 L 7.578125 0 Z M 7.578125 -60.140625 "/></g></g></g><g fill="#000000" fill-opacity="1"><g transform="translate(234.146221, 236.234659)"><g><path d="M 17.234375 -27.234375 C 17.234375 -20.796875 18.804688 -15.816406 21.953125 -12.296875 C 25.097656 -8.773438 29.007812 -7.015625 33.6875 -7.015625 C 38.820312 -7.015625 42.8125 -9.101562 45.65625 -13.28125 C 48.5 -17.457031 49.921875 -23.117188 49.921875 -30.265625 C 49.921875 -38.085938 48.550781 -43.796875 45.8125 -47.390625 C 43.082031 -50.984375 38.96875 -52.78125 33.46875 -52.78125 C 28.113281 -52.78125 24.066406 -50.675781 21.328125 -46.46875 C 18.597656 -42.257812 17.234375 -35.847656 17.234375 -27.234375 Z M 7.578125 -60.140625 L 17.125 -60.140625 L 17.125 -51.65625 L 17.34375 -51.65625 C 21.65625 -58.46875 27.644531 -61.875 35.3125 -61.875 C 43.0625 -61.875 49.171875 -59.054688 53.640625 -53.421875 C 58.117188 -47.796875 60.359375 -40.601562 60.359375 -31.84375 C 60.359375 -22.03125 58.070312 -13.976562 53.5 -7.6875 C 48.9375 -1.40625 42.410156 1.734375 33.921875 1.734375 C 26.953125 1.734375 21.613281 -0.957031 17.90625 -6.34375 L 17.6875 -6.34375 L 17.6875 23.8125 L 7.578125 23.8125 Z M 7.578125 -60.140625 "/></g></g></g><g fill="#000000" fill-opacity="1"><g transform="translate(295.662285, 236.234659)"><g><path d="M 17.6875 0 L 7.578125 0 L 7.578125 -82.546875 L 17.6875 -82.546875 Z M 17.6875 0 "/></g></g></g><g fill="#000000" fill-opacity="1"><g transform="translate(317.536155, 236.234659)"><g><path d="M 7.578125 -71.09375 L 7.578125 -82.546875 L 17.6875 -82.546875 L 17.6875 -71.09375 Z M 17.6875 0 L 7.578125 0 L 7.578125 -60.140625 L 17.6875 -60.140625 Z M 17.6875 0 "/></g></g></g><g fill="#000000" fill-opacity="1"><g transform="translate(339.410025, 236.234659)"><g><path d="M 44.140625 -30.71875 C 43.390625 -29.925781 41.914062 -29.285156 39.71875 -28.796875 C 37.53125 -28.316406 33.441406 -27.679688 27.453125 -26.890625 C 23.035156 -26.367188 19.785156 -25.285156 17.703125 -23.640625 C 15.628906 -21.992188 14.59375 -19.820312 14.59375 -17.125 C 14.59375 -13.832031 15.472656 -11.269531 17.234375 -9.4375 C 18.992188 -7.601562 21.800781 -6.6875 25.65625 -6.6875 C 30.488281 -6.6875 34.773438 -8.0625 38.515625 -10.8125 C 42.265625 -13.5625 44.140625 -16.898438 44.140625 -20.828125 Z M 7.125 -41.828125 C 7.351562 -48.609375 9.550781 -53.644531 13.71875 -56.9375 C 17.894531 -60.226562 23.972656 -61.875 31.953125 -61.875 C 38.316406 -61.875 43.648438 -60.429688 47.953125 -57.546875 C 52.253906 -54.671875 54.40625 -50.519531 54.40625 -45.09375 L 54.40625 -10.4375 C 54.40625 -8.082031 55.472656 -6.90625 57.609375 -6.90625 C 58.472656 -6.90625 59.578125 -7.054688 60.921875 -7.359375 L 60.921875 0 C 59.085938 0.75 57.179688 1.125 55.203125 1.125 C 51.753906 1.125 49.1875 0.382812 47.5 -1.09375 C 45.820312 -2.570312 44.941406 -4.882812 44.859375 -8.03125 C 39.097656 -1.519531 31.859375 1.734375 23.140625 1.734375 C 17.441406 1.734375 12.867188 0.125 9.421875 -3.09375 C 5.984375 -6.3125 4.265625 -10.503906 4.265625 -15.671875 C 4.265625 -20.941406 5.757812 -25.207031 8.75 -28.46875 C 11.75 -31.726562 16.113281 -33.691406 21.84375 -34.359375 L 39.703125 -36.5625 C 42.921875 -37.039062 44.53125 -39.414062 44.53125 -43.6875 C 44.53125 -46.832031 43.359375 -49.242188 41.015625 -50.921875 C 38.679688 -52.609375 35.132812 -53.453125 30.375 -53.453125 C 26.144531 -53.453125 22.894531 -52.515625 20.625 -50.640625 C 18.363281 -48.773438 17.007812 -45.835938 16.5625 -41.828125 Z M 7.125 -41.828125 "/></g></g></g><g fill="#000000" fill-opacity="1"><g transform="translate(399.129275, 236.234659)"><g><path d="M 56.609375 0 L 46.4375 0 L 46.4375 -37 C 46.4375 -42.695312 45.441406 -46.75 43.453125 -49.15625 C 41.472656 -51.570312 38.179688 -52.78125 33.578125 -52.78125 C 29.046875 -52.78125 25.265625 -51.054688 22.234375 -47.609375 C 19.203125 -44.171875 17.6875 -39.234375 17.6875 -32.796875 L 17.6875 0 L 7.578125 0 L 7.578125 -60.140625 L 17.125 -60.140625 L 17.125 -51.65625 L 17.34375 -51.65625 C 22.101562 -58.46875 28.171875 -61.875 35.546875 -61.875 C 42.359375 -61.875 47.570312 -60.066406 51.1875 -56.453125 C 54.800781 -52.847656 56.609375 -47.675781 56.609375 -40.9375 Z M 56.609375 0 "/></g></g></g><g fill="#000000" fill-opacity="1"><g transform="translate(459.129272, 236.234659)"><g><path d="M 45.546875 -39.921875 C 44.078125 -48.492188 39.320312 -52.78125 31.28125 -52.78125 C 26.300781 -52.78125 22.296875 -50.785156 19.265625 -46.796875 C 16.234375 -42.816406 14.71875 -37.269531 14.71875 -30.15625 C 14.71875 -22.40625 16.117188 -16.609375 18.921875 -12.765625 C 21.734375 -8.929688 25.816406 -7.015625 31.171875 -7.015625 C 34.765625 -7.015625 37.867188 -8.332031 40.484375 -10.96875 C 43.109375 -13.613281 44.796875 -17.050781 45.546875 -21.28125 L 55.3125 -21.28125 C 54.300781 -13.832031 51.671875 -8.132812 47.421875 -4.1875 C 43.171875 -0.238281 37.675781 1.734375 30.9375 1.734375 C 23.039062 1.734375 16.566406 -0.96875 11.515625 -6.375 C 6.460938 -11.78125 3.9375 -19.125 3.9375 -28.40625 C 3.9375 -38.59375 6.460938 -46.71875 11.515625 -52.78125 C 16.566406 -58.84375 23.660156 -61.875 32.796875 -61.875 C 39.453125 -61.875 44.753906 -59.878906 48.703125 -55.890625 C 52.660156 -51.910156 54.863281 -46.585938 55.3125 -39.921875 Z M 45.546875 -39.921875 "/></g></g></g><g fill="#000000" fill-opacity="1"><g transform="translate(514.637234, 236.234659)"><g><path d="M 48.859375 -34.875 C 48.328125 -41.382812 46.601562 -45.992188 43.6875 -48.703125 C 40.769531 -51.421875 36.894531 -52.78125 32.0625 -52.78125 C 27.15625 -52.78125 23.195312 -51.054688 20.1875 -47.609375 C 17.175781 -44.171875 15.578125 -39.925781 15.390625 -34.875 Z M 58.515625 -18.875 C 57.390625 -12.65625 54.335938 -7.503906 49.359375 -3.421875 C 44.972656 0.015625 39.207031 1.773438 32.0625 1.859375 C 23.632812 1.773438 16.953125 -0.984375 12.015625 -6.421875 C 7.078125 -11.867188 4.609375 -19.195312 4.609375 -28.40625 C 4.609375 -38.96875 7.148438 -47.1875 12.234375 -53.0625 C 17.328125 -58.9375 24.40625 -61.875 33.46875 -61.875 C 41.59375 -61.875 47.9375 -58.84375 52.5 -52.78125 C 57.070312 -46.71875 59.359375 -38.050781 59.359375 -26.78125 L 15.390625 -26.78125 C 15.390625 -20.488281 16.847656 -15.617188 19.765625 -12.171875 C 22.679688 -8.734375 27.0625 -7.015625 32.90625 -7.015625 C 37.019531 -7.015625 40.554688 -8.257812 43.515625 -10.75 C 46.472656 -13.238281 48.101562 -15.945312 48.40625 -18.875 Z M 58.515625 -18.875 "/></g></g></g></g></g></g></svg>