<svg width="476" height="282" viewBox="0 0 476 282" fill="none" xmlns="http://www.w3.org/2000/svg">
<path d="M112.186 179.541C112.137 179.55 112.086 179.55 112.036 179.541L0.146184 114.901C0.11214 114.883 0.0823113 114.857 0.0585872 114.827C0.034863 114.796 0.017759 114.761 0.00835907 114.723C-0.00104085 114.686 -0.002531 114.647 0.0039798 114.608C0.0104906 114.57 0.024863 114.534 0.0461856 114.501C0.0638178 114.467 0.088551 114.436 0.118798 114.411C0.149046 114.386 0.184135 114.368 0.22181 114.358C0.259486 114.347 0.298914 114.345 0.337556 114.351C0.376198 114.357 0.413201 114.37 0.446183 114.391L112.186 178.901L254.316 96.8414C254.361 96.8117 254.413 96.7959 254.466 96.7959C254.52 96.7959 254.572 96.8117 254.616 96.8414L349.326 151.521L411.806 115.441C411.875 115.402 411.957 115.391 412.034 115.411C412.111 115.432 412.176 115.482 412.216 115.551C412.256 115.62 412.267 115.702 412.246 115.779C412.225 115.856 412.175 115.922 412.106 115.961L349.486 152.121C349.44 152.146 349.388 152.159 349.336 152.159C349.284 152.159 349.232 152.146 349.186 152.121L254.486 97.4414L112.336 179.501C112.289 179.524 112.238 179.538 112.186 179.541V179.541Z" fill="#42E8E0"/>
<path d="M474.984 221.551C474.934 221.56 474.883 221.56 474.834 221.551L393.164 174.391L342.534 203.621C342.489 203.646 342.44 203.659 342.389 203.659C342.338 203.659 342.288 203.646 342.244 203.621L143.654 88.9214C143.609 88.8967 143.572 88.8605 143.545 88.8166C143.519 88.7727 143.505 88.7226 143.504 88.6714C143.504 88.6187 143.518 88.5669 143.544 88.5213C143.57 88.4756 143.608 88.4377 143.654 88.4114L245.194 29.7814C245.263 29.7416 245.345 29.7308 245.422 29.7515C245.499 29.7721 245.564 29.8224 245.604 29.8914C245.644 29.9603 245.654 30.0423 245.634 30.1192C245.613 30.1961 245.563 30.2616 245.494 30.3014L144.394 88.6714L342.394 202.981L393.014 173.751C393.06 173.727 393.112 173.714 393.164 173.714C393.216 173.714 393.268 173.727 393.314 173.751L475.134 220.991C475.191 221.024 475.236 221.075 475.261 221.136C475.287 221.197 475.291 221.265 475.274 221.329C475.257 221.393 475.219 221.449 475.167 221.489C475.114 221.53 475.05 221.551 474.984 221.551V221.551Z" fill="#42E8E0"/>
<path d="M291.006 261.011C290.957 261.025 290.905 261.025 290.856 261.011L230.236 226.011C230.191 225.985 230.153 225.947 230.126 225.901C230.1 225.856 230.086 225.804 230.086 225.751C230.086 225.698 230.1 225.647 230.126 225.601C230.153 225.555 230.191 225.517 230.236 225.491L305.636 181.961C305.705 181.921 305.787 181.911 305.864 181.931C305.941 181.952 306.006 182.002 306.046 182.071C306.086 182.14 306.097 182.222 306.076 182.299C306.056 182.376 306.005 182.441 305.936 182.481L230.936 225.751L291.116 260.491C291.151 260.511 291.181 260.537 291.204 260.568C291.228 260.6 291.245 260.636 291.255 260.674C291.264 260.713 291.266 260.753 291.259 260.792C291.252 260.831 291.238 260.868 291.216 260.901C291.191 260.933 291.159 260.96 291.123 260.979C291.087 260.997 291.047 261.009 291.006 261.011V261.011Z" fill="#42E8E0"/>
<path d="M379.666 278.511C379.62 278.522 379.572 278.522 379.526 278.511L51.9858 89.3615C51.9451 89.3459 51.9083 89.3216 51.8779 89.2904C51.8475 89.2591 51.8243 89.2216 51.8098 89.1804C51.7954 89.1393 51.7902 89.0955 51.7944 89.0521C51.7986 89.0087 51.8123 88.9667 51.8344 88.9291C51.8565 88.8915 51.8865 88.8592 51.9224 88.8345C51.9583 88.8097 51.9991 88.793 52.0421 88.7856C52.0851 88.7782 52.1291 88.7803 52.1712 88.7916C52.2133 88.803 52.2525 88.8234 52.2859 88.8515L379.816 277.951C379.883 277.993 379.932 278.059 379.952 278.135C379.972 278.211 379.963 278.292 379.926 278.361C379.899 278.407 379.862 278.445 379.816 278.471C379.77 278.498 379.719 278.512 379.666 278.511V278.511Z" fill="#42E8E0"/>
<path d="M181.726 197.921C181.677 197.935 181.625 197.935 181.576 197.921L95.5758 148.291C95.5309 148.266 95.4934 148.23 95.4671 148.186C95.4407 148.142 95.4265 148.092 95.4258 148.041C95.4257 147.988 95.4396 147.937 95.4659 147.891C95.4923 147.845 95.5301 147.807 95.5758 147.781L170.976 104.251C171.045 104.214 171.126 104.204 171.203 104.225C171.279 104.245 171.344 104.294 171.386 104.361C171.405 104.394 171.418 104.431 171.423 104.47C171.428 104.508 171.425 104.547 171.415 104.584C171.405 104.621 171.387 104.656 171.363 104.687C171.339 104.717 171.31 104.742 171.276 104.761L96.2758 148.041L181.646 197.321L386.486 79.0611C386.519 79.0416 386.556 79.029 386.594 79.0239C386.633 79.0189 386.672 79.0216 386.709 79.0319C386.746 79.0421 386.781 79.0597 386.811 79.0836C386.842 79.1075 386.867 79.1373 386.886 79.1711C386.905 79.2052 386.918 79.2429 386.923 79.282C386.929 79.3211 386.926 79.3608 386.916 79.3989C386.906 79.437 386.888 79.4726 386.864 79.5039C386.84 79.5352 386.81 79.5614 386.776 79.5811L181.876 197.881C181.831 197.908 181.779 197.922 181.726 197.921V197.921Z" fill="#42E8E0"/>
<path opacity="0.3" d="M125.214 90.4114L99.2344 75.4014L125.214 60.4014L151.204 75.4014L125.214 90.4114Z" fill="#42E8E0"/>
<path opacity="0.5" d="M125.214 73.1211L99.2344 58.1211L125.214 43.1211L151.204 58.1211L125.214 73.1211Z" fill="#42E8E0"/>
<path opacity="0.7" d="M125.214 59.2715L99.2344 44.2715L125.214 29.2715L151.204 44.2715L125.214 59.2715Z" fill="#42E8E0"/>
<path d="M125.213 60.0108C125.086 60.0118 124.961 59.9771 124.853 59.9108L98.8529 44.9108C98.7408 44.8457 98.6478 44.7524 98.5831 44.6401C98.5184 44.5278 98.4844 44.4004 98.4844 44.2708C98.4844 44.1412 98.5184 44.0139 98.5831 43.9016C98.6478 43.7892 98.7408 43.6959 98.8529 43.6308L124.853 28.6308C124.966 28.5668 125.093 28.5332 125.223 28.5332C125.353 28.5332 125.48 28.5668 125.593 28.6308L151.593 43.6308C151.705 43.6959 151.798 43.7892 151.863 43.9016C151.927 44.0139 151.961 44.1412 151.961 44.2708C151.961 44.4004 151.927 44.5278 151.863 44.6401C151.798 44.7524 151.705 44.8457 151.593 44.9108L125.593 59.9108C125.479 59.9803 125.347 60.015 125.213 60.0108V60.0108ZM100.703 44.2708L125.213 58.4208L149.723 44.2708L125.213 30.1208L100.703 44.2708Z" fill="#42E8E0"/>
<path style="mix-blend-mode:lighten" opacity="0.3" d="M389.363 281.051C432.066 281.051 466.683 261.065 466.683 236.411C466.683 211.758 432.066 191.771 389.363 191.771C346.66 191.771 312.043 211.758 312.043 236.411C312.043 261.065 346.66 281.051 389.363 281.051Z" fill="url(#paint0_radial_542_4)"/>
<path opacity="0.7" d="M331.914 258.541L305.934 243.541L331.914 228.541L357.904 243.541L331.914 258.541Z" fill="#42E8E0"/>
<path d="M331.916 259.282C331.786 259.278 331.659 259.244 331.546 259.182L305.546 244.182C305.434 244.116 305.341 244.023 305.276 243.91C305.212 243.798 305.177 243.671 305.176 243.542C305.175 243.412 305.209 243.284 305.274 243.171C305.339 243.059 305.433 242.966 305.546 242.902L331.546 227.902C331.657 227.833 331.785 227.796 331.916 227.796C332.047 227.796 332.175 227.833 332.286 227.902L358.286 242.902C358.396 242.968 358.488 243.062 358.551 243.174C358.614 243.286 358.647 243.413 358.646 243.542C358.645 243.67 358.611 243.796 358.548 243.908C358.485 244.02 358.395 244.114 358.286 244.182L332.286 259.182C332.173 259.245 332.045 259.279 331.916 259.282V259.282ZM307.406 243.542L331.916 257.692L356.426 243.542L331.916 229.392L307.406 243.542Z" fill="#42E8E0"/>
<path opacity="0.7" d="M389.364 244.281L375.734 236.411L389.364 228.541L402.994 236.411L389.364 244.281Z" fill="#42E8E0"/>
<path opacity="0.5" d="M389.364 236.411L375.734 228.541L389.364 220.661L402.994 228.541L389.364 236.411Z" fill="#42E8E0"/>
<path opacity="0.3" d="M389.364 228.541L375.734 220.661L389.364 212.791L402.994 220.661L389.364 228.541Z" fill="#42E8E0"/>
<path d="M389.366 245.012C389.237 245.012 389.11 244.981 388.996 244.922L375.366 237.042C375.254 236.978 375.16 236.886 375.095 236.774C375.03 236.663 374.996 236.536 374.996 236.407C374.996 236.278 375.03 236.151 375.095 236.039C375.16 235.928 375.254 235.835 375.366 235.772L388.996 227.902C389.107 227.833 389.235 227.796 389.366 227.796C389.497 227.796 389.625 227.833 389.736 227.902L403.366 235.772C403.479 235.836 403.573 235.929 403.638 236.041C403.703 236.154 403.737 236.282 403.736 236.412C403.735 236.541 403.7 236.668 403.635 236.78C403.57 236.893 403.478 236.986 403.366 237.052L389.736 244.922C389.622 244.982 389.495 245.013 389.366 245.012V245.012ZM377.206 236.412L389.366 243.412L401.526 236.412L389.366 229.412L377.206 236.412Z" fill="#42E8E0"/>
<path opacity="0.7" d="M90.9933 196.231L77.3633 188.361L90.9933 180.491L104.633 188.361L90.9933 196.231Z" fill="#42E8E0"/>
<path d="M91.005 196.972C90.8753 196.969 90.7482 196.935 90.635 196.872L76.995 189.002C76.884 188.935 76.7917 188.842 76.7269 188.73C76.6622 188.618 76.6271 188.491 76.625 188.362C76.6261 188.232 76.6608 188.105 76.7257 187.993C76.7905 187.881 76.8833 187.787 76.995 187.722L90.635 179.852C90.746 179.788 90.8719 179.754 91 179.754C91.1281 179.754 91.254 179.788 91.365 179.852L105.005 187.722C105.118 187.786 105.212 187.879 105.277 187.991C105.342 188.104 105.376 188.232 105.375 188.362C105.375 188.491 105.341 188.619 105.276 188.731C105.211 188.844 105.117 188.937 105.005 189.002L91.365 196.872C91.2549 196.934 91.1313 196.968 91.005 196.972V196.972ZM78.845 188.362L91.005 195.362L103.155 188.362L90.995 181.362L78.845 188.362Z" fill="#42E8E0"/>
<path opacity="0.1" d="M241.968 58.0567C249.903 53.4755 249.904 38.6221 241.971 24.8808C234.037 11.1394 221.173 3.71364 213.238 8.29485C205.304 12.876 205.303 27.7294 213.236 41.4707C221.17 55.2121 234.034 62.6379 241.968 58.0567Z" fill="url(#paint1_linear_542_4)"/>
<path opacity="0.3" d="M233.023 63.1944C240.958 58.6132 240.959 43.7598 233.026 30.0184C225.092 16.2771 212.228 8.85133 204.293 13.4325C196.358 18.0137 196.357 32.8671 204.291 46.6084C212.224 60.3498 225.088 67.7756 233.023 63.1944Z" fill="url(#paint2_linear_542_4)"/>
<path opacity="0.48" d="M224.07 68.3086C232.005 63.7274 232.006 48.874 224.072 35.1327C216.139 21.3914 203.275 13.9656 195.34 18.5468C187.405 23.128 187.404 37.9814 195.338 51.7227C203.271 65.4641 216.135 72.8898 224.07 68.3086Z" fill="url(#paint3_linear_542_4)"/>
<path d="M189.336 107.981C187.596 106.981 187.596 105.351 189.336 104.351C190.308 103.853 191.384 103.594 192.476 103.594C193.568 103.594 194.644 103.853 195.616 104.351C197.356 105.351 197.356 106.971 195.616 107.981C194.642 108.47 193.567 108.725 192.476 108.725C191.386 108.725 190.311 108.47 189.336 107.981V107.981Z" fill="url(#paint4_linear_542_4)"/>
<path d="M189.335 107.761C190.31 108.25 191.385 108.505 192.475 108.505C193.565 108.505 194.641 108.25 195.615 107.761C195.955 107.604 196.251 107.366 196.478 107.068C196.705 106.77 196.855 106.42 196.915 106.051C196.907 106.463 196.779 106.865 196.549 107.207C196.318 107.549 195.994 107.818 195.615 107.981C194.641 108.47 193.565 108.725 192.475 108.725C191.385 108.725 190.31 108.47 189.335 107.981C188.956 107.818 188.632 107.549 188.401 107.207C188.171 106.865 188.044 106.463 188.035 106.051C188.096 106.42 188.246 106.77 188.472 107.068C188.699 107.366 188.995 107.604 189.335 107.761Z" fill="white"/>
<path d="M189.336 116.621C187.596 115.621 187.596 113.991 189.336 112.991C190.311 112.502 191.386 112.247 192.476 112.247C193.567 112.247 194.642 112.502 195.616 112.991C197.356 113.991 197.356 115.621 195.616 116.621C194.642 117.11 193.567 117.365 192.476 117.365C191.386 117.365 190.311 117.11 189.336 116.621V116.621Z" fill="url(#paint5_linear_542_4)"/>
<path d="M189.336 125.401C187.596 124.401 187.596 122.771 189.336 121.771C190.308 121.273 191.384 121.014 192.476 121.014C193.568 121.014 194.644 121.273 195.616 121.771C197.356 122.771 197.356 124.391 195.616 125.401C194.642 125.89 193.567 126.145 192.476 126.145C191.386 126.145 190.311 125.89 189.336 125.401V125.401Z" fill="url(#paint6_linear_542_4)"/>
<path d="M196.926 106.161V101.671C196.889 102.063 196.748 102.437 196.518 102.755C196.288 103.073 195.976 103.324 195.616 103.481C194.644 103.979 193.568 104.239 192.476 104.239C191.384 104.239 190.308 103.979 189.336 103.481C188.988 103.325 188.687 103.082 188.459 102.775C188.231 102.469 188.086 102.11 188.036 101.731V82.7314H196.926V138.731C196.955 139.333 196.861 139.934 196.65 140.498C196.44 141.062 196.117 141.578 195.702 142.014C195.286 142.449 194.786 142.796 194.233 143.033C193.679 143.27 193.083 143.392 192.481 143.392C191.879 143.392 191.283 143.27 190.73 143.033C190.176 142.796 189.676 142.449 189.261 142.014C188.845 141.578 188.523 141.062 188.312 140.498C188.102 139.934 188.008 139.333 188.036 138.731V123.521C188.057 123.925 188.189 124.314 188.419 124.646C188.648 124.979 188.966 125.24 189.336 125.401C190.311 125.891 191.386 126.145 192.476 126.145C193.567 126.145 194.642 125.891 195.616 125.401C195.974 125.241 196.283 124.989 196.513 124.671C196.743 124.354 196.885 123.981 196.926 123.591V123.591V119.101C196.889 119.493 196.748 119.867 196.518 120.185C196.288 120.503 195.976 120.754 195.616 120.911C194.644 121.409 193.568 121.669 192.476 121.669C191.384 121.669 190.308 121.409 189.336 120.911C188.988 120.755 188.687 120.512 188.459 120.205C188.231 119.899 188.086 119.54 188.036 119.161V114.751C188.057 115.153 188.19 115.541 188.42 115.872C188.649 116.202 188.967 116.462 189.336 116.621C190.311 117.111 191.386 117.365 192.476 117.365C193.567 117.365 194.642 117.111 195.616 116.621C195.975 116.462 196.285 116.211 196.516 115.893C196.746 115.575 196.887 115.202 196.926 114.811V110.321C196.889 110.714 196.748 111.089 196.518 111.409C196.288 111.729 195.976 111.982 195.616 112.141C194.642 112.631 193.567 112.885 192.476 112.885C191.386 112.885 190.311 112.631 189.336 112.141C188.988 111.982 188.686 111.737 188.459 111.429C188.232 111.121 188.086 110.761 188.036 110.381V106.121C188.057 106.525 188.189 106.914 188.419 107.246C188.648 107.579 188.966 107.84 189.336 108.001C190.311 108.491 191.386 108.745 192.476 108.745C193.567 108.745 194.642 108.491 195.616 108.001C195.974 107.841 196.283 107.589 196.513 107.271C196.743 106.954 196.885 106.581 196.926 106.191V106.191V106.161Z" fill="url(#paint7_linear_542_4)"/>
<path d="M189.335 116.391C190.31 116.88 191.385 117.135 192.475 117.135C193.565 117.135 194.641 116.88 195.615 116.391C195.954 116.236 196.25 116 196.477 115.703C196.704 115.407 196.854 115.06 196.915 114.691C196.906 115.103 196.778 115.502 196.548 115.843C196.317 116.183 195.993 116.45 195.615 116.611C194.641 117.1 193.565 117.355 192.475 117.355C191.385 117.355 190.31 117.1 189.335 116.611C188.957 116.45 188.633 116.183 188.403 115.843C188.172 115.502 188.044 115.103 188.035 114.691C188.096 115.06 188.247 115.407 188.473 115.703C188.7 116 188.996 116.236 189.335 116.391V116.391Z" fill="white"/>
<path d="M189.335 125.182C190.31 125.671 191.385 125.925 192.475 125.925C193.565 125.925 194.641 125.671 195.615 125.182C195.954 125.023 196.25 124.785 196.476 124.487C196.702 124.189 196.853 123.841 196.915 123.472C196.905 123.884 196.778 124.285 196.547 124.627C196.317 124.969 195.993 125.238 195.615 125.402C194.641 125.891 193.565 126.145 192.475 126.145C191.385 126.145 190.31 125.891 189.335 125.402C188.957 125.238 188.633 124.969 188.403 124.627C188.173 124.285 188.045 123.884 188.035 123.472C188.097 123.841 188.248 124.189 188.474 124.487C188.701 124.785 188.996 125.023 189.335 125.182Z" fill="white"/>
<path opacity="0.48" d="M189.335 103.481C190.307 103.978 191.383 104.238 192.475 104.238C193.567 104.238 194.643 103.978 195.615 103.481C195.974 103.323 196.284 103.072 196.513 102.754C196.741 102.435 196.88 102.061 196.915 101.671V106.161C196.879 106.551 196.74 106.924 196.511 107.243C196.283 107.561 195.973 107.812 195.615 107.971C194.641 108.46 193.565 108.715 192.475 108.715C191.385 108.715 190.31 108.46 189.335 107.971C188.965 107.81 188.647 107.548 188.418 107.216C188.188 106.884 188.055 106.494 188.035 106.091V101.721C188.078 102.102 188.221 102.466 188.45 102.775C188.678 103.084 188.983 103.327 189.335 103.481V103.481Z" fill="url(#paint8_linear_542_4)"/>
<path opacity="0.48" d="M189.335 112.121C190.31 112.61 191.385 112.865 192.475 112.865C193.565 112.865 194.641 112.61 195.615 112.121C195.975 111.961 196.285 111.708 196.514 111.388C196.742 111.068 196.881 110.693 196.915 110.301V114.791C196.88 115.181 196.741 115.555 196.513 115.874C196.284 116.192 195.974 116.443 195.615 116.601C194.641 117.09 193.565 117.345 192.475 117.345C191.385 117.345 190.31 117.09 189.335 116.601C188.966 116.441 188.648 116.181 188.419 115.851C188.189 115.521 188.056 115.133 188.035 114.731V110.351C188.08 110.733 188.223 111.097 188.451 111.408C188.679 111.718 188.984 111.964 189.335 112.121V112.121Z" fill="url(#paint9_linear_542_4)"/>
<path opacity="0.48" d="M189.335 120.901C190.307 121.398 191.383 121.658 192.475 121.658C193.567 121.658 194.643 121.398 195.615 120.901C195.974 120.743 196.284 120.492 196.513 120.174C196.741 119.855 196.88 119.481 196.915 119.091V123.621C196.879 124.011 196.74 124.384 196.511 124.703C196.283 125.021 195.973 125.272 195.615 125.431C194.641 125.92 193.565 126.175 192.475 126.175C191.385 126.175 190.31 125.92 189.335 125.431C188.965 125.269 188.647 125.008 188.418 124.676C188.188 124.344 188.055 123.954 188.035 123.551V119.181C188.085 119.555 188.231 119.91 188.459 120.212C188.687 120.513 188.989 120.751 189.335 120.901Z" fill="url(#paint10_linear_542_4)"/>
<path d="M208.544 75.8209C208.744 75.7142 208.944 75.5942 209.144 75.4608L211.314 63.1509L208.594 46.8209L201.014 38.6209L193.214 31.0409L180.794 25.8909L180.474 25.7708C179.882 26.0646 179.322 26.4199 178.804 26.8309L169.484 25.6209C169.97 24.395 170.597 23.2304 171.354 22.1509L169.864 21.5708L175.424 18.3609L175.624 18.2509L175.834 18.1308C180.624 15.5508 187.134 16.0208 194.314 20.1308C208.994 28.6108 220.894 49.2309 220.894 66.1809C220.894 74.5909 217.964 80.5208 213.214 83.3208L213.044 83.4209L207.144 86.8008L207.444 85.0809C206.689 85.131 205.93 85.131 205.174 85.0809C206.794 82.2609 209.014 79.0609 208.544 75.8209Z" fill="url(#paint11_linear_542_4)"/>
<path d="M167.764 36.2011C167.764 35.9711 167.764 35.7411 167.764 35.5111C167.692 32.1342 168.277 28.7755 169.484 25.6211L178.794 26.7811C175.794 29.1411 174.004 33.3711 174.004 39.1311C174.004 52.1311 183.104 67.8411 194.324 74.3211C199.854 77.5111 204.864 77.8511 208.534 75.8211C209.004 79.0611 206.784 82.2611 205.154 85.1511C202.406 84.9361 199.719 84.2246 197.224 83.0511L198.104 84.0511C198.104 84.0511 187.044 80.2111 186.824 79.9711C186.604 79.7311 173.724 66.7211 173.724 66.7211L165.324 48.6211L167.764 36.2011Z" fill="url(#paint12_linear_542_4)"/>
<path opacity="0.5" d="M205.062 78.4463C212.997 73.8651 212.998 59.0117 205.065 45.2704C197.131 31.5291 184.267 24.1033 176.332 28.6845C168.397 33.2657 168.396 48.1191 176.33 61.8604C184.263 75.6017 197.127 83.0275 205.062 78.4463Z" fill="url(#paint13_linear_542_4)"/>
<path opacity="0.48" d="M206.84 77.4883C214.774 72.9071 214.775 58.0537 206.842 44.3124C198.908 30.571 186.044 23.1453 178.11 27.7265C170.175 32.3077 170.174 47.161 178.107 60.9024C186.041 74.6437 198.905 82.0695 206.84 77.4883Z" fill="url(#paint14_linear_542_4)"/>
<path d="M161.906 38.8807C161.906 55.8807 173.806 76.4507 188.486 84.9307C203.166 93.4107 215.076 86.5307 215.076 69.5807C215.076 52.6307 203.176 32.0107 188.486 23.5307C173.796 15.0507 161.906 21.9307 161.906 38.8807ZM168.176 42.5007C168.176 29.5507 177.266 24.2907 188.486 30.7707C199.706 37.2507 208.806 53.0107 208.806 65.9607C208.806 78.9107 199.706 84.1707 188.486 77.6907C177.266 71.2107 168.176 55.4607 168.176 42.5007Z" fill="#BCBEFF"/>
<path d="M161.906 38.8807C161.906 55.8807 173.806 76.4507 188.486 84.9307C203.166 93.4107 215.076 86.5307 215.076 69.5807C215.076 52.6307 203.176 32.0107 188.486 23.5307C173.796 15.0507 161.906 21.9307 161.906 38.8807ZM168.176 42.5007C168.176 29.5507 177.266 24.2907 188.486 30.7707C199.706 37.2507 208.806 53.0107 208.806 65.9607C208.806 78.9107 199.706 84.1707 188.486 77.6907C177.266 71.2107 168.176 55.4607 168.176 42.5007Z" fill="#BCBEFF"/>
<path d="M214.666 70.0316C214.666 53.0816 202.766 32.4716 188.086 24.0316C179.086 18.8116 171.086 19.4216 166.266 24.6016C171.016 19.0016 179.196 18.2116 188.486 23.6016C203.176 32.0816 215.076 52.7016 215.076 69.6516C215.076 76.1716 213.306 81.1916 210.306 84.4316C213.066 81.1116 214.666 76.2516 214.666 70.0316Z" fill="white"/>
<path d="M188.086 78.1413C176.866 71.6713 167.766 55.9113 167.766 42.9613C167.766 37.9613 169.136 34.0813 171.466 31.6113C169.386 34.0913 168.176 37.7813 168.176 42.5013C168.176 55.5013 177.266 71.2113 188.486 77.6913C195.366 81.6913 201.436 81.2213 205.106 77.3113C201.486 81.6213 195.216 82.2613 188.086 78.1413Z" fill="white"/>
<path d="M266.795 233.831C265.079 233.834 263.393 233.385 261.905 232.531L150.315 168.101C150.041 167.942 149.813 167.713 149.655 167.439C149.497 167.164 149.414 166.853 149.414 166.536C149.414 166.219 149.497 165.908 149.655 165.633C149.813 165.358 150.041 165.13 150.315 164.971L219.655 124.971C219.698 124.942 219.748 124.927 219.8 124.927C219.851 124.927 219.902 124.942 219.945 124.971L336.275 192.131C336.551 192.288 336.781 192.516 336.941 192.791C337.101 193.065 337.185 193.378 337.185 193.696C337.185 194.014 337.101 194.326 336.941 194.601C336.781 194.876 336.551 195.104 336.275 195.261L271.685 232.561C270.194 233.405 268.508 233.843 266.795 233.831V233.831ZM219.795 125.541L150.605 165.481C150.42 165.588 150.267 165.742 150.16 165.927C150.054 166.112 149.997 166.322 149.997 166.536C149.997 166.75 150.054 166.959 150.16 167.145C150.267 167.33 150.42 167.484 150.605 167.591L262.185 232.011C263.582 232.817 265.167 233.241 266.78 233.241C268.393 233.241 269.977 232.817 271.375 232.011L335.975 194.721C336.159 194.616 336.313 194.462 336.418 194.278C336.524 194.093 336.578 193.884 336.575 193.671C336.577 193.457 336.523 193.246 336.418 193.06C336.312 192.874 336.16 192.719 335.975 192.611L219.795 125.541Z" fill="#42E8E0"/>
<path d="M223.424 95.6914L238.964 3.46141L237.714 2.94142L239.594 1.86142C239.82 1.73924 240.077 1.68376 240.333 1.70147C240.59 1.71917 240.836 1.8093 241.044 1.96141L365.284 73.7014C365.809 74.0377 366.234 74.5078 366.517 75.0631C366.8 75.6185 366.93 76.2392 366.894 76.8614L351.224 169.861C351.208 170.063 351.139 170.256 351.025 170.423C350.911 170.589 350.756 170.723 350.574 170.811V170.811L348.734 171.871L348.424 170.151H348.524L225.034 98.8514C224.509 98.5151 224.083 98.0451 223.8 97.4897C223.518 96.9343 223.388 96.3137 223.424 95.6914V95.6914Z" fill="url(#paint15_linear_542_4)"/>
<path d="M364.594 76.2213L366.594 75.3213C366.826 75.7992 366.917 76.3337 366.854 76.8613L351.184 169.861C351.168 170.063 351.1 170.256 350.986 170.423C350.872 170.589 350.716 170.723 350.534 170.811V170.811L348.694 171.871L348.384 170.151H348.484L342.234 166.541L364.594 76.2213Z" fill="url(#paint16_linear_542_4)"/>
<path d="M223.083 99.9715L347.323 171.701C348.323 172.251 349.103 171.931 349.323 170.941L364.993 77.9415C365.028 77.3207 364.898 76.7017 364.615 76.1481C364.332 75.5945 363.907 75.1262 363.383 74.7915L239.093 3.09148C238.093 2.53148 237.313 2.85147 237.143 3.85147L221.473 96.8515C221.444 97.4671 221.577 98.0796 221.86 98.6272C222.142 99.1749 222.564 99.6386 223.083 99.9715V99.9715Z" fill="#24126A"/>
<g opacity="0.51">
<path opacity="0.51" d="M240.715 9.02148L360.475 78.1615L345.625 165.721L225.945 96.6215L240.715 9.02148Z" fill="#453C9E"/>
</g>
<path d="M144.984 143.981L151.764 147.521L219.764 108.271C220.467 107.951 221.235 107.8 222.006 107.831C222.777 107.862 223.53 108.075 224.204 108.451L341.484 176.151C342.604 175.521 347.724 173.061 347.724 173.061L345.244 179.531C345.11 179.863 344.862 180.136 344.544 180.301L272.904 221.621C272.202 221.941 271.434 222.092 270.663 222.061C269.892 222.03 269.138 221.817 268.464 221.441L148.484 152.171C148.033 151.946 147.679 151.566 147.484 151.101V151.101L144.984 143.981Z" fill="url(#paint17_linear_542_4)"/>
<path d="M146.036 145.091L269.036 216.091C269.728 216.474 270.5 216.69 271.29 216.722C272.08 216.753 272.867 216.598 273.586 216.271L346.966 173.911C348.136 173.231 347.966 172.061 346.646 171.281L223.646 100.281C222.956 99.8958 222.184 99.678 221.394 99.645C220.604 99.612 219.817 99.7647 219.096 100.091L145.706 142.461C144.546 143.141 144.686 144.321 146.036 145.091Z" fill="url(#paint18_linear_542_4)"/>
<path d="M306.104 200.742V199.392C306.104 199.262 306.034 199.202 305.934 199.262L301.174 202.002C301.122 202.042 301.081 202.094 301.051 202.153C301.022 202.212 301.006 202.276 301.004 202.342V203.682C301.004 203.812 301.084 203.872 301.174 203.822L305.934 201.072C305.987 201.034 306.03 200.985 306.06 200.928C306.089 200.87 306.104 200.806 306.104 200.742Z" fill="#2842A2"/>
<path d="M298.995 204.841V203.501C298.995 203.371 298.915 203.311 298.825 203.361L294.065 206.111C294.012 206.148 293.969 206.198 293.939 206.255C293.909 206.313 293.894 206.377 293.895 206.441V207.791C293.895 207.921 293.965 207.981 294.065 207.921L298.825 205.181C298.876 205.14 298.918 205.089 298.947 205.03C298.977 204.971 298.993 204.907 298.995 204.841Z" fill="#2842A2"/>
<path d="M327.815 169.951L225.625 110.951C225.289 110.757 224.908 110.655 224.52 110.655C224.132 110.655 223.751 110.757 223.415 110.951L187.025 131.951C186.906 132.021 186.809 132.121 186.741 132.24C186.672 132.359 186.637 132.494 186.637 132.631C186.637 132.769 186.672 132.904 186.741 133.023C186.809 133.142 186.906 133.241 187.025 133.311L289.175 192.311C289.508 192.507 289.888 192.611 290.275 192.611C290.661 192.611 291.041 192.507 291.375 192.311L327.815 171.311C327.933 171.241 328.031 171.142 328.099 171.023C328.167 170.904 328.202 170.769 328.202 170.631C328.202 170.494 328.167 170.359 328.099 170.24C328.031 170.121 327.933 170.021 327.815 169.951V169.951Z" fill="#ADB1F2"/>
<path d="M327.814 171.311L327.454 171.521L225.624 112.731C225.289 112.535 224.907 112.432 224.519 112.432C224.131 112.432 223.749 112.535 223.414 112.731L187.414 133.571L187.044 133.361C186.926 133.291 186.828 133.192 186.76 133.073C186.692 132.953 186.656 132.818 186.656 132.681C186.656 132.544 186.692 132.409 186.76 132.29C186.828 132.17 186.926 132.071 187.044 132.001L223.434 111.001C223.77 110.807 224.151 110.705 224.539 110.705C224.927 110.705 225.308 110.807 225.644 111.001L327.834 170.001C327.94 170.075 328.027 170.174 328.086 170.289C328.145 170.404 328.174 170.532 328.173 170.661C328.171 170.791 328.137 170.918 328.074 171.031C328.012 171.144 327.922 171.24 327.814 171.311V171.311Z" fill="#9198DB"/>
<path d="M220.676 116.281L309.446 167.531L313.396 165.251L224.616 114.001L220.676 116.281Z" fill="#24126A"/>
<path d="M210.996 121.871L294.256 169.941L298.206 167.661L214.946 119.591L210.996 121.871Z" fill="#24126A"/>
<path d="M204.695 125.501L302.725 182.101L306.675 179.821L208.645 123.231L204.695 125.501Z" fill="#24126A"/>
<path d="M198.395 129.141L296.425 185.741L300.375 183.461L202.335 126.861L198.395 129.141Z" fill="#24126A"/>
<path d="M192.086 132.781L290.126 189.381L294.066 187.101L196.036 130.501L192.086 132.781Z" fill="#24126A"/>
<path d="M314.805 170.632L318.755 172.912L322.705 170.632L318.755 168.352L314.805 170.632Z" fill="#24126A"/>
<path d="M300.883 173.761L309.073 178.491L313.023 176.211L304.833 171.481L300.883 173.761Z" fill="#24126A"/>
<path d="M221.683 184.231L194.133 168.321C193.896 168.243 193.689 168.091 193.542 167.888C193.395 167.686 193.316 167.442 193.316 167.191C193.316 166.941 193.395 166.697 193.542 166.494C193.689 166.291 193.896 166.14 194.133 166.061L212.973 155.191C213.576 154.881 214.245 154.719 214.923 154.719C215.602 154.719 216.27 154.881 216.873 155.191L244.423 171.091C244.661 171.17 244.868 171.321 245.015 171.524C245.161 171.727 245.24 171.971 245.24 172.221C245.24 172.472 245.161 172.716 245.015 172.918C244.868 173.121 244.661 173.273 244.423 173.351L225.583 184.231C224.979 184.537 224.311 184.696 223.633 184.696C222.956 184.696 222.288 184.537 221.683 184.231V184.231Z" fill="url(#paint19_linear_542_4)"/>
<path d="M244.425 172.021L216.875 156.111C216.272 155.801 215.604 155.639 214.925 155.639C214.247 155.639 213.578 155.801 212.975 156.111L194.135 166.991C193.849 167.14 193.613 167.37 193.455 167.651C193.165 167.111 193.385 166.491 194.135 166.061L212.975 155.191C213.578 154.881 214.247 154.719 214.925 154.719C215.604 154.719 216.272 154.881 216.875 155.191L244.425 171.091C245.175 171.521 245.425 172.091 245.105 172.681C244.948 172.4 244.711 172.17 244.425 172.021V172.021Z" fill="#9198DB"/>
<g opacity="0.11">
<g opacity="0.11">
<path opacity="0.11" d="M223.485 100.142L346.485 171.142C347.173 171.53 347.943 171.749 348.732 171.782C349.521 171.815 350.307 171.661 351.025 171.332L424.485 128.962C425.655 128.292 425.485 127.112 424.155 126.342L301.155 55.3415C300.466 54.9551 299.695 54.7374 298.906 54.7061C298.117 54.6748 297.332 54.8309 296.615 55.1615L223.195 97.5215C222.025 98.1915 222.175 99.3615 223.485 100.142Z" fill="url(#paint20_linear_542_4)"/>
<path opacity="0.11" d="M346.864 112.871L319.314 96.9613C319.08 96.8806 318.877 96.7288 318.733 96.5272C318.589 96.3255 318.512 96.084 318.512 95.8363C318.512 95.5887 318.589 95.3472 318.733 95.1455C318.877 94.9439 319.08 94.7921 319.314 94.7113L338.154 83.8314C338.758 83.5256 339.426 83.3662 340.104 83.3662C340.781 83.3662 341.449 83.5256 342.054 83.8314L369.614 99.7413C369.848 99.8221 370.051 99.9739 370.195 100.176C370.339 100.377 370.416 100.619 370.416 100.866C370.416 101.114 370.339 101.356 370.195 101.557C370.051 101.759 369.848 101.911 369.614 101.991L350.764 112.871C350.159 113.177 349.491 113.337 348.814 113.337C348.136 113.337 347.468 113.177 346.864 112.871Z" fill="url(#paint21_linear_542_4)"/>
<path opacity="0.11" d="M369.615 100.622L342.055 84.7116C341.45 84.4058 340.782 84.2464 340.105 84.2464C339.427 84.2464 338.759 84.4058 338.155 84.7116L319.315 95.6216C319.026 95.7716 318.789 96.005 318.635 96.2916C318.345 95.7416 318.565 95.1316 319.315 94.7016L338.155 83.8216C338.759 83.5158 339.427 83.3564 340.105 83.3564C340.782 83.3564 341.45 83.5158 342.055 83.8216L369.615 99.7316C370.355 100.162 370.615 100.732 370.285 101.322C370.14 101.024 369.906 100.78 369.615 100.622V100.622Z" fill="#9198DB"/>
<path opacity="0.11" d="M381.725 137.732L279.525 78.7317C279.19 78.5396 278.811 78.4385 278.425 78.4385C278.039 78.4385 277.66 78.5396 277.325 78.7317L240.935 99.7917C240.817 99.8616 240.719 99.961 240.651 100.08C240.583 100.2 240.547 100.334 240.547 100.472C240.547 100.609 240.583 100.744 240.651 100.863C240.719 100.982 240.817 101.082 240.935 101.152L343.085 160.152C343.42 160.344 343.799 160.445 344.185 160.445C344.571 160.445 344.95 160.344 345.285 160.152L381.725 139.152C381.858 139.087 381.97 138.986 382.048 138.86C382.127 138.735 382.168 138.59 382.168 138.442C382.168 138.294 382.127 138.149 382.048 138.023C381.97 137.898 381.858 137.797 381.725 137.732Z" fill="#ADB1F2"/>
<path opacity="0.11" d="M381.725 139.092L381.355 139.302L279.485 80.5117C279.15 80.3196 278.771 80.2185 278.385 80.2185C277.999 80.2185 277.62 80.3196 277.285 80.5117L241.285 101.362L240.915 101.152C240.797 101.082 240.699 100.982 240.631 100.863C240.563 100.744 240.527 100.609 240.527 100.472C240.527 100.334 240.563 100.2 240.631 100.08C240.699 99.961 240.797 99.8616 240.915 99.7917L277.305 78.7317C277.64 78.5396 278.019 78.4385 278.405 78.4385C278.791 78.4385 279.17 78.5396 279.505 78.7317L381.705 137.732C381.824 137.8 381.924 137.898 381.994 138.016C382.063 138.134 382.101 138.269 382.103 138.406C382.105 138.543 382.071 138.679 382.005 138.799C381.939 138.919 381.842 139.02 381.725 139.092V139.092Z" fill="#9198DB"/>
<path opacity="0.11" d="M250.454 98.3516L339.484 149.752L335.964 151.792L246.934 100.392L250.454 98.3516Z" fill="#24126A"/>
<path opacity="0.11" d="M259.836 92.9316L344.466 141.792L340.936 143.832L256.316 94.9716L259.836 92.9316Z" fill="#24126A"/>
<path opacity="0.11" d="M350.784 145.441L358.684 150.001L355.154 152.041L347.254 147.481L350.784 145.441Z" fill="#24126A"/>
<path opacity="0.11" d="M343.793 152.241L349.303 155.421L345.773 157.451L340.273 154.281L343.793 152.241Z" fill="#24126A"/>
<path opacity="0.11" d="M265.714 89.542L364.564 146.612L361.034 148.642L262.184 91.582L265.714 89.542Z" fill="#24126A"/>
<path opacity="0.11" d="M271.596 86.1514L370.436 143.221L366.916 145.251L268.066 88.1814L271.596 86.1514Z" fill="#24126A"/>
<path opacity="0.11" d="M277.475 82.752L376.315 139.822L372.795 141.862L273.945 84.7919L277.475 82.752Z" fill="#24126A"/>
</g>
</g>
<g opacity="0.32">
<path opacity="0.32" d="M278.215 111.921L285.745 116.271V115.431L278.215 111.081V111.921Z" fill="#4553C7"/>
<path opacity="0.32" d="M274.344 109.692L277.054 111.252V110.412L274.344 108.852V109.692Z" fill="#4553C7"/>
<path opacity="0.32" d="M271.352 107.961L273.192 109.021V108.181L271.352 107.121V107.961Z" fill="#4553C7"/>
<path opacity="0.32" d="M281.633 115.811L285.743 118.181V117.351L281.633 114.981V115.811Z" fill="#4553C7"/>
<path opacity="0.32" d="M275.453 112.251L280.483 115.151V114.311L275.453 111.411V112.251Z" fill="#4553C7"/>
<path opacity="0.32" d="M272.465 110.522L274.305 111.582V110.742L272.465 109.682V110.522Z" fill="#4553C7"/>
<path opacity="0.32" d="M269.613 108.871L271.453 109.941V109.101L269.613 108.031V108.871Z" fill="#4553C7"/>
<path opacity="0.32" d="M282.773 118.391L285.743 120.101V119.261L282.773 117.551V118.391Z" fill="#4553C7"/>
<path opacity="0.32" d="M280.602 117.141L281.622 117.721V116.881L280.602 116.301V117.141Z" fill="#4553C7"/>
<path opacity="0.32" d="M277.613 115.411L279.453 116.471V115.631L277.613 114.571V115.411Z" fill="#4553C7"/>
<path opacity="0.32" d="M274.781 115.692L285.741 122.022V121.182L274.781 114.852V115.692Z" fill="#4553C7"/>
<path opacity="0.32" d="M270.914 113.461L273.624 115.031V114.191L270.914 112.621V113.461Z" fill="#4553C7"/>
<path opacity="0.32" d="M282.773 122.221L285.743 123.941V123.101L282.773 121.381V122.221Z" fill="#4553C7"/>
<path opacity="0.32" d="M275.805 118.201L281.625 121.561V120.721L275.805 117.361V118.201Z" fill="#4553C7"/>
<path opacity="0.32" d="M272.805 116.471L274.655 117.531V116.691L272.805 115.631V116.471Z" fill="#4553C7"/>
<path opacity="0.32" d="M279.664 122.352L285.744 125.852V125.012L279.664 121.512V122.352Z" fill="#4553C7"/>
<path opacity="0.32" d="M274.125 119.142L278.515 121.682V120.842L274.125 118.312V119.142Z" fill="#4553C7"/>
<path opacity="0.32" d="M269.992 116.762L272.972 118.482V117.642L269.992 115.932V116.762Z" fill="#4553C7"/>
<path opacity="0.32" d="M283.684 126.591L285.744 127.771V126.931L283.684 125.751V126.591Z" fill="#4553C7"/>
<path opacity="0.32" d="M279.824 124.361L282.534 125.921V125.081L279.824 123.521V124.361Z" fill="#4553C7"/>
<path opacity="0.32" d="M274.305 121.171L278.675 123.691V122.851L274.305 120.331V121.171Z" fill="#4553C7"/>
<path opacity="0.32" d="M279.453 126.062L285.743 129.692V128.852L279.453 125.222V126.062Z" fill="#4553C7"/>
<path opacity="0.32" d="M272.414 121.991L278.304 125.391V124.561L272.414 121.161V121.991Z" fill="#4553C7"/>
<path opacity="0.32" d="M269.422 120.272L271.262 121.332V120.492L269.422 119.432V120.272Z" fill="#4553C7"/>
<path opacity="0.32" d="M266.543 118.611L268.393 119.671V118.831L266.543 117.771V118.611Z" fill="#4553C7"/>
<path opacity="0.32" d="M281.973 129.431L285.743 131.611V130.771L281.973 128.591V129.431Z" fill="#4553C7"/>
<path opacity="0.32" d="M262.923 103.101L257.703 100.081V99.2412L262.923 102.261V103.101Z" fill="#4553C7"/>
<path opacity="0.32" d="M261.813 104.371L257.703 102.001V101.161L261.813 103.531V104.371Z" fill="#4553C7"/>
<path opacity="0.32" d="M260.673 105.631L257.703 103.911V103.081L260.673 104.791V105.631Z" fill="#4553C7"/>
<path opacity="0.32" d="M262.023 108.331L257.703 105.831V104.991L262.023 107.491V108.331Z" fill="#4553C7"/>
<path opacity="0.32" d="M260.673 109.461L257.703 107.751V106.911L260.673 108.621V109.461Z" fill="#4553C7"/>
<path opacity="0.32" d="M261.473 111.841L257.703 109.671V108.831L261.473 111.001V111.841Z" fill="#4553C7"/>
<path opacity="0.32" d="M259.753 112.771L257.703 111.591V110.751L259.753 111.931V112.771Z" fill="#4553C7"/>
<path opacity="0.32" d="M261.683 115.801L257.703 113.501V112.661L261.683 114.961V115.801Z" fill="#4553C7"/>
<path opacity="0.32" d="M261.473 117.601L257.703 115.421V114.581L261.473 116.751V117.601Z" fill="#4553C7"/>
<path opacity="0.32" d="M279.223 127.841L280.823 128.771V127.931L279.223 127.001V127.841Z" fill="#4553C7"/>
<path opacity="0.32" d="M274.465 125.102L278.075 127.182V126.342L274.465 124.262V125.102Z" fill="#4553C7"/>
</g>
<path opacity="0.5" d="M206.956 102.031C208.988 103.062 211.233 103.599 213.511 103.599C215.789 103.599 218.035 103.062 220.066 102.031C221.796 101.031 222.686 99.7414 222.766 98.4414C222.866 99.8814 221.966 101.331 220.066 102.441C218.035 103.472 215.789 104.009 213.511 104.009C211.233 104.009 208.988 103.472 206.956 102.441C205.056 101.351 204.166 99.9014 204.256 98.4414C204.375 99.2161 204.684 99.9493 205.155 100.576C205.626 101.202 206.245 101.702 206.956 102.031V102.031Z" fill="white"/>
<path opacity="0.5" d="M237.625 119.391C239.657 120.421 241.903 120.958 244.18 120.958C246.458 120.958 248.704 120.421 250.735 119.391C251.447 119.062 252.066 118.562 252.537 117.935C253.008 117.309 253.317 116.575 253.435 115.801C253.525 117.241 252.635 118.691 250.735 119.801C248.704 120.831 246.458 121.368 244.18 121.368C241.903 121.368 239.657 120.831 237.625 119.801C235.725 118.701 234.825 117.251 234.925 115.801C235.005 117.101 235.895 118.391 237.625 119.391Z" fill="white"/>
<path d="M349.086 82.4814L350.876 83.6214L351.096 82.3014L349.296 81.1514L349.086 82.4814Z" fill="#42E8E0"/>
<path d="M347.656 91.4316L349.446 92.5616L350.686 84.8216L348.896 83.6816L347.656 91.4316Z" fill="#42E8E0"/>
<path d="M346.965 95.7109L348.755 96.8409L349.245 93.7709L347.455 92.6309L346.965 95.7109Z" fill="#42E8E0"/>
<path d="M346.254 100.141L348.044 101.281L348.534 98.2113L346.744 97.0713L346.254 100.141Z" fill="#42E8E0"/>
<path d="M345.723 85.0614L347.523 86.2014L348.013 83.1214L346.223 81.9814L345.723 85.0614Z" fill="#42E8E0"/>
<path d="M344.785 90.9309L346.575 92.0709L347.305 87.5609L345.505 86.4209L344.785 90.9309Z" fill="#42E8E0"/>
<path d="M343.914 96.3407L345.714 97.4807L346.334 93.6107L344.544 92.4707L343.914 96.3407Z" fill="#42E8E0"/>
<path d="M345.543 104.581L347.333 105.711L347.823 102.641L346.033 101.501L345.543 104.581Z" fill="#42E8E0"/>
<path d="M346.414 80.7809L348.204 81.9209L348.414 80.5909L346.624 79.4609L346.414 80.7809Z" fill="#42E8E0"/>
<path d="M343.516 108.031L346.646 110.021L346.846 108.741L343.726 106.751L343.516 108.031Z" fill="#42E8E0"/>
<defs>
<radialGradient id="paint0_radial_542_4" cx="0" cy="0" r="1" gradientUnits="userSpaceOnUse" gradientTransform="translate(-331951 -14968.9) scale(9763.97 5637.14)">
<stop stop-color="#42E8E0"/>
<stop offset="0.15" stop-color="#33AEB9"/>
<stop offset="0.31" stop-color="#267A95"/>
<stop offset="0.47" stop-color="#1B5078"/>
<stop offset="0.62" stop-color="#132E61"/>
<stop offset="0.76" stop-color="#0D1651"/>
<stop offset="0.89" stop-color="#090847"/>
<stop offset="1" stop-color="#080344"/>
</radialGradient>
<linearGradient id="paint1_linear_542_4" x1="246.446" y1="34.8467" x2="205.676" y2="34.9275" gradientUnits="userSpaceOnUse">
<stop stop-color="#42E8E0"/>
<stop offset="0.15" stop-color="#43E3E0"/>
<stop offset="0.33" stop-color="#45D5DF"/>
<stop offset="0.52" stop-color="#49BDDD"/>
<stop offset="0.72" stop-color="#4E9CDB"/>
<stop offset="0.93" stop-color="#5472D8"/>
<stop offset="1" stop-color="#5761D7"/>
</linearGradient>
<linearGradient id="paint2_linear_542_4" x1="-17428.5" y1="10406.2" x2="-18781.6" y2="10408.9" gradientUnits="userSpaceOnUse">
<stop stop-color="#42E8E0"/>
<stop offset="0.15" stop-color="#43E3E0"/>
<stop offset="0.33" stop-color="#45D5DF"/>
<stop offset="0.52" stop-color="#49BDDD"/>
<stop offset="0.72" stop-color="#4E9CDB"/>
<stop offset="0.93" stop-color="#5472D8"/>
<stop offset="1" stop-color="#5761D7"/>
</linearGradient>
<linearGradient id="paint3_linear_542_4" x1="-17716.9" y1="10707.1" x2="-19069.7" y2="10709.8" gradientUnits="userSpaceOnUse">
<stop stop-color="#42E8E0"/>
<stop offset="0.15" stop-color="#43E3E0"/>
<stop offset="0.33" stop-color="#45D5DF"/>
<stop offset="0.52" stop-color="#49BDDD"/>
<stop offset="0.72" stop-color="#4E9CDB"/>
<stop offset="0.93" stop-color="#5472D8"/>
<stop offset="1" stop-color="#5761D7"/>
</linearGradient>
<linearGradient id="paint4_linear_542_4" x1="191.921" y1="107.621" x2="188.755" y2="113.079" gradientUnits="userSpaceOnUse">
<stop stop-color="#5761D7"/>
<stop offset="0.16" stop-color="#5E67DA"/>
<stop offset="0.41" stop-color="#727AE2"/>
<stop offset="0.69" stop-color="#9297EE"/>
<stop offset="1" stop-color="#BCBEFF"/>
</linearGradient>
<linearGradient id="paint5_linear_542_4" x1="8491.82" y1="6598.98" x2="8556.36" y2="6598.98" gradientUnits="userSpaceOnUse">
<stop stop-color="#5761D7"/>
<stop offset="0.16" stop-color="#5E67DA"/>
<stop offset="0.41" stop-color="#727AE2"/>
<stop offset="0.69" stop-color="#9297EE"/>
<stop offset="1" stop-color="#BCBEFF"/>
</linearGradient>
<linearGradient id="paint6_linear_542_4" x1="8569.88" y1="6663.68" x2="8634.42" y2="6663.68" gradientUnits="userSpaceOnUse">
<stop stop-color="#5761D7"/>
<stop offset="0.16" stop-color="#5E67DA"/>
<stop offset="0.41" stop-color="#727AE2"/>
<stop offset="0.69" stop-color="#9297EE"/>
<stop offset="1" stop-color="#BCBEFF"/>
</linearGradient>
<linearGradient id="paint7_linear_542_4" x1="-4529.81" y1="15509.4" x2="-4746" y2="15509.4" gradientUnits="userSpaceOnUse">
<stop stop-color="#5761D7"/>
<stop offset="0.16" stop-color="#5E67DA"/>
<stop offset="0.41" stop-color="#727AE2"/>
<stop offset="0.69" stop-color="#9297EE"/>
<stop offset="1" stop-color="#BCBEFF"/>
</linearGradient>
<linearGradient id="paint8_linear_542_4" x1="-4624.26" y1="1838.52" x2="-4703.12" y2="1838.52" gradientUnits="userSpaceOnUse">
<stop stop-color="#42E8E0"/>
<stop offset="0.15" stop-color="#43E3E0"/>
<stop offset="0.33" stop-color="#45D5DF"/>
<stop offset="0.52" stop-color="#49BDDD"/>
<stop offset="0.72" stop-color="#4E9CDB"/>
<stop offset="0.93" stop-color="#5472D8"/>
<stop offset="1" stop-color="#5761D7"/>
</linearGradient>
<linearGradient id="paint9_linear_542_4" x1="-4624.26" y1="1907.95" x2="-4703.12" y2="1907.95" gradientUnits="userSpaceOnUse">
<stop stop-color="#42E8E0"/>
<stop offset="0.15" stop-color="#43E3E0"/>
<stop offset="0.33" stop-color="#45D5DF"/>
<stop offset="0.52" stop-color="#49BDDD"/>
<stop offset="0.72" stop-color="#4E9CDB"/>
<stop offset="0.93" stop-color="#5472D8"/>
<stop offset="1" stop-color="#5761D7"/>
</linearGradient>
<linearGradient id="paint10_linear_542_4" x1="-4624.26" y1="1989.21" x2="-4703.12" y2="1989.21" gradientUnits="userSpaceOnUse">
<stop stop-color="#42E8E0"/>
<stop offset="0.15" stop-color="#43E3E0"/>
<stop offset="0.33" stop-color="#45D5DF"/>
<stop offset="0.52" stop-color="#49BDDD"/>
<stop offset="0.72" stop-color="#4E9CDB"/>
<stop offset="0.93" stop-color="#5472D8"/>
<stop offset="1" stop-color="#5761D7"/>
</linearGradient>
<linearGradient id="paint11_linear_542_4" x1="-27948.5" y1="14673.8" x2="-31292.3" y2="13255.4" gradientUnits="userSpaceOnUse">
<stop stop-color="#5761D7"/>
<stop offset="0.16" stop-color="#5E67DA"/>
<stop offset="0.41" stop-color="#727AE2"/>
<stop offset="0.69" stop-color="#9297EE"/>
<stop offset="1" stop-color="#BCBEFF"/>
</linearGradient>
<linearGradient id="paint12_linear_542_4" x1="-26157.6" y1="10685.7" x2="-23479.1" y2="12111.2" gradientUnits="userSpaceOnUse">
<stop stop-color="#5761D7"/>
<stop offset="0.16" stop-color="#5E67DA"/>
<stop offset="0.41" stop-color="#727AE2"/>
<stop offset="0.69" stop-color="#9297EE"/>
<stop offset="1" stop-color="#BCBEFF"/>
</linearGradient>
<linearGradient id="paint13_linear_542_4" x1="-18329.3" y1="11302.5" x2="-19682" y2="11305.2" gradientUnits="userSpaceOnUse">
<stop stop-color="#42E8E0"/>
<stop offset="0.15" stop-color="#43E3E0"/>
<stop offset="0.33" stop-color="#45D5DF"/>
<stop offset="0.52" stop-color="#49BDDD"/>
<stop offset="0.72" stop-color="#4E9CDB"/>
<stop offset="0.93" stop-color="#5472D8"/>
<stop offset="1" stop-color="#5761D7"/>
</linearGradient>
<linearGradient id="paint14_linear_542_4" x1="-18272.2" y1="11246.7" x2="-19625.3" y2="11249.4" gradientUnits="userSpaceOnUse">
<stop stop-color="#42E8E0"/>
<stop offset="0.15" stop-color="#43E3E0"/>
<stop offset="0.33" stop-color="#45D5DF"/>
<stop offset="0.52" stop-color="#49BDDD"/>
<stop offset="0.72" stop-color="#4E9CDB"/>
<stop offset="0.93" stop-color="#5472D8"/>
<stop offset="1" stop-color="#5761D7"/>
</linearGradient>
<linearGradient id="paint15_linear_542_4" x1="366.924" y1="86.7714" x2="223.394" y2="86.7714" gradientUnits="userSpaceOnUse">
<stop stop-color="#C0BFF6"/>
<stop offset="0.29" stop-color="#C5C4F7"/>
<stop offset="0.64" stop-color="#D3D2F9"/>
<stop offset="1" stop-color="#E9E9FD"/>
</linearGradient>
<linearGradient id="paint16_linear_542_4" x1="366.914" y1="123.571" x2="342.274" y2="123.571" gradientUnits="userSpaceOnUse">
<stop stop-color="#5761D7"/>
<stop offset="0.18" stop-color="#5C66D9"/>
<stop offset="0.39" stop-color="#6A73DF"/>
<stop offset="0.61" stop-color="#8289E8"/>
<stop offset="0.85" stop-color="#A3A7F5"/>
<stop offset="1" stop-color="#BCBEFF"/>
</linearGradient>
<linearGradient id="paint17_linear_542_4" x1="-285201" y1="35102.3" x2="-244104" y2="35102.3" gradientUnits="userSpaceOnUse">
<stop stop-color="#5761D7"/>
<stop offset="0.18" stop-color="#5C66D9"/>
<stop offset="0.39" stop-color="#6A73DF"/>
<stop offset="0.61" stop-color="#8289E8"/>
<stop offset="0.85" stop-color="#A3A7F5"/>
<stop offset="1" stop-color="#BCBEFF"/>
</linearGradient>
<linearGradient id="paint18_linear_542_4" x1="-271510" y1="35174.8" x2="-230372" y2="35174.8" gradientUnits="userSpaceOnUse">
<stop stop-color="#C0BFF6"/>
<stop offset="0.29" stop-color="#C5C4F7"/>
<stop offset="0.64" stop-color="#D3D2F9"/>
<stop offset="1" stop-color="#E9E9FD"/>
</linearGradient>
<linearGradient id="paint19_linear_542_4" x1="-67566.7" y1="9480.46" x2="-64871.4" y2="9480.46" gradientUnits="userSpaceOnUse">
<stop stop-color="#C0BFF6"/>
<stop offset="0.29" stop-color="#C5C4F7"/>
<stop offset="0.64" stop-color="#D3D2F9"/>
<stop offset="1" stop-color="#E9E9FD"/>
</linearGradient>
<linearGradient id="paint20_linear_542_4" x1="-287200" y1="29866.7" x2="-246057" y2="29866.7" gradientUnits="userSpaceOnUse">
<stop stop-color="#C0BFF6"/>
<stop offset="0.29" stop-color="#C5C4F7"/>
<stop offset="0.64" stop-color="#D3D2F9"/>
<stop offset="1" stop-color="#E9E9FD"/>
</linearGradient>
<linearGradient id="paint21_linear_542_4" x1="-73913.3" y1="7268.14" x2="-71218.9" y2="7268.14" gradientUnits="userSpaceOnUse">
<stop stop-color="#C0BFF6"/>
<stop offset="0.29" stop-color="#C5C4F7"/>
<stop offset="0.64" stop-color="#D3D2F9"/>
<stop offset="1" stop-color="#E9E9FD"/>
</linearGradient>
</defs>
</svg>
