<svg width="1332" height="1332" viewBox="0 0 1332 1332" fill="none" xmlns="http://www.w3.org/2000/svg">
<rect width="1332" height="1332" fill="url(#paint0_radial_3057_1402)"/>
<g filter="url(#filter0_d_3057_1402)">
<rect x="104" y="488" width="309" height="132" rx="40" fill="white" shape-rendering="crispEdges"/>
<path d="M200.016 544.449H189.391C189.088 542.706 188.53 541.163 187.715 539.818C186.901 538.455 185.888 537.299 184.675 536.352C183.463 535.405 182.081 534.695 180.528 534.222C178.994 533.729 177.336 533.483 175.556 533.483C172.393 533.483 169.59 534.278 167.147 535.869C164.704 537.441 162.791 539.752 161.408 542.801C160.026 545.831 159.335 549.534 159.335 553.909C159.335 558.36 160.026 562.11 161.408 565.159C162.81 568.189 164.723 570.481 167.147 572.034C169.59 573.568 172.384 574.335 175.528 574.335C177.27 574.335 178.899 574.108 180.414 573.653C181.948 573.18 183.321 572.489 184.533 571.58C185.764 570.67 186.797 569.553 187.63 568.227C188.482 566.902 189.069 565.386 189.391 563.682L200.016 563.739C199.619 566.504 198.757 569.098 197.431 571.523C196.124 573.947 194.41 576.087 192.289 577.943C190.168 579.78 187.687 581.22 184.846 582.261C182.005 583.284 178.852 583.795 175.386 583.795C170.272 583.795 165.708 582.612 161.692 580.244C157.677 577.877 154.514 574.458 152.204 569.989C149.893 565.519 148.738 560.159 148.738 553.909C148.738 547.64 149.903 542.28 152.232 537.83C154.562 533.36 157.734 529.941 161.749 527.574C165.764 525.206 170.31 524.023 175.386 524.023C178.624 524.023 181.636 524.477 184.42 525.386C187.204 526.295 189.685 527.631 191.863 529.392C194.041 531.134 195.831 533.275 197.232 535.812C198.653 538.331 199.581 541.21 200.016 544.449ZM219.498 524.818V583H209.214V524.818H219.498ZM249.107 583.852C244.846 583.852 241.153 582.915 238.028 581.04C234.903 579.165 232.478 576.542 230.755 573.17C229.05 569.799 228.198 565.86 228.198 561.352C228.198 556.845 229.05 552.896 230.755 549.506C232.478 546.116 234.903 543.483 238.028 541.608C241.153 539.733 244.846 538.795 249.107 538.795C253.369 538.795 257.062 539.733 260.187 541.608C263.312 543.483 265.727 546.116 267.431 549.506C269.155 552.896 270.016 556.845 270.016 561.352C270.016 565.86 269.155 569.799 267.431 573.17C265.727 576.542 263.312 579.165 260.187 581.04C257.062 582.915 253.369 583.852 249.107 583.852ZM249.164 575.614C251.475 575.614 253.406 574.979 254.96 573.71C256.513 572.422 257.668 570.699 258.425 568.54C259.202 566.381 259.59 563.975 259.59 561.324C259.59 558.653 259.202 556.239 258.425 554.08C257.668 551.902 256.513 550.169 254.96 548.881C253.406 547.593 251.475 546.949 249.164 546.949C246.797 546.949 244.827 547.593 243.255 548.881C241.702 550.169 240.537 551.902 239.761 554.08C239.003 556.239 238.624 558.653 238.624 561.324C238.624 563.975 239.003 566.381 239.761 568.54C240.537 570.699 241.702 572.422 243.255 573.71C244.827 574.979 246.797 575.614 249.164 575.614ZM306.558 564.648V539.364H316.842V583H306.87V575.244H306.415C305.431 577.687 303.811 579.686 301.558 581.239C299.323 582.792 296.567 583.568 293.29 583.568C290.431 583.568 287.902 582.934 285.705 581.665C283.527 580.377 281.823 578.511 280.592 576.068C279.361 573.606 278.745 570.633 278.745 567.148V539.364H289.029V565.557C289.029 568.322 289.787 570.519 291.302 572.148C292.817 573.777 294.806 574.591 297.268 574.591C298.783 574.591 300.251 574.222 301.671 573.483C303.092 572.744 304.256 571.646 305.165 570.188C306.094 568.71 306.558 566.864 306.558 564.648ZM343.61 583.767C340.182 583.767 337.114 582.886 334.406 581.125C331.697 579.364 329.557 576.807 327.985 573.455C326.413 570.102 325.627 566.03 325.627 561.239C325.627 556.39 326.423 552.299 328.013 548.966C329.623 545.614 331.792 543.085 334.519 541.381C337.246 539.657 340.286 538.795 343.638 538.795C346.195 538.795 348.298 539.231 349.945 540.102C351.593 540.955 352.9 541.987 353.866 543.199C354.832 544.392 355.58 545.519 356.11 546.58H356.536V524.818H366.849V583H356.735V576.125H356.11C355.58 577.186 354.813 578.312 353.809 579.506C352.805 580.68 351.479 581.684 349.832 582.517C348.184 583.35 346.11 583.767 343.61 583.767ZM346.479 575.33C348.657 575.33 350.513 574.742 352.048 573.568C353.582 572.375 354.746 570.718 355.542 568.597C356.337 566.475 356.735 564.004 356.735 561.182C356.735 558.36 356.337 555.907 355.542 553.824C354.765 551.741 353.61 550.121 352.076 548.966C350.561 547.811 348.695 547.233 346.479 547.233C344.188 547.233 342.275 547.83 340.741 549.023C339.207 550.216 338.051 551.864 337.275 553.966C336.498 556.068 336.11 558.473 336.11 561.182C336.11 563.909 336.498 566.343 337.275 568.483C338.07 570.604 339.235 572.28 340.769 573.511C342.322 574.723 344.226 575.33 346.479 575.33Z" fill="#FF9900"/>
</g>
<path d="M173.682 223.364H154.455C154.318 221.773 153.955 220.33 153.364 219.034C152.795 217.739 152 216.625 150.977 215.693C149.977 214.739 148.761 214.011 147.33 213.511C145.898 212.989 144.273 212.727 142.455 212.727C139.273 212.727 136.58 213.5 134.375 215.045C132.193 216.591 130.534 218.807 129.398 221.693C128.284 224.58 127.727 228.045 127.727 232.091C127.727 236.364 128.295 239.943 129.432 242.83C130.591 245.693 132.261 247.852 134.443 249.307C136.625 250.739 139.25 251.455 142.318 251.455C144.068 251.455 145.636 251.239 147.023 250.807C148.409 250.352 149.614 249.705 150.636 248.864C151.659 248.023 152.489 247.011 153.125 245.83C153.784 244.625 154.227 243.273 154.455 241.773L173.682 241.909C173.455 244.864 172.625 247.875 171.193 250.943C169.761 253.989 167.727 256.807 165.091 259.398C162.477 261.966 159.239 264.034 155.375 265.602C151.511 267.17 147.023 267.955 141.909 267.955C135.5 267.955 129.75 266.58 124.659 263.83C119.591 261.08 115.58 257.034 112.625 251.693C109.693 246.352 108.227 239.818 108.227 232.091C108.227 224.318 109.727 217.773 112.727 212.455C115.727 207.114 119.773 203.08 124.864 200.352C129.955 197.602 135.636 196.227 141.909 196.227C146.318 196.227 150.375 196.83 154.08 198.034C157.784 199.239 161.034 201 163.83 203.318C166.625 205.614 168.875 208.443 170.58 211.807C172.284 215.17 173.318 219.023 173.682 223.364ZM219.389 244.091V214.636H238.207V267H220.343V257.045H219.798C218.661 260.386 216.673 263 213.832 264.886C210.991 266.75 207.616 267.682 203.707 267.682C200.048 267.682 196.843 266.841 194.093 265.159C191.366 263.477 189.241 261.159 187.718 258.205C186.218 255.25 185.457 251.864 185.434 248.045V214.636H204.252V244.091C204.275 246.682 204.934 248.716 206.229 250.193C207.548 251.67 209.389 252.409 211.752 252.409C213.32 252.409 214.673 252.08 215.809 251.42C216.968 250.739 217.854 249.784 218.468 248.557C219.104 247.307 219.411 245.818 219.389 244.091ZM298.521 231.682H281.203C281.112 230.614 280.737 229.693 280.078 228.92C279.419 228.148 278.567 227.557 277.521 227.148C276.499 226.716 275.362 226.5 274.112 226.5C272.499 226.5 271.112 226.795 269.953 227.386C268.794 227.977 268.226 228.818 268.249 229.909C268.226 230.682 268.555 231.398 269.237 232.057C269.942 232.716 271.294 233.227 273.294 233.591L283.93 235.5C289.294 236.477 293.283 238.125 295.896 240.443C298.533 242.739 299.862 245.818 299.885 249.682C299.862 253.409 298.749 256.648 296.544 259.398C294.362 262.125 291.374 264.239 287.578 265.739C283.805 267.216 279.499 267.955 274.658 267.955C266.658 267.955 260.396 266.318 255.874 263.045C251.374 259.773 248.862 255.455 248.34 250.091H267.021C267.271 251.75 268.09 253.034 269.476 253.943C270.885 254.83 272.658 255.273 274.794 255.273C276.521 255.273 277.942 254.977 279.055 254.386C280.192 253.795 280.771 252.955 280.794 251.864C280.771 250.864 280.271 250.068 279.294 249.477C278.34 248.886 276.84 248.409 274.794 248.045L265.521 246.409C260.18 245.477 256.18 243.705 253.521 241.091C250.862 238.477 249.544 235.114 249.567 231C249.544 227.364 250.499 224.284 252.43 221.761C254.385 219.216 257.169 217.284 260.783 215.966C264.419 214.625 268.726 213.955 273.703 213.955C281.271 213.955 287.237 215.523 291.601 218.659C295.987 221.795 298.294 226.136 298.521 231.682ZM341.202 214.636V228.273H306.702V214.636H341.202ZM313.384 202.091H332.202V250.159C332.202 250.886 332.327 251.5 332.577 252C332.827 252.477 333.214 252.841 333.737 253.091C334.259 253.318 334.93 253.432 335.748 253.432C336.316 253.432 336.975 253.364 337.725 253.227C338.498 253.091 339.066 252.977 339.43 252.886L342.157 266.114C341.316 266.364 340.112 266.67 338.543 267.034C336.998 267.398 335.157 267.636 333.021 267.75C328.703 267.977 325.077 267.534 322.146 266.42C319.214 265.284 317.009 263.5 315.532 261.068C314.055 258.636 313.339 255.591 313.384 251.932V202.091ZM376.426 267.955C370.744 267.955 365.881 266.83 361.835 264.58C357.79 262.307 354.688 259.148 352.529 255.102C350.369 251.034 349.29 246.318 349.29 240.955C349.29 235.591 350.369 230.886 352.529 226.841C354.688 222.773 357.79 219.614 361.835 217.364C365.881 215.091 370.744 213.955 376.426 213.955C382.108 213.955 386.972 215.091 391.017 217.364C395.063 219.614 398.165 222.773 400.324 226.841C402.483 230.886 403.563 235.591 403.563 240.955C403.563 246.318 402.483 251.034 400.324 255.102C398.165 259.148 395.063 262.307 391.017 264.58C386.972 266.83 382.108 267.955 376.426 267.955ZM376.563 254.045C378.154 254.045 379.529 253.511 380.688 252.443C381.847 251.375 382.744 249.852 383.381 247.875C384.017 245.898 384.335 243.545 384.335 240.818C384.335 238.068 384.017 235.716 383.381 233.761C382.744 231.784 381.847 230.261 380.688 229.193C379.529 228.125 378.154 227.591 376.563 227.591C374.881 227.591 373.438 228.125 372.233 229.193C371.029 230.261 370.108 231.784 369.472 233.761C368.835 235.716 368.517 238.068 368.517 240.818C368.517 243.545 368.835 245.898 369.472 247.875C370.108 249.852 371.029 251.375 372.233 252.443C373.438 253.511 374.881 254.045 376.563 254.045ZM414.079 267V214.636H431.943V224.591H432.488C433.579 221.318 435.443 218.727 438.079 216.818C440.715 214.909 443.852 213.955 447.488 213.955C451.17 213.955 454.34 214.932 456.999 216.886C459.659 218.818 461.261 221.386 461.806 224.591H462.352C463.238 221.386 465.124 218.818 468.011 216.886C470.897 214.932 474.284 213.955 478.17 213.955C483.193 213.955 487.261 215.568 490.374 218.795C493.511 222.023 495.079 226.318 495.079 231.682V267H476.261V236.455C476.261 234.159 475.681 232.364 474.522 231.068C473.363 229.75 471.806 229.091 469.852 229.091C467.92 229.091 466.386 229.75 465.249 231.068C464.136 232.364 463.579 234.159 463.579 236.455V267H445.579V236.455C445.579 234.159 444.999 232.364 443.84 231.068C442.681 229.75 441.124 229.091 439.17 229.091C437.874 229.091 436.761 229.386 435.829 229.977C434.897 230.568 434.17 231.42 433.647 232.534C433.147 233.625 432.897 234.932 432.897 236.455V267H414.079ZM557.745 197.182H576.427V245.045C576.404 249.591 575.257 253.591 572.984 257.045C570.734 260.477 567.62 263.159 563.643 265.091C559.688 267 555.132 267.955 549.973 267.955C545.495 267.955 541.404 267.182 537.7 265.636C533.995 264.068 531.041 261.614 528.836 258.273C526.632 254.909 525.541 250.545 525.563 245.182H544.518C544.586 246.932 544.882 248.409 545.404 249.614C545.95 250.818 546.7 251.727 547.654 252.341C548.632 252.932 549.813 253.227 551.2 253.227C552.609 253.227 553.791 252.92 554.745 252.307C555.723 251.693 556.461 250.784 556.961 249.58C557.461 248.352 557.723 246.841 557.745 245.045V197.182ZM606.017 267L585.426 197.182H606.563L616.108 240.136H616.654L627.972 197.182H644.608L655.926 240.273H656.472L666.017 197.182H687.154L666.563 267H648.426L636.563 228H636.017L624.154 267H606.017ZM694.261 212.455V197.182H754.943V212.455H733.943V267H715.261V212.455H694.261ZM805.968 231.682H788.649C788.559 230.614 788.184 229.693 787.524 228.92C786.865 228.148 786.013 227.557 784.968 227.148C783.945 226.716 782.809 226.5 781.559 226.5C779.945 226.5 778.559 226.795 777.399 227.386C776.24 227.977 775.672 228.818 775.695 229.909C775.672 230.682 776.002 231.398 776.684 232.057C777.388 232.716 778.74 233.227 780.74 233.591L791.377 235.5C796.74 236.477 800.729 238.125 803.343 240.443C805.979 242.739 807.309 245.818 807.331 249.682C807.309 253.409 806.195 256.648 803.99 259.398C801.809 262.125 798.82 264.239 795.024 265.739C791.252 267.216 786.945 267.955 782.104 267.955C774.104 267.955 767.843 266.318 763.32 263.045C758.82 259.773 756.309 255.455 755.786 250.091H774.468C774.718 251.75 775.536 253.034 776.922 253.943C778.331 254.83 780.104 255.273 782.24 255.273C783.968 255.273 785.388 254.977 786.502 254.386C787.638 253.795 788.218 252.955 788.24 251.864C788.218 250.864 787.718 250.068 786.74 249.477C785.786 248.886 784.286 248.409 782.24 248.045L772.968 246.409C767.627 245.477 763.627 243.705 760.968 241.091C758.309 238.477 756.99 235.114 757.013 231C756.99 227.364 757.945 224.284 759.877 221.761C761.831 219.216 764.615 217.284 768.229 215.966C771.865 214.625 776.172 213.955 781.149 213.955C788.718 213.955 794.684 215.523 799.047 218.659C803.434 221.795 805.74 226.136 805.968 231.682ZM839.154 267V197.182H888.245V212.455H858.108V224.455H885.245V239.727H858.108V267H839.154ZM919.753 267.955C914.071 267.955 909.207 266.83 905.162 264.58C901.116 262.307 898.014 259.148 895.855 255.102C893.696 251.034 892.616 246.318 892.616 240.955C892.616 235.591 893.696 230.886 895.855 226.841C898.014 222.773 901.116 219.614 905.162 217.364C909.207 215.091 914.071 213.955 919.753 213.955C925.434 213.955 930.298 215.091 934.343 217.364C938.389 219.614 941.491 222.773 943.65 226.841C945.809 230.886 946.889 235.591 946.889 240.955C946.889 246.318 945.809 251.034 943.65 255.102C941.491 259.148 938.389 262.307 934.343 264.58C930.298 266.83 925.434 267.955 919.753 267.955ZM919.889 254.045C921.48 254.045 922.855 253.511 924.014 252.443C925.173 251.375 926.071 249.852 926.707 247.875C927.343 245.898 927.662 243.545 927.662 240.818C927.662 238.068 927.343 235.716 926.707 233.761C926.071 231.784 925.173 230.261 924.014 229.193C922.855 228.125 921.48 227.591 919.889 227.591C918.207 227.591 916.764 228.125 915.559 229.193C914.355 230.261 913.434 231.784 912.798 233.761C912.162 235.716 911.843 238.068 911.843 240.818C911.843 243.545 912.162 245.898 912.798 247.875C913.434 249.852 914.355 251.375 915.559 252.443C916.764 253.511 918.207 254.045 919.889 254.045ZM957.405 267V214.636H975.678V224.591H976.223C977.178 220.909 978.689 218.216 980.758 216.511C982.848 214.807 985.292 213.955 988.087 213.955C988.905 213.955 989.712 214.023 990.508 214.159C991.326 214.273 992.11 214.443 992.86 214.67V230.727C991.928 230.409 990.78 230.17 989.417 230.011C988.053 229.852 986.883 229.773 985.905 229.773C984.064 229.773 982.405 230.193 980.928 231.034C979.473 231.852 978.326 233.011 977.485 234.511C976.644 235.989 976.223 237.727 976.223 239.727V267H957.405ZM173.682 343.364H154.455C154.318 341.773 153.955 340.33 153.364 339.034C152.795 337.739 152 336.625 150.977 335.693C149.977 334.739 148.761 334.011 147.33 333.511C145.898 332.989 144.273 332.727 142.455 332.727C139.273 332.727 136.58 333.5 134.375 335.045C132.193 336.591 130.534 338.807 129.398 341.693C128.284 344.58 127.727 348.045 127.727 352.091C127.727 356.364 128.295 359.943 129.432 362.83C130.591 365.693 132.261 367.852 134.443 369.307C136.625 370.739 139.25 371.455 142.318 371.455C144.068 371.455 145.636 371.239 147.023 370.807C148.409 370.352 149.614 369.705 150.636 368.864C151.659 368.023 152.489 367.011 153.125 365.83C153.784 364.625 154.227 363.273 154.455 361.773L173.682 361.909C173.455 364.864 172.625 367.875 171.193 370.943C169.761 373.989 167.727 376.807 165.091 379.398C162.477 381.966 159.239 384.034 155.375 385.602C151.511 387.17 147.023 387.955 141.909 387.955C135.5 387.955 129.75 386.58 124.659 383.83C119.591 381.08 115.58 377.034 112.625 371.693C109.693 366.352 108.227 359.818 108.227 352.091C108.227 344.318 109.727 337.773 112.727 332.455C115.727 327.114 119.773 323.08 124.864 320.352C129.955 317.602 135.636 316.227 141.909 316.227C146.318 316.227 150.375 316.83 154.08 318.034C157.784 319.239 161.034 321 163.83 323.318C166.625 325.614 168.875 328.443 170.58 331.807C172.284 335.17 173.318 339.023 173.682 343.364ZM204.252 317.182V387H185.434V317.182H204.252ZM241.948 387.955C236.266 387.955 231.402 386.83 227.357 384.58C223.311 382.307 220.209 379.148 218.05 375.102C215.891 371.034 214.811 366.318 214.811 360.955C214.811 355.591 215.891 350.886 218.05 346.841C220.209 342.773 223.311 339.614 227.357 337.364C231.402 335.091 236.266 333.955 241.948 333.955C247.629 333.955 252.493 335.091 256.538 337.364C260.584 339.614 263.686 342.773 265.845 346.841C268.004 350.886 269.084 355.591 269.084 360.955C269.084 366.318 268.004 371.034 265.845 375.102C263.686 379.148 260.584 382.307 256.538 384.58C252.493 386.83 247.629 387.955 241.948 387.955ZM242.084 374.045C243.675 374.045 245.05 373.511 246.209 372.443C247.368 371.375 248.266 369.852 248.902 367.875C249.538 365.898 249.857 363.545 249.857 360.818C249.857 358.068 249.538 355.716 248.902 353.761C248.266 351.784 247.368 350.261 246.209 349.193C245.05 348.125 243.675 347.591 242.084 347.591C240.402 347.591 238.959 348.125 237.754 349.193C236.55 350.261 235.629 351.784 234.993 353.761C234.357 355.716 234.038 358.068 234.038 360.818C234.038 363.545 234.357 365.898 234.993 367.875C235.629 369.852 236.55 371.375 237.754 372.443C238.959 373.511 240.402 374.045 242.084 374.045ZM313.555 364.091V334.636H332.373V387H314.509V377.045H313.964C312.828 380.386 310.839 383 307.998 384.886C305.157 386.75 301.782 387.682 297.873 387.682C294.214 387.682 291.009 386.841 288.259 385.159C285.532 383.477 283.407 381.159 281.884 378.205C280.384 375.25 279.623 371.864 279.6 368.045V334.636H298.418V364.091C298.441 366.682 299.1 368.716 300.396 370.193C301.714 371.67 303.555 372.409 305.918 372.409C307.487 372.409 308.839 372.08 309.975 371.42C311.134 370.739 312.021 369.784 312.634 368.557C313.271 367.307 313.578 365.818 313.555 364.091ZM363.779 387.682C360.051 387.682 356.619 386.705 353.483 384.75C350.369 382.795 347.869 379.83 345.983 375.852C344.119 371.875 343.188 366.864 343.188 360.818C343.188 354.5 344.165 349.364 346.119 345.409C348.097 341.455 350.642 338.557 353.756 336.716C356.892 334.875 360.188 333.955 363.642 333.955C366.233 333.955 368.506 334.409 370.46 335.318C372.415 336.205 374.051 337.398 375.369 338.898C376.688 340.375 377.688 342 378.369 343.773H378.642V317.182H397.46V387H378.779V378.409H378.369C377.642 380.182 376.597 381.773 375.233 383.182C373.892 384.568 372.256 385.67 370.324 386.489C368.415 387.284 366.233 387.682 363.779 387.682ZM370.733 373.227C372.46 373.227 373.938 372.727 375.165 371.727C376.415 370.705 377.369 369.273 378.029 367.432C378.71 365.568 379.051 363.364 379.051 360.818C379.051 358.227 378.71 356.011 378.029 354.17C377.369 352.307 376.415 350.886 375.165 349.909C373.938 348.909 372.46 348.409 370.733 348.409C369.006 348.409 367.529 348.909 366.301 349.909C365.097 350.886 364.165 352.307 363.506 354.17C362.869 356.011 362.551 358.227 362.551 360.818C362.551 363.409 362.869 365.636 363.506 367.5C364.165 369.341 365.097 370.761 366.301 371.761C367.529 372.739 369.006 373.227 370.733 373.227ZM468.948 339C468.766 336.727 467.914 334.955 466.391 333.682C464.891 332.409 462.607 331.773 459.539 331.773C457.584 331.773 455.982 332.011 454.732 332.489C453.504 332.943 452.595 333.568 452.004 334.364C451.414 335.159 451.107 336.068 451.084 337.091C451.039 337.932 451.186 338.693 451.527 339.375C451.891 340.034 452.459 340.636 453.232 341.182C454.004 341.705 454.993 342.182 456.198 342.614C457.402 343.045 458.834 343.432 460.493 343.773L466.22 345C470.084 345.818 473.391 346.898 476.141 348.239C478.891 349.58 481.141 351.159 482.891 352.977C484.641 354.773 485.925 356.795 486.743 359.045C487.584 361.295 488.016 363.75 488.039 366.409C488.016 371 486.868 374.886 484.595 378.068C482.323 381.25 479.073 383.67 474.845 385.33C470.641 386.989 465.584 387.818 459.675 387.818C453.607 387.818 448.311 386.92 443.789 385.125C439.289 383.33 435.789 380.568 433.289 376.841C430.811 373.091 429.561 368.295 429.539 362.455H447.539C447.652 364.591 448.186 366.386 449.141 367.841C450.095 369.295 451.436 370.398 453.164 371.148C454.914 371.898 456.993 372.273 459.402 372.273C461.425 372.273 463.118 372.023 464.482 371.523C465.845 371.023 466.879 370.33 467.584 369.443C468.289 368.557 468.652 367.545 468.675 366.409C468.652 365.341 468.3 364.409 467.618 363.614C466.959 362.795 465.868 362.068 464.345 361.432C462.823 360.773 460.766 360.159 458.175 359.591L451.22 358.091C445.039 356.75 440.164 354.511 436.595 351.375C433.05 348.216 431.289 343.909 431.311 338.455C431.289 334.023 432.47 330.148 434.857 326.83C437.266 323.489 440.595 320.886 444.845 319.023C449.118 317.159 454.016 316.227 459.539 316.227C465.175 316.227 470.05 317.17 474.164 319.057C478.277 320.943 481.448 323.602 483.675 327.034C485.925 330.443 487.061 334.432 487.084 339H468.948ZM523.629 387.955C517.947 387.955 513.083 386.83 509.038 384.58C504.992 382.307 501.89 379.148 499.731 375.102C497.572 371.034 496.492 366.318 496.492 360.955C496.492 355.591 497.572 350.886 499.731 346.841C501.89 342.773 504.992 339.614 509.038 337.364C513.083 335.091 517.947 333.955 523.629 333.955C529.311 333.955 534.174 335.091 538.22 337.364C542.265 339.614 545.367 342.773 547.526 346.841C549.686 350.886 550.765 355.591 550.765 360.955C550.765 366.318 549.686 371.034 547.526 375.102C545.367 379.148 542.265 382.307 538.22 384.58C534.174 386.83 529.311 387.955 523.629 387.955ZM523.765 374.045C525.356 374.045 526.731 373.511 527.89 372.443C529.049 371.375 529.947 369.852 530.583 367.875C531.22 365.898 531.538 363.545 531.538 360.818C531.538 358.068 531.22 355.716 530.583 353.761C529.947 351.784 529.049 350.261 527.89 349.193C526.731 348.125 525.356 347.591 523.765 347.591C522.083 347.591 520.64 348.125 519.436 349.193C518.231 350.261 517.311 351.784 516.674 353.761C516.038 355.716 515.72 358.068 515.72 360.818C515.72 363.545 516.038 365.898 516.674 367.875C517.311 369.852 518.231 371.375 519.436 372.443C520.64 373.511 522.083 374.045 523.765 374.045ZM580.1 317.182V387H561.281V317.182H580.1ZM626.522 364.091V334.636H645.34V387H627.477V377.045H626.931C625.795 380.386 623.806 383 620.965 384.886C618.125 386.75 614.75 387.682 610.84 387.682C607.181 387.682 603.977 386.841 601.227 385.159C598.5 383.477 596.375 381.159 594.852 378.205C593.352 375.25 592.59 371.864 592.568 368.045V334.636H611.386V364.091C611.409 366.682 612.068 368.716 613.363 370.193C614.681 371.67 616.522 372.409 618.886 372.409C620.454 372.409 621.806 372.08 622.943 371.42C624.102 370.739 624.988 369.784 625.602 368.557C626.238 367.307 626.545 365.818 626.522 364.091ZM689.019 334.636V348.273H654.519V334.636H689.019ZM661.201 322.091H680.019V370.159C680.019 370.886 680.144 371.5 680.394 372C680.644 372.477 681.03 372.841 681.553 373.091C682.076 373.318 682.746 373.432 683.564 373.432C684.132 373.432 684.791 373.364 685.541 373.227C686.314 373.091 686.882 372.977 687.246 372.886L689.973 386.114C689.132 386.364 687.928 386.67 686.36 387.034C684.814 387.398 682.973 387.636 680.837 387.75C676.519 387.977 672.894 387.534 669.962 386.42C667.03 385.284 664.826 383.5 663.348 381.068C661.871 378.636 661.155 375.591 661.201 371.932V322.091ZM699.578 387V334.636H718.396V387H699.578ZM708.987 329.182C706.441 329.182 704.26 328.341 702.441 326.659C700.623 324.977 699.714 322.955 699.714 320.591C699.714 318.227 700.623 316.205 702.441 314.523C704.26 312.841 706.441 312 708.987 312C711.555 312 713.737 312.841 715.532 314.523C717.35 316.205 718.26 318.227 718.26 320.591C718.26 322.955 717.35 324.977 715.532 326.659C713.737 328.341 711.555 329.182 708.987 329.182ZM756.091 387.955C750.409 387.955 745.546 386.83 741.5 384.58C737.455 382.307 734.353 379.148 732.194 375.102C730.034 371.034 728.955 366.318 728.955 360.955C728.955 355.591 730.034 350.886 732.194 346.841C734.353 342.773 737.455 339.614 741.5 337.364C745.546 335.091 750.409 333.955 756.091 333.955C761.773 333.955 766.637 335.091 770.682 337.364C774.728 339.614 777.83 342.773 779.989 346.841C782.148 350.886 783.228 355.591 783.228 360.955C783.228 366.318 782.148 371.034 779.989 375.102C777.83 379.148 774.728 382.307 770.682 384.58C766.637 386.83 761.773 387.955 756.091 387.955ZM756.228 374.045C757.819 374.045 759.194 373.511 760.353 372.443C761.512 371.375 762.409 369.852 763.046 367.875C763.682 365.898 764 363.545 764 360.818C764 358.068 763.682 355.716 763.046 353.761C762.409 351.784 761.512 350.261 760.353 349.193C759.194 348.125 757.819 347.591 756.228 347.591C754.546 347.591 753.103 348.125 751.898 349.193C750.694 350.261 749.773 351.784 749.137 353.761C748.5 355.716 748.182 358.068 748.182 360.818C748.182 363.545 748.5 365.898 749.137 367.875C749.773 369.852 750.694 371.375 751.898 372.443C753.103 373.511 754.546 374.045 756.228 374.045ZM812.562 357.545V387H793.744V334.636H811.608V344.591H812.153C813.289 341.273 815.289 338.67 818.153 336.784C821.039 334.898 824.403 333.955 828.244 333.955C831.949 333.955 835.164 334.807 837.892 336.511C840.642 338.193 842.767 340.511 844.267 343.466C845.789 346.42 846.539 349.795 846.517 353.591V387H827.699V357.545C827.721 354.955 827.062 352.92 825.721 351.443C824.403 349.966 822.562 349.227 820.199 349.227C818.653 349.227 817.301 349.568 816.142 350.25C815.005 350.909 814.13 351.864 813.517 353.114C812.903 354.341 812.585 355.818 812.562 357.545ZM906.55 351.682H889.232C889.141 350.614 888.766 349.693 888.107 348.92C887.448 348.148 886.596 347.557 885.55 347.148C884.527 346.716 883.391 346.5 882.141 346.5C880.527 346.5 879.141 346.795 877.982 347.386C876.823 347.977 876.255 348.818 876.277 349.909C876.255 350.682 876.584 351.398 877.266 352.057C877.971 352.716 879.323 353.227 881.323 353.591L891.959 355.5C897.323 356.477 901.311 358.125 903.925 360.443C906.561 362.739 907.891 365.818 907.914 369.682C907.891 373.409 906.777 376.648 904.573 379.398C902.391 382.125 899.402 384.239 895.607 385.739C891.834 387.216 887.527 387.955 882.686 387.955C874.686 387.955 868.425 386.318 863.902 383.045C859.402 379.773 856.891 375.455 856.368 370.091H875.05C875.3 371.75 876.118 373.034 877.505 373.943C878.914 374.83 880.686 375.273 882.823 375.273C884.55 375.273 885.971 374.977 887.084 374.386C888.221 373.795 888.8 372.955 888.823 371.864C888.8 370.864 888.3 370.068 887.323 369.477C886.368 368.886 884.868 368.409 882.823 368.045L873.55 366.409C868.209 365.477 864.209 363.705 861.55 361.091C858.891 358.477 857.573 355.114 857.596 351C857.573 347.364 858.527 344.284 860.459 341.761C862.414 339.216 865.198 337.284 868.811 335.966C872.448 334.625 876.755 333.955 881.732 333.955C889.3 333.955 895.266 335.523 899.63 338.659C904.016 341.795 906.323 346.136 906.55 351.682Z" fill="white"/>
<path d="M1023.7 674.308V769.591L1109.64 820.849L1194.5 770.065V674.071L1109.64 623.316L1023.7 674.308Z" fill="white" fill-opacity="0.15" stroke="white" stroke-width="4"/>
<path d="M1188.55 676.752V767.621L1108.91 815.099L1029.27 767.621V676.752L1108.91 629.273L1188.55 676.752ZM1115.55 617.778C1113.53 616.613 1111.24 616 1108.91 616C1106.58 616 1104.29 616.613 1102.28 617.778L1022.64 665.257C1020.62 666.422 1018.94 668.097 1017.78 670.115C1016.61 672.133 1016 674.422 1016 676.752V767.621C1016 769.951 1016.61 772.24 1017.78 774.257C1018.94 776.275 1020.62 777.951 1022.64 779.115L1102.28 826.594C1104.29 827.759 1106.58 828.372 1108.91 828.372C1111.24 828.372 1113.53 827.759 1115.55 826.594L1195.19 779.115C1197.21 777.951 1198.88 776.275 1200.05 774.257C1201.21 772.24 1201.83 769.951 1201.83 767.621V676.752C1201.83 674.422 1201.21 672.133 1200.05 670.115C1198.88 668.097 1197.21 666.422 1195.19 665.257L1115.55 617.778Z" fill="white" fill-opacity="0.15"/>
<g opacity="0.8">
<path d="M1105.62 775.372L1059.3 748.826V695.732L1105.62 722.279V775.372Z" fill="white"/>
<path d="M1151.95 748.826L1105.62 775.372V722.279L1151.95 695.732V748.826Z" fill="#EBEBEB"/>
<path d="M1105.62 721.744L1059.3 695.333L1105.62 668.922L1151.94 695.333L1105.62 721.744Z" fill="#FBFBFB"/>
<path d="M1105.62 721.896L1061.31 696.863L1059.3 698.011L1105.62 724.175L1151.94 698.011V695.732L1105.62 721.896Z" fill="white"/>
</g>
<path d="M743.656 951.692V1145.65L918.601 1249.99L1091.36 1146.62V951.209L918.601 847.893L743.656 951.692Z" fill="white" fill-opacity="0.15" stroke="white" stroke-width="4"/>
<path d="M1079.25 956.667V1141.64L917.136 1238.29L755.019 1141.64V956.667L917.136 860.019L1079.25 956.667ZM930.646 836.62C926.538 834.248 921.879 833 917.136 833C912.393 833 907.734 834.248 903.626 836.62L741.51 933.268C737.402 935.64 733.992 939.051 731.62 943.158C729.249 947.265 728 951.925 728 956.667V1141.64C728 1146.39 729.249 1151.04 731.62 1155.15C733.992 1159.26 737.402 1162.67 741.51 1165.04L903.626 1261.69C907.734 1264.06 912.393 1265.31 917.136 1265.31C921.879 1265.31 926.538 1264.06 930.646 1261.69L1092.76 1165.04C1096.87 1162.67 1100.28 1159.26 1102.65 1155.15C1105.02 1151.04 1106.27 1146.39 1106.27 1141.64V956.667C1106.27 951.925 1105.02 947.265 1102.65 943.158C1100.28 939.051 1096.87 935.64 1092.76 933.268L930.646 836.62Z" fill="white" fill-opacity="0.15"/>
<path d="M861.345 993.484C865.491 993.484 871.552 996.05 875.387 997.053C882.586 976.654 899.999 960 922.879 960C950.885 960 973.775 981.959 975.285 1009.59C976.994 1009.37 978.737 1009.21 980.504 1009.21C1002.31 1009.21 1019.98 1026.88 1019.98 1048.68C1019.98 1070.49 1002.31 1088.16 980.504 1088.16C964.273 1088.16 886.354 1088.16 861.345 1088.16C835.194 1088.16 814 1066.97 814 1040.82C814 1014.67 835.194 993.484 861.345 993.484Z" fill="#C8C6CE" fill-opacity="0.87"/>
<path d="M1016.85 1087.04L997.762 1106.14L983.069 1103.91C983.069 1103.91 980.86 1089.03 980.797 1089.09L999.852 1070.04C995.564 1068.11 990.832 1067 985.824 1067C967.011 1067 951.754 1082.25 951.754 1101.07C951.754 1106.08 952.861 1110.82 954.796 1115.09L949 1120.89C951.618 1126.64 956.655 1133.61 966.154 1137.76L971.806 1132.1C976.08 1134.03 980.826 1135.15 985.82 1135.15C1004.64 1135.15 1019.89 1119.89 1019.89 1101.07C1019.9 1096.06 1018.79 1091.34 1016.85 1087.04Z" fill="white" stroke="white" stroke-width="0.5"/>
<defs>
<filter id="filter0_d_3057_1402" x="64" y="464" width="389" height="212" filterUnits="userSpaceOnUse" color-interpolation-filters="sRGB">
<feFlood flood-opacity="0" result="BackgroundImageFix"/>
<feColorMatrix in="SourceAlpha" type="matrix" values="0 0 0 0 0 0 0 0 0 0 0 0 0 0 0 0 0 0 127 0" result="hardAlpha"/>
<feOffset dy="16"/>
<feGaussianBlur stdDeviation="20"/>
<feComposite in2="hardAlpha" operator="out"/>
<feColorMatrix type="matrix" values="0 0 0 0 0 0 0 0 0 0 0 0 0 0 0 0 0 0 0.05 0"/>
<feBlend mode="normal" in2="BackgroundImageFix" result="effect1_dropShadow_3057_1402"/>
<feBlend mode="normal" in="SourceGraphic" in2="effect1_dropShadow_3057_1402" result="shape"/>
</filter>
<radialGradient id="paint0_radial_3057_1402" cx="0" cy="0" r="1" gradientUnits="userSpaceOnUse" gradientTransform="translate(-355.2 -322.136) rotate(36.5012) scale(2238.73 3337.02)">
<stop offset="0.120942" stop-color="#321179"/>
<stop offset="1" stop-color="#160E2B"/>
</radialGradient>
</defs>
</svg>
