<svg width="66" height="66" viewBox="0 0 66 66" fill="none" xmlns="http://www.w3.org/2000/svg">
<path d="M58.3 8.80005L58.2997 49.4121C58.3229 51.866 56.3536 53.8747 53.8997 53.9001H5.49982C3.04596 53.8747 1.07666 51.866 1.09987 49.4121L1.09961 8.80005H58.3Z" fill="#F5F5F5"/>
<path d="M55 8.80005L54.9997 49.4121C55.0229 51.866 53.0536 53.8747 50.5997 53.9001H5.49982C3.04596 53.8747 1.07666 51.866 1.09987 49.4121L1.09961 8.80005H55Z" fill="#F5F5F5"/>
<path d="M58.3007 5.50005V9.90001H1.10059V5.50005C1.10059 3.07004 3.07053 1.1001 5.50054 1.1001H53.9006C56.3307 1.09997 58.3007 3.06991 58.3007 5.50005Z" fill="#A4C2F7"/>
<path d="M55.0007 5.50005V9.90001H1.10059V5.50005C1.10059 3.07004 3.07053 1.1001 5.50054 1.1001H50.6006C53.0307 1.09997 55.0007 3.06991 55.0007 5.50005Z" fill="#F5F5F5"/>
<path d="M38.5 51.59V53.9H5.5V51.59C5.49794 49.431 6.69239 47.4489 8.602 46.442L14.96 43.109C15.8637 42.5651 16.4401 41.6099 16.5001 40.557V37.851C15.5311 36.1581 14.8193 34.3305 14.3881 32.4281C13.8656 31.9118 13.4604 31.2889 13.2001 30.6021V27.7091L14.3 26.103V21.824C14.3 21.824 13.585 16.368 20.339 15.5979C20.8864 15.5293 21.4375 15.4963 21.989 15.4989C30.514 15.521 29.7001 21.824 29.7001 21.824V26.103L30.8 27.7091V30.6021C30.5725 31.287 30.1928 31.9113 29.689 32.4281C29.247 34.339 28.5084 36.1688 27.5 37.851V40.557C27.5004 41.6274 28.0933 42.6097 29.0401 43.109L35.3981 46.442C37.3076 47.449 38.5021 49.4312 38.5 51.59Z" fill="#A4C2F7"/>
<path d="M35.2 51.5899V53.8999H5.5V51.5899C5.49794 49.431 6.69239 47.4488 8.602 46.4419L14.96 43.1089C15.8637 42.5651 16.4401 41.6099 16.5001 40.557V37.851C15.5311 36.1581 14.8193 34.3304 14.3881 32.428C13.8656 31.9118 13.4603 31.2889 13.2001 30.6021V27.709L14.3 26.103V21.8239C14.3 21.8239 13.585 16.368 20.339 15.5979C27.104 16.3679 26.4001 21.8239 26.4001 21.8239V26.103L27.5 27.709V30.6021C27.2725 31.287 26.8928 31.9112 26.389 32.428C25.947 34.3389 25.2083 36.1688 24.2 37.851V40.557C24.2004 41.6274 24.7933 42.6097 25.7401 43.1089L32.0981 46.4419C34.0076 47.449 35.2021 49.4311 35.2 51.5899Z" fill="#F5F5F5"/>
<path d="M64.9002 39.6V47.949C64.8868 48.4686 64.8389 48.9867 64.7572 49.5C63.7632 55.8059 59.9922 61.3333 54.4833 64.5589C54.1227 64.7679 53.6778 64.7679 53.3173 64.5589C52.9433 64.3279 52.5913 64.0969 52.2503 63.8659C47.3003 60.5824 43.959 55.3689 43.0433 49.5C42.9615 48.9867 42.9138 48.4686 42.9004 47.949V39.6C42.9004 38.9924 43.3928 38.5 44.0003 38.5H63.8003C64.4076 38.5 64.9002 38.9924 64.9002 39.6Z" fill="#A4C2F7"/>
<path d="M61.6003 39.6V47.949C61.5869 48.4686 61.5391 48.9867 61.4573 49.5C60.5417 55.3689 57.2003 60.5825 52.2503 63.8659C47.3003 60.5824 43.959 55.3689 43.0433 49.5C42.9615 48.9867 42.9138 48.4686 42.9004 47.949V39.6C42.9004 38.9924 43.3928 38.5 44.0003 38.5H60.5003C61.1077 38.5 61.6003 38.9924 61.6003 39.6Z" fill="#F5F5F5"/>
<path d="M5.49977 53.9H8.79977C6.34591 53.8746 4.37661 51.8658 4.39981 49.412V5.50005C4.39981 3.07004 6.36976 1.1001 8.79977 1.1001H5.49977C3.06976 1.1001 1.09981 3.07004 1.09981 5.50005V49.4121C1.07648 51.866 3.04578 53.8746 5.49977 53.9Z" fill="white"/>
<path d="M2.20004 9.8999V24.1999V49.4999H0V24.1999V9.8999H2.20004Z" fill="white"/>
<path d="M1.09987 19.8001C1.39107 19.7959 1.66989 19.6819 1.88091 19.4811C2.3063 19.0473 2.3063 18.3529 1.88091 17.9191L1.71591 17.7871C1.65455 17.7455 1.58804 17.7122 1.51791 17.6881C1.45552 17.6564 1.38888 17.6341 1.31991 17.6221C1.24721 17.6099 1.1736 17.6025 1.09987 17.6001C0.808669 17.6044 0.529845 17.7183 0.318825 17.9191C0.219439 18.0243 0.140935 18.1476 0.0878254 18.2821C-0.0780769 18.6924 0.0122863 19.1619 0.318825 19.4811C0.424013 19.5805 0.547247 19.659 0.681825 19.7121C0.814212 19.7686 0.956138 19.7985 1.09987 19.8001Z" fill="#428DFF"/>
<path d="M7.69991 4.3999H6.59996C5.99242 4.3999 5.5 4.89245 5.5 5.49986C5.5 6.10727 5.99242 6.59995 6.59996 6.59995H7.69991C8.30745 6.59995 8.79987 6.10739 8.79987 5.49999C8.79987 4.89258 8.30745 4.3999 7.69991 4.3999Z" fill="#428DFF"/>
<path d="M13.1999 4.3999H12.1C11.4924 4.3999 11 4.89245 11 5.49986C11 6.10727 11.4926 6.59982 12.1 6.59982H13.1999C13.8074 6.59982 14.2999 6.10727 14.2999 5.49986C14.2999 4.89245 13.8074 4.3999 13.1999 4.3999Z" fill="#428DFF"/>
<path d="M18.6999 4.3999H17.6C16.9924 4.3999 16.5 4.89245 16.5 5.49986C16.5 6.10727 16.9925 6.59982 17.6 6.59982H18.6999C19.3075 6.59982 19.7999 6.10727 19.7999 5.49986C19.7999 4.89245 19.3073 4.3999 18.6999 4.3999Z" fill="#428DFF"/>
<path d="M52.7999 4.3999H23.1C22.4924 4.3999 22 4.89245 22 5.49986C22 6.10727 22.4925 6.59982 23.1 6.59982H52.7999C53.4075 6.59982 53.8999 6.10727 53.8999 5.49986C53.8999 4.89245 53.4075 4.3999 52.7999 4.3999Z" fill="#428DFF"/>
<path d="M63.8 37.4H59.4V5.50004C59.3964 2.46391 56.9361 0.00360938 53.9 0H5.50004C2.46391 0.00360938 0.00360938 2.46391 0 5.50004V14.3001C0 14.9076 0.492551 15.4 1.09996 15.4C1.70736 15.4 2.19991 14.9075 2.19991 14.3001V11.0001H57.2V37.4001H44C42.7849 37.4001 41.7999 38.3851 41.7999 39.6001V47.9525C41.7999 47.9954 41.7999 48.1284 41.812 48.3386C41.812 48.3606 41.7999 48.3781 41.7999 48.4002C41.8057 48.4399 41.8138 48.4791 41.8242 48.5179C41.9384 49.9719 42.2167 51.4086 42.6535 52.8001H39.6V51.5901C39.6039 49.0225 38.1798 46.6659 35.9052 45.4752L29.5538 42.13C28.9682 41.8232 28.6009 41.217 28.6002 40.556V38.1547C29.5222 36.548 30.2199 34.8226 30.6736 33.0266C31.1894 32.4252 31.5838 31.7296 31.8352 30.9784C31.8781 30.8591 31.9 30.7333 31.9 30.6066V27.7103C31.9002 27.4881 31.8331 27.271 31.7076 27.0877L30.8001 25.7644V21.8747C30.9322 20.1113 30.3655 18.3666 29.2227 17.0172C27.7035 15.2902 25.2714 14.4102 21.9891 14.397C18.7067 14.3839 16.2812 15.2869 14.7654 17.0183C13.6262 18.3693 13.0639 20.114 13.2001 21.8759V25.7644L12.2926 27.0844C12.1671 27.2677 12.0999 27.4847 12.1002 27.707V30.6032C12.1 30.7458 12.1278 30.887 12.1815 31.0191C12.4668 31.7517 12.8761 32.4297 13.3916 33.0233C13.839 34.8088 14.5139 36.5295 15.4002 38.1427V40.5561C15.3441 41.2017 14.9919 41.7847 14.4465 42.1346L8.09518 45.4709C5.81909 46.6624 4.3948 49.0211 4.40034 51.5902V52.6023C3.08473 52.137 2.20391 50.8952 2.20004 49.5V23.1C2.20004 22.4925 1.70749 22 1.10009 22C0.49268 22 0 22.4925 0 23.1V49.5C0.00360938 52.536 2.46391 54.9963 5.50004 55H43.4632C45.4772 59.6053 48.9518 63.4193 53.35 65.8527C53.6904 66.0491 54.1097 66.0491 54.45 65.8527C64.537 60.0226 65.8151 50.8927 65.9758 48.5177C65.9861 48.4789 65.9941 48.4397 66 48.4C66 48.378 65.989 48.3605 65.9879 48.3384C65.9988 48.1283 66 47.9953 66 47.9524V39.6C66 38.3849 65.015 37.4 63.8 37.4ZM2.20004 8.80004V5.50004C2.20004 3.67757 3.67757 2.20004 5.50004 2.20004H53.9001C55.7226 2.20004 57.2001 3.67757 57.2001 5.50004V8.80004H2.20004ZM6.6 52.8V51.59C6.59704 49.8403 7.56757 48.2343 9.11793 47.4232L15.4693 44.0858C16.7405 43.3552 17.5458 42.0212 17.6 40.556V37.8478C17.5993 37.6453 17.5435 37.4466 17.4383 37.2736C16.5375 35.6805 15.8707 33.9659 15.4583 32.1829C15.3774 31.9156 15.2142 31.6809 14.9919 31.5119C14.7024 31.1739 14.4687 30.7918 14.3001 30.38V28.05L15.2076 26.73C15.3338 26.5458 15.4009 26.3274 15.4 26.1042V21.8142C15.3999 21.7685 15.3969 21.723 15.3913 21.6778C15.3086 20.5037 15.6844 19.3433 16.4395 18.4404C17.523 17.2194 19.3919 16.598 21.9891 16.5913C24.5862 16.5847 26.4639 17.2205 27.5507 18.4426C28.3076 19.3424 28.6868 20.5001 28.6089 21.6733C28.6033 21.7199 28.6003 21.767 28.6002 21.814V26.104C28.5999 26.3263 28.6671 26.5433 28.7926 26.7266L29.7001 28.05V30.404C29.5564 30.8012 29.3495 31.1726 29.0874 31.5039C28.8473 31.6595 28.6773 31.9026 28.6133 32.1816C28.1975 33.9659 27.51 35.6758 26.5751 37.2515C26.4612 37.4291 26.4005 37.6356 26.4001 37.8466V40.5548C26.3999 42.0335 27.2214 43.39 28.532 44.0749L34.8823 47.4122C36.4361 48.2251 37.4072 49.8364 37.4002 51.5901V52.8001H6.6V52.8ZM63.8 47.3H54.9999V39.6H63.8V47.3ZM52.8 39.6V47.3H44V39.6H52.8ZM53.9 63.6196C49.9898 61.321 46.9506 57.7927 45.2561 53.5854C45.2406 53.5252 45.2192 53.4667 45.1923 53.4105C44.7025 52.1489 44.3517 50.8377 44.1463 49.5H52.8V58.3C52.8 58.9076 53.2924 59.4 53.9 59.4C54.5075 59.4 54.9999 58.9074 54.9999 58.3V49.5H63.6536C62.6883 55.4327 59.107 60.617 53.9 63.6196Z" fill="#428DFF"/>
<path d="M37.3998 17.6001H53.8998C54.5073 17.6001 54.9997 17.1075 54.9997 16.5001C54.9997 15.8926 54.5073 15.4001 53.8998 15.4001H37.3998C36.7922 15.4001 36.2998 15.8927 36.2998 16.5001C36.2998 17.1076 36.7924 17.6001 37.3998 17.6001Z" fill="#428DFF"/>
<path d="M37.3998 22H53.8998C54.5073 22 54.9997 21.5075 54.9997 20.9C54.9997 20.2925 54.5073 19.8 53.8998 19.8H37.3998C36.7922 19.8 36.2998 20.2926 36.2998 20.9C36.2998 21.5074 36.7924 22 37.3998 22Z" fill="#428DFF"/>
<path d="M37.3998 26.3999H53.8998C54.5073 26.3999 54.9997 25.9073 54.9997 25.2999C54.9997 24.6925 54.5073 24.2 53.8998 24.2H37.3998C36.7922 24.2 36.2998 24.6924 36.2998 25.2999C36.2998 25.9074 36.7924 26.3999 37.3998 26.3999Z" fill="#428DFF"/>
<path d="M37.3998 30.8H45.0997C45.7072 30.8 46.1997 30.3075 46.1997 29.7001C46.1997 29.0925 45.7071 28.6001 45.0997 28.6001H37.3998C36.7922 28.6001 36.2998 29.0926 36.2998 29.7001C36.2998 30.3076 36.7924 30.8 37.3998 30.8Z" fill="#428DFF"/>
</svg>
