<svg width="67" height="66" viewBox="0 0 67 66" fill="none" xmlns="http://www.w3.org/2000/svg">
<path d="M50.8629 32.9973C50.8629 42.7168 42.983 50.596 33.2628 50.596C32.7119 50.5983 32.1612 50.5726 31.6128 50.5191C22.5693 49.6704 15.6572 42.0798 15.6572 32.9973C15.6572 23.9148 22.5693 16.3242 31.6128 15.4755C32.1612 15.4219 32.7119 15.3963 33.2628 15.3986C42.983 15.3985 50.8629 23.2777 50.8629 32.9973Z" fill="#A4C2F7"/>
<path d="M31.6131 50.5191C40.4221 50.5191 47.5632 42.6744 47.5632 32.9973C47.5632 23.3203 40.4221 15.4756 31.6131 15.4756C22.8042 15.4756 15.6631 23.3203 15.6631 32.9973C15.6631 42.6744 22.8042 50.5191 31.6131 50.5191Z" fill="#F5F5F5"/>
<path d="M33.5112 1.62964L34.5595 3.86355C34.5993 3.94605 34.6769 4.00405 34.7674 4.01862L37.1335 4.3794C37.2355 4.395 37.3202 4.46628 37.3529 4.56411C37.3856 4.66194 37.3608 4.76983 37.2886 4.84356L35.5594 6.61551C35.4991 6.67841 35.4715 6.7658 35.4847 6.85203L35.8906 9.34001C35.9073 9.44377 35.8635 9.54792 35.7777 9.60837C35.6918 9.66882 35.579 9.67527 35.4869 9.62487L33.3957 8.46879C33.3127 8.42355 33.2125 8.42355 33.1295 8.46879L31.0396 9.62487C30.9474 9.6754 30.8346 9.66895 30.7487 9.60837C30.6629 9.54779 30.6191 9.44364 30.6358 9.34001L31.0406 6.85203C31.0537 6.76593 31.0262 6.67841 30.9658 6.61551L29.2367 4.83918C29.1645 4.76545 29.1397 4.65756 29.1723 4.55973C29.2051 4.46189 29.2898 4.39061 29.3917 4.37502L31.7578 4.01423C31.8483 3.99967 31.9259 3.94167 31.9658 3.85917L33.014 1.62525C33.0597 1.52871 33.1572 1.46761 33.264 1.46852C33.3708 1.46942 33.4673 1.53232 33.5112 1.62964Z" fill="#F5F5F5"/>
<path d="M33.5111 56.626L34.5594 58.8599C34.5992 58.9424 34.6768 59.0004 34.7673 59.015L37.1334 59.3757C37.2353 59.3913 37.32 59.4626 37.3528 59.5604C37.3855 59.6583 37.3606 59.7662 37.2885 59.8399L35.5593 61.6118C35.499 61.6747 35.4714 61.7621 35.4845 61.8484L35.8905 64.3363C35.9072 64.4401 35.8634 64.5443 35.7775 64.6047C35.6917 64.6653 35.5789 64.6716 35.4867 64.6212L33.3968 63.4651C33.3137 63.4199 33.2136 63.4199 33.1306 63.4651L31.0406 64.6212C30.9484 64.6717 30.8356 64.6653 30.7498 64.6047C30.6639 64.5441 30.6201 64.44 30.6369 64.3363L31.0428 61.8484C31.0559 61.7623 31.0283 61.6749 30.968 61.6118L29.2367 59.8355C29.1645 59.7618 29.1397 59.6539 29.1723 59.5561C29.2051 59.4582 29.2898 59.387 29.3917 59.3714L31.7578 59.0106C31.8483 58.996 31.9259 58.938 31.9658 58.8555L33.014 56.6216C33.0597 56.525 33.1572 56.464 33.264 56.4649C33.3707 56.4658 33.4671 56.5287 33.5111 56.626Z" fill="#F5F5F5"/>
<path d="M20.1156 5.34837L21.1617 7.58228C21.2012 7.66504 21.279 7.72304 21.3696 7.73735L23.7357 8.09813C23.8377 8.11373 23.9224 8.18501 23.9551 8.28284C23.9879 8.38067 23.963 8.48856 23.8908 8.56229L22.1638 10.3387C22.1026 10.4011 22.0748 10.489 22.0891 10.5753L22.495 13.0632C22.512 13.1673 22.4681 13.2719 22.3819 13.3325C22.2957 13.3932 22.1824 13.3993 22.0902 13.3481L20.0003 12.192C19.9172 12.1468 19.8171 12.1468 19.7341 12.192L17.6441 13.3481C17.5519 13.3993 17.4386 13.3932 17.3524 13.3325C17.2661 13.2718 17.2222 13.1673 17.2393 13.0632L17.6419 10.5708C17.6561 10.4847 17.6288 10.397 17.5682 10.3342L15.84 8.56229C15.7679 8.48843 15.7431 8.38029 15.7761 8.28245C15.8091 8.18449 15.8941 8.11334 15.9963 8.09813L18.3624 7.73735C18.4527 7.72317 18.5302 7.66504 18.5691 7.58228L19.6218 5.34837C19.6679 5.25414 19.7637 5.19434 19.8688 5.19434C19.9738 5.19434 20.0695 5.25414 20.1156 5.34837Z" fill="#F5F5F5"/>
<path d="M47.6174 52.9762L48.6635 55.2157C48.7029 55.2984 48.7808 55.3564 48.8714 55.3707L51.2375 55.7326C51.3394 55.7476 51.4244 55.8188 51.4571 55.9165C51.4899 56.0142 51.465 56.1221 51.3926 56.1956L49.6656 57.9653C49.6042 58.0272 49.5764 58.1148 49.5908 58.2007L49.9968 60.6887C50.0138 60.7927 49.9698 60.8973 49.8837 60.9579C49.7975 61.0186 49.6842 61.0247 49.592 60.9735L47.502 59.8186C47.4193 59.7723 47.3186 59.7723 47.2358 59.8186L45.1459 60.9735C45.0537 61.0247 44.9404 61.0186 44.8541 60.9579C44.7679 60.8972 44.7239 60.7927 44.7411 60.6887L45.147 58.2007C45.1613 58.115 45.134 58.0276 45.0733 57.9653L43.343 56.1922C43.2714 56.1182 43.2472 56.0106 43.2801 55.9131C43.3129 55.8157 43.3975 55.7447 43.4992 55.7292L45.8653 55.3674C45.9557 55.3531 46.0331 55.2951 46.0721 55.2123L47.1203 52.9784C47.166 52.8829 47.2623 52.8218 47.3682 52.8213C47.4742 52.8208 47.5709 52.8811 47.6174 52.9762Z" fill="#F5F5F5"/>
<path d="M10.1333 14.8484L11.1815 17.0823C11.2214 17.1648 11.299 17.2228 11.3894 17.2374L13.7555 17.5981C13.8575 17.6137 13.9422 17.685 13.9749 17.7829C14.0077 17.8807 13.9828 17.9886 13.9106 18.0623L12.1815 19.8343C12.1211 19.8972 12.0935 19.9845 12.1067 20.0708L12.5126 22.5588C12.5294 22.6625 12.4855 22.7667 12.3997 22.8271C12.3138 22.8876 12.201 22.894 12.1089 22.8436L10.0189 21.6875C9.93589 21.6423 9.83573 21.6423 9.75272 21.6875L7.66275 22.8436C7.57058 22.8941 7.45779 22.8877 7.37193 22.8271C7.28608 22.7665 7.24225 22.6624 7.25901 22.5588L7.66494 20.0708C7.67809 19.9847 7.6505 19.8973 7.59017 19.8343L5.85883 18.0601C5.78793 17.9863 5.76395 17.8791 5.79656 17.7822C5.82918 17.6853 5.91284 17.6143 6.01403 17.5981L8.38012 17.2374C8.47061 17.2228 8.54821 17.1648 8.58804 17.0823L9.63631 14.8484C9.68117 14.7515 9.77811 14.6895 9.88497 14.6895C9.99145 14.6896 10.0885 14.7516 10.1333 14.8484Z" fill="#F5F5F5"/>
<path d="M57.7653 42.3465L58.8135 44.5804C58.8525 44.6632 58.9299 44.7213 59.0203 44.7355L61.3864 45.0963C61.4886 45.1115 61.5736 45.1827 61.6066 45.2806C61.6396 45.3785 61.6148 45.4866 61.5426 45.5605L59.8123 47.3324C59.7517 47.3952 59.7244 47.4828 59.7386 47.5689L60.1445 50.0569C60.1615 50.1609 60.1176 50.2656 60.0315 50.3262C59.9453 50.3868 59.8319 50.3929 59.7397 50.3418L57.6498 49.1857C57.5668 49.1404 57.4666 49.1404 57.3836 49.1857L55.2936 50.3418C55.2014 50.3929 55.0881 50.3869 55.0019 50.3262C54.9157 50.2655 54.8717 50.1609 54.8888 50.0569L55.2948 47.5689C55.3089 47.4827 55.2812 47.3948 55.22 47.3324L53.4897 45.5583C53.4188 45.4844 53.3948 45.3773 53.4274 45.2804C53.46 45.1834 53.5437 45.1124 53.6449 45.0963L56.011 44.7355C56.1016 44.7212 56.1793 44.6632 56.2189 44.5804L57.2672 42.3465C57.3124 42.2497 57.4095 42.188 57.5163 42.188C57.6228 42.1879 57.72 42.2497 57.7653 42.3465Z" fill="#F5F5F5"/>
<path d="M6.01122 29.1277L7.05949 31.3616C7.09933 31.4441 7.17693 31.5021 7.26742 31.5167L9.63351 31.8774C9.73547 31.893 9.82016 31.9643 9.85291 32.0622C9.88565 32.16 9.86077 32.2679 9.78858 32.3416L8.05943 34.1136C7.9991 34.1765 7.97151 34.2639 7.98466 34.3501L8.39059 36.8381C8.40734 36.9418 8.36352 37.046 8.27766 37.1064C8.19181 37.167 8.07902 37.1733 7.98685 37.1229L5.89572 35.9668C5.81271 35.9216 5.71255 35.9216 5.62953 35.9668L3.53956 37.1229C3.44739 37.1734 3.3346 37.167 3.24875 37.1064C3.1629 37.0458 3.11907 36.9417 3.13583 36.8381L3.54059 34.3501C3.55374 34.264 3.52616 34.1766 3.46583 34.1136L1.73667 32.3372C1.66448 32.2635 1.63973 32.1556 1.67235 32.0578C1.70509 31.9599 1.78978 31.8887 1.89175 31.8731L4.25783 31.5123C4.34832 31.4977 4.42593 31.4397 4.46576 31.3572L5.51403 29.1233C5.55966 29.0268 5.65725 28.9657 5.76398 28.9666C5.87072 28.9676 5.96727 29.0304 6.01122 29.1277Z" fill="#F5F5F5"/>
<path d="M61.0111 29.1277L62.0594 31.3616C62.0992 31.4441 62.1768 31.5021 62.2673 31.5167L64.6334 31.8774C64.7353 31.893 64.82 31.9643 64.8528 32.0622C64.8855 32.16 64.8606 32.2679 64.7885 32.3416L63.0593 34.1136C62.999 34.1765 62.9714 34.2639 62.9845 34.3501L63.3905 36.8381C63.4072 36.9418 63.3634 37.046 63.2775 37.1064C63.1917 37.167 63.0789 37.1733 62.9867 37.1229L60.8968 35.9668C60.8137 35.9216 60.7136 35.9216 60.6306 35.9668L58.5406 37.1229C58.4484 37.1734 58.3356 37.167 58.2498 37.1064C58.1639 37.0458 58.1201 36.9417 58.1369 36.8381L58.5428 34.3501C58.5559 34.264 58.5283 34.1766 58.468 34.1136L56.7367 32.3372C56.6645 32.2635 56.6397 32.1556 56.6723 32.0578C56.7051 31.9599 56.7898 31.8887 56.8917 31.8731L59.2578 31.5123C59.3483 31.4977 59.4259 31.4397 59.4658 31.3572L60.514 29.1233C60.5597 29.0268 60.6572 28.9657 60.764 28.9666C60.8706 28.9676 60.9671 29.0304 61.0111 29.1277Z" fill="#F5F5F5"/>
<path d="M10.6177 42.1188L11.6659 44.3527C11.7054 44.4355 11.7832 44.4935 11.8739 44.5078L14.24 44.8686C14.3419 44.8842 14.4266 44.9554 14.4594 45.0533C14.4921 45.1511 14.4672 45.259 14.395 45.3327L12.6659 47.1058C12.6045 47.1677 12.5767 47.2552 12.5911 47.3412L12.997 49.8292C13.014 49.9332 12.9701 50.0379 12.884 50.0984C12.7977 50.1591 12.6844 50.1652 12.5923 50.114L10.5023 48.9591C10.4195 48.9128 10.3189 48.9128 10.2361 48.9591L8.14614 50.114C8.05345 50.1652 7.93963 50.1585 7.85352 50.097C7.76741 50.0355 7.72422 49.9301 7.7424 49.8258L8.14717 47.3378C8.16148 47.2521 8.13415 47.1647 8.07343 47.1025L6.34312 45.3327C6.27093 45.259 6.24618 45.1511 6.27879 45.0533C6.31153 44.9554 6.39623 44.8842 6.49819 44.8686L8.86428 44.5078C8.95464 44.4935 9.03211 44.4355 9.07104 44.3527L10.1193 42.1188C10.1652 42.0228 10.2621 41.9617 10.3685 41.9617C10.475 41.9618 10.5719 42.0229 10.6177 42.1188Z" fill="#F5F5F5"/>
<path d="M58.2502 14.6209L59.2985 16.8548C59.3383 16.9373 59.4159 16.9953 59.5064 17.0098L61.8725 17.3706C61.9745 17.3862 62.0592 17.4575 62.0919 17.5553C62.1246 17.6532 62.0998 17.7611 62.0276 17.8348L60.2984 19.6079C60.238 19.6703 60.2102 19.7574 60.2237 19.8433L60.6296 22.3312C60.6463 22.435 60.6025 22.5391 60.5167 22.5997C60.4308 22.6603 60.318 22.6666 60.2259 22.6162L58.1359 21.4613C58.0531 21.415 57.9524 21.415 57.8697 21.4613L55.7797 22.6162C55.6869 22.6687 55.5722 22.6628 55.4853 22.601C55.3984 22.5393 55.355 22.4329 55.3739 22.328L55.7798 19.84C55.7938 19.7542 55.7659 19.6668 55.7051 19.6047L53.9759 17.8316C53.9037 17.7578 53.879 17.6499 53.9116 17.5521C53.9443 17.4543 54.029 17.383 54.131 17.3674L56.4971 17.0066C56.5877 16.9923 56.6654 16.9343 56.705 16.8516L57.753 14.6175C57.7992 14.5217 57.8964 14.461 58.0027 14.4617C58.1091 14.4624 58.2055 14.5244 58.2502 14.6209Z" fill="#F5F5F5"/>
<path d="M19.6312 51.6167L20.6795 53.8507C20.7189 53.9334 20.7968 53.9914 20.8874 54.0057L23.2535 54.3665C23.3555 54.3821 23.4402 54.4534 23.4729 54.5512C23.5056 54.649 23.4808 54.7569 23.4086 54.8307L21.6794 56.6026C21.6191 56.6655 21.5915 56.7529 21.6046 56.8391L22.0106 59.3271C22.0273 59.4309 21.9835 59.535 21.8977 59.5955C21.8118 59.6561 21.699 59.6624 21.6068 59.612L19.5169 58.4559C19.4339 58.4107 19.3337 58.4107 19.2507 58.4559L17.1585 59.6152C17.0664 59.6657 16.9536 59.6593 16.8677 59.5987C16.7819 59.5381 16.738 59.434 16.7548 59.3303L17.1607 56.8424C17.1739 56.7561 17.1463 56.6687 17.0859 56.6058L15.3568 54.8305C15.2846 54.7568 15.2599 54.6489 15.2925 54.5511C15.3252 54.4533 15.4099 54.382 15.5119 54.3664L17.8779 54.0056C17.9684 53.991 18.046 53.933 18.0859 53.8505L19.1341 51.6166C19.1797 51.5205 19.2765 51.4592 19.3828 51.4592C19.4892 51.4592 19.5857 51.5206 19.6312 51.6167Z" fill="#F5F5F5"/>
<path d="M47.1315 3.9891L48.1797 6.22301C48.2192 6.30577 48.297 6.36377 48.3877 6.37808L50.7538 6.73886C50.8557 6.75446 50.9404 6.82574 50.9732 6.92357C51.0059 7.0214 50.981 7.12929 50.9088 7.20302L49.1797 8.97497C49.1193 9.03787 49.0918 9.12526 49.1049 9.21149L49.5108 11.6995C49.5276 11.8032 49.4838 11.9074 49.3979 11.9678C49.3121 12.0284 49.1993 12.0347 49.1071 11.9843L47.0127 10.8283C46.9297 10.783 46.8296 10.783 46.7466 10.8283L44.6588 11.9887C44.5666 12.0392 44.4538 12.0328 44.368 11.9722C44.2821 11.9116 44.2383 11.8075 44.255 11.7039L44.661 9.21588C44.6741 9.12965 44.6465 9.04225 44.5862 8.97935L42.8568 7.20302C42.7846 7.12929 42.7598 7.0214 42.7925 6.92357C42.8252 6.82574 42.9099 6.75446 43.0119 6.73886L45.3779 6.37924C45.4684 6.36467 45.546 6.30667 45.5859 6.22417L46.6341 3.99026C46.6787 3.89333 46.7757 3.83107 46.8824 3.83081C46.9893 3.83043 47.0865 3.8923 47.1315 3.9891Z" fill="#F5F5F5"/>
<path d="M45.7147 45.4484C42.4121 48.7493 37.9322 50.6013 33.2627 50.5961C32.7677 50.5961 32.2727 50.574 31.7886 50.5301C27.6433 50.1884 23.7534 48.3878 20.8105 45.4484L21.1626 45.0964C21.5826 44.4273 22.1754 43.8839 22.8786 43.5235L27.8066 40.9606C28.5059 40.5485 28.952 39.8133 28.9946 39.0028V36.9349C28.2476 35.6379 27.6988 34.2366 27.3666 32.7772C26.9608 32.3842 26.6455 31.9075 26.4426 31.3803V29.1585L27.2897 27.9267V24.6489C27.2897 24.6489 26.7507 20.5682 31.7777 19.8973C32.266 19.8284 32.7585 19.7953 33.2517 19.7983C39.8627 19.8203 39.2357 24.6489 39.2357 24.6489V27.9267L40.0828 29.1585V31.3803C39.9075 31.9055 39.6139 32.3834 39.2248 32.7772C38.8824 34.2435 38.3107 35.6467 37.5308 36.9349V39.0028C37.5258 39.8272 37.9852 40.5844 38.7188 40.9606L43.6468 43.5235C44.35 43.8839 44.9428 44.4272 45.3628 45.0964L45.7147 45.4484Z" fill="#A4C2F7"/>
<path d="M42.7667 45.4484C39.8239 48.3877 35.934 50.1883 31.7886 50.53C27.6433 50.1883 23.7534 48.3877 20.8105 45.4484L21.1626 45.0964C21.5826 44.4272 22.1754 43.8838 22.8786 43.5234L27.8066 40.9606C28.5059 40.5485 28.952 39.8132 28.9946 39.0027V36.9348C28.2476 35.6379 27.6988 34.2365 27.3666 32.7771C26.9608 32.3841 26.6455 31.9075 26.4426 31.3803V29.1585L27.2897 27.9266V24.6489C27.2897 24.6489 26.7507 20.5681 31.7777 19.8972C36.8158 20.5792 36.2878 24.6489 36.2878 24.6489V27.9266L37.1348 29.1585V31.3803C36.9595 31.9054 36.666 32.3834 36.2768 32.7771C35.9344 34.2435 35.3627 35.6466 34.5828 36.9348V39.0027C34.5778 39.8272 35.0372 40.5843 35.7708 40.9606L40.6988 43.5234C41.402 43.8838 41.9948 44.4271 42.4148 45.0964L42.7667 45.4484Z" fill="#F5F5F5"/>
<path d="M15.6621 32.9973C15.6628 37.6632 17.5234 42.1363 20.8322 45.4264L20.8145 45.4441C20.9454 45.5749 21.0884 45.6927 21.2237 45.8192C21.359 45.9456 21.4723 46.0502 21.5998 46.1623C21.8462 46.3823 22.1004 46.5901 22.3588 46.7937C22.5238 46.9246 22.6888 47.0533 22.8582 47.1787C23.0914 47.3492 23.3312 47.5087 23.5733 47.6703C23.7768 47.8067 23.9814 47.9408 24.1925 48.0674C24.4037 48.194 24.6325 48.3226 24.8635 48.4457C25.0945 48.569 25.3442 48.7064 25.5906 48.8264C25.7996 48.9276 26.0153 49.0188 26.2286 49.1124C26.5014 49.2312 26.772 49.3499 27.0514 49.4555C27.2506 49.5303 27.4552 49.5941 27.6586 49.6623C27.96 49.7635 28.2603 49.8658 28.5694 49.9505C28.7587 50.0033 28.9533 50.0417 29.1458 50.088C29.4758 50.1672 29.8058 50.2475 30.1358 50.308C30.3139 50.341 30.4988 50.3587 30.6791 50.385C30.9904 50.4301 31.2984 50.4873 31.6141 50.5158C31.6602 50.5158 31.7087 50.5158 31.756 50.5224H31.7902C32.2742 50.5664 32.7692 50.5884 33.2642 50.5884C33.8143 50.5884 34.3477 50.5554 34.8812 50.5071C34.5765 50.4774 34.2795 50.4246 33.9793 50.3806C33.7989 50.3542 33.6141 50.3367 33.4359 50.3037C33.1059 50.2442 32.7759 50.1639 32.4459 50.0836C32.2535 50.0375 32.0587 49.9989 31.8696 49.9461C31.5605 49.8614 31.2602 49.7591 30.9587 49.6579C30.7552 49.5897 30.5506 49.5259 30.3516 49.4511C30.0722 49.3412 29.8015 49.2311 29.5288 49.108C29.3154 49.0146 29.0998 48.9232 28.8908 48.822C28.6445 48.7021 28.4046 48.5723 28.1636 48.4414C27.9227 48.3105 27.7126 48.195 27.4927 48.063C27.2726 47.931 27.0768 47.8024 26.8734 47.6659C26.6314 47.5065 26.3915 47.3447 26.1584 47.1743C25.989 47.0489 25.8284 46.9202 25.659 46.7893C25.4005 46.5857 25.1463 46.3756 24.9 46.1579C24.7723 46.048 24.6481 45.9303 24.5238 45.8148C24.3995 45.6993 24.2455 45.5707 24.1147 45.4397L24.1323 45.4266C19.3089 40.6152 17.6991 33.4509 20.0007 27.0389C22.3024 20.6269 28.1014 16.1216 34.8837 15.4758C34.3458 15.4318 33.8123 15.3988 33.2623 15.3988C32.7113 15.3965 32.1607 15.4222 31.6123 15.4758C22.5689 16.3228 15.6577 23.9151 15.6621 32.9973Z" fill="white"/>
<path d="M38.7051 4.11105C38.5738 3.71933 38.2339 3.43421 37.8251 3.37298L35.3654 2.99789L34.2577 0.631983C34.0765 0.246194 33.6885 0 33.2623 0C32.836 0 32.4481 0.246194 32.2668 0.631983L31.1557 2.99789L28.696 3.37298C28.2883 3.43511 27.9497 3.71997 27.8187 4.11105C27.6877 4.50199 27.7865 4.93341 28.0744 5.22858L29.8873 7.08638L29.4571 9.72619C29.389 10.1423 29.5647 10.5607 29.9096 10.8034C30.2544 11.0461 30.7076 11.0703 31.0763 10.8658L33.262 9.65259L35.4478 10.8626C35.6114 10.9523 35.7948 10.9996 35.9813 11.0001C36.304 11.0001 36.6104 10.8584 36.8195 10.6126C37.0285 10.3668 37.1191 10.0416 37.0671 9.7231L36.637 7.08329L38.4498 5.22549C38.7365 4.9307 38.8348 4.50096 38.7051 4.11105ZM34.6746 5.9468C34.431 6.1966 34.3204 6.5472 34.3764 6.89162L34.5305 7.83978L33.7946 7.43285C33.4633 7.24969 33.0611 7.24969 32.7298 7.43285L31.9939 7.83978L32.1479 6.89162C32.2041 6.5472 32.0934 6.1966 31.8497 5.9468L31.1446 5.2242L32.0686 5.08345C32.4312 5.02789 32.7423 4.79523 32.898 4.46306L33.2622 3.69316L33.6263 4.46306C33.7821 4.79523 34.0931 5.02789 34.4557 5.08345L35.3797 5.2242L34.6746 5.9468Z" fill="#428DFF"/>
<path d="M38.7047 59.1071C38.5734 58.7154 38.2334 58.4303 37.8247 58.3691L35.365 57.994L34.2539 55.6281C34.0726 55.2423 33.6847 54.9961 33.2584 54.9961C32.8321 54.9961 32.4442 55.2423 32.2629 55.6281L31.1518 57.994L28.6921 58.3691C28.2844 58.4312 27.9458 58.7161 27.8148 59.1071C27.6838 59.4981 27.7826 59.9295 28.0705 60.2247L29.8834 62.0825L29.4532 64.7223C29.3851 65.1384 29.5608 65.5568 29.9057 65.7995C30.2505 66.0422 30.7037 66.0663 31.0724 65.8619L33.2614 64.6487L35.4471 65.8586C35.6107 65.9484 35.7941 65.9957 35.9807 65.9962C36.3033 65.9962 36.6097 65.8545 36.8188 65.6087C37.0278 65.3629 37.1184 65.0377 37.0664 64.7192L36.6363 62.0794L38.4491 60.2216C38.736 59.9268 38.8344 59.4971 38.7047 59.1071ZM34.6742 60.9429C34.4306 61.1927 34.3199 61.5433 34.376 61.8877L34.5301 62.8359L33.7941 62.4289C33.4628 62.2458 33.0607 62.2458 32.7294 62.4289L31.9934 62.8359L32.1475 61.8877C32.2037 61.5433 32.093 61.1927 31.8493 60.9429L31.1442 60.2203L32.0682 60.0795C32.4308 60.024 32.7419 59.7913 32.8976 59.4592L33.2618 58.6893L33.6259 59.4592C33.7816 59.7913 34.0927 60.024 34.4553 60.0795L35.3793 60.2203L34.6742 60.9429Z" fill="#428DFF"/>
<path d="M24.4338 7.09191L21.9731 6.71579L20.8632 4.35092C20.6821 3.96448 20.2938 3.71777 19.8671 3.71777C19.4404 3.71777 19.0522 3.96461 18.8711 4.35092L17.7612 6.71579L15.3015 7.09191C14.8936 7.15366 14.5546 7.43852 14.4234 7.82959C14.2922 8.22067 14.3908 8.65221 14.6789 8.94752L16.4917 10.8053L16.0615 13.4451C15.9937 13.8609 16.1693 14.2788 16.5137 14.5214C16.8582 14.764 17.3109 14.7885 17.6796 14.5846L19.8663 13.3746L22.0553 14.5846C22.4239 14.7878 22.8762 14.763 23.2202 14.5205C23.5643 14.2781 23.7399 13.8606 23.6723 13.4451L23.2422 10.8053L25.0538 8.94868C25.3418 8.65376 25.4407 8.22247 25.31 7.83153C25.1792 7.44058 24.8409 7.15559 24.4334 7.09307V7.09191H24.4338ZM21.279 9.66573C21.0354 9.91553 20.9248 10.2661 20.9809 10.6105L21.1371 11.5597L20.399 11.1517C20.2359 11.0619 20.0527 11.0149 19.8666 11.0153C19.6806 11.0148 19.4977 11.0622 19.3352 11.1528L18.5983 11.5597L18.7534 10.6105C18.8092 10.266 18.6982 9.91541 18.4542 9.66573L17.7524 8.94313L18.6731 8.79903C19.0361 8.74386 19.3476 8.51107 19.5036 8.17865L19.8666 7.40874L20.2308 8.17865C20.3865 8.51081 20.6975 8.74347 21.0602 8.79903L21.9842 8.93978L21.279 9.66573Z" fill="#428DFF"/>
<path d="M52.8109 55.4577C52.6795 55.0659 52.3396 54.7808 51.9308 54.7196L49.4701 54.3445L48.3603 51.9786C48.1791 51.5922 47.791 51.3455 47.3642 51.3455C46.9374 51.3455 46.5492 51.5923 46.3681 51.9786L45.2582 54.3445L42.7986 54.7196C42.3907 54.7813 42.0517 55.0662 41.9205 55.4573C41.7892 55.8484 41.8878 56.2799 42.1759 56.5752L43.9888 58.433L43.5586 61.0728C43.4908 61.4886 43.6664 61.9065 44.0108 62.1491C44.3552 62.3917 44.808 62.4162 45.1766 62.2123L47.3634 61.0023L49.5524 62.2123C49.9212 62.4158 50.3738 62.3908 50.718 62.1479C51.0621 61.9052 51.2375 61.4872 51.1694 61.0715L50.7392 58.4317L52.5509 56.5739C52.8402 56.28 52.9403 55.8491 52.8109 55.4577ZM48.7793 57.2934C48.5353 57.5435 48.4247 57.8946 48.4812 58.2394L48.6374 59.1876L47.8993 58.7795C47.7362 58.6898 47.553 58.6427 47.3669 58.6431C47.1809 58.6426 46.998 58.69 46.8355 58.7806L46.0986 59.1876L46.2537 58.2384C46.3095 57.8938 46.1985 57.5432 45.9545 57.2935L45.2493 56.572L46.1733 56.4312C46.5363 56.3761 46.8479 56.1433 47.0039 55.8108L47.3669 55.0409L47.7311 55.8108C47.8868 56.143 48.1978 56.3757 48.5604 56.4312L49.4844 56.572L48.7793 57.2934Z" fill="#428DFF"/>
<path d="M10.8793 13.8488C10.6979 13.463 10.3101 13.2168 9.88377 13.2168C9.45748 13.2168 9.0696 13.463 8.88822 13.8488L7.77717 16.2147L5.32201 16.5898C4.91428 16.6519 4.57564 16.9368 4.44467 17.3278C4.3137 17.7188 4.41245 18.1502 4.70043 18.4454L6.51324 20.302L6.08205 22.9418C6.01424 23.3577 6.18982 23.7755 6.53438 24.0181C6.87882 24.2607 7.33154 24.2852 7.70022 24.0813L9.88815 22.8713L12.0739 24.0813C12.4426 24.2858 12.8958 24.2616 13.2406 24.0189C13.5855 23.7762 13.7612 23.3578 13.6931 22.9417L13.2629 20.3019L15.0758 18.4441C15.3637 18.1489 15.4625 17.7176 15.3315 17.3266C15.2005 16.9356 14.8619 16.6506 14.4542 16.5885L11.9945 16.2134L10.8793 13.8488ZM11.2962 19.1636C11.0526 19.4134 10.942 19.764 10.998 20.1084L11.1521 21.0576L10.4162 20.6495C10.0851 20.4667 9.68345 20.4667 9.35242 20.6495L8.61546 21.0576L8.7695 20.1094C8.82596 19.7646 8.71536 19.4135 8.47134 19.1635L7.76622 18.4409L8.69022 18.3001C9.05284 18.2446 9.36389 18.0119 9.51961 17.6797L9.88377 16.9043L10.2479 17.6797C10.4037 18.0119 10.7147 18.2446 11.0773 18.3001L12.0013 18.4409L11.2962 19.1636Z" fill="#428DFF"/>
<path d="M52.0727 44.8257C51.9416 45.2167 52.0401 45.6479 52.328 45.9432L54.1396 47.801L53.7106 50.4409C53.6426 50.8569 53.8183 51.2753 54.1631 51.518C54.5079 51.7608 54.9612 51.7849 55.3298 51.5804L57.5156 50.3705L59.7035 51.5804C60.0723 51.7842 60.5252 51.7595 60.8695 51.5166C61.2137 51.2742 61.3892 50.8564 61.3216 50.4409L60.8904 47.801L62.7032 45.9444C62.9912 45.6492 63.0899 45.2179 62.9589 44.8269C62.828 44.4359 62.4893 44.1509 62.0816 44.0888L59.6219 43.7137L58.5109 41.3478C58.3295 40.962 57.9416 40.7158 57.5153 40.7158C57.089 40.7158 56.7011 40.962 56.5198 41.3478L55.4099 43.7137L52.948 44.0888C52.5416 44.1513 52.2037 44.4357 52.0727 44.8257ZM56.3231 45.798C56.6857 45.7424 56.9967 45.5098 57.1524 45.1776L57.5155 44.4077L57.8796 45.1776C58.0353 45.5098 58.3464 45.7424 58.709 45.798L59.633 45.9387L58.9279 46.6613C58.6839 46.9114 58.5733 47.2625 58.6297 47.6073L58.7838 48.5555L58.0468 48.1474C57.8841 48.0574 57.7013 48.0101 57.5155 48.0099C57.3289 48.0101 57.1454 48.0574 56.9819 48.1474L56.2471 48.5555L56.4012 47.6063C56.4574 47.2619 56.3467 46.9113 56.103 46.6615L55.3979 45.9399L56.3231 45.798Z" fill="#428DFF"/>
<path d="M1.19604 30.8711C0.788305 30.9333 0.449667 31.2181 0.318697 31.6092C0.187728 32.0003 0.286471 32.4316 0.574449 32.7267L2.38727 34.5845L1.9571 37.2243C1.88904 37.6404 2.06474 38.0588 2.40957 38.3015C2.75439 38.5443 3.20763 38.5684 3.5763 38.3639L5.76205 37.1507L7.94779 38.3607C8.11138 38.45 8.29481 38.4969 8.48134 38.4971C8.80399 38.4971 9.11041 38.3554 9.31949 38.1096C9.52845 37.8638 9.61907 37.5386 9.56712 37.2201L9.13696 34.5803L10.9498 32.7225C11.2378 32.4273 11.3365 31.996 11.2055 31.6049C11.0746 31.214 10.7359 30.929 10.3282 30.8669L7.86852 30.4918L6.75747 28.1259C6.5761 27.7401 6.18822 27.4939 5.76192 27.4939C5.33563 27.4939 4.94774 27.7402 4.76637 28.1259L3.65532 30.4918L1.19604 30.8711ZM5.39815 31.9611L5.76231 31.1912L6.12647 31.9611C6.28219 32.2933 6.59324 32.5259 6.95586 32.5815L7.87986 32.7222L7.17474 33.4448C6.93111 33.6946 6.8205 34.0452 6.87658 34.3896L7.03062 35.3378L6.29469 34.9309C5.9634 34.7477 5.56121 34.7477 5.22992 34.9309L4.49399 35.3378L4.64804 34.3896C4.70424 34.0452 4.59351 33.6946 4.34987 33.4448L3.64475 32.7222L4.56876 32.5815C4.93137 32.5259 5.24243 32.2933 5.39815 31.9611Z" fill="#428DFF"/>
<path d="M66.2057 31.6091C66.0743 31.2174 65.7344 30.9323 65.3256 30.871L62.866 30.4959L61.7549 28.13C61.5736 27.7442 61.1857 27.498 60.7594 27.498C60.3331 27.498 59.9452 27.7444 59.7638 28.13L58.6528 30.4959L56.1931 30.871C55.7854 30.9332 55.4467 31.218 55.3158 31.6091C55.1848 32.0002 55.2835 32.4315 55.5715 32.7266L57.3843 34.5844L56.9542 37.2242C56.8861 37.6403 57.0618 38.0587 57.4066 38.3014C57.7515 38.5441 58.2047 38.5683 58.5734 38.3638L60.7623 37.1506L62.9481 38.3606C63.1117 38.4503 63.2951 38.4976 63.4816 38.4981C63.8043 38.4981 64.1107 38.3565 64.3198 38.1107C64.5289 37.8649 64.6194 37.5397 64.5674 37.2211L64.1372 34.5813L65.9501 32.7235C66.237 32.4288 66.3355 31.999 66.2057 31.6091ZM62.1753 33.445C61.9317 33.6948 61.8211 34.0454 61.8771 34.3898L62.0312 35.338L61.2952 34.931C60.964 34.7479 60.5618 34.7479 60.2305 34.931L59.4945 35.338L59.6486 34.3898C59.7048 34.0454 59.5941 33.6948 59.3504 33.445L58.6453 32.7224L59.5693 32.5816C59.9319 32.5261 60.243 32.2934 60.3987 31.9612L60.7629 31.1913L61.127 31.9612C61.2827 32.2934 61.5938 32.5261 61.9564 32.5816L62.8804 32.7224L62.1753 33.445Z" fill="#428DFF"/>
<path d="M14.9359 43.8635L12.473 43.4873L11.362 41.1214C11.1809 40.735 10.7926 40.4883 10.3659 40.4883C9.93924 40.4883 9.55098 40.7351 9.36986 41.1214L8.2632 43.4873L5.80249 43.8624C5.39502 43.9249 5.05664 44.2099 4.92593 44.6009C4.79521 44.9918 4.89409 45.423 5.18206 45.718L6.99372 47.5758L6.56472 50.2156C6.49898 50.6307 6.67532 51.0469 7.01937 51.2883C7.36343 51.5296 7.81486 51.5538 8.18276 51.3508L10.3707 50.1409L12.5586 51.3508C12.9274 51.5542 13.38 51.5294 13.7242 51.2865C14.0684 51.0438 14.2437 50.6258 14.1756 50.2101L13.7455 47.5703L15.5528 45.718C15.8401 45.423 15.9386 44.9922 15.8079 44.6016C15.6771 44.2111 15.3393 43.9262 14.9323 43.8635H14.9359ZM11.7822 46.4373C11.5382 46.6869 11.4272 47.0375 11.483 47.3821L11.6381 48.3303L10.9011 47.9222C10.5701 47.7394 10.1684 47.7394 9.83741 47.9222L9.10045 48.3291L9.25552 47.3809C9.31134 47.0364 9.20035 46.6858 8.95633 46.4361L8.25224 45.7135L9.1774 45.5728C9.53963 45.5168 9.85017 45.2843 10.0058 44.9524L10.3699 44.1825L10.7341 44.9524C10.8899 45.2838 11.2005 45.5159 11.5624 45.5716L12.4864 45.7135L11.7822 46.4373Z" fill="#428DFF"/>
<path d="M62.5661 16.3654L60.101 15.9893L59.0011 13.6234C58.8199 13.2369 58.4317 12.9902 58.005 12.9902C57.5783 12.9902 57.19 13.2371 57.0089 13.6234L55.8979 15.9893L53.4382 16.3654C53.031 16.4278 52.6929 16.7125 52.5619 17.1031C52.4311 17.4936 52.5293 17.9247 52.8167 18.2198L54.6296 20.0776L54.1984 22.7175C54.1337 23.1311 54.3094 23.5456 54.6515 23.7867C54.9937 24.0278 55.4432 24.0537 55.8109 23.8537L57.9988 22.6437L60.1867 23.8537C60.5553 24.057 61.0076 24.0321 61.3517 23.7896C61.6957 23.5472 61.8713 23.1297 61.8037 22.7142L61.3747 20.0744L63.1864 18.2166C63.4737 17.9216 63.5722 17.4908 63.4415 17.1002C63.3108 16.7097 62.9729 16.4248 62.566 16.3621V16.3654H62.5661ZM59.4114 18.9392C59.1677 19.189 59.0571 19.5396 59.1132 19.884L59.2683 20.8322L58.5313 20.4253C58.2003 20.2425 57.7986 20.2425 57.4676 20.4253L56.7306 20.8334L56.8857 19.8852C56.9415 19.5407 56.8305 19.1901 56.5865 18.9404L55.8814 18.2178L56.8054 18.0759C57.1677 18.0206 57.4788 17.7883 57.6348 17.4566L57.9989 16.6867L58.3631 17.4622C58.5191 17.794 58.8301 18.0261 59.1925 18.0814L60.1165 18.2233L59.4114 18.9392Z" fill="#428DFF"/>
<path d="M24.8251 54.0994C24.6937 53.7077 24.3538 53.4225 23.945 53.3613L21.4921 52.9852L20.381 50.6193C20.1996 50.2335 19.8118 49.9873 19.3855 49.9873C18.9592 49.9873 18.5713 50.2336 18.3899 50.6193L17.2789 52.9852L14.8182 53.3613C14.4112 53.4241 14.0733 53.709 13.9426 54.0995C13.8119 54.4901 13.9104 54.9208 14.1977 55.2159L16.0094 57.0737L15.5804 59.7135C15.5136 60.1294 15.6905 60.5471 16.0356 60.7888C16.3808 61.0304 16.8336 61.0536 17.2018 60.8486L19.3875 59.6386L21.5755 60.8486C21.7379 60.9391 21.9208 60.9865 22.1068 60.9861C22.4297 60.9865 22.7364 60.845 22.9457 60.599C23.155 60.3531 23.2457 60.0277 23.1936 59.7091L22.7624 57.0693L24.5719 55.2159C24.8587 54.9202 24.9563 54.4894 24.8251 54.0994ZM20.7947 55.9351C20.551 56.1849 20.4404 56.5355 20.4965 56.88L20.6506 57.8281L19.9136 57.4212C19.7512 57.3306 19.5682 57.2833 19.3822 57.2837C19.1956 57.2835 19.012 57.3308 18.8487 57.4212L18.1139 57.8281L18.268 56.8789C18.3238 56.5349 18.2132 56.1848 17.9698 55.9351L17.2647 55.2114L18.1887 55.0706C18.5513 55.0151 18.8624 54.7824 19.0181 54.4502L19.3822 53.6803L19.7464 54.4502C19.9021 54.7824 20.2132 55.0151 20.5758 55.0706L21.4998 55.2114L20.7947 55.9351Z" fill="#428DFF"/>
<path d="M51.4475 5.73236L48.9912 5.35726L47.8769 2.99136C47.6955 2.60557 47.3076 2.35938 46.8813 2.35938C46.455 2.35938 46.0672 2.60557 45.8858 2.99136L44.7747 5.35726L42.314 5.73236C41.9061 5.79448 41.5673 6.07973 41.4366 6.47119C41.3059 6.86253 41.4051 7.2942 41.6937 7.58912L43.5054 9.44691L43.0764 12.0867C43.0092 12.5036 43.1865 12.922 43.5327 13.1637C43.879 13.4053 44.333 13.4275 44.701 13.2208L46.8868 12.0108L49.0747 13.2208C49.2371 13.3113 49.42 13.3587 49.606 13.3583C49.929 13.3587 50.2356 13.2172 50.445 12.9712C50.6542 12.7253 50.7449 12.3999 50.6929 12.0813L50.2617 9.4415L52.0711 7.58925C52.3591 7.29407 52.4579 6.86278 52.3269 6.47171C52.1959 6.08076 51.8573 5.79577 51.4495 5.73364L51.4475 5.73236ZM48.2938 8.30617C48.0498 8.55624 47.9392 8.90735 47.9956 9.25215L48.1497 10.1992L47.4127 9.79223C47.25 9.70226 47.0672 9.65495 46.8813 9.6547C46.6962 9.65457 46.514 9.70071 46.3511 9.78888L45.6164 10.1958L45.7704 9.24764C45.8265 8.90323 45.7159 8.55263 45.4723 8.30282L44.7639 7.58899L45.6879 7.44824C46.0505 7.39268 46.3616 7.16002 46.5173 6.82785L46.8815 6.05795L47.2456 6.8334C47.4014 7.16556 47.7124 7.39822 48.075 7.45378L48.999 7.59453L48.2938 8.30617Z" fill="#428DFF"/>
<path d="M14.5615 32.9973C14.5615 43.3243 22.9339 51.696 33.2617 51.696C43.5894 51.696 51.9618 43.3243 51.9618 32.9973C51.9618 22.6703 43.5894 14.2986 33.2617 14.2986C22.9387 14.3101 14.573 22.675 14.5615 32.9973ZM22.3716 45.3548C22.6511 45.0049 22.9963 44.713 23.388 44.4957L28.3227 41.9372C29.3812 41.3326 30.0539 40.226 30.1036 39.0082V36.9337C30.1031 36.7286 30.0459 36.5277 29.9386 36.3529C29.2537 35.1593 28.7481 33.8714 28.4382 32.5307C28.386 32.2571 28.2217 32.0177 27.985 31.8707C27.8054 31.6511 27.6574 31.4075 27.545 31.147V29.5015L28.205 28.5523C28.3321 28.3687 28.4002 28.1508 28.3997 27.9275V24.6464C28.3995 24.6016 28.3966 24.5567 28.3909 24.5123C28.3308 23.6869 28.5981 22.871 29.1346 22.241C30.2574 21.2362 31.7504 20.749 33.2497 20.898C34.7584 20.7452 36.2617 21.2338 37.3924 22.2443C37.9282 22.8708 38.1971 23.6822 38.1414 24.5047C38.1349 24.5517 38.1315 24.5991 38.1315 24.6466V27.9277C38.1311 28.1509 38.1991 28.3689 38.3262 28.5524L38.9862 29.5016V31.168C38.8919 31.407 38.7733 31.6355 38.6319 31.85C38.3907 32.0047 38.2194 32.2474 38.1546 32.5264C37.838 33.8675 37.3159 35.1517 36.6069 36.3333C36.491 36.5122 36.4292 36.7208 36.4288 36.9338V39.0083C36.4263 40.2427 37.1147 41.3749 38.2119 41.9407L43.1268 44.4893C43.5233 44.7076 43.8731 45.0018 44.1564 45.3549C37.942 50.8764 28.5795 50.8764 22.3653 45.3549H22.3716V45.3548ZM33.2617 16.4983C39.7198 16.4893 45.5876 20.2536 48.2715 26.1272C50.9553 32.0008 49.96 38.9005 45.7258 43.7765C45.2768 43.2775 44.7446 42.8603 44.1527 42.5434L39.2248 39.9873C38.8594 39.7968 38.629 39.4204 38.6252 39.0083V37.2407C39.3235 36.0236 39.8569 34.719 40.2114 33.3613C40.6077 32.8832 40.9147 32.3377 41.1178 31.751C41.1608 31.6306 41.1827 31.5038 41.1826 31.3759V29.1585C41.1831 28.9347 41.1148 28.7162 40.9868 28.5327L40.3268 27.5845V24.6994C40.4273 23.289 39.9726 21.8953 39.0596 20.8156C37.8353 19.4176 35.8817 18.7049 33.245 18.6982C30.6084 18.6917 28.6701 19.4164 27.448 20.8134C26.5363 21.8949 26.084 23.2899 26.1874 24.7006V27.5845L25.5274 28.5327C25.3994 28.7162 25.331 28.9347 25.3316 29.1585V31.3759C25.3314 31.5185 25.3592 31.6596 25.4129 31.7917C25.6381 32.3671 25.9595 32.9001 26.3633 33.3679C26.7074 34.7142 27.2201 36.0117 27.8891 37.2298V39.0083C27.8415 39.4065 27.6226 39.7639 27.2895 39.9873L22.3472 42.5501C21.7639 42.8668 21.2397 43.2818 20.7974 43.7766C16.5622 38.9011 15.5664 32.0007 18.2503 26.1267C20.9343 20.2527 26.8032 16.4884 33.2617 16.4983Z" fill="#428DFF"/>
</svg>
