<svg width="66" height="66" viewBox="0 0 66 66" fill="none" xmlns="http://www.w3.org/2000/svg">
<path d="M49.4896 47.3035V53.189C48.1468 53.8199 47.2896 55.1704 47.29 56.6543C47.285 57.5089 47.5721 58.3395 48.1039 59.0085C46.3461 60.2439 44.3785 61.1497 42.2971 61.6818C36.7534 63.1648 31.0325 63.8793 25.2946 63.8049C11.9323 63.8049 1.09961 60.3946 1.09961 56.7423V47.3034C1.09961 43.6621 11.9323 40.7028 25.2946 40.7028C30.466 40.6515 35.6281 41.1568 40.6915 42.21H40.7024C46.0693 43.4202 49.4896 45.2573 49.4896 47.3035Z" fill="#F5F5F5"/>
<path d="M49.4897 48.4038C49.4897 52.0451 38.657 55.0044 25.2947 55.0044C24.7338 55.0044 24.1839 55.0044 23.6451 54.9824C11.0526 54.7623 1.09961 51.8911 1.09961 48.4038C1.09961 44.9165 11.0526 42.0452 23.6449 41.8253C24.1838 41.8032 24.7337 41.8032 25.2946 41.8032C38.657 41.8032 49.4897 44.7624 49.4897 48.4038Z" fill="#A4C2F7"/>
<path d="M23.6449 54.9823C36.0964 54.9823 46.1903 52.037 46.1903 48.4038C46.1903 44.7705 36.0964 41.8252 23.6449 41.8252C11.1935 41.8252 1.09961 44.7705 1.09961 48.4038C1.09961 52.037 11.1935 54.9823 23.6449 54.9823Z" fill="#F5F5F5"/>
<path d="M25.2946 24.2014C11.9323 24.2014 1.09961 27.1607 1.09961 30.802V40.2409C1.09961 43.8933 11.9323 47.3036 25.2946 47.3036C38.6569 47.3036 49.4896 43.8933 49.4896 40.2409V30.802C49.4896 27.1607 38.6569 24.2014 25.2946 24.2014Z" fill="#F5F5F5"/>
<path d="M49.4897 30.802C49.4897 34.4433 38.657 37.4026 25.2947 37.4026C24.7338 37.4026 24.1839 37.4026 23.6451 37.3806C11.0526 37.1607 1.09961 34.2894 1.09961 30.802C1.09961 27.3147 11.0526 24.4434 23.6449 24.2235C24.1838 24.2014 24.7337 24.2014 25.2946 24.2014C38.657 24.2014 49.4897 27.1607 49.4897 30.802Z" fill="#A4C2F7"/>
<path d="M23.6449 37.3805C36.0964 37.3805 46.1903 34.4352 46.1903 30.802C46.1903 27.1687 36.0964 24.2234 23.6449 24.2234C11.1935 24.2234 1.09961 27.1687 1.09961 30.802C1.09961 34.4352 11.1935 37.3805 23.6449 37.3805Z" fill="#F5F5F5"/>
<path d="M49.4896 13.2005V22.6393C49.4896 24.0585 47.862 25.4336 45.0905 26.5887C40.7134 28.426 33.4769 29.702 25.2946 29.702C11.9323 29.702 1.09961 26.2917 1.09961 22.6393V13.2005C1.09961 9.55917 11.9323 6.59985 25.2946 6.59985C38.6569 6.59985 49.4896 9.55917 49.4896 13.2005Z" fill="#F5F5F5"/>
<path d="M49.4897 13.2005C49.4856 13.5925 49.367 13.9749 49.1488 14.3005C48.101 15.5902 46.6856 16.5303 45.0907 16.9958C40.7135 18.6899 33.477 19.8011 25.2947 19.8011C24.7338 19.8011 24.1839 19.8011 23.6451 19.779C11.0526 19.5591 1.09961 16.6878 1.09961 13.2005C1.09961 9.7131 11.0526 6.84183 23.6451 6.6219C24.1839 6.59985 24.7338 6.59985 25.2947 6.59985C38.657 6.59985 49.4897 9.55917 49.4897 13.2005Z" fill="#A4C2F7"/>
<path d="M23.6449 19.779C36.0964 19.779 46.1903 16.8336 46.1903 13.2004C46.1903 9.56715 36.0964 6.62183 23.6449 6.62183C11.1935 6.62183 1.09961 9.56715 1.09961 13.2004C1.09961 16.8336 11.1935 19.779 23.6449 19.779Z" fill="#F5F5F5"/>
<path d="M49.4909 14.3005V22.6394C49.4909 24.0585 47.8632 25.4337 45.0918 26.5888V16.9958C46.6867 16.5304 48.1022 15.5902 49.15 14.3005H49.4909Z" fill="#A4C2F7"/>
<path d="M57.1892 5.79789V38.8009L53.8898 38.659L46.1915 38.329V29.9352C46.1897 29.7862 46.2493 29.643 46.3564 29.5392L49.1058 26.789C49.3154 26.5751 49.3154 26.2328 49.1058 26.019L46.5763 23.4887C46.3667 23.2748 46.3667 22.9325 46.5763 22.7187L49.1058 20.1884C49.3154 19.9745 49.3154 19.6322 49.1058 19.4184L46.5763 16.8881C46.3667 16.6742 46.3667 16.3319 46.5763 16.118L49.1058 13.5878C49.3154 13.3739 49.3154 13.0316 49.1058 12.8177L46.3564 10.0674C46.2492 9.96388 46.1894 9.82052 46.1915 9.67136V7.75602C46.1893 7.23868 46.3683 6.73706 46.6973 6.33805L50.3045 1.91448C50.3237 1.88651 50.3459 1.86073 50.3705 1.83752H50.3815C51.1464 0.955333 52.4767 0.848202 53.3729 1.59657L53.6698 1.83752L56.3643 4.03777C56.888 4.47209 57.1903 5.11746 57.1892 5.79789Z" fill="#A4C2F7"/>
<path d="M53.8898 5.79777V38.6589L46.1915 38.3289V29.9351C46.1897 29.7861 46.2493 29.6429 46.3564 29.5391L49.1058 26.7889C49.3154 26.575 49.3154 26.2327 49.1058 26.0188L46.5763 23.4886C46.3667 23.2747 46.3667 22.9324 46.5763 22.7185L49.1058 20.1883C49.3154 19.9744 49.3154 19.6321 49.1058 19.4182L46.5763 16.888C46.3667 16.6741 46.3667 16.3318 46.5763 16.1179L49.1058 13.5877C49.3154 13.3738 49.3154 13.0315 49.1058 12.8176L46.3564 10.0673C46.2492 9.96376 46.1894 9.8204 46.1915 9.67125V7.75591C46.1893 7.23856 46.3683 6.73694 46.6973 6.33794L50.3045 1.91437C50.3237 1.88639 50.3459 1.86061 50.3705 1.8374H50.3815L53.0649 4.03765C53.5886 4.47197 53.8911 5.11734 53.8898 5.79777Z" fill="#F5F5F5"/>
<path d="M51.1398 64.9052C58.7321 64.9052 64.887 58.7486 64.887 51.1539C64.887 43.5592 58.7321 37.4026 51.1398 37.4026C43.5475 37.4026 37.3926 43.5592 37.3926 51.1539C37.3926 58.7486 43.5475 64.9052 51.1398 64.9052ZM51.1398 52.8041C53.2657 52.8041 54.9891 54.528 54.9891 56.6545C54.9891 58.781 53.2657 60.5049 51.1398 60.5049C49.0139 60.5049 47.2905 58.781 47.2905 56.6545C47.2905 54.528 49.0139 52.8041 51.1398 52.8041Z" fill="#F0C419"/>
<path d="M51.1414 37.4026C47.1268 37.4001 43.3126 39.157 40.7046 42.2101H40.6936C36.4932 47.1171 36.2738 54.2873 40.1664 59.4422C44.0589 64.5971 51.0137 66.3465 56.8809 63.6468C62.7482 60.9472 65.9457 54.5261 64.5655 48.2152C63.1852 41.9043 57.5996 37.4053 51.1414 37.4026ZM51.1414 60.5047C49.9509 60.5103 48.827 59.9563 48.106 59.0086C47.5744 58.3397 47.2872 57.5091 47.2921 56.6545C47.2918 55.1705 48.1489 53.8201 49.4917 53.1891C50.0033 52.9317 50.5688 52.7997 51.1414 52.8041C53.2673 52.8041 54.9907 54.528 54.9907 56.6545C54.9907 58.781 53.2673 60.5047 51.1414 60.5047Z" fill="#F5F5F5"/>
<path d="M64.8871 51.1539C64.8871 43.5593 58.7323 37.4026 51.1399 37.4026C50.5885 37.4021 50.0376 37.4351 49.4902 37.5016C56.3956 38.3351 61.5908 44.1963 61.5908 51.1539C61.5908 58.1115 56.3956 63.9728 49.4902 64.8062C50.0376 64.8727 50.5885 64.9057 51.1399 64.9052C58.7322 64.9052 64.8871 58.7485 64.8871 51.1539Z" fill="#A4C2F7"/>
<path d="M4.39834 56.7424V47.3035C4.39834 46.0329 5.71807 44.847 8.00337 43.8394C5.71807 42.759 4.39834 41.5148 4.39834 40.2409V30.802C4.39976 30.5894 4.43688 30.3785 4.50828 30.1783C4.5106 30.1678 4.51343 30.1575 4.51704 30.1475C4.59759 29.938 4.70559 29.74 4.83821 29.559C4.84916 29.5436 4.8569 29.5271 4.86901 29.5117C5.01903 29.3111 5.18735 29.1246 5.37164 28.955C5.39149 28.9363 5.41018 28.9164 5.43106 28.8977C5.64487 28.7068 5.87118 28.5303 6.10858 28.3697L6.19544 28.3092C6.45062 28.1387 6.7321 27.9726 7.03677 27.8098L7.15444 27.7471C7.46388 27.5865 7.79381 27.43 8.14423 27.2774L8.28935 27.2157C8.61928 27.076 8.9701 26.9408 9.33856 26.8088C6.24055 25.6075 4.39834 24.1443 4.39834 22.6394V13.2005C4.39976 12.9879 4.43688 12.777 4.50828 12.5768C4.5106 12.5664 4.51343 12.5561 4.51704 12.546C4.59759 12.3365 4.70559 12.1385 4.83821 11.9575C4.84916 11.9422 4.8569 11.9257 4.86901 11.9102C5.01903 11.7096 5.18735 11.5232 5.37164 11.3535C5.39149 11.3348 5.41018 11.315 5.43106 11.2963C5.64487 11.1054 5.87118 10.9289 6.10858 10.7682L6.19544 10.7078C6.45062 10.5372 6.7321 10.3712 7.03677 10.2083L7.14786 10.1457C7.4573 9.98506 7.78724 9.82855 8.13766 9.67591L8.28278 9.61429C8.64274 9.4632 9.02294 9.31649 9.42324 9.17429L9.59039 9.11602C9.99804 8.97524 10.4258 8.83885 10.8738 8.70684L11.0475 8.65733C11.5072 8.52532 11.9834 8.39769 12.4772 8.27664L12.6465 8.23925C13.1597 8.11678 13.6906 7.99985 14.239 7.88833L14.3489 7.86745C18.5304 7.08118 22.7726 6.66297 27.0271 6.61772C26.4544 6.60598 25.8767 6.60005 25.2938 6.60005C20.5168 6.56589 15.7476 6.99016 11.0516 7.86732L10.9417 7.8882C10.3918 7.99972 9.86027 8.11665 9.34707 8.23912L9.18429 8.27767C8.68824 8.39872 8.21215 8.52635 7.75463 8.65836L7.5809 8.70787C7.13369 8.83988 6.70581 8.97627 6.29752 9.11705L6.13036 9.17532C5.72851 9.31765 5.34844 9.46423 4.9899 9.61532L4.84478 9.68017C4.49062 9.83345 4.16069 9.99009 3.85499 10.1499L3.73835 10.2082C3.43368 10.371 3.1522 10.5382 2.89702 10.7076L2.81016 10.7681C2.57276 10.9287 2.34645 11.1052 2.13264 11.2962C2.11176 11.3148 2.09307 11.3347 2.07322 11.3534C1.88892 11.5231 1.72074 11.7095 1.57059 11.9101C1.55848 11.9254 1.55074 11.9419 1.53979 11.9574C1.4091 12.1388 1.30304 12.3367 1.22416 12.5459C1.22055 12.5559 1.21759 12.5663 1.2154 12.5767C1.14168 12.7765 1.10237 12.9874 1.09876 13.2004V22.6393C1.09876 24.1443 2.94084 25.6096 6.03898 26.8086C5.67052 26.9406 5.3219 27.076 4.98977 27.2156L4.84465 27.2772C4.49049 27.4305 4.16056 27.5872 3.85486 27.747L3.73822 27.8097C3.43355 27.9725 3.15207 28.1397 2.89689 28.3091L2.81003 28.3696C2.57263 28.5302 2.34632 28.7067 2.13251 28.8976C2.11163 28.9163 2.09294 28.9362 2.07309 28.9549C1.88879 29.1245 1.72061 29.3109 1.57046 29.5115C1.55835 29.5269 1.55061 29.5434 1.53966 29.5588C1.40898 29.7402 1.30291 29.9381 1.22403 30.1473C1.22042 30.1574 1.21746 30.1677 1.21527 30.1782C1.14155 30.378 1.10224 30.5889 1.09863 30.8019V40.2407C1.09863 41.5147 2.41836 42.7589 4.70366 43.8392C2.41836 44.8469 1.09863 46.0328 1.09863 47.3034V56.7423C1.09863 60.3946 11.9314 63.8049 25.2936 63.8049C25.7973 63.8049 26.289 63.7906 26.7849 63.7818C14.2689 63.4915 4.39834 60.2286 4.39834 56.7424Z" fill="white"/>
<path d="M56.0898 38.8019V24.5005V5.79883H58.2894V24.5005V38.8019H56.0898Z" fill="white"/>
<path d="M57.1883 28.9011C56.7414 28.8986 56.3375 29.1666 56.1661 29.5794C55.9948 29.9922 56.0901 30.4676 56.4074 30.7823L56.5724 30.9143C56.6338 30.956 56.7003 30.9896 56.7703 31.0145C56.8328 31.0454 56.8996 31.0674 56.9683 31.0793C57.041 31.0916 57.1146 31.0989 57.1883 31.1014C57.4794 31.0971 57.7582 30.9832 57.9692 30.7823C58.0685 30.6771 58.147 30.5539 58.2001 30.4193C58.3661 30.0089 58.2756 29.5394 57.9692 29.2202C57.864 29.1208 57.7408 29.0423 57.6062 28.9892C57.474 28.9327 57.332 28.9028 57.1883 28.9011Z" fill="#428DFF"/>
<path d="M58.2881 38.1473V34.4015C58.2881 33.7939 57.7956 33.3014 57.1884 33.3014C56.5809 33.3014 56.0886 33.794 56.0886 34.4015V37.1716C53.2624 36.1476 50.1879 36.0277 47.2904 36.8284V30.1596L50.2675 27.1816C50.6968 26.752 50.6968 26.0556 50.2675 25.626L47.7457 23.1013L50.2675 20.5788C50.6968 20.1492 50.6968 19.4528 50.2675 19.0232L47.7457 16.5007L50.2675 13.9781C50.6968 13.5486 50.6968 12.8522 50.2675 12.4226L47.2904 9.44679V7.77911C47.2878 7.50812 47.3791 7.24449 47.5488 7.03319L51.1572 2.60962C51.3345 2.38169 51.5969 2.23589 51.884 2.20559C52.1712 2.1753 52.4582 2.26322 52.6792 2.44912L55.664 4.88477C55.9345 5.11115 56.09 5.44621 56.0885 5.79893V25.6008C56.0885 26.2083 56.5809 26.7008 57.1882 26.7008C57.7956 26.7008 58.288 26.2083 58.288 25.6008V5.79893C58.2882 4.78911 57.8371 3.83202 57.0584 3.18949L54.0715 0.7483C53.4039 0.192276 52.5406 -0.0714907 51.6762 0.0166894C50.8033 0.103451 50.0018 0.537003 49.4513 1.22014L45.8419 5.64474C45.3555 6.24963 45.0904 7.00264 45.0908 7.77898V8.23329C40.397 6.51159 33.1846 5.49958 25.2949 5.49958C12.7244 5.49971 0 8.14653 0 13.2004V22.0012C0 23.702 1.38791 25.1751 4.10766 26.4016C1.38791 27.6315 0 29.1045 0 30.802V39.6028C0 41.3036 1.38791 42.7767 4.10766 44.0032C1.38791 45.2332 0 46.7062 0 48.4037V57.2045C0 62.265 12.7244 64.9052 25.2949 64.9052C31.0087 64.9778 36.7099 64.3497 42.271 63.035C46.7133 66.3657 52.6432 66.9362 57.6387 64.5134C62.6342 62.0905 65.8587 57.0801 65.9955 51.5284C66.1321 45.9767 63.1582 40.8134 58.2881 38.1473ZM25.2949 7.69983C33.5432 7.69983 41.2415 8.87362 45.5032 10.7679L47.9348 13.2002L45.5042 15.6315C41.2602 17.5292 33.5651 18.7008 25.2947 18.7008C11.1967 18.7008 2.19946 15.4456 2.19946 13.2002C2.19946 10.9549 11.1968 7.69983 25.2949 7.69983ZM7.30143 27.5523C13.1759 29.0715 19.2278 29.7946 25.2949 29.7019C31.485 29.8052 37.6593 29.0484 43.6413 27.4533C44.0273 27.3472 44.3252 27.0396 44.4191 26.6504C44.5129 26.2611 44.3879 25.8515 44.0926 25.5812C43.7974 25.3107 43.3785 25.2223 42.9991 25.35C37.2253 26.8814 31.2673 27.6056 25.2949 27.5018C19.3218 27.6063 13.363 26.8826 7.58844 25.351C3.61057 24.1431 2.19959 22.7933 2.19959 22.0012V16.548C6.37878 19.4181 15.8775 20.901 25.2949 20.901C33.7081 20.901 41.3361 19.7581 45.9707 17.8306L47.9349 19.8009L45.4131 22.3311C44.9838 22.7607 44.9838 23.4571 45.4131 23.8867L47.9349 26.4015L45.4131 28.9317C45.2087 29.1361 45.093 29.4127 45.0909 29.7018V33.4113C40.7567 35.2022 33.2837 36.3024 25.295 36.3024C11.1969 36.3024 2.19972 33.0472 2.19972 30.8018C2.19959 30.0319 3.55773 28.736 7.30143 27.5523ZM2.19959 39.6028V34.1496C6.37878 37.0197 15.8775 38.5026 25.2949 38.5026C33.1846 38.5026 40.397 37.4927 45.0908 35.7711V37.6039C42.1125 38.9386 39.6532 41.2121 38.0885 44.0769C33.8609 44.7826 29.5808 45.1261 25.2949 45.1034C19.3218 45.2079 13.363 44.4842 7.58844 42.9526C3.61057 41.7447 2.19959 40.3949 2.19959 39.6028ZM7.30143 45.1517C13.1759 46.6717 19.2277 47.3954 25.2949 47.3035C29.2324 47.3172 33.1655 47.0402 37.0625 46.4751C36.3303 48.6145 36.1184 50.8975 36.4444 53.1351C32.7508 53.6559 29.0249 53.9129 25.2949 53.9041C11.1968 53.9041 2.19959 50.6489 2.19959 48.4035C2.19959 47.6335 3.55786 46.3375 7.30143 45.1539V45.1517ZM2.19959 57.2044V51.7512C6.37878 54.6213 15.8775 56.1042 25.2949 56.1042C29.1747 56.1132 33.0501 55.8419 36.8908 55.2923C37.5415 57.5191 38.7054 59.5621 40.2891 61.2571C35.3562 62.2683 30.3301 62.7536 25.2949 62.7048C11.1968 62.705 2.19959 59.4498 2.19959 57.2044ZM51.1395 63.805C44.1545 63.805 38.4921 58.1409 38.4921 51.1539C38.4921 44.1669 44.1546 38.5028 51.1395 38.5028C58.1244 38.5028 63.7869 44.1669 63.7869 51.1539C63.779 58.1376 58.1212 63.7972 51.1395 63.805Z" fill="#428DFF"/>
<path d="M51.1404 51.7039C48.4071 51.7039 46.1914 53.9202 46.1914 56.6543C46.1914 59.3884 48.4071 61.6048 51.1404 61.6048C53.8737 61.6048 56.0894 59.3884 56.0894 56.6543C56.0864 53.9215 53.8724 51.7068 51.1404 51.7039ZM51.1404 59.4045C49.6219 59.4045 48.391 58.1732 48.391 56.6543C48.391 55.1354 49.6219 53.9041 51.1404 53.9041C52.6589 53.9041 53.8898 55.1354 53.8898 56.6543C53.8898 58.1732 52.6589 59.4045 51.1404 59.4045Z" fill="#428DFF"/>
<path d="M52.7882 28.6018C52.1808 28.6018 51.6885 29.0944 51.6885 29.7019V33.0022C51.6885 33.6098 52.1809 34.1022 52.7882 34.1022C53.3956 34.1022 53.8879 33.6098 53.8879 33.0022V29.7019C53.8879 29.0943 53.3956 28.6018 52.7882 28.6018Z" fill="#428DFF"/>
<path d="M53.8879 22.0012C53.8879 21.3936 53.3955 20.9011 52.7882 20.9011C52.1808 20.9011 51.6885 21.3937 51.6885 22.0012V24.2014C51.6885 24.809 52.1809 25.3015 52.7882 25.3015C53.3956 25.3015 53.8879 24.8089 53.8879 24.2014V22.0012Z" fill="#428DFF"/>
<path d="M53.8879 15.4006C53.8879 14.793 53.3955 14.3005 52.7882 14.3005C52.1808 14.3005 51.6885 14.7931 51.6885 15.4006V17.6008C51.6885 18.2084 52.1809 18.7009 52.7882 18.7009C53.3956 18.7009 53.8879 18.2083 53.8879 17.6008V15.4006Z" fill="#428DFF"/>
<path d="M53.8879 7.69991C53.8879 7.09232 53.3955 6.59985 52.7882 6.59985C52.1808 6.59985 51.6885 7.09245 51.6885 7.69991V9.90016C51.6885 10.5078 52.1809 11.0002 52.7882 11.0002C53.3956 11.0002 53.8879 10.5076 53.8879 9.90016V7.69991Z" fill="#428DFF"/>
</svg>
