<svg width="67" height="66" viewBox="0 0 67 66" fill="none" xmlns="http://www.w3.org/2000/svg">
<g clip-path="url(#clip0)">
<path d="M64.2824 63.5479C62.5654 65.2608 59.7858 65.2608 58.0688 63.5479L43.3251 48.7934C42.8994 48.3652 42.8994 47.6736 43.3251 47.2454L47.9798 42.5907C48.408 42.1651 49.0995 42.1651 49.5277 42.5907L64.2823 57.3344C65.9947 59.0517 65.9947 61.8306 64.2824 63.5479Z" fill="#A4C2F7"/>
<path d="M62.1526 64.7226C60.6799 65.0571 59.1387 64.6137 58.0688 63.548L43.3251 48.7934C42.8994 48.3652 42.8994 47.6737 43.3251 47.2455L46.5308 44.0398C46.6934 44.0843 46.8412 44.1715 46.959 44.2922L61.7135 59.0468C63.2431 60.57 63.4298 62.9824 62.1526 64.7226Z" fill="#E3E7F2"/>
<path d="M44.0942 46.4659L47.1992 43.3608L42.731 38.8926L39.626 41.9976L44.0942 46.4659Z" fill="#F5F5F5"/>
<path d="M48.0022 24.2134C48.0022 36.9459 37.6806 47.2675 24.9482 47.2675C24.3993 47.2675 23.8393 47.2455 23.3014 47.2015C11.2389 46.3429 1.8916 36.3066 1.8916 24.2134C1.8916 12.1203 11.2389 2.08401 23.3014 1.22523C23.8393 1.18136 24.3993 1.15942 24.9482 1.15942C37.6806 1.15929 48.0022 11.481 48.0022 24.2134Z" fill="#F5F5F5"/>
<path d="M35.9261 15.4308V23.7633C35.9126 24.2818 35.8651 24.799 35.7833 25.3112C34.7513 31.8378 30.7484 37.5157 24.9479 40.6806C24.366 40.3403 23.8171 39.9999 23.3012 39.6377C18.3607 36.3661 15.0255 31.166 14.1125 25.3112C14.0309 24.799 13.9832 24.2818 13.9697 23.7633V15.4308C13.9697 14.8245 14.4612 14.333 15.0675 14.333H34.8281C35.4345 14.333 35.9261 14.8246 35.9261 15.4308Z" fill="#A4C2F7"/>
<path d="M32.6327 15.4308V23.7632C32.6192 24.2818 32.5716 24.799 32.4899 25.3112C31.5769 31.1659 28.2417 36.3661 23.3012 39.6377C18.3607 36.3661 15.0255 31.166 14.1125 25.3112C14.0309 24.799 13.9832 24.2818 13.9697 23.7632V15.4308C13.9697 14.8245 14.4612 14.333 15.0675 14.333H31.5347C32.1411 14.333 32.6327 14.8246 32.6327 15.4308Z" fill="#E3E7F2"/>
<path d="M23.3014 47.2017C23.8393 47.2455 24.3992 47.2676 24.9481 47.2676C25.4971 47.2676 26.0186 47.2325 26.5487 47.1962C14.5186 46.3148 5.20402 36.3051 5.18927 24.2428C5.17465 12.1804 14.4649 2.14795 26.4928 1.23733C25.98 1.20329 25.4695 1.15942 24.9481 1.15942C24.3992 1.15942 23.8393 1.18136 23.3014 1.22523C11.2389 2.08401 1.8916 12.1203 1.8916 24.2134C1.8916 36.3066 11.2389 46.3429 23.3014 47.2017Z" fill="white"/>
<path d="M46.0697 47.6979L60.8133 62.4524C61.2281 62.8685 61.7255 63.1932 62.2734 63.4053C62.0559 63.4949 61.832 63.5683 61.6038 63.6249C60.1311 63.9594 58.5898 63.5161 57.5199 62.4503L42.7763 47.6979C42.3506 47.2697 42.3506 46.5781 42.7763 46.1499L41.9639 43.9741L46.0697 47.6979Z" fill="white"/>
<path d="M44.0983 48.0205L54.1894 58.1128L58.8474 62.7696L57.294 64.323L52.6371 59.665L42.5449 49.5739L44.0983 48.0205Z" fill="white"/>
<path d="M49.531 56.1094C49.6754 56.1054 49.8176 56.0742 49.9504 56.0172C50.0839 55.9635 50.2056 55.884 50.3083 55.7833C50.6255 55.4696 50.7213 54.9953 50.5508 54.583C50.3802 54.1708 49.9772 53.9028 49.5312 53.905L49.3215 53.928C49.2488 53.9417 49.1782 53.9654 49.1119 53.9984C49.0457 54.02 48.9832 54.0515 48.9263 54.0917C48.8662 54.1344 48.809 54.1809 48.7551 54.2311C48.5514 54.4391 48.4338 54.7164 48.4258 55.0072C48.4452 55.6053 48.9255 56.0856 49.5236 56.105L49.531 56.1094Z" fill="#428DFF"/>
<path d="M18.1175 8.03073C18.4871 7.8837 18.7482 7.5483 18.8 7.15401C18.852 6.75971 18.6866 6.36821 18.3677 6.13051C18.0489 5.89282 17.6265 5.84616 17.2634 6.00848C14.9167 7.00432 12.7839 8.44298 10.9817 10.246C10.6963 10.5216 10.5818 10.9299 10.6823 11.3136C10.7828 11.6974 11.0826 11.9972 11.4664 12.0977C11.8502 12.1982 12.2584 12.0838 12.534 11.7983C13.3318 11.0014 14.2037 10.2823 15.138 9.65099C16.0765 9.01594 17.0744 8.47329 18.1175 8.03073Z" fill="#428DFF"/>
<path d="M8.7653 17.3827C8.98611 16.8277 8.72276 16.198 8.17239 15.9655C7.62203 15.733 6.98698 15.9833 6.74304 16.5286C4.66508 21.4411 4.66508 26.9855 6.74304 31.898C6.98193 32.4519 7.62309 32.7094 8.17877 32.4744C8.73445 32.2394 8.99634 31.6001 8.7653 31.0428C6.91772 26.6764 6.91772 21.7479 8.7653 17.3817V17.3827Z" fill="#428DFF"/>
<path d="M50.3064 41.8099C49.4489 40.9528 48.0592 40.9528 47.2018 41.8099L44.185 38.7932C51.8671 28.6614 50.3911 14.3111 40.8074 5.95517C31.2238 -2.4008 16.8063 -1.908 7.81547 7.08275C-1.17542 16.0735 -1.66809 30.491 6.68788 40.0747C15.0439 49.6583 29.3941 51.1344 39.5259 43.4523L42.5427 46.469C41.6855 47.3265 41.6855 48.7162 42.5427 49.5737L45.6473 52.6783C46.078 53.0944 46.7628 53.0884 47.1862 52.6649C47.6096 52.2415 47.6156 51.5567 47.1996 51.126L44.095 48.0203L48.7541 43.3612L63.5033 58.1126C64.789 59.3986 64.789 61.4833 63.5033 62.7695C62.2001 64.0133 60.1495 64.0133 58.8464 62.7695L53.4144 57.3375C52.9836 56.9214 52.2989 56.9274 51.8755 57.3509C51.4521 57.7745 51.4461 58.4591 51.862 58.8898L57.2951 64.324C58.6733 65.7509 60.7141 66.3231 62.6332 65.8208C64.5523 65.3185 66.0511 63.8197 66.5534 61.9006C67.0558 59.9815 66.4835 57.9407 65.0566 56.5625L50.3064 41.8099ZM2.99074 24.2132C2.99074 12.0871 12.8209 2.25696 24.947 2.25696C37.0731 2.25696 46.9032 12.0871 46.9032 24.2132C46.9032 36.3393 37.0731 46.1694 24.947 46.1694C12.8266 46.1554 3.00456 36.3334 2.99074 24.2132ZM42.7754 40.4871L45.6462 43.3589L44.0929 44.9123L41.221 42.0415C41.7626 41.5477 42.2806 41.0295 42.7754 40.4871Z" fill="#428DFF"/>
<path d="M35.9262 13.2354H13.9699C13.3635 13.2354 12.8721 13.7268 12.8721 14.3332V23.7667C12.8721 23.8095 12.8721 23.9423 12.8842 24.1521C12.8842 24.174 12.8721 24.1916 12.8721 24.2135C12.8779 24.2531 12.8859 24.2924 12.8963 24.331C13.0566 26.6958 14.3323 35.8153 24.3991 41.6315C24.7388 41.8276 25.1573 41.8276 25.4969 41.6315C35.5638 35.8131 36.8395 26.7012 36.9998 24.331C37.0101 24.2924 37.0182 24.2531 37.024 24.2135C37.024 24.1916 37.013 24.174 37.0119 24.1521C37.023 23.9425 37.024 23.8095 37.024 23.7667V14.3332C37.024 13.7268 36.5325 13.2354 35.9262 13.2354ZM34.8284 23.1157H26.046V15.4311H34.8284V23.1157ZM23.8502 15.431V23.1156H15.0677V15.431H23.8502ZM24.948 39.404C19.7514 36.4069 16.1773 31.2325 15.2138 25.3113H23.8502V34.0939C23.8502 34.7002 24.3417 35.1917 24.948 35.1917C25.5544 35.1917 26.0458 34.7002 26.0458 34.0939V25.3113H34.6714C33.6798 31.2181 30.1181 36.3802 24.948 39.404Z" fill="#428DFF"/>
</g>
<defs>
<clipPath id="clip0">
<rect width="66" height="66" fill="white" transform="translate(0.733398)"/>
</clipPath>
</defs>
</svg>
