<svg width="67" height="66" viewBox="0 0 67 66" fill="none" xmlns="http://www.w3.org/2000/svg">
<path d="M33.7337 1.09985C42.239 1.09985 49.1338 7.99466 49.1338 16.4999V26.3999H44.7338V16.4999C44.7338 10.4248 39.809 5.49994 33.7339 5.49994C27.6588 5.49994 22.7338 10.4248 22.7338 16.4999V26.3999H18.3338V16.4999C18.3337 7.99466 25.2285 1.09985 33.7337 1.09985Z" fill="#F5F5F5"/>
<path d="M11.7334 29.7V53.9C11.7334 59.9751 16.6583 64.8999 22.7334 64.8999H44.7334C50.8085 64.8999 55.7334 59.9751 55.7334 53.9V29.7C55.7334 27.27 53.7635 25.3 51.3334 25.3H16.1334C13.7034 25.3 11.7334 27.27 11.7334 29.7Z" fill="#A4C2F7"/>
<path d="M15.0334 29.7V53.9C15.0334 59.9751 19.9583 64.8999 26.0334 64.8999H44.7334C50.8085 64.8999 55.7334 59.9751 55.7334 53.9V29.7C55.7334 27.27 53.7635 25.3 51.3334 25.3H19.4334C17.0034 25.3 15.0334 27.27 15.0334 29.7Z" fill="#F5F5F5"/>
<path d="M33.7338 45.1C31.3038 45.1 29.3339 43.13 29.3339 40.7C29.3339 38.27 31.3038 36.3 33.7338 36.3C36.1639 36.3 38.1338 38.27 38.1338 40.7C38.1338 43.13 36.1639 45.1 33.7338 45.1Z" fill="#F5F5F5"/>
<path d="M31.5335 44.5061V50.6001C31.5335 51.8152 32.5185 52.8002 33.7335 52.8002C34.9486 52.8002 35.9336 51.8152 35.9336 50.6001V44.5061" fill="#F5F5F5"/>
<path d="M18.3338 16.4999V26.3999H21.6338V16.4999C21.6335 8.63314 27.5623 2.03081 35.3838 1.1879C34.8357 1.13053 34.2849 1.10114 33.7338 1.09985C25.2286 1.09985 18.3338 7.99466 18.3338 16.4999Z" fill="#A4C2F7"/>
<path d="M52.4334 53.9007V29.7007C52.4334 27.2707 50.4635 25.3008 48.0334 25.3008H45.8334V16.5007C45.832 8.63527 39.9036 2.03476 32.0834 1.1921C32.6313 1.13215 33.1821 1.10173 33.7334 1.10083C34.2742 1.1016 34.8146 1.13022 35.3525 1.18668H35.3834H35.3734C43.1997 2.02483 49.1343 8.62973 49.1334 16.5007V25.3008H51.3334C53.7635 25.3008 55.7334 27.2707 55.7334 29.7007V53.9007C55.7334 59.9758 50.8085 64.9007 44.7334 64.9007H41.4334C47.5085 64.9008 52.4334 59.9759 52.4334 53.9007Z" fill="white"/>
<path d="M54.633 29.7V43.9999V53.8999H56.833V43.9999V29.7H54.633Z" fill="white"/>
<path d="M55.7331 39.5999C55.2862 39.6025 54.8822 39.3345 54.7108 38.9218C54.5393 38.509 54.6347 38.0336 54.9521 37.7189L55.1171 37.5869C55.1785 37.5453 55.245 37.5121 55.3151 37.4879C55.3775 37.4561 55.4441 37.4339 55.5131 37.4219C55.5858 37.4097 55.6594 37.4024 55.7331 37.3999C56.0243 37.4042 56.3032 37.5181 56.5142 37.7189C56.6136 37.8241 56.6921 37.9474 56.7452 38.0819C56.9111 38.4923 56.8207 38.9617 56.5142 39.2809C56.409 39.3803 56.2858 39.4588 56.1512 39.5119C56.0188 39.5684 55.8769 39.5983 55.7331 39.5999Z" fill="#428DFF"/>
<path d="M16.1331 24.2H17.233V16.5C17.233 7.38736 24.6204 0 33.733 0C42.8456 0 50.233 7.38736 50.233 16.5V24.2H51.333C54.3691 24.2037 56.8294 26.664 56.833 29.7V34.1C56.833 34.7075 56.3405 35.1999 55.7331 35.1999C55.1256 35.1999 54.6331 34.7075 54.6331 34.1V29.7C54.6331 27.8775 53.1556 26.4 51.3331 26.4H16.1331C14.3106 26.4 12.833 27.8775 12.833 29.7V53.9C12.8391 59.3651 17.2679 63.7939 22.733 63.8H44.733C50.1981 63.7939 54.6269 59.3651 54.633 53.9V42.9C54.633 42.2925 55.1255 41.8 55.7329 41.8C56.3403 41.8 56.8329 42.2925 56.8329 42.9V53.9C56.825 60.5794 51.4122 65.9921 44.7328 66H22.7328C16.0534 65.9921 10.6406 60.5794 10.6328 53.9V29.7C10.6366 26.664 13.0969 24.2037 16.1331 24.2ZM43.633 24.2V16.5C43.633 11.0324 39.2006 6.6 33.733 6.6C28.2654 6.6 23.833 11.0324 23.833 16.5V24.2H43.633ZM21.633 24.2V16.5C21.633 9.81737 27.0504 4.39996 33.733 4.39996C40.4156 4.39996 45.8331 9.81737 45.8331 16.5V24.2H48.0331V16.5C48.0331 8.6023 41.6307 2.20004 33.7331 2.20004C25.8356 2.20004 19.4331 8.6023 19.4331 16.5V24.2H21.633Z" fill="#428DFF"/>
<path d="M39.2334 40.6999C39.2284 42.422 38.4134 44.0413 37.0333 45.0713V50.5999C37.0333 52.4224 35.5558 53.9 33.7333 53.9C31.9107 53.9 30.4333 52.4224 30.4333 50.5999V45.0713C28.3746 43.5156 27.6772 40.7362 28.7574 38.3928C29.8377 36.0494 32.4041 34.7745 34.9241 35.3295C37.444 35.8847 39.2375 38.1196 39.2334 40.6999ZM32.6334 50.5999C32.6334 51.2075 33.1259 51.6999 33.7333 51.6999C34.3409 51.6999 34.8333 51.2075 34.8333 50.5999V46.0899C34.1074 46.238 33.3591 46.238 32.6333 46.0899V50.5999H32.6334ZM33.7333 37.3999C31.9107 37.3999 30.4333 38.8775 30.4333 40.6999C30.4333 42.5224 31.9107 43.9999 33.7333 43.9999C35.5558 43.9999 37.0333 42.5224 37.0333 40.6999C37.0333 38.8775 35.5558 37.3999 33.7333 37.3999Z" fill="#428DFF"/>
<path d="M35.6105 32.6776C35.181 33.107 34.4846 33.107 34.0551 32.6776L33.7328 32.3554L33.4106 32.6776C32.979 33.0945 32.2928 33.0886 31.8686 32.6642C31.4442 32.2399 31.4383 31.5538 31.8552 31.1222L32.1774 30.8L31.8552 30.4777C31.4383 30.0461 31.4442 29.36 31.8686 28.9357C32.2929 28.5114 32.979 28.5054 33.4106 28.9223L33.7328 29.2446L34.0551 28.9223C34.4867 28.5054 35.1728 28.5114 35.5971 28.9357C36.0214 29.3601 36.0274 30.0461 35.6105 30.4777L35.2882 30.8L35.6105 31.1222C36.04 31.5518 36.04 32.248 35.6105 32.6776Z" fill="#428DFF"/>
<path d="M31.8551 56.4221C32.2847 55.9928 32.981 55.9928 33.4105 56.4221L33.7328 56.7444L34.0551 56.4221C34.4866 56.0053 35.1728 56.0112 35.597 56.4355C36.0214 56.8599 36.0273 57.5459 35.6104 57.9775L35.2882 58.2998L35.6104 58.6221C35.8964 58.8983 36.0111 59.3072 35.9104 59.6919C35.8097 60.0765 35.5094 60.3769 35.1249 60.4774C34.7402 60.5781 34.3313 60.4634 34.0551 60.1774L33.7328 59.8552L33.4105 60.1774C32.979 60.5943 32.2928 60.5884 31.8686 60.164C31.4442 59.7397 31.4383 59.0536 31.8551 58.6221L32.1774 58.2998L31.8551 57.9775C31.4256 57.548 31.4256 56.8518 31.8551 56.4221Z" fill="#428DFF"/>
<path d="M39.9206 30.0773C40.2024 30.0018 40.5027 30.0412 40.7554 30.187C41.008 30.3328 41.1925 30.5731 41.268 30.855L41.3857 31.295L41.8257 31.1773C42.2092 31.0632 42.6243 31.1663 42.9098 31.4467C43.1953 31.7269 43.3062 32.1401 43.1992 32.5256C43.0923 32.9112 42.7845 33.2082 42.3955 33.3014L41.9555 33.4203L42.0732 33.8602C42.1487 34.142 42.1093 34.4424 41.9635 34.695C41.8177 34.9477 41.5774 35.1321 41.2955 35.2077C41.2022 35.2324 41.106 35.2451 41.0095 35.2451C40.512 35.2447 40.0768 34.9104 39.9479 34.43L39.8302 33.99L39.3903 34.1089C39.2969 34.1336 39.2008 34.1463 39.1042 34.1463C38.5522 34.146 38.086 33.7366 38.0142 33.1894C37.9424 32.6422 38.2872 32.1264 38.8205 31.9836L39.2605 31.8659L39.1428 31.4259C39.0668 31.144 39.1062 30.8434 39.2521 30.5904C39.398 30.3375 39.6385 30.1529 39.9206 30.0773Z" fill="#428DFF"/>
<path d="M27.5457 59.0226C27.4525 59.0479 27.3564 59.0605 27.2597 59.06C26.7622 59.0596 26.327 58.7254 26.1981 58.245L26.0804 57.805L25.6405 57.9227C25.5473 57.948 25.4511 57.9606 25.3544 57.9601C24.804 57.9578 24.3401 57.549 24.2684 57.0033C24.1967 56.4577 24.5395 55.943 25.0706 55.7986L25.5106 55.6797L25.3929 55.2398C25.2355 54.6529 25.5836 54.0496 26.1706 53.8923C26.7575 53.7349 27.3607 54.0831 27.518 54.67L27.6357 55.11L28.0757 54.9911C28.6626 54.8337 29.2658 55.1819 29.4231 55.7688C29.5805 56.3557 29.2323 56.959 28.6454 57.1163L28.2055 57.234L28.3232 57.6739C28.3991 57.9558 28.3598 58.2564 28.2138 58.5095C28.0683 58.7625 27.8278 58.9471 27.5457 59.0226Z" fill="#428DFF"/>
<path d="M48.2062 38.3626C48.0489 38.949 47.4463 39.297 46.8598 39.1403L46.4198 39.0226L46.3021 39.4625C46.1733 39.943 45.738 40.2772 45.2406 40.2776C45.144 40.2776 45.0478 40.265 44.9545 40.2402C44.6727 40.1647 44.4325 39.9802 44.2865 39.7275C44.1407 39.4749 44.1012 39.1745 44.1768 38.8928L44.2957 38.4528L43.8557 38.3351C43.2688 38.1777 42.9206 37.5744 43.078 36.9877C43.2354 36.4007 43.8387 36.0526 44.4255 36.21L44.8654 36.3277L44.9843 35.8877C45.0775 35.4987 45.3746 35.1908 45.7601 35.084C46.1456 34.9771 46.5588 35.0878 46.839 35.3734C47.1192 35.6589 47.2224 36.0741 47.1084 36.4575L46.9907 36.8974L47.4307 37.0151C48.0167 37.1733 48.3637 37.7764 48.2062 38.3626Z" fill="#428DFF"/>
<path d="M19.2597 50.7375C19.417 50.1511 20.0196 49.8031 20.6061 49.9598L21.0461 50.0775L21.1638 49.6375C21.3212 49.0506 21.9245 48.7025 22.5112 48.8598C23.0982 49.0172 23.4463 49.6205 23.2889 50.2073L23.1701 50.6473L23.61 50.765C24.1432 50.9077 24.4882 51.4234 24.4164 51.9707C24.3446 52.518 23.8783 52.9274 23.3263 52.9276C23.2298 52.9276 23.1336 52.915 23.0403 52.8902L22.6003 52.7725L22.4815 53.2125C22.3527 53.6925 21.9181 54.0267 21.4211 54.0276C21.3245 54.0276 21.2284 54.0149 21.135 53.9902C20.8532 53.9147 20.613 53.7302 20.467 53.4775C20.3212 53.2249 20.2817 52.9245 20.3573 52.6427L20.475 52.2028L20.0351 52.0851C19.4492 51.9268 19.1022 51.3238 19.2597 50.7375Z" fill="#428DFF"/>
<path d="M49.3606 46.4276C48.9311 46.857 48.2347 46.857 47.8052 46.4276L47.4829 46.1053L47.1607 46.4276C46.7291 46.8445 46.0429 46.8386 45.6187 46.4142C45.1943 45.9899 45.1884 45.3038 45.6053 44.8722L45.9275 44.55L45.6053 44.2277C45.1884 43.7961 45.1943 43.11 45.6187 42.6857C46.043 42.2614 46.7291 42.2554 47.1607 42.6723L47.4829 42.9946L47.8052 42.6723C48.2368 42.2554 48.9229 42.2614 49.3472 42.6857C49.7715 43.1101 49.7775 43.7961 49.3606 44.2277L49.0383 44.55L49.3606 44.8722C49.79 45.3019 49.79 45.9981 49.3606 46.4276Z" fill="#428DFF"/>
<path d="M18.1051 42.6724C18.5347 42.243 19.231 42.243 19.6605 42.6724L19.9828 42.9946L20.3051 42.6724C20.7366 42.2555 21.4228 42.2614 21.847 42.6858C22.2714 43.1102 22.2773 43.7962 21.8604 44.2278L21.5382 44.55L21.8604 44.8723C22.1464 45.1486 22.2611 45.5574 22.1604 45.9421C22.0597 46.3266 21.7594 46.6271 21.3749 46.7277C20.9903 46.8283 20.5813 46.7136 20.3051 46.4277L19.9828 46.1054L19.6605 46.4277C19.229 46.8446 18.5428 46.8387 18.1186 46.4143C17.6942 45.9899 17.6883 45.3039 18.1051 44.8723L18.4274 44.55L18.1051 44.2278C17.6758 43.7981 17.6758 43.1019 18.1051 42.6724Z" fill="#428DFF"/>
<path d="M46.3276 53.9902C46.2343 54.015 46.1381 54.0276 46.0416 54.0276C45.5445 54.0267 45.1098 53.6926 44.9812 53.2125L44.8623 52.7726L44.4224 52.8903C44.329 52.915 44.2329 52.9276 44.1363 52.9276C43.5843 52.9274 43.1181 52.518 43.0463 51.9708C42.9745 51.4236 43.3193 50.9078 43.8526 50.765L44.2926 50.6473L44.1737 50.2073C44.0719 49.8277 44.1804 49.4226 44.4583 49.1446C44.7363 48.8667 45.1413 48.758 45.5209 48.8597C45.9005 48.9615 46.1972 49.2579 46.299 49.6376L46.4167 50.0775L46.8566 49.9598C47.4423 49.806 48.0421 50.1545 48.1987 50.7395C48.3552 51.3244 48.0096 51.9258 47.4254 52.0851L46.9854 52.2028L47.1031 52.6428C47.2606 53.2289 46.9136 53.8319 46.3276 53.9902Z" fill="#428DFF"/>
<path d="M21.1374 35.1098C21.724 34.9531 22.3266 35.3011 22.4839 35.8875L22.6027 36.3275L23.0427 36.2098C23.4223 36.108 23.8274 36.2165 24.1054 36.4944C24.3833 36.7723 24.492 37.1774 24.3903 37.557C24.2885 37.9366 23.9921 38.2332 23.6124 38.3351L23.1725 38.4528L23.2913 38.8927C23.3669 39.1745 23.3274 39.4749 23.1816 39.7275C23.0358 39.9802 22.7956 40.1646 22.5136 40.2402C22.4203 40.2649 22.3241 40.2776 22.2276 40.2776C21.7301 40.2772 21.295 39.9429 21.166 39.4625L21.0484 39.0225L20.6084 39.1402C20.0228 39.294 19.423 38.9456 19.2664 38.3606C19.1099 37.7756 19.4555 37.1743 20.0397 37.0149L20.4796 36.8973L20.3619 36.4573C20.2044 35.8712 20.5514 35.2681 21.1374 35.1098Z" fill="#428DFF"/>
<path d="M38.0429 55.77C38.1184 55.4882 38.3029 55.248 38.5555 55.102C38.8082 54.9562 39.1085 54.9167 39.3903 54.9923L39.8303 55.1112L39.948 54.6712C40.1054 54.0843 40.7087 53.7361 41.2954 53.8935C41.8824 54.0509 42.2305 54.6542 42.0731 55.241L41.9554 55.6809L42.3954 55.7998C42.9265 55.9442 43.2693 56.4588 43.1976 57.0046C43.1259 57.5502 42.662 57.959 42.1115 57.9613C42.015 57.9618 41.9187 57.9492 41.8255 57.9239L41.3855 57.8062L41.2679 58.2462C41.1391 58.7266 40.7038 59.0609 40.2063 59.0612C40.1098 59.0618 40.0135 59.0491 39.9203 59.0239C39.3339 58.8666 38.9858 58.264 39.1426 57.6774L39.2603 57.2375L38.8203 57.1198C38.538 57.0443 38.2973 56.8595 38.1514 56.6064C38.0058 56.3531 37.9666 56.0522 38.0429 55.77Z" fill="#428DFF"/>
<path d="M29.4228 33.3301C29.294 33.8105 28.8587 34.1448 28.3613 34.1452C28.2647 34.1452 28.1685 34.1325 28.0752 34.1078L27.6353 33.9889L27.5176 34.4289C27.3888 34.9093 26.9535 35.2436 26.456 35.244C26.3595 35.244 26.2633 35.2313 26.17 35.2066C25.8882 35.131 25.6479 34.9466 25.502 34.6939C25.3561 34.4413 25.3166 34.1409 25.3923 33.8591L25.51 33.4192L25.07 33.3003C24.681 33.2071 24.3732 32.91 24.2663 32.5245C24.1594 32.139 24.2702 31.7258 24.5557 31.4456C24.8412 31.1654 25.2563 31.0622 25.6398 31.1762L26.0797 31.2939L26.1974 30.8539C26.3566 30.2697 26.9581 29.9241 27.5431 30.0806C28.1281 30.2371 28.4765 30.8369 28.3227 31.4227L28.205 31.8626L28.645 31.9803C28.9273 32.0558 29.168 32.2406 29.3139 32.4937C29.4599 32.747 29.4991 33.0479 29.4228 33.3301Z" fill="#428DFF"/>
</svg>
