<svg width="66" height="66" viewBox="0 0 66 66" fill="none" xmlns="http://www.w3.org/2000/svg">
<path d="M58.2998 7.7001V51.7001H26.3998C25.1863 51.7037 24.2034 52.6866 24.1998 53.9001V58.3001C24.1998 61.9451 21.2448 64.9001 17.5998 64.9001H16.4998C16.1309 64.9008 15.7627 64.8677 15.3998 64.8011C12.2244 64.2689 9.89852 61.5197 9.89981 58.3001V14.3001H5.49985C4.28632 14.2965 3.30341 13.3136 3.2998 12.1001V7.7001C3.2998 4.05502 6.25472 1.1001 9.89981 1.1001H51.6998C55.3449 1.1001 58.2998 4.05502 58.2998 7.7001Z" fill="#A4C2F7"/>
<path d="M54.9998 7.7001V51.7001H23.0998C21.8863 51.7037 20.9034 52.6866 20.8998 53.9001V58.3C20.901 61.5197 18.5752 64.2689 15.3997 64.801C12.2242 64.2689 9.89839 61.5197 9.89968 58.3V14.3001H5.49985C4.28632 14.2965 3.30341 13.3136 3.2998 12.1001V7.7001C3.2998 4.05502 6.25472 1.1001 9.8998 1.1001H48.3998C52.0449 1.1001 54.9998 4.05502 54.9998 7.7001Z" fill="#F5F5F5"/>
<path d="M62.7006 53.9002V58.3002C62.7006 61.9453 59.7457 64.9002 56.1006 64.9002H17.6006C21.2457 64.9002 24.2006 61.9453 24.2006 58.3002V53.9002C24.2042 52.6867 25.1871 51.7038 26.4006 51.7002H60.5006C61.7141 51.7039 62.697 52.6867 62.7006 53.9002Z" fill="#A4C2F7"/>
<path d="M59.4006 53.9002V58.3002C59.4006 61.9453 56.4457 64.9002 52.8006 64.9002H17.6006C21.2457 64.9002 24.2006 61.9453 24.2006 58.3002V53.9002C24.2042 52.6867 25.1871 51.7038 26.4006 51.7002H57.2006C58.4141 51.7039 59.397 52.6867 59.4006 53.9002Z" fill="#F5F5F5"/>
<path d="M15.3995 64.8014C15.7623 64.868 16.1305 64.9012 16.4994 64.9004H19.7994C19.4305 64.9012 19.0623 64.868 18.6995 64.8014C15.524 64.2693 13.1981 61.5201 13.1994 58.3004V14.3003H9.89941V58.3003C9.89813 61.5201 12.224 64.2693 15.3995 64.8014Z" fill="white"/>
<path d="M13.1998 1.1001H9.8998C6.25472 1.1001 3.2998 4.05502 3.2998 7.7001V12.1001C3.30341 13.3136 4.28632 14.2965 5.49985 14.3001H8.79985C7.58632 14.2965 6.60341 13.3136 6.5998 12.1001V7.7001C6.5998 4.05502 9.55472 1.1001 13.1998 1.1001Z" fill="white"/>
<path d="M8.7998 51.6999V37.3998V14.2998H10.9997V37.3998V51.6999H8.7998Z" fill="white"/>
<path d="M9.48145 43.9121C9.54384 43.9439 9.61048 43.9661 9.67945 43.9781C9.75215 43.9903 9.82576 43.9977 9.89949 44.0001C10.1907 43.9959 10.4695 43.8819 10.6805 43.6811C10.7799 43.5759 10.8584 43.4526 10.9115 43.3181C11.0774 42.9078 10.9871 42.4383 10.6805 42.1191C10.5753 42.0197 10.4521 41.9412 10.3175 41.8881C10.1853 41.8318 10.0432 41.8019 9.89949 41.8001C9.45257 41.7975 9.04858 42.0655 8.87714 42.4782C8.70569 42.891 8.80108 43.3664 9.11845 43.6811L9.28345 43.8131C9.34481 43.8547 9.41132 43.888 9.48145 43.9121Z" fill="#428DFF"/>
<path d="M2.2002 7.69996V12.0999C2.2002 13.9224 3.67772 15.3999 5.5002 15.3999H8.80019V38.4999C8.80019 39.1074 9.29275 39.5999 9.90015 39.5999C10.5076 39.5999 11.0001 39.1074 11.0001 38.4999V7.69996C11.0001 7.09242 10.5076 6.6 9.90015 6.6C9.29275 6.6 8.80019 7.09255 8.80019 7.69996V13.2H5.5002C4.89266 13.2 4.40024 12.7074 4.40024 12.1V7.69996C4.40385 4.66396 6.86415 2.20365 9.90015 2.20004H51.7002C54.7362 2.20365 57.1965 4.66396 57.2002 7.70009V50.6001H26.4002C24.5775 50.6001 23.1002 52.0776 23.1002 53.9001V58.3C23.0965 61.336 20.6362 63.7963 17.6001 63.8001H16.5002C13.4642 63.7965 11.0038 61.3362 11.0001 58.3V47.3001C11.0001 46.6926 10.5076 46.2001 9.90015 46.2001C9.29275 46.2001 8.80019 46.6926 8.80019 47.3001V58.3C8.80561 62.5503 12.2499 65.9946 16.5002 66H56.1002C60.3505 65.9946 63.7947 62.5503 63.8001 58.3V53.9001C63.8001 52.0776 62.3226 50.6001 60.5001 50.6001H59.4002V7.70009C59.3947 3.44966 55.9505 0.00541406 51.7002 0H9.90015C5.64986 0.00541406 2.20561 3.44966 2.2002 7.69996ZM60.5001 52.8C61.1076 52.8 61.6001 53.2924 61.6001 53.9V58.2999C61.5965 61.3359 59.1362 63.7962 56.1 63.8H22.9781C24.4631 62.3554 25.3007 60.3717 25.3002 58.2999V53.9C25.3002 53.2924 25.7927 52.8 26.4002 52.8H60.5001Z" fill="#428DFF"/>
<path d="M32.3974 41.8594H34.8235L34.835 39.2387C39.7445 38.8839 42.5597 36.1831 42.5712 32.3493C42.5597 28.2867 39.2066 26.4327 35.6818 25.5973L34.9265 25.4028L34.9723 18.8682C36.8033 19.1886 37.9821 20.2873 38.1652 21.9352H42.2507C42.1821 18.296 39.321 15.641 34.9952 15.229L35.0066 12.5625H32.5805L32.569 15.229C28.2775 15.6638 25.1876 18.296 25.199 22.084C25.199 25.4485 27.5908 27.3826 31.4475 28.3782L32.4775 28.6415L32.4317 35.5651C30.3832 35.2447 28.9069 34.0774 28.7581 32.006H24.5811C24.7413 36.2975 27.6938 38.8496 32.4088 39.2387L32.3974 41.8594ZM34.8578 35.5651L34.9036 29.2823C36.9864 29.8889 38.314 30.6899 38.3254 32.315C38.314 34.0087 36.9521 35.2218 34.8578 35.5651ZM32.5004 24.7848C30.9211 24.2812 29.4791 23.4458 29.502 21.8208C29.5135 20.3445 30.6235 19.2001 32.5461 18.8682L32.5004 24.7848Z" fill="#428DFF"/>
</svg>
