<svg xmlns:xlink="http://www.w3.org/1999/xlink" xmlns="http://www.w3.org/2000/svg" width="66" height="66" viewBox="0 0 66 66" fill="none"><path d="M47.2992 41.008V33H7.69922V40.7L47.2992 41.008Z" fill="#A4C2F7"></path><path d="M47.2992 21.2082V13.2002H7.69922V20.9002L47.2992 21.2082Z" fill="#A4C2F7"></path><path d="M43.9992 41.008V33H7.69922V40.7L43.9992 41.008Z" fill="#F5F5F5"></path><path d="M43.9992 21.2082V13.2002H7.69922V20.9002L43.9992 21.2082Z" fill="#F5F5F5"></path><path d="M3.29965 40.7002H51.6997C52.9148 40.7002 53.8997 41.6852 53.8997 42.9002V51.7003C53.8997 52.9154 52.9148 53.9003 51.6997 53.9003H3.29965C2.08458 53.9003 1.09961 52.9154 1.09961 51.7003V42.9002C1.09961 41.6852 2.08458 40.7002 3.29965 40.7002Z" fill="#7FABFA"></path><path d="M3.29965 20.8999H51.6997C52.9148 20.8999 53.8997 21.8849 53.8997 23.0999V31.9C53.8997 33.1151 52.9148 34.1 51.6997 34.1H3.29965C2.08458 34.1 1.09961 33.1151 1.09961 31.9V23.0999C1.09961 21.8849 2.08458 20.8999 3.29965 20.8999Z" fill="#A4C2F7"></path><path d="M3.29965 1.1001H51.6997C52.9148 1.1001 53.8997 2.08507 53.8997 3.30014V12.1002C53.8997 13.3153 52.9148 14.3002 51.6997 14.3002H3.29965C2.08458 14.3002 1.09961 13.3153 1.09961 12.1002V3.30014C1.09961 2.08507 2.08458 1.1001 3.29965 1.1001Z" fill="#A4C2F7"></path><path d="M3.29965 40.7002H48.3997C49.6148 40.7002 50.5997 41.6852 50.5997 42.9002V51.7003C50.5997 52.9154 49.6148 53.9003 48.3997 53.9003H3.29965C2.08458 53.9003 1.09961 52.9154 1.09961 51.7003V42.9002C1.09961 41.6852 2.08458 40.7002 3.29965 40.7002Z" fill="#F5F5F5"></path><path d="M3.29965 20.8999H48.3997C49.6148 20.8999 50.5997 21.8849 50.5997 23.0999V31.9C50.5997 33.1151 49.6148 34.1 48.3997 34.1H3.29965C2.08458 34.1 1.09961 33.1151 1.09961 31.9V23.0999C1.09961 21.8849 2.08458 20.8999 3.29965 20.8999Z" fill="#F5F5F5"></path><path d="M3.29965 1.1001H48.3997C49.6148 1.1001 50.5997 2.08507 50.5997 3.30014V12.1002C50.5997 13.3153 49.6148 14.3002 48.3997 14.3002H3.29965C2.08458 14.3002 1.09961 13.3153 1.09961 12.1002V3.30014C1.09961 2.08507 2.08458 1.1001 3.29965 1.1001Z" fill="#F5F5F5"></path><path d="M29.6998 52.8003H25.2998V61.6003H29.6998V52.8003Z" fill="#A4C2F7"></path><path d="M7.70004 49.5002C8.91509 49.5002 9.90008 48.5152 9.90008 47.3001C9.90008 46.0851 8.91509 45.1001 7.70004 45.1001C6.48499 45.1001 5.5 46.0851 5.5 47.3001C5.5 48.5152 6.48499 49.5002 7.70004 49.5002Z" fill="#E3E7F2"></path><path d="M7.70004 29.6999C8.91509 29.6999 9.90008 28.7149 9.90008 27.4998C9.90008 26.2848 8.91509 25.2998 7.70004 25.2998C6.48499 25.2998 5.5 26.2848 5.5 27.4998C5.5 28.7149 6.48499 29.6999 7.70004 29.6999Z" fill="#E3E7F2"></path><path d="M7.70004 9.90009C8.91509 9.90009 9.90008 8.91509 9.90008 7.70004C9.90008 6.48499 8.91509 5.5 7.70004 5.5C6.48499 5.5 5.5 6.48499 5.5 7.70004C5.5 8.91509 6.48499 9.90009 7.70004 9.90009Z" fill="#E3E7F2"></path><path d="M52.7995 64.9H2.19957C1.59203 64.9 1.09961 64.4074 1.09961 63.8V61.6C1.09961 60.9924 1.59216 60.5 2.19957 60.5H52.7995V64.9Z" fill="#A4C2F7"></path><path d="M64.8997 27.4998V41.5908C64.8997 41.5908 64.8997 56.1659 49.4997 64.8998C48.9277 64.5808 48.3777 64.2398 47.8497 63.8988C34.0996 55.0988 34.0996 41.5908 34.0996 41.5908V27.4998C34.1032 26.2863 35.0861 25.3034 36.2997 25.2998H62.6996C63.9132 25.3035 64.8961 26.2863 64.8997 27.4998Z" fill="#A4C2F7"></path><path d="M61.5997 27.4998V41.5908C61.5997 41.5908 61.5997 55.0988 47.8497 63.8988C34.0996 55.0988 34.0996 41.5908 34.0996 41.5908V27.4998C34.1032 26.2863 35.0861 25.3034 36.2997 25.2998H59.3997C60.6132 25.3035 61.5961 26.2863 61.5997 27.4998Z" fill="#F5F5F5"></path><path d="M60.4999 29.7002V41.5912C60.4889 42.0311 60.2029 52.4261 49.5 59.7191C48.9133 59.3231 48.3633 58.9161 47.85 58.4981C38.6209 51.2161 38.5 41.7011 38.5 41.5912V29.7002H60.4999Z" fill="#A4C2F7"></path><path d="M57.1999 29.7002V41.5912C57.189 42.0092 56.9359 51.3262 47.85 58.4981C38.6209 51.2161 38.5 41.7011 38.5 41.5912V29.7002H57.1999Z" fill="#F5F5F5"></path><path d="M2.19957 64.9H5.49957C4.89203 64.9 4.39961 64.4074 4.39961 63.8V61.6C4.39961 60.9924 4.89216 60.5 5.49957 60.5H2.19957C1.59203 60.5 1.09961 60.9925 1.09961 61.6V63.8C1.09948 64.4074 1.59203 64.9 2.19957 64.9Z" fill="#FFFFFF"></path><path d="M10.9992 34.1001H7.69922V40.7001H10.9992V34.1001Z" fill="#FFFFFF"></path><path d="M10.9992 14.3003H7.69922V20.9003H10.9992V14.3003Z" fill="#FFFFFF"></path><path d="M3.29965 34.0999H6.59965C5.38613 34.0963 4.40322 33.1134 4.39961 31.8999V23.0999C4.40322 21.8864 5.38613 20.9035 6.59965 20.8999H3.29965C2.08613 20.9035 1.10322 21.8864 1.09961 23.0999V31.9C1.10322 33.1135 2.08613 34.0963 3.29965 34.0999Z" fill="#FFFFFF"></path><path d="M3.29965 53.9002H6.59965C5.38613 53.8966 4.40322 52.9137 4.39961 51.7002V42.9002C4.40322 41.6867 5.38613 40.7038 6.59965 40.7002H3.29965C2.08613 40.7038 1.10322 41.6867 1.09961 42.9002V51.7003C1.10322 52.9138 2.08613 53.8966 3.29965 53.9002Z" fill="#FFFFFF"></path><path d="M3.29965 14.3001H6.59965C5.38613 14.2965 4.40322 13.3136 4.39961 12.1001V3.30014C4.40322 2.08662 5.38613 1.10371 6.59965 1.1001H3.29965C2.08613 1.10371 1.10322 2.08662 1.09961 3.30014V12.1002C1.10322 13.3137 2.08613 14.2965 3.29965 14.3001Z" fill="#FFFFFF"></path><path d="M3.2998 0H17.5998H51.6998V2.20004H17.5998H3.2998V0Z" fill="#FFFFFF"></path><path d="M12.1001 0C11.8089 0.00425391 11.5301 0.118207 11.319 0.319043L11.187 0.484043C11.1454 0.545402 11.112 0.611918 11.088 0.682043C11.0562 0.744434 11.034 0.811078 11.022 0.880043C11.0098 0.952746 11.0024 1.02635 11 1.10009C11.0043 1.39129 11.1182 1.67011 11.319 1.88113C11.4242 1.98052 11.5475 2.05902 11.682 2.11213C12.0924 2.27803 12.5618 2.18767 12.881 1.88113C12.9804 1.77594 13.0589 1.65271 13.112 1.51813C13.1683 1.38587 13.1982 1.24382 13.2 1.10009C13.1958 0.808887 13.0818 0.530062 12.881 0.319043C12.6701 0.118207 12.3913 0.00425391 12.1001 0Z" fill="#428DFF"></path><path d="M4.40039 7.6999C4.40039 9.52238 5.87792 10.9999 7.70039 10.9999C9.52287 10.9999 11.0004 9.52238 11.0004 7.6999C11.0004 5.87743 9.52287 4.3999 7.70039 4.3999C5.87792 4.3999 4.40039 5.87743 4.40039 7.6999ZM8.80048 7.6999C8.80048 8.30744 8.30793 8.79986 7.70052 8.79986C7.09311 8.79986 6.60043 8.30744 6.60043 7.6999C6.60043 7.09237 7.09299 6.59995 7.70039 6.59995C8.3078 6.59995 8.80048 7.0925 8.80048 7.6999Z" fill="#428DFF"></path><path d="M14.3002 8.80014H16.5002C17.1077 8.80014 17.6002 8.30759 17.6002 7.70018C17.6002 7.09278 17.1077 6.6001 16.5002 6.6001H14.3002C13.6926 6.6001 13.2002 7.09265 13.2002 7.70005C13.2002 8.30746 13.6927 8.80014 14.3002 8.80014Z" fill="#428DFF"></path><path d="M23.0998 8.80001C23.7073 8.80001 24.1998 8.30746 24.1998 7.70006C24.1998 7.09265 23.7073 6.6001 23.0998 6.6001H20.8998C20.2922 6.6001 19.7998 7.09265 19.7998 7.70006C19.7998 8.30746 20.2924 8.80001 20.8998 8.80001H23.0998Z" fill="#428DFF"></path><path d="M11.0004 27.4997C11.0004 25.6772 9.52287 24.1997 7.70039 24.1997C5.87792 24.1997 4.40039 25.6772 4.40039 27.4997C4.40039 29.3222 5.87792 30.7997 7.70039 30.7997C9.52287 30.7997 11.0004 29.3223 11.0004 27.4997ZM6.60043 27.4997C6.60043 26.8922 7.09299 26.3997 7.70039 26.3997C8.3078 26.3997 8.80035 26.8922 8.80035 27.4997C8.80035 28.1072 8.3078 28.5997 7.70039 28.5997C7.09299 28.5997 6.60043 28.1072 6.60043 27.4997Z" fill="#428DFF"></path><path d="M14.3002 28.5999H16.5002C17.1077 28.5999 17.6002 28.1074 17.6002 27.5C17.6002 26.8926 17.1077 26.3999 16.5002 26.3999H14.3002C13.6926 26.3999 13.2002 26.8923 13.2002 27.4999C13.2002 28.1074 13.6927 28.5999 14.3002 28.5999Z" fill="#428DFF"></path><path d="M20.8998 28.5998H23.0998C23.7073 28.5998 24.1998 28.1073 24.1998 27.4999C24.1998 26.8925 23.7073 26.3999 23.0998 26.3999H20.8998C20.2922 26.3999 19.7998 26.8923 19.7998 27.4999C19.7998 28.1074 20.2924 28.5998 20.8998 28.5998Z" fill="#428DFF"></path><path d="M7.70039 44C5.87792 44 4.40039 45.4775 4.40039 47.3C4.40039 49.1225 5.87792 50.6 7.70039 50.6C9.52287 50.6 11.0004 49.1225 11.0004 47.3C11.0004 45.4775 9.523 44 7.70039 44ZM7.70039 48.4001C7.09286 48.4001 6.60043 47.9077 6.60043 47.3001C6.60043 46.6926 7.09299 46.2002 7.70039 46.2002C8.3078 46.2002 8.80035 46.6926 8.80035 47.3001C8.80035 47.9077 8.30793 48.4001 7.70039 48.4001Z" fill="#428DFF"></path><path d="M16.5002 46.2002H14.3002C13.6926 46.2002 13.2002 46.6926 13.2002 47.3002C13.2002 47.9077 13.6927 48.4001 14.3002 48.4001H16.5002C17.1077 48.4001 17.6002 47.9077 17.6002 47.3002C17.6002 46.6926 17.1077 46.2002 16.5002 46.2002Z" fill="#428DFF"></path><path d="M23.0998 46.2002H20.8998C20.2922 46.2002 19.7998 46.6926 19.7998 47.3002C19.7998 47.9077 20.2924 48.4001 20.8998 48.4001H23.0998C23.7073 48.4001 24.1998 47.9077 24.1998 47.3002C24.1998 46.6926 23.7073 46.2002 23.0998 46.2002Z" fill="#428DFF"></path><path d="M62.7 24.2H55V23.1C55 21.2774 53.5225 19.8 51.7 19.8H48.4V15.4H51.7C53.5225 15.4 55 13.9225 55 12.1V3.3C55 1.47752 53.5225 0 51.7 0H16.5C15.8925 0 15.4 0.492551 15.4 1.09996C15.4 1.70736 15.8926 2.19991 16.5 2.19991H51.7C52.3076 2.19991 52.8 2.69247 52.8 3.29987V12.0999C52.8 12.7074 52.3074 13.1999 51.7 13.1999H3.3C2.69246 13.1999 2.20004 12.7073 2.20004 12.0999V3.3C2.20004 2.69246 2.69259 2.20004 3.3 2.20004H7.69996C8.30749 2.20004 8.79991 1.70749 8.79991 1.10009C8.79991 0.49268 8.30749 0 7.69996 0H3.3C1.47752 0 0 1.47752 0 3.3V12.1C0 13.9225 1.47752 15.4 3.3 15.4H6.6V19.8H3.3C1.47752 19.8 0 21.2775 0 23.1V31.9C0 33.7225 1.47752 35.2 3.3 35.2H6.6V39.6H3.3C1.47752 39.6 0 41.0775 0 42.9V51.7C0 53.5225 1.47752 55 3.3 55H24.2V59.4H1.09996C0.492551 59.4 0 59.8926 0 60.5C0 61.1075 0.492551 61.5999 1.09996 61.5999H42.9C42.9209 61.5999 42.9385 61.589 42.9583 61.5878C43.8466 62.3735 44.7755 63.1119 45.7412 63.8H1.09996C0.492422 63.8 0 64.2925 0 64.8999C0 65.5076 0.492551 66 1.09996 66H49.5C49.6301 65.9973 49.7586 65.9711 49.8795 65.923C49.9091 65.913 49.9382 65.9011 49.9664 65.8879C49.9923 65.8792 50.0177 65.8689 50.0423 65.857C65.8185 56.9041 66 42.2169 66 41.5953V27.5C66 25.6775 64.5226 24.2 62.7 24.2ZM8.80004 15.4H46.2V19.8H8.80004V15.4ZM2.20004 31.9V23.1C2.20004 22.4925 2.69259 22 3.3 22H51.7C52.3076 22 52.8 22.4926 52.8 23.1V24.2H36.3C34.4775 24.2 33 25.6775 33 27.5V33H3.3C2.69246 33 2.20004 32.5076 2.20004 31.9ZM8.80004 35.2H33V39.6H8.80004V35.2ZM2.20004 51.7V42.9C2.20004 42.2925 2.69259 41.8 3.3 41.8H33C33.2311 45.6443 34.2812 49.3947 36.08 52.8H3.3C2.69246 52.8 2.20004 52.3076 2.20004 51.7ZM37.3439 55C38.3291 56.5677 39.4573 58.0406 40.7143 59.4H30.8V55H37.3439ZM26.4 55H28.6V59.4H26.4V55ZM63.8 41.5943C63.8 42.1565 63.5888 55.308 49.5 63.6295C35.4112 55.308 35.2 42.1565 35.2 41.5955V27.5C35.2 26.8924 35.6925 26.4 36.3 26.4H62.7C63.3075 26.4 63.8 26.8924 63.8 27.5V41.5943Z" fill="#428DFF"></path><path d="M59.4 28.6001C58.7925 28.6001 58.3001 29.0925 58.3001 29.7001C58.3001 30.3076 58.7925 30.8 59.4 30.8V41.5801C59.3934 41.9948 59.1327 51.8244 48.8807 58.8138C48.544 59.03 48.3512 59.4121 48.3774 59.8114C48.4035 60.2108 48.6446 60.5643 49.0067 60.7348C49.3688 60.9052 49.7949 60.8653 50.1193 60.631C61.3041 53.0068 61.5934 42.074 61.5999 41.5955V30.8001C61.6001 29.5851 60.6151 28.6001 59.4 28.6001Z" fill="#428DFF"></path><path d="M39.6004 41.5954V30.8H51.7005C52.308 30.8 52.8004 30.3075 52.8004 29.7001C52.8004 29.0926 52.3079 28.6001 51.7005 28.6001H39.6004C38.3854 28.6001 37.4004 29.5851 37.4004 30.8001V41.5955C37.7094 46.0959 39.3098 50.4117 42.0094 54.0256C42.2402 54.3438 42.6232 54.515 43.0141 54.4743C43.4051 54.4337 43.7448 54.1875 43.9051 53.8286C44.0655 53.4696 44.0222 53.0524 43.7914 52.7341C41.3713 49.491 39.9184 45.6294 39.6004 41.5954Z" fill="#428DFF"></path><path d="M56.8778 36.4846C56.4483 36.0553 55.752 36.0553 55.3224 36.4846L47.1627 44.6444L45.8779 43.3596C45.4463 42.9427 44.7601 42.9486 44.3359 43.373C43.9115 43.7974 43.9056 44.4834 44.3225 44.915L46.385 46.9775C46.8145 47.4069 47.5108 47.4069 47.9404 46.9775L56.8778 38.04C57.3072 37.6104 57.3072 36.9142 56.8778 36.4846Z" fill="#428DFF"></path></svg>