<svg xmlns:xlink="http://www.w3.org/1999/xlink" xmlns="http://www.w3.org/2000/svg" width="66" height="66" viewBox="0 0 66 66" fill="none"><path d="M42.8997 3.29965V31.8997H3.29965C2.08613 31.8961 1.10322 30.9132 1.09961 29.6997V3.29965C1.10322 2.08613 2.08613 1.10322 3.29965 1.09961H40.6996C41.9131 1.10322 42.896 2.08613 42.8997 3.29965Z" fill="#A4C2F7"></path><path d="M39.5997 3.29965V31.8997H3.29965C2.08613 31.8961 1.10322 30.9132 1.09961 29.6997V3.29965C1.10322 2.08613 2.08613 1.10322 3.29965 1.09961H37.3996C38.6131 1.10322 39.5961 2.08613 39.5997 3.29965Z" fill="#F5F5F5"></path><path d="M11.5498 10.6258C10.7445 11.8379 9.24042 12.3795 7.84733 11.9589C6.45424 11.5383 5.50098 10.255 5.50098 8.7998C5.50098 7.34457 6.45411 6.06118 7.84733 5.64056C9.24042 5.22007 10.7446 5.7616 11.5498 6.97371" fill="#F5F5F5"></path><path d="M14.3 12.1C16.1225 12.1 17.6 10.6225 17.6 8.8C17.6 6.97746 16.1225 5.5 14.3 5.5C12.4775 5.5 11 6.97746 11 8.8C11 10.6225 12.4775 12.1 14.3 12.1Z" fill="#F5F5F5"></path><path d="M32.9994 5.5H37.3993C38.0069 5.5 38.4993 5.99255 38.4993 6.59996V10.9999C38.4993 11.6075 38.0067 12.0999 37.3993 12.0999H32.9994C32.3918 12.0999 31.8994 11.6075 31.8994 10.9999V6.59996C31.8994 5.99242 32.3918 5.5 32.9994 5.5Z" fill="#FFFFFF"></path><path d="M35.2 18.6997H8.8C6.97752 18.6997 5.5 20.1772 5.5 21.9997C5.5 23.8223 6.97752 25.2997 8.8 25.2997H23.1" fill="#E3E7F2"></path><path d="M64.8997 20.8993V47.2993L42.8996 49.4993H25.2997C24.0861 49.4957 23.1032 48.5128 23.0996 47.2993V20.8993C23.1032 19.6857 24.0861 18.7028 25.2997 18.6992H62.6996C63.9131 18.703 64.896 19.6857 64.8997 20.8993Z" fill="#A4C2F7"></path><path d="M61.5996 20.8993V47.2993L39.5996 49.4993H25.2997C24.0861 49.4957 23.1032 48.5128 23.0996 47.2993V20.8993C23.1032 19.6857 24.0861 18.7028 25.2997 18.6992H59.3996C60.6131 18.703 61.596 19.6857 61.5996 20.8993Z" fill="#F5F5F5"></path><path d="M64.8996 27.4995H61.5996V35.1995H64.8996V27.4995Z" fill="#A4C2F7"></path><path d="M61.5996 27.4995H23.0996V35.1995H61.5996V27.4995Z" fill="#F5F5F5"></path><path d="M64.9004 46.1996V58.2996C64.9004 61.9447 61.9455 64.8996 58.3004 64.8996H49.5004C45.8553 64.8996 42.9004 61.9447 42.9004 58.2996V46.1996C42.9004 45.592 43.3928 45.0996 44.0003 45.0996H63.8003C64.4079 45.0996 64.9004 45.592 64.9004 46.1996Z" fill="#A4C2F7"></path><path d="M61.6004 46.1996V58.2996C61.6004 61.9447 58.6455 64.8996 55.0004 64.8996H49.5004C45.8553 64.8996 42.9004 61.9447 42.9004 58.2996V46.1996C42.9004 45.592 43.3928 45.0996 44.0003 45.0996H60.5003C61.1079 45.0996 61.6004 45.592 61.6004 46.1996Z" fill="#F5F5F5"></path><path d="M53.8993 54.9997C55.1143 54.9997 56.0993 54.0147 56.0993 52.7997C56.0993 51.5846 55.1143 50.5996 53.8993 50.5996C52.6842 50.5996 51.6992 51.5846 51.6992 52.7997C51.6992 54.0147 52.6842 54.9997 53.8993 54.9997Z" fill="#A4C2F7"></path><path d="M23.0996 47.2993C23.1032 48.5128 24.0861 49.4958 25.2997 49.4994H28.5997C27.3861 49.4958 26.4032 48.5128 26.3996 47.2993V31.8994H23.0996V47.2993Z" fill="#FFFFFF"></path><path d="M49.5004 64.9001H52.8004C49.1553 64.9001 46.2004 61.9451 46.2004 58.3V49.5H42.9004V58.3C42.9004 61.9451 45.8553 64.9001 49.5004 64.9001Z" fill="#FFFFFF"></path><path d="M3.29965 31.8997H6.59965C5.38613 31.8961 4.40322 30.9132 4.39961 29.6997V3.29965C4.40322 2.08613 5.38613 1.10322 6.59965 1.09961H3.29965C2.08613 1.10322 1.10322 2.08613 1.09961 3.29965V29.6997C1.10322 30.9132 2.08613 31.8961 3.29965 31.8997Z" fill="#FFFFFF"></path><path d="M2.20004 3.2998V17.5998V29.6998H0V17.5998V3.2998H2.20004Z" fill="#FFFFFF"></path><path d="M1.09987 13.2C1.39107 13.1958 1.66989 13.0818 1.88091 12.881C2.3063 12.4472 2.3063 11.7528 1.88091 11.319L1.71591 11.187C1.65455 11.1454 1.58804 11.112 1.51791 11.088C1.45552 11.0562 1.38888 11.034 1.31991 11.022C1.24721 11.0098 1.1736 11.0024 1.09987 11C0.808669 11.0043 0.529845 11.1182 0.318825 11.319C0.219439 11.4242 0.140935 11.5475 0.0878254 11.682C-0.0780769 12.0924 0.0122863 12.5618 0.318825 12.881C0.424013 12.9804 0.547247 13.0589 0.681825 13.112C0.814212 13.1685 0.956138 13.1984 1.09987 13.2Z" fill="#428DFF"></path><path d="M8.80041 13.2C9.80626 13.1986 10.7812 12.8514 11.5614 12.2166C13.3569 13.6735 15.9735 13.4922 17.5509 11.8019C19.1284 10.1114 19.1284 7.48855 17.5509 5.79807C15.9735 4.1076 13.3569 3.92648 11.5614 5.38338C10.0578 4.16316 7.93299 4.06957 6.32785 5.15264C4.72271 6.23571 4.01424 8.24123 4.58311 10.0923C5.15171 11.9434 6.86385 13.205 8.80041 13.2ZM14.3003 6.6C15.5154 6.6 16.5004 7.58497 16.5004 8.80004C16.5004 10.0151 15.5154 11.0001 14.3003 11.0001C13.0852 11.0001 12.1003 10.0151 12.1003 8.80004C12.1003 7.58497 13.0854 6.6 14.3003 6.6ZM8.80041 6.6C9.32621 6.59858 9.83449 6.78872 10.2304 7.13457C9.78744 8.20063 9.78744 9.39933 10.2304 10.4654C9.83449 10.8114 9.32608 11.0014 8.80041 11C7.58533 11 6.60036 10.015 6.60036 8.79991C6.60036 7.58484 7.58533 6.6 8.80041 6.6Z" fill="#428DFF"></path><path d="M37.3998 13.1999C38.6149 13.1999 39.5998 12.215 39.5998 10.9999V6.59995C39.5998 5.38488 38.6149 4.3999 37.3998 4.3999H32.9998C31.7848 4.3999 30.7998 5.38488 30.7998 6.59995V10.9999C30.7998 12.215 31.7848 13.1999 32.9998 13.1999H37.3998ZM32.9998 6.59995H37.3998V10.9999H32.9998V6.59995Z" fill="#428DFF"></path><path d="M62.7 17.6H44V3.3C44 1.47752 42.5224 0 40.7 0H3.3C1.47752 0 0 1.47752 0 3.3V7.69996C0 8.30749 0.492551 8.79991 1.09996 8.79991C1.70736 8.79991 2.19991 8.30736 2.19991 7.69996V3.3C2.19991 2.69246 2.69246 2.20004 3.29987 2.20004H40.6998C41.3074 2.20004 41.7998 2.69259 41.7998 3.3V17.6H8.79978C6.36977 17.6 4.39983 19.5699 4.39983 21.9999C4.39983 24.4299 6.3699 26.4 8.80004 26.4H22V30.8H3.3C2.69246 30.8 2.20004 30.3074 2.20004 29.7V16.5C2.20004 15.8925 1.70749 15.4 1.10009 15.4C0.49268 15.4 0 15.8925 0 16.5V29.7C0 31.5226 1.47752 33 3.3 33H22V47.3C22 49.1224 23.4776 50.6 25.3 50.6H41.8V58.2999C41.8048 62.5506 45.2494 65.9951 49.5 66H58.3C62.5506 65.9951 65.9952 62.5506 66 58.3V20.9C66 19.0775 64.5226 17.6 62.7 17.6ZM48.4 36.3C48.4 33.2625 50.8625 30.8 53.9001 30.8C56.9376 30.8 59.4001 33.2625 59.4001 36.3V44H48.4002V36.3H48.4ZM61.6 36.3H63.8001V44H61.6V36.3ZM35.2 19.8H62.7C63.3075 19.8 63.8 20.2925 63.8 20.9V26.4H61.5999C60.9924 26.4 60.5 26.8924 60.5 27.5C60.5 28.1075 60.9925 28.5999 61.5999 28.5999H63.8V34.1H61.2699C60.287 30.8518 57.2935 28.6299 53.9 28.6299C50.5064 28.6299 47.5128 30.8516 46.53 34.1H24.2V28.5999H47.3C47.9075 28.5999 48.3999 28.1074 48.3999 27.5C48.3999 26.8925 47.9075 26.4 47.3 26.4H24.2V20.9C24.2 20.2924 24.6925 19.8 25.2999 19.8H35.2ZM8.80004 24.2C7.58497 24.2 6.6 23.215 6.6 21.9999C6.6 20.7848 7.58497 19.7999 8.80004 19.7999H22.2024C22.0721 20.1522 22.0037 20.5243 22 20.8998V24.1998H8.80004V24.2ZM24.2 47.3V36.3H46.2V44H44C42.7849 44 41.7999 44.9849 41.7999 46.2V48.4H25.2999C24.6925 48.4 24.2 47.9075 24.2 47.3ZM58.3 63.8H49.5C46.8873 63.7966 44.6362 61.959 44.11 59.4H46.2C46.8075 59.4 47.3 58.9076 47.3 58.3C47.3 57.6925 46.8075 57.2001 46.2 57.2001H44V55H46.2C46.8075 55 47.3 54.5076 47.3 53.9001C47.3 53.2925 46.8075 52.8001 46.2 52.8001H44V50.6001H46.2C46.8075 50.6001 47.3 50.1077 47.3 49.5001C47.3 48.8926 46.8075 48.4002 46.2 48.4002H44V46.2H63.8V48.4H61.5999C60.9924 48.4 60.5 48.8926 60.5 49.5C60.5 50.1074 60.9925 50.6 61.5999 50.6H63.8V52.8H61.5999C60.9924 52.8 60.5 53.2924 60.5 53.9C60.5 54.5075 60.9925 54.9999 61.5999 54.9999H63.8V57.2H61.5999C60.9924 57.2 60.5 57.6924 60.5 58.2999C60.5 58.9074 60.9925 59.3999 61.5999 59.3999H63.6899C63.1637 61.959 60.9126 63.7967 58.3 63.8Z" fill="#428DFF"></path><path d="M27.5003 40.6999H38.5003C39.1079 40.6999 39.6003 40.2075 39.6003 39.6C39.6003 38.9924 39.1079 38.5 38.5003 38.5H27.5003C26.8928 38.5 26.4004 38.9924 26.4004 39.6C26.4004 40.2075 26.8929 40.6999 27.5003 40.6999Z" fill="#428DFF"></path><path d="M31.9003 44H27.5003C26.8928 44 26.4004 44.4925 26.4004 45.1C26.4004 45.7075 26.8928 46.1999 27.5003 46.1999H31.9003C32.5078 46.1999 33.0003 45.7074 33.0003 45.1C33.0003 44.4925 32.5078 44 31.9003 44Z" fill="#428DFF"></path><path d="M38.5002 44H36.3002C35.6926 44 35.2002 44.4925 35.2002 45.1C35.2002 45.7075 35.6926 46.1999 36.3002 46.1999H38.5002C39.1077 46.1999 39.6002 45.7074 39.6002 45.1C39.6002 44.4925 39.1077 44 38.5002 44Z" fill="#428DFF"></path><path d="M53.9004 49.5C52.295 49.4969 50.9215 50.6523 50.6495 52.2344C50.3775 53.8164 51.2861 55.3642 52.8004 55.8976V58.3C52.8004 58.9076 53.2928 59.4 53.9004 59.4C54.5079 59.4 55.0003 58.9076 55.0003 58.3V55.8976C56.5146 55.3643 57.4232 53.8166 57.1513 52.2344C56.8793 50.6522 55.5058 49.4969 53.9004 49.5ZM53.9004 53.9C53.2928 53.9 52.8004 53.4074 52.8004 52.8C52.8004 52.1925 53.2928 51.7 53.9004 51.7C54.5079 51.7 55.0003 52.1926 55.0003 52.8C55.0004 53.4075 54.5079 53.9 53.9004 53.9Z" fill="#428DFF"></path></svg>