<svg xmlns:xlink="http://www.w3.org/1999/xlink" xmlns="http://www.w3.org/2000/svg" width="66" height="67" viewBox="0 0 66 67" fill="none"><path d="M64.2967 45.7504V45.7394C63.5162 44.7033 62.1629 44.2787 60.9306 44.6834L60.1165 44.9583L40.5689 51.4705C40.119 51.6236 39.6471 51.7018 39.1719 51.7015H35.8718C36.1341 51.7037 36.396 51.6779 36.6529 51.6245C37.8894 50.3327 38.1101 48.3738 37.1919 46.8394L37.0929 46.6744C36.1008 45.014 34.3079 43.9985 32.3737 44.0013H26.6206C24.3418 43.9981 22.1315 43.2225 20.3504 41.8012C18.5692 40.3798 16.3589 39.6043 14.0802 39.6011H11V63.8018H38.8308C40.2432 63.802 41.6284 63.4139 42.8349 62.6798L63.4496 50.1284C64.1774 49.6892 64.6849 48.9622 64.8463 48.1276C65.008 47.2933 64.8082 46.4293 64.2967 45.7504Z" fill="#F5F5F5"></path><path d="M33.2868 51.7017H29.3927C27.4397 51.7054 25.5309 52.283 23.9036 53.3627L23.1006 53.9016" fill="#E3E7F2"></path><path d="M63.4501 50.1283L42.8354 62.6797C41.6288 63.4138 40.2437 63.802 38.8314 63.8017H35.5312C36.9436 63.802 38.3289 63.4138 39.5353 62.6797L60.15 50.1283C60.8778 49.6891 61.3854 48.9621 61.5468 48.1275C61.7082 47.2929 61.5085 46.4291 60.997 45.7501V45.7392C60.7586 45.4227 60.4594 45.1572 60.1169 44.9581L60.931 44.6832C62.1633 44.2785 63.5166 44.7031 64.2971 45.7392V45.7501C64.8086 46.4291 65.0083 47.2929 64.8469 48.1275C64.6855 48.9621 64.1778 49.6891 63.4501 50.1283Z" fill="#E3E7F2"></path><path d="M36.6539 51.624C36.6352 51.6523 36.613 51.6782 36.5879 51.701L36.6539 51.624Z" fill="#E3E7F2"></path><path d="M36.6535 51.6242C36.3966 51.6776 36.1348 51.7034 35.8724 51.7012H33.2874C34.581 50.4114 34.8305 48.4065 33.8924 46.8391L33.7934 46.6741C32.8013 45.0137 31.0084 43.9981 29.0742 44.001H32.3743C34.3085 43.9981 36.1014 45.0137 37.0935 46.6741L37.1925 46.8391C38.1107 48.3736 37.89 50.3325 36.6535 51.6242Z" fill="#E3E7F2"></path><path d="M59.3686 17.6V33.0005C59.3686 36.6457 56.4136 39.6007 52.7684 39.6007H39.568C35.9228 39.6007 32.9678 36.6457 32.9678 33.0005V17.6C32.9678 16.9924 33.4603 16.5 34.0678 16.5H58.2685C58.8762 16.5 59.3686 16.9926 59.3686 17.6Z" fill="#E3E7F2"></path><path d="M56.1025 17.6V33.0005C56.1025 36.6457 53.1475 39.6007 49.5023 39.6007H39.569C35.9238 39.6007 32.9688 36.6457 32.9688 33.0005V17.6C32.9688 16.9924 33.4613 16.5 34.0687 16.5H55.0024C55.61 16.5 56.1025 16.9926 56.1025 17.6Z" fill="#F5F5F5"></path><path d="M3.3007 37.4009H8.80091C10.016 37.4009 11.001 38.3859 11.001 39.601V62.7017C11.001 63.9168 10.016 64.9018 8.80091 64.9018H3.3007C2.08559 64.9018 1.10059 63.9168 1.10059 62.7017V39.601C1.10059 38.3859 2.08559 37.4009 3.3007 37.4009Z" fill="#E3E7F2"></path><path d="M3.3007 37.4009H5.50081C6.71592 37.4009 7.70092 38.3859 7.70092 39.601V62.7017C7.70092 63.9168 6.71592 64.9018 5.50081 64.9018H3.3007C2.08559 64.9018 1.10059 63.9168 1.10059 62.7017V39.601C1.10059 38.3859 2.08559 37.4009 3.3007 37.4009Z" fill="#E3E7F2"></path><path d="M46.2015 28.6007C48.0241 28.6007 49.5016 27.1232 49.5016 25.3006C49.5016 23.478 48.0241 22.0005 46.2015 22.0005C44.3789 22.0005 42.9014 23.478 42.9014 25.3006C42.9014 27.1232 44.3789 28.6007 46.2015 28.6007Z" fill="#E3E7F2"></path><path d="M37.3688 16.5005H34.0687C33.4612 16.5005 32.9688 16.9931 32.9688 17.6005V33.001C32.9688 36.6462 35.9238 39.6012 39.569 39.6012H42.8691C39.2239 39.6012 36.2689 36.6462 36.2689 33.001V17.6005C36.2689 16.9931 36.7614 16.5005 37.3688 16.5005Z" fill="#FFFFFF"></path><path d="M14.3011 62.7021C14.2988 63.0897 14.1928 63.4694 13.9941 63.8021H14.3011V62.7021Z" fill="#FFFFFF"></path><path d="M3.3007 64.9018H6.6008C5.38724 64.8982 4.4043 63.9153 4.40069 62.7017V39.601C4.4043 38.3874 5.38724 37.4045 6.6008 37.4009H3.3007C2.08714 37.4045 1.1042 38.3874 1.10059 39.601V62.7017C1.1042 63.9153 2.08714 64.8982 3.3007 64.9018Z" fill="#FFFFFF"></path><path d="M2.20011 39.6011V53.9015V62.7018H0V53.9015V39.6011H2.20011Z" fill="#FFFFFF"></path><path d="M1.0999 49.5014C1.39111 49.4971 1.66994 49.3832 1.88097 49.1823C2.30637 48.7485 2.30637 48.0541 1.88097 47.6203L1.71596 47.4883C1.6546 47.4467 1.58809 47.4134 1.51796 47.3893C1.45557 47.3575 1.38892 47.3353 1.31995 47.3233C1.24725 47.3111 1.17364 47.3037 1.0999 47.3013C0.808694 47.3055 0.529861 47.4195 0.318835 47.6203C0.219445 47.7255 0.140939 47.8487 0.0878279 47.9833C-0.0780796 48.3937 0.0122865 48.8631 0.318835 49.1823C0.424026 49.2817 0.547264 49.3602 0.681846 49.4133C0.814237 49.4698 0.956168 49.4997 1.0999 49.5014Z" fill="#428DFF"></path><path d="M3.3001 66.0026H8.80032C9.73363 65.9996 10.6217 65.5996 11.2424 64.9026H38.8313C40.4452 64.9031 42.0282 64.459 43.4063 63.6189L64.022 51.0686C65.8124 49.9793 66.499 47.719 65.617 45.8179C64.7349 43.9169 62.5656 42.9816 60.5778 43.6455L40.2161 50.4328C39.8796 50.5451 39.527 50.6022 39.1722 50.6022H38.5397C39.0628 49.1698 38.9121 47.5779 38.1293 46.2691L38.0315 46.1074C36.8353 44.1248 34.6917 42.9098 32.3762 42.902H26.6209C24.5912 42.8996 22.6223 42.2089 21.036 40.9428C19.06 39.3665 16.6082 38.506 14.0805 38.5019H11.898C11.4336 37.188 10.1938 36.3076 8.80032 36.3018H3.3001C1.47757 36.3018 0 37.7793 0 39.6019V44.002C0 44.6095 0.492566 45.1019 1.09999 45.1019C1.70742 45.1019 2.19998 44.6094 2.19998 44.002V39.6017C2.19998 38.9942 2.69255 38.5017 3.29997 38.5017H8.80019C9.40774 38.5017 9.90018 38.9942 9.90018 39.6017V62.7025C9.90018 63.31 9.40761 63.8024 8.80019 63.8024H3.3001C2.69255 63.8024 2.20011 63.31 2.20011 62.7025V52.8021C2.20011 52.1946 1.70755 51.7022 1.10012 51.7022C0.492695 51.7022 0.00012891 52.1947 0.00012891 52.8021V62.7025C-1.0505e-10 64.5251 1.47744 66.0026 3.3001 66.0026ZM19.6631 42.6609C21.6397 44.2377 24.0923 45.0982 26.6207 45.1018H32.3739C33.9186 45.1062 35.3491 45.9165 36.147 47.2392L36.2448 47.4008C36.8454 48.4021 36.7806 49.6672 36.081 50.6019H29.3982C27.2265 50.5996 25.103 51.2428 23.2974 52.45L22.4911 52.9867C22.1565 53.2014 21.9637 53.58 21.9869 53.9769C22.0101 54.3738 22.2458 54.7273 22.6031 54.9014C22.9605 55.0756 23.3841 55.0434 23.7111 54.8171L24.5174 54.2804C25.9619 53.3147 27.6608 52.8001 29.3982 52.8019H39.1765C39.7675 52.802 40.3548 52.707 40.9156 52.5202L61.2784 45.7319C62.0624 45.471 62.9255 45.7424 63.4191 46.4051C63.7428 46.837 63.8691 47.3855 63.7669 47.9155C63.6647 48.4455 63.3434 48.9078 62.8823 49.1883L42.2622 61.7399C41.2286 62.3697 40.0416 62.7027 38.8313 62.7025H12.1004V40.7017H14.0805C16.1094 40.7046 18.0773 41.3953 19.6631 42.6609Z" fill="#428DFF"></path><path d="M46.2013 0C40.1287 0.00670333 35.2075 4.92772 35.201 11.0003V15.4004H34.0624C32.8473 15.4004 31.8623 16.3854 31.8623 17.6005V33.001C31.8672 37.2517 35.3118 40.6965 39.5625 40.7012H52.7629C56.9145 40.697 60.3153 37.4023 60.451 33.2529C60.4778 33.1713 60.4948 33.0868 60.5017 33.001C60.4951 32.9368 60.4821 32.8735 60.4631 32.8118V27.6901C60.5144 27.5691 60.5144 27.4325 60.4631 27.3117V22.19C60.5144 22.0691 60.5144 21.9324 60.4631 21.8116V17.6006C60.4631 16.3855 59.4781 15.4005 58.263 15.4005H57.2014V11.0003C57.195 4.92772 52.2738 0.00670333 46.2013 0ZM37.4009 11.0003C37.4009 6.14 41.3409 2.19998 46.2013 2.19998C51.0616 2.19998 55.0016 6.14 55.0016 11.0003V15.4004H37.4009V11.0003ZM58.2631 20.9006H56.1016C55.494 20.9006 55.0016 21.3932 55.0016 22.0006C55.0016 22.6082 55.494 23.1006 56.1016 23.1006H58.2631V26.4007H56.1016C55.494 26.4007 55.0016 26.8931 55.0016 27.5007C55.0016 28.1082 55.494 28.6007 56.1016 28.6007H58.2631V31.9008H56.1016C55.494 31.9008 55.0016 32.3933 55.0016 33.0008C55.0016 33.6083 55.494 34.1008 56.1016 34.1008H58.152C57.6261 36.6601 55.3746 38.498 52.7619 38.5009H39.5615C36.9487 38.4975 34.6976 36.6599 34.1713 34.1008H36.3011C36.9086 34.1008 37.4011 33.6082 37.4011 33.0008C37.4011 32.3932 36.9086 31.9008 36.3011 31.9008H34.0625V28.6007H36.3011C36.9086 28.6007 37.4011 28.1081 37.4011 27.5007C37.4011 26.8933 36.9086 26.4007 36.3011 26.4007H34.0625V23.1006H36.3011C36.9086 23.1006 37.4011 22.608 37.4011 22.0006C37.4011 21.393 36.9086 20.9006 36.3011 20.9006H34.0625V17.6005H58.2633V20.9006H58.2631Z" fill="#428DFF"></path><path d="M46.2008 20.9004C43.9878 20.8977 42.1185 22.5421 41.8392 24.7374C41.5598 26.9327 42.9576 28.9929 45.1009 29.5445V31.9007C45.1009 32.5082 45.5934 33.0007 46.2008 33.0007C46.8084 33.0007 47.3008 32.5082 47.3008 31.9007V29.5445C49.444 28.9929 50.8419 26.9326 50.5625 24.7374C50.2832 22.5421 48.4138 20.8977 46.2008 20.9004ZM46.2008 27.5006C44.9857 27.5006 44.0007 26.5156 44.0007 25.3005C44.0007 24.0854 44.9857 23.1004 46.2008 23.1004C47.416 23.1004 48.401 24.0854 48.401 25.3005C48.401 26.5156 47.416 27.5006 46.2008 27.5006Z" fill="#428DFF"></path></svg>