<svg xmlns:xlink="http://www.w3.org/1999/xlink" xmlns="http://www.w3.org/2000/svg" width="66" height="66" viewBox="0 0 66 66" fill="none"><path d="M60.1074 7.7001V51.7001H25.9287C24.6285 51.7037 23.5754 52.6866 23.5716 53.9001V58.3001C23.5716 61.9451 20.4056 64.9001 16.5001 64.9001H15.3216C14.9263 64.9008 14.5319 64.8677 14.1431 64.8011C10.7408 64.2689 8.24877 61.5197 8.25015 58.3001V14.3001H3.5359C2.2357 14.2965 1.18258 13.3136 1.17871 12.1001V7.7001C1.17871 4.05502 4.3447 1.1001 8.25015 1.1001H53.036C56.9414 1.1001 60.1074 4.05502 60.1074 7.7001Z" fill="#A4C2F7"></path><path d="M64.8215 53.9002V58.3002C64.8215 61.9453 61.6555 64.9002 57.7501 64.9002H16.5C20.4055 64.9002 23.5714 61.9453 23.5714 58.3002V53.9002C23.5753 52.6867 24.6284 51.7038 25.9286 51.7002H62.4643C63.7645 51.7039 64.8177 52.6867 64.8215 53.9002Z" fill="#A4C2F7"></path><path d="M56.5717 7.7001V51.7001H22.393C21.0928 51.7037 20.0397 52.6866 20.0358 53.9001V58.3C20.0372 61.5197 17.5452 64.2689 14.1429 64.801C10.7406 64.2689 8.24863 61.5197 8.25001 58.3V14.3001H3.5359C2.2357 14.2965 1.18258 13.3136 1.17871 12.1001V7.7001C1.17871 4.05502 4.3447 1.1001 8.25015 1.1001H49.5002C53.4057 1.1001 56.5717 4.05502 56.5717 7.7001Z" fill="#F5F5F5"></path><path d="M61.2858 53.9002V58.3002C61.2858 61.9453 58.1198 64.9002 54.2144 64.9002H16.5C20.4055 64.9002 23.5714 61.9453 23.5714 58.3002V53.9002C23.5753 52.6867 24.6284 51.7038 25.9286 51.7002H58.9286C60.2288 51.7039 61.2819 52.6867 61.2858 53.9002Z" fill="#F5F5F5"></path><path d="M14.1429 64.8009C14.5317 64.8675 14.9262 64.9007 15.3214 64.8999H18.8572C18.4619 64.9007 18.0674 64.8675 17.6786 64.8009C14.2763 64.2688 11.7843 61.5196 11.7857 58.2999V14.2998H8.25V58.2998C8.24862 61.5196 10.7406 64.2688 14.1429 64.8009Z" fill="#FFFFFF"></path><path d="M3.5359 14.3001H7.07162C5.77142 14.2965 4.7183 13.3136 4.71443 12.1001V7.7001C4.71443 4.05502 7.88042 1.1001 11.7859 1.1001H8.25015C4.3447 1.1001 1.17871 4.05502 1.17871 7.7001V12.1001C1.18258 13.3137 2.2357 14.2965 3.5359 14.3001Z" fill="#FFFFFF"></path><path d="M7.07129 51.6999V37.3998V14.2998H9.42834V37.3998V51.6999H7.07129Z" fill="#FFFFFF"></path><path d="M7.07144 51.7V58.3C7.07724 62.5503 10.7675 65.9946 15.3214 66H57.75C62.3039 65.9946 65.9942 62.5503 66 58.3V53.9001C66 52.0776 64.4169 50.6001 62.4643 50.6001H61.2857V7.70009C61.2799 3.44966 57.5897 0.00541406 53.0358 0H8.24996C3.69607 0.00541406 0.00580079 3.44966 0 7.69996V12.0999C0 13.9224 1.58306 15.3999 3.53572 15.3999H7.07144V38.4999C7.07144 39.1074 7.59917 39.5999 8.24996 39.5999C8.90076 39.5999 9.42849 39.1074 9.42849 38.4999V7.69996C9.42849 7.09242 8.90076 6.6 8.24996 6.6C7.59917 6.6 7.07144 7.09255 7.07144 7.69996V13.2H3.53572C2.88479 13.2 2.35719 12.7074 2.35719 12.1V7.69996C2.36106 4.66396 4.9971 2.20365 8.24996 2.20004H53.0358C56.2886 2.20365 58.9247 4.66396 58.9287 7.70009V50.6001H25.9286C23.9758 50.6001 22.3928 52.0776 22.3928 53.9001V58.3C22.389 61.336 19.7529 63.7963 16.4999 63.8001H15.3214C12.0685 63.7965 9.4325 61.3362 9.42849 58.3V47.3001C9.42849 46.6926 8.90076 46.2001 8.24996 46.2001C7.59917 46.2001 7.07144 46.6926 7.07144 47.3001V51.7ZM24.75 58.3V53.9001C24.75 53.2926 25.2778 52.8001 25.9286 52.8001H62.4643C63.1152 52.8001 63.6428 53.2926 63.6428 53.9001V58.3C63.6389 61.336 61.0029 63.7963 57.7499 63.8001H22.262C23.8531 62.3554 24.7504 60.3717 24.75 58.3Z" fill="#428DFF"></path><path d="M7.80211 43.9123C7.86896 43.9442 7.94036 43.9663 8.01425 43.9783C8.09215 43.9906 8.17101 43.9979 8.25002 44.0004C8.56202 43.9961 8.86076 43.8821 9.08685 43.6813C9.19333 43.5761 9.27745 43.4529 9.33435 43.3183C9.5121 42.908 9.41528 42.4385 9.08685 42.1194C8.97415 42.02 8.84211 41.9415 8.69792 41.8884C8.55621 41.832 8.40401 41.8021 8.25002 41.8003C7.77117 41.7977 7.33832 42.0657 7.15463 42.4785C6.97094 42.8912 7.07315 43.3667 7.41318 43.6813L7.58997 43.8133C7.65571 43.8549 7.72698 43.8882 7.80211 43.9123Z" fill="#428DFF"></path><path d="M31.6792 15.5332C32.1394 15.9626 32.8855 15.9626 33.3457 15.5332L34.1789 14.7555L35.0121 15.5332C35.3081 15.8192 35.7462 15.9339 36.1583 15.8332C36.5703 15.7325 36.8921 15.4322 37 15.0477C37.1079 14.663 36.985 14.2541 36.6786 13.9779L35.8454 13.2002L36.6786 12.4225C36.985 12.1462 37.1079 11.7373 37 11.3527C36.8921 10.968 36.5703 10.6678 36.1583 10.5671C35.7463 10.4665 35.3081 10.5812 35.0121 10.8671L34.1789 11.6448L33.3457 10.8671C33.0498 10.5812 32.6116 10.4665 32.1994 10.5671C31.7874 10.6678 31.4656 10.9682 31.3578 11.3527C31.2499 11.7372 31.3728 12.1462 31.6792 12.4225L32.5124 13.2002L31.6792 13.9779C31.2191 14.4074 31.2191 15.1037 31.6792 15.5332Z" fill="#428DFF"></path><path d="M36.6786 41.6674C36.2184 41.238 35.4723 41.238 35.0121 41.6674L34.1789 42.4451L33.3457 41.6674C33.0498 41.3815 32.6116 41.2667 32.1994 41.3674C31.7874 41.4681 31.4656 41.7684 31.3578 42.153C31.2499 42.5375 31.3728 42.9465 31.6792 43.2228L32.5124 44.0005L31.6792 44.7781C31.3728 45.0543 31.2499 45.4633 31.3578 45.8479C31.4656 46.2326 31.7874 46.5328 32.1994 46.6335C32.6116 46.7342 33.0497 46.6194 33.3457 46.3335L34.1789 45.5558L35.0121 46.3335C35.4745 46.7504 36.2097 46.7445 36.6643 46.3201C37.1189 45.8958 37.1253 45.2097 36.6786 44.7781L35.8454 44.0005L36.6786 43.2228C37.1387 42.7932 37.1387 42.0969 36.6786 41.6674Z" fill="#428DFF"></path><path d="M22.5112 14.4102C21.8602 14.4102 21.3326 14.9027 21.3326 15.5101V16.6101H20.1541C19.5032 16.6101 18.9756 17.1025 18.9756 17.71C18.9756 18.3176 19.5033 18.81 20.1541 18.81H21.3326V19.9099C21.3326 20.5175 21.8602 21.0099 22.5112 21.0099C23.1621 21.0099 23.6897 20.5173 23.6897 19.9099V18.81H24.8682C25.5192 18.81 26.0467 18.3174 26.0467 17.71C26.0467 17.1026 25.519 16.6101 24.8682 16.6101H23.6897V15.5101C23.6898 14.9026 23.1621 14.4102 22.5112 14.4102Z" fill="#428DFF"></path><path d="M45.8461 42.7902C46.4971 42.7902 47.0247 42.2978 47.0247 41.6902V40.5903H48.2032C48.8541 40.5903 49.3817 40.0977 49.3817 39.4903C49.3817 38.8828 48.854 38.3903 48.2032 38.3903H47.0247V37.2904C47.0247 36.6829 46.4971 36.1904 45.8461 36.1904C45.1952 36.1904 44.6676 36.6829 44.6676 37.2904V38.3903H43.4891C42.8381 38.3903 42.3105 38.8828 42.3105 39.4903C42.3105 40.0978 42.8381 40.5903 43.4891 40.5903H44.6676V41.6902C44.6676 42.2976 45.1953 42.7902 45.8461 42.7902Z" fill="#428DFF"></path><path d="M15.1792 30.9336C15.6394 31.363 16.3855 31.363 16.8457 30.9336L17.6789 30.1559L18.5121 30.9336C18.8081 31.2195 19.2462 31.3343 19.6583 31.2336C20.0703 31.1329 20.3921 30.8326 20.5 30.448C20.6079 30.0634 20.485 29.6545 20.1786 29.3782L19.3454 28.6006L20.1786 27.8229C20.485 27.5466 20.6079 27.1377 20.5 26.7531C20.3921 26.3684 20.0703 26.0682 19.6583 25.9675C19.2462 25.8668 18.8081 25.9816 18.5121 26.2675L17.6789 27.0452L16.8457 26.2675C16.5497 25.9816 16.1116 25.8668 15.6994 25.9675C15.2873 26.0682 14.9656 26.3685 14.8578 26.7531C14.7499 27.1377 14.8728 27.5466 15.1792 27.8229L16.0124 28.6006L15.1792 29.3782C14.7191 29.8078 14.7191 30.5041 15.1792 30.9336Z" fill="#428DFF"></path><path d="M53.1786 26.2674C52.7184 25.838 51.9723 25.838 51.5121 26.2674L50.6789 27.0452L49.8457 26.2675C49.5498 25.9816 49.1116 25.8668 48.6994 25.9675C48.2873 26.0682 47.9656 26.3685 47.8578 26.7531C47.7499 27.1377 47.8728 27.5466 48.1792 27.8229L49.0124 28.6006L48.1792 29.3782C47.8728 29.6545 47.7499 30.0634 47.8578 30.448C47.9656 30.8326 48.2874 31.1329 48.6994 31.2336C49.1114 31.3343 49.5497 31.2195 49.8457 30.9336L50.6789 30.1559L51.5121 30.9336C51.808 31.2195 52.2462 31.3343 52.6583 31.2336C53.0705 31.1329 53.3921 30.8326 53.5 30.448C53.6079 30.0634 53.485 29.6545 53.1786 29.3782L52.3454 28.6006L53.1786 27.8229C53.6387 27.3932 53.6387 26.697 53.1786 26.2674Z" fill="#428DFF"></path><path d="M22.5112 42.7902C23.1621 42.7902 23.6897 42.2978 23.6897 41.6902V40.5903H24.8682C25.5192 40.5903 26.0467 40.0977 26.0467 39.4903C26.0467 38.8828 25.519 38.3903 24.8682 38.3903H23.6897V37.2904C23.6897 36.6829 23.162 36.1904 22.5112 36.1904C21.8604 36.1904 21.3326 36.6829 21.3326 37.2904V38.3903H20.1541C19.5032 38.3903 18.9756 38.8828 18.9756 39.4903C18.9756 40.0978 19.5033 40.5903 20.1541 40.5903H21.3326V41.6902C21.3326 42.2976 21.8604 42.7902 22.5112 42.7902Z" fill="#428DFF"></path><path d="M45.8461 14.4102C45.1952 14.4102 44.6676 14.9027 44.6676 15.5101V16.6101H43.4891C42.8381 16.6101 42.3105 17.1025 42.3105 17.71C42.3105 18.3176 42.8381 18.81 43.4891 18.81H44.6676V19.9099C44.6676 20.5175 45.1952 21.0099 45.8461 21.0099C46.4971 21.0099 47.0247 20.5173 47.0247 19.9099V18.81H48.2032C48.8541 18.81 49.3817 18.3174 49.3817 17.71C49.3817 17.1026 48.854 16.6101 48.2032 16.6101H47.0247V15.5101C47.0248 14.9026 46.4971 14.4102 45.8461 14.4102Z" fill="#428DFF"></path><path d="M28.3419 30.7557C27.886 31.2962 27.886 32.1727 28.3419 32.7132L30.5317 35.309C30.9877 35.8495 31.7271 35.8495 32.1831 35.309L41.6721 24.0606C42.1147 23.5174 42.1085 22.6538 41.6579 22.1199C41.2074 21.5858 40.479 21.5783 40.0208 22.103L31.3574 32.3727L29.9933 30.7557C29.5373 30.2151 28.7979 30.2151 28.3419 30.7557Z" fill="#428DFF"></path></svg>