<svg xmlns:xlink="http://www.w3.org/1999/xlink" xmlns="http://www.w3.org/2000/svg" width="66" height="66" viewBox="0 0 66 66" fill="none"><path d="M64.9003 16.5094V49.5033C64.9003 51.3255 63.423 52.8027 61.6009 52.8027H14.3096L18.5878 22.0084V21.9864L19.8086 13.21H61.601C63.4232 13.21 64.9003 14.6871 64.9003 16.5094Z" fill="#E3E7F2"></path><path d="M61.6009 16.5094V49.5033C61.6009 51.3255 60.1236 52.8027 58.3015 52.8027H14.3096L18.5878 22.0084V21.9864L19.8086 13.21H58.3016C60.1238 13.21 61.6009 14.6871 61.6009 16.5094Z" fill="#F5F5F5"></path><path d="M64.9005 16.5094V22.0084H18.7089L18.5879 21.9864L19.8087 13.21H61.6011C63.4234 13.21 64.9005 14.6871 64.9005 16.5094Z" fill="#A4C2F7"></path><path d="M61.6009 16.5094V22.0084H18.5879V21.9864L19.8087 13.21H58.3017C60.1238 13.21 61.6009 14.6871 61.6009 16.5094Z" fill="#E3E7F2"></path><path d="M16.8941 39.2203C16.6845 39.4341 16.6845 39.7763 16.8941 39.9901L19.4237 42.5197C19.6332 42.7335 19.6332 43.0757 19.4237 43.2895L16.8941 45.819C16.6845 46.0329 16.6845 46.375 16.8941 46.5889L19.4237 49.1184C19.6332 49.3323 19.6332 49.6744 19.4237 49.8883L16.8941 52.4178C16.6845 52.6317 16.6845 52.9738 16.8941 53.1877L19.6435 55.9371C19.7508 56.0406 19.8106 56.1839 19.8085 56.333V58.2467C19.8104 58.7642 19.6315 59.266 19.3026 59.6654L15.6953 64.0866C15.3336 64.54 14.8049 64.8293 14.228 64.8892C13.6511 64.9491 13.0743 64.7749 12.6269 64.4056L12.33 64.1637L9.6354 61.9641C9.11162 61.53 8.80901 60.8847 8.81055 60.2044V27.2104L19.8085 27.6833V36.0747C19.8106 36.2239 19.7508 36.3672 19.6435 36.4707L16.8941 39.2203Z" fill="#A4C2F7"></path><path d="M13.5947 39.22C13.3851 39.4338 13.3851 39.776 13.5947 39.9898L16.1243 42.5194C16.3338 42.7332 16.3338 43.0754 16.1243 43.2892L13.5947 45.8188C13.3851 46.0326 13.3851 46.3748 13.5947 46.5886L16.1243 49.1182C16.3338 49.332 16.3338 49.6742 16.1243 49.888L13.5947 52.4176C13.3851 52.6314 13.3851 52.9736 13.5947 53.1874L16.3441 55.9369C16.4514 56.0404 16.5112 56.1837 16.5091 56.3328V58.2465C16.511 58.7639 16.3321 59.2658 16.0032 59.6652L12.3959 64.0864C12.3767 64.1144 12.3546 64.1401 12.33 64.1633L9.6354 61.9637C9.11162 61.5296 8.80901 60.8843 8.81055 60.2041V27.353L16.5091 27.683V36.0744C16.5112 36.2235 16.4514 36.3668 16.3441 36.4703L13.5947 39.22Z" fill="#F5F5F5"></path><path d="M14.8589 1.11328C7.26625 1.11328 1.11133 7.2682 1.11133 14.8608C1.11133 22.4534 7.26625 28.6083 14.8589 28.6083C22.4515 28.6083 28.6064 22.4534 28.6064 14.8608C28.6064 11.2147 27.158 7.718 24.5798 5.13983C22.0017 2.56167 18.5048 1.11328 14.8589 1.11328ZM14.8589 13.2111C12.7329 13.2111 11.0095 11.4877 11.0095 9.36177C11.0095 7.23585 12.7329 5.51243 14.8589 5.51243C16.9848 5.51243 18.7082 7.23585 18.7082 9.36177C18.7082 11.4877 16.9848 13.2111 14.8589 13.2111Z" fill="#F0C419"></path><path d="M14.8589 1.11328C7.26625 1.11328 1.11133 7.2682 1.11133 14.8608C1.11133 22.4534 7.26625 28.6083 14.8589 28.6083C22.4515 28.6083 28.6064 22.4534 28.6064 14.8608C28.6064 11.2147 27.158 7.718 24.5798 5.13983C22.0017 2.56167 18.5048 1.11328 14.8589 1.11328ZM14.8589 13.2111C12.7329 13.2111 11.0095 11.4877 11.0095 9.36177C11.0095 7.23585 12.7329 5.51243 14.8589 5.51243C16.9848 5.51243 18.7082 7.23585 18.7082 9.36177C18.7082 11.4877 16.9848 13.2111 14.8589 13.2111Z" fill="#F5F5F5"></path><path d="M28.6072 14.8598C28.6072 22.4523 22.4523 28.6074 14.8597 28.6074C14.3083 28.6079 13.7573 28.5749 13.21 28.5084C20.1155 27.6752 25.3108 21.8155 25.3108 14.8598C25.3108 7.90417 20.1156 2.04452 13.2101 1.21129C13.7575 1.14479 14.3084 1.1118 14.8598 1.11231C18.5059 1.11231 22.0026 2.56069 24.5808 5.13886C27.1589 7.71703 28.6072 11.2138 28.6072 14.8598Z" fill="#A4C2F7"></path><path d="M8.85428 27.2132L8.80917 27.211V60.205C8.80762 60.8853 9.11024 61.5307 9.63402 61.9646L12.3286 64.1643L12.6255 64.4062C13.5267 65.1483 14.8545 65.0391 15.6224 64.1599L12.9334 61.9603C12.4096 61.5262 12.107 60.8809 12.1086 60.2006V27.2066H12.1537C6.6759 24.5447 3.60592 18.5928 4.61236 12.5862C5.61881 6.57961 10.4614 1.95362 16.5077 1.22273C15.9605 1.15365 15.4096 1.11692 14.858 1.11279C14.3402 1.11498 13.8228 1.14617 13.3085 1.20623C13.2755 1.20623 13.2413 1.20623 13.2083 1.21177H13.2369C7.17455 1.92269 2.30897 6.54984 1.2944 12.5689C0.27984 18.588 3.35988 24.5542 8.85428 27.2132Z" fill="#FFFFFF"></path><path d="M9.91058 27.2104V41.5079V60.2044H7.71094V41.5079V27.2104H9.91058Z" fill="#FFFFFF"></path><path d="M8.81158 37.1088C9.25842 37.1114 9.66234 36.8435 9.83375 36.4308C10.005 36.0181 9.90979 35.5428 9.59248 35.2282L9.42751 35.0962C9.36616 35.0546 9.29966 35.0212 9.22955 34.9972C9.16717 34.9654 9.10054 34.9432 9.03159 34.9312C8.9589 34.919 8.8853 34.9116 8.81158 34.9092C8.52044 34.9134 8.24166 35.0274 8.03068 35.2282C7.93131 35.3333 7.85282 35.4565 7.79972 35.5911C7.63385 36.0013 7.7242 36.4707 8.03068 36.7898C8.13585 36.8892 8.25906 36.9677 8.39362 37.0208C8.52598 37.0772 8.66788 37.1071 8.81158 37.1088Z" fill="#428DFF"></path><path d="M61.6008 12.1107H29.4416C28.1694 5.32717 22.3907 0.314919 15.4956 0.0142358C8.60054 -0.286448 2.40746 4.20383 0.54962 10.8507C-1.30822 17.4976 1.65904 24.5482 7.71073 27.8663V31.6056C7.71073 32.213 8.20306 32.7053 8.81049 32.7053C9.41791 32.7053 9.91024 32.2129 9.91024 31.6056V28.8407C12.7365 29.8649 15.8114 29.9844 18.7087 29.1827V35.8508L15.7315 38.828C15.3022 39.2575 15.3022 39.9537 15.7315 40.3831L18.2533 42.905L15.7315 45.4268C15.3022 45.8563 15.3022 46.5525 15.7315 46.9819L18.2533 49.5038L15.7315 52.0256C15.3022 52.4551 15.3022 53.1513 15.7315 53.5807L18.7087 56.5579V58.2253C18.7111 58.4961 18.6203 58.7594 18.4513 58.971L14.8418 63.3922C14.6602 63.6207 14.3942 63.7666 14.1038 63.7969C13.8208 63.8266 13.538 63.7387 13.3219 63.5538L10.3381 61.1188C10.0666 60.8931 9.90973 60.558 9.91037 60.2049V40.4085C9.91037 39.8011 9.41791 39.3088 8.81061 39.3088C8.20319 39.3088 7.71086 39.8012 7.71086 40.4085V60.2049C7.70983 61.2156 8.16092 62.1737 8.9404 62.817L11.9275 65.2552C12.509 65.7375 13.2408 66.0013 13.9962 66.0009C14.104 66.0009 14.214 65.9953 14.3261 65.9844C15.1988 65.8982 16.0002 65.4645 16.5499 64.7813L20.1605 60.3579C20.6459 59.7533 20.9099 59.0008 20.9084 58.2254V56.1028C20.9069 55.8109 20.7908 55.5312 20.5851 55.3241L18.0644 52.8034L20.5862 50.2816C21.0156 49.8521 21.0156 49.1559 20.5862 48.7265L18.0644 46.2046L20.5862 43.6828C21.0156 43.2534 21.0156 42.5571 20.5862 42.1277L18.0644 39.6058L20.5851 37.0852C20.7908 36.878 20.9069 36.5984 20.9084 36.3064V28.4066C23.4587 27.2636 25.637 25.4282 27.196 23.1089H63.8005V49.504C63.8005 50.7189 62.8157 51.7037 61.6008 51.7037H22.0081C21.4007 51.7037 20.9083 52.1961 20.9083 52.8034C20.9083 53.4109 21.4008 53.9032 22.0081 53.9032H61.6008C64.0304 53.9032 66 51.9336 66 49.504V16.5101C66.0001 14.0802 64.0305 12.1107 61.6008 12.1107ZM14.8595 27.5078C7.87428 27.5078 2.21182 21.8452 2.21182 14.8601C2.21182 7.87505 7.87441 2.21246 14.8595 2.21246C21.8445 2.21246 27.5071 7.87505 27.5071 14.8601C27.4993 21.8419 21.8413 27.4999 14.8595 27.5078ZM28.4057 20.909C28.7221 20.1973 28.9822 19.4619 29.1832 18.7093H47.3035C47.9109 18.7093 48.4033 18.2169 48.4033 17.6096C48.4033 17.0023 47.9109 16.5098 47.3035 16.5098H29.61C29.6722 15.9621 29.7046 15.4113 29.7068 14.8601C29.7068 14.6743 29.6859 14.4938 29.6793 14.3102H61.601C62.8158 14.3102 63.8006 15.295 63.8006 16.5098V20.909H28.4057Z" fill="#428DFF"></path><path d="M60.5015 16.5098H58.3019C57.6945 16.5098 57.2021 17.0022 57.2021 17.6095C57.2021 18.2168 57.6946 18.7093 58.3019 18.7093H60.5015C61.109 18.7093 61.6013 18.2168 61.6013 17.6095C61.6013 17.0022 61.109 16.5098 60.5015 16.5098Z" fill="#428DFF"></path><path d="M53.9019 16.5098H51.7023C51.0949 16.5098 50.6025 17.0022 50.6025 17.6095C50.6025 18.2168 51.0949 18.7093 51.7023 18.7093H53.9019C54.5094 18.7093 55.0017 18.2168 55.0017 17.6095C55.0017 17.0022 54.5094 16.5098 53.9019 16.5098Z" fill="#428DFF"></path><path d="M14.8593 4.41162C12.1259 4.41162 9.91016 6.62737 9.91016 9.36072C9.91016 12.0941 12.1259 14.3098 14.8593 14.3098C17.5926 14.3098 19.8083 12.0941 19.8083 9.36072C19.8053 6.62866 17.5913 4.41471 14.8593 4.41162ZM14.8593 12.1103C13.3408 12.1103 12.1098 10.8793 12.1098 9.36085C12.1098 7.84235 13.3408 6.61139 14.8593 6.61139C16.3777 6.61139 17.6087 7.84235 17.6087 9.36085C17.6087 10.8793 16.3777 12.1103 14.8593 12.1103Z" fill="#428DFF"></path><path d="M13.2101 37.4061C13.8175 37.4061 14.3099 36.9137 14.3099 36.3064V33.007C14.3099 32.3996 13.8174 31.9072 13.2101 31.9072C12.6027 31.9072 12.1104 32.3997 12.1104 33.007V36.3064C12.1102 36.9138 12.6027 37.4061 13.2101 37.4061Z" fill="#428DFF"></path><path d="M12.1104 44.005C12.1104 44.6124 12.6028 45.1047 13.2101 45.1047C13.8175 45.1047 14.3099 44.6123 14.3099 44.005V41.8053C14.3099 41.1979 13.8174 40.7056 13.2101 40.7056C12.6027 40.7056 12.1104 41.198 12.1104 41.8053V44.005Z" fill="#428DFF"></path><path d="M12.1104 50.6036C12.1104 51.211 12.6028 51.7034 13.2101 51.7034C13.8175 51.7034 14.3099 51.211 14.3099 50.6036V48.404C14.3099 47.7965 13.8174 47.3042 13.2101 47.3042C12.6027 47.3042 12.1104 47.7965 12.1104 48.404V50.6036Z" fill="#428DFF"></path><path d="M12.1104 58.3023C12.1104 58.9098 12.6028 59.4021 13.2101 59.4021C13.8175 59.4021 14.3099 58.9098 14.3099 58.3023V56.1027C14.3099 55.4953 13.8174 55.0029 13.2101 55.0029C12.6027 55.0029 12.1104 55.4953 12.1104 56.1027V58.3023Z" fill="#428DFF"></path><path d="M26.4074 34.1067H30.8065C31.414 34.1067 31.9063 33.6143 31.9063 33.007C31.9063 32.3996 31.4138 31.9072 30.8065 31.9072H26.4074C25.7999 31.9072 25.3076 32.3997 25.3076 33.007C25.3075 33.6144 25.7999 34.1067 26.4074 34.1067Z" fill="#428DFF"></path><path d="M47.304 34.1067C47.9115 34.1067 48.4038 33.6143 48.4038 33.007C48.4038 32.3996 47.9115 31.9072 47.304 31.9072H35.2062C34.5988 31.9072 34.1064 32.3997 34.1064 33.007C34.1064 33.6144 34.5989 34.1067 35.2062 34.1067H47.304Z" fill="#428DFF"></path><path d="M26.4074 42.9051H30.8065C31.414 42.9051 31.9063 42.4127 31.9063 41.8053C31.9063 41.1979 31.4138 40.7056 30.8065 40.7056H26.4074C25.7999 40.7056 25.3076 41.198 25.3076 41.8053C25.3076 42.4126 25.7999 42.9051 26.4074 42.9051Z" fill="#428DFF"></path><path d="M35.2062 40.7056C34.5988 40.7056 34.1064 41.198 34.1064 41.8053C34.1064 42.4126 34.5989 42.9051 35.2062 42.9051H47.304C47.9115 42.9051 48.4038 42.4127 48.4038 41.8053C48.4038 41.1979 47.9115 40.7056 47.304 40.7056H35.2062Z" fill="#428DFF"></path><path d="M60.5007 34.1067C61.1082 34.1067 61.6005 33.6143 61.6005 33.007C61.6005 32.3996 61.1082 31.9072 60.5007 31.9072H51.7023C51.0949 31.9072 50.6025 32.3997 50.6025 33.007C50.6025 33.6144 51.0949 34.1067 51.7023 34.1067H60.5007Z" fill="#428DFF"></path><path d="M26.4074 38.5062H60.5011C61.1085 38.5062 61.6009 38.0137 61.6009 37.4064C61.6009 36.799 61.1085 36.3066 60.5011 36.3066H26.4074C25.7999 36.3066 25.3076 36.7991 25.3076 37.4064C25.3075 38.0137 25.7999 38.5062 26.4074 38.5062Z" fill="#428DFF"></path></svg>