<svg width="226" height="207" viewBox="0 0 226 207" fill="none" xmlns="http://www.w3.org/2000/svg">
<g style="mix-blend-mode:hard-light" opacity="0.25">
<g style="mix-blend-mode:hard-light">
<path d="M28.0742 126.575C26.0304 126.575 24.1334 126.097 22.4612 125.132C18.4124 122.8 16.187 117.94 16.187 111.446C16.187 98.3075 25.4686 82.2777 36.8762 75.7063L37.9911 75.0643C42.7658 64.7268 50.1419 55.975 58.2741 50.998C64.4705 35.2311 75.9213 21.0714 88.1974 14.0045C96.9173 8.9844 105.305 7.89851 111.812 10.945C117.425 13.5736 121.301 19.184 122.77 26.7852C127.109 25.346 131.136 25.6994 134.174 27.8022C137.751 30.2799 139.722 34.9768 139.722 41.0225C139.722 54.1609 130.44 70.1907 119.033 76.7577L37.4898 123.705C34.1799 125.61 30.978 126.571 28.0786 126.571L28.0742 126.575ZM103.844 10.4667C99.2291 10.4667 94.0957 12.0137 88.8067 15.0602C76.7121 22.0237 65.4212 36.0369 59.3371 51.6358L59.2636 51.8297L59.0865 51.9374C51.1617 56.7291 43.6603 65.6317 39.0238 75.7537L38.9417 75.9304L37.4898 76.7664C26.4193 83.1395 17.4099 98.6996 17.4099 111.45C17.4099 117.496 19.4235 121.982 23.0748 124.084C26.7304 126.187 31.6305 125.683 36.8806 122.662L118.423 75.7149C129.494 69.3418 138.503 53.7817 138.503 41.0311C138.503 35.3905 136.719 31.0512 133.478 28.8062C130.622 26.8283 126.728 26.6043 122.515 28.1728L121.824 28.4313L121.699 27.7074C120.407 20.1492 116.708 14.5905 111.294 12.0568C109.038 11.0011 106.527 10.4753 103.844 10.4753V10.4667Z" fill="white"/>
</g>
</g>
<g style="mix-blend-mode:hard-light" opacity="0.15">
<g style="mix-blend-mode:hard-light">
<path d="M18.6372 120.917C16.5934 120.917 14.6964 120.439 13.0242 119.473C8.97534 117.142 6.75 112.282 6.75 105.788C6.75 92.6494 16.0316 76.6196 27.4392 70.0525L28.5541 69.4105C33.3288 59.073 40.7049 50.3212 48.8371 45.3442C55.0335 29.5773 66.4843 15.4133 78.7604 8.35068C87.4803 3.33059 95.8675 2.2447 102.375 5.29123C107.988 7.91977 111.864 13.5302 113.333 21.1314C117.672 19.6922 121.699 20.0455 124.736 22.1484C128.314 24.6261 130.285 29.323 130.285 35.3687C130.285 48.5071 121.003 64.5369 109.596 71.1039L28.0528 118.051C24.7429 119.956 21.541 120.917 18.6416 120.917H18.6372ZM94.4027 4.80861C89.7878 4.80861 84.6544 6.35557 79.3654 9.4021C67.2707 16.3656 55.9798 30.3787 49.8958 45.9776L49.8223 46.1716L49.6451 46.2793C41.7203 51.071 34.219 59.9736 29.5825 70.0956L29.5004 70.2723L28.0485 71.1082C16.9779 77.4814 7.96854 93.0415 7.96854 105.792C7.96854 111.838 9.98215 116.324 13.6334 118.426C17.2891 120.529 22.1891 120.025 27.4392 117.004L108.982 70.0568C120.052 63.6837 129.062 48.1236 129.062 35.373C129.062 29.7324 127.277 25.3931 124.036 23.1481C121.18 21.1702 117.287 20.9461 113.074 22.5147L112.383 22.7732L112.257 22.0493C110.965 14.4911 107.271 8.93241 101.852 6.39866C99.5966 5.34293 97.086 4.81723 94.4027 4.81723V4.80861Z" fill="white"/>
</g>
</g>
<g style="mix-blend-mode:hard-light" opacity="0.05">
<g style="mix-blend-mode:hard-light">
<path d="M11.8872 117.323C9.84337 117.323 7.94643 116.845 6.27418 115.88C2.22534 113.549 0 108.688 0 102.194C0 89.0557 9.28163 73.0259 20.6892 66.4588L21.8041 65.8168C26.5788 55.4793 33.9549 46.7275 42.0871 41.7505C48.2835 25.9836 59.7343 11.8196 72.0104 4.75702C80.7217 -0.267378 89.1089 -1.35327 95.6164 1.69757C101.229 4.32611 105.105 9.93654 106.575 17.5378C110.913 16.0985 114.94 16.4519 117.978 18.5547C121.556 21.0324 123.526 25.7294 123.526 31.775C123.526 44.9134 114.244 60.9432 102.837 67.5103L21.2942 114.458C17.9842 116.362 14.7823 117.323 11.8829 117.323H11.8872ZM87.6527 1.21495C83.0378 1.21495 77.9044 2.76191 72.6154 5.80844C60.5207 12.7719 49.2298 26.7851 43.1458 42.384L43.0723 42.5779L42.8951 42.6856C34.9703 47.4773 27.469 56.3799 22.8325 66.5019L22.7504 66.6786L21.2985 67.5146C10.2236 73.8834 1.21422 89.4435 1.21422 102.194C1.21422 108.24 3.22783 112.726 6.87913 114.828C10.5347 116.931 15.4348 116.427 20.6849 113.406L102.228 66.4588C113.298 60.0857 122.308 44.5256 122.308 31.775C122.308 26.1344 120.523 21.7952 117.282 19.5501C114.426 17.5722 110.533 17.3482 106.32 18.9167L105.628 19.1752L105.503 18.4513C104.211 10.8932 100.516 5.33444 95.0979 2.80069C92.8423 1.74497 90.3317 1.21926 87.6484 1.21926L87.6527 1.21495Z" fill="white"/>
</g>
</g>
<g opacity="0.8">
<g style="mix-blend-mode:multiply" opacity="0.03">
<path d="M173.197 129.255C175.496 127.933 178.456 127.226 181.463 127.265C182.747 127.282 184.004 127.45 185.197 127.717C186.705 128.049 188.459 128.747 189.678 129.449L220.469 147.177C223.632 149 225.439 151.857 225.439 155.02C225.439 158.182 223.632 161.039 220.469 162.862L148.861 204.091C146.744 205.311 143.429 206.336 140.651 206.336C137.652 206.461 134.627 205.815 132.251 204.514C132.195 204.496 130.756 203.678 130.708 203.648L100.966 186.523C97.8033 184.701 95.9971 181.844 95.9971 178.681C95.9971 175.518 97.8033 172.661 100.966 170.838L173.193 129.251L173.197 129.255Z" fill="black"/>
</g>
<g style="mix-blend-mode:multiply" opacity="0.05">
<path d="M173.474 129.733C175.747 128.428 178.694 127.756 181.658 127.833C182.928 127.868 184.164 128.07 185.335 128.346C186.688 128.665 188.641 129.488 189.738 130.121L220.193 147.655C223.188 149.379 224.886 152.059 224.886 155.015C224.886 157.971 223.188 160.651 220.193 162.375L149.202 203.247C147.297 204.345 143.633 205.66 141.131 205.66C138.192 205.914 135.103 205.354 132.683 204.091C132.571 204.057 131.218 203.294 131.123 203.238L101.243 186.032C98.2485 184.308 96.5503 181.628 96.5503 178.667C96.5503 175.711 98.2485 173.031 101.243 171.308L173.469 129.721L173.474 129.733Z" fill="black"/>
</g>
<g style="mix-blend-mode:multiply" opacity="0.08">
<path d="M173.75 130.212C175.993 128.919 178.935 128.286 181.852 128.402C183.11 128.458 184.324 128.695 185.473 128.98C186.67 129.277 188.826 130.234 189.803 130.794L219.921 148.134C222.742 149.758 224.332 152.266 224.332 155.015C224.332 157.764 222.742 160.272 219.921 161.897L149.548 202.411C147.854 203.385 143.84 204.992 141.619 204.992C138.741 205.371 135.591 204.901 133.119 203.682C132.951 203.63 131.685 202.924 131.546 202.842L101.524 185.558C98.702 183.933 97.1118 181.426 97.1118 178.676C97.1118 175.927 98.702 173.419 101.524 171.795L173.75 130.208V130.212Z" fill="black"/>
</g>
<g style="mix-blend-mode:multiply" opacity="0.11">
<path d="M174.027 130.69C176.239 129.415 179.173 128.816 182.047 128.971C183.291 129.044 184.484 129.316 185.607 129.613C186.653 129.889 189.004 130.975 189.859 131.466L219.64 148.612C222.293 150.141 223.775 152.473 223.775 155.015C223.775 157.562 222.293 159.893 219.64 161.418L149.889 201.579C148.407 202.432 144.043 204.328 142.098 204.328C139.277 204.832 136.066 204.453 133.551 203.272C133.327 203.203 132.147 202.553 131.961 202.445L101.8 185.079C99.1472 183.55 97.665 181.218 97.665 178.676C97.665 176.129 99.1472 173.798 101.8 172.273L174.027 130.686V130.69Z" fill="black"/>
</g>
<g style="mix-blend-mode:multiply" opacity="0.14">
<path d="M174.303 131.168C176.49 129.91 179.415 129.341 182.241 129.54C183.473 129.63 184.644 129.936 185.746 130.242C186.636 130.488 189.189 131.716 189.92 132.138L219.363 149.09C221.848 150.521 223.222 152.675 223.222 155.015C223.222 157.355 221.848 159.509 219.363 160.94L150.231 200.743C148.96 201.475 144.246 203.66 142.583 203.66C139.821 204.289 136.55 204.001 133.984 202.863C133.707 202.777 132.614 202.187 132.376 202.049L102.077 184.605C99.5924 183.175 98.2183 181.02 98.2183 178.68C98.2183 176.341 99.5924 174.186 102.077 172.755L174.303 131.168Z" fill="black"/>
</g>
<g style="mix-blend-mode:multiply" opacity="0.16">
<path d="M174.58 131.647C176.736 130.406 179.652 129.872 182.435 130.109C183.654 130.216 184.803 130.561 185.883 130.876C186.622 131.091 189.371 132.461 189.98 132.81L219.082 149.568C221.394 150.9 222.664 152.882 222.664 155.015C222.664 157.148 221.398 159.13 219.082 160.462L150.567 199.907C149.509 200.515 144.445 202.992 143.057 202.992C140.352 203.751 137.021 203.548 134.411 202.45C134.078 202.346 133.071 201.812 132.786 201.648L102.349 184.123C100.037 182.791 98.7666 180.809 98.7666 178.676C98.7666 176.543 100.037 174.561 102.349 173.23L174.575 131.643L174.58 131.647Z" fill="black"/>
</g>
<g style="mix-blend-mode:multiply" opacity="0.19">
<path d="M174.861 132.125C176.991 130.901 179.899 130.402 182.63 130.677C183.835 130.802 184.959 131.182 186.022 131.509C186.61 131.69 189.556 133.202 190.045 133.487L218.81 150.051C220.953 151.283 222.116 153.089 222.116 155.019C222.116 156.946 220.953 158.751 218.81 159.988L150.913 199.08C150.066 199.567 144.656 202.329 143.542 202.329C140.897 203.212 137.501 203.1 134.843 202.04C134.454 201.92 133.534 201.441 133.201 201.252L102.625 183.649C100.482 182.417 99.3198 180.611 99.3198 178.681C99.3198 176.754 100.482 174.949 102.625 173.712L174.852 132.125H174.861Z" fill="black"/>
</g>
<g style="mix-blend-mode:multiply" opacity="0.22">
<path d="M175.137 132.608C177.237 131.397 180.137 130.936 182.825 131.251C184.017 131.393 185.115 131.807 186.156 132.147C186.597 132.289 189.734 133.952 190.101 134.164L218.529 150.53C220.504 151.667 221.559 153.296 221.559 155.02C221.559 156.743 220.504 158.372 218.529 159.51L151.255 198.244C150.62 198.61 144.86 201.661 144.026 201.661C141.442 202.67 137.985 202.648 135.28 201.631C134.835 201.489 134.001 201.071 133.625 200.855L102.911 183.171C100.936 182.033 99.8818 180.404 99.8818 178.681C99.8818 176.957 100.936 175.328 102.911 174.191L175.137 132.604V132.608Z" fill="black"/>
</g>
<g style="mix-blend-mode:multiply" opacity="0.25">
<path d="M175.414 133.086C177.483 131.892 180.378 131.462 183.019 131.819C184.198 131.983 185.274 132.427 186.294 132.776C186.588 132.875 189.919 134.693 190.161 134.831L218.253 151.003C220.054 152.042 221.001 153.498 221.001 155.011C221.001 156.528 220.054 157.98 218.253 159.018L151.596 197.395C151.172 197.641 145.062 200.98 144.505 200.98C141.977 202.113 138.46 202.182 135.707 201.204C135.206 201.045 134.459 200.687 134.035 200.441L103.183 182.679C101.381 181.641 100.435 180.184 100.435 178.668C100.435 177.151 101.381 175.699 103.183 174.66L175.409 133.073L175.414 133.086Z" fill="black"/>
</g>
<g style="mix-blend-mode:multiply" opacity="0.27">
<path d="M175.69 133.564C177.734 132.388 180.616 131.992 183.213 132.388C184.384 132.569 185.43 133.047 186.432 133.409C186.579 133.461 190.101 135.439 190.222 135.508L217.976 151.486C219.61 152.425 220.448 153.705 220.448 155.015C220.448 156.325 219.61 157.605 217.976 158.544L151.937 196.563C151.726 196.684 145.266 200.317 144.989 200.317C142.522 201.579 138.944 201.734 136.144 200.799C135.587 200.623 134.925 200.321 134.454 200.049L103.464 182.205C101.83 181.266 100.992 179.986 100.992 178.676C100.992 177.366 101.83 176.087 103.464 175.147L175.69 133.56V133.564Z" fill="black"/>
</g>
<g style="mix-blend-mode:multiply" opacity="0.3">
<path d="M217.7 158.07L145.473 199.658C142.548 201.342 137.799 201.342 134.874 199.658L103.745 181.736C100.819 180.051 100.819 177.319 103.745 175.634L175.971 134.047C178.897 132.362 183.645 132.362 186.571 134.047L217.7 151.969C220.625 153.654 220.625 156.386 217.7 158.07Z" fill="black"/>
</g>
</g>
<g opacity="0.4">
<g style="mix-blend-mode:multiply" opacity="0.03">
<path d="M161.102 100.746C164.399 102.642 166.002 105.642 165.873 108.865C165.747 111.924 163.405 115.104 160.376 116.849L118.531 141.023L115.053 143.036L69.7206 169.222C69.1545 169.55 68.394 169.92 67.7545 170.17C65.8575 170.911 63.684 171.321 61.463 171.316C59.4797 171.316 57.5395 170.972 55.7981 170.373C54.9512 170.08 53.9487 169.614 53.2141 169.196L32.5595 157.269C29.2625 155.373 27.6594 152.374 27.789 149.15C27.9143 146.091 30.2563 142.911 33.2854 141.166L75.1305 116.992L78.609 114.979L123.941 88.793C124.507 88.4655 125.268 88.0949 125.907 87.845C127.804 87.1038 129.978 86.6945 132.199 86.6988C134.182 86.6988 136.122 87.0435 137.864 87.6425C138.711 87.9355 139.713 88.4009 140.448 88.8188L161.102 100.746Z" fill="black"/>
</g>
<g style="mix-blend-mode:multiply" opacity="0.05">
<path d="M160.826 101.225C164.084 103.103 165.385 106.046 165.117 109.14C164.879 111.885 162.096 115.216 159.37 116.789L117.931 140.726L114.487 142.717L69.5954 168.649C69.0855 168.942 68.2256 169.373 67.6552 169.601C65.7885 170.347 63.6323 170.769 61.4329 170.76C59.4668 170.752 57.5483 170.39 55.8371 169.786C55.0766 169.519 53.9488 168.976 53.292 168.597L32.8361 156.786C29.578 154.907 28.2774 151.964 28.5453 148.87C28.783 146.125 31.5657 142.794 34.2923 141.221L75.7313 117.284L79.1752 115.294L124.067 89.3616C124.577 89.0686 125.436 88.6377 126.007 88.4093C127.873 87.6638 130.03 87.2415 132.229 87.2501C134.195 87.2587 136.114 87.6207 137.825 88.224C138.585 88.4912 139.713 89.0341 140.37 89.4133L160.826 101.225Z" fill="black"/>
</g>
<g style="mix-blend-mode:multiply" opacity="0.08">
<path d="M160.549 101.703C163.773 103.56 164.767 106.43 164.365 109.416C164.036 111.842 160.791 115.332 158.367 116.728L117.339 140.433L113.929 142.402L69.4785 168.08C69.0248 168.338 68.0698 168.83 67.5643 169.036C65.7278 169.782 63.5889 170.221 61.4111 170.209C59.4623 170.196 57.561 169.812 55.8845 169.205C55.2104 168.959 53.9616 168.343 53.3739 168.007L33.1211 156.312C29.8976 154.455 28.9038 151.585 29.3056 148.594C29.634 146.168 32.8791 142.678 35.3033 141.282L76.3317 117.577L79.741 115.608L124.192 89.9302C124.645 89.6717 125.6 89.1805 126.106 88.9736C127.942 88.2281 130.081 87.7886 132.259 87.8015C134.208 87.8145 136.109 88.198 137.786 88.8056C138.46 89.0512 139.709 89.6674 140.296 90.0035L160.549 101.698V101.703Z" fill="black"/>
</g>
<g style="mix-blend-mode:multiply" opacity="0.11">
<path d="M160.273 102.181C163.457 104.017 164.676 106.938 163.608 109.696C163.608 111.838 159.482 115.453 157.36 116.672L116.738 140.14L113.363 142.092L69.3532 167.515C68.9557 167.744 67.9057 168.291 67.4649 168.476C65.6587 169.226 63.5371 169.674 61.3765 169.657C59.445 169.64 57.5654 169.235 55.9147 168.618C55.3271 168.399 53.9573 167.705 53.4431 167.412L33.389 155.833C30.2044 153.998 28.9859 151.076 30.0489 148.318C30.0489 146.177 34.1755 142.561 36.2971 141.342L76.9194 117.875L80.2941 115.923L124.304 90.499C124.702 90.2706 125.752 89.7234 126.192 89.5381C127.999 88.7926 130.12 88.3402 132.281 88.3574C134.212 88.3746 136.092 88.7797 137.743 89.3959C138.33 89.6157 139.7 90.3094 140.214 90.6024L160.268 102.181H160.273Z" fill="black"/>
</g>
<g style="mix-blend-mode:multiply" opacity="0.14">
<path d="M159.996 102.664C163.146 104.478 164.187 107.373 162.856 109.976C162.856 111.812 158.172 115.569 156.358 116.616L116.146 139.847L112.806 141.777L69.2364 166.947C68.8994 167.141 67.75 167.752 67.3741 167.912C65.5981 168.662 63.4937 169.127 61.3548 169.105C59.4406 169.084 57.5825 168.657 55.9621 168.037C55.4609 167.843 53.9658 167.072 53.5294 166.817L33.6784 155.355C30.5284 153.541 29.487 150.645 30.8179 148.043C30.8179 146.207 35.5019 142.449 37.3168 141.402L77.5285 118.172L80.8687 116.242L124.438 91.0722C124.775 90.8783 125.924 90.2664 126.3 90.1069C128.076 89.3572 130.181 88.8918 132.32 88.9133C134.234 88.9349 136.092 89.3615 137.712 89.982C138.213 90.1759 139.709 90.9472 140.145 91.2014L159.996 102.664Z" fill="black"/>
</g>
<g style="mix-blend-mode:multiply" opacity="0.16">
<path d="M159.719 103.142C162.831 104.935 163.699 107.804 162.105 110.252C162.105 111.782 156.867 115.686 155.351 116.556L115.545 139.549L112.24 141.458L69.1111 166.373C68.8302 166.537 67.5858 167.205 67.2746 167.339C65.5246 168.093 63.4462 168.567 61.3245 168.541C59.4276 168.519 57.5912 168.067 55.9967 167.438C55.5775 167.274 53.9658 166.421 53.5985 166.21L33.9463 154.864C30.8352 153.071 29.9666 150.201 31.5611 147.754C31.5611 146.224 36.7982 142.32 38.3149 141.45L78.1205 118.456L81.4261 116.547L124.555 91.6323C124.835 91.4686 126.08 90.8007 126.391 90.6671C128.141 89.913 130.219 89.439 132.341 89.4649C134.238 89.4864 136.075 89.9389 137.669 90.568C138.088 90.7317 139.7 91.5849 140.067 91.7961L159.719 103.142Z" fill="black"/>
</g>
<g style="mix-blend-mode:multiply" opacity="0.19">
<path d="M159.439 103.62C162.515 105.391 163.211 108.231 161.344 110.528C161.344 111.751 155.554 115.798 154.34 116.496L114.945 139.256L111.674 141.144L68.986 165.805C68.7613 165.934 67.4261 166.667 67.1755 166.774C65.4557 167.528 63.3946 168.02 61.2945 167.989C59.4149 167.964 57.6 167.49 56.0358 166.856C55.7031 166.723 53.9703 165.787 53.6765 165.619L34.2274 154.39C31.1508 152.619 30.4551 149.779 32.3218 147.482C32.3218 146.259 38.112 142.212 39.3263 141.514L78.7214 118.754L81.9924 116.862L124.68 92.2012C124.905 92.0719 126.24 91.3393 126.491 91.2316C128.21 90.4775 130.272 89.9863 132.372 90.0165C134.251 90.0423 136.066 90.5163 137.63 91.1497C137.963 91.2833 139.696 92.2184 139.99 92.3865L159.439 103.616V103.62Z" fill="black"/>
</g>
<g style="mix-blend-mode:multiply" opacity="0.22">
<path d="M159.162 104.099C162.2 105.848 162.723 108.662 160.592 110.808C160.592 111.726 154.249 115.919 153.337 116.44L114.348 138.964L111.112 140.834L68.8606 165.24C68.6921 165.34 67.2618 166.132 67.076 166.214C65.3865 166.973 63.3426 167.477 61.2642 167.442C59.3975 167.412 57.6086 166.917 56.0703 166.279C55.824 166.176 53.9659 165.159 53.7499 165.034L34.4996 153.92C31.4619 152.171 30.939 149.357 33.0693 147.211C33.0693 146.293 39.4126 142.101 40.3243 141.579L79.3133 119.056L82.5497 117.185L124.801 92.7788C124.97 92.6797 126.4 91.8868 126.586 91.805C128.275 91.0466 130.319 90.5424 132.397 90.5769C134.264 90.607 136.053 91.1026 137.591 91.7403C137.838 91.8437 139.696 92.8607 139.912 92.9856L159.162 104.099Z" fill="black"/>
</g>
<g style="mix-blend-mode:multiply" opacity="0.25">
<path d="M158.886 104.577C161.889 106.305 162.235 109.093 159.841 111.084C159.841 111.696 152.94 116.031 152.335 116.38L113.757 138.666L110.555 140.515L68.7442 164.667C68.6318 164.732 67.1065 165.589 66.9812 165.645C65.3176 166.404 63.2953 166.921 61.2342 166.882C59.3848 166.848 57.6174 166.331 56.1094 165.684C55.9452 165.615 53.9705 164.512 53.8236 164.426L34.7763 153.429C31.7732 151.701 31.4275 148.913 33.8214 146.923C33.8214 146.311 40.7221 141.976 41.3271 141.627L79.9055 119.34L83.1074 117.491L124.918 93.339C125.03 93.2743 126.556 92.4168 126.681 92.3608C128.345 91.6024 130.367 91.0853 132.428 91.1241C134.277 91.1586 136.045 91.6757 137.553 92.322C137.717 92.391 139.692 93.4941 139.839 93.5803L158.886 104.577Z" fill="black"/>
</g>
<g style="mix-blend-mode:multiply" opacity="0.27">
<path d="M158.609 105.055C161.573 106.762 161.746 109.524 159.084 111.359C159.084 111.665 151.63 116.147 151.328 116.319L113.156 138.369L109.988 140.196L68.6186 164.094C68.5624 164.128 66.9463 165.051 66.8815 165.076C65.2481 165.839 63.2432 166.369 61.2036 166.326C59.3715 166.287 57.6301 165.749 56.1437 165.098C56.0616 165.063 53.9702 163.874 53.8967 163.831L35.0483 152.951C32.084 151.244 31.9112 148.482 34.5729 146.646C34.5729 146.34 42.0268 141.859 42.3292 141.687L80.5015 119.637L83.6688 117.81L125.039 93.9118C125.095 93.8773 126.711 92.9552 126.776 92.9293C128.409 92.1666 130.414 91.6366 132.454 91.6797C134.286 91.7185 136.027 92.2571 137.514 92.9078C137.596 92.9423 139.687 94.1316 139.76 94.1747L158.609 105.055Z" fill="black"/>
</g>
<g style="mix-blend-mode:multiply" opacity="0.3">
<path d="M158.333 111.64L112.564 138.08L66.7954 164.521C63.87 166.206 59.1212 166.206 56.1958 164.521L35.3381 152.477C32.4127 150.792 32.4127 148.06 35.3381 146.375L81.1067 119.935L126.875 93.4941C129.801 91.8093 134.55 91.8093 137.475 93.4941L158.333 105.538C161.258 107.223 161.258 109.955 158.333 111.64Z" fill="black"/>
</g>
</g>
<path d="M164.983 183.584C164.412 183.584 163.842 183.433 163.323 183.136L93.534 142.915C91.2395 141.592 89.8179 139.132 89.8179 136.49V111.123C89.8179 110.562 90.2716 110.11 90.8333 110.11C91.3951 110.11 91.8488 110.562 91.8488 111.123V136.49C91.8488 138.408 92.8858 140.2 94.5494 141.157L164.339 181.378C164.918 181.71 165.428 181.49 165.622 181.378C165.817 181.266 166.262 180.938 166.262 180.27V176.978C166.262 176.418 166.715 175.966 167.277 175.966C167.839 175.966 168.293 176.418 168.293 176.978V180.27C168.293 181.464 167.67 182.537 166.633 183.136C166.115 183.433 165.544 183.584 164.974 183.584H164.983Z" fill="#A406BF"/>
<path d="M164.983 182.976C164.516 182.976 164.054 182.856 163.63 182.61L93.8409 142.389C91.7365 141.174 90.4272 138.916 90.4272 136.49V111.122C90.4272 110.898 90.6087 110.717 90.8334 110.717C91.0581 110.717 91.2396 110.898 91.2396 111.122V136.49C91.2396 138.627 92.3933 140.618 94.2471 141.687L164.036 181.908C164.628 182.248 165.337 182.248 165.929 181.908C166.521 181.567 166.875 180.955 166.875 180.275V176.982C166.875 176.758 167.057 176.577 167.282 176.577C167.506 176.577 167.688 176.758 167.688 176.982V180.275C167.688 181.248 167.182 182.123 166.335 182.61C165.912 182.856 165.445 182.976 164.983 182.976Z" fill="white"/>
<path d="M179.195 175.194C178.624 175.194 178.054 175.044 177.535 174.746L107.746 134.525C105.451 133.202 104.03 130.742 104.03 128.1V102.733C104.03 102.173 104.483 101.72 105.045 101.72C105.607 101.72 106.061 102.173 106.061 102.733V128.1C106.061 130.018 107.098 131.811 108.761 132.767L178.551 172.988C179.13 173.32 179.64 173.1 179.834 172.988C180.029 172.876 180.474 172.549 180.474 171.881V168.589C180.474 168.028 180.927 167.576 181.489 167.576C182.051 167.576 182.505 168.028 182.505 168.589V171.881C182.505 173.079 181.887 174.147 180.845 174.746C180.327 175.044 179.756 175.194 179.19 175.194H179.195Z" fill="#A406BF"/>
<path d="M179.195 174.583C178.728 174.583 178.266 174.462 177.842 174.217L108.053 133.996C105.948 132.78 104.639 130.522 104.639 128.096V102.729C104.639 102.505 104.821 102.324 105.045 102.324C105.27 102.324 105.452 102.505 105.452 102.729V128.096C105.452 130.234 106.605 132.224 108.459 133.293L178.248 173.514C178.84 173.855 179.549 173.855 180.141 173.514C180.733 173.174 181.087 172.562 181.087 171.881V168.589C181.087 168.365 181.269 168.184 181.494 168.184C181.718 168.184 181.9 168.365 181.9 168.589V171.881C181.9 172.855 181.394 173.73 180.547 174.217C180.124 174.462 179.661 174.583 179.195 174.583Z" fill="white"/>
<path d="M193.407 166.8C192.836 166.8 192.266 166.65 191.747 166.352L121.958 126.131C119.663 124.808 118.242 122.348 118.242 119.706V94.3388C118.242 93.7786 118.695 93.3262 119.257 93.3262C119.819 93.3262 120.273 93.7786 120.273 94.3388V119.706C120.273 121.628 121.31 123.417 122.973 124.373L192.763 164.594C193.342 164.926 193.852 164.706 194.046 164.594C194.24 164.482 194.686 164.155 194.686 163.487V160.195C194.686 159.634 195.139 159.182 195.701 159.182C196.263 159.182 196.716 159.634 196.716 160.195V163.487C196.716 164.685 196.099 165.753 195.057 166.352C194.539 166.65 193.968 166.8 193.398 166.8H193.407Z" fill="#A406BF"/>
<path d="M193.407 166.193C192.94 166.193 192.478 166.072 192.054 165.826L122.265 125.605C120.16 124.395 118.851 122.132 118.851 119.706V94.3386C118.851 94.1146 119.033 93.9336 119.257 93.9336C119.482 93.9336 119.663 94.1146 119.663 94.3386V119.706C119.663 121.844 120.817 123.834 122.671 124.903L192.46 165.124C193.052 165.464 193.761 165.464 194.353 165.124C194.945 164.784 195.299 164.172 195.299 163.491V160.199C195.299 159.975 195.481 159.794 195.705 159.794C195.93 159.794 196.112 159.975 196.112 160.199V163.491C196.112 164.465 195.606 165.339 194.759 165.826C194.336 166.072 193.869 166.193 193.407 166.193Z" fill="white"/>
<path d="M161.349 180.072C162.368 180.659 162.913 181.395 162.567 181.714C162.222 182.037 161.12 181.822 160.1 181.236C159.084 180.65 158.536 179.913 158.881 179.594C159.227 179.271 160.329 179.486 161.349 180.072Z" fill="#FAFBFE"/>
<path d="M219.895 144.686V140.847L218.175 141.937C218.024 141.833 217.868 141.73 217.695 141.631L186.566 123.709C183.641 122.025 178.892 122.025 175.967 123.709L103.74 165.296C103.598 165.378 103.468 165.465 103.338 165.555L101.558 164.258V168.209C101.493 169.36 102.215 170.523 103.74 171.402L134.869 189.324C137.795 191.009 142.543 191.009 145.469 189.324L217.695 147.737C219.16 146.892 219.89 145.789 219.89 144.686H219.895Z" fill="url(#paint0_linear_529_572)"/>
<path d="M217.7 143.884L145.473 185.471C142.548 187.156 137.799 187.156 134.874 185.471L103.745 167.55C100.819 165.865 100.819 163.133 103.745 161.448L175.971 119.861C178.897 118.176 183.645 118.176 186.571 119.861L217.7 137.783C220.625 139.468 220.625 142.2 217.7 143.884Z" fill="url(#paint1_linear_529_572)"/>
<path d="M140.171 187.13C138.179 187.13 136.183 186.695 134.666 185.82L103.537 167.899C103.459 167.851 101.9 166.873 101.442 165.8C101.355 165.594 101.45 165.357 101.658 165.27C101.865 165.18 102.103 165.279 102.189 165.486C102.487 166.18 103.567 166.964 103.956 167.205L135.077 185.122C137.885 186.743 142.461 186.738 145.27 185.122L217.497 143.535C217.868 143.324 218.897 142.626 219.203 141.919C219.294 141.713 219.532 141.622 219.739 141.708C219.947 141.799 220.042 142.036 219.951 142.243C219.471 143.35 217.963 144.208 217.898 144.242L145.676 185.825C144.16 186.699 142.168 187.135 140.171 187.135V187.13Z" fill="white"/>
<g style="mix-blend-mode:multiply">
<path d="M213.469 141.45L141.243 183.037C140.651 183.378 139.687 183.378 139.095 183.037L107.975 165.116C107.374 164.771 107.374 164.215 107.966 163.875L180.193 122.292C180.785 121.952 181.748 121.952 182.34 122.292L213.469 140.213C214.061 140.558 214.061 141.11 213.469 141.45Z" fill="#CECDF7"/>
</g>
<path d="M107.966 164.038C107.823 164.038 107.689 163.965 107.612 163.836C107.499 163.642 107.564 163.392 107.759 163.28L179.985 121.697C180.702 121.283 181.826 121.283 182.539 121.697L213.668 139.618C213.862 139.731 213.927 139.98 213.815 140.174C213.702 140.368 213.456 140.433 213.257 140.321L182.128 122.399C181.666 122.132 180.854 122.132 180.387 122.399L108.16 163.982C108.096 164.021 108.027 164.038 107.957 164.038H107.966Z" fill="white"/>
<path d="M162.381 44.7021L149.185 37.1396L151.103 46.499L162.381 44.7021Z" fill="url(#paint2_linear_529_572)"/>
<path d="M134.757 34.7657C134.381 32.5595 133.806 30.5428 133.063 28.7244H141.588L125.333 19.365C125.285 19.3349 125.238 19.309 125.186 19.2832L124.987 19.1711C118.804 15.7497 110.321 16.3142 100.953 21.7049C88.245 29.0217 77.1615 43.3537 71.22 58.5864C62.8501 63.6495 55.4784 72.7245 50.9197 82.6699L49.6407 83.4067C38.38 89.8876 29.2539 105.655 29.2539 118.616C29.2539 125.114 31.5484 129.673 35.2515 131.789L52.0216 141.442L52.445 128.734L131.179 83.4024C142.44 76.9215 151.566 61.1546 151.566 48.1928C151.566 36.6315 144.306 31.2107 134.753 34.7657H134.757Z" fill="url(#paint3_linear_529_572)"/>
<path d="M151.371 44.3316C148.489 27.5003 134.459 21.5452 117.576 31.2665C104.868 38.5833 93.7845 52.9153 87.843 68.148C79.4731 73.2068 72.1014 82.2861 67.5427 92.2315L66.2593 92.9683C54.9986 99.4492 45.8726 115.216 45.8726 128.178C45.8726 141.14 54.9986 146.397 66.2593 139.916L147.802 92.9683C159.063 86.4874 168.189 70.7205 168.189 57.7588C168.189 46.1975 160.929 40.7766 151.376 44.3316H151.371Z" fill="url(#paint4_linear_529_572)"/>
<path d="M45.8724 128.785C45.8724 128.785 45.8551 128.785 45.8465 128.785C45.5095 128.772 45.2502 128.488 45.2632 128.152C45.8033 114.975 51.7491 105.766 56.6405 100.358C61.4412 95.0582 66.0734 92.3391 67.0672 91.7876C74.1105 76.3524 85.7904 68.6952 87.3589 67.7213C97.2714 45.146 109.548 35.0024 118.108 30.4649C127.471 25.5052 134.398 25.9576 134.687 25.9748C135.024 26.0007 135.275 26.2894 135.249 26.6255C135.223 26.9616 134.938 27.2159 134.597 27.1857C134.528 27.1857 127.666 26.7505 118.596 31.581C110.204 36.0495 98.1572 46.0595 88.396 68.3806L88.3182 68.5616L88.1453 68.6607C88.02 68.7339 75.4371 76.2231 68.0913 92.4684L68.0049 92.658L67.8191 92.7571C67.616 92.8648 47.4842 103.694 46.4774 128.191C46.4644 128.518 46.1922 128.772 45.8681 128.772L45.8724 128.785Z" fill="white"/>
<path d="M151.937 44.7366C151.708 44.7366 151.492 44.6073 151.384 44.3919C151.237 44.0902 151.367 43.724 151.674 43.5818C151.79 43.5258 154.565 42.233 158.57 42.7846C158.903 42.832 159.136 43.1379 159.093 43.4697C159.046 43.8015 158.739 44.0342 158.406 43.9911C154.763 43.487 152.227 44.6677 152.205 44.6806C152.119 44.7194 152.032 44.7409 151.942 44.7409L151.937 44.7366Z" fill="white"/>
<g style="mix-blend-mode:screen" opacity="0.7">
<path d="M132.575 57.164L119.529 64.6747C118.661 65.1746 117.957 64.6446 117.957 63.4897V47.7874C117.957 46.6326 118.661 45.2882 119.529 44.7883L132.575 37.2776C133.443 36.7777 134.148 37.3077 134.148 38.4626V54.1649C134.148 55.3197 133.443 56.6642 132.575 57.164Z" fill="#DAB6F7"/>
</g>
<g style="mix-blend-mode:screen" opacity="0.2">
<path d="M143.675 78.7314L130.63 86.2421C129.761 86.742 129.057 86.212 129.057 85.0571V69.3548C129.057 68.2 129.761 66.8555 130.63 66.3557L143.675 58.8449C144.544 58.3451 145.248 58.8751 145.248 60.0299V75.7323C145.248 76.8871 144.544 78.2315 143.675 78.7314Z" fill="#DAB6F7"/>
</g>
<g style="mix-blend-mode:screen" opacity="0.2">
<path d="M105.823 95.9632L97.799 100.583C97.2632 100.888 96.8311 100.565 96.8311 99.8543V90.1976C96.8311 89.4866 97.2632 88.6593 97.799 88.3533L105.823 83.734C106.359 83.428 106.791 83.7512 106.791 84.4622V94.1189C106.791 94.8299 106.359 95.6572 105.823 95.9632Z" fill="#DAB6F7"/>
</g>
<g style="mix-blend-mode:screen" opacity="0.35">
<path d="M122.489 69.1347L114.435 73.7713C113.899 74.0816 113.462 73.7541 113.462 73.0388V63.339C113.462 62.6237 113.899 61.7963 114.435 61.4861L122.489 56.8495C123.025 56.5392 123.461 56.8667 123.461 57.5821V67.2818C123.461 67.9971 123.025 68.8245 122.489 69.1347Z" fill="#DAB6F7"/>
</g>
<g style="mix-blend-mode:screen" opacity="0.35">
<path d="M98.9912 73.1679L93.888 76.1067C93.5466 76.3006 93.2744 76.0938 93.2744 75.6414V69.4966C93.2744 69.0441 93.551 68.5184 93.888 68.3245L98.9912 65.3857C99.3325 65.1918 99.6048 65.3987 99.6048 65.8511V71.9959C99.6048 72.4483 99.3282 72.974 98.9912 73.1679Z" fill="#DAB6F7"/>
</g>
<g style="mix-blend-mode:screen" opacity="0.35">
<path d="M118.92 97.562L113.817 100.501C113.475 100.695 113.203 100.488 113.203 100.035V93.8906C113.203 93.4382 113.48 92.9125 113.817 92.7186L118.92 89.7798C119.261 89.5859 119.533 89.7927 119.533 90.2451V96.3899C119.533 96.8424 119.257 97.3681 118.92 97.562Z" fill="#DAB6F7"/>
</g>
<g style="mix-blend-mode:screen" opacity="0.35">
<path d="M110.075 54.6089L104.972 57.5477C104.631 57.7416 104.358 57.5347 104.358 57.0823V50.9375C104.358 50.4851 104.635 49.9594 104.972 49.7654L110.075 46.8266C110.417 46.6327 110.689 46.8396 110.689 47.292V53.4368C110.689 53.8892 110.412 54.415 110.075 54.6089Z" fill="#DAB6F7"/>
</g>
<g style="mix-blend-mode:screen" opacity="0.35">
<path d="M97.639 113.73L87.2771 119.693C86.5857 120.09 86.0283 119.668 86.0283 118.75V106.275C86.0283 105.357 86.5901 104.288 87.2771 103.892L97.639 97.9282C98.3304 97.5318 98.8878 97.9541 98.8878 98.8719V111.347C98.8878 112.265 98.3261 113.333 97.639 113.73Z" fill="#DAB6F7"/>
</g>
<g style="mix-blend-mode:screen" opacity="0.1">
<path d="M159.469 77.8346L149.107 83.7984C148.416 84.1948 147.858 83.7725 147.858 82.8547V70.3799C147.858 69.4621 148.42 68.3934 149.107 67.997L159.469 62.0332C160.16 61.6368 160.718 62.059 160.718 62.9769V75.4517C160.718 76.3695 160.156 77.4382 159.469 77.8346Z" fill="#DAB6F7"/>
</g>
<g style="mix-blend-mode:screen" opacity="0.2">
<path d="M114.811 63.4167L110.222 66.0582C109.915 66.2349 109.669 66.0453 109.669 65.6402V60.1159C109.669 59.7109 109.915 59.2369 110.222 59.0602L114.811 56.4187C115.118 56.2421 115.364 56.4317 115.364 56.8367V62.361C115.364 62.766 115.118 63.24 114.811 63.4167Z" fill="#DAB6F7"/>
</g>
<g style="mix-blend-mode:screen" opacity="0.07">
<path d="M158.445 58.302L153.856 60.9434C153.549 61.1201 153.303 60.9305 153.303 60.5255V55.0012C153.303 54.5961 153.549 54.1221 153.856 53.9455L158.445 51.304C158.752 51.1273 158.998 51.3169 158.998 51.722V57.2462C158.998 57.6513 158.752 58.1253 158.445 58.302Z" fill="#DAB6F7"/>
</g>
<g style="mix-blend-mode:screen" opacity="0.07">
<path d="M109.085 85.2463L104.496 87.8878C104.19 88.0644 103.943 87.8748 103.943 87.4698V81.9455C103.943 81.5405 104.19 81.0665 104.496 80.8898L109.085 78.2483C109.392 78.0717 109.639 78.2613 109.639 78.6663V84.1906C109.639 84.5956 109.392 85.0696 109.085 85.2463Z" fill="#DAB6F7"/>
</g>
<g style="mix-blend-mode:screen" opacity="0.07">
<path d="M117.485 90.8054L112.896 93.4468C112.59 93.6235 112.343 93.4339 112.343 93.0289V87.5046C112.343 87.0996 112.59 86.6256 112.896 86.4489L117.485 83.8074C117.792 83.6307 118.038 83.8203 118.038 84.2254V89.7496C118.038 90.1547 117.792 90.6287 117.485 90.8054Z" fill="#DAB6F7"/>
</g>
<g style="mix-blend-mode:screen" opacity="0.2">
<path d="M82.688 117.134L78.099 119.775C77.7922 119.952 77.5459 119.763 77.5459 119.357V113.833C77.5459 113.428 77.7922 112.954 78.099 112.778L82.688 110.136C82.9948 109.959 83.2411 110.149 83.2411 110.554V116.078C83.2411 116.483 82.9948 116.957 82.688 117.134Z" fill="#DAB6F7"/>
</g>
<g style="mix-blend-mode:screen" opacity="0.2">
<path d="M87.5278 106.792L82.9388 109.433C82.632 109.61 82.3857 109.42 82.3857 109.015V103.491C82.3857 103.086 82.632 102.612 82.9388 102.435L87.5278 99.7937C87.8346 99.6171 88.0809 99.8067 88.0809 100.212V105.736C88.0809 106.141 87.8346 106.615 87.5278 106.792Z" fill="#DAB6F7"/>
</g>
<g style="mix-blend-mode:screen" opacity="0.2">
<path d="M122.248 79.5544L117.659 82.1959C117.352 82.3725 117.105 82.1829 117.105 81.7779V76.2536C117.105 75.8486 117.352 75.3746 117.659 75.1979L122.248 72.5564C122.554 72.3798 122.801 72.5694 122.801 72.9744V78.4987C122.801 78.9037 122.554 79.3777 122.248 79.5544Z" fill="#DAB6F7"/>
</g>
<g style="mix-blend-mode:screen" opacity="0.2">
<path d="M104.107 67.4929L99.5184 70.1343C99.2116 70.311 98.9653 70.1214 98.9653 69.7164V64.1921C98.9653 63.7871 99.2116 63.3131 99.5184 63.1364L104.107 60.4949C104.414 60.3182 104.66 60.5078 104.66 60.9129V66.4371C104.66 66.8422 104.414 67.3162 104.107 67.4929Z" fill="#DAB6F7"/>
</g>
<g style="mix-blend-mode:screen" opacity="0.2">
<path d="M135.591 76.0681L131.002 78.7095C130.695 78.8862 130.449 78.6966 130.449 78.2916V72.7673C130.449 72.3623 130.695 71.8883 131.002 71.7116L135.591 69.0701C135.898 68.8934 136.144 69.083 136.144 69.4881V75.0123C136.144 75.4174 135.898 75.8914 135.591 76.0681Z" fill="#DAB6F7"/>
</g>
<g style="mix-blend-mode:screen" opacity="0.2">
<path d="M85.514 98.3419L78.7645 102.229C78.3151 102.487 77.9521 102.211 77.9521 101.617V93.4942C77.9521 92.8952 78.3151 92.2014 78.7645 91.9429L85.514 88.0561C85.9634 87.7976 86.3264 88.0733 86.3264 88.668V96.7906C86.3264 97.3896 85.9634 98.0834 85.514 98.3419Z" fill="#DAB6F7"/>
</g>
<g style="mix-blend-mode:screen" opacity="0.5">
<path d="M130.008 69.3117L125.419 71.9532C125.112 72.1299 124.866 71.9403 124.866 71.5352V66.011C124.866 65.6059 125.112 65.1319 125.419 64.9552L130.008 62.3138C130.315 62.1371 130.561 62.3267 130.561 62.7317V68.256C130.561 68.661 130.315 69.1351 130.008 69.3117Z" fill="#DAB6F7"/>
</g>
<g style="mix-blend-mode:screen" opacity="0.5">
<path d="M100.154 89.3614L93.3048 93.3043C92.8468 93.5671 92.4795 93.287 92.4795 92.6794V84.4362C92.4795 83.8286 92.8511 83.1262 93.3048 82.8633L100.154 78.9205C100.612 78.6577 100.979 78.9378 100.979 79.5453V87.7886C100.979 88.3962 100.607 89.0986 100.154 89.3614Z" fill="#DAB6F7"/>
</g>
<g style="mix-blend-mode:screen" opacity="0.5">
<path d="M110.11 70.0571L103.952 73.6035C103.542 73.8405 103.209 73.5905 103.209 73.0433V65.6317C103.209 65.0844 103.542 64.451 103.952 64.214L110.11 60.6676C110.52 60.4306 110.853 60.6805 110.853 61.2278V68.6394C110.853 69.1867 110.52 69.8201 110.11 70.0571Z" fill="#DAB6F7"/>
</g>
<g style="mix-blend-mode:screen" opacity="0.45">
<path d="M139.713 57.4658L132.976 61.344C132.527 61.6025 132.164 61.3267 132.164 60.7321V52.6224C132.164 52.0234 132.527 51.3339 132.976 51.0754L139.713 47.1972C140.162 46.9387 140.525 47.2145 140.525 47.8091V55.9188C140.525 56.5178 140.162 57.2072 139.713 57.4658Z" fill="#DAB6F7"/>
</g>
<g style="mix-blend-mode:screen" opacity="0.45">
<path d="M132.35 92.335L124.533 96.838C124.01 97.1396 123.591 96.8207 123.591 96.127V86.7159C123.591 86.0222 124.015 85.2164 124.533 84.919L132.35 80.416C132.873 80.1144 133.292 80.4333 133.292 81.127V90.5381C133.292 91.2318 132.869 92.0333 132.35 92.335Z" fill="#DAB6F7"/>
</g>
<g style="mix-blend-mode:screen" opacity="0.2">
<path d="M148.126 60.9562L139.367 65.9979C138.784 66.334 138.309 65.9763 138.309 65.2007V54.6563C138.309 53.8807 138.784 52.9801 139.367 52.644L148.126 47.598C148.709 47.2619 149.185 47.6196 149.185 48.3952V58.9396C149.185 59.7152 148.709 60.6158 148.126 60.9519V60.9562Z" fill="#DAB6F7"/>
</g>
<g style="mix-blend-mode:screen" opacity="0.2">
<path d="M148.338 80.3037L142.163 83.8587C141.753 84.0957 141.42 83.8458 141.42 83.2985V75.8654C141.42 75.3181 141.753 74.6847 142.163 74.4477L148.338 70.8927C148.748 70.6557 149.081 70.9056 149.081 71.4529V78.886C149.081 79.4333 148.748 80.0667 148.338 80.3037Z" fill="#DAB6F7"/>
</g>
<g style="mix-blend-mode:screen" opacity="0.2">
<path d="M108.731 110.881L102.556 114.436C102.146 114.673 101.813 114.423 101.813 113.876V106.443C101.813 105.896 102.146 105.262 102.556 105.025L108.731 101.47C109.142 101.233 109.474 101.483 109.474 102.031V109.464C109.474 110.011 109.142 110.644 108.731 110.881Z" fill="#DAB6F7"/>
</g>
<g style="mix-blend-mode:screen" opacity="0.2">
<path d="M109.63 76.8137L107.742 77.9039C107.616 77.9772 107.513 77.8996 107.513 77.7316V75.4564C107.513 75.2883 107.616 75.0944 107.742 75.0211L109.63 73.9309C109.755 73.8577 109.859 73.9352 109.859 74.1033V76.3785C109.859 76.5466 109.755 76.7405 109.63 76.8137Z" fill="#DAB6F7"/>
</g>
<g style="mix-blend-mode:screen" opacity="0.2">
<path d="M94.9381 97.2473L93.0498 98.3375C92.9245 98.4108 92.8208 98.3332 92.8208 98.1651V95.8899C92.8208 95.7219 92.9245 95.528 93.0498 95.4547L94.9381 94.3645C95.0634 94.2913 95.1671 94.3688 95.1671 94.5369V96.8121C95.1671 96.9801 95.0634 97.1741 94.9381 97.2473Z" fill="#DAB6F7"/>
</g>
<g style="mix-blend-mode:screen" opacity="0.2">
<path d="M138.261 89.3401L136.373 90.4303C136.248 90.5035 136.144 90.426 136.144 90.2579V87.9827C136.144 87.8147 136.248 87.6208 136.373 87.5475L138.261 86.4573C138.387 86.3841 138.49 86.4616 138.49 86.6297V88.9049C138.49 89.0729 138.387 89.2668 138.261 89.3401Z" fill="#DAB6F7"/>
</g>
<g style="mix-blend-mode:screen" opacity="0.2">
<path d="M111.069 110.399L109.181 111.489C109.055 111.562 108.952 111.485 108.952 111.317V109.041C108.952 108.873 109.055 108.679 109.181 108.606L111.069 107.516C111.194 107.443 111.298 107.52 111.298 107.688V109.963C111.298 110.132 111.194 110.325 111.069 110.399Z" fill="#DAB6F7"/>
</g>
<g style="mix-blend-mode:screen" opacity="0.2">
<path d="M109.63 102.276L107.742 103.366C107.616 103.44 107.513 103.362 107.513 103.194V100.919C107.513 100.751 107.616 100.557 107.742 100.484L109.63 99.3933C109.755 99.3201 109.859 99.3976 109.859 99.5657V101.841C109.859 102.009 109.755 102.203 109.63 102.276Z" fill="#DAB6F7"/>
</g>
<g style="mix-blend-mode:screen" opacity="0.2">
<path d="M78.4879 100.626L76.5996 101.716C76.4743 101.789 76.3706 101.712 76.3706 101.544V99.2684C76.3706 99.1003 76.4743 98.9064 76.5996 98.8332L78.4879 97.743C78.6132 97.6697 78.7169 97.7473 78.7169 97.9153V100.191C78.7169 100.359 78.6132 100.552 78.4879 100.626Z" fill="#DAB6F7"/>
</g>
<g style="mix-blend-mode:screen" opacity="0.2">
<path d="M94.5191 86.0265L85.7603 91.0682C85.177 91.4043 84.7017 91.0466 84.7017 90.271V79.7266C84.7017 78.951 85.177 78.0504 85.7603 77.7143L94.5191 72.6684C95.1024 72.3322 95.5778 72.6899 95.5778 73.4655V84.0099C95.5778 84.7855 95.1024 85.6861 94.5191 86.0222V86.0265Z" fill="#DAB6F7"/>
</g>
<defs>
<linearGradient id="paint0_linear_529_572" x1="101.554" y1="156.519" x2="219.895" y2="156.519" gradientUnits="userSpaceOnUse">
<stop stop-color="#E2BFFF"/>
<stop offset="1" stop-color="#ECD4FF"/>
</linearGradient>
<linearGradient id="paint1_linear_529_572" x1="-577.32" y1="561.528" x2="-477.671" y2="571.779" gradientUnits="userSpaceOnUse">
<stop stop-color="#9F40F6"/>
<stop offset="1" stop-color="#D6A8FF"/>
</linearGradient>
<linearGradient id="paint2_linear_529_572" x1="150.628" y1="49.7351" x2="155.762" y2="40.9106" gradientUnits="userSpaceOnUse">
<stop offset="0.24" stop-color="#9921FF"/>
<stop offset="0.58" stop-color="#9922FE"/>
<stop offset="0.7" stop-color="#9C29FE"/>
<stop offset="0.79" stop-color="#A135FD"/>
<stop offset="0.86" stop-color="#A946FC"/>
<stop offset="0.92" stop-color="#B25CFB"/>
<stop offset="0.97" stop-color="#BE76FA"/>
<stop offset="1" stop-color="#C78BF9"/>
</linearGradient>
<linearGradient id="paint3_linear_529_572" x1="53.9531" y1="143.139" x2="127.458" y2="22.0408" gradientUnits="userSpaceOnUse">
<stop stop-color="#F6F8F3"/>
<stop offset="0.27" stop-color="#AD50FC"/>
<stop offset="0.36" stop-color="#9E2EFE"/>
<stop offset="0.58" stop-color="#9921FF"/>
<stop offset="0.88" stop-color="#AD4FFC"/>
<stop offset="0.9" stop-color="#AE52FB"/>
<stop offset="0.92" stop-color="#B25CFB"/>
<stop offset="0.94" stop-color="#BA6EFA"/>
<stop offset="0.95" stop-color="#C486F9"/>
<stop offset="0.97" stop-color="#D2A6F7"/>
<stop offset="0.99" stop-color="#E3CCF5"/>
<stop offset="1" stop-color="#F6F8F3"/>
</linearGradient>
<linearGradient id="paint4_linear_529_572" x1="45.8726" y1="84.6389" x2="168.184" y2="84.6389" gradientUnits="userSpaceOnUse">
<stop stop-color="#F6F8F3"/>
<stop offset="1" stop-color="#9921FF"/>
</linearGradient>
</defs>
</svg>
