<svg width="204" height="173" viewBox="0 0 204 173" fill="none" xmlns="http://www.w3.org/2000/svg">
<g opacity="0.4">
<path d="M187.122 54.064L170.25 44.3418L187.122 34.6196L203.995 44.3418L187.122 54.064ZM171.442 44.3418L187.122 53.3749L202.803 44.3418L187.122 35.3087L171.442 44.3418Z" fill="white"/>
<path d="M154.57 54.064L154.419 53.9778L137.692 44.3418L154.564 34.6196L154.715 34.7058L171.442 44.3418L154.57 54.064ZM138.889 44.3418L154.57 53.3749L170.25 44.3418L154.57 35.3087L138.889 44.3418Z" fill="white"/>
<path d="M170.844 63.4416L153.971 53.7195L170.844 43.9973L187.716 53.7195L170.844 63.4416ZM155.163 53.7195L170.844 62.7526L186.524 53.7195L170.844 44.6864L155.163 53.7195Z" fill="white"/>
<path d="M187.122 72.8193L186.971 72.7332L170.245 63.0972L187.117 53.375L187.268 53.4611L203.995 63.0972L187.122 72.8193ZM171.442 63.0972L187.122 72.1303L202.803 63.0972L187.122 54.0641L171.442 63.0972Z" fill="white"/>
<path d="M122.012 54.064L121.86 53.9778L105.134 44.3418L122.006 34.6196L122.157 34.7058L138.884 44.3418L122.012 54.064ZM106.331 44.3418L122.012 53.3749L137.692 44.3418L122.012 35.3087L106.331 44.3418Z" fill="white"/>
<path d="M138.291 63.4416L121.413 53.7195L138.285 43.9973L138.436 44.0834L155.163 53.7195L138.291 63.4416ZM122.611 53.7195L138.291 62.7526L153.971 53.7195L138.291 44.6864L122.611 53.7195Z" fill="white"/>
<path d="M154.57 72.8193L154.419 72.7332L137.692 63.0972L154.564 53.375L171.437 63.0972L154.564 72.8193H154.57ZM138.889 63.0972L154.57 72.1303L170.25 63.0972L154.57 54.0641L138.889 63.0972Z" fill="white"/>
<path d="M170.844 82.2021L153.971 72.48L170.844 62.7578L170.995 62.8439L187.721 72.48L170.849 82.2021H170.844ZM155.163 72.48L170.844 81.5131L186.524 72.48L170.844 63.4469L155.163 72.48Z" fill="white"/>
<path d="M187.122 91.5798L186.971 91.4937L170.245 81.8577L187.117 72.1355L203.995 81.8577L187.122 91.5798ZM171.442 81.8577L187.122 90.8908L202.803 81.8577L187.122 72.8246L171.442 81.8577Z" fill="white"/>
<path d="M89.4593 54.064L89.3083 53.9778L72.5815 44.3418L89.4539 34.6196L89.6049 34.7058L106.332 44.3418L89.4593 54.064ZM73.779 44.3418L89.4593 53.3749L105.14 44.3418L89.4593 35.3087L73.779 44.3418Z" fill="white"/>
<path d="M105.733 63.4416L105.582 63.3555L88.855 53.7195L105.727 43.9973L105.878 44.0834L122.605 53.7195L105.733 63.4416ZM90.0524 53.7195L105.733 62.7526L121.413 53.7195L105.733 44.6864L90.0524 53.7195Z" fill="white"/>
<path d="M122.012 72.8193L121.86 72.7332L105.134 63.0972L122.006 53.375L138.884 63.0972L122.012 72.8193ZM106.331 63.0972L122.012 72.1303L137.692 63.0972L122.012 54.0641L106.331 63.0972Z" fill="white"/>
<path d="M138.291 82.2021L121.413 72.48L138.285 62.7578L138.436 62.8439L155.163 72.48L138.291 82.2021ZM122.611 72.48L138.291 81.5131L153.971 72.48L138.291 63.4469L122.611 72.48Z" fill="white"/>
<path d="M154.57 91.5798L137.697 81.8577L154.57 72.1355L171.442 81.8577L154.57 91.5798ZM138.889 81.8577L154.57 90.8908L170.25 81.8577L154.57 72.8246L138.889 81.8577Z" fill="white"/>
<path d="M170.843 100.958L170.692 100.871L153.965 91.2353L170.838 81.5132L170.989 81.5993L187.715 91.2353L170.843 100.958ZM155.163 91.2353L170.843 100.268L186.523 91.2353L170.843 82.2022L155.163 91.2353Z" fill="white"/>
<path d="M187.122 110.341L186.971 110.254L170.245 100.618L187.117 90.8962L187.268 90.9824L203.995 100.618L187.122 110.341ZM171.442 100.618L187.122 109.652L202.803 100.618L187.122 91.5853L171.442 100.618Z" fill="white"/>
<path d="M56.9012 54.064L56.7501 53.9778L40.0234 44.3418L56.8958 34.6196L57.0468 34.7058L73.7735 44.3418L56.9012 54.064ZM41.2209 44.3418L56.9012 53.3749L72.5815 44.3418L56.9012 35.3087L41.2209 44.3418Z" fill="white"/>
<path d="M73.18 63.4416L56.3022 53.7195L73.1746 43.9973L73.3256 44.0834L90.0523 53.7195L73.18 63.4416ZM57.4997 53.7195L73.18 62.7526L88.8603 53.7195L73.18 44.6864L57.4997 53.7195Z" fill="white"/>
<path d="M89.4593 72.8193L89.3083 72.7332L72.5815 63.0972L89.4539 53.375L89.6049 53.4611L106.332 63.0972L89.4593 72.8193ZM73.779 63.0972L89.4593 72.1303L105.14 63.0972L89.4593 54.0641L73.779 63.0972Z" fill="white"/>
<path d="M105.738 82.2021L105.587 82.116L88.8604 72.48L105.733 62.7578L105.884 62.8439L122.61 72.48L105.738 82.2021ZM90.0578 72.48L105.738 81.5131L121.418 72.48L105.738 63.4469L90.0578 72.48Z" fill="white"/>
<path d="M122.012 91.5798L121.86 91.4937L105.134 81.8577L122.006 72.1355L138.884 81.8577L122.012 91.5798ZM106.331 81.8577L122.012 90.8908L137.692 81.8577L122.012 72.8246L106.331 81.8577Z" fill="white"/>
<path d="M138.291 100.958L121.418 91.2353L138.291 81.5132L155.163 91.2353L138.291 100.958ZM122.611 91.2353L138.291 100.268L153.971 91.2353L138.291 82.2022L122.611 91.2353Z" fill="white"/>
<path d="M154.57 110.341L137.692 100.618L154.564 90.8962L154.715 90.9824L171.442 100.618L154.57 110.341ZM138.889 100.618L154.57 109.652L170.25 100.618L154.57 91.5853L138.889 100.618Z" fill="white"/>
<path d="M170.849 119.718L170.698 119.632L153.971 109.996L170.844 100.274L170.995 100.36L187.721 109.996L170.849 119.718ZM155.169 109.996L170.849 119.029L186.529 109.996L170.849 100.963L155.169 109.996Z" fill="white"/>
<path d="M187.122 129.096L186.971 129.01L170.245 119.374L187.117 109.651L187.268 109.738L203.995 119.374L187.122 129.096ZM171.442 119.374L187.122 128.407L202.803 119.374L187.122 110.34L171.442 119.374Z" fill="white"/>
<path d="M56.9012 72.8193L56.7501 72.7332L40.0234 63.0972L56.8958 53.375L73.7735 63.0972L56.9012 72.8193ZM41.2209 63.0972L56.9012 72.1303L72.5815 63.0972L56.9012 54.0641L41.2209 63.0972Z" fill="white"/>
<path d="M73.18 82.2021L56.3022 72.48L73.1746 62.7578L73.3256 62.8439L90.0523 72.48L73.18 82.2021ZM57.4997 72.48L73.18 81.5131L88.8603 72.48L73.18 63.4469L57.4997 72.48Z" fill="white"/>
<path d="M89.4593 91.5798L89.3083 91.4937L72.5815 81.8577L89.4539 72.1355L89.6049 72.2216L106.332 81.8577L89.4593 91.5798ZM73.779 81.8577L89.4593 90.8908L105.14 81.8577L89.4593 72.8246L73.779 81.8577Z" fill="white"/>
<path d="M105.738 100.958L105.587 100.871L88.8604 91.2353L105.733 81.5132L105.884 81.5993L122.61 91.2353L105.738 100.958ZM90.0578 91.2353L105.738 100.268L121.418 91.2353L105.738 82.2022L90.0578 91.2353Z" fill="white"/>
<path d="M122.012 110.335L121.86 110.249L105.134 100.613L122.006 90.8909L138.878 100.613L122.006 110.335H122.012ZM106.331 100.613L122.012 109.646L137.692 100.613L122.012 91.5799L106.331 100.613Z" fill="white"/>
<path d="M138.291 119.718L121.418 109.996L138.291 100.274L155.169 109.996L138.296 119.718H138.291ZM122.611 109.996L138.291 119.029L153.971 109.996L138.291 100.963L122.611 109.996Z" fill="white"/>
<path d="M154.57 129.096L137.692 119.374L154.564 109.651L154.715 109.738L171.442 119.374L154.57 129.096ZM138.889 119.374L154.57 128.407L170.25 119.374L154.57 110.34L138.889 119.374Z" fill="white"/>
<path d="M170.849 138.473L170.698 138.387L153.971 128.751L170.844 119.029L170.995 119.115L187.721 128.751L170.849 138.473ZM155.169 128.751L170.849 137.784L186.529 128.751L170.849 119.718L155.169 128.751Z" fill="white"/>
<path d="M187.122 147.856L186.971 147.77L170.245 138.134L187.117 128.412L187.268 128.498L203.995 138.134L187.122 147.856ZM171.442 138.134L187.122 147.167L202.803 138.134L187.122 129.101L171.442 138.134Z" fill="white"/>
<path d="M56.9012 91.5798L56.7501 91.4937L40.0234 81.8577L56.8958 72.1355L73.7735 81.8577L56.9012 91.5798ZM41.2209 81.8577L56.9012 90.8908L72.5815 81.8577L56.9012 72.8246L41.2209 81.8577Z" fill="white"/>
<path d="M73.18 100.958L73.029 100.871L56.3022 91.2353L73.1746 81.5132L73.3256 81.5993L90.0523 91.2353L73.18 100.958ZM57.4997 91.2353L73.18 100.268L88.8603 91.2353L73.18 82.2022L57.4997 91.2353Z" fill="white"/>
<path d="M89.4593 110.335L72.5815 100.613L89.4539 90.8909L89.6049 90.977L106.332 100.613L89.4593 110.335ZM73.779 100.613L89.4593 109.646L105.14 100.613L89.4593 91.5799L73.779 100.613Z" fill="white"/>
<path d="M105.738 119.718L105.587 119.632L88.8604 109.996L105.733 100.274L105.884 100.36L122.61 109.996L105.738 119.718ZM90.0578 109.996L105.738 119.029L121.418 109.996L105.738 100.963L90.0578 109.996Z" fill="white"/>
<path d="M122.012 129.096L105.139 119.374L122.012 109.651L138.884 119.374L122.012 129.096ZM106.331 119.374L122.012 128.407L137.692 119.374L122.012 110.34L106.331 119.374Z" fill="white"/>
<path d="M138.291 138.473L138.14 138.387L121.413 128.751L138.285 119.029L155.163 128.751L138.291 138.473ZM122.611 128.751L138.291 137.784L153.971 128.751L138.291 119.718L122.611 128.751Z" fill="white"/>
<path d="M154.57 147.856L154.419 147.77L137.692 138.134L154.564 128.412L154.715 128.498L171.442 138.134L154.57 147.856ZM138.889 138.134L154.57 147.167L170.25 138.134L154.57 129.101L138.889 138.134Z" fill="white"/>
<path d="M170.849 157.234L153.971 147.512L170.844 137.79L170.995 137.876L187.721 147.512L170.849 157.234ZM155.169 147.512L170.849 156.545L186.529 147.512L170.849 138.479L155.169 147.512Z" fill="white"/>
<path d="M187.122 166.612L186.971 166.526L170.245 156.89L187.117 147.167L187.268 147.254L203.995 156.89L187.122 166.612ZM171.442 156.89L187.122 165.923L202.803 156.89L187.122 147.857L171.442 156.89Z" fill="white"/>
<path d="M40.6273 100.958L40.4762 100.871L23.7495 91.2353L40.6219 81.5132L40.7729 81.5993L57.4996 91.2353L40.6273 100.958ZM24.947 91.2353L40.6273 100.268L56.3075 91.2353L40.6273 82.2022L24.947 91.2353Z" fill="white"/>
<path d="M56.9065 110.335L56.7555 110.249L40.0288 100.613L56.9012 90.8909L57.0522 90.977L73.7789 100.613L56.9065 110.335ZM41.2263 100.613L56.9065 109.646L72.5868 100.613L56.9065 91.5799L41.2263 100.613Z" fill="white"/>
<path d="M73.18 119.718L73.029 119.632L56.3022 109.996L73.1746 100.274L90.0523 109.996L73.18 119.718ZM57.4997 109.996L73.18 119.029L88.8603 109.996L73.18 100.963L57.4997 109.996Z" fill="white"/>
<path d="M89.4593 129.096L89.3083 129.01L72.5815 119.374L89.4539 109.651L89.6049 109.738L106.332 119.374L89.4593 129.096ZM73.779 119.374L89.4593 128.407L105.14 119.374L89.4593 110.34L73.779 119.374Z" fill="white"/>
<path d="M105.738 138.473L88.8657 128.751L105.738 119.029L122.61 128.751L105.738 138.473ZM90.0578 128.751L105.738 137.784L121.418 128.751L105.738 119.718L90.0578 128.751Z" fill="white"/>
<path d="M122.017 147.856L121.866 147.77L105.139 138.134L122.012 128.412L122.163 128.498L138.889 138.134L122.017 147.856ZM106.337 138.134L122.017 147.167L137.697 138.134L122.017 129.101L106.337 138.134Z" fill="white"/>
<path d="M138.291 157.234L138.14 157.148L121.413 147.512L138.285 137.79L138.436 137.876L155.163 147.512L138.291 157.234ZM122.611 147.512L138.291 156.545L153.971 147.512L138.291 138.479L122.611 147.512Z" fill="white"/>
<path d="M154.57 166.612L154.419 166.526L137.692 156.89L154.564 147.167L171.442 156.89L154.57 166.612ZM138.889 156.89L154.57 165.923L170.25 156.89L154.57 147.857L138.889 156.89Z" fill="white"/>
<path d="M24.3484 110.335L7.4707 100.613L24.343 90.8909L24.4941 90.977L41.2208 100.613L24.3484 110.335ZM8.66816 100.613L24.3484 109.646L40.0287 100.613L24.3484 91.5799L8.66816 100.613Z" fill="white"/>
<path d="M40.6273 119.718L40.4762 119.632L23.7495 109.996L40.6219 100.274L40.7729 100.36L57.4996 109.996L40.6273 119.718ZM24.947 109.996L40.6273 119.029L56.3075 109.996L40.6273 100.963L24.947 109.996Z" fill="white"/>
<path d="M56.9065 129.096L56.7555 129.01L40.0288 119.374L56.9012 109.651L57.0522 109.738L73.7789 119.374L56.9065 129.096ZM41.2263 119.374L56.9065 128.407L72.5868 119.374L56.9065 110.34L41.2263 119.374Z" fill="white"/>
<path d="M73.18 138.473L73.029 138.387L56.3022 128.751L73.1746 119.029L73.3256 119.115L90.0523 128.751L73.18 138.473ZM57.4997 128.751L73.18 137.784L88.8603 128.751L73.18 119.718L57.4997 128.751Z" fill="white"/>
<path d="M89.4593 147.856L89.3083 147.77L72.5815 138.134L89.4539 128.412L106.326 138.134L89.4539 147.856H89.4593ZM73.779 138.134L89.4593 147.167L105.14 138.134L89.4593 129.101L73.779 138.134Z" fill="white"/>
<path d="M105.738 157.234L88.8657 147.512L105.738 137.79L105.889 137.876L122.616 147.512L105.743 157.234H105.738ZM90.0578 147.512L105.738 156.545L121.418 147.512L105.738 138.479L90.0578 147.512Z" fill="white"/>
<path d="M122.017 166.612L121.866 166.526L105.139 156.89L122.012 147.167L122.163 147.254L138.889 156.89L122.017 166.612ZM106.337 156.89L122.017 165.923L137.697 156.89L122.017 147.857L106.337 156.89Z" fill="white"/>
<path d="M24.3484 129.096L24.1974 129.01L7.4707 119.374L24.343 109.651L24.4941 109.738L41.2208 119.374L24.3484 129.096ZM8.66816 119.374L24.3484 128.407L40.0287 119.374L24.3484 110.34L8.66816 119.374Z" fill="white"/>
<path d="M40.6273 138.473L23.7495 128.751L40.6219 119.029L40.7729 119.115L57.4996 128.751L40.6273 138.473ZM24.947 128.751L40.6273 137.784L56.3075 128.751L40.6273 119.718L24.947 128.751Z" fill="white"/>
<path d="M56.9065 147.856L56.7555 147.77L40.0288 138.134L56.9012 128.412L57.0522 128.498L73.7789 138.134L56.9065 147.856ZM41.2263 138.134L56.9065 147.167L72.5868 138.134L56.9065 129.101L41.2263 138.134Z" fill="white"/>
<path d="M73.18 157.234L73.029 157.148L56.3022 147.512L73.1746 137.79L73.3256 137.876L90.0523 147.512L73.18 157.234ZM57.4997 147.512L73.18 156.545L88.8603 147.512L73.18 138.479L57.4997 147.512Z" fill="white"/>
<path d="M89.4593 166.612L72.5869 156.89L89.4593 147.167L106.332 156.89L89.4593 166.612ZM73.779 156.89L89.4593 165.923L105.14 156.89L89.4593 147.857L73.779 156.89Z" fill="white"/>
<path d="M24.3484 147.851L24.1974 147.765L7.4707 138.129L24.343 128.407L41.2208 138.129L24.3484 147.851ZM8.66816 138.129L24.3484 147.162L40.0287 138.129L24.3484 129.096L8.66816 138.129Z" fill="white"/>
<path d="M40.6273 157.234L40.4762 157.148L23.7495 147.512L40.6219 137.79L40.7729 137.876L57.4996 147.512L40.6273 157.234ZM24.947 147.512L40.6273 156.545L56.3075 147.512L40.6273 138.479L24.947 147.512Z" fill="white"/>
<path d="M56.9065 166.612L40.0288 156.89L56.9012 147.167L57.0522 147.254L73.7789 156.89L56.9065 166.612ZM41.2263 156.89L56.9065 165.923L72.5868 156.89L56.9065 147.857L41.2263 156.89Z" fill="white"/>
<path d="M24.3484 166.612L24.1974 166.526L7.4707 156.89L24.343 147.167L24.4941 147.254L41.2208 156.89L24.3484 166.612ZM8.66816 156.89L24.3484 165.923L40.0287 156.89L24.3484 147.857L8.66816 156.89Z" fill="white"/>
</g>
<path d="M103.823 23.5249C103.505 23.708 103.198 23.9395 102.906 24.1979C102.777 20.0689 99.7887 18.427 96.11 20.5426C93.1163 22.2706 90.5758 25.9636 89.6642 29.5865C88.9252 29.4896 88.0568 29.678 87.1236 30.2163C84.4428 31.7613 82.269 35.5188 82.269 38.6088C82.269 41.6988 84.4428 42.9531 87.1236 41.4081L103.823 31.7882C105.803 30.647 107.41 27.8746 107.41 25.5921C107.41 23.3096 105.803 22.3837 103.823 23.5249Z" fill="white"/>
<path d="M121.418 14.8848C121.418 15.886 120.712 17.1027 119.843 17.6087C118.975 18.1093 118.268 17.7056 118.268 16.6989C118.268 15.6923 118.975 14.4756 119.843 13.975C120.712 13.4743 121.418 13.8781 121.418 14.8848Z" fill="white"/>
<path d="M125.76 12.3813C125.76 13.3826 125.054 14.6046 124.185 15.1053C123.317 15.6059 122.61 15.2022 122.61 14.1955C122.61 13.1888 123.317 11.9722 124.185 11.4716C125.054 10.9709 125.76 11.3747 125.76 12.3813Z" fill="white"/>
<path d="M121.418 9.87817C121.418 10.8795 120.712 12.1015 119.843 12.6021C118.975 13.1027 118.268 12.699 118.268 11.6923C118.268 10.6857 118.975 9.46904 119.843 8.9684C120.712 8.46776 121.418 8.8715 121.418 9.87817Z" fill="white"/>
<path d="M125.76 7.375C125.76 8.37628 125.054 9.59828 124.185 10.0989C123.317 10.5996 122.61 10.1958 122.61 9.18915C122.61 8.18248 123.317 6.97125 124.185 6.46523C125.054 5.96458 125.76 6.36833 125.76 7.375Z" fill="white"/>
<path d="M45.2823 145.795C44.7267 146.112 44.2035 146.575 43.745 147.114C43.6749 144.088 41.4958 142.877 38.815 144.422C37.9573 144.917 37.1482 145.633 36.447 146.484C35.2549 144.4 32.7845 143.921 29.9203 145.569C25.891 147.889 22.6276 153.536 22.6276 158.176C22.6276 158.558 22.66 158.919 22.7032 159.264C22.126 159.113 21.4248 159.237 20.6588 159.673C18.7332 160.782 17.1689 163.484 17.1689 165.702C17.1689 167.92 18.7332 168.824 20.6588 167.71L45.2823 153.52C47.1325 152.454 48.6374 149.854 48.6374 147.722C48.6374 145.59 47.1378 144.723 45.2823 145.789V145.795Z" fill="white"/>
<path opacity="0.4" d="M192.851 137.779C192.322 138.086 191.821 138.522 191.378 139.039C191.308 136.143 189.226 134.991 186.664 136.466C185.844 136.939 185.073 137.623 184.399 138.436C183.26 136.444 180.892 135.987 178.158 137.564C174.306 139.782 171.183 145.181 171.183 149.617C171.183 149.983 171.21 150.322 171.253 150.656C170.703 150.516 170.029 150.629 169.301 151.049C167.456 152.109 165.962 154.693 165.962 156.814C165.962 158.935 167.456 159.797 169.301 158.736L192.845 145.17C194.615 144.148 196.055 141.666 196.055 139.626C196.055 137.585 194.62 136.756 192.845 137.779H192.851Z" fill="white"/>
<path d="M160.972 136.223L129.72 118.216C128.576 117.554 128.716 116.402 130.038 115.643L163.162 96.5112C164.484 95.7467 166.485 95.666 167.628 96.3281L198.881 114.335C200.025 114.997 199.884 116.149 198.563 116.908L165.438 136.04C164.117 136.805 162.116 136.886 160.972 136.223Z" fill="#7DC3EA"/>
<path d="M162.919 130.307C162.029 130.307 161.166 130.119 160.514 129.742L129.261 111.735C128.474 111.283 128.026 110.583 128.026 109.818C128.026 108.952 128.592 108.133 129.585 107.563L162.704 88.4308C164.306 87.5049 166.679 87.4241 168.098 88.2477L199.345 106.255C200.132 106.707 200.58 107.407 200.58 108.171C200.58 109.032 200.014 109.856 199.021 110.427L165.902 129.559C165.039 130.054 163.955 130.307 162.914 130.307H162.919ZM161.436 128.143C162.294 128.638 163.95 128.552 164.98 127.96L198.099 108.828C198.563 108.559 198.73 108.29 198.73 108.171C198.73 108.101 198.633 107.977 198.423 107.854L167.17 89.8466C166.312 89.3513 164.656 89.4374 163.626 90.0296L130.507 109.162C130.043 109.431 129.876 109.7 129.876 109.818C129.876 109.888 129.973 110.012 130.189 110.136L161.442 128.143H161.436Z" fill="white"/>
<path d="M163.227 41.4404C163.227 41.4404 146.069 43.0715 135.734 43.8629L163.141 121.764L199.394 100.898C199.394 100.898 199.404 100.893 199.41 100.888L199.474 100.85C199.928 100.559 200.213 99.9403 200.213 99.0628V22.922C200.213 22.1199 199.971 21.2532 199.582 20.4941L163.222 41.4458L163.227 41.4404Z" fill="url(#paint0_radial_543_5)"/>
<path d="M197.975 18.6369L166.091 0.269216C165.536 -0.0483961 165.029 -0.0753124 164.64 0.145401L128.242 21.1024L129.957 27.4385L139.084 53.3804L140.804 54.371L199.593 20.4941C199.183 19.692 198.611 19.0083 197.975 18.6423V18.6369Z" fill="url(#paint1_linear_543_5)"/>
<path d="M161.603 121.699L129.719 103.326C128.479 102.61 127.476 100.694 127.476 99.0467V22.9005C127.476 21.2532 128.479 20.4942 129.719 21.2048L161.603 39.5778C162.844 40.2938 163.847 42.2103 163.847 43.8575V120.004C163.847 121.651 162.844 122.41 161.603 121.699Z" fill="#5793CE"/>
<path d="M162.288 39.1956L130.404 20.8226C129.687 20.4081 129.051 20.4942 128.641 20.9518C128.964 20.9033 129.331 20.9787 129.725 21.2048L161.609 39.5778C162.849 40.2938 163.852 42.2102 163.852 43.8575V120.004C163.852 120.698 163.674 121.231 163.372 121.57C164.063 121.463 164.538 120.752 164.538 119.622V43.4753C164.538 41.828 163.534 39.9062 162.294 39.1956H162.288Z" fill="white"/>
<path d="M159.597 117.113L131.726 101.055C130.642 100.43 129.763 98.756 129.763 97.3133V26.5934C129.763 25.1507 130.642 24.4886 131.726 25.113L159.597 41.1713C160.681 41.7958 161.56 43.47 161.56 44.9127V115.633C161.56 117.075 160.681 117.737 159.597 117.113Z" fill="url(#paint2_linear_543_5)"/>
<path d="M159.597 117.113L131.726 101.055C130.642 100.43 129.763 98.756 129.763 97.3133V26.5934C129.763 25.1507 130.642 24.4886 131.726 25.113L159.597 41.1713C160.681 41.7958 161.56 43.47 161.56 44.9127V115.633C161.56 117.075 160.681 117.737 159.597 117.113Z" fill="url(#paint3_linear_543_5)"/>
<path d="M159.597 117.113L131.726 101.055C130.642 100.43 129.763 98.756 129.763 97.3133V26.5934C129.763 25.1507 130.642 24.4886 131.726 25.113L159.597 41.1713C160.681 41.7958 161.56 43.47 161.56 44.9127V115.633C161.56 117.075 160.681 117.737 159.597 117.113Z" fill="#173D7A"/>
<path d="M160.508 116.58L132.638 100.522C131.553 99.8971 130.674 98.2229 130.674 96.7802V26.0603C130.674 25.5704 130.777 25.1721 130.955 24.8814C130.254 24.876 129.763 25.5166 129.763 26.5986V97.3131C129.763 98.7558 130.642 100.43 131.726 101.054L159.597 117.113C160.309 117.522 160.934 117.377 161.28 116.811C161.042 116.811 160.783 116.736 160.508 116.574V116.58Z" fill="#396CAA"/>
<path d="M159.596 84.6463L149.235 78.6763L132.713 88.1939L161.554 104.812V88.3823C161.554 86.9396 160.675 85.2654 159.591 84.6409L159.596 84.6463Z" fill="#173D7A"/>
<path d="M159.596 70.1546L149.235 64.1846L132.713 73.7022L161.554 90.3203V73.8906C161.554 72.4479 160.675 70.7737 159.591 70.1492L159.596 70.1546Z" fill="#173D7A"/>
<path d="M159.596 55.6629L149.235 49.6929L132.713 59.2105L161.554 75.8286V59.3989C161.554 57.9562 160.675 56.282 159.591 55.6575L159.596 55.6629Z" fill="#173D7A"/>
<path d="M159.596 41.1766L149.235 35.2065L132.713 44.7241L161.554 61.3423V44.9126C161.554 43.4698 160.675 41.7957 159.591 41.1712L159.596 41.1766Z" fill="#173D7A"/>
<path d="M159.596 41.1766L136.661 27.9607L132.713 30.2378L161.554 46.8559V44.918C161.554 43.4752 160.675 41.801 159.591 41.1766H159.596Z" fill="#173D7A"/>
<path d="M161.56 46.8559L132.718 30.2324V39.3947L161.56 56.0128V46.8559Z" fill="#5793CE"/>
<path d="M161.56 61.3476L132.718 44.7241V53.8864L161.56 70.5045V61.3476Z" fill="#5793CE"/>
<path d="M161.56 75.8339L132.718 59.2158V68.3727L161.56 84.9962V75.8339Z" fill="#5793CE"/>
<path d="M161.56 90.3256L132.718 73.7075V82.8644L161.56 99.4879V90.3256Z" fill="#5793CE"/>
<path d="M161.56 104.818L132.718 88.1995V97.3564L161.56 113.975V104.818Z" fill="#5793CE"/>
<path d="M159.014 52.7506L137.287 40.2346C136.673 39.8793 136.176 38.9318 136.176 38.1189V35.6642C136.176 34.8459 136.673 34.4745 137.287 34.8244L159.014 47.3405C159.629 47.6958 160.125 48.6432 160.125 49.4561V51.9108C160.125 52.7291 159.629 53.1005 159.014 52.7506Z" fill="#173D7A"/>
<path opacity="0.3" d="M138.388 39.7607C137.773 39.4054 137.277 38.4579 137.277 37.6451V35.1903C137.277 35.0611 137.293 34.9427 137.32 34.8404L137.293 34.8242C136.678 34.4689 136.182 34.8458 136.182 35.664V38.1188C136.182 38.937 136.678 39.8845 137.293 40.2344L159.02 52.7505C159.538 53.0466 159.964 52.8258 160.088 52.266L138.388 39.7661V39.7607Z" fill="#06033E"/>
<path d="M152.202 46.0269L139.127 38.4957C138.911 38.3719 138.738 38.0381 138.738 37.7528C138.738 37.4675 138.911 37.3329 139.127 37.4567L152.202 44.9879C152.417 45.1117 152.59 45.4455 152.59 45.7308C152.59 46.0161 152.417 46.1507 152.202 46.0269Z" fill="white"/>
<path d="M159.014 67.151L137.287 54.635C136.673 54.2797 136.176 53.3322 136.176 52.5193V50.0646C136.176 49.2463 136.673 48.8749 137.287 49.2248L159.014 61.7409C159.629 62.0961 160.125 63.0436 160.125 63.8565V66.3112C160.125 67.1295 159.629 67.5009 159.014 67.151Z" fill="#173D7A"/>
<path opacity="0.3" d="M138.388 54.1611C137.773 53.8058 137.277 52.8583 137.277 52.0454V49.5907C137.277 49.4615 137.293 49.3431 137.32 49.2408L137.293 49.2246C136.678 48.8693 136.182 49.2462 136.182 50.0644V52.5192C136.182 53.3374 136.678 54.2849 137.293 54.6348L159.02 67.1509C159.538 67.4469 159.964 67.2262 160.088 66.6664L138.388 54.1665V54.1611Z" fill="#06033E"/>
<path d="M152.202 60.4273L139.127 52.8961C138.911 52.7723 138.738 52.4385 138.738 52.1532C138.738 51.8679 138.911 51.7333 139.127 51.8571L152.202 59.3883C152.417 59.5121 152.59 59.8459 152.59 60.1312C152.59 60.4165 152.417 60.5511 152.202 60.4273Z" fill="white"/>
<path d="M159.014 81.6857L137.287 69.1696C136.673 68.8143 136.176 67.8669 136.176 67.054V64.5992C136.176 63.781 136.673 63.4095 137.287 63.7594L159.014 76.2755C159.629 76.6308 160.125 77.5783 160.125 78.3911V80.8459C160.125 81.6642 159.629 82.0356 159.014 81.6857Z" fill="#173D7A"/>
<path opacity="0.3" d="M138.388 68.6957C137.773 68.3404 137.277 67.393 137.277 66.5801V64.1254C137.277 63.9962 137.293 63.8777 137.32 63.7754L137.293 63.7593C136.678 63.404 136.182 63.7808 136.182 64.5991V67.0538C136.182 67.8721 136.678 68.8196 137.293 69.1695L159.02 81.6855C159.538 81.9816 159.964 81.7609 160.088 81.201L138.388 68.7011V68.6957Z" fill="#06033E"/>
<path d="M152.202 74.9619L139.127 67.4308C138.911 67.307 138.738 66.9732 138.738 66.6879C138.738 66.4026 138.911 66.268 139.127 66.3918L152.202 73.923C152.417 74.0468 152.59 74.3806 152.59 74.6659C152.59 74.9512 152.417 75.0858 152.202 74.9619Z" fill="#D4ECFF"/>
<path d="M159.014 96.3551L137.287 83.8391C136.673 83.4838 136.176 82.5363 136.176 81.7234V79.2687C136.176 78.4504 136.673 78.079 137.287 78.4289L159.014 90.945C159.629 91.3002 160.125 92.2477 160.125 93.0606V95.5153C160.125 96.3336 159.629 96.705 159.014 96.3551Z" fill="#173D7A"/>
<path opacity="0.3" d="M138.388 83.3652C137.773 83.0099 137.277 82.0624 137.277 81.2495V78.7948C137.277 78.6656 137.293 78.5472 137.32 78.4449L137.293 78.4287C136.678 78.0734 136.182 78.4503 136.182 79.2685V81.7233C136.182 82.5415 136.678 83.489 137.293 83.8389L159.02 96.355C159.538 96.6511 159.964 96.4303 160.088 95.8705L138.388 83.3706V83.3652Z" fill="#06033E"/>
<path d="M152.202 89.6314L139.127 82.1002C138.911 81.9764 138.738 81.6426 138.738 81.3573C138.738 81.072 138.911 80.9374 139.127 81.0612L152.202 88.5924C152.417 88.7162 152.59 89.05 152.59 89.3353C152.59 89.6206 152.417 89.7552 152.202 89.6314Z" fill="#FF2C9C"/>
<path d="M159.014 110.734L137.287 98.2175C136.673 97.8622 136.176 96.9147 136.176 96.1019V93.6471C136.176 92.8288 136.673 92.4574 137.287 92.8073L159.014 105.323C159.629 105.679 160.125 106.626 160.125 107.439V109.894C160.125 110.712 159.629 111.083 159.014 110.734Z" fill="#173D7A"/>
<path opacity="0.3" d="M138.388 97.7494C137.773 97.3942 137.277 96.4467 137.277 95.6338V93.1791C137.277 93.0499 137.293 92.9314 137.32 92.8292L137.293 92.813C136.678 92.4577 136.182 92.8345 136.182 93.6528V96.1076C136.182 96.9258 136.678 97.8733 137.293 98.2232L159.02 110.739C159.538 111.035 159.964 110.815 160.088 110.255L138.388 97.7548V97.7494Z" fill="#06033E"/>
<path d="M152.202 104.01L139.127 96.4786C138.911 96.3548 138.738 96.021 138.738 95.7357C138.738 95.4504 138.911 95.3158 139.127 95.4397L152.202 102.971C152.417 103.095 152.59 103.428 152.59 103.714C152.59 103.999 152.417 104.134 152.202 104.01Z" fill="#D4ECFF"/>
<path opacity="0.5" d="M132.719 30.2324L134.99 31.5406V40.7029L132.719 39.3947V30.2324Z" fill="#173D7A"/>
<path opacity="0.5" d="M132.719 44.7241L134.99 46.0323V55.1946L132.719 53.8864V44.7241Z" fill="#173D7A"/>
<path opacity="0.5" d="M132.719 59.2158L134.99 60.524V69.6809L132.719 68.3727V59.2158Z" fill="#173D7A"/>
<path opacity="0.5" d="M132.719 73.7075L134.99 75.0157V84.1726L132.719 82.8644V73.7075Z" fill="#173D7A"/>
<path opacity="0.5" d="M132.719 88.1995L134.99 89.5076V98.6645L132.719 97.3564V88.1995Z" fill="#173D7A"/>
<path d="M154.774 46.9314C154.774 47.2221 154.569 47.3405 154.316 47.1951C154.062 47.0498 153.857 46.6945 153.857 46.3984C153.857 46.1023 154.062 45.9893 154.316 46.1346C154.569 46.28 154.774 46.6353 154.774 46.9314Z" fill="#D4ECFF"/>
<path d="M156.722 48.0564C156.722 48.3471 156.517 48.4655 156.263 48.3201C156.01 48.1748 155.805 47.8195 155.805 47.5234C155.805 47.2273 156.01 47.1143 156.263 47.2596C156.517 47.405 156.722 47.7603 156.722 48.0564Z" fill="#FF2C9C"/>
<path d="M158.674 49.1762C158.674 49.4669 158.469 49.5854 158.216 49.44C157.962 49.2947 157.757 48.9394 157.757 48.6433C157.757 48.3472 157.962 48.2342 158.216 48.3795C158.469 48.5249 158.674 48.8802 158.674 49.1762Z" fill="#D4ECFF"/>
<path d="M154.774 61.4123C154.774 61.703 154.569 61.8214 154.316 61.6761C154.062 61.5308 153.857 61.1755 153.857 60.8794C153.857 60.5833 154.062 60.4703 154.316 60.6156C154.569 60.7609 154.774 61.1162 154.774 61.4123Z" fill="#FF2C9C"/>
<path d="M156.722 62.5373C156.722 62.828 156.517 62.9464 156.263 62.8011C156.01 62.6558 155.805 62.3005 155.805 62.0044C155.805 61.7083 156.01 61.5953 156.263 61.7406C156.517 61.8859 156.722 62.2412 156.722 62.5373Z" fill="#D4ECFF"/>
<path d="M158.674 63.6626C158.674 63.9533 158.469 64.0717 158.216 63.9263C157.962 63.781 157.757 63.4257 157.757 63.1296C157.757 62.8335 157.962 62.7205 158.216 62.8658C158.469 63.0112 158.674 63.3665 158.674 63.6626Z" fill="white"/>
<path d="M154.774 76.0063C154.774 76.297 154.569 76.4154 154.316 76.2701C154.062 76.1247 153.857 75.7694 153.857 75.4734C153.857 75.1773 154.062 75.0642 154.316 75.2096C154.569 75.3549 154.774 75.7102 154.774 76.0063Z" fill="white"/>
<path d="M156.722 77.1313C156.722 77.422 156.517 77.5404 156.263 77.3951C156.01 77.2497 155.805 76.8944 155.805 76.5984C155.805 76.3023 156.01 76.1892 156.263 76.3346C156.517 76.4799 156.722 76.8352 156.722 77.1313Z" fill="#FF2C9C"/>
<path d="M158.674 78.2566C158.674 78.5473 158.469 78.6657 158.216 78.5203C157.962 78.375 157.757 78.0197 157.757 77.7236C157.757 77.4275 157.962 77.3145 158.216 77.4598C158.469 77.6052 158.674 77.9605 158.674 78.2566Z" fill="white"/>
<path d="M154.774 90.385C154.774 90.6757 154.569 90.7941 154.316 90.6488C154.062 90.5034 153.857 90.1481 153.857 89.852C153.857 89.556 154.062 89.4429 154.316 89.5883C154.569 89.7336 154.774 90.0889 154.774 90.385Z" fill="white"/>
<path d="M156.722 91.51C156.722 91.8007 156.517 91.9191 156.263 91.7738C156.01 91.6284 155.805 91.2731 155.805 90.977C155.805 90.681 156.01 90.5679 156.263 90.7133C156.517 90.8586 156.722 91.2139 156.722 91.51Z" fill="#D4ECFF"/>
<path d="M158.674 92.6352C158.674 92.9259 158.469 93.0444 158.216 92.899C157.962 92.7537 157.757 92.3984 157.757 92.1023C157.757 91.8062 157.962 91.6932 158.216 91.8385C158.469 91.9838 158.674 92.3391 158.674 92.6352Z" fill="#D4ECFF"/>
<path d="M154.774 104.963C154.774 105.254 154.569 105.372 154.316 105.227C154.062 105.081 153.857 104.726 153.857 104.43C153.857 104.134 154.062 104.021 154.316 104.166C154.569 104.311 154.774 104.667 154.774 104.963Z" fill="white"/>
<path d="M156.722 106.088C156.722 106.379 156.517 106.497 156.263 106.352C156.01 106.206 155.805 105.851 155.805 105.555C155.805 105.259 156.01 105.146 156.263 105.291C156.517 105.436 156.722 105.792 156.722 106.088Z" fill="#FF2C9C"/>
<path d="M158.674 107.213C158.674 107.504 158.469 107.622 158.216 107.477C157.962 107.332 157.757 106.976 157.757 106.68C157.757 106.384 157.962 106.271 158.216 106.416C158.469 106.562 158.674 106.917 158.674 107.213Z" fill="#D4ECFF"/>
<path d="M168.648 111.407V46.5653L168.783 46.4899L195.936 30.8462V95.6822L195.801 95.7575L168.648 111.401V111.407ZM169.187 46.8775V110.475L195.397 95.3753V31.7775L169.187 46.8775Z" fill="#173D7A"/>
<path d="M188.881 60.018L176.706 67.0324C175.887 67.5061 175.223 67.0055 175.223 65.9127V59.1782C175.223 58.0908 175.887 56.8257 176.706 56.352L188.881 49.3376C189.701 48.8639 190.364 49.3645 190.364 50.4573V57.1918C190.364 58.2792 189.701 59.5443 188.881 60.018Z" fill="#173D7A"/>
<path d="M189.177 49.2084C189.248 49.3968 189.285 49.6229 189.285 49.8867V56.6211C189.285 57.7086 188.622 58.9736 187.802 59.4473L175.628 66.4617C175.525 66.5209 175.428 66.564 175.331 66.5909C175.552 67.1831 176.081 67.393 176.701 67.0324L188.875 60.018C189.695 59.5442 190.359 58.2846 190.359 57.1918V50.4573C190.359 49.5045 189.852 49.0038 189.172 49.2084H189.177Z" fill="#5793CE"/>
<path d="M186.658 55.959C186.885 55.8298 187.068 55.9321 187.068 56.1959V57.7301C187.068 57.9885 186.885 58.3061 186.658 58.4353C186.432 58.5645 186.249 58.4622 186.249 58.1985V56.6642C186.249 56.4058 186.432 56.0882 186.658 55.959Z" fill="white"/>
<path d="M184.911 57.1595C185.137 57.0303 185.321 57.1326 185.321 57.3963V58.7368C185.321 58.9952 185.137 59.3128 184.911 59.442C184.684 59.5712 184.501 59.4689 184.501 59.2051V57.8647C184.501 57.6063 184.684 57.2887 184.911 57.1595Z" fill="#D4ECFF"/>
<path d="M183.169 56.6697C183.395 56.5405 183.579 56.6428 183.579 56.9066V59.7489C183.579 60.0073 183.395 60.325 183.169 60.4542C182.942 60.5834 182.759 60.4811 182.759 60.2173V57.3749C182.759 57.1165 182.942 56.7989 183.169 56.6697Z" fill="#FF2C9C"/>
<path d="M181.421 56.0345C181.647 55.9053 181.831 56.0076 181.831 56.2713V60.7502C181.831 61.0086 181.647 61.3262 181.421 61.4554C181.194 61.5846 181.011 61.4823 181.011 61.2185V56.7397C181.011 56.4813 181.194 56.1637 181.421 56.0345Z" fill="#D4ECFF"/>
<path d="M179.673 57.5147C179.9 57.3855 180.083 57.4878 180.083 57.7516V61.7621C180.083 62.0205 179.9 62.3381 179.673 62.4673C179.447 62.5965 179.263 62.4942 179.263 62.2304V58.2199C179.263 57.9615 179.447 57.6439 179.673 57.5147Z" fill="#D4ECFF"/>
<path d="M177.926 60.3519C178.152 60.2227 178.336 60.3249 178.336 60.5887V62.7635C178.336 63.0219 178.152 63.3396 177.926 63.4688C177.699 63.598 177.516 63.4957 177.516 63.2319V61.0571C177.516 60.7987 177.699 60.481 177.926 60.3519Z" fill="white"/>
<path d="M186.259 55.1836C186.259 55.4366 186.437 55.5443 186.658 55.4151C186.88 55.2859 187.058 54.9791 187.058 54.7207C187.058 54.4623 186.88 54.36 186.658 54.4892C186.437 54.6184 186.259 54.9252 186.259 55.1836Z" fill="#FF2C9C"/>
<path d="M186.259 53.741C186.259 53.994 186.437 54.1017 186.658 53.9725C186.88 53.8433 187.058 53.5364 187.058 53.278C187.058 53.0197 186.88 52.9174 186.658 53.0466C186.437 53.1758 186.259 53.4826 186.259 53.741Z" fill="white"/>
<path d="M94.6046 170.886L34.4727 136.282L51.9977 126.183L112.13 160.792L94.6046 170.886Z" fill="#7DC3EA"/>
<path d="M94.6047 162.924C94.4429 162.924 94.2864 162.881 94.1408 162.8L34.0088 128.191C33.7229 128.025 33.5449 127.723 33.5449 127.389C33.5449 127.056 33.7229 126.754 34.0088 126.587L51.5338 116.488C51.8197 116.321 52.1703 116.321 52.4616 116.488L112.594 151.097C112.879 151.264 113.057 151.566 113.057 151.899C113.057 152.233 112.879 152.534 112.594 152.701L95.0686 162.8C94.9229 162.881 94.7665 162.924 94.6047 162.924ZM36.3228 127.389L94.5993 160.932L110.269 151.905L51.9923 118.362L36.3228 127.389Z" fill="white"/>
<path d="M62.5266 134.49C62.1167 134.49 61.7822 134.156 61.7822 133.747V110.319C61.7822 109.91 62.1167 109.576 62.5266 109.576C62.9365 109.576 63.271 109.91 63.271 110.319V133.747C63.271 134.156 62.9365 134.49 62.5266 134.49Z" fill="#396CAA"/>
<path d="M58.8481 107.67V123.497C58.8481 124.041 59.2095 124.579 59.9269 124.994C61.3617 125.823 63.6865 125.823 65.1213 124.994C65.8387 124.579 66.1947 124.041 66.1947 123.497V107.67H58.8481Z" fill="url(#paint4_radial_543_5)"/>
<path d="M58.8481 110.271V115.627C61.0057 116.612 64.0425 116.612 66.1947 115.627V110.271C64.0371 109.285 61.0003 109.285 58.8481 110.271Z" fill="#396CAA"/>
<path d="M68.4763 85.6099H56.5664V110.432C56.5664 111.31 57.149 112.187 58.3087 112.86C60.6335 114.2 64.4038 114.2 66.7286 112.86C67.8937 112.192 68.4709 111.31 68.4709 110.432V85.6099H68.4763Z" fill="url(#paint5_radial_543_5)"/>
<path d="M61.4965 121.091C61.4965 121.818 60.9841 122.114 60.353 121.748C59.7219 121.382 59.2095 120.499 59.2095 119.772C59.2095 119.045 59.7219 118.749 60.353 119.115C60.9841 119.481 61.4965 120.364 61.4965 121.091Z" fill="#D4ECFF"/>
<path d="M85.6125 147.813C85.2026 147.813 84.8682 147.48 84.8682 147.07V123.643C84.8682 123.233 85.2026 122.9 85.6125 122.9C86.0225 122.9 86.3569 123.233 86.3569 123.643V147.07C86.3569 147.48 86.0225 147.813 85.6125 147.813Z" fill="#396CAA"/>
<path d="M81.9395 120.989V136.815C81.9395 137.359 82.3008 137.897 83.0182 138.312C84.453 139.141 86.7778 139.141 88.2126 138.312C88.93 137.897 89.2914 137.359 89.2914 136.815V120.989H81.9448H81.9395Z" fill="url(#paint6_radial_543_5)"/>
<path d="M81.9395 123.594V128.95C84.097 129.936 87.1338 129.936 89.286 128.95V123.594C87.1285 122.609 84.0916 122.609 81.9395 123.594Z" fill="#396CAA"/>
<path d="M91.5676 98.9333H79.6577V123.756C79.6577 124.633 80.2403 125.51 81.4 126.183C83.7248 127.524 87.4952 127.524 89.82 126.183C90.9851 125.516 91.5622 124.633 91.5622 123.756V98.9333H91.5676Z" fill="url(#paint7_radial_543_5)"/>
<path d="M84.5824 134.409C84.5824 135.136 84.07 135.432 83.4389 135.066C82.8078 134.7 82.2954 133.817 82.2954 133.09C82.2954 132.363 82.8078 132.067 83.4389 132.433C84.07 132.799 84.5824 133.682 84.5824 134.409Z" fill="#D4ECFF"/>
<path d="M39.7046 67.646L55.5089 58.5698C55.5089 58.5698 54.9156 67.6298 54.9156 67.646C54.9156 67.6621 45.8375 70.4507 45.8375 70.4507L39.7046 67.646Z" fill="#5793CE"/>
<path d="M124.379 119.885C124.379 113.517 119.897 105.77 114.368 102.583C113.165 101.889 112.016 101.485 110.948 101.318C109.357 92.958 103.526 84.081 96.5786 80.0759C94.4858 78.87 92.5008 78.2294 90.6992 78.0894C89.7499 67.9581 82.6891 56.4434 74.1181 51.5015C69.6411 48.9229 65.5795 48.6161 62.5804 50.1988L62.4348 50.2741C62.3593 50.3172 62.2838 50.3603 62.2082 50.4033L52.8875 55.8996L55.9836 58.3436C53.2057 59.5549 51.4473 62.6664 51.4473 67.2691C51.4473 75.7531 57.413 86.0674 64.7758 90.3094L110.215 122.695L111.617 132.132L121.434 126.361L121.461 126.345L121.52 126.313C123.29 125.247 124.379 123.034 124.379 119.89V119.885Z" fill="url(#paint8_radial_543_5)"/>
<path d="M51.9058 63.5331L73.2983 51.0601C69.1449 48.896 65.3907 48.7183 62.5804 50.2041L62.4348 50.2795C62.3593 50.3226 62.2838 50.3656 62.2082 50.4087L52.8875 55.905L55.9836 58.349C54.0418 59.1942 52.6016 60.976 51.9058 63.5385V63.5331Z" fill="#5793CE"/>
<path d="M91.4114 100.231L107.022 91.09C104.346 86.4711 100.657 82.4337 96.5788 80.0812C96.0394 79.769 95.5054 79.4998 94.9822 79.2629L75.127 90.8531L91.4167 100.236L91.4114 100.231Z" fill="#5793CE"/>
<path d="M57.2837 56.9225L64.2419 60.933L76.9825 53.4449C76.0547 52.7235 75.0946 52.0721 74.1183 51.5069C72.5756 50.6187 71.0815 50.005 69.6683 49.6389L57.2891 56.9225H57.2837Z" fill="#D4ECFF"/>
<path d="M105.301 88.3984L92.8408 95.7251L97.1722 100.548L108.483 93.884C107.588 91.9729 106.515 90.1265 105.301 88.3984Z" fill="#D4ECFF"/>
<path d="M104.583 108.338C103.38 107.644 102.232 107.24 101.164 107.073C99.5723 98.7128 93.7414 89.8358 86.794 85.8306C84.7065 84.6248 82.7162 83.9842 80.9146 83.8442C79.9652 73.7129 72.9045 62.1981 64.3335 57.2563C55.1152 51.943 47.6446 56.2496 47.6446 66.8708C47.6446 67.2315 47.6553 67.5922 47.6715 67.9582C40.9291 64.8359 35.6646 68.3512 35.6646 76.3238C35.6646 84.8078 41.6303 95.1221 48.9931 99.3641L104.589 131.4C110.118 134.587 114.6 132.003 114.6 125.634C114.6 119.266 110.118 111.52 104.589 108.333L104.583 108.338Z" fill="url(#paint9_linear_543_5)"/>
<path d="M47.6659 67.9635C47.6497 67.5974 47.639 67.2368 47.639 66.8761C47.639 66.8599 47.639 66.8438 47.639 66.833C43.9171 65.3903 40.7131 66.0148 38.7065 68.335C40.8857 66.5423 44.0628 66.3001 47.6659 67.9635Z" fill="white"/>
<path d="M105.398 107.547C104.195 106.852 103.046 106.448 101.978 106.282C100.387 97.9213 94.5559 89.0444 87.6084 85.0392C85.521 83.8334 83.5306 83.1928 81.729 83.0528C80.7797 72.9215 73.7189 61.4067 65.1479 56.4649C59.4033 53.1542 54.3384 53.5794 51.3394 56.9386C54.3977 54.3277 59.0851 54.2308 64.3388 57.2562C72.9098 62.1927 79.9706 73.7075 80.9199 83.8387C82.7215 83.9787 84.7119 84.6193 86.7993 85.8252C93.7468 89.8303 99.5776 98.7073 101.169 107.068C102.237 107.234 103.386 107.638 104.589 108.333C110.117 111.519 114.594 119.261 114.594 125.634C114.594 127.933 114.007 129.731 112.998 130.948C114.497 129.796 115.409 127.707 115.409 124.843C115.409 118.475 110.927 110.728 105.403 107.541L105.398 107.547Z" fill="white"/>
<path d="M46.4902 70.4938L50.6705 72.4263L50.4602 67.8344C50.444 67.5114 50.4332 67.1938 50.4332 66.8762C50.4332 62.7742 51.6738 59.8026 53.9231 58.5052C56.1724 57.2079 59.3764 57.6224 62.931 59.6734C70.5797 64.0823 77.2574 74.8111 78.1258 84.1026L78.347 86.4444L80.6934 86.622C82.139 86.735 83.7194 87.2788 85.3915 88.2424C91.4705 91.7415 96.9454 99.881 98.4126 107.59L98.7794 109.517L100.721 109.818C101.498 109.942 102.323 110.249 103.175 110.744C107.841 113.436 111.784 120.251 111.784 125.629C111.784 127.642 111.223 129.117 110.252 129.683C109.276 130.243 107.717 129.99 105.97 128.983L50.3738 96.9471C43.9065 93.2219 38.4424 83.7743 38.4424 76.3238C38.4424 73.4007 39.3054 71.172 40.8157 70.2084C41.436 69.8155 42.1858 69.6163 43.0327 69.6163C44.0629 69.6163 45.2334 69.907 46.4848 70.4884L46.4902 70.4938Z" fill="url(#paint10_radial_543_5)"/>
<path d="M74.2368 105.27L75.704 104.532L74.2638 103.445L74.2368 105.27Z" fill="#5793CE"/>
<path d="M69.8354 85.4967L71.2595 84.7808L71.2864 85.5236L69.8354 85.4967Z" fill="#5793CE"/>
<path d="M78.4228 100.645L79.9062 99.9024L77.0474 97.1892L78.4228 100.645Z" fill="#5793CE"/>
<path d="M75.2782 104.489L68.3362 100.408C67.9856 100.204 67.6997 99.6817 67.6997 99.2457L67.7213 91.2246L75.9417 96.0534L75.9201 104.074C75.9201 104.51 75.6342 104.699 75.2782 104.489Z" fill="#5793CE"/>
<path d="M71.2433 84.7861L63.7457 89.6041C63.4275 89.8087 63.6864 90.5678 64.1664 90.8531L71.8259 95.3535L79.4853 99.8539C79.9708 100.139 80.2297 99.6816 79.9114 99.1056L72.4623 85.5021C72.1387 84.9153 71.567 84.5762 71.2379 84.7861H71.2433Z" fill="#5793CE"/>
<path d="M73.7895 105.237L66.8474 101.157C66.4968 100.952 66.2109 100.43 66.2109 99.994L66.2325 91.9729L74.4529 96.8017L74.4314 104.823C74.4314 105.259 74.1455 105.447 73.7895 105.237Z" fill="#D4ECFF"/>
<path d="M69.7545 85.5344L62.2569 90.3524C61.9387 90.557 62.1976 91.316 62.6777 91.6014L70.3371 96.1018L77.9965 100.602C78.482 100.887 78.7409 100.43 78.4227 99.8539L70.9736 86.2504C70.6499 85.6636 70.0782 85.3245 69.7492 85.5344H69.7545Z" fill="#D4ECFF"/>
<path d="M13.1127 134.921L0.927734 127.896L13.1127 120.876L25.2977 127.896L13.1127 134.921Z" fill="#7DC3EA"/>
<path d="M13.1127 130.571C12.9509 130.571 12.7945 130.528 12.6489 130.447L0.463882 123.427C0.178001 123.26 0 122.959 0 122.625C0 122.291 0.178001 121.99 0.463882 121.823L12.6489 114.803C12.9347 114.637 13.2907 114.637 13.5766 114.803L25.7616 121.823C26.0475 121.99 26.2255 122.291 26.2255 122.625C26.2255 122.959 26.0475 123.26 25.7616 123.427L13.5766 130.447C13.431 130.528 13.2746 130.571 13.1127 130.571ZM2.7779 122.625L13.1127 128.579L23.4476 122.625L13.1127 116.671L2.7779 122.625Z" fill="white"/>
<path d="M25.2978 117.14L13.1128 124.159V110.12L25.2978 103.095V117.14Z" fill="url(#paint11_radial_543_5)"/>
<path d="M13.1127 110.12L0.927734 103.095L13.1127 96.075L25.2977 103.095L13.1127 110.12Z" fill="url(#paint12_linear_543_5)"/>
<path d="M13.1127 124.159L0.927734 117.14V103.095L13.1127 110.12V124.159Z" fill="url(#paint13_radial_543_5)"/>
<path d="M8.72198 116.574L5.31299 114.609V110.685L8.72198 112.645V116.574Z" fill="white"/>
<path d="M138.733 172.044L126.548 165.024L138.733 158.004L150.918 165.024L138.733 172.044Z" fill="#7DC3EA"/>
<path d="M138.733 167.699C138.571 167.699 138.415 167.656 138.269 167.576L126.084 160.556C125.798 160.389 125.62 160.087 125.62 159.754C125.62 159.42 125.798 159.118 126.084 158.952L138.269 151.932C138.555 151.765 138.911 151.765 139.197 151.932L151.382 158.952C151.668 159.118 151.846 159.42 151.846 159.754C151.846 160.087 151.668 160.389 151.382 160.556L139.197 167.576C139.051 167.656 138.895 167.699 138.733 167.699ZM128.398 159.754L138.733 165.708L149.068 159.754L138.733 153.8L128.398 159.754Z" fill="white"/>
<path d="M150.918 154.263L138.733 161.288V147.243L150.918 140.223V154.263Z" fill="url(#paint14_radial_543_5)"/>
<path d="M138.733 147.243L126.548 140.223L138.733 133.203L150.918 140.223L138.733 147.243Z" fill="url(#paint15_linear_543_5)"/>
<path d="M138.733 161.288L126.548 154.263V140.223L138.733 147.243V161.288Z" fill="url(#paint16_radial_543_5)"/>
<path d="M134.347 153.703L130.938 151.738V147.808L134.347 149.773V153.703Z" fill="white"/>
<path d="M107.022 78.262L94.8369 71.2368L107.022 64.217L119.207 71.2368L107.022 78.262Z" fill="#7DC3EA"/>
<path d="M107.022 73.9123C106.86 73.9123 106.704 73.8692 106.558 73.7884L94.3731 66.7687C94.0872 66.6018 93.9092 66.3003 93.9092 65.9666C93.9092 65.6328 94.0872 65.3313 94.3731 65.1645L106.558 58.1447C106.844 57.9778 107.2 57.9778 107.486 58.1447L119.671 65.1645C119.957 65.3313 120.135 65.6328 120.135 65.9666C120.135 66.3003 119.957 66.6018 119.671 66.7687L107.486 73.7884C107.34 73.8692 107.184 73.9123 107.022 73.9123ZM96.6871 65.9666L107.022 71.9205L117.351 65.9666L107.017 60.0127L96.6871 65.9666Z" fill="white"/>
<path d="M119.207 60.481L107.022 67.5007V53.4612L119.207 46.436V60.481Z" fill="url(#paint17_radial_543_5)"/>
<path d="M107.022 53.4612L94.8369 46.436L107.022 39.4163L119.207 46.436L107.022 53.4612Z" fill="url(#paint18_linear_543_5)"/>
<path d="M107.022 67.5007L94.8369 60.481V46.436L107.022 53.4612V67.5007Z" fill="url(#paint19_radial_543_5)"/>
<path d="M102.637 59.9157L99.2275 57.9508V54.0264L102.637 55.9859V59.9157Z" fill="white"/>
<defs>
<radialGradient id="paint0_radial_543_5" cx="0" cy="0" r="1" gradientUnits="userSpaceOnUse" gradientTransform="translate(150.853 59.0275) scale(65.348 65.2182)">
<stop stop-color="#396CAA"/>
<stop offset="1" stop-color="#274F89"/>
</radialGradient>
<linearGradient id="paint1_linear_543_5" x1="130.302" y1="12.7584" x2="191.167" y2="49.9189" gradientUnits="userSpaceOnUse">
<stop stop-color="#D4ECFF"/>
<stop offset="0.24" stop-color="#D0E9FD"/>
<stop offset="0.46" stop-color="#C5E2F9"/>
<stop offset="0.67" stop-color="#B2D5F1"/>
<stop offset="0.88" stop-color="#98C4E7"/>
<stop offset="1" stop-color="#86B8E0"/>
</linearGradient>
<linearGradient id="paint2_linear_543_5" x1="-201.922" y1="-123.999" x2="-166.868" y2="-113.109" gradientUnits="userSpaceOnUse">
<stop stop-color="#3919BB"/>
<stop offset="1" stop-color="#6507FA"/>
</linearGradient>
<linearGradient id="paint3_linear_543_5" x1="-201.922" y1="-123.999" x2="-166.868" y2="-113.109" gradientUnits="userSpaceOnUse">
<stop stop-color="#3919BB"/>
<stop offset="1" stop-color="#6507FA"/>
</linearGradient>
<radialGradient id="paint4_radial_543_5" cx="0" cy="0" r="1" gradientUnits="userSpaceOnUse" gradientTransform="translate(58.3951 122.717) scale(6.86653 6.85289)">
<stop stop-color="#699DD1"/>
<stop offset="0.27" stop-color="#6296CB"/>
<stop offset="0.64" stop-color="#5084BD"/>
<stop offset="1" stop-color="#396CAA"/>
</radialGradient>
<radialGradient id="paint5_radial_543_5" cx="0" cy="0" r="1" gradientUnits="userSpaceOnUse" gradientTransform="translate(54.5545 115.358) scale(10.8581 10.8365)">
<stop stop-color="#699DD1"/>
<stop offset="0.27" stop-color="#6296CB"/>
<stop offset="0.64" stop-color="#5084BD"/>
<stop offset="1" stop-color="#396CAA"/>
</radialGradient>
<radialGradient id="paint6_radial_543_5" cx="0" cy="0" r="1" gradientUnits="userSpaceOnUse" gradientTransform="translate(81.4864 136.035) scale(6.86652 6.85289)">
<stop stop-color="#699DD1"/>
<stop offset="0.27" stop-color="#6296CB"/>
<stop offset="0.64" stop-color="#5084BD"/>
<stop offset="1" stop-color="#396CAA"/>
</radialGradient>
<radialGradient id="paint7_radial_543_5" cx="0" cy="0" r="1" gradientUnits="userSpaceOnUse" gradientTransform="translate(77.6458 128.681) scale(10.8581 10.8365)">
<stop stop-color="#699DD1"/>
<stop offset="0.27" stop-color="#6296CB"/>
<stop offset="0.64" stop-color="#5084BD"/>
<stop offset="1" stop-color="#396CAA"/>
</radialGradient>
<radialGradient id="paint8_radial_543_5" cx="0" cy="0" r="1" gradientUnits="userSpaceOnUse" gradientTransform="translate(87.9105 90.6809) scale(39.0793 39.0017)">
<stop stop-color="#699DD1"/>
<stop offset="0.27" stop-color="#6296CB"/>
<stop offset="0.64" stop-color="#5084BD"/>
<stop offset="1" stop-color="#396CAA"/>
</radialGradient>
<linearGradient id="paint9_linear_543_5" x1="35.6592" y1="93.8732" x2="114.589" y2="93.8732" gradientUnits="userSpaceOnUse">
<stop stop-color="#D4ECFF"/>
<stop offset="0.24" stop-color="#D0E9FD"/>
<stop offset="0.46" stop-color="#C5E2F9"/>
<stop offset="0.67" stop-color="#B2D5F1"/>
<stop offset="0.88" stop-color="#98C4E7"/>
<stop offset="1" stop-color="#86B8E0"/>
</linearGradient>
<radialGradient id="paint10_radial_543_5" cx="0" cy="0" r="1" gradientUnits="userSpaceOnUse" gradientTransform="translate(111.957 123.304) scale(79.0217 78.8647)">
<stop stop-color="#173D7A"/>
<stop offset="1" stop-color="#274F89"/>
</radialGradient>
<radialGradient id="paint11_radial_543_5" cx="0" cy="0" r="1" gradientUnits="userSpaceOnUse" gradientTransform="translate(11.9585 109.673) scale(18.1615 18.1254)">
<stop stop-color="#274F89"/>
<stop offset="1" stop-color="#173D7A"/>
</radialGradient>
<linearGradient id="paint12_linear_543_5" x1="0.927734" y1="103.095" x2="33.065" y2="103.095" gradientUnits="userSpaceOnUse">
<stop stop-color="#D4ECFF"/>
<stop offset="0.24" stop-color="#D0E9FD"/>
<stop offset="0.46" stop-color="#C5E2F9"/>
<stop offset="0.67" stop-color="#B2D5F1"/>
<stop offset="0.88" stop-color="#98C4E7"/>
<stop offset="1" stop-color="#86B8E0"/>
</linearGradient>
<radialGradient id="paint13_radial_543_5" cx="0" cy="0" r="1" gradientUnits="userSpaceOnUse" gradientTransform="translate(-14.1484 90.9178) scale(32.8277 32.7625)">
<stop stop-color="#699DD1"/>
<stop offset="0.27" stop-color="#6296CB"/>
<stop offset="0.64" stop-color="#5084BD"/>
<stop offset="1" stop-color="#396CAA"/>
</radialGradient>
<radialGradient id="paint14_radial_543_5" cx="0" cy="0" r="1" gradientUnits="userSpaceOnUse" gradientTransform="translate(137.584 146.801) scale(18.1615 18.1254)">
<stop stop-color="#274F89"/>
<stop offset="1" stop-color="#173D7A"/>
</radialGradient>
<linearGradient id="paint15_linear_543_5" x1="126.548" y1="140.223" x2="158.685" y2="140.223" gradientUnits="userSpaceOnUse">
<stop stop-color="#D4ECFF"/>
<stop offset="0.24" stop-color="#D0E9FD"/>
<stop offset="0.46" stop-color="#C5E2F9"/>
<stop offset="0.67" stop-color="#B2D5F1"/>
<stop offset="0.88" stop-color="#98C4E7"/>
<stop offset="1" stop-color="#86B8E0"/>
</linearGradient>
<radialGradient id="paint16_radial_543_5" cx="0" cy="0" r="1" gradientUnits="userSpaceOnUse" gradientTransform="translate(111.472 128.046) scale(32.8277 32.7625)">
<stop stop-color="#699DD1"/>
<stop offset="0.27" stop-color="#6296CB"/>
<stop offset="0.64" stop-color="#5084BD"/>
<stop offset="1" stop-color="#396CAA"/>
</radialGradient>
<radialGradient id="paint17_radial_543_5" cx="0" cy="0" r="1" gradientUnits="userSpaceOnUse" gradientTransform="translate(105.873 53.0144) scale(18.1615 18.1254)">
<stop stop-color="#274F89"/>
<stop offset="1" stop-color="#173D7A"/>
</radialGradient>
<linearGradient id="paint18_linear_543_5" x1="94.8369" y1="46.436" x2="126.974" y2="46.436" gradientUnits="userSpaceOnUse">
<stop stop-color="#D4ECFF"/>
<stop offset="0.24" stop-color="#D0E9FD"/>
<stop offset="0.46" stop-color="#C5E2F9"/>
<stop offset="0.67" stop-color="#B2D5F1"/>
<stop offset="0.88" stop-color="#98C4E7"/>
<stop offset="1" stop-color="#86B8E0"/>
</linearGradient>
<radialGradient id="paint19_radial_543_5" cx="0" cy="0" r="1" gradientUnits="userSpaceOnUse" gradientTransform="translate(79.7608 34.2591) scale(32.8277 32.7625)">
<stop stop-color="#699DD1"/>
<stop offset="0.27" stop-color="#6296CB"/>
<stop offset="0.64" stop-color="#5084BD"/>
<stop offset="1" stop-color="#396CAA"/>
</radialGradient>
</defs>
</svg>
