<svg width="1332" height="1332" viewBox="0 0 1332 1332" fill="none" xmlns="http://www.w3.org/2000/svg">
<rect width="1332" height="1332" fill="url(#paint0_radial_3057_1400)"/>
<g filter="url(#filter0_d_3057_1400)">
<rect x="104" y="488" width="309" height="132" rx="40" fill="white" shape-rendering="crispEdges"/>
<path d="M200.016 544.449H189.391C189.088 542.706 188.53 541.163 187.715 539.818C186.901 538.455 185.888 537.299 184.675 536.352C183.463 535.405 182.081 534.695 180.528 534.222C178.994 533.729 177.336 533.483 175.556 533.483C172.393 533.483 169.59 534.278 167.147 535.869C164.704 537.441 162.791 539.752 161.408 542.801C160.026 545.831 159.335 549.534 159.335 553.909C159.335 558.36 160.026 562.11 161.408 565.159C162.81 568.189 164.723 570.481 167.147 572.034C169.59 573.568 172.384 574.335 175.528 574.335C177.27 574.335 178.899 574.108 180.414 573.653C181.948 573.18 183.321 572.489 184.533 571.58C185.764 570.67 186.797 569.553 187.63 568.227C188.482 566.902 189.069 565.386 189.391 563.682L200.016 563.739C199.619 566.504 198.757 569.098 197.431 571.523C196.124 573.947 194.41 576.087 192.289 577.943C190.168 579.78 187.687 581.22 184.846 582.261C182.005 583.284 178.852 583.795 175.386 583.795C170.272 583.795 165.708 582.612 161.692 580.244C157.677 577.877 154.514 574.458 152.204 569.989C149.893 565.519 148.738 560.159 148.738 553.909C148.738 547.64 149.903 542.28 152.232 537.83C154.562 533.36 157.734 529.941 161.749 527.574C165.764 525.206 170.31 524.023 175.386 524.023C178.624 524.023 181.636 524.477 184.42 525.386C187.204 526.295 189.685 527.631 191.863 529.392C194.041 531.134 195.831 533.275 197.232 535.812C198.653 538.331 199.581 541.21 200.016 544.449ZM219.498 524.818V583H209.214V524.818H219.498ZM249.107 583.852C244.846 583.852 241.153 582.915 238.028 581.04C234.903 579.165 232.478 576.542 230.755 573.17C229.05 569.799 228.198 565.86 228.198 561.352C228.198 556.845 229.05 552.896 230.755 549.506C232.478 546.116 234.903 543.483 238.028 541.608C241.153 539.733 244.846 538.795 249.107 538.795C253.369 538.795 257.062 539.733 260.187 541.608C263.312 543.483 265.727 546.116 267.431 549.506C269.155 552.896 270.016 556.845 270.016 561.352C270.016 565.86 269.155 569.799 267.431 573.17C265.727 576.542 263.312 579.165 260.187 581.04C257.062 582.915 253.369 583.852 249.107 583.852ZM249.164 575.614C251.475 575.614 253.406 574.979 254.96 573.71C256.513 572.422 257.668 570.699 258.425 568.54C259.202 566.381 259.59 563.975 259.59 561.324C259.59 558.653 259.202 556.239 258.425 554.08C257.668 551.902 256.513 550.169 254.96 548.881C253.406 547.593 251.475 546.949 249.164 546.949C246.797 546.949 244.827 547.593 243.255 548.881C241.702 550.169 240.537 551.902 239.761 554.08C239.003 556.239 238.624 558.653 238.624 561.324C238.624 563.975 239.003 566.381 239.761 568.54C240.537 570.699 241.702 572.422 243.255 573.71C244.827 574.979 246.797 575.614 249.164 575.614ZM306.558 564.648V539.364H316.842V583H306.87V575.244H306.415C305.431 577.687 303.811 579.686 301.558 581.239C299.323 582.792 296.567 583.568 293.29 583.568C290.431 583.568 287.902 582.934 285.705 581.665C283.527 580.377 281.823 578.511 280.592 576.068C279.361 573.606 278.745 570.633 278.745 567.148V539.364H289.029V565.557C289.029 568.322 289.787 570.519 291.302 572.148C292.817 573.777 294.806 574.591 297.268 574.591C298.783 574.591 300.251 574.222 301.671 573.483C303.092 572.744 304.256 571.646 305.165 570.188C306.094 568.71 306.558 566.864 306.558 564.648ZM343.61 583.767C340.182 583.767 337.114 582.886 334.406 581.125C331.697 579.364 329.557 576.807 327.985 573.455C326.413 570.102 325.627 566.03 325.627 561.239C325.627 556.39 326.423 552.299 328.013 548.966C329.623 545.614 331.792 543.085 334.519 541.381C337.246 539.657 340.286 538.795 343.638 538.795C346.195 538.795 348.298 539.231 349.945 540.102C351.593 540.955 352.9 541.987 353.866 543.199C354.832 544.392 355.58 545.519 356.11 546.58H356.536V524.818H366.849V583H356.735V576.125H356.11C355.58 577.186 354.813 578.312 353.809 579.506C352.805 580.68 351.479 581.684 349.832 582.517C348.184 583.35 346.11 583.767 343.61 583.767ZM346.479 575.33C348.657 575.33 350.513 574.742 352.048 573.568C353.582 572.375 354.746 570.718 355.542 568.597C356.337 566.475 356.735 564.004 356.735 561.182C356.735 558.36 356.337 555.907 355.542 553.824C354.765 551.741 353.61 550.121 352.076 548.966C350.561 547.811 348.695 547.233 346.479 547.233C344.188 547.233 342.275 547.83 340.741 549.023C339.207 550.216 338.051 551.864 337.275 553.966C336.498 556.068 336.11 558.473 336.11 561.182C336.11 563.909 336.498 566.343 337.275 568.483C338.07 570.604 339.235 572.28 340.769 573.511C342.322 574.723 344.226 575.33 346.479 575.33Z" fill="#FF9900"/>
</g>
<path d="M127.455 197.182V267H108.5V197.182H127.455ZM158.408 237.545V267H139.59V214.636H157.454V224.591H157.999C159.136 221.273 161.136 218.67 163.999 216.784C166.886 214.898 170.249 213.955 174.09 213.955C177.795 213.955 181.011 214.807 183.738 216.511C186.488 218.193 188.613 220.511 190.113 223.466C191.636 226.42 192.386 229.795 192.363 233.591V267H173.545V237.545C173.568 234.955 172.908 232.92 171.568 231.443C170.249 229.966 168.408 229.227 166.045 229.227C164.499 229.227 163.147 229.568 161.988 230.25C160.852 230.909 159.977 231.864 159.363 233.114C158.749 234.341 158.431 235.818 158.408 237.545ZM235.76 214.636V228.273H201.26V214.636H235.76ZM207.942 202.091H226.76V250.159C226.76 250.886 226.885 251.5 227.135 252C227.385 252.477 227.771 252.841 228.294 253.091C228.817 253.318 229.487 253.432 230.305 253.432C230.874 253.432 231.533 253.364 232.283 253.227C233.055 253.091 233.624 252.977 233.987 252.886L236.715 266.114C235.874 266.364 234.669 266.67 233.101 267.034C231.555 267.398 229.715 267.636 227.578 267.75C223.26 267.977 219.635 267.534 216.703 266.42C213.771 265.284 211.567 263.5 210.09 261.068C208.612 258.636 207.896 255.591 207.942 251.932V202.091ZM246.319 267V214.636H264.592V224.591H265.137C266.092 220.909 267.603 218.216 269.671 216.511C271.762 214.807 274.205 213.955 277.001 213.955C277.819 213.955 278.626 214.023 279.421 214.159C280.239 214.273 281.024 214.443 281.774 214.67V230.727C280.842 230.409 279.694 230.17 278.33 230.011C276.967 229.852 275.796 229.773 274.819 229.773C272.978 229.773 271.319 230.193 269.842 231.034C268.387 231.852 267.239 233.011 266.399 234.511C265.558 235.989 265.137 237.727 265.137 239.727V267H246.319ZM313.051 267.955C307.369 267.955 302.506 266.83 298.46 264.58C294.415 262.307 291.313 259.148 289.154 255.102C286.994 251.034 285.915 246.318 285.915 240.955C285.915 235.591 286.994 230.886 289.154 226.841C291.313 222.773 294.415 219.614 298.46 217.364C302.506 215.091 307.369 213.955 313.051 213.955C318.733 213.955 323.597 215.091 327.642 217.364C331.688 219.614 334.79 222.773 336.949 226.841C339.108 230.886 340.188 235.591 340.188 240.955C340.188 246.318 339.108 251.034 336.949 255.102C334.79 259.148 331.688 262.307 327.642 264.58C323.597 266.83 318.733 267.955 313.051 267.955ZM313.188 254.045C314.779 254.045 316.154 253.511 317.313 252.443C318.472 251.375 319.369 249.852 320.006 247.875C320.642 245.898 320.96 243.545 320.96 240.818C320.96 238.068 320.642 235.716 320.006 233.761C319.369 231.784 318.472 230.261 317.313 229.193C316.154 228.125 314.779 227.591 313.188 227.591C311.506 227.591 310.063 228.125 308.858 229.193C307.654 230.261 306.733 231.784 306.097 233.761C305.46 235.716 305.142 238.068 305.142 240.818C305.142 243.545 305.46 245.898 306.097 247.875C306.733 249.852 307.654 251.375 308.858 252.443C310.063 253.511 311.506 254.045 313.188 254.045ZM369.659 267.682C365.931 267.682 362.499 266.705 359.363 264.75C356.249 262.795 353.749 259.83 351.863 255.852C349.999 251.875 349.068 246.864 349.068 240.818C349.068 234.5 350.045 229.364 351.999 225.409C353.977 221.455 356.522 218.557 359.636 216.716C362.772 214.875 366.068 213.955 369.522 213.955C372.113 213.955 374.386 214.409 376.34 215.318C378.295 216.205 379.931 217.398 381.249 218.898C382.568 220.375 383.568 222 384.249 223.773H384.522V197.182H403.34V267H384.659V258.409H384.249C383.522 260.182 382.477 261.773 381.113 263.182C379.772 264.568 378.136 265.67 376.204 266.489C374.295 267.284 372.113 267.682 369.659 267.682ZM376.613 253.227C378.34 253.227 379.818 252.727 381.045 251.727C382.295 250.705 383.249 249.273 383.909 247.432C384.59 245.568 384.931 243.364 384.931 240.818C384.931 238.227 384.59 236.011 383.909 234.17C383.249 232.307 382.295 230.886 381.045 229.909C379.818 228.909 378.34 228.409 376.613 228.409C374.886 228.409 373.409 228.909 372.181 229.909C370.977 230.886 370.045 232.307 369.386 234.17C368.749 236.011 368.431 238.227 368.431 240.818C368.431 243.409 368.749 245.636 369.386 247.5C370.045 249.341 370.977 250.761 372.181 251.761C373.409 252.739 374.886 253.227 376.613 253.227ZM449.414 244.091V214.636H468.232V267H450.368V257.045H449.823C448.686 260.386 446.698 263 443.857 264.886C441.016 266.75 437.641 267.682 433.732 267.682C430.073 267.682 426.868 266.841 424.118 265.159C421.391 263.477 419.266 261.159 417.743 258.205C416.243 255.25 415.482 251.864 415.459 248.045V214.636H434.277V244.091C434.3 246.682 434.959 248.716 436.254 250.193C437.573 251.67 439.414 252.409 441.777 252.409C443.345 252.409 444.698 252.08 445.834 251.42C446.993 250.739 447.879 249.784 448.493 248.557C449.129 247.307 449.436 245.818 449.414 244.091ZM505.91 267.955C500.228 267.955 495.365 266.83 491.319 264.58C487.274 262.307 484.171 259.148 482.012 255.102C479.853 251.034 478.774 246.318 478.774 240.955C478.774 235.591 479.853 230.886 482.012 226.841C484.171 222.773 487.274 219.614 491.319 217.364C495.365 215.091 500.228 213.955 505.91 213.955C511.046 213.955 515.49 214.886 519.24 216.75C523.012 218.591 525.933 221.205 528.001 224.591C530.069 227.955 531.115 231.909 531.137 236.455H513.683C513.433 233.705 512.637 231.614 511.296 230.182C509.978 228.727 508.274 228 506.183 228C504.546 228 503.115 228.477 501.887 229.432C500.66 230.364 499.705 231.784 499.024 233.693C498.342 235.58 498.001 237.955 498.001 240.818C498.001 243.682 498.342 246.068 499.024 247.977C499.705 249.864 500.66 251.284 501.887 252.239C503.115 253.17 504.546 253.636 506.183 253.636C507.569 253.636 508.796 253.318 509.865 252.682C510.933 252.023 511.796 251.068 512.455 249.818C513.137 248.545 513.546 247 513.683 245.182H531.137C531.069 249.795 530.012 253.818 527.967 257.25C525.921 260.659 523.024 263.295 519.274 265.159C515.546 267.023 511.092 267.955 505.91 267.955ZM573.009 214.636V228.273H538.509V214.636H573.009ZM545.191 202.091H564.009V250.159C564.009 250.886 564.134 251.5 564.384 252C564.634 252.477 565.02 252.841 565.543 253.091C566.066 253.318 566.736 253.432 567.554 253.432C568.122 253.432 568.781 253.364 569.531 253.227C570.304 253.091 570.872 252.977 571.236 252.886L573.963 266.114C573.122 266.364 571.918 266.67 570.35 267.034C568.804 267.398 566.963 267.636 564.827 267.75C560.509 267.977 556.884 267.534 553.952 266.42C551.02 265.284 548.816 263.5 547.338 261.068C545.861 258.636 545.145 255.591 545.191 251.932V202.091ZM583.568 267V214.636H602.386V267H583.568ZM592.977 209.182C590.431 209.182 588.25 208.341 586.431 206.659C584.613 204.977 583.704 202.955 583.704 200.591C583.704 198.227 584.613 196.205 586.431 194.523C588.25 192.841 590.431 192 592.977 192C595.545 192 597.727 192.841 599.522 194.523C601.34 196.205 602.25 198.227 602.25 200.591C602.25 202.955 601.34 204.977 599.522 206.659C597.727 208.341 595.545 209.182 592.977 209.182ZM640.081 267.955C634.399 267.955 629.536 266.83 625.49 264.58C621.445 262.307 618.343 259.148 616.184 255.102C614.024 251.034 612.945 246.318 612.945 240.955C612.945 235.591 614.024 230.886 616.184 226.841C618.343 222.773 621.445 219.614 625.49 217.364C629.536 215.091 634.399 213.955 640.081 213.955C645.763 213.955 650.627 215.091 654.672 217.364C658.718 219.614 661.82 222.773 663.979 226.841C666.138 230.886 667.218 235.591 667.218 240.955C667.218 246.318 666.138 251.034 663.979 255.102C661.82 259.148 658.718 262.307 654.672 264.58C650.627 266.83 645.763 267.955 640.081 267.955ZM640.218 254.045C641.809 254.045 643.184 253.511 644.343 252.443C645.502 251.375 646.399 249.852 647.036 247.875C647.672 245.898 647.99 243.545 647.99 240.818C647.99 238.068 647.672 235.716 647.036 233.761C646.399 231.784 645.502 230.261 644.343 229.193C643.184 228.125 641.809 227.591 640.218 227.591C638.536 227.591 637.093 228.125 635.888 229.193C634.684 230.261 633.763 231.784 633.127 233.761C632.49 235.716 632.172 238.068 632.172 240.818C632.172 243.545 632.49 245.898 633.127 247.875C633.763 249.852 634.684 251.375 635.888 252.443C637.093 253.511 638.536 254.045 640.218 254.045ZM696.552 237.545V267H677.734V214.636H695.598V224.591H696.143C697.279 221.273 699.279 218.67 702.143 216.784C705.029 214.898 708.393 213.955 712.234 213.955C715.939 213.955 719.154 214.807 721.882 216.511C724.632 218.193 726.757 220.511 728.257 223.466C729.779 226.42 730.529 229.795 730.507 233.591V267H711.689V237.545C711.711 234.955 711.052 232.92 709.711 231.443C708.393 229.966 706.552 229.227 704.189 229.227C702.643 229.227 701.291 229.568 700.132 230.25C698.995 230.909 698.12 231.864 697.507 233.114C696.893 234.341 696.575 235.818 696.552 237.545ZM762.5 212.455V197.182H823.181V212.455H802.181V267H783.5V212.455H762.5ZM851.101 267.955C845.419 267.955 840.556 266.83 836.51 264.58C832.465 262.307 829.363 259.148 827.204 255.102C825.044 251.034 823.965 246.318 823.965 240.955C823.965 235.591 825.044 230.886 827.204 226.841C829.363 222.773 832.465 219.614 836.51 217.364C840.556 215.091 845.419 213.955 851.101 213.955C856.783 213.955 861.647 215.091 865.692 217.364C869.738 219.614 872.84 222.773 874.999 226.841C877.158 230.886 878.238 235.591 878.238 240.955C878.238 246.318 877.158 251.034 874.999 255.102C872.84 259.148 869.738 262.307 865.692 264.58C861.647 266.83 856.783 267.955 851.101 267.955ZM851.238 254.045C852.829 254.045 854.204 253.511 855.363 252.443C856.522 251.375 857.419 249.852 858.056 247.875C858.692 245.898 859.01 243.545 859.01 240.818C859.01 238.068 858.692 235.716 858.056 233.761C857.419 231.784 856.522 230.261 855.363 229.193C854.204 228.125 852.829 227.591 851.238 227.591C849.556 227.591 848.113 228.125 846.908 229.193C845.704 230.261 844.783 231.784 844.147 233.761C843.51 235.716 843.192 238.068 843.192 240.818C843.192 243.545 843.51 245.898 844.147 247.875C844.783 249.852 845.704 251.375 846.908 252.443C848.113 253.511 849.556 254.045 851.238 254.045ZM126.636 387H106.182L129.227 317.182H155.136L178.182 387H157.727L142.455 336.409H141.909L126.636 387ZM122.818 359.455H161.273V373.636H122.818V359.455ZM197.357 387L176.766 317.182H197.903L207.448 360.136H207.994L219.312 317.182H235.948L247.266 360.273H247.812L257.357 317.182H278.494L257.903 387H239.766L227.903 348H227.357L215.494 387H197.357ZM324.021 339C323.84 336.727 322.987 334.955 321.465 333.682C319.965 332.409 317.68 331.773 314.612 331.773C312.658 331.773 311.055 332.011 309.805 332.489C308.578 332.943 307.669 333.568 307.078 334.364C306.487 335.159 306.18 336.068 306.158 337.091C306.112 337.932 306.26 338.693 306.601 339.375C306.965 340.034 307.533 340.636 308.305 341.182C309.078 341.705 310.067 342.182 311.271 342.614C312.476 343.045 313.908 343.432 315.567 343.773L321.294 345C325.158 345.818 328.465 346.898 331.215 348.239C333.965 349.58 336.215 351.159 337.965 352.977C339.715 354.773 340.999 356.795 341.817 359.045C342.658 361.295 343.09 363.75 343.112 366.409C343.09 371 341.942 374.886 339.669 378.068C337.396 381.25 334.146 383.67 329.919 385.33C325.715 386.989 320.658 387.818 314.749 387.818C308.68 387.818 303.385 386.92 298.862 385.125C294.362 383.33 290.862 380.568 288.362 376.841C285.885 373.091 284.635 368.295 284.612 362.455H302.612C302.726 364.591 303.26 366.386 304.215 367.841C305.169 369.295 306.51 370.398 308.237 371.148C309.987 371.898 312.067 372.273 314.476 372.273C316.499 372.273 318.192 372.023 319.555 371.523C320.919 371.023 321.953 370.33 322.658 369.443C323.362 368.557 323.726 367.545 323.749 366.409C323.726 365.341 323.374 364.409 322.692 363.614C322.033 362.795 320.942 362.068 319.419 361.432C317.896 360.773 315.84 360.159 313.249 359.591L306.294 358.091C300.112 356.75 295.237 354.511 291.669 351.375C288.124 348.216 286.362 343.909 286.385 338.455C286.362 334.023 287.544 330.148 289.93 326.83C292.34 323.489 295.669 320.886 299.919 319.023C304.192 317.159 309.09 316.227 314.612 316.227C320.249 316.227 325.124 317.17 329.237 319.057C333.351 320.943 336.521 323.602 338.749 327.034C340.999 330.443 342.135 334.432 342.158 339H324.021ZM412.844 339C412.662 336.727 411.81 334.955 410.287 333.682C408.787 332.409 406.503 331.773 403.435 331.773C401.48 331.773 399.878 332.011 398.628 332.489C397.401 332.943 396.492 333.568 395.901 334.364C395.31 335.159 395.003 336.068 394.98 337.091C394.935 337.932 395.082 338.693 395.423 339.375C395.787 340.034 396.355 340.636 397.128 341.182C397.901 341.705 398.889 342.182 400.094 342.614C401.298 343.045 402.73 343.432 404.389 343.773L410.117 345C413.98 345.818 417.287 346.898 420.037 348.239C422.787 349.58 425.037 351.159 426.787 352.977C428.537 354.773 429.821 356.795 430.639 359.045C431.48 361.295 431.912 363.75 431.935 366.409C431.912 371 430.764 374.886 428.492 378.068C426.219 381.25 422.969 383.67 418.742 385.33C414.537 386.989 409.48 387.818 403.571 387.818C397.503 387.818 392.207 386.92 387.685 385.125C383.185 383.33 379.685 380.568 377.185 376.841C374.707 373.091 373.457 368.295 373.435 362.455H391.435C391.548 364.591 392.082 366.386 393.037 367.841C393.992 369.295 395.332 370.398 397.06 371.148C398.81 371.898 400.889 372.273 403.298 372.273C405.321 372.273 407.014 372.023 408.378 371.523C409.742 371.023 410.776 370.33 411.48 369.443C412.185 368.557 412.548 367.545 412.571 366.409C412.548 365.341 412.196 364.409 411.514 363.614C410.855 362.795 409.764 362.068 408.242 361.432C406.719 360.773 404.662 360.159 402.071 359.591L395.117 358.091C388.935 356.75 384.06 354.511 380.492 351.375C376.946 348.216 375.185 343.909 375.207 338.455C375.185 334.023 376.367 330.148 378.753 326.83C381.162 323.489 384.492 320.886 388.742 319.023C393.014 317.159 397.912 316.227 403.435 316.227C409.071 316.227 413.946 317.17 418.06 319.057C422.173 320.943 425.344 323.602 427.571 327.034C429.821 330.443 430.957 334.432 430.98 339H412.844ZM457.443 387H436.988L460.034 317.182H485.943L508.988 387H488.534L473.261 336.409H472.715L457.443 387ZM453.624 359.455H492.079V373.636H453.624V359.455ZM518.592 317.182H542.183L558.411 356.727H559.229L575.456 317.182H599.047V387H580.502V346.636H579.956L564.411 386.455H553.229L537.683 346.364H537.138V387H518.592V317.182Z" fill="white"/>
<path d="M1023.7 674.308V769.591L1109.64 820.849L1194.5 770.065V674.071L1109.64 623.316L1023.7 674.308Z" fill="white" fill-opacity="0.15" stroke="white" stroke-width="4"/>
<path d="M1188.55 676.752V767.621L1108.91 815.099L1029.27 767.621V676.752L1108.91 629.273L1188.55 676.752ZM1115.55 617.778C1113.53 616.613 1111.24 616 1108.91 616C1106.58 616 1104.29 616.613 1102.28 617.778L1022.64 665.257C1020.62 666.422 1018.94 668.097 1017.78 670.115C1016.61 672.133 1016 674.422 1016 676.752V767.621C1016 769.951 1016.61 772.24 1017.78 774.257C1018.94 776.275 1020.62 777.951 1022.64 779.115L1102.28 826.594C1104.29 827.759 1106.58 828.372 1108.91 828.372C1111.24 828.372 1113.53 827.759 1115.55 826.594L1195.19 779.115C1197.21 777.951 1198.88 776.275 1200.05 774.257C1201.21 772.24 1201.83 769.951 1201.83 767.621V676.752C1201.83 674.422 1201.21 672.133 1200.05 670.115C1198.88 668.097 1197.21 666.422 1195.19 665.257L1115.55 617.778Z" fill="white" fill-opacity="0.15"/>
<g opacity="0.8">
<path d="M1105.62 775.372L1059.3 748.826V695.732L1105.62 722.279V775.372Z" fill="white"/>
<path d="M1151.95 748.826L1105.62 775.372V722.279L1151.95 695.732V748.826Z" fill="#EBEBEB"/>
<path d="M1105.62 721.744L1059.3 695.333L1105.62 668.922L1151.94 695.333L1105.62 721.744Z" fill="#FBFBFB"/>
<path d="M1105.62 721.896L1061.31 696.863L1059.3 698.011L1105.62 724.175L1151.94 698.011V695.732L1105.62 721.896Z" fill="white"/>
</g>
<path d="M743.656 951.692V1145.65L918.601 1249.99L1091.36 1146.62V951.209L918.601 847.893L743.656 951.692Z" fill="white" fill-opacity="0.15" stroke="white" stroke-width="4"/>
<path d="M1079.25 956.667V1141.64L917.136 1238.29L755.019 1141.64V956.667L917.136 860.019L1079.25 956.667ZM930.646 836.62C926.538 834.248 921.879 833 917.136 833C912.393 833 907.734 834.248 903.626 836.62L741.51 933.268C737.402 935.64 733.992 939.051 731.62 943.158C729.249 947.265 728 951.925 728 956.667V1141.64C728 1146.39 729.249 1151.04 731.62 1155.15C733.992 1159.26 737.402 1162.67 741.51 1165.04L903.626 1261.69C907.734 1264.06 912.393 1265.31 917.136 1265.31C921.879 1265.31 926.538 1264.06 930.646 1261.69L1092.76 1165.04C1096.87 1162.67 1100.28 1159.26 1102.65 1155.15C1105.02 1151.04 1106.27 1146.39 1106.27 1141.64V956.667C1106.27 951.925 1105.02 947.265 1102.65 943.158C1100.28 939.051 1096.87 935.64 1092.76 933.268L930.646 836.62Z" fill="white" fill-opacity="0.15"/>
<path d="M861.345 998.484C865.491 998.484 871.552 1001.05 875.387 1002.05C882.586 981.654 899.999 965 922.879 965C950.885 965 973.775 986.959 975.285 1014.59C976.994 1014.37 978.737 1014.21 980.504 1014.21C1002.31 1014.21 1019.98 1031.88 1019.98 1053.68C1019.98 1075.49 1002.31 1093.16 980.504 1093.16C964.273 1093.16 886.354 1093.16 861.345 1093.16C835.194 1093.16 814 1071.97 814 1045.82C814 1019.67 835.194 998.484 861.345 998.484Z" fill="#C8C6CE"/>
<path d="M921.497 1133.29L881 1110.08V1063.67L921.497 1086.88V1133.29Z" fill="white"/>
<path d="M962.001 1110.08L921.504 1133.29V1086.88L962.001 1063.67V1110.08Z" fill="#EBEBEB"/>
<path d="M921.497 1086.41L881 1063.32L921.497 1040.23L961.994 1063.32L921.497 1086.41Z" fill="#FBFBFB"/>
<path d="M921.497 1086.54L882.764 1064.66L881 1065.66L921.497 1088.53L961.994 1065.66V1063.67L921.497 1086.54Z" fill="white"/>
<defs>
<filter id="filter0_d_3057_1400" x="64" y="464" width="389" height="212" filterUnits="userSpaceOnUse" color-interpolation-filters="sRGB">
<feFlood flood-opacity="0" result="BackgroundImageFix"/>
<feColorMatrix in="SourceAlpha" type="matrix" values="0 0 0 0 0 0 0 0 0 0 0 0 0 0 0 0 0 0 127 0" result="hardAlpha"/>
<feOffset dy="16"/>
<feGaussianBlur stdDeviation="20"/>
<feComposite in2="hardAlpha" operator="out"/>
<feColorMatrix type="matrix" values="0 0 0 0 0 0 0 0 0 0 0 0 0 0 0 0 0 0 0.05 0"/>
<feBlend mode="normal" in2="BackgroundImageFix" result="effect1_dropShadow_3057_1400"/>
<feBlend mode="normal" in="SourceGraphic" in2="effect1_dropShadow_3057_1400" result="shape"/>
</filter>
<radialGradient id="paint0_radial_3057_1400" cx="0" cy="0" r="1" gradientUnits="userSpaceOnUse" gradientTransform="translate(-355.2 -322.136) rotate(36.5012) scale(2238.73 3337.02)">
<stop offset="0.120942" stop-color="#321179"/>
<stop offset="1" stop-color="#160E2B"/>
</radialGradient>
</defs>
</svg>
