<svg width="35" height="62" viewBox="0 0 35 62" fill="none" xmlns="http://www.w3.org/2000/svg">
<path d="M34.6444 32.3626L0.312732 19.6101V44.9746C0.204225 45.8017 0.638254 46.5964 1.65279 47.1856L24.8679 60.5652C26.8807 61.7221 30.3909 61.5761 32.7129 60.2409C33.9391 59.5327 34.5901 58.6191 34.6335 57.7758L34.6444 32.3626Z" fill="#BCBEFF"/>
<path d="M24.8647 35.0925L1.6496 21.6967C-0.36321 20.5398 -0.108218 18.5234 2.19213 17.1881C4.51418 15.8475 8.02438 15.7069 10.0372 16.8638L33.2631 30.2596C35.2705 31.4165 35.0209 33.4329 32.7206 34.7735C30.3877 36.1088 26.8775 36.2386 24.8647 35.0925Z" fill="white"/>
<path d="M32.82 34.552C30.4979 35.8872 26.9877 36.0332 24.9749 34.8763L1.75981 21.4805C0.739841 20.8912 0.300392 20.0803 0.425175 19.2424C0.00199795 20.2479 0.381774 21.2805 1.61333 21.9886L24.8284 35.3845C26.8412 36.5413 30.3514 36.4008 32.6735 35.0601C33.8128 34.406 34.453 33.5897 34.5723 32.7842C34.1964 33.5475 33.5813 34.168 32.82 34.552Z" fill="#BCBEFF"/>
<g opacity="0.3">
<path opacity="0.3" d="M19.7622 1.33235C18.2823 0.482282 16.6038 0.0357153 14.8957 0.0376036C13.1875 0.039492 11.51 0.489768 10.0321 1.34311C8.55411 2.19645 7.32789 3.42273 6.47684 4.89847C5.6258 6.37421 5.17997 8.04732 5.18427 9.74935V22.5559C5.18427 23.5776 6.61657 24.4102 8.37981 24.4102C10.143 24.4102 11.5699 23.5776 11.5699 22.5559C11.5699 22.5559 11.5699 22.5559 11.5699 22.5181H11.6079V11.0846C11.6082 10.3646 11.7984 9.65736 12.1594 9.03368C12.5204 8.41001 13.0396 7.89181 13.6649 7.53101C14.2902 7.17021 14.9996 6.97948 15.7222 6.97791C16.4448 6.97635 17.1551 7.16402 17.7819 7.52212C19.3492 8.41996 20.6511 9.71393 21.556 11.2734C22.461 12.8329 22.937 14.6026 22.936 16.404V32.7136H22.9577C22.9957 33.7191 24.4063 34.5246 26.1478 34.5246C27.8894 34.5246 29.3217 33.7083 29.3379 32.692V17.8582C29.3406 14.508 28.4568 11.2163 26.7757 8.31491C25.0945 5.41354 22.6754 3.00509 19.7622 1.33235Z" fill="url(#paint0_linear_549_39)"/>
<path style="mix-blend-mode:color-dodge" opacity="0.3" d="M7.16553 23.4096V11.2572C7.1684 8.85796 8.12617 6.55786 9.82876 4.86137C11.5314 3.16488 13.8397 2.21054 16.2476 2.20768C17.8344 2.20834 19.3924 2.63003 20.7615 3.42941C21.6688 3.95086 22.5292 4.54954 23.3331 5.21876C22.1766 4.05319 20.8683 3.04771 19.4431 2.2293C18.074 1.42992 16.516 1.00823 14.9292 1.00757C12.5223 1.01186 10.2153 1.96683 8.5139 3.66316C6.81248 5.3595 5.85545 7.65879 5.85258 10.0571V22.1825V22.8853C5.85258 23.2691 6.39512 23.6799 7.17094 23.8962L7.16553 23.4096Z" fill="url(#paint1_radial_549_39)"/>
<path style="mix-blend-mode:color-dodge" opacity="0.3" d="M24.9207 33.8004V18.1233C24.9205 16.4528 24.536 14.8045 23.7968 13.3051C23.0575 11.8057 21.9832 10.495 20.6564 9.47388C22.5458 11.492 23.6 14.1471 23.6078 16.907V32.5841V33.222C23.6078 33.6004 24.1503 34.0167 24.9153 34.2383L24.9207 33.8004Z" fill="url(#paint2_radial_549_39)"/>
<path opacity="0.3" d="M13.0946 4.49512C11.7094 4.49655 10.3813 5.04548 9.40185 6.02147C8.42236 6.99745 7.87145 8.32076 7.87001 9.701V22.9779L7.83746 24.1131C7.81033 24.2104 9.6224 24.0645 9.6658 23.8969L9.69835 22.7563V9.48476C9.69982 8.37051 10.0593 7.286 10.7241 6.39007C11.389 5.49414 12.3243 4.83386 13.393 4.50593L13.0946 4.49512Z" fill="url(#paint3_linear_549_39)"/>
<path opacity="0.3" d="M18.6673 2.87857C17.3654 2.11933 15.8844 1.71824 14.3759 1.71631C13.7437 1.71796 13.1138 1.79234 12.4987 1.93795H12.5475C14.0562 1.93859 15.5375 2.33977 16.839 3.10022C19.5816 4.67926 21.8597 6.94865 23.4451 9.68107C25.0304 12.4135 25.8674 15.513 25.8722 18.6692V34.3463C25.8722 34.4328 27.6951 34.2815 27.7005 34.1301V18.453C27.6951 15.2962 26.8578 12.1962 25.2726 9.46302C23.6873 6.72985 21.4096 4.45933 18.6673 2.87857Z" fill="url(#paint4_linear_549_39)"/>
<path style="mix-blend-mode:screen" opacity="0.5" d="M9.93828 11.5932V23.8538C10.6598 23.6267 11.1318 23.2375 11.1536 22.8753L11.1915 22.1726V11.3716C11.1911 10.3589 11.5142 9.37242 12.1141 8.55502C12.714 7.73761 13.5595 7.13174 14.5281 6.8252C13.2936 6.87678 12.1269 7.40164 11.2716 8.29014C10.4163 9.17864 9.93859 10.3621 9.93828 11.5932Z" fill="url(#paint5_linear_549_39)"/>
<g style="mix-blend-mode:screen" opacity="0.5">
<path style="mix-blend-mode:screen" opacity="0.5" d="M19.8497 2.26223C19.198 1.88575 18.5018 1.59157 17.7772 1.38647C20.7759 3.17905 23.2581 5.71417 24.9827 8.74542C26.7072 11.7767 27.6153 15.2009 27.6188 18.6854V34.0543C28.4868 33.8435 29.0673 33.4002 29.0782 32.9732V18.1718C29.0735 14.9468 28.2185 11.7796 26.5989 8.98748C24.9793 6.19531 22.6518 3.87614 19.8497 2.26223Z" fill="url(#paint6_linear_549_39)"/>
</g>
</g>
<g style="mix-blend-mode:multiply">
<path d="M12.6115 20.2207C12.6115 21.41 10.9514 22.3831 8.9006 22.3831C6.84982 22.3831 5.18423 21.4154 5.18423 20.2207C5.18423 19.026 6.84982 18.0583 8.9006 18.0583C10.9514 18.0583 12.6115 19.0314 12.6115 20.2207Z" fill="#E6E7E8"/>
</g>
<g style="mix-blend-mode:multiply">
<path d="M26.571 32.4327C28.5636 32.4327 30.1789 31.496 30.1789 30.3406C30.1789 29.1852 28.5636 28.2485 26.571 28.2485C24.5785 28.2485 22.9632 29.1852 22.9632 30.3406C22.9632 31.496 24.5785 32.4327 26.571 32.4327Z" fill="#E6E7E8"/>
</g>
<path d="M19.7622 1.29474C18.2839 0.445595 16.6074 -0.000939884 14.9011 1.48534e-06C13.1948 0.000942855 11.5188 0.449326 10.0415 1.3001C8.56414 2.15088 7.33756 3.37409 6.48496 4.84681C5.63235 6.31954 5.18375 7.98991 5.18424 9.69011V20.1992C5.18424 21.2263 6.61654 22.0534 8.37978 22.0534C10.143 22.0534 11.5699 21.2263 11.5699 20.1992C11.5699 20.1992 11.5699 20.1992 11.5699 20.1667H11.6079V11.047C11.6082 10.327 11.7984 9.61975 12.1594 8.99607C12.5204 8.3724 13.0395 7.8542 13.6648 7.4934C14.2901 7.1326 14.9996 6.94186 15.7222 6.9403C16.4448 6.93873 17.155 7.1264 17.7819 7.4845C19.347 8.38486 20.647 9.67939 21.5516 11.2383C22.4563 12.7972 22.9337 14.5657 22.936 16.3664V30.3785H22.9577C22.9957 31.384 24.4063 32.1949 26.1478 32.1949C27.8893 32.1949 29.3216 31.3732 29.3379 30.3569V17.8152C29.3385 14.4661 28.4538 11.1759 26.7728 8.27578C25.0918 5.37565 22.6738 2.96786 19.7622 1.29474Z" fill="url(#paint7_linear_549_39)"/>
<path style="mix-blend-mode:color-dodge" d="M7.16414 21.1022V11.2203C7.16987 8.82387 8.12817 6.52735 9.82928 4.83336C11.5304 3.13936 13.8357 2.18587 16.2407 2.18159C17.8267 2.18294 19.3841 2.60259 20.7546 3.39792C21.6608 3.92124 22.5211 4.51981 23.3263 5.18727C22.1698 4.02169 20.8615 3.01621 19.4363 2.19781C18.0672 1.39842 16.5092 0.976734 14.9224 0.976074C12.5155 0.980365 10.2085 1.93534 8.50708 3.63167C6.80566 5.328 5.84863 7.62729 5.84576 10.0255V19.8751V20.5617C5.84576 20.9455 6.38831 21.3563 7.16414 21.578V21.1022Z" fill="url(#paint8_radial_549_39)"/>
<path style="mix-blend-mode:color-dodge" d="M24.9207 31.4708V18.1182C24.9217 16.4474 24.5378 14.7987 23.7985 13.2991C23.0591 11.7995 21.9842 10.4891 20.6564 9.46875C22.5469 11.4841 23.6014 14.1379 23.6078 16.8965V30.2923V30.9302C23.6078 31.314 24.1503 31.7248 24.9153 31.9465L24.9207 31.4708Z" fill="url(#paint9_radial_549_39)"/>
<path d="M13.0947 4.46265C11.7094 4.46408 10.3814 5.01301 9.40188 5.989C8.42239 6.96498 7.87148 8.28829 7.87004 9.66853V20.6425L7.83749 21.7832C7.81036 21.8751 9.62243 21.7291 9.66583 21.5615L9.69838 20.4263V9.44689C9.69985 8.33264 10.0593 7.24812 10.7242 6.35219C11.389 5.45625 12.3243 4.79597 13.393 4.46805L13.0947 4.46265Z" fill="url(#paint10_linear_549_39)"/>
<path d="M18.6639 2.84609C16.8058 1.75343 14.5971 1.4147 12.4953 1.90006H12.5441C14.0528 1.90069 15.5341 2.30188 16.8356 3.06233C19.5778 4.64179 21.8556 6.91127 23.4409 9.6436C25.0262 12.3759 25.8635 15.4752 25.8688 18.6313V32.038C25.8688 32.1245 27.6917 31.9677 27.6971 31.8163V18.3989C27.6895 15.2454 26.8512 12.1493 25.2659 9.41992C23.6807 6.69058 21.4042 4.42375 18.6639 2.84609Z" fill="url(#paint11_linear_549_39)"/>
<path style="mix-blend-mode:screen" opacity="0.5" d="M9.93488 11.5555V21.5186C10.6564 21.2915 11.1284 20.9077 11.1501 20.5401L11.1881 19.8373V11.3501C11.1894 10.3378 11.5132 9.35214 12.1128 8.53506C12.7125 7.71798 13.557 7.11173 14.5247 6.80371C13.2935 6.85648 12.1299 7.37948 11.2753 8.26423C10.4207 9.14897 9.94071 10.3276 9.93488 11.5555Z" fill="url(#paint12_linear_549_39)"/>
<g style="mix-blend-mode:screen" opacity="0.5">
<path style="mix-blend-mode:screen" opacity="0.5" d="M19.8463 2.22463C19.1935 1.8504 18.4976 1.55634 17.7738 1.34888C20.7725 3.14145 23.2547 5.67657 24.9793 8.70783C26.7038 11.7391 27.6119 15.1633 27.6154 18.6478V31.7192C28.4834 31.5084 29.0639 31.0651 29.0748 30.6381V18.1396C29.0694 14.914 28.2142 11.7464 26.5947 8.95347C24.9751 6.16055 22.6481 3.84026 19.8463 2.22463Z" fill="url(#paint13_linear_549_39)"/>
</g>
<path style="mix-blend-mode:screen" d="M16.2292 2.20869C17.8854 2.21201 19.5155 2.62039 20.9764 3.39799C20.4114 2.97889 19.8227 2.59262 19.2131 2.24112C17.9112 1.48188 16.4302 1.08079 14.9217 1.07886C12.6335 1.09024 10.4424 2.00135 8.82497 3.61403C7.2075 5.22671 6.29448 7.41052 6.2845 9.69046C6.9129 7.54282 8.22015 5.65462 10.0119 4.30664C11.8036 2.95865 13.9841 2.22286 16.2292 2.20869Z" fill="url(#paint14_linear_549_39)"/>
<path style="mix-blend-mode:screen" d="M24.0406 16.6314C24.2662 14.9676 24.1138 13.2745 23.5945 11.6773C23.0752 10.08 22.2023 8.61948 21.0404 7.40353C18.2572 4.48434 14.9098 3.7221 13.1465 6.52776C13.9339 6.07689 14.8263 5.84014 15.7344 5.84122C16.6467 5.84506 17.5423 6.08538 18.3332 6.53858C20.0667 7.53329 21.5068 8.96524 22.5086 10.6904C23.5105 12.4157 24.0389 14.3733 24.0406 16.3665V16.6314Z" fill="url(#paint15_linear_549_39)"/>
<path opacity="0.7" d="M15.1179 40.758V45.8017L12.8447 44.4935V39.4498C11.9242 38.4495 11.3814 37.1614 11.3093 35.8062C11.3093 34.1195 12.5029 33.4384 13.9786 34.2925C14.7551 34.7942 15.402 35.4712 15.8667 36.2687C16.3315 37.0661 16.6009 37.9615 16.6533 38.8822C16.6533 40.1039 16.024 40.7904 15.1179 40.758Z" fill="#FAE26F"/>
<defs>
<linearGradient id="paint0_linear_549_39" x1="38.3169" y1="27.9997" x2="-7.40554" y2="0.0403526" gradientUnits="userSpaceOnUse">
<stop stop-color="#AFB6E5"/>
<stop offset="0.61" stop-color="#CED3F4"/>
<stop offset="1" stop-color="#E5E9FF"/>
</linearGradient>
<radialGradient id="paint1_radial_549_39" cx="0" cy="0" r="1" gradientUnits="userSpaceOnUse" gradientTransform="translate(2.69503 25.2584) scale(19.7049 19.6342)">
<stop stop-color="#FF5F98"/>
<stop offset="0.02" stop-color="#F75C93"/>
<stop offset="0.13" stop-color="#BE4771"/>
<stop offset="0.25" stop-color="#8B3453"/>
<stop offset="0.37" stop-color="#602439"/>
<stop offset="0.49" stop-color="#3E1725"/>
<stop offset="0.62" stop-color="#230D15"/>
<stop offset="0.74" stop-color="#0F0609"/>
<stop offset="0.87" stop-color="#040102"/>
<stop offset="1"/>
</radialGradient>
<radialGradient id="paint2_radial_549_39" cx="0" cy="0" r="1" gradientUnits="userSpaceOnUse" gradientTransform="translate(2060.66 6396.47) scale(184.304 1070.32)">
<stop stop-color="#FF5F98"/>
<stop offset="0.02" stop-color="#F75C93"/>
<stop offset="0.13" stop-color="#BE4771"/>
<stop offset="0.25" stop-color="#8B3453"/>
<stop offset="0.37" stop-color="#602439"/>
<stop offset="0.49" stop-color="#3E1725"/>
<stop offset="0.62" stop-color="#230D15"/>
<stop offset="0.74" stop-color="#0F0609"/>
<stop offset="0.87" stop-color="#040102"/>
<stop offset="1"/>
</radialGradient>
<linearGradient id="paint3_linear_549_39" x1="2593.98" y1="4272.32" x2="2416.69" y2="4241.77" gradientUnits="userSpaceOnUse">
<stop stop-color="#AFB6E5"/>
<stop offset="0.61" stop-color="#CED3F4"/>
<stop offset="1" stop-color="#E5E9FF"/>
</linearGradient>
<linearGradient id="paint4_linear_549_39" x1="7536.19" y1="7420.02" x2="6543.74" y2="7272.1" gradientUnits="userSpaceOnUse">
<stop stop-color="#AFB6E5"/>
<stop offset="0.61" stop-color="#CED3F4"/>
<stop offset="1" stop-color="#E5E9FF"/>
</linearGradient>
<linearGradient id="paint5_linear_549_39" x1="15.8411" y1="17.5235" x2="5.57462" y2="11.2469" gradientUnits="userSpaceOnUse">
<stop stop-color="#FFE4A7"/>
<stop offset="1"/>
</linearGradient>
<linearGradient id="paint6_linear_549_39" x1="5826.49" y1="7812.93" x2="4866.62" y2="7610.58" gradientUnits="userSpaceOnUse">
<stop stop-color="#FFE4A7"/>
<stop offset="1"/>
</linearGradient>
<linearGradient id="paint7_linear_549_39" x1="12422.3" y1="7688.78" x2="10190.2" y2="6668.53" gradientUnits="userSpaceOnUse">
<stop stop-color="#AFB6E5"/>
<stop offset="0.61" stop-color="#CED3F4"/>
<stop offset="1" stop-color="#E5E9FF"/>
</linearGradient>
<radialGradient id="paint8_radial_549_39" cx="0" cy="0" r="1" gradientUnits="userSpaceOnUse" gradientTransform="translate(7865.95 4783.29) scale(634.542 747.849)">
<stop stop-color="#FF5F98"/>
<stop offset="0.02" stop-color="#F75C93"/>
<stop offset="0.13" stop-color="#BE4771"/>
<stop offset="0.25" stop-color="#8B3453"/>
<stop offset="0.37" stop-color="#602439"/>
<stop offset="0.49" stop-color="#3E1725"/>
<stop offset="0.62" stop-color="#230D15"/>
<stop offset="0.74" stop-color="#0F0609"/>
<stop offset="0.87" stop-color="#040102"/>
<stop offset="1"/>
</radialGradient>
<radialGradient id="paint9_radial_549_39" cx="0" cy="0" r="1" gradientUnits="userSpaceOnUse" gradientTransform="translate(2060.67 5700.16) scale(182.3 960.924)">
<stop stop-color="#FF5F98"/>
<stop offset="0.02" stop-color="#F75C93"/>
<stop offset="0.13" stop-color="#BE4771"/>
<stop offset="0.25" stop-color="#8B3453"/>
<stop offset="0.37" stop-color="#602439"/>
<stop offset="0.49" stop-color="#3E1725"/>
<stop offset="0.62" stop-color="#230D15"/>
<stop offset="0.74" stop-color="#0F0609"/>
<stop offset="0.87" stop-color="#040102"/>
<stop offset="1"/>
</radialGradient>
<linearGradient id="paint10_linear_549_39" x1="2592.42" y1="3731.54" x2="2438.33" y2="3701.48" gradientUnits="userSpaceOnUse">
<stop stop-color="#AFB6E5"/>
<stop offset="0.61" stop-color="#CED3F4"/>
<stop offset="1" stop-color="#E5E9FF"/>
</linearGradient>
<linearGradient id="paint11_linear_549_39" x1="7530.41" y1="6832.67" x2="6569.9" y2="6678.77" gradientUnits="userSpaceOnUse">
<stop stop-color="#AFB6E5"/>
<stop offset="0.61" stop-color="#CED3F4"/>
<stop offset="1" stop-color="#E5E9FF"/>
</linearGradient>
<linearGradient id="paint12_linear_549_39" x1="2179.37" y1="3235.83" x2="2082.14" y2="3217.37" gradientUnits="userSpaceOnUse">
<stop stop-color="#FFE4A7"/>
<stop offset="1"/>
</linearGradient>
<linearGradient id="paint13_linear_549_39" x1="5812.7" y1="7174.22" x2="4902.9" y2="6967.96" gradientUnits="userSpaceOnUse">
<stop stop-color="#FFE4A7"/>
<stop offset="1"/>
</linearGradient>
<linearGradient id="paint14_linear_549_39" x1="6842.85" y1="1677.84" x2="6867.67" y2="1747.69" gradientUnits="userSpaceOnUse">
<stop stop-color="#FFE4A7"/>
<stop offset="1"/>
</linearGradient>
<linearGradient id="paint15_linear_549_39" x1="5400.76" y1="2455.29" x2="4918.85" y2="2610.38" gradientUnits="userSpaceOnUse">
<stop stop-color="#FFE4A7"/>
<stop offset="1"/>
</linearGradient>
</defs>
</svg>
