<svg width="92" height="136" viewBox="0 0 92 136" fill="none" xmlns="http://www.w3.org/2000/svg">
<path d="M83.1248 54.3161C68.3927 45.9883 53.9885 31.759 41.923 13.6608L41.7701 13.5734C29.7046 17.7264 15.3004 15.322 0.5683 6.64452L0 6.31665L0.786877 33.8355C3.58466 76.5017 18.1419 95.0588 41.5515 134.731L42.1198 135.058C65.5294 122.447 80.0866 120.676 82.8844 81.2448L83.6712 54.644L83.1029 54.3161H83.1248Z" fill="url(#paint0_linear_28_5822)"/>
<path d="M91.4256 47.9776C76.6935 39.6498 62.2893 25.4205 50.2239 7.32233L50.0708 7.23489C38.0054 11.4097 23.6012 9.00537 8.86912 0.327865L8.30082 0L0.147903 6.4043L0.563199 6.64474C15.2953 15.3222 29.6995 17.7266 41.7649 13.5518L41.9179 13.6392C53.9834 31.7592 68.3876 45.9667 83.1197 54.2945L83.688 54.6224L82.9011 81.2232C81.0869 106.972 74.2454 116.654 63.2073 123.78C76.9995 115.627 89.1524 103.824 91.207 74.8844L91.9939 48.2836L91.4256 47.9558V47.9776Z" fill="#E0E4FC"/>
<path d="M91.9999 48.3059L91.4316 47.9781C76.6996 39.6503 62.2953 25.4209 50.2299 7.32278L50.0769 7.23535L41.771 13.5741L41.924 13.6615C53.9894 31.7815 68.3936 45.989 83.1257 54.3168L83.694 54.6447L91.9999 48.3059Z" fill="#D8DDF4"/>
<path d="M83.6919 54.6224L82.905 81.2232C81.0909 106.972 74.2494 116.655 63.2113 123.78C77.0035 115.627 89.1563 103.824 91.211 74.8845L91.9978 48.2837L83.6919 54.6224Z" fill="#A4AFE6"/>
<path d="M39.1488 114.403C22.3402 86.534 13.8813 72.5014 11.8486 41.9006L11.3895 25.8352C22.1872 30.7095 32.5259 32.2614 41.8373 30.4035C51.1487 43.0153 61.4874 53.3977 72.2851 60.9824L71.8261 76.5013C69.7933 104.741 61.3344 109.004 44.5258 117.484C43.6515 117.922 42.7553 118.381 41.8373 118.84C40.9193 117.31 40.0231 115.823 39.1488 114.359V114.403Z" fill="#E4E9FF"/>
<path d="M45.9028 116.304C45.0285 116.741 44.1324 117.2 43.2143 117.659C42.2963 116.129 41.4002 114.643 40.5258 113.179C23.7173 85.31 15.2584 71.2773 13.2256 40.6766L12.8103 26.4472C12.3294 26.2505 11.8486 26.0319 11.3895 25.8352L11.8486 41.9006C13.8813 72.5014 22.3402 86.5121 39.1488 114.403C40.0231 115.867 40.9193 117.353 41.8373 118.883C42.7553 118.424 43.6515 117.965 44.5258 117.528C51.3891 114.075 56.8535 111.321 61.0502 107.343C57.0503 110.687 52.023 113.222 45.9028 116.304Z" fill="#C9D0F2"/>
<path d="M83.6555 53.7915C68.9234 45.4637 54.5192 31.2344 42.4537 13.1362L42.3007 13.0488C30.2353 17.2017 15.8311 14.7974 1.09899 6.11987L0.552551 6.68817C15.2628 15.322 29.6233 17.7263 41.6887 13.5515L41.8417 13.6389C53.9072 31.7589 68.3114 45.9664 83.0435 54.2942L83.6118 54.6221L82.8249 81.2229C81.3167 102.578 76.355 112.895 68.3988 119.867C76.7048 112.895 81.885 102.6 83.4369 80.6983L84.2238 54.0975L83.6555 53.7696V53.7915Z" fill="white"/>
<path d="M57.6652 67.5117C56.8426 65.6534 55.38 64.7672 54.3964 65.5257L40.3471 76.3926L36.0514 63.4566C35.4294 61.4914 34.0162 60.2229 32.8965 60.6234C31.7782 61.0165 31.3754 62.9346 32.0047 64.8972C32.0047 64.8972 37.1794 80.8564 38.0021 82.7148C38.8248 84.5732 40.2874 85.4594 41.2709 84.7009L57.3803 72.2486C58.3652 71.4826 58.4893 69.3626 57.6652 67.5117Z" fill="#6494FF"/>
<defs>
<linearGradient id="paint0_linear_28_5822" x1="56.8225" y1="-0.837632" x2="-34.0445" y2="59.2855" gradientUnits="userSpaceOnUse">
<stop stop-color="#AFB6E5"/>
<stop offset="0.14" stop-color="#B5BCE8"/>
<stop offset="0.592759" stop-color="#C7CDF0"/>
<stop offset="1" stop-color="#E5E9FF"/>
</linearGradient>
</defs>
</svg>
