<svg width="1332" height="1332" viewBox="0 0 1332 1332" fill="none" xmlns="http://www.w3.org/2000/svg">
<rect width="1332" height="1332" fill="url(#paint0_radial_3047_1197)"/>
<g filter="url(#filter0_d_3047_1197)">
<rect x="104" y="488" width="309" height="132" rx="40" fill="white" shape-rendering="crispEdges"/>
<path d="M200.016 544.449H189.391C189.088 542.706 188.53 541.163 187.715 539.818C186.901 538.455 185.888 537.299 184.675 536.352C183.463 535.405 182.081 534.695 180.528 534.222C178.994 533.729 177.336 533.483 175.556 533.483C172.393 533.483 169.59 534.278 167.147 535.869C164.704 537.441 162.791 539.752 161.408 542.801C160.026 545.831 159.335 549.534 159.335 553.909C159.335 558.36 160.026 562.11 161.408 565.159C162.81 568.189 164.723 570.481 167.147 572.034C169.59 573.568 172.384 574.335 175.528 574.335C177.27 574.335 178.899 574.108 180.414 573.653C181.948 573.18 183.321 572.489 184.533 571.58C185.764 570.67 186.797 569.553 187.63 568.227C188.482 566.902 189.069 565.386 189.391 563.682L200.016 563.739C199.619 566.504 198.757 569.098 197.431 571.523C196.124 573.947 194.41 576.087 192.289 577.943C190.168 579.78 187.687 581.22 184.846 582.261C182.005 583.284 178.852 583.795 175.386 583.795C170.272 583.795 165.708 582.612 161.692 580.244C157.677 577.877 154.514 574.458 152.204 569.989C149.893 565.519 148.738 560.159 148.738 553.909C148.738 547.64 149.903 542.28 152.232 537.83C154.562 533.36 157.734 529.941 161.749 527.574C165.764 525.206 170.31 524.023 175.386 524.023C178.624 524.023 181.636 524.477 184.42 525.386C187.204 526.295 189.685 527.631 191.863 529.392C194.041 531.134 195.831 533.275 197.232 535.812C198.653 538.331 199.581 541.21 200.016 544.449ZM219.498 524.818V583H209.214V524.818H219.498ZM249.107 583.852C244.846 583.852 241.153 582.915 238.028 581.04C234.903 579.165 232.478 576.542 230.755 573.17C229.05 569.799 228.198 565.86 228.198 561.352C228.198 556.845 229.05 552.896 230.755 549.506C232.478 546.116 234.903 543.483 238.028 541.608C241.153 539.733 244.846 538.795 249.107 538.795C253.369 538.795 257.062 539.733 260.187 541.608C263.312 543.483 265.727 546.116 267.431 549.506C269.155 552.896 270.016 556.845 270.016 561.352C270.016 565.86 269.155 569.799 267.431 573.17C265.727 576.542 263.312 579.165 260.187 581.04C257.062 582.915 253.369 583.852 249.107 583.852ZM249.164 575.614C251.475 575.614 253.406 574.979 254.96 573.71C256.513 572.422 257.668 570.699 258.425 568.54C259.202 566.381 259.59 563.975 259.59 561.324C259.59 558.653 259.202 556.239 258.425 554.08C257.668 551.902 256.513 550.169 254.96 548.881C253.406 547.593 251.475 546.949 249.164 546.949C246.797 546.949 244.827 547.593 243.255 548.881C241.702 550.169 240.537 551.902 239.761 554.08C239.003 556.239 238.624 558.653 238.624 561.324C238.624 563.975 239.003 566.381 239.761 568.54C240.537 570.699 241.702 572.422 243.255 573.71C244.827 574.979 246.797 575.614 249.164 575.614ZM306.558 564.648V539.364H316.842V583H306.87V575.244H306.415C305.431 577.687 303.811 579.686 301.558 581.239C299.323 582.792 296.567 583.568 293.29 583.568C290.431 583.568 287.902 582.934 285.705 581.665C283.527 580.377 281.823 578.511 280.592 576.068C279.361 573.606 278.745 570.633 278.745 567.148V539.364H289.029V565.557C289.029 568.322 289.787 570.519 291.302 572.148C292.817 573.777 294.806 574.591 297.268 574.591C298.783 574.591 300.251 574.222 301.671 573.483C303.092 572.744 304.256 571.646 305.165 570.188C306.094 568.71 306.558 566.864 306.558 564.648ZM343.61 583.767C340.182 583.767 337.114 582.886 334.406 581.125C331.697 579.364 329.557 576.807 327.985 573.455C326.413 570.102 325.627 566.03 325.627 561.239C325.627 556.39 326.423 552.299 328.013 548.966C329.623 545.614 331.792 543.085 334.519 541.381C337.246 539.657 340.286 538.795 343.638 538.795C346.195 538.795 348.298 539.231 349.945 540.102C351.593 540.955 352.9 541.987 353.866 543.199C354.832 544.392 355.58 545.519 356.11 546.58H356.536V524.818H366.849V583H356.735V576.125H356.11C355.58 577.186 354.813 578.312 353.809 579.506C352.805 580.68 351.479 581.684 349.832 582.517C348.184 583.35 346.11 583.767 343.61 583.767ZM346.479 575.33C348.657 575.33 350.513 574.742 352.048 573.568C353.582 572.375 354.746 570.718 355.542 568.597C356.337 566.475 356.735 564.004 356.735 561.182C356.735 558.36 356.337 555.907 355.542 553.824C354.765 551.741 353.61 550.121 352.076 548.966C350.561 547.811 348.695 547.233 346.479 547.233C344.188 547.233 342.275 547.83 340.741 549.023C339.207 550.216 338.051 551.864 337.275 553.966C336.498 556.068 336.11 558.473 336.11 561.182C336.11 563.909 336.498 566.343 337.275 568.483C338.07 570.604 339.235 572.28 340.769 573.511C342.322 574.723 344.226 575.33 346.479 575.33Z" fill="#FF9900"/>
</g>
<path d="M106.591 212.455V197.182H167.273V212.455H146.273V267H127.591V212.455H106.591ZM196.377 237.545V267H177.559V197.182H195.695V224.591H196.241C197.423 221.25 199.389 218.648 202.139 216.784C204.889 214.898 208.195 213.955 212.059 213.955C215.764 213.955 218.979 214.795 221.707 216.477C224.457 218.159 226.582 220.477 228.082 223.432C229.604 226.386 230.354 229.773 230.332 233.591V267H211.514V237.545C211.536 234.955 210.889 232.92 209.57 231.443C208.275 229.966 206.423 229.227 204.014 229.227C202.491 229.227 201.15 229.568 199.991 230.25C198.854 230.909 197.968 231.864 197.332 233.114C196.718 234.341 196.4 235.818 196.377 237.545ZM267.592 267.955C262.001 267.955 257.183 266.886 253.138 264.75C249.115 262.591 246.013 259.5 243.831 255.477C241.672 251.432 240.592 246.591 240.592 240.955C240.592 235.545 241.683 230.818 243.865 226.773C246.047 222.727 249.126 219.58 253.104 217.33C257.081 215.08 261.774 213.955 267.183 213.955C271.138 213.955 274.717 214.568 277.922 215.795C281.126 217.023 283.865 218.807 286.138 221.148C288.411 223.466 290.161 226.284 291.388 229.602C292.615 232.92 293.229 236.659 293.229 240.818V245.182H246.456V234.818H275.911C275.888 233.318 275.501 232 274.751 230.864C274.024 229.705 273.036 228.807 271.786 228.17C270.558 227.511 269.161 227.182 267.592 227.182C266.07 227.182 264.672 227.511 263.399 228.17C262.126 228.807 261.104 229.693 260.331 230.83C259.581 231.966 259.183 233.295 259.138 234.818V246C259.138 247.682 259.49 249.182 260.195 250.5C260.899 251.818 261.911 252.852 263.229 253.602C264.547 254.352 266.138 254.727 268.001 254.727C269.297 254.727 270.479 254.545 271.547 254.182C272.638 253.818 273.57 253.295 274.342 252.614C275.115 251.909 275.683 251.068 276.047 250.091H293.229C292.638 253.727 291.24 256.886 289.036 259.568C286.831 262.227 283.911 264.295 280.274 265.773C276.661 267.227 272.433 267.955 267.592 267.955ZM366.838 197.182H385.793V241.909C385.793 247.227 384.52 251.83 381.975 255.716C379.452 259.58 375.929 262.568 371.406 264.682C366.884 266.773 361.634 267.818 355.656 267.818C349.634 267.818 344.361 266.773 339.838 264.682C335.315 262.568 331.793 259.58 329.27 255.716C326.77 251.83 325.52 247.227 325.52 241.909V197.182H344.475V240.273C344.475 242.432 344.952 244.364 345.906 246.068C346.861 247.75 348.179 249.068 349.861 250.023C351.565 250.977 353.497 251.455 355.656 251.455C357.838 251.455 359.77 250.977 361.452 250.023C363.134 249.068 364.452 247.75 365.406 246.068C366.361 244.364 366.838 242.432 366.838 240.273V197.182ZM416.772 197.182V267H397.954V197.182H416.772ZM460.467 214.636V228.273H425.967V214.636H460.467ZM432.649 202.091H451.467V250.159C451.467 250.886 451.592 251.5 451.842 252C452.092 252.477 452.479 252.841 453.002 253.091C453.524 253.318 454.195 253.432 455.013 253.432C455.581 253.432 456.24 253.364 456.99 253.227C457.763 253.091 458.331 252.977 458.695 252.886L461.422 266.114C460.581 266.364 459.377 266.67 457.808 267.034C456.263 267.398 454.422 267.636 452.286 267.75C447.967 267.977 444.342 267.534 441.411 266.42C438.479 265.284 436.274 263.5 434.797 261.068C433.32 258.636 432.604 255.591 432.649 251.932V202.091ZM471.026 267V214.636H489.845V267H471.026ZM480.436 209.182C477.89 209.182 475.708 208.341 473.89 206.659C472.072 204.977 471.163 202.955 471.163 200.591C471.163 198.227 472.072 196.205 473.89 194.523C475.708 192.841 477.89 192 480.436 192C483.004 192 485.186 192.841 486.981 194.523C488.799 196.205 489.708 198.227 489.708 200.591C489.708 202.955 488.799 204.977 486.981 206.659C485.186 208.341 483.004 209.182 480.436 209.182ZM502.313 267V214.636H520.176V224.591H520.722C521.813 221.318 523.676 218.727 526.313 216.818C528.949 214.909 532.085 213.955 535.722 213.955C539.404 213.955 542.574 214.932 545.233 216.886C547.892 218.818 549.495 221.386 550.04 224.591H550.585C551.472 221.386 553.358 218.818 556.245 216.886C559.131 214.932 562.517 213.955 566.404 213.955C571.426 213.955 575.495 215.568 578.608 218.795C581.745 222.023 583.313 226.318 583.313 231.682V267H564.495V236.455C564.495 234.159 563.915 232.364 562.756 231.068C561.597 229.75 560.04 229.091 558.085 229.091C556.154 229.091 554.62 229.75 553.483 231.068C552.37 232.364 551.813 234.159 551.813 236.455V267H533.813V236.455C533.813 234.159 533.233 232.364 532.074 231.068C530.915 229.75 529.358 229.091 527.404 229.091C526.108 229.091 524.995 229.386 524.063 229.977C523.131 230.568 522.404 231.42 521.881 232.534C521.381 233.625 521.131 234.932 521.131 236.455V267H502.313ZM610.065 267.818C606.724 267.818 603.769 267.273 601.201 266.182C598.656 265.068 596.656 263.386 595.201 261.136C593.747 258.886 593.019 256.023 593.019 252.545C593.019 249.682 593.508 247.239 594.485 245.216C595.463 243.17 596.826 241.5 598.576 240.205C600.326 238.909 602.36 237.92 604.679 237.239C607.019 236.557 609.542 236.114 612.247 235.909C615.179 235.682 617.531 235.409 619.304 235.091C621.099 234.75 622.394 234.284 623.19 233.693C623.985 233.08 624.383 232.273 624.383 231.273V231.136C624.383 229.773 623.86 228.727 622.815 228C621.769 227.273 620.429 226.909 618.792 226.909C616.997 226.909 615.531 227.307 614.394 228.102C613.281 228.875 612.61 230.068 612.383 231.682H595.065C595.292 228.5 596.304 225.568 598.099 222.886C599.917 220.182 602.565 218.023 606.042 216.409C609.519 214.773 613.86 213.955 619.065 213.955C622.815 213.955 626.179 214.398 629.156 215.284C632.133 216.148 634.667 217.364 636.758 218.932C638.849 220.477 640.44 222.295 641.531 224.386C642.644 226.455 643.201 228.705 643.201 231.136V267H625.61V259.636H625.201C624.156 261.591 622.883 263.17 621.383 264.375C619.906 265.58 618.213 266.455 616.304 267C614.417 267.545 612.338 267.818 610.065 267.818ZM616.201 255.955C617.633 255.955 618.974 255.659 620.224 255.068C621.497 254.477 622.531 253.625 623.326 252.511C624.122 251.398 624.519 250.045 624.519 248.455V244.091C624.019 244.295 623.485 244.489 622.917 244.67C622.372 244.852 621.781 245.023 621.144 245.182C620.531 245.341 619.872 245.489 619.167 245.625C618.485 245.761 617.769 245.886 617.019 246C615.565 246.227 614.372 246.602 613.44 247.125C612.531 247.625 611.849 248.25 611.394 249C610.963 249.727 610.747 250.545 610.747 251.455C610.747 252.909 611.258 254.023 612.281 254.795C613.304 255.568 614.61 255.955 616.201 255.955ZM686.3 214.636V228.273H651.8V214.636H686.3ZM658.482 202.091H677.3V250.159C677.3 250.886 677.425 251.5 677.675 252C677.925 252.477 678.311 252.841 678.834 253.091C679.357 253.318 680.027 253.432 680.845 253.432C681.414 253.432 682.073 253.364 682.823 253.227C683.595 253.091 684.164 252.977 684.527 252.886L687.255 266.114C686.414 266.364 685.209 266.67 683.641 267.034C682.095 267.398 680.255 267.636 678.118 267.75C673.8 267.977 670.175 267.534 667.243 266.42C664.311 265.284 662.107 263.5 660.63 261.068C659.152 258.636 658.436 255.591 658.482 251.932V202.091ZM721.387 267.955C715.796 267.955 710.978 266.886 706.933 264.75C702.91 262.591 699.808 259.5 697.626 255.477C695.467 251.432 694.387 246.591 694.387 240.955C694.387 235.545 695.478 230.818 697.66 226.773C699.842 222.727 702.921 219.58 706.899 217.33C710.876 215.08 715.569 213.955 720.978 213.955C724.933 213.955 728.512 214.568 731.717 215.795C734.921 217.023 737.66 218.807 739.933 221.148C742.206 223.466 743.956 226.284 745.183 229.602C746.41 232.92 747.024 236.659 747.024 240.818V245.182H700.251V234.818H729.706C729.683 233.318 729.296 232 728.546 230.864C727.819 229.705 726.831 228.807 725.581 228.17C724.353 227.511 722.956 227.182 721.387 227.182C719.865 227.182 718.467 227.511 717.194 228.17C715.921 228.807 714.899 229.693 714.126 230.83C713.376 231.966 712.978 233.295 712.933 234.818V246C712.933 247.682 713.285 249.182 713.99 250.5C714.694 251.818 715.706 252.852 717.024 253.602C718.342 254.352 719.933 254.727 721.796 254.727C723.092 254.727 724.274 254.545 725.342 254.182C726.433 253.818 727.365 253.295 728.137 252.614C728.91 251.909 729.478 251.068 729.842 250.091H747.024C746.433 253.727 745.035 256.886 742.831 259.568C740.626 262.227 737.706 264.295 734.069 265.773C730.456 267.227 726.228 267.955 721.387 267.955ZM824.656 220.227C824.36 219.023 823.895 217.966 823.258 217.057C822.622 216.125 821.826 215.341 820.872 214.705C819.94 214.045 818.849 213.557 817.599 213.239C816.372 212.898 815.02 212.727 813.542 212.727C810.36 212.727 807.645 213.489 805.395 215.011C803.167 216.534 801.463 218.727 800.281 221.591C799.122 224.455 798.542 227.909 798.542 231.955C798.542 236.045 799.099 239.545 800.213 242.455C801.326 245.364 802.985 247.591 805.19 249.136C807.395 250.682 810.133 251.455 813.406 251.455C816.292 251.455 818.69 251.034 820.599 250.193C822.531 249.352 823.974 248.159 824.929 246.614C825.883 245.068 826.36 243.25 826.36 241.159L829.633 241.5H813.679V228H844.633V237.682C844.633 244.045 843.281 249.489 840.576 254.011C837.895 258.511 834.19 261.966 829.463 264.375C824.758 266.761 819.36 267.955 813.27 267.955C806.474 267.955 800.508 266.511 795.372 263.625C790.235 260.739 786.224 256.625 783.338 251.284C780.474 245.943 779.042 239.591 779.042 232.227C779.042 226.455 779.917 221.341 781.667 216.886C783.44 212.432 785.895 208.67 789.031 205.602C792.167 202.511 795.792 200.182 799.906 198.614C804.02 197.023 808.429 196.227 813.133 196.227C817.27 196.227 821.11 196.818 824.656 198C828.224 199.159 831.372 200.818 834.099 202.977C836.849 205.114 839.065 207.648 840.747 210.58C842.429 213.511 843.451 216.727 843.815 220.227H824.656ZM890.579 244.091V214.636H909.397V267H891.533V257.045H890.988C889.851 260.386 887.863 263 885.022 264.886C882.181 266.75 878.806 267.682 874.897 267.682C871.238 267.682 868.033 266.841 865.283 265.159C862.556 263.477 860.431 261.159 858.908 258.205C857.408 255.25 856.647 251.864 856.624 248.045V214.636H875.442V244.091C875.465 246.682 876.124 248.716 877.419 250.193C878.738 251.67 880.579 252.409 882.942 252.409C884.51 252.409 885.863 252.08 886.999 251.42C888.158 250.739 889.044 249.784 889.658 248.557C890.294 247.307 890.601 245.818 890.579 244.091ZM921.848 267V214.636H940.666V267H921.848ZM931.257 209.182C928.711 209.182 926.53 208.341 924.711 206.659C922.893 204.977 921.984 202.955 921.984 200.591C921.984 198.227 922.893 196.205 924.711 194.523C926.53 192.841 928.711 192 931.257 192C933.825 192 936.007 192.841 937.802 194.523C939.62 196.205 940.53 198.227 940.53 200.591C940.53 202.955 939.62 204.977 937.802 206.659C936.007 208.341 933.825 209.182 931.257 209.182ZM972.089 267.682C968.361 267.682 964.929 266.705 961.793 264.75C958.679 262.795 956.179 259.83 954.293 255.852C952.429 251.875 951.498 246.864 951.498 240.818C951.498 234.5 952.475 229.364 954.429 225.409C956.407 221.455 958.952 218.557 962.066 216.716C965.202 214.875 968.498 213.955 971.952 213.955C974.543 213.955 976.816 214.409 978.77 215.318C980.725 216.205 982.361 217.398 983.679 218.898C984.998 220.375 985.998 222 986.679 223.773H986.952V197.182H1005.77V267H987.089V258.409H986.679C985.952 260.182 984.907 261.773 983.543 263.182C982.202 264.568 980.566 265.67 978.634 266.489C976.725 267.284 974.543 267.682 972.089 267.682ZM979.043 253.227C980.77 253.227 982.248 252.727 983.475 251.727C984.725 250.705 985.679 249.273 986.339 247.432C987.02 245.568 987.361 243.364 987.361 240.818C987.361 238.227 987.02 236.011 986.339 234.17C985.679 232.307 984.725 230.886 983.475 229.909C982.248 228.909 980.77 228.409 979.043 228.409C977.316 228.409 975.839 228.909 974.611 229.909C973.407 230.886 972.475 232.307 971.816 234.17C971.179 236.011 970.861 238.227 970.861 240.818C970.861 243.409 971.179 245.636 971.816 247.5C972.475 249.341 973.407 250.761 974.611 251.761C975.839 252.739 977.316 253.227 979.043 253.227ZM1042.98 267.955C1037.39 267.955 1032.57 266.886 1028.53 264.75C1024.5 262.591 1021.4 259.5 1019.22 255.477C1017.06 251.432 1015.98 246.591 1015.98 240.955C1015.98 235.545 1017.07 230.818 1019.25 226.773C1021.43 222.727 1024.51 219.58 1028.49 217.33C1032.47 215.08 1037.16 213.955 1042.57 213.955C1046.53 213.955 1050.1 214.568 1053.31 215.795C1056.51 217.023 1059.25 218.807 1061.53 221.148C1063.8 223.466 1065.55 226.284 1066.78 229.602C1068 232.92 1068.62 236.659 1068.62 240.818V245.182H1021.84V234.818H1051.3C1051.28 233.318 1050.89 232 1050.14 230.864C1049.41 229.705 1048.42 228.807 1047.17 228.17C1045.95 227.511 1044.55 227.182 1042.98 227.182C1041.46 227.182 1040.06 227.511 1038.79 228.17C1037.51 228.807 1036.49 229.693 1035.72 230.83C1034.97 231.966 1034.57 233.295 1034.53 234.818V246C1034.53 247.682 1034.88 249.182 1035.58 250.5C1036.29 251.818 1037.3 252.852 1038.62 253.602C1039.93 254.352 1041.53 254.727 1043.39 254.727C1044.68 254.727 1045.87 254.545 1046.93 254.182C1048.03 253.818 1048.96 253.295 1049.73 252.614C1050.5 251.909 1051.07 251.068 1051.43 250.091H1068.62C1068.03 253.727 1066.63 256.886 1064.42 259.568C1062.22 262.227 1059.3 264.295 1055.66 265.773C1052.05 267.227 1047.82 267.955 1042.98 267.955ZM1100.91 267V197.182H1150V212.455H1119.86V224.455H1147V239.727H1119.86V267H1100.91ZM1181.51 267.955C1175.82 267.955 1170.96 266.83 1166.92 264.58C1162.87 262.307 1159.77 259.148 1157.61 255.102C1155.45 251.034 1154.37 246.318 1154.37 240.955C1154.37 235.591 1155.45 230.886 1157.61 226.841C1159.77 222.773 1162.87 219.614 1166.92 217.364C1170.96 215.091 1175.82 213.955 1181.51 213.955C1187.19 213.955 1192.05 215.091 1196.1 217.364C1200.14 219.614 1203.24 222.773 1205.4 226.841C1207.56 230.886 1208.64 235.591 1208.64 240.955C1208.64 246.318 1207.56 251.034 1205.4 255.102C1203.24 259.148 1200.14 262.307 1196.1 264.58C1192.05 266.83 1187.19 267.955 1181.51 267.955ZM1181.64 254.045C1183.23 254.045 1184.61 253.511 1185.77 252.443C1186.93 251.375 1187.82 249.852 1188.46 247.875C1189.1 245.898 1189.42 243.545 1189.42 240.818C1189.42 238.068 1189.1 235.716 1188.46 233.761C1187.82 231.784 1186.93 230.261 1185.77 229.193C1184.61 228.125 1183.23 227.591 1181.64 227.591C1179.96 227.591 1178.52 228.125 1177.31 229.193C1176.11 230.261 1175.19 231.784 1174.55 233.761C1173.92 235.716 1173.6 238.068 1173.6 240.818C1173.6 243.545 1173.92 245.898 1174.55 247.875C1175.19 249.852 1176.11 251.375 1177.31 252.443C1178.52 253.511 1179.96 254.045 1181.64 254.045ZM1219.16 267V214.636H1237.43V224.591H1237.98C1238.93 220.909 1240.44 218.216 1242.51 216.511C1244.6 214.807 1247.05 213.955 1249.84 213.955C1250.66 213.955 1251.47 214.023 1252.26 214.159C1253.08 214.273 1253.86 214.443 1254.61 214.67V230.727C1253.68 230.409 1252.53 230.17 1251.17 230.011C1249.81 229.852 1248.64 229.773 1247.66 229.773C1245.82 229.773 1244.16 230.193 1242.68 231.034C1241.23 231.852 1240.08 233.011 1239.24 234.511C1238.4 235.989 1237.98 237.727 1237.98 239.727V267H1219.16ZM173.682 343.364H154.455C154.318 341.773 153.955 340.33 153.364 339.034C152.795 337.739 152 336.625 150.977 335.693C149.977 334.739 148.761 334.011 147.33 333.511C145.898 332.989 144.273 332.727 142.455 332.727C139.273 332.727 136.58 333.5 134.375 335.045C132.193 336.591 130.534 338.807 129.398 341.693C128.284 344.58 127.727 348.045 127.727 352.091C127.727 356.364 128.295 359.943 129.432 362.83C130.591 365.693 132.261 367.852 134.443 369.307C136.625 370.739 139.25 371.455 142.318 371.455C144.068 371.455 145.636 371.239 147.023 370.807C148.409 370.352 149.614 369.705 150.636 368.864C151.659 368.023 152.489 367.011 153.125 365.83C153.784 364.625 154.227 363.273 154.455 361.773L173.682 361.909C173.455 364.864 172.625 367.875 171.193 370.943C169.761 373.989 167.727 376.807 165.091 379.398C162.477 381.966 159.239 384.034 155.375 385.602C151.511 387.17 147.023 387.955 141.909 387.955C135.5 387.955 129.75 386.58 124.659 383.83C119.591 381.08 115.58 377.034 112.625 371.693C109.693 366.352 108.227 359.818 108.227 352.091C108.227 344.318 109.727 337.773 112.727 332.455C115.727 327.114 119.773 323.08 124.864 320.352C129.955 317.602 135.636 316.227 141.909 316.227C146.318 316.227 150.375 316.83 154.08 318.034C157.784 319.239 161.034 321 163.83 323.318C166.625 325.614 168.875 328.443 170.58 331.807C172.284 335.17 173.318 339.023 173.682 343.364ZM204.252 317.182V387H185.434V317.182H204.252ZM241.948 387.955C236.266 387.955 231.402 386.83 227.357 384.58C223.311 382.307 220.209 379.148 218.05 375.102C215.891 371.034 214.811 366.318 214.811 360.955C214.811 355.591 215.891 350.886 218.05 346.841C220.209 342.773 223.311 339.614 227.357 337.364C231.402 335.091 236.266 333.955 241.948 333.955C247.629 333.955 252.493 335.091 256.538 337.364C260.584 339.614 263.686 342.773 265.845 346.841C268.004 350.886 269.084 355.591 269.084 360.955C269.084 366.318 268.004 371.034 265.845 375.102C263.686 379.148 260.584 382.307 256.538 384.58C252.493 386.83 247.629 387.955 241.948 387.955ZM242.084 374.045C243.675 374.045 245.05 373.511 246.209 372.443C247.368 371.375 248.266 369.852 248.902 367.875C249.538 365.898 249.857 363.545 249.857 360.818C249.857 358.068 249.538 355.716 248.902 353.761C248.266 351.784 247.368 350.261 246.209 349.193C245.05 348.125 243.675 347.591 242.084 347.591C240.402 347.591 238.959 348.125 237.754 349.193C236.55 350.261 235.629 351.784 234.993 353.761C234.357 355.716 234.038 358.068 234.038 360.818C234.038 363.545 234.357 365.898 234.993 367.875C235.629 369.852 236.55 371.375 237.754 372.443C238.959 373.511 240.402 374.045 242.084 374.045ZM313.555 364.091V334.636H332.373V387H314.509V377.045H313.964C312.828 380.386 310.839 383 307.998 384.886C305.157 386.75 301.782 387.682 297.873 387.682C294.214 387.682 291.009 386.841 288.259 385.159C285.532 383.477 283.407 381.159 281.884 378.205C280.384 375.25 279.623 371.864 279.6 368.045V334.636H298.418V364.091C298.441 366.682 299.1 368.716 300.396 370.193C301.714 371.67 303.555 372.409 305.918 372.409C307.487 372.409 308.839 372.08 309.975 371.42C311.134 370.739 312.021 369.784 312.634 368.557C313.271 367.307 313.578 365.818 313.555 364.091ZM363.779 387.682C360.051 387.682 356.619 386.705 353.483 384.75C350.369 382.795 347.869 379.83 345.983 375.852C344.119 371.875 343.188 366.864 343.188 360.818C343.188 354.5 344.165 349.364 346.119 345.409C348.097 341.455 350.642 338.557 353.756 336.716C356.892 334.875 360.188 333.955 363.642 333.955C366.233 333.955 368.506 334.409 370.46 335.318C372.415 336.205 374.051 337.398 375.369 338.898C376.688 340.375 377.688 342 378.369 343.773H378.642V317.182H397.46V387H378.779V378.409H378.369C377.642 380.182 376.597 381.773 375.233 383.182C373.892 384.568 372.256 385.67 370.324 386.489C368.415 387.284 366.233 387.682 363.779 387.682ZM370.733 373.227C372.46 373.227 373.938 372.727 375.165 371.727C376.415 370.705 377.369 369.273 378.029 367.432C378.71 365.568 379.051 363.364 379.051 360.818C379.051 358.227 378.71 356.011 378.029 354.17C377.369 352.307 376.415 350.886 375.165 349.909C373.938 348.909 372.46 348.409 370.733 348.409C369.006 348.409 367.529 348.909 366.301 349.909C365.097 350.886 364.165 352.307 363.506 354.17C362.869 356.011 362.551 358.227 362.551 360.818C362.551 363.409 362.869 365.636 363.506 367.5C364.165 369.341 365.097 370.761 366.301 371.761C367.529 372.739 369.006 373.227 370.733 373.227ZM431.311 317.182H454.902L471.129 356.727H471.948L488.175 317.182H511.766V387H493.22V346.636H492.675L477.129 386.455H465.948L450.402 346.364H449.857V387H431.311V317.182ZM523.901 387V334.636H542.72V387H523.901ZM533.311 329.182C530.765 329.182 528.583 328.341 526.765 326.659C524.947 324.977 524.038 322.955 524.038 320.591C524.038 318.227 524.947 316.205 526.765 314.523C528.583 312.841 530.765 312 533.311 312C535.879 312 538.061 312.841 539.856 314.523C541.674 316.205 542.583 318.227 542.583 320.591C542.583 322.955 541.674 324.977 539.856 326.659C538.061 328.341 535.879 329.182 533.311 329.182ZM580.415 407.727C575.165 407.727 570.665 406.977 566.915 405.477C563.188 404 560.29 401.955 558.222 399.341C556.176 396.75 555.029 393.773 554.779 390.409H572.915C573.097 391.523 573.551 392.42 574.279 393.102C575.006 393.784 575.938 394.273 577.074 394.568C578.233 394.886 579.529 395.045 580.96 395.045C583.392 395.045 585.404 394.455 586.995 393.273C588.608 392.091 589.415 389.955 589.415 386.864V378H588.87C588.188 379.773 587.142 381.284 585.733 382.534C584.324 383.761 582.631 384.705 580.654 385.364C578.676 386 576.506 386.318 574.142 386.318C570.415 386.318 566.983 385.455 563.847 383.727C560.733 382 558.233 379.261 556.347 375.511C554.483 371.761 553.551 366.864 553.551 360.818C553.551 354.5 554.529 349.364 556.483 345.409C558.46 341.455 561.006 338.557 564.12 336.716C567.256 334.875 570.551 333.955 574.006 333.955C576.597 333.955 578.87 334.409 580.824 335.318C582.779 336.205 584.415 337.398 585.733 338.898C587.051 340.375 588.051 342 588.733 343.773H589.142V334.636H607.96V386.864C607.96 391.295 606.813 395.057 604.517 398.148C602.245 401.261 599.04 403.636 594.904 405.273C590.767 406.909 585.938 407.727 580.415 407.727ZM581.097 372.955C582.824 372.955 584.301 372.477 585.529 371.523C586.779 370.545 587.733 369.159 588.392 367.364C589.074 365.545 589.415 363.364 589.415 360.818C589.415 358.227 589.074 356.011 588.392 354.17C587.733 352.307 586.779 350.886 585.529 349.909C584.301 348.909 582.824 348.409 581.097 348.409C579.37 348.409 577.892 348.909 576.665 349.909C575.46 350.886 574.529 352.307 573.87 354.17C573.233 356.011 572.915 358.227 572.915 360.818C572.915 363.409 573.233 365.614 573.87 367.432C574.529 369.227 575.46 370.602 576.665 371.557C577.892 372.489 579.37 372.955 581.097 372.955ZM620.411 387V334.636H638.684V344.591H639.23C640.184 340.909 641.696 338.216 643.764 336.511C645.855 334.807 648.298 333.955 651.093 333.955C651.911 333.955 652.718 334.023 653.514 334.159C654.332 334.273 655.116 334.443 655.866 334.67V350.727C654.934 350.409 653.786 350.17 652.423 350.011C651.059 349.852 649.889 349.773 648.911 349.773C647.071 349.773 645.411 350.193 643.934 351.034C642.48 351.852 641.332 353.011 640.491 354.511C639.65 355.989 639.23 357.727 639.23 359.727V387H620.411ZM677.07 387.818C673.729 387.818 670.774 387.273 668.206 386.182C665.661 385.068 663.661 383.386 662.206 381.136C660.752 378.886 660.024 376.023 660.024 372.545C660.024 369.682 660.513 367.239 661.49 365.216C662.468 363.17 663.831 361.5 665.581 360.205C667.331 358.909 669.365 357.92 671.684 357.239C674.024 356.557 676.547 356.114 679.252 355.909C682.184 355.682 684.536 355.409 686.309 355.091C688.104 354.75 689.399 354.284 690.195 353.693C690.99 353.08 691.388 352.273 691.388 351.273V351.136C691.388 349.773 690.865 348.727 689.82 348C688.774 347.273 687.434 346.909 685.797 346.909C684.002 346.909 682.536 347.307 681.399 348.102C680.286 348.875 679.615 350.068 679.388 351.682H662.07C662.297 348.5 663.309 345.568 665.104 342.886C666.922 340.182 669.57 338.023 673.047 336.409C676.524 334.773 680.865 333.955 686.07 333.955C689.82 333.955 693.184 334.398 696.161 335.284C699.138 336.148 701.672 337.364 703.763 338.932C705.854 340.477 707.445 342.295 708.536 344.386C709.649 346.455 710.206 348.705 710.206 351.136V387H692.615V379.636H692.206C691.161 381.591 689.888 383.17 688.388 384.375C686.911 385.58 685.218 386.455 683.309 387C681.422 387.545 679.343 387.818 677.07 387.818ZM683.206 375.955C684.638 375.955 685.979 375.659 687.229 375.068C688.502 374.477 689.536 373.625 690.331 372.511C691.127 371.398 691.524 370.045 691.524 368.455V364.091C691.024 364.295 690.49 364.489 689.922 364.67C689.377 364.852 688.786 365.023 688.149 365.182C687.536 365.341 686.877 365.489 686.172 365.625C685.49 365.761 684.774 365.886 684.024 366C682.57 366.227 681.377 366.602 680.445 367.125C679.536 367.625 678.854 368.25 678.399 369C677.968 369.727 677.752 370.545 677.752 371.455C677.752 372.909 678.263 374.023 679.286 374.795C680.309 375.568 681.615 375.955 683.206 375.955ZM753.305 334.636V348.273H718.805V334.636H753.305ZM725.487 322.091H744.305V370.159C744.305 370.886 744.43 371.5 744.68 372C744.93 372.477 745.316 372.841 745.839 373.091C746.362 373.318 747.032 373.432 747.85 373.432C748.419 373.432 749.078 373.364 749.828 373.227C750.6 373.091 751.169 372.977 751.532 372.886L754.26 386.114C753.419 386.364 752.214 386.67 750.646 387.034C749.1 387.398 747.26 387.636 745.123 387.75C740.805 387.977 737.18 387.534 734.248 386.42C731.316 385.284 729.112 383.5 727.635 381.068C726.157 378.636 725.441 375.591 725.487 371.932V322.091ZM763.864 387V334.636H782.682V387H763.864ZM773.273 329.182C770.728 329.182 768.546 328.341 766.728 326.659C764.909 324.977 764 322.955 764 320.591C764 318.227 764.909 316.205 766.728 314.523C768.546 312.841 770.728 312 773.273 312C775.841 312 778.023 312.841 779.819 314.523C781.637 316.205 782.546 318.227 782.546 320.591C782.546 322.955 781.637 324.977 779.819 326.659C778.023 328.341 775.841 329.182 773.273 329.182ZM820.378 387.955C814.696 387.955 809.832 386.83 805.787 384.58C801.741 382.307 798.639 379.148 796.48 375.102C794.321 371.034 793.241 366.318 793.241 360.955C793.241 355.591 794.321 350.886 796.48 346.841C798.639 342.773 801.741 339.614 805.787 337.364C809.832 335.091 814.696 333.955 820.378 333.955C826.059 333.955 830.923 335.091 834.968 337.364C839.014 339.614 842.116 342.773 844.275 346.841C846.434 350.886 847.514 355.591 847.514 360.955C847.514 366.318 846.434 371.034 844.275 375.102C842.116 379.148 839.014 382.307 834.968 384.58C830.923 386.83 826.059 387.955 820.378 387.955ZM820.514 374.045C822.105 374.045 823.48 373.511 824.639 372.443C825.798 371.375 826.696 369.852 827.332 367.875C827.968 365.898 828.287 363.545 828.287 360.818C828.287 358.068 827.968 355.716 827.332 353.761C826.696 351.784 825.798 350.261 824.639 349.193C823.48 348.125 822.105 347.591 820.514 347.591C818.832 347.591 817.389 348.125 816.184 349.193C814.98 350.261 814.059 351.784 813.423 353.761C812.787 355.716 812.468 358.068 812.468 360.818C812.468 363.545 812.787 365.898 813.423 367.875C814.059 369.852 814.98 371.375 816.184 372.443C817.389 373.511 818.832 374.045 820.514 374.045ZM876.848 357.545V387H858.03V334.636H875.894V344.591H876.439C877.576 341.273 879.576 338.67 882.439 336.784C885.326 334.898 888.689 333.955 892.53 333.955C896.235 333.955 899.451 334.807 902.178 336.511C904.928 338.193 907.053 340.511 908.553 343.466C910.076 346.42 910.826 349.795 910.803 353.591V387H891.985V357.545C892.008 354.955 891.348 352.92 890.008 351.443C888.689 349.966 886.848 349.227 884.485 349.227C882.939 349.227 881.587 349.568 880.428 350.25C879.292 350.909 878.417 351.864 877.803 353.114C877.189 354.341 876.871 355.818 876.848 357.545Z" fill="white"/>
<path d="M1023.7 674.308V769.591L1109.64 820.849L1194.5 770.065V674.071L1109.64 623.316L1023.7 674.308Z" fill="white" fill-opacity="0.15" stroke="white" stroke-width="4"/>
<path d="M1188.55 676.752V767.621L1108.91 815.099L1029.27 767.621V676.752L1108.91 629.273L1188.55 676.752ZM1115.55 617.778C1113.53 616.613 1111.24 616 1108.91 616C1106.58 616 1104.29 616.613 1102.28 617.778L1022.64 665.257C1020.62 666.422 1018.94 668.097 1017.78 670.115C1016.61 672.133 1016 674.422 1016 676.752V767.621C1016 769.951 1016.61 772.24 1017.78 774.257C1018.94 776.275 1020.62 777.951 1022.64 779.115L1102.28 826.594C1104.29 827.759 1106.58 828.372 1108.91 828.372C1111.24 828.372 1113.53 827.759 1115.55 826.594L1195.19 779.115C1197.21 777.951 1198.88 776.275 1200.05 774.257C1201.21 772.24 1201.83 769.951 1201.83 767.621V676.752C1201.83 674.422 1201.21 672.133 1200.05 670.115C1198.88 668.097 1197.21 666.422 1195.19 665.257L1115.55 617.778Z" fill="white" fill-opacity="0.15"/>
<g opacity="0.8">
<path d="M1105.62 775.372L1059.3 748.826V695.732L1105.62 722.279V775.372Z" fill="white"/>
<path d="M1151.95 748.826L1105.62 775.372V722.279L1151.95 695.732V748.826Z" fill="#EBEBEB"/>
<path d="M1105.62 721.744L1059.3 695.333L1105.62 668.922L1151.94 695.333L1105.62 721.744Z" fill="#FBFBFB"/>
<path d="M1105.62 721.896L1061.31 696.863L1059.3 698.011L1105.62 724.175L1151.94 698.011V695.732L1105.62 721.896Z" fill="white"/>
</g>
<path d="M743.656 951.692V1145.65L918.601 1249.99L1091.36 1146.62V951.209L918.601 847.893L743.656 951.692Z" fill="white" fill-opacity="0.15" stroke="white" stroke-width="4"/>
<path d="M1079.25 956.667V1141.64L917.136 1238.29L755.019 1141.64V956.667L917.136 860.019L1079.25 956.667ZM930.646 836.62C926.538 834.248 921.879 833 917.136 833C912.393 833 907.734 834.248 903.626 836.62L741.51 933.268C737.402 935.64 733.992 939.051 731.62 943.158C729.249 947.265 728 951.925 728 956.667V1141.64C728 1146.39 729.249 1151.04 731.62 1155.15C733.992 1159.26 737.402 1162.67 741.51 1165.04L903.626 1261.69C907.734 1264.06 912.393 1265.31 917.136 1265.31C921.879 1265.31 926.538 1264.06 930.646 1261.69L1092.76 1165.04C1096.87 1162.67 1100.28 1159.26 1102.65 1155.15C1105.02 1151.04 1106.27 1146.39 1106.27 1141.64V956.667C1106.27 951.925 1105.02 947.265 1102.65 943.158C1100.28 939.051 1096.87 935.64 1092.76 933.268L930.646 836.62Z" fill="white" fill-opacity="0.15"/>
<rect x="911.914" y="1094.37" width="62.5679" height="27.9321" fill="#AFAFAF"/>
<rect x="987.889" y="1094.37" width="20.1111" height="27.9321" fill="#AFAFAF"/>
<rect x="1005.77" y="1035.15" width="2.23457" height="53.6296" fill="#AFAFAF"/>
<rect x="954.371" y="1035.15" width="2.23457" height="53.6296" fill="#AFAFAF"/>
<rect x="909.68" y="1055.27" width="2.23457" height="54.7469" fill="#AFAFAF"/>
<rect width="53.6296" height="5.58642" transform="matrix(1 0 0 -1 954.371 1094.37)" fill="#AFAFAF"/>
<rect width="53.6296" height="2.23457" transform="matrix(1 0 0 -1 954.371 1037.39)" fill="#AFAFAF"/>
<rect width="53.6296" height="2.23457" transform="matrix(1 0 0 -1 954.371 1041.86)" fill="#AFAFAF"/>
<rect width="53.6296" height="2.23457" transform="matrix(1 0 0 -1 954.371 1046.33)" fill="#AFAFAF"/>
<rect width="53.6296" height="2.23457" transform="matrix(1 0 0 -1 954.371 1050.8)" fill="#AFAFAF"/>
<rect width="98.321" height="2.23457" transform="matrix(1 0 0 -1 909.68 1055.27)" fill="#AFAFAF"/>
<rect width="53.6296" height="2.23457" transform="matrix(1 0 0 -1 954.371 1059.73)" fill="#AFAFAF"/>
<rect width="53.6296" height="2.23457" transform="matrix(1 0 0 -1 954.371 1064.2)" fill="#AFAFAF"/>
<rect width="53.6296" height="2.23457" transform="matrix(1 0 0 -1 954.371 1068.67)" fill="#AFAFAF"/>
<rect width="53.6296" height="2.23457" transform="matrix(1 0 0 -1 954.371 1073.14)" fill="#AFAFAF"/>
<rect width="53.6296" height="2.23457" transform="matrix(1 0 0 -1 954.371 1077.61)" fill="#AFAFAF"/>
<rect width="53.6296" height="2.23457" transform="matrix(1 0 0 -1 954.371 1082.08)" fill="#AFAFAF"/>
<rect width="53.6296" height="2.23457" transform="matrix(1 0 0 -1 954.371 1086.55)" fill="#AFAFAF"/>
<rect x="900.5" y="1110.62" width="65" height="19" rx="0.5" fill="white" stroke="white"/>
<rect x="900.5" y="1084.62" width="65" height="19" rx="0.5" fill="white" stroke="white"/>
<rect x="900.5" y="1058.62" width="65" height="20" rx="0.5" fill="white" stroke="white"/>
<path d="M884.865 981.267L885.064 981.722L885.52 981.527C888.545 980.236 891.796 979.56 895.085 979.537C901.682 979.538 908.008 982.159 912.673 986.823C917.338 991.488 919.959 997.815 919.959 1004.41C919.959 1011.01 917.338 1017.34 912.673 1022C908.008 1026.67 901.681 1029.29 895.083 1029.29H846.288C841.786 1029.23 837.449 1027.58 834.049 1024.63C830.648 1021.68 828.406 1017.61 827.721 1013.16C827.036 1008.71 827.953 1004.16 830.309 1000.32C832.665 996.484 836.306 993.605 840.585 992.2L840.95 992.08L840.928 991.696C840.91 991.39 840.91 991.084 840.928 990.778L840.929 990.76L840.929 990.742C840.855 985.448 842.617 980.291 845.914 976.148C849.212 972.005 853.842 969.131 859.018 968.015C864.194 966.899 869.596 967.609 874.308 970.025C879.02 972.44 882.75 976.413 884.865 981.267Z" fill="white" stroke="white"/>
<path d="M892.093 984.041C889.329 984.059 886.595 984.628 884.052 985.713C882.272 981.626 879.132 978.282 875.165 976.249C871.198 974.215 866.65 973.617 862.292 974.557C857.935 975.496 854.037 977.916 851.261 981.403C848.485 984.891 847.002 989.232 847.064 993.69C847.049 993.958 847.049 994.226 847.064 994.494C843.446 995.682 840.367 998.116 838.375 1001.36C836.383 1004.61 835.608 1008.45 836.187 1012.22C836.766 1015.98 838.662 1019.42 841.537 1021.92C844.413 1024.41 848.081 1025.81 851.889 1025.85H892.093C897.638 1025.85 902.956 1023.65 906.877 1019.73C910.797 1015.81 913 1010.49 913 1004.95C913 999.402 910.797 994.085 906.877 990.164C902.956 986.243 897.638 984.041 892.093 984.041Z" fill="#E8E8E8"/>
<path d="M881 1085.12C855.043 1085.12 834 1064.98 834 1040.12L849.667 1047.62" stroke="white" stroke-width="4" stroke-linecap="round" stroke-linejoin="round"/>
<path d="M914 977.123C938.853 977.123 959 997.718 959 1023.12L944 1015.46" stroke="white" stroke-width="4" stroke-linecap="round" stroke-linejoin="round"/>
<circle cx="957" cy="1069.12" r="3" fill="#3E3258"/>
<circle cx="957" cy="1095.12" r="3" fill="#3E3258"/>
<ellipse cx="957" cy="1120.62" rx="3" ry="2.5" fill="#3E3258"/>
<defs>
<filter id="filter0_d_3047_1197" x="64" y="464" width="389" height="212" filterUnits="userSpaceOnUse" color-interpolation-filters="sRGB">
<feFlood flood-opacity="0" result="BackgroundImageFix"/>
<feColorMatrix in="SourceAlpha" type="matrix" values="0 0 0 0 0 0 0 0 0 0 0 0 0 0 0 0 0 0 127 0" result="hardAlpha"/>
<feOffset dy="16"/>
<feGaussianBlur stdDeviation="20"/>
<feComposite in2="hardAlpha" operator="out"/>
<feColorMatrix type="matrix" values="0 0 0 0 0 0 0 0 0 0 0 0 0 0 0 0 0 0 0.05 0"/>
<feBlend mode="normal" in2="BackgroundImageFix" result="effect1_dropShadow_3047_1197"/>
<feBlend mode="normal" in="SourceGraphic" in2="effect1_dropShadow_3047_1197" result="shape"/>
</filter>
<radialGradient id="paint0_radial_3047_1197" cx="0" cy="0" r="1" gradientUnits="userSpaceOnUse" gradientTransform="translate(-355.2 -322.136) rotate(36.5012) scale(2238.73 3337.02)">
<stop offset="0.120942" stop-color="#321179"/>
<stop offset="1" stop-color="#160E2B"/>
</radialGradient>
</defs>
</svg>
