<svg width="1332" height="1332" viewBox="0 0 1332 1332" fill="none" xmlns="http://www.w3.org/2000/svg">
<rect width="1332" height="1332" fill="url(#paint0_radial_3007_1207)"/>
<g filter="url(#filter0_d_3007_1207)">
<rect x="104" y="488" width="309" height="132" rx="40" fill="white" shape-rendering="crispEdges"/>
<path d="M200.016 544.449H189.391C189.088 542.706 188.53 541.163 187.715 539.818C186.901 538.455 185.888 537.299 184.675 536.352C183.463 535.405 182.081 534.695 180.528 534.222C178.994 533.729 177.336 533.483 175.556 533.483C172.393 533.483 169.59 534.278 167.147 535.869C164.704 537.441 162.791 539.752 161.408 542.801C160.026 545.831 159.335 549.534 159.335 553.909C159.335 558.36 160.026 562.11 161.408 565.159C162.81 568.189 164.723 570.481 167.147 572.034C169.59 573.568 172.384 574.335 175.528 574.335C177.27 574.335 178.899 574.108 180.414 573.653C181.948 573.18 183.321 572.489 184.533 571.58C185.764 570.67 186.797 569.553 187.63 568.227C188.482 566.902 189.069 565.386 189.391 563.682L200.016 563.739C199.619 566.504 198.757 569.098 197.431 571.523C196.124 573.947 194.41 576.087 192.289 577.943C190.168 579.78 187.687 581.22 184.846 582.261C182.005 583.284 178.852 583.795 175.386 583.795C170.272 583.795 165.708 582.612 161.692 580.244C157.677 577.877 154.514 574.458 152.204 569.989C149.893 565.519 148.738 560.159 148.738 553.909C148.738 547.64 149.903 542.28 152.232 537.83C154.562 533.36 157.734 529.941 161.749 527.574C165.764 525.206 170.31 524.023 175.386 524.023C178.624 524.023 181.636 524.477 184.42 525.386C187.204 526.295 189.685 527.631 191.863 529.392C194.041 531.134 195.831 533.275 197.232 535.812C198.653 538.331 199.581 541.21 200.016 544.449ZM219.498 524.818V583H209.214V524.818H219.498ZM249.107 583.852C244.846 583.852 241.153 582.915 238.028 581.04C234.903 579.165 232.478 576.542 230.755 573.17C229.05 569.799 228.198 565.86 228.198 561.352C228.198 556.845 229.05 552.896 230.755 549.506C232.478 546.116 234.903 543.483 238.028 541.608C241.153 539.733 244.846 538.795 249.107 538.795C253.369 538.795 257.062 539.733 260.187 541.608C263.312 543.483 265.727 546.116 267.431 549.506C269.155 552.896 270.016 556.845 270.016 561.352C270.016 565.86 269.155 569.799 267.431 573.17C265.727 576.542 263.312 579.165 260.187 581.04C257.062 582.915 253.369 583.852 249.107 583.852ZM249.164 575.614C251.475 575.614 253.406 574.979 254.96 573.71C256.513 572.422 257.668 570.699 258.425 568.54C259.202 566.381 259.59 563.975 259.59 561.324C259.59 558.653 259.202 556.239 258.425 554.08C257.668 551.902 256.513 550.169 254.96 548.881C253.406 547.593 251.475 546.949 249.164 546.949C246.797 546.949 244.827 547.593 243.255 548.881C241.702 550.169 240.537 551.902 239.761 554.08C239.003 556.239 238.624 558.653 238.624 561.324C238.624 563.975 239.003 566.381 239.761 568.54C240.537 570.699 241.702 572.422 243.255 573.71C244.827 574.979 246.797 575.614 249.164 575.614ZM306.558 564.648V539.364H316.842V583H306.87V575.244H306.415C305.431 577.687 303.811 579.686 301.558 581.239C299.323 582.792 296.567 583.568 293.29 583.568C290.431 583.568 287.902 582.934 285.705 581.665C283.527 580.377 281.823 578.511 280.592 576.068C279.361 573.606 278.745 570.633 278.745 567.148V539.364H289.029V565.557C289.029 568.322 289.787 570.519 291.302 572.148C292.817 573.777 294.806 574.591 297.268 574.591C298.783 574.591 300.251 574.222 301.671 573.483C303.092 572.744 304.256 571.646 305.165 570.188C306.094 568.71 306.558 566.864 306.558 564.648ZM343.61 583.767C340.182 583.767 337.114 582.886 334.406 581.125C331.697 579.364 329.557 576.807 327.985 573.455C326.413 570.102 325.627 566.03 325.627 561.239C325.627 556.39 326.423 552.299 328.013 548.966C329.623 545.614 331.792 543.085 334.519 541.381C337.246 539.657 340.286 538.795 343.638 538.795C346.195 538.795 348.298 539.231 349.945 540.102C351.593 540.955 352.9 541.987 353.866 543.199C354.832 544.392 355.58 545.519 356.11 546.58H356.536V524.818H366.849V583H356.735V576.125H356.11C355.58 577.186 354.813 578.312 353.809 579.506C352.805 580.68 351.479 581.684 349.832 582.517C348.184 583.35 346.11 583.767 343.61 583.767ZM346.479 575.33C348.657 575.33 350.513 574.742 352.048 573.568C353.582 572.375 354.746 570.718 355.542 568.597C356.337 566.475 356.735 564.004 356.735 561.182C356.735 558.36 356.337 555.907 355.542 553.824C354.765 551.741 353.61 550.121 352.076 548.966C350.561 547.811 348.695 547.233 346.479 547.233C344.188 547.233 342.275 547.83 340.741 549.023C339.207 550.216 338.051 551.864 337.275 553.966C336.498 556.068 336.11 558.473 336.11 561.182C336.11 563.909 336.498 566.343 337.275 568.483C338.07 570.604 339.235 572.28 340.769 573.511C342.322 574.723 344.226 575.33 346.479 575.33Z" fill="#FF9900"/>
</g>
<path d="M108.492 197.182H132.083L148.31 236.727H149.129L165.356 197.182H188.947V267H170.401V226.636H169.856L154.31 266.455H143.129L127.583 226.364H127.038V267H108.492V197.182ZM215.673 267.818C212.332 267.818 209.378 267.273 206.81 266.182C204.264 265.068 202.264 263.386 200.81 261.136C199.355 258.886 198.628 256.023 198.628 252.545C198.628 249.682 199.117 247.239 200.094 245.216C201.071 243.17 202.435 241.5 204.185 240.205C205.935 238.909 207.969 237.92 210.287 237.239C212.628 236.557 215.151 236.114 217.855 235.909C220.787 235.682 223.139 235.409 224.912 235.091C226.707 234.75 228.003 234.284 228.798 233.693C229.594 233.08 229.992 232.273 229.992 231.273V231.136C229.992 229.773 229.469 228.727 228.423 228C227.378 227.273 226.037 226.909 224.401 226.909C222.605 226.909 221.139 227.307 220.003 228.102C218.889 228.875 218.219 230.068 217.992 231.682H200.673C200.901 228.5 201.912 225.568 203.707 222.886C205.526 220.182 208.173 218.023 211.651 216.409C215.128 214.773 219.469 213.955 224.673 213.955C228.423 213.955 231.787 214.398 234.764 215.284C237.742 216.148 240.276 217.364 242.367 218.932C244.457 220.477 246.048 222.295 247.139 224.386C248.253 226.455 248.81 228.705 248.81 231.136V267H231.219V259.636H230.81C229.764 261.591 228.492 263.17 226.992 264.375C225.514 265.58 223.821 266.455 221.912 267C220.026 267.545 217.946 267.818 215.673 267.818ZM221.81 255.955C223.242 255.955 224.582 255.659 225.832 255.068C227.105 254.477 228.139 253.625 228.935 252.511C229.73 251.398 230.128 250.045 230.128 248.455V244.091C229.628 244.295 229.094 244.489 228.526 244.67C227.98 244.852 227.389 245.023 226.753 245.182C226.139 245.341 225.48 245.489 224.776 245.625C224.094 245.761 223.378 245.886 222.628 246C221.173 246.227 219.98 246.602 219.048 247.125C218.139 247.625 217.457 248.25 217.003 249C216.571 249.727 216.355 250.545 216.355 251.455C216.355 252.909 216.867 254.023 217.889 254.795C218.912 255.568 220.219 255.955 221.81 255.955ZM308.545 231.682H291.227C291.136 230.614 290.761 229.693 290.102 228.92C289.443 228.148 288.59 227.557 287.545 227.148C286.522 226.716 285.386 226.5 284.136 226.5C282.522 226.5 281.136 226.795 279.977 227.386C278.818 227.977 278.249 228.818 278.272 229.909C278.249 230.682 278.579 231.398 279.261 232.057C279.965 232.716 281.318 233.227 283.318 233.591L293.954 235.5C299.318 236.477 303.306 238.125 305.92 240.443C308.556 242.739 309.886 245.818 309.908 249.682C309.886 253.409 308.772 256.648 306.568 259.398C304.386 262.125 301.397 264.239 297.602 265.739C293.829 267.216 289.522 267.955 284.681 267.955C276.681 267.955 270.42 266.318 265.897 263.045C261.397 259.773 258.886 255.455 258.363 250.091H277.045C277.295 251.75 278.113 253.034 279.499 253.943C280.908 254.83 282.681 255.273 284.818 255.273C286.545 255.273 287.965 254.977 289.079 254.386C290.215 253.795 290.795 252.955 290.818 251.864C290.795 250.864 290.295 250.068 289.318 249.477C288.363 248.886 286.863 248.409 284.818 248.045L275.545 246.409C270.204 245.477 266.204 243.705 263.545 241.091C260.886 238.477 259.568 235.114 259.59 231C259.568 227.364 260.522 224.284 262.454 221.761C264.408 219.216 267.193 217.284 270.806 215.966C274.443 214.625 278.749 213.955 283.727 213.955C291.295 213.955 297.261 215.523 301.624 218.659C306.011 221.795 308.318 226.136 308.545 231.682ZM351.226 214.636V228.273H316.726V214.636H351.226ZM323.408 202.091H342.226V250.159C342.226 250.886 342.351 251.5 342.601 252C342.851 252.477 343.237 252.841 343.76 253.091C344.283 253.318 344.953 253.432 345.771 253.432C346.34 253.432 346.999 253.364 347.749 253.227C348.521 253.091 349.09 252.977 349.453 252.886L352.18 266.114C351.34 266.364 350.135 266.67 348.567 267.034C347.021 267.398 345.18 267.636 343.044 267.75C338.726 267.977 335.101 267.534 332.169 266.42C329.237 265.284 327.033 263.5 325.555 261.068C324.078 258.636 323.362 255.591 323.408 251.932V202.091ZM386.313 267.955C380.722 267.955 375.904 266.886 371.859 264.75C367.836 262.591 364.734 259.5 362.552 255.477C360.393 251.432 359.313 246.591 359.313 240.955C359.313 235.545 360.404 230.818 362.586 226.773C364.768 222.727 367.847 219.58 371.825 217.33C375.802 215.08 380.495 213.955 385.904 213.955C389.859 213.955 393.438 214.568 396.643 215.795C399.847 217.023 402.586 218.807 404.859 221.148C407.132 223.466 408.882 226.284 410.109 229.602C411.336 232.92 411.95 236.659 411.95 240.818V245.182H365.177V234.818H394.632C394.609 233.318 394.222 232 393.472 230.864C392.745 229.705 391.757 228.807 390.507 228.17C389.279 227.511 387.882 227.182 386.313 227.182C384.791 227.182 383.393 227.511 382.12 228.17C380.847 228.807 379.825 229.693 379.052 230.83C378.302 231.966 377.904 233.295 377.859 234.818V246C377.859 247.682 378.211 249.182 378.916 250.5C379.62 251.818 380.632 252.852 381.95 253.602C383.268 254.352 384.859 254.727 386.722 254.727C388.018 254.727 389.2 254.545 390.268 254.182C391.359 253.818 392.291 253.295 393.063 252.614C393.836 251.909 394.404 251.068 394.768 250.091H411.95C411.359 253.727 409.961 256.886 407.757 259.568C405.552 262.227 402.632 264.295 398.995 265.773C395.382 267.227 391.154 267.955 386.313 267.955ZM422.509 267V214.636H440.781V224.591H441.327C442.281 220.909 443.793 218.216 445.861 216.511C447.952 214.807 450.395 213.955 453.19 213.955C454.009 213.955 454.815 214.023 455.611 214.159C456.429 214.273 457.213 214.443 457.963 214.67V230.727C457.031 230.409 455.884 230.17 454.52 230.011C453.156 229.852 451.986 229.773 451.009 229.773C449.168 229.773 447.509 230.193 446.031 231.034C444.577 231.852 443.429 233.011 442.588 234.511C441.747 235.989 441.327 237.727 441.327 239.727V267H422.509ZM467.014 267V214.636H485.832V267H467.014ZM476.423 209.182C473.877 209.182 471.695 208.341 469.877 206.659C468.059 204.977 467.15 202.955 467.15 200.591C467.15 198.227 468.059 196.205 469.877 194.523C471.695 192.841 473.877 192 476.423 192C478.991 192 481.173 192.841 482.968 194.523C484.786 196.205 485.695 198.227 485.695 200.591C485.695 202.955 484.786 204.977 482.968 206.659C481.173 208.341 478.991 209.182 476.423 209.182ZM517.118 237.545V267H498.3V214.636H516.164V224.591H516.709C517.845 221.273 519.845 218.67 522.709 216.784C525.595 214.898 528.959 213.955 532.8 213.955C536.504 213.955 539.72 214.807 542.448 216.511C545.198 218.193 547.323 220.511 548.823 223.466C550.345 226.42 551.095 229.795 551.073 233.591V267H532.254V237.545C532.277 234.955 531.618 232.92 530.277 231.443C528.959 229.966 527.118 229.227 524.754 229.227C523.209 229.227 521.857 229.568 520.698 230.25C519.561 230.909 518.686 231.864 518.073 233.114C517.459 234.341 517.141 235.818 517.118 237.545ZM588.47 287.727C583.22 287.727 578.72 286.977 574.97 285.477C571.242 284 568.345 281.955 566.277 279.341C564.231 276.75 563.083 273.773 562.833 270.409H580.97C581.152 271.523 581.606 272.42 582.333 273.102C583.061 273.784 583.992 274.273 585.129 274.568C586.288 274.886 587.583 275.045 589.015 275.045C591.447 275.045 593.458 274.455 595.049 273.273C596.663 272.091 597.47 269.955 597.47 266.864V258H596.924C596.242 259.773 595.197 261.284 593.788 262.534C592.379 263.761 590.686 264.705 588.708 265.364C586.731 266 584.561 266.318 582.197 266.318C578.47 266.318 575.038 265.455 571.902 263.727C568.788 262 566.288 259.261 564.402 255.511C562.538 251.761 561.606 246.864 561.606 240.818C561.606 234.5 562.583 229.364 564.538 225.409C566.515 221.455 569.061 218.557 572.174 216.716C575.311 214.875 578.606 213.955 582.061 213.955C584.652 213.955 586.924 214.409 588.879 215.318C590.833 216.205 592.47 217.398 593.788 218.898C595.106 220.375 596.106 222 596.788 223.773H597.197V214.636H616.015V266.864C616.015 271.295 614.867 275.057 612.572 278.148C610.299 281.261 607.095 283.636 602.958 285.273C598.822 286.909 593.992 287.727 588.47 287.727ZM589.152 252.955C590.879 252.955 592.356 252.477 593.583 251.523C594.833 250.545 595.788 249.159 596.447 247.364C597.129 245.545 597.47 243.364 597.47 240.818C597.47 238.227 597.129 236.011 596.447 234.17C595.788 232.307 594.833 230.886 593.583 229.909C592.356 228.909 590.879 228.409 589.152 228.409C587.424 228.409 585.947 228.909 584.72 229.909C583.515 230.886 582.583 232.307 581.924 234.17C581.288 236.011 580.97 238.227 580.97 240.818C580.97 243.409 581.288 245.614 581.924 247.432C582.583 249.227 583.515 250.602 584.72 251.557C585.947 252.489 587.424 252.955 589.152 252.955ZM715.38 223.364H696.153C696.017 221.773 695.653 220.33 695.062 219.034C694.494 217.739 693.698 216.625 692.676 215.693C691.676 214.739 690.46 214.011 689.028 213.511C687.596 212.989 685.971 212.727 684.153 212.727C680.971 212.727 678.278 213.5 676.073 215.045C673.892 216.591 672.233 218.807 671.096 221.693C669.983 224.58 669.426 228.045 669.426 232.091C669.426 236.364 669.994 239.943 671.13 242.83C672.289 245.693 673.96 247.852 676.142 249.307C678.323 250.739 680.948 251.455 684.017 251.455C685.767 251.455 687.335 251.239 688.721 250.807C690.108 250.352 691.312 249.705 692.335 248.864C693.358 248.023 694.187 247.011 694.823 245.83C695.483 244.625 695.926 243.273 696.153 241.773L715.38 241.909C715.153 244.864 714.323 247.875 712.892 250.943C711.46 253.989 709.426 256.807 706.789 259.398C704.176 261.966 700.937 264.034 697.073 265.602C693.21 267.17 688.721 267.955 683.608 267.955C677.198 267.955 671.448 266.58 666.358 263.83C661.289 261.08 657.278 257.034 654.323 251.693C651.392 246.352 649.926 239.818 649.926 232.091C649.926 224.318 651.426 217.773 654.426 212.455C657.426 207.114 661.471 203.08 666.562 200.352C671.653 197.602 677.335 196.227 683.608 196.227C688.017 196.227 692.073 196.83 695.778 198.034C699.483 199.239 702.733 201 705.528 203.318C708.323 205.614 710.573 208.443 712.278 211.807C713.983 215.17 715.017 219.023 715.38 223.364ZM745.951 197.182V267H727.132V197.182H745.951ZM783.646 267.955C777.964 267.955 773.1 266.83 769.055 264.58C765.01 262.307 761.907 259.148 759.748 255.102C757.589 251.034 756.51 246.318 756.51 240.955C756.51 235.591 757.589 230.886 759.748 226.841C761.907 222.773 765.01 219.614 769.055 217.364C773.1 215.091 777.964 213.955 783.646 213.955C789.328 213.955 794.191 215.091 798.237 217.364C802.282 219.614 805.385 222.773 807.544 226.841C809.703 230.886 810.782 235.591 810.782 240.955C810.782 246.318 809.703 251.034 807.544 255.102C805.385 259.148 802.282 262.307 798.237 264.58C794.191 266.83 789.328 267.955 783.646 267.955ZM783.782 254.045C785.373 254.045 786.748 253.511 787.907 252.443C789.066 251.375 789.964 249.852 790.6 247.875C791.237 245.898 791.555 243.545 791.555 240.818C791.555 238.068 791.237 235.716 790.6 233.761C789.964 231.784 789.066 230.261 787.907 229.193C786.748 228.125 785.373 227.591 783.782 227.591C782.1 227.591 780.657 228.125 779.453 229.193C778.248 230.261 777.328 231.784 776.691 233.761C776.055 235.716 775.737 238.068 775.737 240.818C775.737 243.545 776.055 245.898 776.691 247.875C777.328 249.852 778.248 251.375 779.453 252.443C780.657 253.511 782.1 254.045 783.782 254.045ZM855.253 244.091V214.636H874.071V267H856.208V257.045H855.662C854.526 260.386 852.537 263 849.696 264.886C846.855 266.75 843.48 267.682 839.571 267.682C835.912 267.682 832.708 266.841 829.958 265.159C827.23 263.477 825.105 261.159 823.583 258.205C822.083 255.25 821.321 251.864 821.299 248.045V214.636H840.117V244.091C840.14 246.682 840.799 248.716 842.094 250.193C843.412 251.67 845.253 252.409 847.617 252.409C849.185 252.409 850.537 252.08 851.674 251.42C852.833 250.739 853.719 249.784 854.333 248.557C854.969 247.307 855.276 245.818 855.253 244.091ZM905.477 267.682C901.75 267.682 898.318 266.705 895.182 264.75C892.068 262.795 889.568 259.83 887.682 255.852C885.818 251.875 884.886 246.864 884.886 240.818C884.886 234.5 885.863 229.364 887.818 225.409C889.795 221.455 892.341 218.557 895.454 216.716C898.591 214.875 901.886 213.955 905.341 213.955C907.932 213.955 910.204 214.409 912.159 215.318C914.113 216.205 915.75 217.398 917.068 218.898C918.386 220.375 919.386 222 920.068 223.773H920.341V197.182H939.159V267H920.477V258.409H920.068C919.341 260.182 918.295 261.773 916.932 263.182C915.591 264.568 913.954 265.67 912.022 266.489C910.113 267.284 907.932 267.682 905.477 267.682ZM912.432 253.227C914.159 253.227 915.636 252.727 916.863 251.727C918.113 250.705 919.068 249.273 919.727 247.432C920.409 245.568 920.75 243.364 920.75 240.818C920.75 238.227 920.409 236.011 919.727 234.17C919.068 232.307 918.113 230.886 916.863 229.909C915.636 228.909 914.159 228.409 912.432 228.409C910.704 228.409 909.227 228.909 908 229.909C906.795 230.886 905.863 232.307 905.204 234.17C904.568 236.011 904.25 238.227 904.25 240.818C904.25 243.409 904.568 245.636 905.204 247.5C905.863 249.341 906.795 250.761 908 251.761C909.227 252.739 910.704 253.227 912.432 253.227ZM173.674 343.364H154.447C154.31 341.773 153.947 340.33 153.356 339.034C152.788 337.739 151.992 336.625 150.969 335.693C149.969 334.739 148.754 334.011 147.322 333.511C145.89 332.989 144.265 332.727 142.447 332.727C139.265 332.727 136.572 333.5 134.367 335.045C132.185 336.591 130.526 338.807 129.39 341.693C128.276 344.58 127.719 348.045 127.719 352.091C127.719 356.364 128.288 359.943 129.424 362.83C130.583 365.693 132.254 367.852 134.435 369.307C136.617 370.739 139.242 371.455 142.31 371.455C144.06 371.455 145.629 371.239 147.015 370.807C148.401 370.352 149.606 369.705 150.629 368.864C151.651 368.023 152.481 367.011 153.117 365.83C153.776 364.625 154.219 363.273 154.447 361.773L173.674 361.909C173.447 364.864 172.617 367.875 171.185 370.943C169.754 373.989 167.719 376.807 165.083 379.398C162.469 381.966 159.231 384.034 155.367 385.602C151.504 387.17 147.015 387.955 141.901 387.955C135.492 387.955 129.742 386.58 124.651 383.83C119.583 381.08 115.572 377.034 112.617 371.693C109.685 366.352 108.219 359.818 108.219 352.091C108.219 344.318 109.719 337.773 112.719 332.455C115.719 327.114 119.765 323.08 124.856 320.352C129.947 317.602 135.629 316.227 141.901 316.227C146.31 316.227 150.367 316.83 154.072 318.034C157.776 319.239 161.026 321 163.822 323.318C166.617 325.614 168.867 328.443 170.572 331.807C172.276 335.17 173.31 339.023 173.674 343.364ZM210.653 387.955C204.972 387.955 200.108 386.83 196.063 384.58C192.017 382.307 188.915 379.148 186.756 375.102C184.597 371.034 183.517 366.318 183.517 360.955C183.517 355.591 184.597 350.886 186.756 346.841C188.915 342.773 192.017 339.614 196.063 337.364C200.108 335.091 204.972 333.955 210.653 333.955C216.335 333.955 221.199 335.091 225.244 337.364C229.29 339.614 232.392 342.773 234.551 346.841C236.71 350.886 237.79 355.591 237.79 360.955C237.79 366.318 236.71 371.034 234.551 375.102C232.392 379.148 229.29 382.307 225.244 384.58C221.199 386.83 216.335 387.955 210.653 387.955ZM210.79 374.045C212.381 374.045 213.756 373.511 214.915 372.443C216.074 371.375 216.972 369.852 217.608 367.875C218.244 365.898 218.563 363.545 218.563 360.818C218.563 358.068 218.244 355.716 217.608 353.761C216.972 351.784 216.074 350.261 214.915 349.193C213.756 348.125 212.381 347.591 210.79 347.591C209.108 347.591 207.665 348.125 206.46 349.193C205.256 350.261 204.335 351.784 203.699 353.761C203.063 355.716 202.744 358.068 202.744 360.818C202.744 363.545 203.063 365.898 203.699 367.875C204.335 369.852 205.256 371.375 206.46 372.443C207.665 373.511 209.108 374.045 210.79 374.045ZM296.17 351.682H278.852C278.761 350.614 278.386 349.693 277.727 348.92C277.068 348.148 276.215 347.557 275.17 347.148C274.147 346.716 273.011 346.5 271.761 346.5C270.147 346.5 268.761 346.795 267.602 347.386C266.443 347.977 265.874 348.818 265.897 349.909C265.874 350.682 266.204 351.398 266.886 352.057C267.59 352.716 268.943 353.227 270.943 353.591L281.579 355.5C286.943 356.477 290.931 358.125 293.545 360.443C296.181 362.739 297.511 365.818 297.533 369.682C297.511 373.409 296.397 376.648 294.193 379.398C292.011 382.125 289.022 384.239 285.227 385.739C281.454 387.216 277.147 387.955 272.306 387.955C264.306 387.955 258.045 386.318 253.522 383.045C249.022 379.773 246.511 375.455 245.988 370.091H264.67C264.92 371.75 265.738 373.034 267.124 373.943C268.533 374.83 270.306 375.273 272.443 375.273C274.17 375.273 275.59 374.977 276.704 374.386C277.84 373.795 278.42 372.955 278.443 371.864C278.42 370.864 277.92 370.068 276.943 369.477C275.988 368.886 274.488 368.409 272.443 368.045L263.17 366.409C257.829 365.477 253.829 363.705 251.17 361.091C248.511 358.477 247.193 355.114 247.215 351C247.193 347.364 248.147 344.284 250.079 341.761C252.033 339.216 254.818 337.284 258.431 335.966C262.068 334.625 266.374 333.955 271.352 333.955C278.92 333.955 284.886 335.523 289.249 338.659C293.636 341.795 295.943 346.136 296.17 351.682ZM338.851 334.636V348.273H304.351V334.636H338.851ZM311.033 322.091H329.851V370.159C329.851 370.886 329.976 371.5 330.226 372C330.476 372.477 330.862 372.841 331.385 373.091C331.908 373.318 332.578 373.432 333.396 373.432C333.965 373.432 334.624 373.364 335.374 373.227C336.146 373.091 336.715 372.977 337.078 372.886L339.805 386.114C338.965 386.364 337.76 386.67 336.192 387.034C334.646 387.398 332.805 387.636 330.669 387.75C326.351 387.977 322.726 387.534 319.794 386.42C316.862 385.284 314.658 383.5 313.18 381.068C311.703 378.636 310.987 375.591 311.033 371.932V322.091ZM438.779 352.091C438.779 359.864 437.267 366.42 434.244 371.761C431.222 377.08 427.142 381.114 422.006 383.864C416.869 386.591 411.142 387.955 404.824 387.955C398.46 387.955 392.71 386.58 387.574 383.83C382.46 381.057 378.392 377.011 375.369 371.693C372.369 366.352 370.869 359.818 370.869 352.091C370.869 344.318 372.369 337.773 375.369 332.455C378.392 327.114 382.46 323.08 387.574 320.352C392.71 317.602 398.46 316.227 404.824 316.227C411.142 316.227 416.869 317.602 422.006 320.352C427.142 323.08 431.222 327.114 434.244 332.455C437.267 337.773 438.779 344.318 438.779 352.091ZM419.279 352.091C419.279 347.909 418.722 344.386 417.608 341.523C416.517 338.636 414.892 336.455 412.733 334.977C410.597 333.477 407.96 332.727 404.824 332.727C401.688 332.727 399.04 333.477 396.881 334.977C394.744 336.455 393.119 338.636 392.006 341.523C390.915 344.386 390.369 347.909 390.369 352.091C390.369 356.273 390.915 359.807 392.006 362.693C393.119 365.557 394.744 367.739 396.881 369.239C399.04 370.716 401.688 371.455 404.824 371.455C407.96 371.455 410.597 370.716 412.733 369.239C414.892 367.739 416.517 365.557 417.608 362.693C418.722 359.807 419.279 356.273 419.279 352.091ZM450.701 406.636V334.636H469.383V343.773H469.792C470.474 342 471.474 340.375 472.792 338.898C474.11 337.398 475.747 336.205 477.701 335.318C479.656 334.409 481.928 333.955 484.519 333.955C487.974 333.955 491.258 334.875 494.372 336.716C497.508 338.557 500.053 341.455 502.008 345.409C503.985 349.364 504.974 354.5 504.974 360.818C504.974 366.864 504.031 371.875 502.144 375.852C500.281 379.83 497.781 382.795 494.644 384.75C491.531 386.705 488.11 387.682 484.383 387.682C481.928 387.682 479.735 387.284 477.803 386.489C475.894 385.67 474.258 384.568 472.894 383.182C471.553 381.773 470.519 380.182 469.792 378.409H469.519V406.636H450.701ZM469.11 360.818C469.11 363.364 469.44 365.568 470.099 367.432C470.781 369.273 471.735 370.705 472.963 371.727C474.213 372.727 475.701 373.227 477.428 373.227C479.156 373.227 480.622 372.739 481.826 371.761C483.053 370.761 483.985 369.341 484.622 367.5C485.281 365.636 485.61 363.409 485.61 360.818C485.61 358.227 485.281 356.011 484.622 354.17C483.985 352.307 483.053 350.886 481.826 349.909C480.622 348.909 479.156 348.409 477.428 348.409C475.701 348.409 474.213 348.909 472.963 349.909C471.735 350.886 470.781 352.307 470.099 354.17C469.44 356.011 469.11 358.227 469.11 360.818ZM546.965 334.636V348.273H512.465V334.636H546.965ZM519.147 322.091H537.965V370.159C537.965 370.886 538.09 371.5 538.34 372C538.59 372.477 538.976 372.841 539.499 373.091C540.022 373.318 540.692 373.432 541.51 373.432C542.078 373.432 542.737 373.364 543.487 373.227C544.26 373.091 544.828 372.977 545.192 372.886L547.919 386.114C547.078 386.364 545.874 386.67 544.306 387.034C542.76 387.398 540.919 387.636 538.783 387.75C534.465 387.977 530.84 387.534 527.908 386.42C524.976 385.284 522.772 383.5 521.294 381.068C519.817 378.636 519.101 375.591 519.147 371.932V322.091ZM557.524 387V334.636H576.342V387H557.524ZM566.933 329.182C564.387 329.182 562.205 328.341 560.387 326.659C558.569 324.977 557.66 322.955 557.66 320.591C557.66 318.227 558.569 316.205 560.387 314.523C562.205 312.841 564.387 312 566.933 312C569.501 312 571.683 312.841 573.478 314.523C575.296 316.205 576.205 318.227 576.205 320.591C576.205 322.955 575.296 324.977 573.478 326.659C571.683 328.341 569.501 329.182 566.933 329.182ZM588.81 387V334.636H606.674V344.591H607.219C608.31 341.318 610.174 338.727 612.81 336.818C615.446 334.909 618.583 333.955 622.219 333.955C625.901 333.955 629.071 334.932 631.73 336.886C634.389 338.818 635.992 341.386 636.537 344.591H637.083C637.969 341.386 639.855 338.818 642.742 336.886C645.628 334.932 649.014 333.955 652.901 333.955C657.924 333.955 661.992 335.568 665.105 338.795C668.242 342.023 669.81 346.318 669.81 351.682V387H650.992V356.455C650.992 354.159 650.412 352.364 649.253 351.068C648.094 349.75 646.537 349.091 644.583 349.091C642.651 349.091 641.117 349.75 639.98 351.068C638.867 352.364 638.31 354.159 638.31 356.455V387H620.31V356.455C620.31 354.159 619.73 352.364 618.571 351.068C617.412 349.75 615.855 349.091 613.901 349.091C612.605 349.091 611.492 349.386 610.56 349.977C609.628 350.568 608.901 351.42 608.378 352.534C607.878 353.625 607.628 354.932 607.628 356.455V387H588.81ZM681.971 387V334.636H700.789V387H681.971ZM691.38 329.182C688.835 329.182 686.653 328.341 684.835 326.659C683.017 324.977 682.108 322.955 682.108 320.591C682.108 318.227 683.017 316.205 684.835 314.523C686.653 312.841 688.835 312 691.38 312C693.948 312 696.13 312.841 697.926 314.523C699.744 316.205 700.653 318.227 700.653 320.591C700.653 322.955 699.744 324.977 697.926 326.659C696.13 328.341 693.948 329.182 691.38 329.182ZM713.803 387V376.636L736.712 349.227V348.955H714.621V334.636H758.939V346.091L738.076 372.409V372.682H759.757V387H713.803ZM787.635 387.818C784.294 387.818 781.339 387.273 778.771 386.182C776.225 385.068 774.225 383.386 772.771 381.136C771.316 378.886 770.589 376.023 770.589 372.545C770.589 369.682 771.078 367.239 772.055 365.216C773.032 363.17 774.396 361.5 776.146 360.205C777.896 358.909 779.93 357.92 782.248 357.239C784.589 356.557 787.112 356.114 789.816 355.909C792.748 355.682 795.1 355.409 796.873 355.091C798.669 354.75 799.964 354.284 800.76 353.693C801.555 353.08 801.953 352.273 801.953 351.273V351.136C801.953 349.773 801.43 348.727 800.385 348C799.339 347.273 797.998 346.909 796.362 346.909C794.566 346.909 793.1 347.307 791.964 348.102C790.85 348.875 790.18 350.068 789.953 351.682H772.635C772.862 348.5 773.873 345.568 775.669 342.886C777.487 340.182 780.135 338.023 783.612 336.409C787.089 334.773 791.43 333.955 796.635 333.955C800.385 333.955 803.748 334.398 806.725 335.284C809.703 336.148 812.237 337.364 814.328 338.932C816.419 340.477 818.01 342.295 819.1 344.386C820.214 346.455 820.771 348.705 820.771 351.136V387H803.18V379.636H802.771C801.725 381.591 800.453 383.17 798.953 384.375C797.475 385.58 795.782 386.455 793.873 387C791.987 387.545 789.907 387.818 787.635 387.818ZM793.771 375.955C795.203 375.955 796.544 375.659 797.794 375.068C799.066 374.477 800.1 373.625 800.896 372.511C801.691 371.398 802.089 370.045 802.089 368.455V364.091C801.589 364.295 801.055 364.489 800.487 364.67C799.941 364.852 799.35 365.023 798.714 365.182C798.1 365.341 797.441 365.489 796.737 365.625C796.055 365.761 795.339 365.886 794.589 366C793.135 366.227 791.941 366.602 791.01 367.125C790.1 367.625 789.419 368.25 788.964 369C788.532 369.727 788.316 370.545 788.316 371.455C788.316 372.909 788.828 374.023 789.85 374.795C790.873 375.568 792.18 375.955 793.771 375.955ZM863.87 334.636V348.273H829.37V334.636H863.87ZM836.052 322.091H854.87V370.159C854.87 370.886 854.995 371.5 855.245 372C855.495 372.477 855.881 372.841 856.404 373.091C856.927 373.318 857.597 373.432 858.415 373.432C858.983 373.432 859.642 373.364 860.392 373.227C861.165 373.091 861.733 372.977 862.097 372.886L864.824 386.114C863.983 386.364 862.779 386.67 861.211 387.034C859.665 387.398 857.824 387.636 855.688 387.75C851.37 387.977 847.745 387.534 844.813 386.42C841.881 385.284 839.677 383.5 838.199 381.068C836.722 378.636 836.006 375.591 836.052 371.932V322.091ZM874.429 387V334.636H893.247V387H874.429ZM883.838 329.182C881.292 329.182 879.11 328.341 877.292 326.659C875.474 324.977 874.565 322.955 874.565 320.591C874.565 318.227 875.474 316.205 877.292 314.523C879.11 312.841 881.292 312 883.838 312C886.406 312 888.588 312.841 890.383 314.523C892.201 316.205 893.11 318.227 893.11 320.591C893.11 322.955 892.201 324.977 890.383 326.659C888.588 328.341 886.406 329.182 883.838 329.182ZM930.942 387.955C925.26 387.955 920.397 386.83 916.351 384.58C912.306 382.307 909.204 379.148 907.044 375.102C904.885 371.034 903.806 366.318 903.806 360.955C903.806 355.591 904.885 350.886 907.044 346.841C909.204 342.773 912.306 339.614 916.351 337.364C920.397 335.091 925.26 333.955 930.942 333.955C936.624 333.955 941.488 335.091 945.533 337.364C949.579 339.614 952.681 342.773 954.84 346.841C956.999 350.886 958.079 355.591 958.079 360.955C958.079 366.318 956.999 371.034 954.84 375.102C952.681 379.148 949.579 382.307 945.533 384.58C941.488 386.83 936.624 387.955 930.942 387.955ZM931.079 374.045C932.669 374.045 934.044 373.511 935.204 372.443C936.363 371.375 937.26 369.852 937.897 367.875C938.533 365.898 938.851 363.545 938.851 360.818C938.851 358.068 938.533 355.716 937.897 353.761C937.26 351.784 936.363 350.261 935.204 349.193C934.044 348.125 932.669 347.591 931.079 347.591C929.397 347.591 927.954 348.125 926.749 349.193C925.544 350.261 924.624 351.784 923.988 353.761C923.351 355.716 923.033 358.068 923.033 360.818C923.033 363.545 923.351 365.898 923.988 367.875C924.624 369.852 925.544 371.375 926.749 372.443C927.954 373.511 929.397 374.045 931.079 374.045ZM987.413 357.545V387H968.595V334.636H986.459V344.591H987.004C988.14 341.273 990.14 338.67 993.004 336.784C995.89 334.898 999.254 333.955 1003.09 333.955C1006.8 333.955 1010.02 334.807 1012.74 336.511C1015.49 338.193 1017.62 340.511 1019.12 343.466C1020.64 346.42 1021.39 349.795 1021.37 353.591V387H1002.55V357.545C1002.57 354.955 1001.91 352.92 1000.57 351.443C999.254 349.966 997.413 349.227 995.049 349.227C993.504 349.227 992.152 349.568 990.993 350.25C989.856 350.909 988.981 351.864 988.368 353.114C987.754 354.341 987.436 355.818 987.413 357.545Z" fill="white"/>
<path d="M1023.69 674.308V769.591L1109.63 820.849L1194.5 770.065V674.071L1109.63 623.316L1023.69 674.308Z" fill="white" fill-opacity="0.15" stroke="white" stroke-width="4"/>
<path d="M1188.55 676.752V767.621L1108.91 815.099L1029.27 767.621V676.752L1108.91 629.273L1188.55 676.752ZM1115.55 617.778C1113.53 616.613 1111.24 616 1108.91 616C1106.58 616 1104.29 616.613 1102.27 617.778L1022.63 665.257C1020.62 666.422 1018.94 668.097 1017.77 670.115C1016.61 672.133 1016 674.422 1016 676.752V767.621C1016 769.951 1016.61 772.24 1017.77 774.257C1018.94 776.275 1020.62 777.951 1022.63 779.115L1102.27 826.594C1104.29 827.759 1106.58 828.372 1108.91 828.372C1111.24 828.372 1113.53 827.759 1115.55 826.594L1195.19 779.115C1197.2 777.951 1198.88 776.275 1200.04 774.257C1201.21 772.24 1201.82 769.951 1201.82 767.621V676.752C1201.82 674.422 1201.21 672.133 1200.04 670.115C1198.88 668.097 1197.2 666.422 1195.19 665.257L1115.55 617.778Z" fill="white" fill-opacity="0.15"/>
<g opacity="0.8">
<path d="M1105.61 775.373L1059.29 748.826V695.733L1105.61 722.28V775.373Z" fill="white"/>
<path d="M1151.94 748.826L1105.62 775.373V722.28L1151.94 695.733V748.826Z" fill="#EBEBEB"/>
<path d="M1105.61 721.744L1059.29 695.333L1105.61 668.922L1151.94 695.333L1105.61 721.744Z" fill="#FBFBFB"/>
<path d="M1105.61 721.897L1061.31 696.863L1059.29 698.012L1105.61 724.176L1151.94 698.012V695.733L1105.61 721.897Z" fill="white"/>
</g>
<path d="M743.652 951.305V1145.27L918.597 1249.61L1091.35 1146.23V950.823L918.597 847.506L743.652 951.305Z" fill="white" fill-opacity="0.15" stroke="white" stroke-width="4"/>
<path d="M1079.25 956.281V1141.26L917.132 1237.9L755.016 1141.26V956.281L917.132 859.632L1079.25 956.281ZM930.642 836.233C926.534 833.862 921.875 832.613 917.132 832.613C912.389 832.613 907.73 833.862 903.622 836.233L741.506 932.882C737.398 935.253 733.988 938.664 731.616 942.771C729.245 946.879 727.996 951.538 727.996 956.281V1141.26C727.996 1146 729.245 1150.66 731.616 1154.77C733.988 1158.87 737.398 1162.28 741.506 1164.65L903.622 1261.3C907.73 1263.67 912.389 1264.92 917.132 1264.92C921.875 1264.92 926.534 1263.67 930.642 1261.3L1092.76 1164.65C1096.87 1162.28 1100.28 1158.87 1102.65 1154.77C1105.02 1150.66 1106.27 1146 1106.27 1141.26V956.281C1106.27 951.538 1105.02 946.879 1102.65 942.771C1100.28 938.664 1096.87 935.253 1092.76 932.882L930.642 836.233Z" fill="white" fill-opacity="0.15"/>
<path d="M870.618 991.732C874.175 991.732 879.376 993.934 882.668 994.794C888.845 977.29 903.786 963 923.419 963C947.45 963 967.092 981.843 968.388 1005.55C969.854 1005.36 971.35 1005.23 972.866 1005.23C991.581 1005.23 1006.74 1020.39 1006.74 1039.1C1006.74 1057.81 991.58 1072.97 972.866 1072.97C958.939 1072.97 892.077 1072.97 870.618 1072.97C848.178 1072.97 829.992 1054.79 829.992 1032.35C829.992 1009.92 848.178 991.732 870.618 991.732Z" fill="white" stroke="white" stroke-width="0.5"/>
<path d="M959.816 1083.35H877.077C874.821 1083.35 873.316 1084.85 873.316 1087.11V1132.24C873.316 1134.5 874.821 1136 877.077 1136H959.816C962.073 1136 963.577 1134.5 963.577 1132.24V1087.11C963.577 1084.85 962.073 1083.35 959.816 1083.35ZM882.719 1117.2C881.966 1117.2 881.214 1117.2 880.838 1117.57V1101.78C881.214 1102.15 881.966 1102.15 882.719 1102.15C887.984 1102.15 892.121 1098.02 892.121 1092.75C892.121 1092 892.121 1091.25 891.745 1090.87H944.773C944.773 1091.25 944.773 1092 944.773 1092.75C944.773 1098.02 948.91 1102.15 954.175 1102.15C954.927 1102.15 955.679 1102.15 956.055 1101.78V1117.2C955.679 1117.2 954.927 1116.82 954.175 1116.82C948.91 1116.82 944.773 1120.96 944.773 1126.22C944.773 1126.97 944.773 1127.73 945.149 1128.1H891.745C892.121 1128.1 892.121 1127.35 892.121 1126.6C892.121 1121.33 887.984 1117.2 882.719 1117.2ZM907.164 1109.67C907.164 1103.28 912.053 1098.39 918.447 1098.39C924.84 1098.39 929.729 1103.28 929.729 1109.67C929.729 1116.07 924.84 1120.96 918.447 1120.96C912.053 1120.96 907.164 1116.07 907.164 1109.67Z" fill="#EBEBEB" stroke="white" stroke-width="0.2"/>
<defs>
<filter id="filter0_d_3007_1207" x="64" y="464" width="389" height="212" filterUnits="userSpaceOnUse" color-interpolation-filters="sRGB">
<feFlood flood-opacity="0" result="BackgroundImageFix"/>
<feColorMatrix in="SourceAlpha" type="matrix" values="0 0 0 0 0 0 0 0 0 0 0 0 0 0 0 0 0 0 127 0" result="hardAlpha"/>
<feOffset dy="16"/>
<feGaussianBlur stdDeviation="20"/>
<feComposite in2="hardAlpha" operator="out"/>
<feColorMatrix type="matrix" values="0 0 0 0 0 0 0 0 0 0 0 0 0 0 0 0 0 0 0.05 0"/>
<feBlend mode="normal" in2="BackgroundImageFix" result="effect1_dropShadow_3007_1207"/>
<feBlend mode="normal" in="SourceGraphic" in2="effect1_dropShadow_3007_1207" result="shape"/>
</filter>
<radialGradient id="paint0_radial_3007_1207" cx="0" cy="0" r="1" gradientUnits="userSpaceOnUse" gradientTransform="translate(-355.2 -322.136) rotate(36.5012) scale(2238.73 3337.02)">
<stop offset="0.120942" stop-color="#321179"/>
<stop offset="1" stop-color="#160E2B"/>
</radialGradient>
</defs>
</svg>
