<svg width="1332" height="1332" viewBox="0 0 1332 1332" fill="none" xmlns="http://www.w3.org/2000/svg">
<rect width="1332" height="1332" fill="url(#paint0_radial_2999_2054)"/>
<path d="M108.5 267V197.182H138.773C144.091 197.182 148.557 197.898 152.17 199.33C155.807 200.761 158.545 202.784 160.386 205.398C162.25 208.011 163.182 211.091 163.182 214.636C163.182 217.205 162.614 219.545 161.477 221.659C160.364 223.773 158.795 225.545 156.773 226.977C154.75 228.386 152.386 229.364 149.682 229.909V230.591C152.682 230.705 155.409 231.466 157.864 232.875C160.318 234.261 162.273 236.182 163.727 238.636C165.182 241.068 165.909 243.932 165.909 247.227C165.909 251.045 164.909 254.443 162.909 257.42C160.932 260.398 158.114 262.739 154.455 264.443C150.795 266.148 146.432 267 141.364 267H108.5ZM127.455 251.864H136.318C139.5 251.864 141.886 251.273 143.477 250.091C145.068 248.886 145.864 247.114 145.864 244.773C145.864 243.136 145.489 241.75 144.739 240.614C143.989 239.477 142.92 238.614 141.534 238.023C140.17 237.432 138.523 237.136 136.591 237.136H127.455V251.864ZM127.455 225.409H135.227C136.886 225.409 138.352 225.148 139.625 224.625C140.898 224.102 141.886 223.352 142.591 222.375C143.318 221.375 143.682 220.159 143.682 218.727C143.682 216.568 142.909 214.92 141.364 213.784C139.818 212.625 137.864 212.045 135.5 212.045H127.455V225.409ZM209.732 244.091V214.636H228.55V267H210.687V257.045H210.141C209.005 260.386 207.016 263 204.175 264.886C201.335 266.75 197.96 267.682 194.05 267.682C190.391 267.682 187.187 266.841 184.437 265.159C181.71 263.477 179.585 261.159 178.062 258.205C176.562 255.25 175.8 251.864 175.778 248.045V214.636H194.596V244.091C194.619 246.682 195.278 248.716 196.573 250.193C197.891 251.67 199.732 252.409 202.096 252.409C203.664 252.409 205.016 252.08 206.153 251.42C207.312 250.739 208.198 249.784 208.812 248.557C209.448 247.307 209.755 245.818 209.732 244.091ZM241.001 267V214.636H259.82V267H241.001ZM250.411 209.182C247.865 209.182 245.683 208.341 243.865 206.659C242.047 204.977 241.138 202.955 241.138 200.591C241.138 198.227 242.047 196.205 243.865 194.523C245.683 192.841 247.865 192 250.411 192C252.979 192 255.161 192.841 256.956 194.523C258.774 196.205 259.683 198.227 259.683 200.591C259.683 202.955 258.774 204.977 256.956 206.659C255.161 208.341 252.979 209.182 250.411 209.182ZM291.106 197.182V267H272.288V197.182H291.106ZM322.529 267.682C318.801 267.682 315.369 266.705 312.233 264.75C309.119 262.795 306.619 259.83 304.733 255.852C302.869 251.875 301.938 246.864 301.938 240.818C301.938 234.5 302.915 229.364 304.869 225.409C306.847 221.455 309.392 218.557 312.506 216.716C315.642 214.875 318.938 213.955 322.392 213.955C324.983 213.955 327.256 214.409 329.21 215.318C331.165 216.205 332.801 217.398 334.119 218.898C335.438 220.375 336.438 222 337.119 223.773H337.392V197.182H356.21V267H337.529V258.409H337.119C336.392 260.182 335.347 261.773 333.983 263.182C332.642 264.568 331.006 265.67 329.074 266.489C327.165 267.284 324.983 267.682 322.529 267.682ZM329.483 253.227C331.21 253.227 332.688 252.727 333.915 251.727C335.165 250.705 336.119 249.273 336.779 247.432C337.46 245.568 337.801 243.364 337.801 240.818C337.801 238.227 337.46 236.011 336.779 234.17C336.119 232.307 335.165 230.886 333.915 229.909C332.688 228.909 331.21 228.409 329.483 228.409C327.756 228.409 326.279 228.909 325.051 229.909C323.847 230.886 322.915 232.307 322.256 234.17C321.619 236.011 321.301 238.227 321.301 240.818C321.301 243.409 321.619 245.636 322.256 247.5C322.915 249.341 323.847 250.761 325.051 251.761C326.279 252.739 327.756 253.227 329.483 253.227ZM408.198 267H387.743L410.789 197.182H436.698L459.743 267H439.289L424.016 216.409H423.47L408.198 267ZM404.379 239.455H442.834V253.636H404.379V239.455ZM488.302 197.182V267H469.348V197.182H488.302ZM540.306 267H519.852L542.897 197.182H568.806L591.852 267H571.397L556.125 216.409H555.579L540.306 267ZM536.488 239.455H574.943V253.636H536.488V239.455ZM601.729 286.636V214.636H620.411V223.773H620.82C621.502 222 622.502 220.375 623.82 218.898C625.138 217.398 626.774 216.205 628.729 215.318C630.684 214.409 632.956 213.955 635.547 213.955C639.002 213.955 642.286 214.875 645.399 216.716C648.536 218.557 651.081 221.455 653.036 225.409C655.013 229.364 656.002 234.5 656.002 240.818C656.002 246.864 655.059 251.875 653.172 255.852C651.309 259.83 648.809 262.795 645.672 264.75C642.559 266.705 639.138 267.682 635.411 267.682C632.956 267.682 630.763 267.284 628.831 266.489C626.922 265.67 625.286 264.568 623.922 263.182C622.581 261.773 621.547 260.182 620.82 258.409H620.547V286.636H601.729ZM620.138 240.818C620.138 243.364 620.468 245.568 621.127 247.432C621.809 249.273 622.763 250.705 623.99 251.727C625.24 252.727 626.729 253.227 628.456 253.227C630.184 253.227 631.649 252.739 632.854 251.761C634.081 250.761 635.013 249.341 635.649 247.5C636.309 245.636 636.638 243.409 636.638 240.818C636.638 238.227 636.309 236.011 635.649 234.17C635.013 232.307 634.081 230.886 632.854 229.909C631.649 228.909 630.184 228.409 628.456 228.409C626.729 228.409 625.24 228.909 623.99 229.909C622.763 230.886 621.809 232.307 621.127 234.17C620.468 236.011 620.138 238.227 620.138 240.818ZM666.765 286.636V214.636H685.447V223.773H685.856C686.538 222 687.538 220.375 688.856 218.898C690.174 217.398 691.811 216.205 693.765 215.318C695.72 214.409 697.992 213.955 700.583 213.955C704.038 213.955 707.322 214.875 710.436 216.716C713.572 218.557 716.117 221.455 718.072 225.409C720.049 229.364 721.038 234.5 721.038 240.818C721.038 246.864 720.095 251.875 718.208 255.852C716.345 259.83 713.845 262.795 710.708 264.75C707.595 266.705 704.174 267.682 700.447 267.682C697.992 267.682 695.799 267.284 693.867 266.489C691.958 265.67 690.322 264.568 688.958 263.182C687.617 261.773 686.583 260.182 685.856 258.409H685.583V286.636H666.765ZM685.174 240.818C685.174 243.364 685.504 245.568 686.163 247.432C686.845 249.273 687.799 250.705 689.027 251.727C690.277 252.727 691.765 253.227 693.492 253.227C695.22 253.227 696.686 252.739 697.89 251.761C699.117 250.761 700.049 249.341 700.686 247.5C701.345 245.636 701.674 243.409 701.674 240.818C701.674 238.227 701.345 236.011 700.686 234.17C700.049 232.307 699.117 230.886 697.89 229.909C696.686 228.909 695.22 228.409 693.492 228.409C691.765 228.409 690.277 228.909 689.027 229.909C687.799 230.886 686.845 232.307 686.163 234.17C685.504 236.011 685.174 238.227 685.174 240.818ZM779.665 231.682H762.347C762.256 230.614 761.881 229.693 761.222 228.92C760.563 228.148 759.711 227.557 758.665 227.148C757.642 226.716 756.506 226.5 755.256 226.5C753.642 226.5 752.256 226.795 751.097 227.386C749.938 227.977 749.37 228.818 749.392 229.909C749.37 230.682 749.699 231.398 750.381 232.057C751.086 232.716 752.438 233.227 754.438 233.591L765.074 235.5C770.438 236.477 774.426 238.125 777.04 240.443C779.676 242.739 781.006 245.818 781.029 249.682C781.006 253.409 779.892 256.648 777.688 259.398C775.506 262.125 772.517 264.239 768.722 265.739C764.949 267.216 760.642 267.955 755.801 267.955C747.801 267.955 741.54 266.318 737.017 263.045C732.517 259.773 730.006 255.455 729.483 250.091H748.165C748.415 251.75 749.233 253.034 750.62 253.943C752.029 254.83 753.801 255.273 755.938 255.273C757.665 255.273 759.086 254.977 760.199 254.386C761.336 253.795 761.915 252.955 761.938 251.864C761.915 250.864 761.415 250.068 760.438 249.477C759.483 248.886 757.983 248.409 755.938 248.045L746.665 246.409C741.324 245.477 737.324 243.705 734.665 241.091C732.006 238.477 730.688 235.114 730.711 231C730.688 227.364 731.642 224.284 733.574 221.761C735.529 219.216 738.313 217.284 741.926 215.966C745.563 214.625 749.87 213.955 754.847 213.955C762.415 213.955 768.381 215.523 772.745 218.659C777.131 221.795 779.438 226.136 779.665 231.682ZM118.045 387L104.955 334.636H123.773L129.773 366.545H130.182L136.864 334.636H155.136L162.091 366.273H162.5L168.227 334.636H187.045L173.955 387H153.636L146.273 358.909H145.727L138.364 387H118.045ZM195.653 387V334.636H214.471V387H195.653ZM205.062 329.182C202.516 329.182 200.335 328.341 198.516 326.659C196.698 324.977 195.789 322.955 195.789 320.591C195.789 318.227 196.698 316.205 198.516 314.523C200.335 312.841 202.516 312 205.062 312C207.63 312 209.812 312.841 211.607 314.523C213.425 316.205 214.335 318.227 214.335 320.591C214.335 322.955 213.425 324.977 211.607 326.659C209.812 328.341 207.63 329.182 205.062 329.182ZM258.166 334.636V348.273H223.666V334.636H258.166ZM230.348 322.091H249.166V370.159C249.166 370.886 249.291 371.5 249.541 372C249.791 372.477 250.178 372.841 250.7 373.091C251.223 373.318 251.894 373.432 252.712 373.432C253.28 373.432 253.939 373.364 254.689 373.227C255.462 373.091 256.03 372.977 256.394 372.886L259.121 386.114C258.28 386.364 257.075 386.67 255.507 387.034C253.962 387.398 252.121 387.636 249.984 387.75C245.666 387.977 242.041 387.534 239.109 386.42C236.178 385.284 233.973 383.5 232.496 381.068C231.019 378.636 230.303 375.591 230.348 371.932V322.091ZM288.668 357.545V387H269.85V317.182H287.987V344.591H288.532C289.714 341.25 291.68 338.648 294.43 336.784C297.18 334.898 300.487 333.955 304.35 333.955C308.055 333.955 311.271 334.795 313.998 336.477C316.748 338.159 318.873 340.477 320.373 343.432C321.896 346.386 322.646 349.773 322.623 353.591V387H303.805V357.545C303.828 354.955 303.18 352.92 301.862 351.443C300.566 349.966 298.714 349.227 296.305 349.227C294.782 349.227 293.441 349.568 292.282 350.25C291.146 350.909 290.259 351.864 289.623 353.114C289.009 354.341 288.691 355.818 288.668 357.545ZM356.525 387V317.182H386.661C391.843 317.182 396.377 318.205 400.264 320.25C404.15 322.295 407.173 325.17 409.332 328.875C411.491 332.58 412.57 336.909 412.57 341.864C412.57 346.864 411.457 351.193 409.23 354.852C407.025 358.511 403.923 361.33 399.923 363.307C395.945 365.284 391.298 366.273 385.98 366.273H367.98V351.545H382.161C384.389 351.545 386.286 351.159 387.855 350.386C389.445 349.591 390.661 348.466 391.502 347.011C392.366 345.557 392.798 343.841 392.798 341.864C392.798 339.864 392.366 338.159 391.502 336.75C390.661 335.318 389.445 334.227 387.855 333.477C386.286 332.705 384.389 332.318 382.161 332.318H375.48V387H356.525ZM434.925 387.818C431.584 387.818 428.629 387.273 426.061 386.182C423.516 385.068 421.516 383.386 420.061 381.136C418.607 378.886 417.879 376.023 417.879 372.545C417.879 369.682 418.368 367.239 419.345 365.216C420.323 363.17 421.686 361.5 423.436 360.205C425.186 358.909 427.22 357.92 429.539 357.239C431.879 356.557 434.402 356.114 437.107 355.909C440.039 355.682 442.391 355.409 444.164 355.091C445.959 354.75 447.254 354.284 448.05 353.693C448.845 353.08 449.243 352.273 449.243 351.273V351.136C449.243 349.773 448.72 348.727 447.675 348C446.629 347.273 445.289 346.909 443.652 346.909C441.857 346.909 440.391 347.307 439.254 348.102C438.141 348.875 437.47 350.068 437.243 351.682H419.925C420.152 348.5 421.164 345.568 422.959 342.886C424.777 340.182 427.425 338.023 430.902 336.409C434.379 334.773 438.72 333.955 443.925 333.955C447.675 333.955 451.039 334.398 454.016 335.284C456.993 336.148 459.527 337.364 461.618 338.932C463.709 340.477 465.3 342.295 466.391 344.386C467.504 346.455 468.061 348.705 468.061 351.136V387H450.47V379.636H450.061C449.016 381.591 447.743 383.17 446.243 384.375C444.766 385.58 443.073 386.455 441.164 387C439.277 387.545 437.198 387.818 434.925 387.818ZM441.061 375.955C442.493 375.955 443.834 375.659 445.084 375.068C446.357 374.477 447.391 373.625 448.186 372.511C448.982 371.398 449.379 370.045 449.379 368.455V364.091C448.879 364.295 448.345 364.489 447.777 364.67C447.232 364.852 446.641 365.023 446.004 365.182C445.391 365.341 444.732 365.489 444.027 365.625C443.345 365.761 442.629 365.886 441.879 366C440.425 366.227 439.232 366.602 438.3 367.125C437.391 367.625 436.709 368.25 436.254 369C435.823 369.727 435.607 370.545 435.607 371.455C435.607 372.909 436.118 374.023 437.141 374.795C438.164 375.568 439.47 375.955 441.061 375.955ZM479.933 387V334.636H498.205V344.591H498.751C499.705 340.909 501.217 338.216 503.285 336.511C505.376 334.807 507.819 333.955 510.615 333.955C511.433 333.955 512.24 334.023 513.035 334.159C513.853 334.273 514.637 334.443 515.387 334.67V350.727C514.455 350.409 513.308 350.17 511.944 350.011C510.58 349.852 509.41 349.773 508.433 349.773C506.592 349.773 504.933 350.193 503.455 351.034C502.001 351.852 500.853 353.011 500.012 354.511C499.171 355.989 498.751 357.727 498.751 359.727V387H479.933ZM557.821 334.636V348.273H523.321V334.636H557.821ZM530.003 322.091H548.821V370.159C548.821 370.886 548.946 371.5 549.196 372C549.446 372.477 549.833 372.841 550.355 373.091C550.878 373.318 551.549 373.432 552.367 373.432C552.935 373.432 553.594 373.364 554.344 373.227C555.117 373.091 555.685 372.977 556.049 372.886L558.776 386.114C557.935 386.364 556.73 386.67 555.162 387.034C553.617 387.398 551.776 387.636 549.639 387.75C545.321 387.977 541.696 387.534 538.764 386.42C535.833 385.284 533.628 383.5 532.151 381.068C530.674 378.636 529.958 375.591 530.003 371.932V322.091ZM579.835 406.636C577.676 406.636 575.619 406.466 573.664 406.125C571.71 405.807 569.994 405.364 568.517 404.795L572.608 391.432C574.153 391.977 575.562 392.33 576.835 392.489C578.13 392.648 579.233 392.557 580.142 392.216C581.073 391.875 581.744 391.227 582.153 390.273L582.562 389.318L564.153 334.636H583.789L592.244 370.909H592.789L601.38 334.636H621.153L602.062 391.364C601.108 394.25 599.721 396.841 597.903 399.136C596.108 401.455 593.744 403.284 590.812 404.625C587.88 405.966 584.221 406.636 579.835 406.636ZM629.112 387V317.182H659.249C664.431 317.182 668.965 318.125 672.851 320.011C676.737 321.898 679.76 324.614 681.919 328.159C684.078 331.705 685.158 335.955 685.158 340.909C685.158 345.909 684.044 350.125 681.817 353.557C679.612 356.989 676.51 359.58 672.51 361.33C668.533 363.08 663.885 363.955 658.567 363.955H640.567V349.227H654.749C656.976 349.227 658.874 348.955 660.442 348.409C662.033 347.841 663.249 346.943 664.09 345.716C664.953 344.489 665.385 342.886 665.385 340.909C665.385 338.909 664.953 337.284 664.09 336.034C663.249 334.761 662.033 333.83 660.442 333.239C658.874 332.625 656.976 332.318 654.749 332.318H648.067V387H629.112ZM670.022 354.955L687.476 387H666.885L649.84 354.955H670.022ZM720.492 387.955C714.811 387.955 709.947 386.83 705.902 384.58C701.856 382.307 698.754 379.148 696.595 375.102C694.436 371.034 693.356 366.318 693.356 360.955C693.356 355.591 694.436 350.886 696.595 346.841C698.754 342.773 701.856 339.614 705.902 337.364C709.947 335.091 714.811 333.955 720.492 333.955C726.174 333.955 731.038 335.091 735.083 337.364C739.129 339.614 742.231 342.773 744.39 346.841C746.549 350.886 747.629 355.591 747.629 360.955C747.629 366.318 746.549 371.034 744.39 375.102C742.231 379.148 739.129 382.307 735.083 384.58C731.038 386.83 726.174 387.955 720.492 387.955ZM720.629 374.045C722.22 374.045 723.595 373.511 724.754 372.443C725.913 371.375 726.811 369.852 727.447 367.875C728.083 365.898 728.402 363.545 728.402 360.818C728.402 358.068 728.083 355.716 727.447 353.761C726.811 351.784 725.913 350.261 724.754 349.193C723.595 348.125 722.22 347.591 720.629 347.591C718.947 347.591 717.504 348.125 716.299 349.193C715.095 350.261 714.174 351.784 713.538 353.761C712.902 355.716 712.583 358.068 712.583 360.818C712.583 363.545 712.902 365.898 713.538 367.875C714.174 369.852 715.095 371.375 716.299 372.443C717.504 373.511 718.947 374.045 720.629 374.045ZM783.372 387.955C777.691 387.955 772.827 386.83 768.782 384.58C764.736 382.307 761.634 379.148 759.475 375.102C757.316 371.034 756.236 366.318 756.236 360.955C756.236 355.591 757.316 350.886 759.475 346.841C761.634 342.773 764.736 339.614 768.782 337.364C772.827 335.091 777.691 333.955 783.372 333.955C788.509 333.955 792.952 334.886 796.702 336.75C800.475 338.591 803.395 341.205 805.463 344.591C807.532 347.955 808.577 351.909 808.6 356.455H791.145C790.895 353.705 790.1 351.614 788.759 350.182C787.441 348.727 785.736 348 783.645 348C782.009 348 780.577 348.477 779.35 349.432C778.122 350.364 777.168 351.784 776.486 353.693C775.804 355.58 775.463 357.955 775.463 360.818C775.463 363.682 775.804 366.068 776.486 367.977C777.168 369.864 778.122 371.284 779.35 372.239C780.577 373.17 782.009 373.636 783.645 373.636C785.032 373.636 786.259 373.318 787.327 372.682C788.395 372.023 789.259 371.068 789.918 369.818C790.6 368.545 791.009 367 791.145 365.182H808.6C808.532 369.795 807.475 373.818 805.429 377.25C803.384 380.659 800.486 383.295 796.736 385.159C793.009 387.023 788.554 387.955 783.372 387.955ZM836.153 374.591L836.289 352.227H838.744L851.426 334.636H872.562L851.289 362.045H845.971L836.153 374.591ZM819.244 387V317.182H838.062V387H819.244ZM851.562 387L839.562 366.273L851.835 352.909L873.108 387H851.562Z" fill="white"/>
<path d="M1023.7 674.308V769.591L1109.64 820.849L1194.5 770.065V674.071L1109.64 623.316L1023.7 674.308Z" fill="white" fill-opacity="0.15" stroke="white" stroke-width="4"/>
<path d="M1188.55 676.752V767.621L1108.91 815.099L1029.27 767.621V676.752L1108.91 629.273L1188.55 676.752ZM1115.55 617.778C1113.53 616.613 1111.24 616 1108.91 616C1106.58 616 1104.29 616.613 1102.28 617.778L1022.64 665.257C1020.62 666.422 1018.94 668.097 1017.78 670.115C1016.61 672.133 1016 674.422 1016 676.752V767.621C1016 769.951 1016.61 772.24 1017.78 774.257C1018.94 776.275 1020.62 777.951 1022.64 779.115L1102.28 826.594C1104.29 827.759 1106.58 828.372 1108.91 828.372C1111.24 828.372 1113.53 827.759 1115.55 826.594L1195.19 779.115C1197.21 777.951 1198.88 776.275 1200.05 774.257C1201.21 772.24 1201.83 769.951 1201.83 767.621V676.752C1201.83 674.422 1201.21 672.133 1200.05 670.115C1198.88 668.097 1197.21 666.422 1195.19 665.257L1115.55 617.778Z" fill="white" fill-opacity="0.15"/>
<g opacity="0.8">
<path d="M1105.62 775.373L1059.3 748.826V695.733L1105.62 722.28V775.373Z" fill="white"/>
<path d="M1151.95 748.826L1105.62 775.373V722.28L1151.95 695.733V748.826Z" fill="#EBEBEB"/>
<path d="M1105.62 721.744L1059.3 695.333L1105.62 668.922L1151.94 695.333L1105.62 721.744Z" fill="#FBFBFB"/>
<path d="M1105.62 721.897L1061.31 696.863L1059.3 698.012L1105.62 724.176L1151.94 698.012V695.733L1105.62 721.897Z" fill="white"/>
</g>
<path d="M743.656 951.305V1145.27L918.601 1249.61L1091.36 1146.23V950.823L918.601 847.506L743.656 951.305Z" fill="white" fill-opacity="0.15" stroke="white" stroke-width="4"/>
<path d="M1079.25 956.281V1141.26L917.136 1237.9L755.019 1141.26V956.281L917.136 859.632L1079.25 956.281ZM930.646 836.233C926.538 833.862 921.879 832.613 917.136 832.613C912.393 832.613 907.734 833.862 903.626 836.233L741.51 932.882C737.402 935.253 733.992 938.664 731.62 942.771C729.249 946.879 728 951.538 728 956.281V1141.26C728 1146 729.249 1150.66 731.62 1154.77C733.992 1158.87 737.402 1162.28 741.51 1164.65L903.626 1261.3C907.734 1263.67 912.393 1264.92 917.136 1264.92C921.879 1264.92 926.538 1263.67 930.646 1261.3L1092.76 1164.65C1096.87 1162.28 1100.28 1158.87 1102.65 1154.77C1105.02 1150.66 1106.27 1146 1106.27 1141.26V956.281C1106.27 951.538 1105.02 946.879 1102.65 942.771C1100.28 938.664 1096.87 935.253 1092.76 932.882L930.646 836.233Z" fill="white" fill-opacity="0.15"/>
<path d="M990.201 1053.96C984.189 1040.42 976.287 1010.4 969.212 1000.32C958.187 984.644 940.07 975 920.402 975H899.127C868.678 975 844 999.677 844 1030.12C844 1046.43 851.121 1061.05 862.376 1071.12V1122H935.878L935.877 1103.62H954.249C964.396 1103.62 972.367 1095.4 972.367 1085.51V1066.88H981.549C988.449 1066.88 992.9 1060.04 990.201 1053.96ZM949.66 1043.91H946.18C937.994 1043.91 933.894 1053.8 939.682 1059.59L942.145 1062.05C943.939 1063.85 943.939 1066.76 942.145 1068.55C941.247 1069.44 940.072 1069.89 938.897 1069.89C937.723 1069.89 936.546 1069.45 935.65 1068.55L933.188 1066.09C927.399 1060.3 917.502 1064.4 917.502 1072.58V1076.06C917.502 1078.6 915.448 1080.66 912.909 1080.66C910.369 1080.66 908.315 1078.6 908.315 1076.06V1072.58C908.315 1064.4 898.418 1060.3 892.629 1066.09L890.167 1068.55C889.27 1069.44 888.094 1069.89 886.92 1069.89C885.744 1069.89 884.569 1069.45 883.672 1068.55C881.878 1066.75 881.878 1063.84 883.672 1062.05L886.135 1059.59C891.92 1053.81 887.814 1043.91 879.631 1043.91H876.157C873.618 1043.91 871.563 1041.85 871.563 1039.31C871.563 1036.77 873.618 1034.72 876.157 1034.72H879.631C887.817 1034.72 891.917 1024.82 886.129 1019.03L883.68 1016.57C881.885 1014.78 881.885 1011.87 883.68 1010.08C885.474 1008.29 888.383 1008.28 890.177 1010.08L892.638 1012.53C898.426 1018.31 908.323 1014.21 908.323 1006.03V1002.56C908.323 1000.02 910.378 997.969 912.917 997.969C915.456 997.969 917.502 1000.02 917.502 1002.56V1006.04C917.502 1014.23 927.399 1018.33 933.188 1012.54L935.65 1010.08C937.445 1008.28 940.353 1008.28 942.148 1010.08C943.942 1011.87 943.942 1014.78 942.148 1016.57L939.697 1019.04C933.897 1024.81 938.003 1034.72 946.186 1034.72L949.665 1034.72C952.205 1034.72 954.001 1036.77 954.001 1039.31C954.001 1041.85 952.186 1043.91 949.66 1043.91Z" fill="white"/>
<g filter="url(#filter0_d_2999_2054)">
<rect x="104.008" y="488" width="309" height="132" rx="40" fill="white" shape-rendering="crispEdges"/>
<path d="M200.024 544.449H189.399C189.096 542.706 188.537 541.163 187.723 539.818C186.909 538.455 185.895 537.299 184.683 536.352C183.471 535.405 182.089 534.695 180.536 534.222C179.001 533.729 177.344 533.483 175.564 533.483C172.401 533.483 169.598 534.278 167.155 535.869C164.712 537.441 162.799 539.752 161.416 542.801C160.034 545.831 159.342 549.534 159.342 553.909C159.342 558.36 160.034 562.11 161.416 565.159C162.818 568.189 164.731 570.481 167.155 572.034C169.598 573.568 172.392 574.335 175.536 574.335C177.278 574.335 178.907 574.108 180.422 573.653C181.956 573.18 183.329 572.489 184.541 571.58C185.772 570.67 186.804 569.553 187.638 568.227C188.49 566.902 189.077 565.386 189.399 563.682L200.024 563.739C199.626 566.504 198.765 569.098 197.439 571.523C196.132 573.947 194.418 576.087 192.297 577.943C190.176 579.78 187.695 581.22 184.854 582.261C182.013 583.284 178.859 583.795 175.393 583.795C170.28 583.795 165.715 582.612 161.7 580.244C157.685 577.877 154.522 574.458 152.212 569.989C149.901 565.519 148.746 560.159 148.746 553.909C148.746 547.64 149.911 542.28 152.24 537.83C154.57 533.36 157.742 529.941 161.757 527.574C165.772 525.206 170.318 524.023 175.393 524.023C178.632 524.023 181.643 524.477 184.428 525.386C187.212 526.295 189.693 527.631 191.871 529.392C194.049 531.134 195.839 533.275 197.24 535.812C198.661 538.331 199.589 541.21 200.024 544.449ZM219.506 524.818V583H209.222V524.818H219.506ZM249.115 583.852C244.854 583.852 241.161 582.915 238.036 581.04C234.911 579.165 232.486 576.542 230.763 573.17C229.058 569.799 228.206 565.86 228.206 561.352C228.206 556.845 229.058 552.896 230.763 549.506C232.486 546.116 234.911 543.483 238.036 541.608C241.161 539.733 244.854 538.795 249.115 538.795C253.376 538.795 257.07 539.733 260.195 541.608C263.32 543.483 265.734 546.116 267.439 549.506C269.162 552.896 270.024 556.845 270.024 561.352C270.024 565.86 269.162 569.799 267.439 573.17C265.734 576.542 263.32 579.165 260.195 581.04C257.07 582.915 253.376 583.852 249.115 583.852ZM249.172 575.614C251.482 575.614 253.414 574.979 254.967 573.71C256.52 572.422 257.676 570.699 258.433 568.54C259.21 566.381 259.598 563.975 259.598 561.324C259.598 558.653 259.21 556.239 258.433 554.08C257.676 551.902 256.52 550.169 254.967 548.881C253.414 547.593 251.482 546.949 249.172 546.949C246.804 546.949 244.835 547.593 243.263 548.881C241.71 550.169 240.545 551.902 239.768 554.08C239.011 556.239 238.632 558.653 238.632 561.324C238.632 563.975 239.011 566.381 239.768 568.54C240.545 570.699 241.71 572.422 243.263 573.71C244.835 574.979 246.804 575.614 249.172 575.614ZM306.565 564.648V539.364H316.849V583H306.878V575.244H306.423C305.438 577.687 303.819 579.686 301.565 581.239C299.33 582.792 296.575 583.568 293.298 583.568C290.438 583.568 287.91 582.934 285.713 581.665C283.535 580.377 281.83 578.511 280.599 576.068C279.368 573.606 278.753 570.633 278.753 567.148V539.364H289.037V565.557C289.037 568.322 289.795 570.519 291.31 572.148C292.825 573.777 294.813 574.591 297.276 574.591C298.791 574.591 300.259 574.222 301.679 573.483C303.099 572.744 304.264 571.646 305.173 570.188C306.101 568.71 306.565 566.864 306.565 564.648ZM343.618 583.767C340.19 583.767 337.122 582.886 334.413 581.125C331.705 579.364 329.565 576.807 327.993 573.455C326.421 570.102 325.635 566.03 325.635 561.239C325.635 556.39 326.43 552.299 328.021 548.966C329.631 545.614 331.8 543.085 334.527 541.381C337.254 539.657 340.294 538.795 343.646 538.795C346.203 538.795 348.305 539.231 349.953 540.102C351.601 540.955 352.908 541.987 353.874 543.199C354.839 544.392 355.588 545.519 356.118 546.58H356.544V524.818H366.857V583H356.743V576.125H356.118C355.588 577.186 354.821 578.312 353.817 579.506C352.813 580.68 351.487 581.684 349.839 582.517C348.192 583.35 346.118 583.767 343.618 583.767ZM346.487 575.33C348.665 575.33 350.521 574.742 352.055 573.568C353.589 572.375 354.754 570.718 355.55 568.597C356.345 566.475 356.743 564.004 356.743 561.182C356.743 558.36 356.345 555.907 355.55 553.824C354.773 551.741 353.618 550.121 352.084 548.966C350.569 547.811 348.703 547.233 346.487 547.233C344.196 547.233 342.283 547.83 340.749 549.023C339.214 550.216 338.059 551.864 337.283 553.966C336.506 556.068 336.118 558.473 336.118 561.182C336.118 563.909 336.506 566.343 337.283 568.483C338.078 570.604 339.243 572.28 340.777 573.511C342.33 574.723 344.233 575.33 346.487 575.33Z" fill="#FF9900"/>
</g>
<defs>
<filter id="filter0_d_2999_2054" x="64.0078" y="464" width="389" height="212" filterUnits="userSpaceOnUse" color-interpolation-filters="sRGB">
<feFlood flood-opacity="0" result="BackgroundImageFix"/>
<feColorMatrix in="SourceAlpha" type="matrix" values="0 0 0 0 0 0 0 0 0 0 0 0 0 0 0 0 0 0 127 0" result="hardAlpha"/>
<feOffset dy="16"/>
<feGaussianBlur stdDeviation="20"/>
<feComposite in2="hardAlpha" operator="out"/>
<feColorMatrix type="matrix" values="0 0 0 0 0 0 0 0 0 0 0 0 0 0 0 0 0 0 0.05 0"/>
<feBlend mode="normal" in2="BackgroundImageFix" result="effect1_dropShadow_2999_2054"/>
<feBlend mode="normal" in="SourceGraphic" in2="effect1_dropShadow_2999_2054" result="shape"/>
</filter>
<radialGradient id="paint0_radial_2999_2054" cx="0" cy="0" r="1" gradientUnits="userSpaceOnUse" gradientTransform="translate(-355.2 -322.136) rotate(36.5012) scale(2238.73 3337.02)">
<stop offset="0.120942" stop-color="#321179"/>
<stop offset="1" stop-color="#160E2B"/>
</radialGradient>
</defs>
</svg>
