<svg width="66" height="66" viewBox="0 0 66 66" fill="none" xmlns="http://www.w3.org/2000/svg">
<path d="M58.0345 1.13777C56.2237 1.13777 54.4871 1.85701 53.2066 3.13725C51.9262 4.41749 51.2069 6.15387 51.2069 7.96441V62.5775C51.2349 63.1484 51.0369 63.7074 50.6556 64.1333C50.2743 64.5592 49.7406 64.8178 49.17 64.853H10.0024C9.43182 64.8178 8.89809 64.5592 8.51683 64.1333C8.13557 63.7074 7.93748 63.1484 7.96551 62.5775V56.8886H38.6896L7.96551 33.6212V7.96441C7.96551 6.15387 8.68483 4.41749 9.96525 3.13725C11.2457 1.85701 12.9823 1.13777 14.7931 1.13777H58.0345Z" fill="#E3E7F2"/>
<path d="M47.7944 1.13777H14.7944C12.9836 1.13777 11.247 1.85701 9.96654 3.13725C8.68612 4.41749 7.9668 6.15387 7.9668 7.96441V33.6212L38.6909 56.8886H7.9668V61.4397H40.9668C42.7776 61.4397 44.5142 60.7205 45.7946 59.4402C47.075 58.16 47.7944 56.4236 47.7944 54.6131V6.82663C47.7944 5.31785 48.3938 3.87087 49.4608 2.80401C50.5279 1.73714 51.975 1.13777 53.484 1.13777H47.7944Z" fill="#E3E7F2"/>
<path d="M47.7944 1.13777H14.7944C12.9836 1.13777 11.247 1.85701 9.96654 3.13725C8.68612 4.41749 7.9668 6.15387 7.9668 7.96441V33.6212L38.6909 56.8886H7.9668V61.4397H40.9668C42.7776 61.4397 44.5142 60.7205 45.7946 59.4402C47.075 58.16 47.7944 56.4236 47.7944 54.6131V6.82663C47.7944 5.31785 48.3938 3.87087 49.4608 2.80401C50.5279 1.73714 51.975 1.13777 53.484 1.13777H47.7944Z" fill="#F5F5F5"/>
<path d="M38.6904 56.8886H1.13867V28.4443L1.99212 29.0928L7.96625 33.6212L33.8428 53.2136L38.6904 56.8886Z" fill="#E3E7F2"/>
<path d="M33.843 53.2137C33.6669 53.6361 33.3674 53.9957 32.9838 54.2454C32.6001 54.495 32.15 54.6232 31.6923 54.6131H3.49443C2.86971 54.6131 2.27057 54.365 1.82882 53.9233C1.38708 53.4816 1.1389 52.8826 1.1389 52.2579V30.902C1.13395 30.5553 1.20828 30.2122 1.35619 29.8986C1.5041 29.5851 1.72168 29.3095 1.99235 29.0929L7.96649 33.644L33.843 53.2137Z" fill="#F5F7FF"/>
<path d="M7.9668 50.062V42.1317L18.2765 50.062H7.9668Z" fill="#E3E7F2"/>
<path d="M64.8591 32.0624V59.5965L62.4581 64.2386C62.3626 64.4249 62.2175 64.5814 62.0388 64.6906C61.8601 64.7998 61.6547 64.8576 61.4453 64.8576C61.2358 64.8576 61.0305 64.7998 60.8518 64.6906C60.6731 64.5814 60.528 64.4249 60.4325 64.2386L60.2505 63.8972L57.9746 59.5965V32.0624H64.8591Z" fill="#E4E7F1"/>
<path d="M62.5849 32.0624V59.3917L60.2522 63.8973L58.0332 59.5965V32.0624H62.5849Z" fill="#F5F7FF"/>
<path d="M64.8608 27.2497V32.0625H58.0332V27.2497C58.043 26.3566 58.4025 25.5029 59.0346 24.8717C59.6779 24.2398 60.5452 23.888 61.447 23.8933C62.3426 23.8931 63.2024 24.2449 63.841 24.8728C64.4796 25.5007 64.8459 26.3543 64.8608 27.2497Z" fill="#E4E7F1"/>
<path d="M62.5861 28.1827V32.9955H56.8965V27.3066C56.898 26.649 57.0457 26 57.3289 25.4065C57.8266 25.0983 58.3938 24.9201 58.9784 24.8883C59.563 24.8565 60.1462 24.9721 60.6744 25.2245C61.2367 25.491 61.7135 25.9091 62.0512 26.4317C62.3889 26.9542 62.5741 27.5606 62.5861 28.1827Z" fill="#F5F7FF"/>
<path d="M64.8602 7.96439V10.2399C64.8602 10.8434 64.6205 11.4222 64.1937 11.849C63.7669 12.2757 63.188 12.5155 62.5844 12.5155H51.2051V7.96439C51.2022 6.84027 51.477 5.73283 52.005 4.7404C52.533 3.74798 53.298 2.90129 54.232 2.27553C55.3556 1.52276 56.6802 1.12625 58.0327 1.13776C59.8435 1.13776 61.5801 1.85699 62.8605 3.13723C64.1409 4.41748 64.8602 6.15385 64.8602 7.96439Z" fill="#F5F7FF"/>
<path d="M4.55246 51.1998C4.55246 51.5015 4.43259 51.7909 4.21919 52.0043C4.00578 52.2176 3.71633 52.3375 3.41453 52.3375H1.13867V50.062H3.41453C3.71633 50.062 4.00578 50.1819 4.21919 50.3952C4.43259 50.6086 4.55246 50.898 4.55246 51.1998Z" fill="#EB7F58"/>
<path d="M4.55246 46.6487C4.55246 46.9504 4.43259 47.2398 4.21919 47.4532C4.00578 47.6666 3.71633 47.7865 3.41453 47.7865H1.13867V45.5109H3.41453C3.71633 45.5109 4.00578 45.6308 4.21919 45.8442C4.43259 46.0575 4.55246 46.3469 4.55246 46.6487Z" fill="#EB7F58"/>
<path d="M4.55246 42.0976C4.55246 42.3993 4.43259 42.6887 4.21919 42.9021C4.00578 43.1155 3.71633 43.2354 3.41453 43.2354H1.13867V40.9598H3.41453C3.71633 40.9598 4.00578 41.0797 4.21919 41.2931C4.43259 41.5064 4.55246 41.7958 4.55246 42.0976Z" fill="#EB7F58"/>
<path d="M4.55246 37.5465C4.55246 37.8483 4.43259 38.1377 4.21919 38.351C4.00578 38.5644 3.71633 38.6843 3.41453 38.6843H1.13867V36.4087H3.41453C3.71633 36.4087 4.00578 36.5286 4.21919 36.742C4.43259 36.9553 4.55246 37.2447 4.55246 37.5465Z" fill="#EB7F58"/>
<path d="M4.55246 51.1998C4.55246 51.5015 4.43259 51.7909 4.21919 52.0043C4.00578 52.2176 3.71633 52.3375 3.41453 52.3375H1.13867V50.062H3.41453C3.71633 50.062 4.00578 50.1819 4.21919 50.3952C4.43259 50.6086 4.55246 50.898 4.55246 51.1998Z" fill="#EB7F58"/>
<path d="M4.55246 46.6487C4.55246 46.9504 4.43259 47.2398 4.21919 47.4532C4.00578 47.6666 3.71633 47.7865 3.41453 47.7865H1.13867V45.5109H3.41453C3.71633 45.5109 4.00578 45.6308 4.21919 45.8442C4.43259 46.0575 4.55246 46.3469 4.55246 46.6487Z" fill="#EB7F58"/>
<path d="M4.55246 42.0976C4.55246 42.3993 4.43259 42.6887 4.21919 42.9021C4.00578 43.1155 3.71633 43.2354 3.41453 43.2354H1.13867V40.9598H3.41453C3.71633 40.9598 4.00578 41.0797 4.21919 41.2931C4.43259 41.5064 4.55246 41.7958 4.55246 42.0976Z" fill="#EB7F58"/>
<path d="M4.55246 37.5465C4.55246 37.8483 4.43259 38.1377 4.21919 38.351C4.00578 38.5644 3.71633 38.6843 3.41453 38.6843H1.13867V36.4087H3.41453C3.71633 36.4087 4.00578 36.5286 4.21919 36.742C4.43259 36.9553 4.55246 37.2447 4.55246 37.5465Z" fill="#EB7F58"/>
<path d="M21.6196 54.6131V56.8886H19.3438V54.6131C19.3438 54.3113 19.4637 54.0219 19.6771 53.8086C19.8905 53.5952 20.1799 53.4753 20.4817 53.4753C20.7835 53.4753 21.0729 53.5952 21.2863 53.8086C21.4997 54.0219 21.6196 54.3113 21.6196 54.6131Z" fill="#EB7F58"/>
<path d="M26.1723 54.6131V56.8886H23.8965V54.6131C23.8965 54.3113 24.0164 54.0219 24.2298 53.8086C24.4432 53.5952 24.7326 53.4753 25.0344 53.4753C25.3362 53.4753 25.6257 53.5952 25.8391 53.8086C26.0525 54.0219 26.1723 54.3113 26.1723 54.6131Z" fill="#EB7F58"/>
<path d="M17.0669 54.6131V56.8886H14.791V54.6131C14.791 54.3113 14.9109 54.0219 15.1243 53.8086C15.3377 53.5952 15.6271 53.4753 15.9289 53.4753C16.2307 53.4753 16.5202 53.5952 16.7336 53.8086C16.947 54.0219 17.0669 54.3113 17.0669 54.6131Z" fill="#EB7F58"/>
<path d="M12.5181 54.6131V56.8886H10.2422V54.6131C10.2422 54.3113 10.3621 54.0219 10.5755 53.8086C10.7889 53.5952 11.0783 53.4753 11.3801 53.4753C11.6819 53.4753 11.9714 53.5952 12.1848 53.8086C12.3982 54.0219 12.5181 54.3113 12.5181 54.6131Z" fill="#EB7F58"/>
<path d="M7.9653 54.6131V56.8886H5.68945V54.6131C5.68945 54.3113 5.80936 54.0219 6.02276 53.8086C6.23616 53.5952 6.52558 53.4753 6.82738 53.4753C7.12917 53.4753 7.41863 53.5952 7.63203 53.8086C7.84543 54.0219 7.9653 54.3113 7.9653 54.6131Z" fill="#EB7F58"/>
<path d="M29.5868 23.8932V39.822L15.9316 32.9954V17.0666L29.5868 23.8932Z" fill="#E4E7F1"/>
<path d="M43.2411 17.0666V32.9954L29.5859 39.822V23.8932L43.2411 17.0666Z" fill="#E4E7F1"/>
<path d="M43.242 17.0666L29.5868 23.8932L15.9316 17.0666L29.5868 10.24L43.242 17.0666Z" fill="#E4E7F1"/>
<path d="M18.9698 49.1632L8.66021 41.1988C8.49255 41.0685 8.2918 40.9878 8.08065 40.9657C7.86951 40.9436 7.65637 40.981 7.46536 41.0736C7.27385 41.1674 7.11256 41.3132 6.99989 41.4943C6.88721 41.6753 6.8277 41.8844 6.82813 42.0976V50.062C6.82813 50.3638 6.94803 50.6532 7.16143 50.8666C7.37484 51.0799 7.66426 51.1998 7.96605 51.1998H18.2757C18.5126 51.1991 18.7434 51.1244 18.9359 50.9862C19.1283 50.8481 19.2728 50.6533 19.3492 50.429C19.4257 50.2048 19.4302 49.9623 19.3622 49.7354C19.2941 49.5085 19.157 49.3084 18.9698 49.1632ZM9.10398 48.9243V44.4414L14.9302 48.9243H9.10398Z" fill="#538EF7"/>
<path d="M61.4482 22.7555C60.5864 22.7536 59.7418 22.9964 59.0126 23.4556C58.2834 23.9149 57.6995 24.5716 57.3289 25.3496C57.0457 25.9431 56.898 26.5921 56.8965 27.2497V59.5965C56.8958 59.7785 56.9387 59.958 57.0217 60.1199L59.4227 64.762C59.6137 65.1348 59.9039 65.4476 60.2613 65.666C60.6186 65.8844 61.0294 66 61.4482 66C61.8671 66 62.2778 65.8844 62.6352 65.666C62.9926 65.4476 63.2827 65.1348 63.4737 64.762L65.8748 60.1199C65.9578 59.958 66.0007 59.7785 65.9999 59.5965V27.2497C65.985 26.0525 65.4988 24.9095 64.6468 24.0683C63.7948 23.2271 62.6456 22.7554 61.4482 22.7555ZM63.7241 59.3235L61.4482 63.7153L59.1724 59.3235V33.1547H63.7241V59.3235ZM63.7241 30.8792H59.1724V27.2042C59.1841 26.7463 59.3337 26.3026 59.6017 25.9311C59.8697 25.5596 60.2436 25.2776 60.6744 25.122C60.9219 25.0299 61.1841 24.9836 61.4482 24.9855C62.0518 24.9855 62.6307 25.2253 63.0575 25.652C63.4843 26.0788 63.7241 26.6575 63.7241 27.2611V30.8792Z" fill="#538EF7"/>
<path d="M58.0345 0H14.7931C12.6805 0 10.6545 0.839107 9.16067 2.33272C7.66684 3.82634 6.82761 5.85212 6.82761 7.96441V31.3229L1.82072 27.5341C1.65195 27.4057 1.45065 27.327 1.23953 27.3069C1.02841 27.2868 0.815888 27.3261 0.62591 27.4203C0.436518 27.5157 0.277546 27.6622 0.16696 27.8431C0.056373 28.024 -0.00144832 28.2323 2.75632e-05 28.4443V56.8886C2.75632e-05 57.1904 0.119933 57.4798 0.333336 57.6932C0.54674 57.9065 0.83616 58.0264 1.13796 58.0264H6.82761V62.5775C6.79988 63.45 7.11791 64.2982 7.71249 64.9374C8.30707 65.5767 9.13009 65.9553 10.0024 65.9908H49.17C50.0424 65.9553 50.8654 65.5767 51.46 64.9374C52.0545 64.2982 52.3726 63.45 52.3448 62.5775V13.6533H62.5862C63.4916 13.6533 64.3599 13.2937 65.0001 12.6535C65.6404 12.0134 66 11.1452 66 10.24V7.96441C66 5.85212 65.1608 3.82634 63.667 2.33272C62.1732 0.839107 60.1471 0 58.0345 0ZM6.82761 53.4753C6.52581 53.4753 6.23639 53.5952 6.02299 53.8086C5.80959 54.0219 5.68968 54.3113 5.68968 54.6131V55.7509H2.27589V52.3375H3.41382C3.71562 52.3375 4.00507 52.2177 4.21848 52.0043C4.43188 51.7909 4.55175 51.5015 4.55175 51.1998C4.55175 50.898 4.43188 50.6086 4.21848 50.3952C4.00507 50.1819 3.71562 50.062 3.41382 50.062H2.27589V47.7865H3.41382C3.71562 47.7865 4.00507 47.6666 4.21848 47.4532C4.43188 47.2398 4.55175 46.9504 4.55175 46.6487C4.55175 46.3469 4.43188 46.0575 4.21848 45.8442C4.00507 45.6308 3.71562 45.5109 3.41382 45.5109H2.27589V43.2354H3.41382C3.71562 43.2354 4.00507 43.1155 4.21848 42.9021C4.43188 42.6887 4.55175 42.3993 4.55175 42.0976C4.55175 41.7958 4.43188 41.5064 4.21848 41.2931C4.00507 41.0797 3.71562 40.9598 3.41382 40.9598H2.27589V38.6843H3.41382C3.71562 38.6843 4.00507 38.5644 4.21848 38.351C4.43188 38.1377 4.55175 37.8483 4.55175 37.5465C4.55175 37.2447 4.43188 36.9553 4.21848 36.742C4.00507 36.5286 3.71562 36.4087 3.41382 36.4087H2.27589V30.7199L35.2759 55.7509H26.1724V54.6131C26.1724 54.3113 26.0526 54.0219 25.8392 53.8086C25.6258 53.5952 25.3363 53.4753 25.0345 53.4753C24.7327 53.4753 24.4433 53.5952 24.2299 53.8086C24.0165 54.0219 23.8966 54.3113 23.8966 54.6131V55.7509H21.6207V54.6131C21.6207 54.3113 21.5008 54.0219 21.2874 53.8086C21.074 53.5952 20.7846 53.4753 20.4828 53.4753C20.181 53.4753 19.8916 53.5952 19.6782 53.8086C19.4648 54.0219 19.3448 54.3113 19.3448 54.6131V55.7509H17.069V54.6131C17.069 54.3113 16.9491 54.0219 16.7357 53.8086C16.5223 53.5952 16.2329 53.4753 15.9311 53.4753C15.6293 53.4753 15.3398 53.5952 15.1264 53.8086C14.913 54.0219 14.7931 54.3113 14.7931 54.6131V55.7509H12.5173V54.6131C12.5173 54.3113 12.3974 54.0219 12.184 53.8086C11.9706 53.5952 11.6811 53.4753 11.3793 53.4753C11.0775 53.4753 10.7881 53.5952 10.5747 53.8086C10.3613 54.0219 10.2414 54.3113 10.2414 54.6131V55.7509H7.96554V54.6131C7.96554 54.3113 7.84567 54.0219 7.63227 53.8086C7.41886 53.5952 7.12941 53.4753 6.82761 53.4753ZM50.069 7.96441V62.5775C50.0922 62.8459 50.0121 63.1131 49.8451 63.3245C49.678 63.536 49.4366 63.6757 49.17 63.7153H10.0024C9.73589 63.6757 9.49447 63.536 9.32743 63.3245C9.16038 63.1131 9.08027 62.8459 9.10347 62.5775V58.0264H38.6897C38.9285 58.0264 39.1613 57.9513 39.355 57.8116C39.5488 57.672 39.6937 57.475 39.7692 57.2484C39.8447 57.0219 39.8471 56.7773 39.7759 56.5494C39.7046 56.3214 39.5635 56.1217 39.3724 55.9784L9.09212 33.0409V8.00992C9.09212 6.50114 9.69154 5.05416 10.7586 3.98729C11.8256 2.92042 13.2728 2.32106 14.7818 2.32106H52.4586C51.7073 3.05733 51.1094 3.93512 50.6992 4.90373C50.289 5.87234 50.0749 6.91258 50.069 7.96441ZM63.7241 10.24C63.7241 10.5417 63.6043 10.8311 63.3909 11.0445C63.1775 11.2579 62.888 11.3777 62.5862 11.3777H52.3448V7.96441C52.3448 6.45563 52.9443 5.00865 54.0113 3.94178C55.0783 2.87491 56.5255 2.27555 58.0345 2.27555C59.5435 2.27555 60.9907 2.87491 62.0577 3.94178C63.1247 5.00865 63.7241 6.45563 63.7241 7.96441V10.24Z" fill="#538EF7"/>
<path d="M43.2414 23.8932C42.9396 23.8932 42.6502 24.0131 42.4368 24.2265C42.2234 24.4398 42.1035 24.7292 42.1035 25.031V26.1688C42.1035 26.4705 42.2234 26.7599 42.4368 26.9733C42.6502 27.1867 42.9396 27.3065 43.2414 27.3065C43.5432 27.3065 43.8327 27.1867 44.0461 26.9733C44.2595 26.7599 44.3794 26.4705 44.3794 26.1688V25.031C44.3794 24.7292 44.2595 24.4398 44.0461 24.2265C43.8327 24.0131 43.5432 23.8932 43.2414 23.8932Z" fill="#538EF7"/>
<path d="M43.2433 21.6176C43.5451 21.6176 43.8346 21.4978 44.048 21.2844C44.2614 21.071 44.3812 20.7816 44.3812 20.4799V17.0665C44.3985 16.9687 44.3985 16.8686 44.3812 16.7707V16.6683C44.3595 16.6056 44.3329 16.5448 44.3016 16.4863L44.2219 16.3953L44.1195 16.2587L44.0171 16.1791L43.9261 16.0994H43.8692L30.214 9.2728C30.0552 9.19278 29.8798 9.15109 29.702 9.15109C29.5241 9.15109 29.3487 9.19278 29.1899 9.2728L15.5347 16.0994H15.4778L15.3868 16.1677L15.2844 16.2587L15.182 16.3953L15.1023 16.4863C15.0711 16.5448 15.0444 16.6056 15.0227 16.6683V16.7707C15.0055 16.8686 15.0055 16.9687 15.0227 17.0665V32.9954C15.0233 33.2055 15.0821 33.4113 15.1926 33.59C15.3031 33.7688 15.4609 33.9134 15.6485 34.008L29.3037 40.8346H29.3606C29.5028 40.9023 29.6583 40.9375 29.8158 40.9375C29.9733 40.9375 30.1287 40.9023 30.2709 40.8346H30.3278L43.983 34.008C44.1706 33.9134 44.3285 33.7688 44.4389 33.59C44.5494 33.4113 44.6082 33.2055 44.6088 32.9954V30.7198C44.6088 30.4181 44.4889 30.1287 44.2755 29.9153C44.0621 29.7019 43.7727 29.582 43.4709 29.582C43.1691 29.582 42.8797 29.7019 42.6663 29.9153C42.4529 30.1287 42.333 30.4181 42.333 30.7198V32.2899L30.9537 37.9788V24.5986L42.333 18.9097V20.4799C42.3276 20.746 42.4158 21.0057 42.5821 21.2136C42.7484 21.4215 42.9824 21.5644 43.2433 21.6176ZM28.4502 37.9788L17.0709 32.2899V18.9097L28.4502 24.5986V37.9788ZM29.5882 22.6189L18.482 17.0665L29.5882 11.5142L40.6944 17.0665L29.5882 22.6189Z" fill="#538EF7"/>
</svg>
