<svg width="66" height="66" viewBox="0 0 66 66" fill="none" xmlns="http://www.w3.org/2000/svg">
<path fill-rule="evenodd" clip-rule="evenodd" d="M6.2473 13H59.2103C60.7103 13 61.9263 14.216 61.9263 15.716V49.1235C61.9263 50.6235 60.7103 51.8395 59.2103 51.8395H6.2473C4.74727 51.8395 3.53125 50.6235 3.53125 49.1235V15.716C3.53125 14.216 4.74727 13 6.2473 13Z" fill="#538EF7"/>
<path opacity="0.965588" fill-rule="evenodd" clip-rule="evenodd" d="M7.33251 15.716H58.1226C58.7227 15.716 59.2091 16.2025 59.2091 16.8025V49.1235H6.24609V16.8025C6.24609 16.2025 6.7325 15.716 7.33251 15.716Z" fill="#F5F5F5"/>
<path opacity="0.965588" fill-rule="evenodd" clip-rule="evenodd" d="M10.3206 21.4198H13.8514C14.1514 21.4198 14.3946 21.663 14.3946 21.963V22.3176C14.3946 22.6176 14.1514 22.8608 13.8514 22.8608H10.3206C10.0205 22.8608 9.77734 22.6176 9.77734 22.3176V21.963C9.77734 21.663 10.0205 21.4198 10.3206 21.4198ZM10.3206 24.1358H19.2835C19.5835 24.1358 19.8267 24.379 19.8267 24.679V25.0336C19.8267 25.3336 19.5835 25.5768 19.2835 25.5768H10.3206C10.0205 25.5768 9.77734 25.3336 9.77734 25.0336V24.679C9.77734 24.379 10.0205 24.1358 10.3206 24.1358ZM10.3206 26.8519H19.2835C19.5835 26.8519 19.8267 27.0951 19.8267 27.3951V27.7497C19.8267 28.0497 19.5835 28.2929 19.2835 28.2929H10.3206C10.0205 28.2929 9.77734 28.0497 9.77734 27.7497V27.3951C9.77734 27.0951 10.0205 26.8519 10.3206 26.8519Z" fill="#538EF7"/>
<path opacity="0.965588" d="M15.4829 40.6605H21.1866C21.5105 40.6605 21.773 40.923 21.773 41.2469V45.321C21.773 45.6448 21.5105 45.9074 21.1866 45.9074H15.4829C15.159 45.9074 14.8965 45.6448 14.8965 45.321V41.2469C14.8965 40.923 15.159 40.6605 15.4829 40.6605ZM25.2607 38.0103H30.9644C31.2883 38.0103 31.5508 38.2728 31.5508 38.5967V45.321C31.5508 45.6448 31.2883 45.9074 30.9644 45.9074H25.2607C24.9368 45.9074 24.6743 45.6448 24.6743 45.321V38.5967C24.6743 38.2728 24.9368 38.0103 25.2607 38.0103ZM44.8162 38.0103H50.5199C50.8438 38.0103 51.1064 38.2728 51.1064 38.5967V45.321C51.1064 45.6448 50.8438 45.9074 50.5199 45.9074H44.8162C44.4924 45.9074 44.2298 45.6448 44.2298 45.321V38.5967C44.2298 38.2728 44.4924 38.0103 44.8162 38.0103ZM35.3101 34.4136H41.0138C41.3376 34.4136 41.6002 34.6761 41.6002 35V45.321C41.6002 45.6448 41.3376 45.9074 41.0138 45.9074H35.3101C34.9862 45.9074 34.7236 45.6448 34.7236 45.321V35C34.7236 34.6761 34.9862 34.4136 35.3101 34.4136Z" fill="#F5F5F5" stroke="#538EF7"/>
<path d="M49.4765 30.9485C50.7114 30.1922 51.8627 28.5747 52.9153 26.0678L51.6157 26.2739C51.3935 26.3092 51.1847 26.1576 51.1495 25.9354C51.1142 25.7131 51.2658 25.5044 51.488 25.4692L53.6812 25.1213C53.8755 25.0905 54.064 25.2028 54.1293 25.3884L54.8365 27.3975C54.9112 27.6097 54.7997 27.8423 54.5875 27.917C54.3752 27.9917 54.1426 27.8802 54.0679 27.668L53.6388 26.449C52.4387 29.2849 51.0714 31.0988 49.5188 31.8571C49.348 32.494 48.7667 32.963 48.0759 32.963C47.4119 32.963 46.8491 32.5298 46.6547 31.9306C46.2715 31.7265 45.8748 31.4297 45.4513 31.0446C45.0945 30.72 44.7204 30.3355 44.2639 29.8328C43.9951 29.5367 43.0116 28.4232 43.0494 28.4658C41.3092 26.5108 40.0449 25.4188 38.8243 25.0662C38.5809 25.5609 38.0718 25.9012 37.4833 25.9012C36.9813 25.9012 36.5371 25.6536 36.2663 25.2739C35.2085 25.6721 34.2743 26.4161 33.0558 27.6641C33.0686 27.6511 32.3611 28.3822 32.1612 28.5829C31.1418 29.6062 30.3185 30.2233 29.4209 30.4958C29.2512 31.1344 28.6691 31.6049 27.9771 31.6049C27.5324 31.6049 27.1332 31.4107 26.8595 31.1024C26.3359 31.4168 25.7796 31.906 25.1278 32.5918C24.9644 32.7637 24.7949 32.9471 24.5785 33.1852C24.5044 33.2666 24.1247 33.6861 24.0161 33.8054C22.5542 35.4103 21.4324 36.385 20.2186 36.8606C20.1076 37.576 19.489 38.1235 18.7425 38.1235C18.1743 38.1235 17.6802 37.8062 17.4277 37.3392C14.9146 37.9155 12.4163 40.4554 9.95933 45.0058C9.85243 45.2038 9.60527 45.2776 9.40728 45.1707C9.20929 45.0638 9.13545 44.8167 9.24236 44.6187C11.7986 39.8845 14.4594 37.1771 17.2512 36.5428C17.2961 35.7582 17.9467 35.1358 18.7425 35.1358C19.3495 35.1358 19.872 35.4978 20.1057 36.0177C21.1208 35.5646 22.1117 34.6861 23.4138 33.2567C23.5213 33.1386 23.9007 32.7195 23.9756 32.637C24.1958 32.3949 24.369 32.2075 24.5372 32.0305C25.2572 31.2729 25.8874 30.7214 26.5042 30.362C26.4904 30.2804 26.4833 30.1966 26.4833 30.1111C26.4833 29.2861 27.1521 28.6173 27.9771 28.6173C28.6372 28.6173 29.1973 29.0455 29.3949 29.6392C30.0724 29.3768 30.741 28.854 31.5839 28.0079C31.7789 27.8121 32.4818 27.0857 32.4728 27.0949C33.776 25.7601 34.8026 24.9458 35.9925 24.5037C35.9905 24.4718 35.9894 24.4397 35.9894 24.4074C35.9894 23.5824 36.6582 22.9136 37.4833 22.9136C38.2642 22.9136 38.9052 23.5128 38.9714 24.2766C39.5784 24.4448 40.1843 24.7523 40.7982 25.1877C41.6802 25.8133 42.4855 26.6068 43.658 27.924C43.6236 27.8853 44.6027 28.9939 44.8671 29.285C45.3077 29.7702 45.6652 30.1376 45.9996 30.4418C46.2347 30.6556 46.4556 30.8347 46.664 30.9797C46.8667 30.3951 47.4223 29.9753 48.0759 29.9753C48.7178 29.9753 49.2651 30.3802 49.4765 30.9485ZM27.9771 30.7901C28.3521 30.7901 28.6561 30.4861 28.6561 30.1111C28.6561 29.7361 28.3521 29.4321 27.9771 29.4321C27.6021 29.4321 27.2981 29.7361 27.2981 30.1111C27.2981 30.4861 27.6021 30.7901 27.9771 30.7901ZM37.4833 25.0864C37.8583 25.0864 38.1623 24.7824 38.1623 24.4074C38.1623 24.0324 37.8583 23.7284 37.4833 23.7284C37.1083 23.7284 36.8043 24.0324 36.8043 24.4074C36.8043 24.7824 37.1083 25.0864 37.4833 25.0864ZM48.0759 32.1481C48.4509 32.1481 48.7549 31.8441 48.7549 31.4691C48.7549 31.0941 48.4509 30.7901 48.0759 30.7901C47.7008 30.7901 47.3968 31.0941 47.3968 31.4691C47.3968 31.8441 47.7008 32.1481 48.0759 32.1481ZM18.7425 37.3086C19.1175 37.3086 19.4215 37.0046 19.4215 36.6296C19.4215 36.2546 19.1175 35.9506 18.7425 35.9506C18.3675 35.9506 18.0635 36.2546 18.0635 36.6296C18.0635 37.0046 18.3675 37.3086 18.7425 37.3086Z" fill="#5891F7"/>
<path fill-rule="evenodd" clip-rule="evenodd" d="M0 49.1235H66C66 50.9235 64.5408 52.3827 62.7407 52.3827H3.25926C1.45922 52.3827 0 50.9235 0 49.1235Z" fill="#538EF7"/>
<path d="M22 49.1235H41.8272C41.8272 49.8735 41.2192 50.4815 40.4691 50.4815H23.358C22.608 50.4815 22 49.8735 22 49.1235Z" fill="#F4F1F7"/>
</svg>
