<svg width="66" height="66" viewBox="0 0 66 66" fill="none" xmlns="http://www.w3.org/2000/svg">
<path d="M61.9661 10.2418V39.2089H4.03516V10.2418C4.03662 8.95939 4.43523 7.70894 5.17619 6.66227C5.91714 5.61561 6.96408 4.8241 8.17308 4.39663C8.83608 4.15522 9.53647 4.03267 10.242 4.03457H55.7592C57.4054 4.03457 58.9842 4.68851 60.1482 5.85259C61.3122 7.01667 61.9661 8.59554 61.9661 10.2418Z" fill="#CCD3EB"/>
<path d="M58.8627 10.2418V39.2089H4.03516V10.2418C4.03662 8.95939 4.43523 7.70894 5.17619 6.66227C5.91714 5.61561 6.96408 4.8241 8.17308 4.39663C8.83608 4.15522 9.53647 4.03267 10.242 4.03457H52.6558C54.302 4.03457 55.8807 4.68851 57.0447 5.85259C58.2088 7.01667 58.8627 8.59554 58.8627 10.2418Z" fill="#F5F5F5"/>
<path d="M61.9661 38.1743V42.3125C61.9661 43.9588 61.3122 45.5376 60.1482 46.7017C58.9842 47.8658 57.4054 48.5198 55.7592 48.5198H10.242C8.59588 48.5198 7.01713 47.8658 5.85311 46.7017C4.68909 45.5376 4.03516 43.9588 4.03516 42.3125V38.1743H61.9661Z" fill="#F5F5F5"/>
<path d="M43.6451 60.9342H22.3555L26.6175 48.5198H39.3831L43.6451 60.9342Z" fill="#F5F5F5"/>
<path d="M45.4148 63.0033H20.5872C20.3129 63.0033 20.0497 62.8943 19.8557 62.7003C19.6617 62.5063 19.5527 62.2432 19.5527 61.9688C19.5527 61.6944 19.6617 61.4313 19.8557 61.2372C20.0497 61.0432 20.3129 60.9342 20.5872 60.9342H45.4148C45.6891 60.9342 45.9523 61.0432 46.1463 61.2372C46.3403 61.4313 46.4493 61.6944 46.4493 61.9688C46.4493 62.2432 46.3403 62.5063 46.1463 62.7003C45.9523 62.8943 45.6891 63.0033 45.4148 63.0033Z" fill="#0668CB"/>
<path d="M45.4148 63.0033H20.5872C20.3129 63.0033 20.0497 62.8943 19.8557 62.7003C19.6617 62.5063 19.5527 62.2432 19.5527 61.9688C19.5527 61.6944 19.6617 61.4313 19.8557 61.2372C20.0497 61.0432 20.3129 60.9342 20.5872 60.9342H45.4148C45.6891 60.9342 45.9523 61.0432 46.1463 61.2372C46.3403 61.4313 46.4493 61.6944 46.4493 61.9688C46.4493 62.2432 46.3403 62.5063 46.1463 62.7003C45.9523 62.8943 45.6891 63.0033 45.4148 63.0033Z" fill="#5992F7"/>
<path d="M34.0351 43.3471H31.9661C31.6918 43.3471 31.4287 43.4561 31.2347 43.6501C31.0406 43.8441 30.9316 44.1073 30.9316 44.3816C30.9316 44.656 31.0406 44.9191 31.2347 45.1131C31.4287 45.3072 31.6918 45.4162 31.9661 45.4162H34.0351C34.3095 45.4162 34.5726 45.3072 34.7666 45.1131C34.9606 44.9191 35.0696 44.656 35.0696 44.3816C35.0696 44.1073 34.9606 43.8441 34.7666 43.6501C34.5726 43.4561 34.3095 43.3471 34.0351 43.3471Z" fill="#5992F7"/>
<path d="M55.7586 3H10.2414C8.32085 3 6.47898 3.76295 5.12096 5.12105C3.76294 6.47915 3 8.32115 3 10.2418V43.3471C3 45.2677 3.76294 47.1097 5.12096 48.4678C6.47898 49.8259 8.32085 50.5889 10.2414 50.5889H25.169L21.3828 61.6378C21.33 61.7926 21.3147 61.9576 21.338 62.1195C21.3614 62.2813 21.4228 62.4354 21.5172 62.5689C21.6124 62.7026 21.7381 62.8117 21.8838 62.8873C22.0295 62.9628 22.191 63.0026 22.3552 63.0034H43.6345C43.799 63.0038 43.9612 62.965 44.1077 62.8902C44.2542 62.8153 44.3807 62.7067 44.4768 62.5732C44.5729 62.4397 44.6358 62.2851 44.6602 62.1225C44.6846 61.9598 44.6699 61.7936 44.6173 61.6378L40.8621 50.5889H55.7586C57.6792 50.5889 59.521 49.8259 60.8791 48.4678C62.2371 47.1097 63 45.2677 63 43.3471V10.2418C63 8.32115 62.2371 6.47915 60.8791 5.12105C59.521 3.76295 57.6792 3 55.7586 3ZM10.2414 5.06908H55.7586C57.1304 5.06908 58.4461 5.61407 59.4161 6.58414C60.3861 7.55421 60.931 8.8699 60.931 10.2418V38.1744H5.06897V10.2418C5.06897 8.8699 5.61393 7.55421 6.58394 6.58414C7.55396 5.61407 8.86957 5.06908 10.2414 5.06908ZM42.1862 60.9343H23.8035L27.3517 50.5889H38.6483L42.1862 60.9343ZM55.7586 48.5198H10.2414C8.86957 48.5198 7.55396 47.9748 6.58394 47.0047C5.61393 46.0347 5.06897 44.719 5.06897 43.3471V40.2435H60.931V43.3471C60.931 44.719 60.3861 46.0347 59.4161 47.0047C58.4461 47.9748 57.1304 48.5198 55.7586 48.5198Z" fill="#5992F7"/>
<path d="M29.5508 10.4C29.5508 11.6423 28.6064 12.6 27.5008 12.6C26.3951 12.6 25.4508 11.6423 25.4508 10.4C25.4508 9.15767 26.3951 8.20001 27.5008 8.20001C28.6064 8.20001 29.5508 9.15767 29.5508 10.4ZM22.0706 20.7C22.3096 17.7083 24.673 15.4 27.5008 15.4C30.3285 15.4 32.692 17.7083 32.9309 20.7H22.0706Z" fill="#CCD3EB" stroke="#428DFF"/>
<path d="M40.5508 10.4C40.5508 11.6423 39.6064 12.6 38.5008 12.6C37.3951 12.6 36.4508 11.6423 36.4508 10.4C36.4508 9.15767 37.3951 8.20001 38.5008 8.20001C39.6064 8.20001 40.5508 9.15767 40.5508 10.4ZM33.0706 20.7C33.3096 17.7083 35.673 15.4 38.5008 15.4C41.3285 15.4 43.692 17.7083 43.9309 20.7H33.0706Z" fill="#CCD3EB" stroke="#428DFF"/>
<mask id="path-11-outside-1" maskUnits="userSpaceOnUse" x="21" y="20.9231" width="24" height="14" fill="black">
<rect fill="white" x="21" y="20.9231" width="24" height="14"/>
<path fill-rule="evenodd" clip-rule="evenodd" d="M23 22.9231V23.5473L25.0376 23.5473C25.065 23.543 25.0929 23.543 25.1202 23.5473C25.178 23.5377 25.2369 23.5377 25.2946 23.5473C25.3525 23.5559 25.4084 23.5746 25.4598 23.6023C25.5094 23.6307 25.5556 23.6646 25.5975 23.7033C25.6467 23.7357 25.6901 23.776 25.726 23.8226C25.7647 23.8646 25.7986 23.9108 25.827 23.9603L25.9004 24.1255V24.1989C26.0739 25.0046 26.3844 25.7746 26.8182 26.4752V26.5762V26.6588C26.8546 26.7589 26.8732 26.8645 26.8733 26.9709C26.8721 27.0742 26.8535 27.1766 26.8182 27.2738V27.338C26.7761 27.4362 26.717 27.5263 26.6438 27.6042L25.2029 29.0452L26.497 30.3394L27.9472 28.8984L28.0115 28.8525C28.06 28.8136 28.1122 28.7798 28.1675 28.7515C28.2152 28.7208 28.2681 28.6991 28.3235 28.6873C28.3785 28.683 28.4338 28.683 28.4887 28.6873C28.5468 28.6829 28.6051 28.6829 28.6631 28.6873C28.7212 28.6839 28.7795 28.6839 28.8375 28.6873C28.8941 28.7047 28.9493 28.7262 29.0027 28.7515H29.0854C29.7861 29.1854 30.556 29.4959 31.3616 29.6694H31.4443L31.5728 29.7244C31.6319 29.7547 31.6873 29.7916 31.738 29.8346L31.8297 29.9264C31.8767 29.9792 31.9168 30.0378 31.9491 30.1008L32.0041 30.2017C32.0457 30.307 32.0675 30.419 32.0684 30.5322V32.5698H33.9041V30.5322V30.4495V30.2751L33.9684 30.1099L34.0601 29.9723C34.095 29.9251 34.135 29.882 34.1794 29.8438L34.3171 29.7428C34.3728 29.7128 34.4312 29.6882 34.4915 29.6694H34.5649C35.3698 29.4933 36.1393 29.183 36.8412 28.7515H36.9146C36.9706 28.7246 37.029 28.7031 37.089 28.6873C37.144 28.683 37.1993 28.683 37.2543 28.6873C37.3123 28.6825 37.3706 28.6825 37.4286 28.6873C37.4866 28.682 37.545 28.682 37.603 28.6873C37.658 28.7007 37.7106 28.7223 37.7591 28.7515C37.8131 28.7819 37.8652 28.8156 37.9151 28.8525L37.9794 28.8984L39.4296 30.3394L40.7237 29.0452L39.2827 27.6042V27.5308C39.2429 27.4863 39.209 27.437 39.1818 27.3839C39.1497 27.3325 39.125 27.2769 39.1083 27.2187V27.0535V26.8699C39.1039 26.818 39.1039 26.7658 39.1083 26.7139C39.1232 26.6522 39.148 26.5933 39.1818 26.5395V26.4569C39.6119 25.7543 39.922 24.985 40.0996 24.1806V24.1072L40.1822 23.942C40.2074 23.8927 40.2382 23.8465 40.274 23.8043C40.3123 23.7599 40.3554 23.7198 40.4025 23.685C40.4477 23.6462 40.4969 23.6123 40.5493 23.584C40.5975 23.5562 40.6504 23.5375 40.7054 23.5289C40.7662 23.5203 40.8281 23.5203 40.8889 23.5289C40.9133 23.5248 40.9381 23.5248 40.9624 23.5289L43 23.5289V22.9231H38.2925C38.2328 23.7063 38.016 24.4691 37.6549 25.1608C37.2324 25.9702 36.6252 26.6572 35.8878 27.1603C35.1504 27.6633 34.3057 27.9669 33.4292 28.0437C32.5527 28.1206 31.6717 27.9684 30.8649 27.6007C30.0582 27.233 29.3508 26.6614 28.8061 25.9368C28.2613 25.2122 27.8962 24.3573 27.7433 23.4485C27.7139 23.2741 27.6926 23.0988 27.6792 22.9231H23Z"/>
</mask>
<path fill-rule="evenodd" clip-rule="evenodd" d="M23 22.9231V23.5473L25.0376 23.5473C25.065 23.543 25.0929 23.543 25.1202 23.5473C25.178 23.5377 25.2369 23.5377 25.2946 23.5473C25.3525 23.5559 25.4084 23.5746 25.4598 23.6023C25.5094 23.6307 25.5556 23.6646 25.5975 23.7033C25.6467 23.7357 25.6901 23.776 25.726 23.8226C25.7647 23.8646 25.7986 23.9108 25.827 23.9603L25.9004 24.1255V24.1989C26.0739 25.0046 26.3844 25.7746 26.8182 26.4752V26.5762V26.6588C26.8546 26.7589 26.8732 26.8645 26.8733 26.9709C26.8721 27.0742 26.8535 27.1766 26.8182 27.2738V27.338C26.7761 27.4362 26.717 27.5263 26.6438 27.6042L25.2029 29.0452L26.497 30.3394L27.9472 28.8984L28.0115 28.8525C28.06 28.8136 28.1122 28.7798 28.1675 28.7515C28.2152 28.7208 28.2681 28.6991 28.3235 28.6873C28.3785 28.683 28.4338 28.683 28.4887 28.6873C28.5468 28.6829 28.6051 28.6829 28.6631 28.6873C28.7212 28.6839 28.7795 28.6839 28.8375 28.6873C28.8941 28.7047 28.9493 28.7262 29.0027 28.7515H29.0854C29.7861 29.1854 30.556 29.4959 31.3616 29.6694H31.4443L31.5728 29.7244C31.6319 29.7547 31.6873 29.7916 31.738 29.8346L31.8297 29.9264C31.8767 29.9792 31.9168 30.0378 31.9491 30.1008L32.0041 30.2017C32.0457 30.307 32.0675 30.419 32.0684 30.5322V32.5698H33.9041V30.5322V30.4495V30.2751L33.9684 30.1099L34.0601 29.9723C34.095 29.9251 34.135 29.882 34.1794 29.8438L34.3171 29.7428C34.3728 29.7128 34.4312 29.6882 34.4915 29.6694H34.5649C35.3698 29.4933 36.1393 29.183 36.8412 28.7515H36.9146C36.9706 28.7246 37.029 28.7031 37.089 28.6873C37.144 28.683 37.1993 28.683 37.2543 28.6873C37.3123 28.6825 37.3706 28.6825 37.4286 28.6873C37.4866 28.682 37.545 28.682 37.603 28.6873C37.658 28.7007 37.7106 28.7223 37.7591 28.7515C37.8131 28.7819 37.8652 28.8156 37.9151 28.8525L37.9794 28.8984L39.4296 30.3394L40.7237 29.0452L39.2827 27.6042V27.5308C39.2429 27.4863 39.209 27.437 39.1818 27.3839C39.1497 27.3325 39.125 27.2769 39.1083 27.2187V27.0535V26.8699C39.1039 26.818 39.1039 26.7658 39.1083 26.7139C39.1232 26.6522 39.148 26.5933 39.1818 26.5395V26.4569C39.6119 25.7543 39.922 24.985 40.0996 24.1806V24.1072L40.1822 23.942C40.2074 23.8927 40.2382 23.8465 40.274 23.8043C40.3123 23.7599 40.3554 23.7198 40.4025 23.685C40.4477 23.6462 40.4969 23.6123 40.5493 23.584C40.5975 23.5562 40.6504 23.5375 40.7054 23.5289C40.7662 23.5203 40.8281 23.5203 40.8889 23.5289C40.9133 23.5248 40.9381 23.5248 40.9624 23.5289L43 23.5289V22.9231H38.2925C38.2328 23.7063 38.016 24.4691 37.6549 25.1608C37.2324 25.9702 36.6252 26.6572 35.8878 27.1603C35.1504 27.6633 34.3057 27.9669 33.4292 28.0437C32.5527 28.1206 31.6717 27.9684 30.8649 27.6007C30.0582 27.233 29.3508 26.6614 28.8061 25.9368C28.2613 25.2122 27.8962 24.3573 27.7433 23.4485C27.7139 23.2741 27.6926 23.0988 27.6792 22.9231H23Z" fill="#CCD3EB"/>
<path d="M23 23.5473H21V25.5473H23L23 23.5473ZM23 22.9231V20.9231H21V22.9231H23ZM25.0376 23.5473V25.5473H25.1937L25.348 25.5231L25.0376 23.5473ZM25.1202 23.5473L24.8099 25.5231L25.1291 25.5732L25.4478 25.5203L25.1202 23.5473ZM25.2946 23.5473L24.967 25.5203L24.983 25.5229L24.999 25.5253L25.2946 23.5473ZM25.4598 23.6023L26.4544 21.8672L26.4324 21.8546L26.4101 21.8425L25.4598 23.6023ZM25.5975 23.7033L24.2415 25.1735L24.361 25.2836L24.4966 25.373L25.5975 23.7033ZM25.726 23.8226L24.1423 25.0441L24.1961 25.1138L24.2559 25.1786L25.726 23.8226ZM25.827 23.9603L27.6548 23.1484L27.6132 23.0547L27.5622 22.9658L25.827 23.9603ZM25.9004 24.1255H27.9004V23.7013L27.7282 23.3136L25.9004 24.1255ZM25.9004 24.1989H23.9004V24.4119L23.9452 24.62L25.9004 24.1989ZM26.8182 26.4752H28.8182V25.9061L28.5186 25.4223L26.8182 26.4752ZM26.8182 26.6588H24.8182V27.0105L24.9382 27.3412L26.8182 26.6588ZM26.8733 26.9709L28.8732 26.9936L28.8733 26.9811L28.8733 26.9685L26.8733 26.9709ZM26.8182 27.2738L24.9384 26.5911L24.8182 26.9218V27.2738H26.8182ZM26.8182 27.338L28.6558 28.1275L28.8182 27.7495V27.338H26.8182ZM26.6438 27.6042L28.0581 29.0184L28.0801 28.9964L28.1014 28.9737L26.6438 27.6042ZM25.2029 29.0452L23.7886 27.631L22.3745 29.0452L23.7886 30.4594L25.2029 29.0452ZM26.497 30.3394L25.0828 31.7536L26.4925 33.1633L27.9067 31.7581L26.497 30.3394ZM27.9472 28.8984L26.785 27.2707L26.6528 27.3651L26.5375 27.4797L27.9472 28.8984ZM28.0115 28.8525L29.1737 30.4801L29.219 30.4478L29.2624 30.413L28.0115 28.8525ZM28.1675 28.7515L29.0784 30.532L29.1666 30.4869L29.2499 30.4333L28.1675 28.7515ZM28.3235 28.6873L28.1683 26.6933L28.0368 26.7035L27.9078 26.7309L28.3235 28.6873ZM28.4887 28.6873L28.3335 30.6812L28.4853 30.693L28.6372 30.6817L28.4887 28.6873ZM28.6631 28.6873L28.5147 30.6817L28.6475 30.6916L28.7804 30.6838L28.6631 28.6873ZM28.8375 28.6873L29.4262 26.7759L29.1956 26.7049L28.9548 26.6907L28.8375 28.6873ZM29.0027 28.7515L28.1454 30.5584L28.5523 30.7515H29.0027V28.7515ZM29.0854 28.7515L30.1383 27.0511L29.6545 26.7515H29.0854V28.7515ZM31.3616 29.6694L30.9405 31.6245L31.1487 31.6694H31.3616V29.6694ZM31.4443 29.6694L32.232 27.831L31.8547 27.6694H31.4443V29.6694ZM31.5728 29.7244L32.4833 27.9437L32.4229 27.9128L32.3605 27.8861L31.5728 29.7244ZM31.738 29.8346L33.1524 28.4206L33.0942 28.3624L33.0315 28.3092L31.738 29.8346ZM31.8297 29.9264L33.3243 28.5973L33.2855 28.5537L33.2442 28.5124L31.8297 29.9264ZM31.9491 30.1008L30.1688 31.0123L30.1808 31.0356L30.1933 31.0585L31.9491 30.1008ZM32.0041 30.2017L33.8641 29.4664L33.8188 29.352L33.7599 29.2439L32.0041 30.2017ZM32.0684 30.5322H34.0684V30.5245L34.0683 30.5169L32.0684 30.5322ZM32.0684 32.5698H30.0684V34.5698H32.0684V32.5698ZM33.9041 32.5698V34.5698H35.9041V32.5698H33.9041ZM33.9041 30.2751L32.0401 29.5501L31.9041 29.8999V30.2751H33.9041ZM33.9684 30.1099L32.3042 29.0007L32.1833 29.1819L32.1044 29.3849L33.9684 30.1099ZM34.0601 29.9723L32.4524 28.7826L32.4232 28.8221L32.3959 28.863L34.0601 29.9723ZM34.1794 29.8438L32.9967 28.2309L32.9335 28.2773L32.8741 28.3285L34.1794 29.8438ZM34.3171 29.7428L33.3686 27.982L33.2464 28.0479L33.1344 28.13L34.3171 29.7428ZM34.4915 29.6694V27.6694H34.1863L33.8949 27.7604L34.4915 29.6694ZM34.5649 29.6694V31.6694H34.7811L34.9923 31.6232L34.5649 29.6694ZM36.8412 28.7515V26.7515H36.2756L35.7938 27.0477L36.8412 28.7515ZM36.9146 28.7515V30.7515H37.37L37.7805 30.5544L36.9146 28.7515ZM37.089 28.6873L36.9338 26.6933L36.7533 26.7073L36.5783 26.7536L37.089 28.6873ZM37.2543 28.6873L37.0991 30.6812L37.2593 30.6937L37.4195 30.6804L37.2543 28.6873ZM37.4286 28.6873L37.2634 30.6804L37.4357 30.6947L37.6079 30.6792L37.4286 28.6873ZM37.603 28.6873L38.0771 26.7443L37.9315 26.7087L37.7823 26.6953L37.603 28.6873ZM37.7591 28.7515L36.7276 30.465L36.7531 30.4803L36.779 30.4949L37.7591 28.7515ZM37.9151 28.8525L36.7264 30.4609L36.7396 30.4706L36.7529 30.4801L37.9151 28.8525ZM37.9794 28.8984L39.3891 27.4797L39.2738 27.3651L39.1416 27.2707L37.9794 28.8984ZM39.4296 30.3394L38.0199 31.7581L39.4341 33.1633L40.8438 31.7536L39.4296 30.3394ZM40.7237 29.0452L42.138 30.4594L43.5522 29.0452L42.1379 27.631L40.7237 29.0452ZM39.2827 27.6042H37.2827V28.4326L37.8685 29.0184L39.2827 27.6042ZM39.2827 27.5308H41.2827V26.7661L40.7726 26.1965L39.2827 27.5308ZM39.1818 27.3839L40.9611 26.4706L40.9231 26.3966L40.879 26.3259L39.1818 27.3839ZM39.1083 27.2187H37.1083V27.4996L37.1857 27.7696L39.1083 27.2187ZM39.1083 26.8699H41.1083V26.7848L41.1011 26.6999L39.1083 26.8699ZM39.1083 26.7139L37.1641 26.2448L37.1285 26.3925L37.1155 26.5439L39.1083 26.7139ZM39.1818 26.5395L40.876 27.6023L41.1818 27.1149V26.5395H39.1818ZM39.1818 26.4569L37.476 25.4127L37.1818 25.8933V26.4569H39.1818ZM40.0996 24.1806L42.0526 24.6117L42.0996 24.3987V24.1806H40.0996ZM40.0996 24.1072L38.3106 23.2131L38.0996 23.6353V24.1072H40.0996ZM40.1822 23.942L38.401 23.0323L38.3971 23.0401L38.3931 23.0479L40.1822 23.942ZM40.274 23.8043L38.7587 22.4989L38.754 22.5044L38.7493 22.51L40.274 23.8043ZM40.4025 23.685L41.5922 25.2926L41.6502 25.2497L41.705 25.2027L40.4025 23.685ZM40.5493 23.584L41.5001 25.3436L41.5255 25.3298L41.5506 25.3154L40.5493 23.584ZM40.7054 23.5289L40.4237 21.5489L40.4108 21.5507L40.398 21.5527L40.7054 23.5289ZM40.8889 23.5289L40.6073 25.509L40.9154 25.5528L41.2222 25.501L40.8889 23.5289ZM40.9624 23.5289L40.6291 25.501L40.7946 25.5289H40.9624V23.5289ZM43 23.5289V25.5289H45V23.5289H43ZM43 22.9231H45V20.9231H43V22.9231ZM38.2925 22.9231V20.9231H36.4393L36.2983 22.7709L38.2925 22.9231ZM37.6549 25.1608L35.882 24.2352L35.882 24.2352L37.6549 25.1608ZM35.8878 27.1603L34.7607 25.5081L34.7607 25.5081L35.8878 27.1603ZM28.8061 25.9368L30.4047 24.735L30.4047 24.735L28.8061 25.9368ZM27.7433 23.4485L29.7156 23.1166V23.1166L27.7433 23.4485ZM27.6792 22.9231L29.6734 22.771L29.5324 20.9231H27.6792V22.9231ZM25 23.5473V22.9231H21V23.5473H25ZM25.0376 21.5473L23 21.5473L23 25.5473L25.0376 25.5473V21.5473ZM25.4306 21.5715C25.1976 21.5349 24.9603 21.5349 24.7272 21.5715L25.348 25.5231C25.1697 25.5511 24.9882 25.5511 24.8099 25.5231L25.4306 21.5715ZM25.6222 21.5743C25.3476 21.5287 25.0673 21.5287 24.7926 21.5743L25.4478 25.5203C25.2887 25.5467 25.1262 25.5467 24.967 25.5203L25.6222 21.5743ZM26.4101 21.8425C26.1547 21.7046 25.8774 21.6122 25.5903 21.5693L24.999 25.5253C24.8276 25.4997 24.662 25.4445 24.5096 25.3622L26.4101 21.8425ZM26.9535 22.2332C26.8014 22.0929 26.6339 21.9701 26.4544 21.8672L24.4653 25.3375C24.3848 25.2914 24.3098 25.2364 24.2415 25.1735L26.9535 22.2332ZM27.3097 22.6012C27.1389 22.3797 26.9324 22.1879 26.6985 22.0336L24.4966 25.373C24.3609 25.2836 24.2412 25.1723 24.1423 25.0441L27.3097 22.6012ZM27.5622 22.9658C27.459 22.7858 27.3361 22.6184 27.1961 22.4666L24.2559 25.1786C24.1933 25.1108 24.1382 25.0358 24.0918 24.9549L27.5622 22.9658ZM27.7282 23.3136L27.6548 23.1484L23.9992 24.7723L24.0726 24.9375L27.7282 23.3136ZM27.9004 24.1989V24.1255H23.9004V24.1989H27.9004ZM28.5186 25.4223C28.2052 24.9161 27.9809 24.3599 27.8556 23.7779L23.9452 24.62C24.1669 25.6493 24.5635 26.633 25.1179 27.5282L28.5186 25.4223ZM28.8182 26.5762V26.4752H24.8182V26.5762H28.8182ZM28.8182 26.6588V26.5762H24.8182V26.6588H28.8182ZM28.8733 26.9685C28.8729 26.6302 28.8137 26.2945 28.6982 25.9765L24.9382 27.3412C24.8954 27.2232 24.8735 27.0987 24.8733 26.9732L28.8733 26.9685ZM28.6981 27.9565C28.8103 27.6476 28.8695 27.3221 28.8732 26.9936L24.8734 26.9482C24.8748 26.8263 24.8968 26.7056 24.9384 26.5911L28.6981 27.9565ZM28.8182 27.338V27.2738H24.8182V27.338H28.8182ZM28.1014 28.9737C28.3341 28.726 28.5217 28.4396 28.6558 28.1275L24.9807 26.5486C25.0304 26.4328 25.0999 26.3266 25.1863 26.2347L28.1014 28.9737ZM26.6171 30.4594L28.0581 29.0184L25.2296 26.19L23.7886 27.631L26.6171 30.4594ZM27.9112 28.9252L26.6171 27.631L23.7886 30.4594L25.0828 31.7536L27.9112 28.9252ZM26.5375 27.4797L25.0873 28.9207L27.9067 31.7581L29.357 30.3171L26.5375 27.4797ZM26.8493 27.2248L26.785 27.2707L29.1094 30.526L29.1737 30.4801L26.8493 27.2248ZM27.2566 26.971C27.0809 27.0609 26.9147 27.1684 26.7606 27.292L29.2624 30.413C29.2052 30.4588 29.1436 30.4987 29.0784 30.532L27.2566 26.971ZM27.9078 26.7309C27.6151 26.7931 27.3364 26.908 27.0851 27.0697L29.2499 30.4333C29.0941 30.5336 28.921 30.605 28.7392 30.6436L27.9078 26.7309ZM28.6439 26.6933C28.4856 26.681 28.3266 26.681 28.1683 26.6933L28.4787 30.6812C28.4304 30.685 28.3819 30.685 28.3335 30.6812L28.6439 26.6933ZM28.8116 26.6928C28.6547 26.6811 28.4972 26.6811 28.3403 26.6928L28.6372 30.6817C28.5964 30.6848 28.5555 30.6848 28.5147 30.6817L28.8116 26.6928ZM28.9548 26.6907C28.8186 26.6827 28.6821 26.6827 28.5458 26.6907L28.7804 30.6838C28.7604 30.685 28.7403 30.685 28.7202 30.6838L28.9548 26.6907ZM29.8601 26.9446C29.7199 26.8781 29.5749 26.8216 29.4262 26.7759L28.2489 30.5987C28.2133 30.5877 28.1787 30.5742 28.1454 30.5584L29.8601 26.9446ZM29.0854 26.7515H29.0027V30.7515H29.0854V26.7515ZM31.7827 27.7142C31.2007 27.5889 30.6445 27.3646 30.1383 27.0511L28.0324 30.4519C28.9276 31.0062 29.9112 31.4029 30.9405 31.6245L31.7827 27.7142ZM31.4443 27.6694H31.3616V31.6694H31.4443V27.6694ZM32.3605 27.8861L32.232 27.831L30.6565 31.5077L30.785 31.5628L32.3605 27.8861ZM33.0315 28.3092C32.8634 28.1667 32.6795 28.0441 32.4833 27.9437L30.6622 31.5052C30.5843 31.4653 30.5112 31.4166 30.4445 31.36L33.0315 28.3092ZM33.2442 28.5124L33.1524 28.4206L30.3236 31.2486L30.4153 31.3404L33.2442 28.5124ZM33.7293 29.1893C33.6199 28.9755 33.4837 28.7766 33.3243 28.5973L30.3352 31.2554C30.2697 31.1818 30.2138 31.1001 30.1688 31.0123L33.7293 29.1893ZM33.7599 29.2439L33.7048 29.143L30.1933 31.0585L30.2484 31.1595L33.7599 29.2439ZM34.0683 30.5169C34.0656 30.1571 33.9963 29.801 33.8641 29.4664L30.1442 30.937C30.0952 30.813 30.0695 30.6809 30.0685 30.5474L34.0683 30.5169ZM34.0684 32.5698V30.5322H30.0684V32.5698H34.0684ZM33.9041 30.5698H32.0684V34.5698H33.9041V30.5698ZM31.9041 30.5322V32.5698H35.9041V30.5322H31.9041ZM31.9041 30.4495V30.5322H35.9041V30.4495H31.9041ZM31.9041 30.2751V30.4495H35.9041V30.2751H31.9041ZM32.1044 29.3849L32.0401 29.5501L35.7681 31.0001L35.8323 30.8349L32.1044 29.3849ZM32.3959 28.863L32.3042 29.0007L35.6326 31.2192L35.7243 31.0815L32.3959 28.863ZM32.8741 28.3285C32.7173 28.4635 32.5759 28.6158 32.4524 28.7826L35.6678 31.1619C35.6141 31.2345 35.5527 31.3005 35.4848 31.359L32.8741 28.3285ZM33.1344 28.13L32.9967 28.2309L35.3622 31.4566L35.4999 31.3556L33.1344 28.13ZM33.8949 27.7604C33.7131 27.8173 33.5368 27.8914 33.3686 27.982L35.2657 31.5036C35.2088 31.5342 35.1493 31.5592 35.0882 31.5783L33.8949 27.7604ZM34.5649 27.6694H34.4915V31.6694H34.5649V27.6694ZM35.7938 27.0477C35.2831 27.3617 34.7232 27.5875 34.1375 27.7156L34.9923 31.6232C36.0164 31.3991 36.9956 31.0043 37.8887 30.4553L35.7938 27.0477ZM36.9146 26.7515H36.8412V30.7515H36.9146V26.7515ZM36.5783 26.7536C36.3959 26.8017 36.2186 26.8671 36.0487 26.9487L37.7805 30.5544C37.7226 30.5822 37.6621 30.6045 37.5998 30.6209L36.5783 26.7536ZM37.4095 26.6933C37.2512 26.681 37.0921 26.681 36.9338 26.6933L37.2442 30.6812C37.1959 30.685 37.1474 30.685 37.0991 30.6812L37.4095 26.6933ZM37.5939 26.6941C37.4259 26.6802 37.2571 26.6802 37.0891 26.6941L37.4195 30.6804C37.3676 30.6847 37.3153 30.6847 37.2634 30.6804L37.5939 26.6941ZM37.7823 26.6953C37.605 26.6794 37.4266 26.6794 37.2494 26.6953L37.6079 30.6792C37.5466 30.6847 37.485 30.6847 37.4238 30.6792L37.7823 26.6953ZM38.7906 27.0381C38.5688 26.9045 38.3282 26.8055 38.0771 26.7443L37.1289 30.6303C36.9878 30.5958 36.8524 30.5402 36.7276 30.465L38.7906 27.0381ZM39.1038 27.2441C38.9872 27.1579 38.8655 27.0791 38.7392 27.0081L36.779 30.4949C36.7608 30.4847 36.7433 30.4733 36.7264 30.4609L39.1038 27.2441ZM39.1416 27.2707L39.0773 27.2248L36.7529 30.4801L36.8171 30.526L39.1416 27.2707ZM40.8393 28.9207L39.3891 27.4797L36.5697 30.3171L38.0199 31.7581L40.8393 28.9207ZM39.3095 27.631L38.0154 28.9252L40.8438 31.7536L42.138 30.4594L39.3095 27.631ZM37.8685 29.0184L39.3095 30.4594L42.1379 27.631L40.6969 26.19L37.8685 29.0184ZM37.2827 27.5308V27.6042H41.2827V27.5308H37.2827ZM37.4024 28.2972C37.5076 28.5021 37.6388 28.693 37.7928 28.865L40.7726 26.1965C40.847 26.2796 40.9103 26.3718 40.9611 26.4706L37.4024 28.2972ZM37.1857 27.7696C37.2537 28.0068 37.3543 28.2331 37.4845 28.4419L40.879 26.3259C40.9451 26.4319 40.9963 26.547 41.0309 26.6678L37.1857 27.7696ZM37.1083 27.0535V27.2187H41.1083V27.0535H37.1083ZM37.1083 26.8699V27.0535H41.1083V26.8699H37.1083ZM37.1155 26.5439C37.1015 26.7089 37.1015 26.8749 37.1155 27.0399L41.1011 26.6999C41.1063 26.7611 41.1063 26.8227 41.1011 26.8839L37.1155 26.5439ZM37.4875 25.4766C37.3391 25.7133 37.2298 25.9726 37.1641 26.2448L41.0525 27.183C41.0166 27.3317 40.9569 27.4733 40.876 27.6023L37.4875 25.4766ZM37.1818 26.4569V26.5395H41.1818V26.4569H37.1818ZM38.1466 23.7495C38.0169 24.3373 37.7902 24.8993 37.476 25.4127L40.8875 27.5011C41.4335 26.6093 41.8272 25.6328 42.0526 24.6117L38.1466 23.7495ZM38.0996 24.1072V24.1806H42.0996V24.1072H38.0996ZM38.3931 23.0479L38.3106 23.2131L41.8886 25.0012L41.9712 24.836L38.3931 23.0479ZM38.7493 22.51C38.6139 22.6695 38.4969 22.8446 38.401 23.0323L41.9633 24.8516C41.9178 24.9407 41.8625 25.0235 41.7987 25.0986L38.7493 22.51ZM39.2128 22.0773C39.0464 22.2004 38.894 22.3419 38.7587 22.4989L41.7893 25.1097C41.7305 25.1779 41.6644 25.2392 41.5922 25.2926L39.2128 22.0773ZM39.5986 21.8244C39.4206 21.9206 39.2535 22.0355 39.1001 22.1672L41.705 25.2027C41.6419 25.2568 41.5732 25.304 41.5001 25.3436L39.5986 21.8244ZM40.398 21.5527C40.0985 21.5993 39.8104 21.701 39.5481 21.8526L41.5506 25.3154C41.3846 25.4113 41.2023 25.4757 41.0127 25.5052L40.398 21.5527ZM41.1706 21.5489C40.9229 21.5136 40.6714 21.5136 40.4237 21.5489L40.9871 25.509C40.8611 25.5269 40.7332 25.5269 40.6073 25.509L41.1706 21.5489ZM41.2957 21.5569C41.0507 21.5155 40.8006 21.5155 40.5557 21.5569L41.2222 25.501C41.0259 25.5341 40.8254 25.5341 40.6291 25.501L41.2957 21.5569ZM43 21.5289H40.9624V25.5289H43V21.5289ZM41 22.9231V23.5289H45V22.9231H41ZM43 20.9231H38.2925V24.9231H43V20.9231ZM39.4278 26.0864C39.9159 25.1515 40.2066 24.1252 40.2867 23.0752L36.2983 22.7709C36.2589 23.2874 36.1161 23.7867 35.882 24.2352L39.4278 26.0864ZM37.015 28.8124C38.0305 28.1196 38.8567 27.1805 39.4279 26.0864L35.882 24.2352C35.608 24.76 35.22 25.1948 34.7607 25.5081L37.015 28.8124ZM33.6039 30.0361C34.8269 29.9288 35.9988 29.5057 37.015 28.8124L34.7607 25.5081C34.3021 25.821 33.7845 26.0049 33.2545 26.0514L33.6039 30.0361ZM30.0355 29.4206C31.154 29.9304 32.3807 30.1433 33.6039 30.0361L33.2545 26.0514C32.7247 26.0978 32.1894 26.0064 31.6943 25.7808L30.0355 29.4206ZM27.2075 27.1386C27.9483 28.124 28.9177 28.9112 30.0355 29.4206L31.6943 25.7808C31.1986 25.5549 30.7534 25.1987 30.4047 24.735L27.2075 27.1386ZM25.771 23.7803C25.9761 24.9994 26.467 26.1537 27.2075 27.1386L30.4047 24.735C30.0557 24.2707 29.8163 23.7152 29.7156 23.1166L25.771 23.7803ZM25.685 23.0752C25.703 23.3109 25.7316 23.5462 25.771 23.7803L29.7156 23.1166C29.6963 23.002 29.6822 22.8866 29.6734 22.771L25.685 23.0752ZM27.6792 20.9231H23V24.9231H27.6792V20.9231Z" fill="#428DFF" mask="url(#path-11-outside-1)"/>
</svg>
