<svg width="66" height="66" viewBox="0 0 66 66" fill="none" xmlns="http://www.w3.org/2000/svg">
<path d="M18.4313 3.5H41.6672L55.5 17.9495V57.3106C55.5 60.0632 53.2839 62.2797 50.5687 62.2797H18.4313C15.7161 62.2797 13.5 60.0632 13.5 57.3106V8.46907C13.5 5.71644 15.7161 3.5 18.4313 3.5Z" fill="#F5F5F5" stroke="#5992F7" stroke-width="3"/>
<path d="M41.9824 11.3871V5.85473L53.7321 17.0169H47.9613C44.6103 17.0169 41.9824 14.4486 41.9824 11.3871Z" fill="#E3E7F2" stroke="#5992F7" stroke-width="2"/>
<path opacity="0.965588" fill-rule="evenodd" clip-rule="evenodd" d="M18.7677 11.1526H23.1106C23.4797 11.1526 23.7788 11.4517 23.7788 11.8207V12.2568C23.7788 12.6258 23.4797 12.925 23.1106 12.925H18.7677C18.3987 12.925 18.0996 12.6258 18.0996 12.2568V11.8207C18.0996 11.4517 18.3987 11.1526 18.7677 11.1526ZM18.7677 14.4933H29.792C30.161 14.4933 30.4602 14.7924 30.4602 15.1614V15.5975C30.4602 15.9665 30.161 16.2657 29.792 16.2657H18.7677C18.3987 16.2657 18.0996 15.9665 18.0996 15.5975V15.1614C18.0996 14.7924 18.3987 14.4933 18.7677 14.4933ZM18.7677 17.8339H29.792C30.161 17.8339 30.4602 18.1331 30.4602 18.5021V18.9382C30.4602 19.3072 30.161 19.6064 29.792 19.6064H18.7677C18.3987 19.6064 18.0996 19.3072 18.0996 18.9382V18.5021C18.0996 18.1331 18.3987 17.8339 18.7677 17.8339Z" fill="#538EF7"/>
<path d="M50.8984 18.0169H54.712V56.5339C54.712 57.587 53.8583 58.4407 52.8052 58.4407C51.7521 58.4407 50.8984 57.587 50.8984 56.5339V18.0169Z" fill="#E3E7F2"/>
<path d="M15 57H55C55 59.2091 53.2091 61 51 61H19C16.7909 61 15 59.2091 15 57Z" fill="#E3E7F2"/>
<path d="M37.5025 43.4889L37.5025 42.4889L36.5025 42.4889L24.0528 42.4889C21.7223 42.4889 19.8655 40.6399 19.8655 38.3985C19.8655 36.1572 21.7223 34.3081 24.0528 34.3081L36.5025 34.3081L37.5025 34.3081L37.5025 33.3081L37.5025 26.5782C37.5025 26.2111 37.8111 25.8814 38.2316 25.8814C38.4233 25.8814 38.6044 25.9534 38.7386 26.0776L51.8751 38.2288L38.7386 50.3801C38.443 50.6536 37.9714 50.6388 37.6946 50.3506C37.5692 50.2201 37.5025 50.0513 37.5025 49.8795L37.5025 43.4889Z" fill="#F5F7FF" stroke="#5992F7" stroke-width="2"/>
</svg>
