<svg width="66" height="66" viewBox="0 0 66 66" fill="none" xmlns="http://www.w3.org/2000/svg">
<path d="M18.8174 15.419C19.0267 15.0383 19.184 15.0026 19.1926 15H47.5455C47.5541 15.0026 47.7114 15.0383 47.9207 15.419C48.1435 15.8242 48.3123 16.452 48.3123 17.2001V48.0009C48.3123 48.749 48.1435 49.3768 47.9207 49.7819C47.7114 50.1627 47.5541 50.1983 47.5455 50.2009H19.1926C19.184 50.1983 19.0267 50.1627 18.8174 49.7819C18.5946 49.3768 18.4258 48.749 18.4258 48.0009V17.2001C18.4258 16.452 18.5946 15.8242 18.8174 15.419Z" fill="#F5F7FF" stroke="#428DFF" stroke-width="2"/>
<path d="M42.5193 31.4634L40.323 31.0994C40.151 30.4046 39.8775 29.739 39.5114 29.124L40.8064 27.3336C40.9707 27.103 41.0477 26.8216 41.0236 26.5396C40.9996 26.2575 40.8761 25.9932 40.6752 25.7938L40.4185 25.5372C40.2191 25.3363 39.9548 25.2128 39.6728 25.1887C39.3907 25.1647 39.1093 25.2417 38.8788 25.4059L37.0884 26.701C36.4734 26.3349 35.8077 26.0614 35.113 25.8893L34.7489 23.6931C34.7019 23.4117 34.5557 23.1565 34.3367 22.9737C34.1177 22.7909 33.8405 22.6925 33.5553 22.6964H33.1853C32.9001 22.6925 32.6229 22.7909 32.4039 22.9737C32.185 23.1565 32.0388 23.4117 31.9917 23.6931L31.6277 25.8893C30.9329 26.0614 30.2673 26.3349 29.6523 26.701L27.8619 25.4059C27.6313 25.2417 27.3499 25.1647 27.0679 25.1887C26.7858 25.2128 26.5215 25.3363 26.3221 25.5372L26.0655 25.7938C25.8646 25.9932 25.7411 26.2575 25.717 26.5396C25.693 26.8216 25.77 27.103 25.9342 27.3336L27.2292 29.124C26.8631 29.739 26.5897 30.4046 26.4176 31.0994L24.2214 31.4634C23.94 31.5105 23.6848 31.6567 23.502 31.8757C23.3192 32.0946 23.2208 32.3718 23.2247 32.657V33.027C23.2208 33.3123 23.3192 33.5895 23.502 33.8084C23.6848 34.0274 23.94 34.1736 24.2214 34.2206L26.4176 34.5847C26.5897 35.2794 26.8631 35.9451 27.2292 36.5601L25.9342 38.3505C25.77 38.581 25.693 38.8624 25.717 39.1445C25.7411 39.4265 25.8646 39.6908 26.0655 39.8902L26.3221 40.1469C26.5215 40.3478 26.7858 40.4713 27.0679 40.4953C27.3499 40.5194 27.6313 40.4424 27.8619 40.2782L29.6523 38.9831C30.2673 39.3492 30.9329 39.6227 31.6277 39.7947L31.9917 41.991C32.0388 42.2723 32.185 42.5275 32.4039 42.7103C32.6229 42.8932 32.9001 42.9915 33.1853 42.9876H33.5553C33.8405 42.9915 34.1177 42.8932 34.3367 42.7103C34.5557 42.5275 34.7019 42.2723 34.7489 41.991L35.113 39.7947C35.8077 39.6227 36.4734 39.3492 37.0884 38.9831L38.8788 40.2782C39.1093 40.4424 39.3907 40.5194 39.6728 40.4953C39.9548 40.4713 40.2191 40.3478 40.4185 40.1469L40.6752 39.8902C40.8761 39.6908 40.9996 39.4265 41.0236 39.1445C41.0477 38.8624 40.9707 38.581 40.8064 38.3505L39.5114 36.5601C39.8775 35.9451 40.151 35.2794 40.323 34.5847L42.5193 34.2206C42.8006 34.1736 43.0558 34.0274 43.2386 33.8084C43.4215 33.5895 43.5198 33.3123 43.5159 33.027V32.657C43.5198 32.3718 43.4215 32.0946 43.2386 31.8757C43.0558 31.6567 42.8006 31.5105 42.5193 31.4634ZM33.3703 37.0017C32.5441 37.0017 31.7364 36.7567 31.0494 36.2977C30.3624 35.8386 29.8269 35.1862 29.5107 34.4228C29.1945 33.6595 29.1118 32.8195 29.273 32.0091C29.4342 31.1987 29.8321 30.4544 30.4163 29.8701C31.0006 29.2859 31.7449 28.888 32.5553 28.7268C33.3657 28.5656 34.2057 28.6483 34.969 28.9645C35.7324 29.2807 36.3848 29.8162 36.8439 30.5032C37.3029 31.1902 37.5479 31.9979 37.5479 32.8241C37.5479 33.9321 37.1078 34.9947 36.3243 35.7781C35.5409 36.5616 34.4783 37.0017 33.3703 37.0017Z" fill="#E4E7F1"/>
<path d="M42.9348 30.8147L41.0551 30.5C40.8953 29.9964 40.6889 29.5088 40.4388 29.0435L41.5482 27.4883C41.8034 27.1314 41.9236 26.6953 41.8875 26.2578C41.8514 25.8203 41.6612 25.41 41.3509 25.0999L41.0798 24.8345C40.7705 24.5254 40.3619 24.336 39.9264 24.2998C39.4909 24.2637 39.0567 24.3831 38.7008 24.637L37.1477 25.7479C36.6831 25.4974 36.1962 25.2908 35.6933 25.1307L35.3789 23.2793C35.3067 22.8423 35.0805 22.4457 34.7413 22.1615C34.402 21.8773 33.9723 21.7243 33.53 21.7302H33.1479C32.7109 21.7317 32.2886 21.888 31.9558 22.1716C31.623 22.4551 31.4012 22.8476 31.3298 23.2793L31.0155 25.1307C30.5126 25.2908 30.0257 25.4974 29.561 25.7479L28.0079 24.637C27.6515 24.3815 27.216 24.261 26.7792 24.2972C26.3423 24.3334 25.9325 24.5238 25.6228 24.8345L25.3578 25.0999C25.0475 25.41 24.8574 25.8203 24.8213 26.2578C24.7851 26.6953 24.9054 27.1314 25.1606 27.4883L26.27 29.0435C26.0198 29.5088 25.8135 29.9964 25.6537 30.5L23.8047 30.8147C23.3736 30.8862 22.9817 31.1082 22.6985 31.4415C22.4154 31.7748 22.2592 32.1977 22.2578 32.6353V33.0179C22.2592 33.4555 22.4154 33.8784 22.6985 34.2117C22.9817 34.545 23.3736 34.7671 23.8047 34.8385L25.6537 35.1533C25.8135 35.6569 26.0198 36.1445 26.27 36.6097L25.1606 38.165C24.9054 38.5219 24.7851 38.958 24.8213 39.3954C24.8574 39.8329 25.0475 40.2433 25.3578 40.5533L25.6228 40.8187C25.9692 41.166 26.4392 41.3614 26.9294 41.3618C27.3162 41.3624 27.6934 41.2415 28.0079 41.0162L29.561 39.9053C30.0257 40.1558 30.5126 40.3624 31.0155 40.5225L31.3298 42.4048C31.4012 42.8365 31.623 43.2289 31.9558 43.5125C32.2886 43.7961 32.7109 43.9524 33.1479 43.9538H33.53C33.9723 43.9598 34.402 43.8068 34.7413 43.5225C35.0805 43.2383 35.3067 42.8418 35.3789 42.4048L35.6933 40.5225C36.1962 40.3624 36.6831 40.1558 37.1477 39.9053L38.7008 41.0162C39.0567 41.2701 39.4909 41.3896 39.9264 41.3534C40.3619 41.3173 40.7705 41.1278 41.0798 40.8187L41.3509 40.5533C41.6612 40.2433 41.8514 39.8329 41.8875 39.3954C41.9236 38.958 41.8034 38.5219 41.5482 38.165L40.4388 36.6097C40.6889 36.1445 40.8953 35.6569 41.0551 35.1533L42.9348 34.8385C43.366 34.7671 43.7578 34.545 44.041 34.2117C44.3242 33.8784 44.4803 33.4555 44.4818 33.0179V32.6353C44.4803 32.1977 44.3242 31.7748 44.041 31.4415C43.7578 31.1082 43.366 30.8862 42.9348 30.8147ZM43.2491 33.0179C43.251 33.1659 43.1998 33.3095 43.1048 33.4228C43.0098 33.5361 42.8773 33.6114 42.7314 33.6351L40.4696 34.0115L40.3464 34.0609C40.3125 34.0704 40.2795 34.0828 40.2477 34.0979C40.2044 34.1278 40.165 34.163 40.1306 34.2029C40.1306 34.2029 40.0875 34.2029 40.0752 34.2584C40.0322 34.3155 40.0008 34.3805 39.9827 34.4497C39.817 35.101 39.5575 35.7247 39.2124 36.3012C39.1994 36.3268 39.1891 36.3537 39.1815 36.3814C39.1624 36.4277 39.1459 36.4751 39.1322 36.5233C39.1292 36.5644 39.1292 36.6057 39.1322 36.6468C39.1292 36.6837 39.1292 36.7209 39.1322 36.7579C39.1485 36.8119 39.1712 36.8637 39.2 36.9121L39.2308 36.9739L40.5559 38.8253C40.6415 38.9438 40.6823 39.0889 40.671 39.2347C40.6597 39.3805 40.5971 39.5176 40.4943 39.6214L40.2231 39.8868C40.1201 39.9907 39.9837 40.0546 39.838 40.067C39.6924 40.0794 39.5471 40.0396 39.4281 39.9547L37.5792 38.6217C37.5579 38.607 37.5352 38.5946 37.5113 38.5846C37.4649 38.5577 37.4152 38.537 37.3634 38.5229H37.2525C37.2115 38.5198 37.1703 38.5198 37.1292 38.5229L36.9937 38.5723C36.9637 38.5788 36.9347 38.5892 36.9074 38.6031C36.3326 38.9505 35.7095 39.2105 35.0584 39.3746C34.9787 39.3924 34.9033 39.426 34.8366 39.4733L34.7688 39.5474C34.7333 39.578 34.7022 39.6133 34.6763 39.6523C34.6524 39.7281 34.6236 39.8023 34.5901 39.8745L34.2141 42.1394C34.1905 42.2854 34.1153 42.4181 34.0021 42.5133C33.889 42.6084 33.7455 42.6597 33.5978 42.6578H33.2157C33.068 42.6597 32.9245 42.6084 32.8114 42.5133C32.6982 42.4181 32.623 42.2854 32.5994 42.1394L32.2235 39.8745V39.8313C32.2129 39.7677 32.1898 39.7069 32.1557 39.6523C32.1302 39.6166 32.1014 39.5835 32.0694 39.5536C32.0464 39.5253 32.0217 39.4985 31.9954 39.4733C31.9375 39.4372 31.8754 39.4082 31.8105 39.3869H31.7797C31.1289 39.2221 30.5059 38.9622 29.9308 38.6155H29.8569C29.8097 38.5916 29.7601 38.573 29.7089 38.5599C29.6658 38.5569 29.6226 38.5569 29.5795 38.5599H29.4439C29.39 38.5762 29.3382 38.599 29.2898 38.6278C29.2898 38.6278 29.2467 38.6278 29.2282 38.6587L27.3793 39.9856C27.261 40.0713 27.1161 40.1121 26.9705 40.1008C26.8249 40.0895 26.688 40.0268 26.5843 39.9238L26.3193 39.6523C26.2155 39.5492 26.1518 39.4125 26.1393 39.2667C26.1269 39.1209 26.1667 38.9754 26.2515 38.8562L27.5827 37.0047C27.5903 36.9744 27.5944 36.9434 27.595 36.9121C27.6218 36.8678 27.6425 36.8201 27.6566 36.7702C27.6628 36.7314 27.6628 36.6918 27.6566 36.6529C27.6595 36.6139 27.6595 36.5747 27.6566 36.5357C27.6437 36.4824 27.6251 36.4307 27.6012 36.3814C27.6012 36.3814 27.6012 36.3382 27.6012 36.3135C27.2555 35.7374 26.9959 35.1136 26.8308 34.4621V34.4189C26.8116 34.358 26.7847 34.3 26.7507 34.2461C26.7255 34.2197 26.6988 34.195 26.6706 34.172C26.6421 34.1385 26.6088 34.1094 26.5719 34.0856C26.5257 34.0597 26.4759 34.041 26.424 34.0301C26.424 34.0301 26.3809 34.0301 26.3501 33.9992L24.0882 33.6227C23.9424 33.5991 23.8099 33.5238 23.7149 33.4105C23.6199 33.2972 23.5686 33.1535 23.5705 33.0056V32.623C23.5686 32.475 23.6199 32.3313 23.7149 32.2181C23.8099 32.1048 23.9424 32.0295 24.0882 32.0058L26.3501 31.6293H26.3932L26.5288 31.58L26.6028 31.5368C26.6469 31.5102 26.6847 31.4744 26.7137 31.4318C26.7265 31.4159 26.741 31.4015 26.7568 31.3886C26.7998 31.327 26.8311 31.2579 26.8493 31.185C27.0144 30.5335 27.274 29.9097 27.6197 29.3335C27.6197 29.3335 27.6197 29.2842 27.6197 29.2656C27.6436 29.2163 27.6622 29.1646 27.6751 29.1114C27.678 29.0723 27.678 29.0331 27.6751 28.9941C27.6813 28.9553 27.6813 28.9157 27.6751 28.8768C27.661 28.827 27.6403 28.7792 27.6135 28.7349C27.6037 28.709 27.5913 28.6842 27.5765 28.6608L26.2453 26.8094C26.1597 26.6909 26.1189 26.5458 26.1302 26.4C26.1415 26.2542 26.2041 26.1171 26.3069 26.0133L26.5781 25.7479C26.6811 25.644 26.8175 25.5802 26.9632 25.5677C27.1088 25.5553 27.2541 25.5951 27.3732 25.68L29.2221 27.013C29.2836 27.0506 29.3499 27.0797 29.4193 27.0994H29.5302H29.6042H29.6473C29.7166 27.089 29.7834 27.066 29.8445 27.0316C30.4199 26.6854 31.0428 26.4255 31.6934 26.2601H31.7243C31.7734 26.2463 31.8194 26.2233 31.8598 26.1922L31.9276 26.1552C31.9694 26.1187 32.0067 26.0772 32.0386 26.0318L32.0755 25.9886C32.1155 25.9223 32.1427 25.849 32.1557 25.7726L32.5316 23.5076C32.5552 23.3616 32.6305 23.2289 32.7436 23.1338C32.8567 23.0386 33.0002 22.9873 33.1479 22.9892H33.53C33.6777 22.9873 33.8212 23.0386 33.9344 23.1338C34.0475 23.2289 34.1227 23.3616 34.1463 23.5076L34.5223 25.7726C34.5239 25.789 34.5239 25.8055 34.5223 25.8219C34.5384 25.8839 34.5611 25.9439 34.5901 26.0009L34.6702 26.0873C34.6936 26.119 34.7205 26.148 34.7503 26.1737C34.8041 26.2078 34.8621 26.2348 34.9229 26.254H34.966C35.6166 26.4193 36.2395 26.6792 36.8149 27.0254C36.8738 27.0597 36.9386 27.0827 37.006 27.0933H37.0614H37.1292H37.2402H37.271C37.3403 27.0735 37.4066 27.0444 37.4682 27.0069L39.3171 25.6738C39.4362 25.5889 39.5815 25.5491 39.7271 25.5615C39.8727 25.574 40.0092 25.6378 40.1122 25.7417L40.3833 26.0071C40.4861 26.111 40.5488 26.248 40.56 26.3938C40.5713 26.5396 40.5306 26.6847 40.445 26.8032L39.1199 28.6547L39.0891 28.7164C39.0603 28.7649 39.0375 28.8167 39.0213 28.8707C39.0182 28.9076 39.0182 28.9448 39.0213 28.9818C39.0182 29.0228 39.0182 29.0641 39.0213 29.1052C39.035 29.1534 39.0514 29.2008 39.0706 29.2471C39.0781 29.2749 39.0885 29.3017 39.1014 29.3274C39.4466 29.9038 39.7061 30.5275 39.8718 31.1788C39.89 31.2518 39.9213 31.3208 39.9642 31.3825L40.0074 31.4257C40.0381 31.4667 40.0756 31.5022 40.1183 31.5306L40.1923 31.5738L40.3279 31.6232H40.371L42.6328 31.9996C42.7787 32.0233 42.9112 32.0986 43.0062 32.2119C43.1012 32.3252 43.1524 32.4689 43.1505 32.6168L43.2491 33.0179Z" fill="#428DFF"/>
<path d="M33.3684 28.0107C32.4129 28.0107 31.4788 28.2941 30.6843 28.825C29.8898 29.3558 29.2705 30.1104 28.9049 30.9932C28.5392 31.876 28.4435 32.8474 28.6299 33.7846C28.8164 34.7217 29.2765 35.5826 29.9522 36.2583C30.6278 36.9339 31.4887 37.3941 32.4259 37.5805C33.363 37.7669 34.3344 37.6712 35.2173 37.3056C36.1001 36.9399 36.8546 36.3206 37.3855 35.5261C37.9163 34.7316 38.1997 33.7976 38.1997 32.842C38.1997 31.5607 37.6907 30.3318 36.7846 29.4258C35.8786 28.5198 34.6497 28.0107 33.3684 28.0107ZM33.3684 36.4655C32.6517 36.4655 31.9512 36.253 31.3553 35.8548C30.7594 35.4567 30.295 34.8908 30.0208 34.2287C29.7465 33.5666 29.6747 32.838 29.8146 32.1351C29.9544 31.4322 30.2995 30.7866 30.8062 30.2799C31.313 29.7731 31.9586 29.428 32.6615 29.2882C33.3644 29.1484 34.0929 29.2201 34.755 29.4944C35.4172 29.7686 35.9831 30.2331 36.3812 30.8289C36.7794 31.4248 36.9919 32.1254 36.9919 32.842C36.9919 33.803 36.6101 34.7247 35.9306 35.4042C35.251 36.0837 34.3294 36.4655 33.3684 36.4655Z" fill="#428DFF"/>
<path fill-rule="evenodd" clip-rule="evenodd" d="M17.426 31.9326H13.7761L13.7761 23.7478C13.7761 23.0243 13.4877 22.3303 12.9742 21.8186C12.4608 21.307 11.7644 21.0196 11.0384 21.0196L8.30062 21.0196V20.1102C8.30062 19.3866 8.0122 18.6926 7.49877 18.181C6.98535 17.6693 6.28898 17.3819 5.56289 17.3819L3.73773 17.3819C3.01164 17.3819 2.31527 17.6693 1.80185 18.181C1.28843 18.6926 1 19.3866 1 20.1102L1 23.7478C1 24.4714 1.28843 25.1653 1.80185 25.677C2.31527 26.1886 3.01164 26.4761 3.73773 26.4761L5.56289 26.4761C6.28898 26.4761 6.98535 26.1886 7.49877 25.677C8.0122 25.1653 8.30062 24.4714 8.30062 23.7478V22.8384H11.0384C11.2804 22.8384 11.5125 22.9342 11.6837 23.1047C11.8548 23.2753 11.9509 23.5066 11.9509 23.7478V31.9326H8.30062V31.0232C8.30062 30.2996 8.0122 29.6057 7.49877 29.094C6.98535 28.5824 6.28898 28.2949 5.56289 28.2949L3.73773 28.2949C3.01164 28.2949 2.31527 28.5824 1.80185 29.094C1.28843 29.6057 1 30.2996 1 31.0232L1 34.6609C1 35.3844 1.28842 36.0784 1.80185 36.59C2.31527 37.1016 3.01164 37.3891 3.73773 37.3891H5.56289C6.28898 37.3891 6.98535 37.1016 7.49877 36.59C8.0122 36.0784 8.30062 35.3844 8.30062 34.6609V33.7514H11.9509L11.9509 41.9362C11.9509 42.1774 11.8548 42.4087 11.6837 42.5793C11.5125 42.7498 11.2804 42.8456 11.0384 42.8456H8.30062V41.9362C8.30062 41.2126 8.0122 40.5187 7.49877 40.007C6.98535 39.4954 6.28898 39.208 5.56289 39.208H3.73773C3.01164 39.208 2.31527 39.4954 1.80185 40.007C1.28842 40.5187 1 41.2126 1 41.9362L1 45.5739C1 46.2975 1.28842 46.9914 1.80185 47.503C2.31527 48.0147 3.01164 48.3022 3.73773 48.3022H5.56289C6.28898 48.3022 6.98535 48.0147 7.49877 47.503C8.0122 46.9914 8.30062 46.2975 8.30062 45.5739V44.6645H11.0384C11.7644 44.6645 12.4608 44.377 12.9742 43.8654C13.4877 43.3537 13.7761 42.6598 13.7761 41.9362V33.7514H17.426V31.9326ZM3.73773 24.6573H5.56289C5.80492 24.6573 6.03708 24.5614 6.20822 24.3909C6.37936 24.2203 6.47547 23.989 6.47547 23.7478V20.1102C6.47547 19.869 6.37936 19.6376 6.20822 19.4671C6.03708 19.2965 5.80492 19.2007 5.56289 19.2007H3.73773C3.4957 19.2007 3.26354 19.2965 3.0924 19.4671C2.92126 19.6376 2.82516 19.869 2.82516 20.1102L2.82516 23.7478C2.82516 23.989 2.92126 24.2203 3.0924 24.3909C3.26354 24.5614 3.4957 24.6573 3.73773 24.6573ZM3.73773 35.5703H5.56289C5.80492 35.5703 6.03708 35.4745 6.20822 35.3039C6.37936 35.1334 6.47547 34.9021 6.47547 34.6609V31.0232C6.47547 30.782 6.37936 30.5506 6.20822 30.3801C6.03708 30.2095 5.80492 30.1138 5.56289 30.1138H3.73773C3.4957 30.1138 3.26354 30.2095 3.0924 30.3801C2.92126 30.5506 2.82516 30.782 2.82516 31.0232L2.82516 34.6609C2.82516 34.9021 2.92126 35.1334 3.0924 35.3039C3.26354 35.4745 3.4957 35.5703 3.73773 35.5703ZM3.73773 46.4833H5.56289C5.80492 46.4833 6.03708 46.3875 6.20822 46.2169C6.37936 46.0464 6.47547 45.8151 6.47547 45.5739V41.9362C6.47547 41.695 6.37936 41.4637 6.20822 41.2931C6.03708 41.1226 5.80492 41.0268 5.56289 41.0268H3.73773C3.4957 41.0268 3.26354 41.1226 3.0924 41.2931C2.92126 41.4637 2.82516 41.695 2.82516 41.9362L2.82516 45.5739C2.82516 45.8151 2.92126 46.0464 3.0924 46.2169C3.26354 46.3875 3.4957 46.4833 3.73773 46.4833Z" fill="#428DFF"/>
<path fill-rule="evenodd" clip-rule="evenodd" d="M49.3123 33.7515L52.9622 33.7515L52.9622 41.9362C52.9622 42.6598 53.2506 43.3538 53.764 43.8654C54.2775 44.3771 54.9738 44.6645 55.6999 44.6645L58.4377 44.6645L58.4377 45.5739C58.4377 46.2975 58.7261 46.9915 59.2395 47.5031C59.7529 48.0148 60.4493 48.3022 61.1754 48.3022L63.0005 48.3022C63.7266 48.3022 64.423 48.0148 64.9364 47.5031C65.4499 46.9915 65.7383 46.2975 65.7383 45.5739L65.7383 41.9362C65.7383 41.2127 65.4499 40.5188 64.9364 40.0071C64.423 39.4955 63.7266 39.208 63.0005 39.208L61.1754 39.208C60.4493 39.208 59.7529 39.4955 59.2395 40.0071C58.7261 40.5188 58.4377 41.2127 58.4377 41.9362L58.4377 42.8457L55.6999 42.8457C55.4579 42.8457 55.2257 42.7499 55.0546 42.5793C54.8835 42.4088 54.7874 42.1774 54.7874 41.9362L54.7874 33.7515L58.4377 33.7515L58.4377 34.6609C58.4377 35.3845 58.7261 36.0784 59.2395 36.5901C59.7529 37.1017 60.4493 37.3892 61.1754 37.3892L63.0005 37.3892C63.7266 37.3892 64.423 37.1017 64.9364 36.5901C65.4499 36.0784 65.7383 35.3845 65.7383 34.6609L65.7383 31.0232C65.7383 30.2996 65.4499 29.6057 64.9364 29.0941C64.423 28.5824 63.7266 28.295 63.0005 28.295L61.1754 28.295C60.4493 28.295 59.7529 28.5824 59.2395 29.0941C58.7261 29.6057 58.4377 30.2996 58.4377 31.0232L58.4377 31.9326L54.7874 31.9326L54.7874 23.7479C54.7874 23.5067 54.8835 23.2754 55.0546 23.1048C55.2257 22.9343 55.4579 22.8384 55.6999 22.8384L58.4377 22.8384L58.4377 23.7479C58.4377 24.4714 58.7261 25.1654 59.2395 25.677C59.7529 26.1887 60.4493 26.4761 61.1754 26.4761L63.0006 26.4761C63.7266 26.4761 64.423 26.1887 64.9364 25.677C65.4499 25.1654 65.7383 24.4714 65.7383 23.7479L65.7383 20.1102C65.7383 19.3866 65.4499 18.6927 64.9364 18.1811C64.423 17.6694 63.7266 17.3819 63.0006 17.3819L61.1754 17.3819C60.4493 17.3819 59.7529 17.6694 59.2395 18.1811C58.7261 18.6927 58.4377 19.3866 58.4377 20.1102L58.4377 21.0196L55.6999 21.0196C54.9738 21.0196 54.2775 21.3071 53.764 21.8187C53.2506 22.3304 52.9622 23.0243 52.9622 23.7479L52.9622 31.9326L49.3123 31.9326L49.3123 33.7515ZM63.0005 41.0268L61.1754 41.0268C60.9334 41.0268 60.7012 41.1227 60.5301 41.2932C60.3589 41.4638 60.2628 41.6951 60.2628 41.9362L60.2628 45.5739C60.2628 45.8151 60.3589 46.0465 60.5301 46.217C60.7012 46.3876 60.9334 46.4833 61.1754 46.4833L63.0005 46.4833C63.2426 46.4833 63.4747 46.3876 63.6459 46.217C63.817 46.0465 63.9131 45.8151 63.9131 45.5739L63.9131 41.9362C63.9131 41.6951 63.817 41.4638 63.6459 41.2932C63.4747 41.1227 63.2426 41.0268 63.0005 41.0268ZM63.0005 30.1138L61.1754 30.1138C60.9334 30.1138 60.7012 30.2096 60.5301 30.3802C60.3589 30.5507 60.2628 30.782 60.2628 31.0232L60.2628 34.6609C60.2628 34.9021 60.3589 35.1334 60.5301 35.304C60.7012 35.4745 60.9334 35.5703 61.1754 35.5703L63.0005 35.5703C63.2426 35.5703 63.4747 35.4745 63.6459 35.304C63.817 35.1334 63.9131 34.9021 63.9131 34.6609L63.9131 31.0232C63.9131 30.782 63.817 30.5507 63.6459 30.3802C63.4747 30.2096 63.2426 30.1138 63.0005 30.1138ZM63.0006 19.2008L61.1754 19.2008C60.9334 19.2008 60.7012 19.2966 60.5301 19.4671C60.3589 19.6377 60.2628 19.869 60.2628 20.1102L60.2628 23.7479C60.2628 23.9891 60.3589 24.2204 60.5301 24.391C60.7012 24.5615 60.9334 24.6573 61.1754 24.6573L63.0006 24.6573C63.2426 24.6573 63.4747 24.5615 63.6459 24.391C63.817 24.2204 63.9131 23.9891 63.9131 23.7479L63.9131 20.1102C63.9131 19.869 63.817 19.6377 63.6459 19.4671C63.4747 19.2966 63.2426 19.2008 63.0006 19.2008Z" fill="#428DFF"/>
<rect x="45.4473" y="15.9325" width="1.93252" height="33.3359" fill="#E4E7F1"/>
</svg>
