<svg width="66" height="66" viewBox="0 0 66 66" fill="none" xmlns="http://www.w3.org/2000/svg">
<path d="M61.9661 10.2418V39.2089H4.03516V10.2418C4.03662 8.95939 4.43523 7.70894 5.17619 6.66227C5.91714 5.61561 6.96408 4.8241 8.17308 4.39663C8.83608 4.15522 9.53647 4.03267 10.242 4.03457H55.7592C57.4054 4.03457 58.9842 4.68851 60.1482 5.85259C61.3122 7.01667 61.9661 8.59554 61.9661 10.2418Z" fill="#CCD3EB"/>
<path d="M58.8627 10.2418V39.2089H4.03516V10.2418C4.03662 8.95939 4.43523 7.70894 5.17619 6.66227C5.91714 5.61561 6.96408 4.8241 8.17308 4.39663C8.83608 4.15522 9.53647 4.03267 10.242 4.03457H52.6558C54.302 4.03457 55.8807 4.68851 57.0447 5.85259C58.2088 7.01667 58.8627 8.59554 58.8627 10.2418Z" fill="#F5F5F5"/>
<path d="M61.9661 38.1743V42.3125C61.9661 43.9588 61.3122 45.5376 60.1482 46.7017C58.9842 47.8658 57.4054 48.5198 55.7592 48.5198H10.242C8.59588 48.5198 7.01713 47.8658 5.85311 46.7017C4.68909 45.5376 4.03516 43.9588 4.03516 42.3125V38.1743H61.9661Z" fill="#F5F5F5"/>
<path d="M43.6451 60.9342H22.3555L26.6175 48.5198H39.3831L43.6451 60.9342Z" fill="#F5F5F5"/>
<path d="M45.4148 63.0033H20.5872C20.3129 63.0033 20.0497 62.8943 19.8557 62.7003C19.6617 62.5063 19.5527 62.2432 19.5527 61.9688C19.5527 61.6944 19.6617 61.4313 19.8557 61.2372C20.0497 61.0432 20.3129 60.9342 20.5872 60.9342H45.4148C45.6891 60.9342 45.9523 61.0432 46.1463 61.2372C46.3403 61.4313 46.4493 61.6944 46.4493 61.9688C46.4493 62.2432 46.3403 62.5063 46.1463 62.7003C45.9523 62.8943 45.6891 63.0033 45.4148 63.0033Z" fill="#0668CB"/>
<path d="M39.7406 19.9588H38.8712C38.7375 19.9639 38.6061 19.9222 38.4981 19.8404C38.3901 19.7585 38.3117 19.6414 38.2757 19.5077C38.1808 19.2081 38.0633 18.9167 37.9244 18.6363C37.8629 18.5202 37.8389 18.3866 37.856 18.2553C37.8732 18.124 37.9306 18.0019 38.0197 17.907L38.6151 17.289C38.726 17.1732 38.7883 17.0165 38.7883 16.8533C38.7883 16.69 38.726 16.5334 38.6151 16.4176L37.7755 15.54C37.7202 15.4821 37.6543 15.4361 37.5818 15.4047C37.5092 15.3734 37.4314 15.3572 37.3528 15.3572C37.2742 15.3572 37.1963 15.3734 37.1238 15.4047C37.0512 15.4361 36.9853 15.4821 36.93 15.54L36.3345 16.158C36.2431 16.2505 36.1254 16.31 35.9989 16.3278C35.8724 16.3456 35.7437 16.3208 35.6319 16.2569C35.3616 16.1128 35.0809 15.9908 34.7923 15.8923C34.6635 15.8549 34.5505 15.7736 34.4717 15.6615C34.3928 15.5494 34.3526 15.413 34.3576 15.2743V14.372C34.3576 14.2081 34.2948 14.0509 34.1832 13.935C34.0715 13.8191 33.92 13.754 33.7621 13.754H32.5712C32.4133 13.754 32.2618 13.8191 32.1501 13.935C32.0385 14.0509 31.9757 14.2081 31.9757 14.372V15.2743C31.9803 15.4138 31.9393 15.5508 31.8593 15.663C31.7793 15.7753 31.665 15.8561 31.5351 15.8923C31.2484 15.9908 30.9696 16.1128 30.7014 16.2569C30.5896 16.3208 30.4609 16.3456 30.3344 16.3278C30.2079 16.31 30.0902 16.2505 29.9988 16.158L29.4033 15.54C29.348 15.4821 29.2821 15.4361 29.2096 15.4047C29.137 15.3734 29.0592 15.3572 28.9805 15.3572C28.9019 15.3572 28.8241 15.3734 28.7516 15.4047C28.679 15.4361 28.6131 15.4821 28.5578 15.54L27.7182 16.4176C27.6073 16.5334 27.545 16.69 27.545 16.8533C27.545 17.0165 27.6073 17.1732 27.7182 17.289L28.3136 17.907C28.4027 18.0019 28.4601 18.124 28.4773 18.2553C28.4944 18.3866 28.4705 18.5202 28.4089 18.6363C28.2675 18.9155 28.15 19.2071 28.0576 19.5077C28.0216 19.6414 27.9432 19.7585 27.8352 19.8404C27.7272 19.9222 27.5958 19.9639 27.4621 19.9588H26.6404C26.4825 19.9588 26.331 20.0239 26.2193 20.1398C26.1077 20.2557 26.0449 20.4129 26.0449 20.5768V21.8129C26.0449 21.9768 26.1077 22.1339 26.2193 22.2498C26.331 22.3657 26.4825 22.4309 26.6404 22.4309H27.5098C27.6442 22.4261 27.7762 22.4687 27.8844 22.5517C27.9925 22.6348 28.0703 22.7534 28.1052 22.8882C28.1976 23.1867 28.3152 23.4763 28.4566 23.7534C28.5181 23.8695 28.5421 24.0031 28.5249 24.1344C28.5077 24.2657 28.4504 24.3878 28.3613 24.4827L27.7658 25.1007C27.6549 25.2165 27.5927 25.3731 27.5927 25.5364C27.5927 25.6997 27.6549 25.8563 27.7658 25.9721L28.6054 26.8497C28.6608 26.9076 28.7266 26.9536 28.7992 26.9849C28.8718 27.0163 28.9496 27.0325 29.0282 27.0325C29.1068 27.0325 29.1846 27.0163 29.2572 26.9849C29.3298 26.9536 29.3956 26.9076 29.451 26.8497L30.0464 26.2007C30.1379 26.1082 30.2555 26.0487 30.382 26.0309C30.5085 26.0131 30.6372 26.038 30.7491 26.1019C31.0161 26.2486 31.2951 26.3706 31.5827 26.4665C31.7126 26.5027 31.8269 26.5835 31.9069 26.6957C31.9869 26.808 32.028 26.945 32.0234 27.0845V27.9868C32.0234 28.1507 32.0861 28.3079 32.1978 28.4238C32.3094 28.5397 32.4609 28.6048 32.6188 28.6048H33.8098C33.9677 28.6048 34.1191 28.5397 34.2308 28.4238C34.3425 28.3079 34.4052 28.1507 34.4052 27.9868V27.0845C34.4003 26.9458 34.4405 26.8094 34.5193 26.6973C34.5982 26.5852 34.7111 26.5039 34.8399 26.4665C35.1295 26.3706 35.4104 26.2486 35.6795 26.1019C35.7914 26.038 35.92 26.0131 36.0466 26.0309C36.1731 26.0487 36.2907 26.1082 36.3822 26.2007L36.9776 26.8497C37.033 26.9076 37.0988 26.9536 37.1714 26.9849C37.244 27.0163 37.3218 27.0325 37.4004 27.0325C37.479 27.0325 37.5568 27.0163 37.6294 26.9849C37.702 26.9536 37.7678 26.9076 37.8232 26.8497L38.6628 25.9721C38.7737 25.8563 38.8359 25.6997 38.8359 25.5364C38.8359 25.3731 38.7737 25.2165 38.6628 25.1007L38.0673 24.4827C37.9782 24.3878 37.9208 24.2657 37.9037 24.1344C37.8865 24.0031 37.9105 23.8695 37.972 23.7534C38.1109 23.4751 38.2284 23.1857 38.3234 22.8882C38.3582 22.7534 38.4361 22.6348 38.5442 22.5517C38.6524 22.4687 38.7844 22.4261 38.9188 22.4309H39.7882C39.9461 22.4309 40.0976 22.3657 40.2093 22.2498C40.3209 22.1339 40.3837 21.9768 40.3837 21.8129V20.5768C40.3839 20.4913 40.3671 20.4067 40.3342 20.3283C40.3014 20.2499 40.2532 20.1794 40.1928 20.1213C40.1323 20.0633 40.0609 20.0189 39.9831 19.9909C39.9052 19.9629 39.8227 19.952 39.7406 19.9588ZM35.2806 23.5248C32.1484 25.8918 28.665 22.2887 30.9456 19.0256C30.9879 18.9632 31.0403 18.9088 31.1004 18.8649C34.2266 16.5041 37.71 20.101 35.4354 23.3641C35.3931 23.4265 35.3407 23.4809 35.2806 23.5248Z" fill="#CCD3EB"/>
<path d="M45.4148 63.0033H20.5872C20.3129 63.0033 20.0497 62.8943 19.8557 62.7003C19.6617 62.5063 19.5527 62.2432 19.5527 61.9688C19.5527 61.6944 19.6617 61.4313 19.8557 61.2372C20.0497 61.0432 20.3129 60.9342 20.5872 60.9342H45.4148C45.6891 60.9342 45.9523 61.0432 46.1463 61.2372C46.3403 61.4313 46.4493 61.6944 46.4493 61.9688C46.4493 62.2432 46.3403 62.5063 46.1463 62.7003C45.9523 62.8943 45.6891 63.0033 45.4148 63.0033Z" fill="#5992F7"/>
<path d="M34.0351 43.3471H31.9661C31.6918 43.3471 31.4287 43.4561 31.2347 43.6501C31.0406 43.8441 30.9316 44.1073 30.9316 44.3816C30.9316 44.656 31.0406 44.9191 31.2347 45.1131C31.4287 45.3072 31.6918 45.4162 31.9661 45.4162H34.0351C34.3095 45.4162 34.5726 45.3072 34.7666 45.1131C34.9606 44.9191 35.0696 44.656 35.0696 44.3816C35.0696 44.1073 34.9606 43.8441 34.7666 43.6501C34.5726 43.4561 34.3095 43.3471 34.0351 43.3471Z" fill="#5992F7"/>
<path d="M55.7586 3H10.2414C8.32085 3 6.47898 3.76295 5.12096 5.12105C3.76294 6.47915 3 8.32115 3 10.2418V43.3471C3 45.2677 3.76294 47.1097 5.12096 48.4678C6.47898 49.8259 8.32085 50.5889 10.2414 50.5889H25.169L21.3828 61.6378C21.33 61.7926 21.3147 61.9576 21.338 62.1195C21.3614 62.2813 21.4228 62.4354 21.5172 62.5689C21.6124 62.7026 21.7381 62.8117 21.8838 62.8873C22.0295 62.9628 22.191 63.0026 22.3552 63.0034H43.6345C43.799 63.0038 43.9612 62.965 44.1077 62.8902C44.2542 62.8153 44.3807 62.7067 44.4768 62.5732C44.5729 62.4397 44.6358 62.2851 44.6602 62.1225C44.6846 61.9598 44.6699 61.7936 44.6173 61.6378L40.8621 50.5889H55.7586C57.6792 50.5889 59.521 49.8259 60.8791 48.4678C62.2371 47.1097 63 45.2677 63 43.3471V10.2418C63 8.32115 62.2371 6.47915 60.8791 5.12105C59.521 3.76295 57.6792 3 55.7586 3ZM10.2414 5.06908H55.7586C57.1304 5.06908 58.4461 5.61407 59.4161 6.58414C60.3861 7.55421 60.931 8.8699 60.931 10.2418V38.1744H5.06897V10.2418C5.06897 8.8699 5.61393 7.55421 6.58394 6.58414C7.55396 5.61407 8.86957 5.06908 10.2414 5.06908ZM42.1862 60.9343H23.8035L27.3517 50.5889H38.6483L42.1862 60.9343ZM55.7586 48.5198H10.2414C8.86957 48.5198 7.55396 47.9748 6.58394 47.0047C5.61393 46.0347 5.06897 44.719 5.06897 43.3471V40.2435H60.931V43.3471C60.931 44.719 60.3861 46.0347 59.4161 47.0047C58.4461 47.9748 57.1304 48.5198 55.7586 48.5198Z" fill="#5992F7"/>
<path d="M26.2801 23.3263H27.2003C27.3093 23.6809 27.4507 24.0248 27.6226 24.3536L26.9923 24.9839C26.8751 25.101 26.7821 25.24 26.7187 25.393C26.6552 25.546 26.6226 25.7101 26.6226 25.8757C26.6226 26.0414 26.6552 26.2054 26.7187 26.3584C26.7821 26.5115 26.8751 26.6505 26.9923 26.7676L27.881 27.6563C27.9983 27.7742 28.1377 27.8678 28.2913 27.9317C28.4449 27.9955 28.6096 28.0283 28.776 28.0281C29.1097 28.0267 29.4293 27.893 29.6647 27.6563L30.2949 27.026C30.6237 27.1979 30.9676 27.3392 31.3223 27.4483V28.3685C31.3223 28.7028 31.4551 29.0234 31.6915 29.2598C31.9279 29.4962 32.2485 29.629 32.5828 29.629H33.8434C34.1777 29.629 34.4983 29.4962 34.7347 29.2598C34.9711 29.0234 35.1039 28.7028 35.1039 28.3685V27.4483C35.4565 27.3392 35.7983 27.1978 36.125 27.026L36.7552 27.6563C36.8725 27.7742 37.012 27.8678 37.1656 27.9317C37.3192 27.9955 37.4839 28.0283 37.6502 28.0281C37.8166 28.0283 37.9813 27.9955 38.1349 27.9317C38.2885 27.8678 38.428 27.7742 38.5452 27.6563L39.4339 26.7676C39.5511 26.6505 39.6441 26.5115 39.7075 26.3584C39.771 26.2054 39.8036 26.0414 39.8036 25.8757C39.8036 25.7101 39.771 25.546 39.7075 25.393C39.6441 25.24 39.5511 25.101 39.4339 24.9839L38.8036 24.3536C38.9729 24.0236 39.1141 23.6799 39.2259 23.3263H40.1461C40.4804 23.3263 40.8011 23.1935 41.0375 22.9571C41.2739 22.7207 41.4067 22.4 41.4067 22.0657V20.8052C41.4067 20.4709 41.2739 20.1502 41.0375 19.9138C40.8011 19.6774 40.4804 19.5446 40.1461 19.5446H39.2259C39.1141 19.193 38.9728 18.8515 38.8036 18.5236L39.4339 17.8933C39.5521 17.7761 39.6459 17.6367 39.7098 17.4831C39.7738 17.3295 39.8068 17.1647 39.8068 16.9983C39.8068 16.8319 39.7738 16.6672 39.7098 16.5135C39.6459 16.3599 39.5521 16.2205 39.4339 16.1033L38.5389 15.2146C38.4219 15.0974 38.2828 15.0045 38.1298 14.941C37.9768 14.8776 37.8127 14.8449 37.6471 14.8449C37.4814 14.8449 37.3174 14.8776 37.1644 14.941C37.0114 15.0045 36.8723 15.0974 36.7552 15.2146L36.125 15.8449C35.7971 15.6757 35.4555 15.5345 35.1039 15.4226V14.5024C35.1039 14.1681 34.9711 13.8475 34.7347 13.6111C34.4983 13.3747 34.1777 13.2419 33.8434 13.2419H32.5828C32.2485 13.2419 31.9279 13.3747 31.6915 13.6111C31.4551 13.8475 31.3223 14.1681 31.3223 14.5024V15.4226C30.9686 15.5345 30.625 15.6757 30.2949 15.8449L29.6647 15.2146C29.5476 15.0974 29.4086 15.0045 29.2555 14.941C29.1025 14.8776 28.9385 14.8449 28.7728 14.8449C28.6072 14.8449 28.4431 14.8776 28.2901 14.941C28.1371 15.0045 27.9981 15.0974 27.881 15.2146L26.9923 16.1096C26.8751 16.2267 26.7821 16.3657 26.7187 16.5187C26.6552 16.6718 26.6226 16.8358 26.6226 17.0014C26.6226 17.1671 26.6552 17.3312 26.7187 17.4842C26.7821 17.6372 26.8751 17.7762 26.9923 17.8933L27.6226 18.5236C27.4507 18.8502 27.3094 19.192 27.2003 19.5446H26.2801C25.9458 19.5446 25.6251 19.6774 25.3887 19.9138C25.1523 20.1502 25.0195 20.4709 25.0195 20.8052V22.0657C25.0195 22.4 25.1523 22.7207 25.3887 22.9571C25.6251 23.1935 25.9458 23.3263 26.2801 23.3263ZM26.2801 20.8052H27.6793C27.7568 20.8027 27.8334 20.7878 27.9062 20.7611L27.9755 20.7232L28.0953 20.6413C28.1159 20.6219 28.1349 20.6008 28.152 20.5783L28.2339 20.4648C28.2472 20.4365 28.2578 20.4069 28.2654 20.3766V20.3199C28.3874 19.7675 28.6004 19.2392 28.8957 18.7568C28.8957 18.7568 28.8957 18.719 28.8957 18.7C28.9131 18.6633 28.9279 18.6254 28.9398 18.5866C28.9424 18.5467 28.9424 18.5067 28.9398 18.4668C28.943 18.427 28.943 18.3869 28.9398 18.3471C28.9428 18.3093 28.9428 18.2714 28.9398 18.2336C28.929 18.1965 28.9142 18.1606 28.8957 18.1265C28.8743 18.0883 28.849 18.0524 28.8201 18.0194C28.8201 18.0194 28.8201 17.9879 28.8201 17.9753L27.8306 16.9794L28.7255 16.0907L29.7151 17.0802C29.7705 17.128 29.8319 17.1683 29.8979 17.2H29.942C30.0107 17.2249 30.0832 17.2377 30.1563 17.2378C30.2272 17.237 30.2976 17.2242 30.3643 17.2H30.421H30.4903C30.9723 16.9037 31.5007 16.6906 32.0534 16.5697H32.1038L32.2236 16.5193L32.3181 16.45C32.3501 16.4253 32.3778 16.3955 32.4 16.3617C32.4246 16.3328 32.4458 16.301 32.4631 16.2672C32.4814 16.2309 32.4962 16.1929 32.5072 16.1537C32.5138 16.1141 32.5138 16.0736 32.5072 16.034C32.5072 16.034 32.5072 15.9962 32.5072 15.9773V14.5781H33.7677V15.9773C33.7648 15.996 33.7648 16.0152 33.7677 16.034C33.7612 16.0736 33.7612 16.1141 33.7677 16.1537C33.7737 16.1935 33.7865 16.2319 33.8056 16.2672C33.8251 16.3012 33.8483 16.3329 33.8749 16.3617C33.8971 16.3955 33.9248 16.4253 33.9568 16.45C33.9856 16.4765 34.0174 16.4998 34.0514 16.5193L34.1648 16.5697H34.2152C34.7685 16.6889 35.2972 16.902 35.7783 17.2H35.8476H35.9044C35.9731 17.2249 36.0456 17.2377 36.1187 17.2378C36.1896 17.237 36.26 17.2242 36.3267 17.2H36.3708C36.4382 17.171 36.5001 17.1305 36.5536 17.0802L37.5431 16.0907L38.4318 16.9794L37.4422 17.9753L37.4107 18.0194C37.3841 18.0527 37.3608 18.0885 37.3414 18.1265C37.3203 18.1593 37.3054 18.1956 37.2973 18.2336C37.2944 18.2714 37.2944 18.3093 37.2973 18.3471C37.2943 18.387 37.2943 18.427 37.2973 18.4668C37.2949 18.5067 37.2949 18.5467 37.2973 18.5866C37.3092 18.6254 37.324 18.6633 37.3414 18.7V18.7568C37.6394 19.2379 37.8525 19.7666 37.9717 20.3199V20.3766L38.0095 20.4648C38.0303 20.5054 38.0556 20.5435 38.0851 20.5783L38.1482 20.6413C38.1845 20.6736 38.2247 20.7011 38.2679 20.7232L38.3372 20.7611C38.4095 20.7896 38.4864 20.8046 38.5641 20.8052H39.9633V22.0657H38.5641H38.5074H38.3877L38.2742 22.1099L38.1797 22.1729C38.1473 22.1968 38.1177 22.2243 38.0914 22.2548L38.0221 22.3494C38.0015 22.3876 37.9846 22.4277 37.9717 22.4691V22.5195C37.8508 23.0722 37.6377 23.6006 37.3414 24.0826V24.133C37.323 24.1714 37.3082 24.2115 37.2973 24.2528C37.2944 24.2905 37.2944 24.3285 37.2973 24.3662C37.294 24.4061 37.294 24.4461 37.2973 24.486C37.2937 24.5258 37.2937 24.5659 37.2973 24.6057C37.3065 24.6435 37.3214 24.6796 37.3414 24.7129C37.3623 24.75 37.3854 24.7858 37.4107 24.82L37.4422 24.8642L38.4318 25.86L37.5431 26.7487L36.5536 25.7591C36.5536 25.7591 36.5157 25.7591 36.5031 25.7591C36.4726 25.7318 36.4387 25.7085 36.4023 25.6898C36.367 25.6678 36.3288 25.6508 36.2888 25.6394H36.1754H36.0493C36.0137 25.6363 35.9779 25.6363 35.9422 25.6394C35.8998 25.6496 35.8594 25.6666 35.8224 25.6898H35.7657C35.2833 25.9851 34.755 26.1982 34.2026 26.3201C34.2026 26.3201 34.1711 26.3201 34.1522 26.3201L34.0388 26.3768C34.0049 26.3941 33.9732 26.4152 33.9442 26.4398C33.9137 26.4661 33.8862 26.4957 33.8623 26.5281C33.8356 26.5591 33.8124 26.5929 33.793 26.6289C33.7738 26.662 33.761 26.6983 33.7551 26.736C33.7492 26.7779 33.7492 26.8203 33.7551 26.8621C33.7523 26.8788 33.7523 26.8959 33.7551 26.9125V28.3117H32.4946V26.9125C32.4946 26.9125 32.4946 26.9125 32.4946 26.8621C32.5005 26.8203 32.5005 26.7779 32.4946 26.736C32.4609 26.6214 32.3953 26.5187 32.3055 26.4398L32.211 26.3768C32.1729 26.3541 32.1328 26.3352 32.0912 26.3201C32.0912 26.3201 32.0597 26.3201 32.0408 26.3201C31.4888 26.197 30.9607 25.9841 30.4777 25.6898C30.4777 25.6898 30.4462 25.6898 30.4273 25.6898C30.3898 25.6677 30.3495 25.6507 30.3075 25.6394H30.1941H30.068H29.9609C29.9215 25.6524 29.8835 25.6693 29.8474 25.6898C29.8101 25.707 29.776 25.7304 29.7466 25.7591C29.7466 25.7591 29.7088 25.7591 29.6962 25.7591L28.7003 26.7487L27.8116 25.8537L28.8012 24.8642C28.8012 24.8642 28.8012 24.8641 28.8012 24.82C28.8285 24.7858 28.8537 24.7501 28.8768 24.7129C28.8942 24.6783 28.9089 24.6425 28.9209 24.6057C28.9245 24.5659 28.9245 24.5258 28.9209 24.486C28.9241 24.4461 28.9241 24.4061 28.9209 24.3662C28.9239 24.3285 28.9239 24.2905 28.9209 24.2528C28.91 24.2115 28.8953 24.1714 28.8768 24.133C28.8768 24.133 28.8768 24.0952 28.8768 24.0826C28.5825 23.5996 28.3696 23.0715 28.2465 22.5195C28.2465 22.5195 28.2465 22.5195 28.2465 22.4691C28.2341 22.4264 28.215 22.386 28.1898 22.3494C28.171 22.3164 28.15 22.2848 28.1268 22.2548C28.1005 22.2243 28.0709 22.1968 28.0386 22.1729L27.944 22.1099L27.8306 22.0657H27.7045H27.6541H26.2801V20.8052Z" fill="#5992F7"/>
<path d="M31.2571 19.7924C31.5418 19.5051 31.8966 19.2898 32.2898 19.1659C32.683 19.0419 33.1022 19.0132 33.5099 19.0823C33.9175 19.1514 34.3009 19.3161 34.6255 19.5616C34.9501 19.8072 35.2059 20.126 35.3698 20.4893C35.5337 20.8526 35.6006 21.2491 35.5646 21.6433C35.5286 22.0374 35.3907 22.4168 35.1634 22.7475C34.9361 23.0782 34.6264 23.3498 34.2622 23.5379C33.8979 23.726 33.4905 23.8247 33.0765 23.8252C32.6373 23.8245 32.206 23.7132 31.8261 23.5026C31.7551 23.4629 31.6766 23.4369 31.5951 23.4262C31.5136 23.4155 31.4307 23.4202 31.3511 23.4402C31.2715 23.4602 31.1968 23.495 31.1314 23.5426C31.0659 23.5902 31.0109 23.6497 30.9695 23.7177C30.9282 23.7859 30.9014 23.8612 30.8906 23.9393C30.8799 24.0175 30.8854 24.0968 30.9069 24.1729C30.9284 24.249 30.9655 24.3203 31.0159 24.3826C31.0664 24.445 31.1292 24.4972 31.2009 24.5362C31.7697 24.8545 32.4173 25.0216 33.0765 25.0201C33.6963 25.0154 34.3052 24.864 34.8488 24.5795C35.3923 24.2949 35.8537 23.8861 36.1916 23.3896C36.5294 22.8931 36.7332 22.3243 36.7849 21.734C36.8365 21.1438 36.7343 20.5506 36.4874 20.0074C36.2404 19.4641 35.8565 18.9878 35.3699 18.621C34.8833 18.2542 34.3091 18.0083 33.6988 17.9054C33.0884 17.8024 32.4609 17.8456 31.8722 18.031C31.2836 18.2164 30.7522 18.5383 30.3256 18.9679C30.267 19.0234 30.2204 19.0895 30.1887 19.1623C30.157 19.2351 30.1406 19.3132 30.1406 19.3921C30.1406 19.471 30.157 19.5491 30.1887 19.6219C30.2204 19.6947 30.267 19.7607 30.3256 19.8163C30.3859 19.8774 30.4591 19.9256 30.5404 19.9579C30.6216 19.9901 30.709 20.0056 30.7969 20.0033C30.8849 20.0011 30.9713 19.9811 31.0506 19.9448C31.1299 19.9084 31.2003 19.8565 31.2571 19.7924Z" fill="#5992F7"/>
<path d="M30.1762 22.4561C30.2157 22.4608 30.2557 22.4608 30.2952 22.4561C30.3559 22.4403 30.4129 22.4124 30.463 22.374C30.5131 22.3357 30.5552 22.2877 30.5871 22.2327C30.6189 22.1777 30.6398 22.1169 30.6485 22.0537C30.6572 21.9905 30.6536 21.9261 30.6378 21.8643C30.5992 21.7156 30.58 21.5623 30.5807 21.4084C30.5807 21.2797 30.5306 21.1564 30.4414 21.0654C30.3521 20.9744 30.231 20.9233 30.1048 20.9233C29.9786 20.9233 29.8576 20.9744 29.7683 21.0654C29.6791 21.1564 29.6289 21.2797 29.6289 21.4084C29.6281 21.6456 29.6569 21.8819 29.7146 22.1117C29.7445 22.2123 29.8057 22.3004 29.889 22.3625C29.9722 22.4246 30.073 22.4574 30.1762 22.4561Z" fill="#5992F7"/>
<path d="M42.0539 19.2475L44.1925 21.043L46.0011 19.2475" stroke="#5992F7" stroke-linecap="round"/>
<path fill-rule="evenodd" clip-rule="evenodd" d="M22.0001 19.5127C22.0001 14.3676 26.7388 9.99998 32.8418 9.99998C38.9448 9.99998 43.6836 14.3676 43.6836 19.5127C43.6836 19.8347 43.665 20.1535 43.6288 20.4685L44.6353 20.4685C44.6673 20.1537 44.6836 19.8349 44.6836 19.5127C44.6836 13.7067 39.3819 8.99998 32.8418 8.99998C26.3018 8.99998 21.0001 13.7067 21.0001 19.5127C21.0001 19.8349 21.0164 20.1537 21.0483 20.4685L22.0549 20.4685C22.0186 20.1535 22.0001 19.8347 22.0001 19.5127Z" fill="#5992F7"/>
<path d="M23.9461 24.826L21.8075 23.2186L19.9988 24.826" stroke="#5992F7" stroke-linecap="round"/>
<path fill-rule="evenodd" clip-rule="evenodd" d="M43.9999 24.5886C43.9999 29.032 39.372 33 33.1572 33C26.9424 33 22.3145 29.032 22.3145 24.5886C22.3145 24.3011 22.3338 24.0155 22.3718 23.7329L21.3627 23.7329C21.3308 24.0147 21.3145 24.3001 21.3145 24.5886C21.3145 29.7864 26.6166 34 33.1572 34C39.6978 34 44.9999 29.7864 44.9999 24.5886C44.9999 24.3001 44.9836 24.0147 44.9517 23.7329L43.9426 23.7329C43.9806 24.0155 43.9999 24.3011 43.9999 24.5886Z" fill="#5992F7"/>
</svg>
