<svg xmlns:xlink="http://www.w3.org/1999/xlink" xmlns="http://www.w3.org/2000/svg" width="66" height="66" viewBox="0 0 66 66" fill="none"><path d="M32.4014 64.9016C68.7575 50.089 64.0829 18.4321 62.7465 12.1127C62.6832 11.8197 62.4965 11.5642 62.2298 11.4056C61.963 11.2471 61.6397 11.1992 61.3348 11.2734C44.3978 15.0353 36.045 6.21882 33.4023 2.58341C33.1871 2.28074 32.8279 2.09937 32.4436 2.09937C32.0593 2.09937 31.7002 2.28074 31.485 2.58341C28.833 6.21895 20.4524 15.0387 3.51185 11.2734C3.20704 11.1992 2.88365 11.2471 2.61693 11.4056C2.35022 11.5642 2.16351 11.8197 2.10019 12.1127C0.763784 18.4321 -3.91079 50.089 32.4452 64.9016H32.4014Z" fill="#D3DFF2"></path><path d="M32.4234 60.0708C5.41759 48.0986 4.99414 25.5419 6.11291 16.2139C7.86925 16.4581 9.64186 16.5827 11.4169 16.5868C19.3201 16.7301 26.9317 13.7512 32.4384 8.35992C37.9325 13.7504 45.5348 16.7293 53.4287 16.5846C55.2033 16.5805 56.9755 16.4559 58.7314 16.2117C59.8527 25.5431 59.4292 48.0986 32.4234 60.0708Z" fill="#F5F5F5"></path><path d="M32.4231 64.8887C31.833 64.6467 31.2544 64.4046 30.6875 64.1517C65.1333 49.0487 60.586 18.3368 59.2785 12.1108C59.2483 11.9641 59.1851 11.8253 59.0934 11.7038C59.8224 11.5939 60.5745 11.4398 61.3382 11.2748C61.6423 11.2026 61.9643 11.2509 62.2304 11.4084C62.4964 11.5659 62.6839 11.8195 62.7498 12.1108C64.0803 18.4358 68.7549 50.0717 32.4231 64.8887Z" fill="#A4C2F7"></path><path d="M32.4233 60.0707C31.8332 59.8067 31.2546 59.5427 30.6992 59.2677C55.6917 47.2558 56.3513 25.8388 55.3099 16.5328C56.4568 16.4849 57.6001 16.3784 58.7349 16.2138C59.8573 25.5418 59.4291 48.1028 32.4233 60.0707Z" fill="#A4C2F7"></path><path d="M34.1816 3.57708C33.8842 3.21627 33.6239 2.8797 33.4064 2.57935C33.1912 2.27668 32.832 2.09531 32.4478 2.09531C32.0635 2.09531 31.7043 2.27668 31.4891 2.57935C27.2601 8.30304 20.4737 11.8335 13.123 12.134C24.7689 12.7731 31.326 7.02339 34.1816 3.57708Z" fill="#FFFFFF"></path><path d="M30.7104 64.1408L30.6884 64.1518C31.231 64.3938 31.7864 64.6259 32.3499 64.8579C32.3765 64.8679 32.3997 64.88 32.4252 64.8898C33.0245 64.6456 33.5973 64.3904 34.1735 64.1374C-0.254906 49.0323 4.25763 18.3258 5.57207 12.1109C5.60339 11.9628 5.66631 11.8224 5.75716 11.6984C5.02468 11.5785 4.28068 11.4421 3.51241 11.2716C3.2076 11.1974 2.88421 11.2453 2.6175 11.4038C2.35079 11.5624 2.16408 11.8179 2.10075 12.1109C0.78645 18.327 -3.72731 49.0378 30.7104 64.1408Z" fill="#FFFFFF"></path><path d="M32.447 64.9L32.4247 64.8899L32.4023 64.9H32.447Z" fill="#FFFFFF"></path><path d="M31.9893 65.911C27.277 64.0147 22.827 61.5765 18.7386 58.651C11.1642 53.2315 5.51417 45.7395 2.54671 37.1801C1.09424 32.9315 0.259259 28.5141 0.0648181 24.0505C-0.168266 19.5764 0.227937 15.093 1.24272 10.7185L3.48041 11.2817C2.528 15.4409 2.15688 19.7012 2.37654 23.9525C2.56204 28.2156 3.35892 32.4344 4.74508 36.4925C7.56528 44.6333 12.9397 51.758 20.1456 56.9085C24.0816 59.7219 28.3654 62.0662 32.901 63.8892L31.9893 65.911Z" fill="#FFFFFF"></path><path d="M0.0650139 24.051C0.259454 28.5145 1.09444 32.932 2.54691 37.1806C5.51423 45.7403 11.1641 53.2327 18.7388 58.6525C19.0512 58.8813 19.3774 59.0924 19.6969 59.3125C20.2127 59.6654 20.9313 59.5569 21.3066 59.0692C21.6819 58.5817 21.5733 57.8976 21.0634 57.537C20.7579 57.3269 20.4444 57.1257 20.1458 56.9078C12.9408 51.7587 7.56656 44.6361 4.74528 36.4974C3.35911 32.4393 2.56237 28.2203 2.37674 23.9574C2.19084 20.0669 2.49105 16.1691 3.27111 12.3458C20.715 16.2002 29.5688 7.04054 32.4232 3.1905C35.28 7.04054 44.1477 16.2255 61.6228 12.3337C62.9835 18.5112 67.6858 49.0098 32.4243 63.6772C31.2082 63.1383 29.9759 62.6278 28.7888 62.0382C28.2281 61.7612 27.5374 61.966 27.2418 62.4968C26.9439 63.0407 27.1641 63.7113 27.7347 63.9972C29.0826 64.6649 30.4804 65.2325 31.8539 65.8485C32.02 65.9416 32.2084 65.9928 32.4011 65.997H32.445C32.6635 65.9977 32.8774 65.9376 33.0606 65.8243C73.7674 49.1045 63.7102 11.0985 63.6073 10.7146C63.4439 10.1281 62.8118 9.77824 62.1946 9.93255C42.4469 14.8802 34.5372 2.53063 33.5364 0.789239C33.5057 0.695396 33.4624 0.605548 33.408 0.521888C33.1779 0.216896 32.8072 0.0360413 32.4124 0.0360413C32.0175 0.0360413 31.6468 0.216896 31.4167 0.521888C31.3514 0.624111 31.3034 0.735485 31.2743 0.851888C30.1311 2.79901 22.1811 14.8198 2.65566 9.93693C2.03844 9.78263 1.4063 10.1325 1.24291 10.719C0.22759 15.0933 -0.168477 19.5769 0.0650139 24.051Z" fill="#428DFF"></path><path d="M23.9691 59.7927C23.8223 59.8306 23.6838 59.8936 23.5607 59.9786C23.1757 60.2306 22.9922 60.6809 23.0979 61.1137C23.2571 61.7088 23.8827 62.0776 24.5142 61.9486L24.7212 61.8771C24.7917 61.8466 24.8576 61.807 24.9168 61.7594C24.9786 61.7223 25.034 61.6763 25.0811 61.623C25.1306 61.5666 25.1763 61.507 25.2176 61.4449C25.3675 61.1893 25.4147 60.8907 25.3507 60.6045C25.3113 60.4656 25.2454 60.3346 25.1562 60.2185C24.8863 59.8628 24.4189 59.6952 23.9691 59.7927Z" fill="#428DFF"></path><path d="M32.4227 58.8554C30.0446 57.7864 27.7488 56.5595 25.552 55.1837C25.2078 54.9525 24.7585 54.9176 24.3794 55.0925C24.0003 55.2674 23.7511 55.6245 23.7291 56.0246C23.7072 56.4248 23.9157 56.8047 24.2735 57.0162C26.7173 58.5477 29.2785 59.9026 31.9356 61.0696C32.2452 61.2067 32.6026 61.2067 32.9122 61.0696C60.861 48.6935 61.1074 25.4836 59.9144 16.0797C59.8771 15.7856 59.7166 15.5182 59.4691 15.3381C59.2217 15.1581 58.9083 15.0803 58.6 15.1227C56.8877 15.3623 55.1597 15.4846 53.4292 15.4891C52.7901 15.4891 52.2721 15.9816 52.2721 16.5891C52.2721 17.1965 52.7902 17.689 53.4292 17.689C54.8706 17.6866 56.3109 17.6059 57.7426 17.4471C58.6834 26.9137 57.4881 47.4991 32.4227 58.8554Z" fill="#428DFF"></path><path d="M11.4197 17.6868C19.2208 17.8389 26.7694 15.0557 32.4227 9.9428C35.6083 12.8535 39.4569 15.027 43.6693 16.2941C44.0655 16.4219 44.5034 16.3364 44.8145 16.0705C45.1257 15.8045 45.2616 15.3997 45.1701 15.0116C45.0785 14.6235 44.7737 14.3127 44.3729 14.1986C40.1514 12.924 36.3326 10.6648 33.2651 7.62726C32.8023 7.19826 32.0642 7.19826 31.6013 7.62726C26.3176 12.7988 19.0083 15.6464 11.4268 15.4868C9.70474 15.4824 7.98515 15.3611 6.28129 15.1238C5.97186 15.0814 5.65742 15.16 5.40983 15.3415C5.16224 15.523 5.00237 15.792 4.96685 16.0874C4.36332 21.0919 4.58583 26.1554 5.62637 31.0946C7.09417 38.2544 10.6261 44.8856 15.8281 50.2477C16.1092 50.5362 16.5309 50.6601 16.9342 50.573C17.3374 50.4857 17.6612 50.2007 17.7834 49.8249C17.9055 49.4493 17.8078 49.0401 17.5266 48.7516C12.6093 43.6856 9.27057 37.4195 7.88359 30.6534C6.9682 26.3104 6.71641 21.8647 7.13607 17.4534C8.5583 17.6085 9.9884 17.6863 11.4197 17.6868Z" fill="#428DFF"></path><path d="M4.67507 60.4999C5.31412 60.4999 5.83209 60.0074 5.83209 59.3999V57.1999H8.14626C8.78531 57.1999 9.30327 56.7073 9.30327 56.0999C9.30327 55.4925 8.78517 54.9999 8.14626 54.9999H5.83209V52.7999C5.83209 52.1924 5.31399 51.7 4.67507 51.7C4.03616 51.7 3.51806 52.1925 3.51806 52.7999V54.9999H1.20389C0.564841 54.9999 0.046875 55.4924 0.046875 56.0999C0.046875 56.7074 0.564976 57.1999 1.20389 57.1999H3.51806V59.3999C3.51806 60.0074 4.03602 60.4999 4.67507 60.4999Z" fill="#428DFF"></path><path d="M61.3714 66C62.0104 66 62.5284 65.5076 62.5284 64.9V62.7H64.8425C65.4816 62.7 65.9996 62.2076 65.9996 61.6001C65.9996 60.9925 65.4815 60.5001 64.8425 60.5001H62.5284V58.3001C62.5284 57.6925 62.0103 57.2001 61.3714 57.2001C60.7323 57.2001 60.2143 57.6925 60.2143 58.3001V60.5001H57.9002C57.2611 60.5001 56.7432 60.9926 56.7432 61.6001C56.7432 62.2075 57.2613 62.7 57.9002 62.7H60.2143V64.9C60.2143 65.5076 60.7324 66 61.3714 66Z" fill="#428DFF"></path><path d="M57.8998 0C57.2607 0 56.7427 0.49255 56.7427 1.09996V2.19991H55.5857C54.9467 2.19991 54.4287 2.69246 54.4287 3.29987C54.4287 3.90727 54.9467 4.39982 55.5857 4.39982H56.7427V5.49978C56.7427 6.10731 57.2608 6.59973 57.8998 6.59973C58.5388 6.59973 59.0568 6.10718 59.0568 5.49978V4.39982H60.2138C60.8528 4.39982 61.3708 3.90727 61.3708 3.29987C61.3708 2.69246 60.8528 2.19991 60.2138 2.19991H59.0568V1.09996C59.0569 0.49255 58.5388 0 57.8998 0Z" fill="#428DFF"></path><path d="M44.8809 22.3265V24.4921H39.5928V21.7851H44.2933C44.4492 21.7851 44.5986 21.8421 44.7088 21.9436C44.819 22.0452 44.8809 22.1829 44.8809 22.3265Z" fill="#428DFF"></path><path d="M44.8809 29.5194H39.5928V32.2264H44.8809V29.5194Z" fill="#428DFF"></path><path d="M38.5083 29.4914V32.2264H29.1523V29.2616C29.2056 29.3281 29.2744 29.3823 29.3534 29.4202C29.4324 29.4581 29.5196 29.4787 29.6084 29.4804L38.5083 29.4914Z" fill="#428DFF"></path><path d="M44.8808 25.6039V28.3593H29.6943V25.3944C29.9077 25.5457 30.1695 25.6235 30.4361 25.6149L44.8808 25.6039Z" fill="#428DFF"></path><path d="M34.4403 33.3866H22.7793V36.0936H34.4403V33.3866Z" fill="#428DFF"></path><path d="M44.8813 33.3866H35.5254V36.0936H44.8813V33.3866Z" fill="#428DFF"></path><path d="M44.8809 37.2538H39.5928V39.9608H44.8809V37.2538Z" fill="#428DFF"></path><path d="M38.5083 37.2538H29.1523V39.9608H38.5083V37.2538Z" fill="#428DFF"></path><path d="M34.4403 41.1209H22.7793V43.8279H34.4403V41.1209Z" fill="#428DFF"></path><path d="M44.8813 41.1209V42.7451C44.8813 43.0323 44.7581 43.3077 44.5388 43.5108C44.3195 43.7139 44.022 43.8279 43.7118 43.8279H35.5254V41.1209H44.8813Z" fill="#428DFF"></path></svg>