<svg xmlns:xlink="http://www.w3.org/1999/xlink" xmlns="http://www.w3.org/2000/svg" width="66" height="66" viewBox="0 0 66 66" fill="none"><path d="M58.3 8.80014L58.2997 49.4122C58.3229 51.866 56.3536 53.8748 53.8997 53.9002H5.49982C3.04596 53.8748 1.07666 51.866 1.09987 49.4122L1.09961 8.80014H58.3Z" fill="#A4C2F7"></path><path d="M55 8.80014L54.9997 49.4122C55.0229 51.866 53.0536 53.8748 50.5997 53.9002H5.49982C3.04596 53.8748 1.07666 51.866 1.09987 49.4122L1.09961 8.80014H55Z" fill="#F5F5F5"></path><path d="M58.3007 5.50011V9.90006H1.10059V5.50011C1.10059 3.0701 3.07053 1.10015 5.50054 1.10015H53.9006C56.3307 1.10002 58.3007 3.06997 58.3007 5.50011Z" fill="#A4C2F7"></path><path d="M55.0007 5.50011V9.90006H1.10059V5.50011C1.10059 3.0701 3.07053 1.10015 5.50054 1.10015H50.6006C53.0307 1.10002 55.0007 3.06997 55.0007 5.50011Z" fill="#E3E7F2"></path><path d="M64.8998 41.8001V58.3001C64.8998 61.9452 61.9449 64.9001 58.2998 64.9001H42.8998C39.2547 64.9001 36.2998 61.9452 36.2998 58.3001V41.8001C36.2998 41.1926 36.7924 40.7001 37.3998 40.7001H63.7998C64.4073 40.7 64.8998 41.1926 64.8998 41.8001Z" fill="#A4C2F7"></path><path d="M61.5999 41.8001V58.3001C61.5999 61.9452 58.6449 64.9001 54.9999 64.9001H42.8998C39.2547 64.9001 36.2998 61.9452 36.2998 58.3001V41.8001C36.2998 41.1925 36.7924 40.7001 37.3998 40.7001H60.4998C61.1073 40.7 61.5999 41.1925 61.5999 41.8001Z" fill="#F5F5F5"></path><path d="M18.7002 16.5H7.7002V27.5H18.7002V16.5Z" fill="#E3E7F2"></path><path d="M18.7002 35.2001H7.7002V46.2001H18.7002V35.2001Z" fill="#E3E7F2"></path><path d="M50.5995 52.8001C51.8145 52.8001 52.7995 51.8151 52.7995 50.6C52.7995 49.385 51.8145 48.4 50.5995 48.4C49.3844 48.4 48.3994 49.385 48.3994 50.6C48.3994 51.8151 49.3844 52.8001 50.5995 52.8001Z" fill="#A4C2F7"></path><path d="M5.49977 53.9H8.79977C6.34591 53.8746 4.37661 51.8659 4.39982 49.412V5.50011C4.39982 3.0701 6.36976 1.10015 8.79977 1.10015H5.49977C3.06976 1.10015 1.09981 3.0701 1.09981 5.50011V49.4122C1.07648 51.866 3.04578 53.8746 5.49977 53.9Z" fill="#FFFFFF"></path><path d="M2.20004 9.90005V24.2V49.5H0V24.2V9.90005H2.20004Z" fill="#FFFFFF"></path><path d="M1.09987 19.8001C1.39107 19.7958 1.66989 19.6819 1.88091 19.481C2.3063 19.0473 2.3063 18.3528 1.88091 17.9191L1.71591 17.7871C1.65455 17.7454 1.58804 17.7122 1.51791 17.6881C1.45552 17.6564 1.38888 17.6341 1.31991 17.6221C1.24721 17.6098 1.1736 17.6025 1.09987 17.6C0.808669 17.6043 0.529845 17.7182 0.318825 17.9191C0.219439 18.0243 0.140935 18.1475 0.0878254 18.2821C-0.078077 18.6924 0.0122863 19.1619 0.318825 19.481C0.424013 19.5804 0.547247 19.6589 0.681825 19.712C0.814212 19.7685 0.956138 19.7984 1.09987 19.8001Z" fill="#428DFF"></path><path d="M7.69991 4.39995H6.59996C5.99242 4.39995 5.5 4.8925 5.5 5.4999C5.5 6.10731 5.99242 6.59999 6.59996 6.59999H7.69991C8.30745 6.59999 8.79987 6.10744 8.79987 5.50003C8.79987 4.89263 8.30745 4.39995 7.69991 4.39995Z" fill="#428DFF"></path><path d="M13.1999 4.39995H12.1C11.4924 4.39995 11 4.8925 11 5.4999C11 6.10731 11.4926 6.59986 12.1 6.59986H13.1999C13.8074 6.59986 14.2999 6.10731 14.2999 5.4999C14.2999 4.8925 13.8074 4.39995 13.1999 4.39995Z" fill="#428DFF"></path><path d="M18.6999 4.39995H17.6C16.9924 4.39995 16.5 4.8925 16.5 5.4999C16.5 6.10731 16.9925 6.59986 17.6 6.59986H18.6999C19.3074 6.59986 19.7999 6.10731 19.7999 5.4999C19.7999 4.8925 19.3073 4.39995 18.6999 4.39995Z" fill="#428DFF"></path><path d="M52.7999 4.39995H23.1C22.4924 4.39995 22 4.8925 22 5.4999C22 6.10731 22.4925 6.59986 23.1 6.59986H52.7999C53.4075 6.59986 53.8999 6.10731 53.8999 5.4999C53.8999 4.8925 53.4075 4.39995 52.7999 4.39995Z" fill="#428DFF"></path><path d="M63.8 39.6H62.7V34.1C62.6991 31.02 61.5182 28.0573 59.4 25.8213V5.50004C59.3964 2.46391 56.9361 0.00360938 53.9 0H5.50004C2.46391 0.00360938 0.00360938 2.46391 0 5.50004V14.3001C0 14.9076 0.492551 15.4 1.09996 15.4C1.70736 15.4 2.19991 14.9075 2.19991 14.3001V11.0001H57.2V23.9713C53.4837 21.5404 48.7337 21.3434 44.829 23.4584C40.9243 25.5733 38.4941 29.6594 38.4999 34.1001V39.6H37.4C36.1849 39.6 35.1999 40.585 35.1999 41.8V52.8H5.49991C3.67744 52.8 2.19991 51.3225 2.19991 49.5V23.1C2.19991 22.4925 1.70736 22 1.09996 22C0.492551 22 0 22.4925 0 23.1V49.5C0.00360938 52.536 2.46391 54.9963 5.50004 55H35.2V58.3C35.2049 62.5506 38.6494 65.9952 42.9 66H58.3C62.5506 65.9951 65.9952 62.5506 66 58.3V41.8C66 40.585 65.015 39.6 63.8 39.6ZM2.20004 8.80004V5.50004C2.20004 3.67757 3.67757 2.20004 5.50004 2.20004H53.9001C55.7226 2.20004 57.2001 3.67757 57.2001 5.50004V8.80004H2.20004ZM40.7 34.1C40.7 28.6324 45.1324 24.2 50.6 24.2C56.0675 24.2 60.5 28.6324 60.5 34.1V39.6H40.7V34.1ZM58.3 63.8H42.9C40.2873 63.7966 38.0362 61.959 37.51 59.4H40.7001C41.3076 59.4 41.8 58.9076 41.8 58.3C41.8 57.6925 41.3075 57.2001 40.7001 57.2001H37.4001V55H40.7001C41.3076 55 41.8 54.5076 41.8 53.9001C41.8 53.2926 41.3075 52.8001 40.7001 52.8001H37.4001V50.6001H40.7001C41.3076 50.6001 41.8 50.1077 41.8 49.5001C41.8 48.8926 41.3075 48.4002 40.7001 48.4002H37.4001V46.2H40.7001C41.3076 46.2 41.8 45.7075 41.8 45.1C41.8 44.4925 41.3075 44.0001 40.7001 44.0001H37.4001V41.8H63.8001V44.0001H60.5001C59.8926 44.0001 59.4001 44.4926 59.4001 45.1C59.4001 45.7076 59.8927 46.2 60.5001 46.2H63.8001V48.4H60.5001C59.8926 48.4 59.4001 48.8926 59.4001 49.5C59.4001 50.1074 59.8927 50.6 60.5001 50.6H63.8001V52.8H60.5001C59.8926 52.8 59.4001 53.2924 59.4001 53.9C59.4001 54.5075 59.8927 54.9999 60.5001 54.9999H63.8001V57.2H60.5001C59.8926 57.2 59.4001 57.6924 59.4001 58.2999C59.4001 58.9074 59.8927 59.3999 60.5001 59.3999H63.6901C63.1637 61.959 60.9126 63.7967 58.3 63.8Z" fill="#428DFF"></path><path d="M50.5996 47.3001C48.9942 47.297 47.6207 48.4524 47.3487 50.0344C47.0767 51.6166 47.9854 53.1643 49.4996 53.6977V56.1001C49.4996 56.7076 49.992 57.2001 50.5996 57.2001C51.2071 57.2001 51.6995 56.7075 51.6995 56.1001V53.6977C53.2138 53.1644 54.1225 51.6166 53.8505 50.0344C53.5785 48.4524 52.205 47.2971 50.5996 47.3001ZM50.5996 51.7001C49.992 51.7001 49.4996 51.2077 49.4996 50.6002C49.4996 49.9927 49.992 49.5002 50.5996 49.5002C51.2071 49.5002 51.6995 49.9927 51.6995 50.6002C51.6995 51.2077 51.2071 51.7001 50.5996 51.7001Z" fill="#428DFF"></path><path d="M13.1996 15.4H8.79965C7.58458 15.4 6.59961 16.385 6.59961 17.6V26.4C6.59961 27.615 7.58458 28.6 8.79965 28.6H17.5997C18.8148 28.6 19.7997 27.615 19.7997 26.4V23.1C19.7997 22.4924 19.3072 22 18.6998 22C18.0922 22 17.5998 22.4925 17.5998 23.1V26.4H8.79965V17.5999H13.1996C13.8071 17.5999 14.2996 17.1074 14.2996 16.5C14.2996 15.8924 13.8071 15.4 13.1996 15.4Z" fill="#428DFF"></path><path d="M11.7782 20.1222C11.3466 19.7053 10.6605 19.7113 10.2362 20.1356C9.81199 20.56 9.80594 21.246 10.2228 21.6776L12.4229 23.8777C12.6291 24.0839 12.9088 24.1999 13.2006 24.1999H13.2501C13.5587 24.1861 13.8473 24.0433 14.0454 23.8061L19.5455 17.2061C19.7973 16.9043 19.8691 16.4911 19.7337 16.1219C19.5982 15.7528 19.2762 15.4841 18.8888 15.4168C18.5014 15.3495 18.1076 15.494 17.8557 15.7959L13.1258 21.4719L11.7782 20.1222Z" fill="#428DFF"></path><path d="M6.59961 45.1001C6.59961 46.3152 7.58458 47.3001 8.79965 47.3001H17.5997C18.8148 47.3001 19.7997 46.3152 19.7997 45.1001V41.8001C19.7997 41.1926 19.3072 40.7001 18.6998 40.7001C18.0922 40.7001 17.5998 41.1927 17.5998 41.8001V45.1001H8.79965V36.3001H13.1996C13.8071 36.3001 14.2996 35.8076 14.2996 35.2001C14.2996 34.5926 13.807 34.1001 13.1996 34.1001H8.79965C7.58458 34.1001 6.59961 35.0851 6.59961 36.3002V45.1001Z" fill="#428DFF"></path><path d="M17.8549 34.495L13.1249 40.171L11.7763 38.8224C11.3447 38.4055 10.6586 38.4115 10.2343 38.8358C9.80996 39.2602 9.80403 39.9462 10.2209 40.3778L12.4208 42.5778C12.6273 42.7845 12.9076 42.9004 13.1997 42.9001H13.2492C13.5578 42.8863 13.8464 42.7435 14.0445 42.5063L19.5446 35.9063C19.7965 35.6045 19.8683 35.1913 19.7328 34.8222C19.5973 34.4531 19.2753 34.1844 18.8879 34.1171C18.5006 34.0498 18.1068 34.1943 17.8549 34.4962V34.495Z" fill="#428DFF"></path><path d="M24.1996 18.7H32.9996C33.6071 18.7 34.0996 18.2075 34.0996 17.6001C34.0996 16.9927 33.6071 16.5 32.9996 16.5H24.1996C23.592 16.5 23.0996 16.9926 23.0996 17.6C23.0996 18.2074 23.5922 18.7 24.1996 18.7Z" fill="#428DFF"></path><path d="M24.1996 24.2H38.4995C39.107 24.2 39.5995 23.7076 39.5995 23.1001C39.5995 22.4925 39.107 22.0001 38.4995 22.0001H24.1996C23.592 22.0001 23.0996 22.4927 23.0996 23.1001C23.0996 23.7075 23.5922 24.2 24.1996 24.2Z" fill="#428DFF"></path><path d="M24.1996 37.4001H32.9996C33.6071 37.4001 34.0996 36.9075 34.0996 36.3001C34.0996 35.6927 33.607 35.2001 32.9996 35.2001H24.1996C23.592 35.2001 23.0996 35.6926 23.0996 36.3001C23.0996 36.9076 23.5922 37.4001 24.1996 37.4001Z" fill="#428DFF"></path><path d="M24.1996 42.9H31.8995C32.5071 42.9 32.9995 42.4076 32.9995 41.8001C32.9995 41.1925 32.5071 40.7001 31.8995 40.7001H24.1996C23.592 40.7001 23.0996 41.1927 23.0996 41.8001C23.0996 42.4075 23.5922 42.9 24.1996 42.9Z" fill="#428DFF"></path></svg>