<svg xmlns:xlink="http://www.w3.org/1999/xlink" xmlns="http://www.w3.org/2000/svg" width="66" height="66" viewBox="0 0 66 66" fill="none"><path d="M41.8001 56.0995H24.2002V60.4995H41.8001V56.0995Z" fill="#7FABFA"></path><path d="M38.5002 56.0995H24.2002V60.4995H38.5002V56.0995Z" fill="#A4C2F7"></path><path d="M64.9002 15.5311L64.9007 48.3995H1.09962L1.10014 15.5311C1.08196 14.3464 1.53545 13.2031 2.36071 12.353C3.18597 11.5028 4.31544 11.0158 5.50022 10.9991H60.5003C61.6849 11.0158 62.8144 11.503 63.6396 12.353C64.4649 13.203 64.9184 14.3464 64.9002 15.5311Z" fill="#F5F5F5"></path><path d="M64.9005 47.2994V51.6994C64.9005 54.1294 62.9306 56.0994 60.5006 56.0994H5.50054C3.07053 56.0994 1.10059 54.1294 1.10059 51.6994V47.2994H64.9005Z" fill="#7FABFA"></path><path d="M61.6006 47.2994V51.6994C61.6006 54.1294 59.6306 56.0994 57.2006 56.0994H5.50054C3.07053 56.0994 1.10059 54.1294 1.10059 51.6994V47.2994H61.6006Z" fill="#A4C2F7"></path><path d="M50.6003 62.6996V64.8997H15.4004V62.6996C15.404 61.4861 16.3869 60.5032 17.6004 60.4995H48.4004C49.6139 60.5033 50.5967 61.4861 50.6003 62.6996Z" fill="#7FABFA"></path><path d="M47.3003 62.6999V64.8999H15.4004V62.6999C15.404 61.4863 16.3869 60.5034 17.6004 60.4998H45.1004C46.3139 60.5035 47.2967 61.4863 47.3003 62.6999Z" fill="#A4C2F7"></path><path d="M47.3011 19.7992V36.2994C47.3011 39.9446 44.3462 42.8995 40.7011 42.8995H25.3012C21.6561 42.8995 18.7012 39.9446 18.7012 36.2994V19.7992C18.7012 19.1917 19.1936 18.6992 19.8011 18.6992H46.2011C46.8087 18.6992 47.3011 19.1917 47.3011 19.7992Z" fill="#A4C2F7"></path><path d="M44.0012 19.7989V36.2992C44.0012 39.9443 41.0463 42.8993 37.4012 42.8993H25.3012C21.6561 42.8993 18.7012 39.9443 18.7012 36.2992V19.7989C18.7012 19.1914 19.1936 18.699 19.8011 18.699H42.9011C43.5088 18.699 44.0012 19.1914 44.0012 19.7989Z" fill="#E3E7F2"></path><path d="M32.9998 30.7992C34.2149 30.7992 35.1999 29.8142 35.1999 28.5992C35.1999 27.3841 34.2149 26.3991 32.9998 26.3991C31.7848 26.3991 30.7998 27.3841 30.7998 28.5992C30.7998 29.8142 31.7848 30.7992 32.9998 30.7992Z" fill="#A4C2F7"></path><path d="M18.7004 62.6996C18.704 61.4861 19.6869 60.5032 20.9004 60.4995H17.6004C16.3869 60.5032 15.404 61.4861 15.4004 62.6996V64.8997H18.7004V62.6996Z" fill="#FFFFFF"></path><path d="M27.5002 56.0995H24.2002V60.4995H27.5002V56.0995Z" fill="#FFFFFF"></path><path d="M5.50107 56.0996H8.80107C6.37106 56.0996 4.40111 54.1296 4.40111 51.6996V15.5311C4.38294 14.3464 4.83643 13.2031 5.66169 12.353C6.48694 11.5028 7.61629 11.0158 8.80107 10.9991H5.50107C4.31642 11.0158 3.18694 11.503 2.36169 12.353C1.53643 13.203 1.08294 14.3464 1.10111 15.5311V51.6996C1.10098 54.1296 3.07093 56.0996 5.50107 56.0996Z" fill="#FFFFFF"></path><path d="M2.20004 15.3991V29.6993V47.2996H0V29.6993V15.3991H2.20004Z" fill="#FFFFFF"></path><path d="M1.09987 25.299C1.39107 25.2948 1.66989 25.1808 1.88091 24.98C2.3063 24.5462 2.3063 23.8518 1.88091 23.418L1.71591 23.286C1.65455 23.2444 1.58804 23.2111 1.51791 23.187C1.45552 23.1552 1.38888 23.133 1.31991 23.121C1.24721 23.1088 1.1736 23.1014 1.09987 23.099C0.808669 23.1032 0.529845 23.2172 0.318825 23.418C0.219439 23.5232 0.140935 23.6464 0.0878254 23.781C-0.078077 24.1913 0.0122863 24.6608 0.318825 24.98C0.424013 25.0794 0.547247 25.1579 0.681825 25.211C0.814212 25.2675 0.956138 25.2972 1.09987 25.299Z" fill="#428DFF"></path><path d="M60.5 9.8991H44.8899C43.8329 4.16347 38.8321 0 33 0C27.1679 0 22.1671 4.1636 21.1101 9.8991H5.50004C2.46391 9.90271 0.00360938 12.3631 0 15.3992V19.7992C0 20.4068 0.492551 20.8992 1.09996 20.8992C1.70736 20.8992 2.19991 20.4067 2.19991 19.7992V15.3992C2.19991 13.5767 3.67744 12.0992 5.49991 12.0992H20.9V17.5993H19.8C18.5849 17.5993 17.6 18.5843 17.6 19.7994V36.2996C17.6049 40.5502 21.0494 43.9949 25.2999 43.9997H40.7C44.9505 43.9948 48.3951 40.5502 48.3999 36.2996V19.7994C48.3999 18.5843 47.4149 17.5993 46.1999 17.5993H45.0999V12.0992H60.5C62.3224 12.0992 63.8 13.5767 63.8 15.3992V46.1996H2.20004V28.5994C2.20004 27.9919 1.70749 27.4994 1.10009 27.4994C0.49268 27.4994 0 27.9919 0 28.5994V51.6997C0.00360938 54.7358 2.46391 57.1961 5.50004 57.1998H23.1V59.3999H17.6C15.7775 59.3999 14.3 60.8775 14.3 62.7V64.9C14.3 65.5076 14.7925 66 15.3999 66H50.6C51.2075 66 51.6999 65.5076 51.6999 64.9V62.7C51.6999 60.8775 50.2224 59.3999 48.3999 59.3999H42.9V57.1998H60.5C63.536 57.1962 65.9963 54.7359 66 51.6997V15.3992C65.9964 12.3631 63.5361 9.90271 60.5 9.8991ZM46.2 21.9993H42.9C42.2925 21.9993 41.8 22.4919 41.8 23.0993C41.8 23.7067 42.2925 24.1993 42.9 24.1993H46.2V26.3993H42.9C42.2925 26.3993 41.8 26.8919 41.8 27.4993C41.8 28.1067 42.2925 28.5993 42.9 28.5993H46.2V30.7993H42.9C42.2925 30.7993 41.8 31.2919 41.8 31.8993C41.8 32.5069 42.2925 32.9993 42.9 32.9993H46.2V35.1994H42.9C42.2925 35.1994 41.8 35.6919 41.8 36.2993C41.8 36.9067 42.2925 37.3993 42.9 37.3993H46.09C45.5637 39.9584 43.3126 41.7961 40.7001 41.7993H25.3C22.6874 41.796 20.4363 39.9584 19.9101 37.3993H23.1C23.7075 37.3993 24.2 36.9069 24.2 36.2993C24.2 35.6918 23.7075 35.1994 23.1 35.1994H19.8V32.9993H23.1C23.7075 32.9993 24.2 32.5067 24.2 31.8993C24.2 31.2918 23.7075 30.7993 23.1 30.7993H19.8V28.5993H23.1C23.7075 28.5993 24.2 28.1067 24.2 27.4993C24.2 26.8919 23.7075 26.3993 23.1 26.3993H19.8V24.1994H23.1C23.7075 24.1994 24.2 23.707 24.2 23.0994C24.2 22.4919 23.7075 21.9994 23.1 21.9994H19.8V19.7994H46.2V21.9993ZM23.1 17.5993V12.0992C23.1 6.63154 27.5324 2.19904 33 2.19904C38.4676 2.19904 42.9 6.63154 42.9 12.0992V17.5993H23.1ZM49.5 62.6998V63.7998H16.5V62.6998C16.5 62.0923 16.9926 61.5999 17.6 61.5999H48.3999C49.0076 61.5999 49.5 62.0923 49.5 62.6998ZM40.7 59.3998H25.3V57.1998H40.7001V59.3998H40.7ZM60.5 54.9998H5.50004C3.67757 54.9998 2.20004 53.5222 2.20004 51.6997V48.3997H63.8001V51.6997C63.8 53.5222 62.3226 54.9998 60.5 54.9998Z" fill="#428DFF"></path><path d="M33 25.299C31.3946 25.2959 30.0211 26.4513 29.7491 28.0334C29.4771 29.6156 30.3858 31.1633 31.9 31.6967V34.0992C31.9 34.7067 32.3926 35.1991 33 35.1991C33.6075 35.1991 34.0999 34.7067 34.0999 34.0992V31.6967C35.6142 31.1634 36.5228 29.6156 36.2509 28.0334C35.9789 26.4512 34.6054 25.2959 33 25.299ZM33 29.699C32.3924 29.699 31.9 29.2065 31.9 28.599C31.9 27.9915 32.3926 27.4991 33 27.4991C33.6075 27.4991 34.0999 27.9916 34.0999 28.599C34.0999 29.2066 33.6075 29.699 33 29.699Z" fill="#428DFF"></path><path d="M5.50035 31.8993H6.6003C7.20784 31.8993 7.70026 31.4067 7.70026 30.7993C7.70026 30.1918 7.20771 29.6993 6.6003 29.6993H5.50035C4.89281 29.6993 4.40039 30.1919 4.40039 30.7993C4.40026 31.4067 4.89281 31.8993 5.50035 31.8993Z" fill="#428DFF"></path><path d="M14.2994 31.8993C14.9069 31.8993 15.3993 31.4067 15.3993 30.7993C15.3993 30.1918 14.9068 29.6993 14.2994 29.6993H10.9994C10.3918 29.6993 9.89941 30.1919 9.89941 30.7993C9.89941 31.4068 10.392 31.8993 10.9994 31.8993H14.2994Z" fill="#428DFF"></path><path d="M5.50035 36.2993H14.3004C14.9079 36.2993 15.4003 35.8068 15.4003 35.1994C15.4003 34.5918 14.9078 34.0994 14.3004 34.0994H5.50035C4.89281 34.0994 4.40039 34.5919 4.40039 35.1994C4.40026 35.8069 4.89281 36.2993 5.50035 36.2993Z" fill="#428DFF"></path><path d="M60.4997 31.8993C61.1073 31.8993 61.5997 31.4067 61.5997 30.7993C61.5997 30.1918 61.1071 29.6993 60.4997 29.6993H59.3998C58.7922 29.6993 58.2998 30.1919 58.2998 30.7993C58.2998 31.4068 58.7922 31.8993 59.3998 31.8993H60.4997Z" fill="#428DFF"></path><path d="M51.6996 31.8993H54.9996C55.6071 31.8993 56.0995 31.4067 56.0995 30.7993C56.0995 30.1918 55.6071 29.6993 54.9996 29.6993H51.6996C51.092 29.6993 50.5996 30.1919 50.5996 30.7993C50.5995 31.4067 51.092 31.8993 51.6996 31.8993Z" fill="#428DFF"></path><path d="M51.6996 36.2993H60.4996C61.1071 36.2993 61.5996 35.8068 61.5996 35.1994C61.5996 34.5918 61.107 34.0994 60.4996 34.0994H51.6996C51.092 34.0994 50.5996 34.5919 50.5996 35.1994C50.5995 35.8069 51.092 36.2993 51.6996 36.2993Z" fill="#428DFF"></path></svg>