<svg xmlns:xlink="http://www.w3.org/1999/xlink" xmlns="http://www.w3.org/2000/svg" width="210" height="210" viewBox="0 0 210 210" fill="none"><path d="M46.2275 53.4025L82.7817 63.2236L70.2096 70.5018C64.3541 73.8916 56.8667 71.88 53.486 66.0086L46.2275 53.4025Z" fill="#3390FF"></path><path fill-rule="evenodd" clip-rule="evenodd" d="M29.2243 50.9694L70.6248 39.8461L103.191 59.5101L121.632 128.521C123.285 134.704 119.625 141.059 113.459 142.716L57.7417 157.686C51.5755 159.342 45.2373 155.673 43.5851 149.49L21.051 65.1643C19.3988 58.9814 23.0581 52.6261 29.2243 50.9694Z" fill="#E1E6F2"></path><path d="M70.7129 39.9469L103.486 58.92L89.4641 62.6874C82.9332 64.4421 76.2201 60.5559 74.4702 54.0072L70.7129 39.9469Z" fill="#3390FF"></path><path fill-rule="evenodd" clip-rule="evenodd" d="M55.6262 34H98.5385L124.944 61.4964V133.095C124.944 139.496 119.769 144.686 113.385 144.686H55.6262C49.2424 144.686 44.0674 139.496 44.0674 133.095V45.5901C44.0674 39.1891 49.2424 34 55.6262 34Z" fill="#996BFE"></path><path opacity="0.965588" fill-rule="evenodd" clip-rule="evenodd" d="M62.649 87.9969C60.1111 87.9969 58.0537 85.9321 58.0537 83.3851C58.0537 80.838 60.1111 78.7732 62.649 78.7732C65.1869 78.7732 67.2443 80.838 67.2443 83.3851C67.2443 85.9321 65.1869 87.9969 62.649 87.9969ZM62.649 117.552C60.1111 117.552 58.0537 115.487 58.0537 112.94C58.0537 110.393 60.1111 108.328 62.649 108.328C65.1869 108.328 67.2443 110.393 67.2443 112.94C67.2443 115.487 65.1869 117.552 62.649 117.552ZM75.8569 56.752H93.1516C93.79 56.752 94.3075 57.2709 94.3075 57.911V58.6675C94.3075 59.3076 93.79 59.8265 93.1516 59.8265H75.8569C75.2185 59.8265 74.701 59.3076 74.701 58.6675V57.911C74.701 57.2709 75.2185 56.752 75.8569 56.752ZM75.8569 62.2862H111.533C112.171 62.2862 112.689 62.8051 112.689 63.4452V64.2018C112.689 64.8419 112.171 65.3608 111.533 65.3608H75.8569C75.2185 65.3608 74.701 64.8419 74.701 64.2018V63.4452C74.701 62.8051 75.2185 62.2862 75.8569 62.2862ZM75.8569 67.8205H99.2787C99.917 67.8205 100.435 68.3394 100.435 68.9795V69.7361C100.435 70.3762 99.917 70.8951 99.2787 70.8951H75.8569C75.2185 70.8951 74.701 70.3762 74.701 69.7361V68.9795C74.701 68.3394 75.2185 67.8205 75.8569 67.8205ZM104.041 67.8205H111.533C112.171 67.8205 112.689 68.3394 112.689 68.9795V69.7361C112.689 70.3762 112.171 70.8951 111.533 70.8951H104.041C103.403 70.8951 102.885 70.3762 102.885 69.7361V68.9795C102.885 68.3394 103.403 67.8205 104.041 67.8205ZM75.8569 77.6592H93.1516C93.79 77.6592 94.3075 78.1781 94.3075 78.8182V79.5748C94.3075 80.2149 93.79 80.7338 93.1516 80.7338H75.8569C75.2185 80.7338 74.701 80.2149 74.701 79.5748V78.8182C74.701 78.1781 75.2185 77.6592 75.8569 77.6592ZM75.8569 83.1935H111.533C112.171 83.1935 112.689 83.7124 112.689 84.3525V85.1091C112.689 85.7492 112.171 86.2681 111.533 86.2681H75.8569C75.2185 86.2681 74.701 85.7492 74.701 85.1091V84.3525C74.701 83.7124 75.2185 83.1935 75.8569 83.1935ZM75.8569 88.7278H111.533C112.171 88.7278 112.689 89.2467 112.689 89.8868V90.6434C112.689 91.2835 112.171 91.8024 111.533 91.8024H75.8569C75.2185 91.8024 74.701 91.2835 74.701 90.6434V89.8868C74.701 89.2467 75.2185 88.7278 75.8569 88.7278ZM75.8569 93.6471H111.533C112.171 93.6471 112.689 94.166 112.689 94.8061V95.5627C112.689 96.2028 112.171 96.7217 111.533 96.7217H75.8569C75.2185 96.7217 74.701 96.2028 74.701 95.5627V94.8061C74.701 94.166 75.2185 93.6471 75.8569 93.6471ZM75.8569 107.79H93.1516C93.79 107.79 94.3075 108.309 94.3075 108.949V109.706C94.3075 110.346 93.79 110.865 93.1516 110.865H75.8569C75.2185 110.865 74.701 110.346 74.701 109.706V108.949C74.701 108.309 75.2185 107.79 75.8569 107.79ZM75.8569 113.325H111.533C112.171 113.325 112.689 113.843 112.689 114.484V115.24C112.689 115.88 112.171 116.399 111.533 116.399H75.8569C75.2185 116.399 74.701 115.88 74.701 115.24V114.484C74.701 113.843 75.2185 113.325 75.8569 113.325ZM75.8569 118.859H99.2787C99.917 118.859 100.435 119.378 100.435 120.018V120.774C100.435 121.415 99.917 121.933 99.2787 121.933H75.8569C75.2185 121.933 74.701 121.415 74.701 120.774V120.018C74.701 119.378 75.2185 118.859 75.8569 118.859ZM104.041 118.859H111.533C112.171 118.859 112.689 119.378 112.689 120.018V120.774C112.689 121.415 112.171 121.933 111.533 121.933H104.041C103.403 121.933 102.885 121.415 102.885 120.774V120.018C102.885 119.378 103.403 118.859 104.041 118.859ZM62.7533 68.4354C60.2154 68.4354 58.158 66.3706 58.158 63.8235C58.158 61.2764 60.2154 59.2116 62.7533 59.2116C65.2912 59.2116 67.3486 61.2764 67.3486 63.8235C67.3486 66.3706 65.2912 68.4354 62.7533 68.4354Z" fill="#FFF2F2"></path><path d="M98.5977 34.1207L125.382 61.0024H110.852C104.084 61.0024 98.5977 55.4962 98.5977 48.704V34.1207Z" fill="#CFB9FF"></path><path fill-rule="evenodd" clip-rule="evenodd" d="M37.3625 112.233H157.69C160.371 112.233 162.544 114.413 162.544 117.101V193.132C162.544 195.821 160.371 198 157.69 198H37.3625C34.6813 198 32.5078 195.821 32.5078 193.132V117.101C32.5078 114.413 34.6813 112.233 37.3625 112.233Z" fill="#428DFF"></path><path opacity="0.965588" fill-rule="evenodd" clip-rule="evenodd" d="M43.1421 131.936H71.4717C71.9186 131.936 72.2808 132.3 72.2808 132.748V140.101C72.2808 140.549 71.9186 140.912 71.4717 140.912H43.1421C42.6953 140.912 42.333 140.549 42.333 140.101V132.748C42.333 132.3 42.6953 131.936 43.1421 131.936ZM43.1421 145.898H71.4717C71.9186 145.898 72.2808 146.262 72.2808 146.71V154.063C72.2808 154.511 71.9186 154.874 71.4717 154.874H43.1421C42.6953 154.874 42.333 154.511 42.333 154.063V146.71C42.333 146.262 42.6953 145.898 43.1421 145.898ZM43.1421 159.86H71.4717C71.9186 159.86 72.2808 160.224 72.2808 160.672V168.025C72.2808 168.473 71.9186 168.836 71.4717 168.836H43.1421C42.6953 168.836 42.333 168.473 42.333 168.025V160.672C42.333 160.224 42.6953 159.86 43.1421 159.86ZM78.0812 131.936H151.333C151.779 131.936 152.142 132.3 152.142 132.748V140.101C152.142 140.549 151.779 140.912 151.333 140.912H78.0812C77.6344 140.912 77.2721 140.549 77.2721 140.101V132.748C77.2721 132.3 77.6344 131.936 78.0812 131.936ZM78.0812 146.896H151.333C151.779 146.896 152.142 147.259 152.142 147.707V196.261H77.2721V147.707C77.2721 147.259 77.6344 146.896 78.0812 146.896Z" fill="#A4C2F7"></path><path opacity="0.965588" fill-rule="evenodd" clip-rule="evenodd" d="M45.2227 123.244C43.6268 123.244 42.333 121.947 42.333 120.346C42.333 118.746 43.6268 117.449 45.2227 117.449C46.8186 117.449 48.1124 118.746 48.1124 120.346C48.1124 121.947 46.8186 123.244 45.2227 123.244ZM53.8918 123.244C52.2959 123.244 51.0021 121.947 51.0021 120.346C51.0021 118.746 52.2959 117.449 53.8918 117.449C55.4878 117.449 56.7815 118.746 56.7815 120.346C56.7815 121.947 55.4878 123.244 53.8918 123.244ZM62.5609 123.244C60.965 123.244 59.6712 121.947 59.6712 120.346C59.6712 118.746 60.965 117.449 62.5609 117.449C64.1569 117.449 65.4506 118.746 65.4506 120.346C65.4506 121.947 64.1569 123.244 62.5609 123.244Z" fill="#A1C0F7"></path><path fill-rule="evenodd" clip-rule="evenodd" d="M186.24 81.2547C186.24 115.846 160.227 155.075 144.339 155.075C128.451 155.075 102.438 111.923 102.438 81.2547C112.794 81.2547 131.363 68.502 144.339 68.7746C157.316 69.0472 175.885 81.2547 186.24 81.2547Z" fill="url(&quot;#paint0_linear&quot;)"></path><path opacity="0.965588" fill-rule="evenodd" clip-rule="evenodd" d="M110.403 87.3535C118.714 87.3535 133.616 78.0667 144.031 77.8593C144.031 94.9673 144.031 137.084 144.031 146.686C134.206 146.686 110.403 113.669 110.403 87.3535Z" fill="url(&quot;#paint1_linear&quot;)"></path><path opacity="0.965588" fill-rule="evenodd" clip-rule="evenodd" d="M177.658 87.3535C177.658 113.669 153.855 146.686 144.03 146.686C144.03 137.084 144.03 94.9673 144.03 77.8593C154.445 78.0667 169.347 87.3535 177.658 87.3535Z" fill="url(&quot;#paint2_linear&quot;)"></path><path d="M152.256 103.112C153.561 101.855 155.63 101.901 156.878 103.215C158.126 104.528 158.08 106.612 156.776 107.869L142.223 121.89C140.704 123.353 138.227 123.013 137.153 121.193L131.09 110.923C130.168 109.36 130.678 107.34 132.23 106.411C133.782 105.482 135.788 105.996 136.71 107.559L140.673 114.271L152.256 103.112Z" fill="#FFFFFF"></path><path d="M45.2223 185.251C45.8607 185.251 46.3782 185.77 46.3782 186.41C46.3782 187.05 45.8607 187.569 45.2223 187.569H41.7546C41.1163 187.569 40.5988 187.05 40.5988 186.41C40.5988 185.77 41.1163 185.251 41.7546 185.251H45.2223ZM35.9752 185.251C36.6136 185.251 37.1311 185.77 37.1311 186.41C37.1311 187.05 36.6136 187.569 35.9752 187.569H32.5076C31.8692 187.569 31.3517 187.05 31.3517 186.41C31.3517 185.77 31.8692 185.251 32.5076 185.251H35.9752ZM26.9859 184.752C27.6113 184.88 28.0147 185.493 27.8868 186.12C27.759 186.747 27.1483 187.151 26.5229 187.023C25.3327 186.779 24.1652 186.455 23.0275 186.053C22.4253 185.841 22.1091 185.179 22.3211 184.575C22.5332 183.971 23.1932 183.654 23.7953 183.867C24.8336 184.233 25.8993 184.529 26.9859 184.752ZM18.821 181.432C19.3584 181.777 19.5148 182.494 19.1703 183.033C18.8257 183.572 18.1108 183.729 17.5733 183.383C16.5517 182.727 15.5787 182.001 14.6621 181.211C14.1778 180.794 14.1224 180.063 14.5383 179.577C14.9543 179.091 15.684 179.036 16.1683 179.453C17.0033 180.172 17.8898 180.833 18.821 181.432ZM12.4486 175.395C12.8217 175.914 12.7043 176.639 12.1863 177.013C11.6683 177.387 10.946 177.269 10.5728 176.75C9.86203 175.761 9.225 174.723 8.66725 173.645C8.37334 173.076 8.59446 172.377 9.16115 172.082C9.72784 171.787 10.4255 172.009 10.7194 172.577C11.2253 173.555 11.8033 174.497 12.4486 175.395ZM8.82062 167.445C8.9669 168.068 8.58174 168.692 7.96035 168.839C7.33896 168.986 6.71664 168.6 6.57037 167.977C6.29287 166.795 6.10323 165.59 6.0039 164.371C5.95193 163.733 6.4256 163.173 7.06185 163.121C7.69811 163.069 8.25602 163.544 8.30799 164.182C8.39791 165.286 8.56952 166.376 8.82062 167.445ZM8.54065 158.668C8.43471 159.299 7.8385 159.725 7.20897 159.618C6.57945 159.512 6.155 158.914 6.26094 158.283C6.46304 157.079 6.75452 155.895 7.13227 154.739C7.33106 154.131 7.98399 153.8 8.59063 153.999C9.19726 154.198 9.52788 154.853 9.32908 155.461C8.98724 156.507 8.72352 157.578 8.54065 158.668ZM11.6838 150.46C11.3424 151.001 10.6283 151.162 10.0889 150.82C9.54951 150.477 9.38903 149.762 9.73046 149.221C10.3778 148.195 11.1001 147.216 11.8912 146.29C12.3066 145.804 13.0363 145.748 13.521 146.164C14.0058 146.581 14.0621 147.312 13.6467 147.798C12.9277 148.64 12.2716 149.529 11.6838 150.46ZM17.6917 144.061C17.175 144.437 16.4522 144.322 16.0774 143.804C15.7026 143.286 15.8176 142.561 16.3344 142.185C17.3121 141.474 18.3404 140.83 19.4115 140.259C19.9752 139.958 20.675 140.173 20.9748 140.738C21.2745 141.303 21.0605 142.005 20.4969 142.306C19.5203 142.826 18.5829 143.413 17.6917 144.061ZM25.6025 140.295C24.9856 140.46 24.3524 140.092 24.1881 139.473C24.0238 138.855 24.3908 138.22 25.0077 138.055C26.1717 137.744 27.3599 137.512 28.5659 137.361C29.1993 137.282 29.777 137.732 29.8561 138.367C29.9352 139.003 29.4858 139.582 28.8523 139.661C27.7506 139.799 26.6653 140.011 25.6025 140.295ZM53.6801 188.348C52.2437 188.348 51.0793 187.181 51.0793 185.741C51.0793 184.3 52.2437 183.133 53.6801 183.133C55.1164 183.133 56.2808 184.3 56.2808 185.741C56.2808 187.181 55.1164 188.348 53.6801 188.348ZM53.6801 190.087C56.074 190.087 58.0146 188.141 58.0146 185.741C58.0146 183.34 56.074 181.394 53.6801 181.394C51.2862 181.394 49.3455 183.34 49.3455 185.741C49.3455 188.141 51.2862 190.087 53.6801 190.087ZM53.6801 191.825C50.3286 191.825 47.6117 189.101 47.6117 185.741C47.6117 182.38 50.3286 179.656 53.6801 179.656C57.0315 179.656 59.7485 182.38 59.7485 185.741C59.7485 189.101 57.0315 191.825 53.6801 191.825ZM168.324 104.7C167.685 104.7 167.168 104.181 167.168 103.541C167.168 102.901 167.685 102.382 168.324 102.382C168.594 102.382 170.352 102.383 171.792 102.385C172.43 102.385 172.947 102.905 172.947 103.545C172.946 104.185 172.428 104.703 171.79 104.703C170.351 104.701 168.593 104.7 168.324 104.7ZM177.564 104.714C176.926 104.71 176.411 104.189 176.415 103.549C176.418 102.909 176.938 102.392 177.577 102.396C177.819 102.397 177.946 102.398 177.998 102.4C179.077 102.44 180.147 102.544 181.203 102.71C181.834 102.81 182.264 103.403 182.165 104.036C182.066 104.668 181.474 105.1 180.844 105C179.879 104.848 178.9 104.753 177.913 104.717C177.898 104.716 177.765 104.715 177.564 104.714ZM186.158 106.475C185.567 106.235 185.281 105.559 185.52 104.966C185.76 104.372 186.433 104.086 187.025 104.326C188.15 104.782 189.239 105.314 190.285 105.919C190.838 106.238 191.029 106.947 190.71 107.501C190.391 108.056 189.685 108.247 189.132 107.927C188.177 107.376 187.184 106.891 186.158 106.475ZM193.554 111.219C193.089 110.78 193.067 110.047 193.505 109.581C193.942 109.115 194.674 109.092 195.139 109.531C196.023 110.367 196.846 111.262 197.6 112.21C197.998 112.71 197.916 113.439 197.417 113.838C196.918 114.238 196.191 114.155 195.793 113.655C195.107 112.793 194.359 111.979 193.554 111.219ZM198.696 118.388C198.431 117.806 198.687 117.118 199.268 116.853C199.849 116.587 200.534 116.844 200.799 117.426C201.304 118.535 201.725 119.678 202.06 120.85C202.235 121.465 201.88 122.107 201.267 122.283C200.653 122.46 200.013 122.104 199.837 121.488C199.534 120.428 199.153 119.392 198.696 118.388ZM200.677 126.88C200.657 126.24 201.158 125.705 201.796 125.685C202.434 125.665 202.968 126.167 202.988 126.807C202.996 127.066 203 127.326 203 127.586C203 128.552 202.944 129.508 202.834 130.455C202.76 131.09 202.185 131.545 201.551 131.471C200.917 131.397 200.464 130.821 200.538 130.185C200.638 129.328 200.688 128.462 200.688 127.586C200.688 127.35 200.684 127.115 200.677 126.88ZM199.225 135.527C199.454 134.929 200.123 134.631 200.719 134.86C201.315 135.089 201.612 135.76 201.384 136.357C200.949 137.493 200.43 138.596 199.832 139.658C199.518 140.215 198.813 140.412 198.257 140.097C197.701 139.782 197.505 139.075 197.819 138.517C198.361 137.555 198.832 136.556 199.225 135.527ZM194.556 142.955C194.994 142.489 195.725 142.467 196.19 142.905C196.655 143.344 196.678 144.077 196.24 144.544C195.412 145.427 194.52 146.252 193.572 147.013C193.074 147.413 192.347 147.332 191.948 146.833C191.549 146.333 191.629 145.604 192.128 145.203C192.991 144.51 193.803 143.759 194.556 142.955ZM187.414 148.154C187.991 147.88 188.68 148.128 188.953 148.707C189.225 149.285 188.979 149.976 188.402 150.25C187.31 150.767 186.182 151.209 185.024 151.573C184.415 151.765 183.766 151.425 183.575 150.814C183.384 150.203 183.723 149.553 184.332 149.362C185.389 149.029 186.418 148.626 187.414 148.154ZM178.962 150.403C179.599 150.352 180.156 150.828 180.206 151.466C180.256 152.105 179.781 152.663 179.145 152.713C178.435 152.77 177.72 152.798 177.001 152.799H175.58C174.941 152.799 174.424 152.28 174.424 151.64C174.424 150.999 174.941 150.481 175.58 150.481H177C177.658 150.48 178.313 150.454 178.962 150.403ZM169.8 150.481C170.439 150.481 170.956 150.999 170.956 151.64C170.956 152.28 170.439 152.799 169.8 152.799H166.333C165.694 152.799 165.177 152.28 165.177 151.64C165.177 150.999 165.694 150.481 166.333 150.481H169.8ZM160.521 107.597C162.915 107.597 164.856 105.651 164.856 103.251C164.856 100.85 162.915 98.9046 160.521 98.9046C158.127 98.9046 156.187 100.85 156.187 103.251C156.187 105.651 158.127 107.597 160.521 107.597ZM160.521 109.336C157.17 109.336 154.453 106.611 154.453 103.251C154.453 99.8903 157.17 97.1661 160.521 97.1661C163.873 97.1661 166.59 99.8903 166.59 103.251C166.59 106.611 163.873 109.336 160.521 109.336ZM160.521 105.859C159.085 105.859 157.921 104.691 157.921 103.251C157.921 101.811 159.085 100.643 160.521 100.643C161.958 100.643 163.122 101.811 163.122 103.251C163.122 104.691 161.958 105.859 160.521 105.859Z" fill="#D4DFFF"></path><path d="M146.615 157.037C200.022 134.194 193.155 85.3739 191.192 75.6283C191.099 75.1764 190.825 74.7824 190.433 74.5379C190.041 74.2934 189.566 74.2196 189.118 74.3339C164.238 80.1355 151.967 66.5391 148.085 60.9327C147.769 60.4659 147.242 60.1862 146.677 60.1862C146.113 60.1862 145.585 60.4659 145.269 60.9327C141.373 66.5393 129.062 80.1407 104.176 74.3339C103.729 74.2196 103.253 74.2934 102.862 74.5379C102.47 74.7824 102.196 75.1764 102.103 75.6283C100.139 85.3739 93.2725 134.194 146.679 157.037H146.615Z" fill="#E3E7F2"></path><path d="M146.648 149.59C106.976 131.127 106.354 96.3409 107.997 81.9556C110.578 82.3322 113.181 82.5244 115.789 82.5308C127.399 82.7516 138.58 78.1577 146.67 69.8436C154.74 78.1565 165.908 82.7504 177.504 82.5274C180.111 82.521 182.715 82.3288 185.294 81.9523C186.941 96.3427 186.319 131.127 146.648 149.59Z" fill="#E3E7F2"></path><path d="M146.646 157.02C145.779 156.647 144.929 156.273 144.097 155.883C194.698 132.592 188.018 85.2297 186.097 75.6282C186.052 75.4019 185.96 75.1878 185.825 75.0006C186.896 74.831 188.001 74.5934 189.123 74.339C189.569 74.2277 190.042 74.302 190.433 74.5449C190.824 74.7879 191.099 75.1789 191.196 75.6282C193.151 85.3824 200.018 134.17 146.646 157.02Z" fill="#A4C2F7"></path><path d="M146.646 149.59C145.779 149.183 144.929 148.776 144.113 148.352C180.827 129.828 181.796 96.7994 180.266 82.4481C181.951 82.3741 183.631 82.2099 185.298 81.9561C186.946 96.3413 186.317 131.134 146.646 149.59Z" fill="#A4C2F7"></path><path d="M146.679 157.037L146.647 157.021L146.615 157.037H146.679Z" fill="#FFFFFF"></path><path d="M107.474 74.9919C106.398 74.8071 105.305 74.5967 104.176 74.3337C103.729 74.2194 103.254 74.2932 102.862 74.5377C102.47 74.7822 102.196 75.1762 102.103 75.6281C100.172 85.2143 93.5413 132.575 144.13 155.866L144.098 155.883C144.895 156.256 145.711 156.614 146.539 156.972C146.578 156.988 146.612 157.006 146.649 157.021C147.53 156.645 148.371 156.251 149.217 155.861C98.6422 132.567 105.271 85.2125 107.202 75.6281C107.248 75.3997 107.341 75.1832 107.474 74.9919Z" fill="#FFFFFF"></path><path d="M149.229 62.4674C148.792 61.911 148.41 61.3919 148.09 60.9287C147.774 60.462 147.246 60.1823 146.682 60.1823C146.117 60.1823 145.59 60.462 145.274 60.9287C139.061 69.7555 129.092 75.2001 118.294 75.6635C135.402 76.6491 145.034 67.7821 149.229 62.4674Z" fill="#FFFFFF"></path><path d="M146.009 158.595C139.087 155.671 132.549 151.911 126.544 147.399C115.417 139.042 107.117 127.488 102.758 114.288C100.624 107.736 99.3975 100.924 99.1118 94.0401C98.7694 87.1404 99.3514 80.2262 100.842 73.4801L104.129 74.3486C102.73 80.7627 102.185 87.3328 102.508 93.889C102.78 100.463 103.951 106.969 105.987 113.228C110.13 125.782 118.025 136.769 128.611 144.712C134.392 149.051 140.685 152.666 147.348 155.478L146.009 158.595Z" fill="#FFFFFF"></path><path d="M139.759 155.649C141.739 156.678 143.793 157.554 145.81 158.504C146.054 158.647 146.331 158.726 146.614 158.733H146.679C147 158.734 147.314 158.641 147.583 158.466C207.381 132.682 192.607 74.0701 192.456 73.4781C192.216 72.5728 191.286 72.0328 190.379 72.272C161.373 79.8971 149.754 60.8521 148.282 58.1666C148.236 58.0219 148.173 57.8833 148.093 57.7543C147.755 57.284 147.21 57.0051 146.63 57.0051C146.05 57.0051 145.506 57.284 145.168 57.7543C145.072 57.912 145.001 58.0837 144.959 58.2632C143.279 61.266 131.601 79.8039 102.918 72.2738C102.011 72.0358 101.082 72.5754 100.842 73.4799C99.3511 80.2257 98.7691 87.1402 99.1121 94.0399C99.3977 100.923 100.624 107.736 102.758 114.288C107.117 127.488 115.417 139.043 126.544 147.401C127.003 147.754 127.482 148.079 127.951 148.419C128.709 148.963 129.765 148.796 130.316 148.044C130.867 147.292 130.708 146.237 129.959 145.681C129.51 145.357 129.049 145.046 128.611 144.711C118.027 136.77 110.132 125.786 105.987 113.234C103.951 106.976 102.781 100.47 102.508 93.8957C102.235 87.896 102.676 81.885 103.822 75.9888C129.447 81.933 142.453 67.8073 146.646 61.8699C150.843 67.8073 163.865 81.9719 189.54 75.9702C191.539 85.4969 198.447 132.53 146.648 155.15C144.861 154.319 143.051 153.532 141.307 152.622C140.484 152.195 139.469 152.511 139.035 153.33C138.594 154.17 138.918 155.207 139.759 155.649Z" fill="#428DFF"></path><path d="M133.722 152.261C134.111 152.496 134.575 152.576 135.021 152.485L135.325 152.375C135.429 152.328 135.525 152.267 135.612 152.193C135.703 152.136 135.785 152.065 135.854 151.983C135.926 151.896 135.994 151.804 136.054 151.708C136.274 151.314 136.344 150.854 136.25 150.412C136.192 150.198 136.095 149.996 135.964 149.817C135.569 149.271 134.885 149.013 134.227 149.16C134.011 149.219 133.808 149.316 133.627 149.447C133.061 149.836 132.791 150.53 132.947 151.198C133.063 151.637 133.339 152.016 133.722 152.261Z" fill="#428DFF"></path><path d="M146.644 151.288C146.893 151.288 147.138 151.233 147.363 151.128C188.422 132.041 188.782 96.2472 187.031 81.7467C186.977 81.2928 186.741 80.8801 186.377 80.6022C186.013 80.3243 185.552 80.2048 185.099 80.2708C182.583 80.6402 180.045 80.829 177.503 80.8358C176.564 80.8358 175.803 81.5954 175.803 82.5321C175.803 83.4688 176.564 84.2284 177.503 84.2284C179.62 84.2248 181.736 84.1002 183.839 83.8553C185.223 98.4558 183.467 130.204 146.644 147.717C143.151 146.068 139.778 144.176 136.551 142.054C136.046 141.698 135.386 141.644 134.829 141.914C134.272 142.184 133.906 142.734 133.873 143.351C133.841 143.968 134.147 144.554 134.673 144.88C138.263 147.242 142.026 149.332 145.929 151.131C146.153 151.235 146.397 151.288 146.644 151.288Z" fill="#428DFF"></path><path d="M115.791 84.2267C127.251 84.4612 138.34 80.1691 146.644 72.2842C151.324 76.7729 156.977 80.1248 163.166 82.0789C163.748 82.2759 164.391 82.1441 164.848 81.734C165.305 81.3239 165.505 80.6995 165.37 80.1011C165.236 79.5025 164.788 79.0232 164.199 78.8473C157.998 76.8816 152.388 73.3976 147.882 68.7132C147.202 68.0516 146.118 68.0516 145.438 68.7132C137.676 76.6886 126.939 81.08 115.801 80.8339C113.272 80.8271 110.745 80.64 108.243 80.2741C107.788 80.2087 107.326 80.3299 106.962 80.6098C106.599 80.8897 106.364 81.3046 106.312 81.76C105.425 89.4778 105.752 97.2866 107.28 104.904C109.437 115.945 114.625 126.171 122.267 134.441C122.68 134.886 123.299 135.077 123.892 134.942C124.484 134.808 124.96 134.368 125.139 133.789C125.319 133.209 125.175 132.578 124.762 132.133C117.538 124.321 112.634 114.658 110.596 104.223C109.252 97.5255 108.882 90.6696 109.498 83.8666C111.587 84.1058 113.688 84.2259 115.791 84.2267Z" fill="#428DFF"></path><path d="M133.081 128.198H146.678C147.617 128.198 148.378 127.439 148.378 126.502C148.378 125.565 147.617 124.806 146.678 124.806H133.081C132.142 124.806 131.381 125.565 131.381 126.502C131.381 127.439 132.142 128.198 133.081 128.198Z" fill="#428DFF"></path><path d="M153.478 124.805C152.539 124.805 151.778 125.565 151.778 126.502C151.778 127.439 152.539 128.198 153.478 128.198H160.277C161.216 128.198 161.976 127.438 161.976 126.502C161.976 125.565 161.215 124.805 160.277 124.805H153.478Z" fill="#428DFF"></path><path d="M105.886 150.251C106.825 150.251 107.585 149.492 107.585 148.555V145.162H110.985C111.924 145.162 112.685 144.402 112.685 143.466C112.685 142.529 111.924 141.769 110.985 141.769H107.585V138.377C107.585 137.44 106.824 136.68 105.886 136.68C104.947 136.68 104.186 137.44 104.186 138.377V141.769H100.787C99.8478 141.769 99.0869 142.529 99.0869 143.466C99.0869 144.403 99.848 145.162 100.787 145.162H104.186V148.555C104.186 149.492 104.947 150.251 105.886 150.251Z" fill="#428DFF"></path><path d="M195.171 162.724C196.11 162.724 196.871 161.965 196.871 161.028V157.635H200.27C201.209 157.635 201.97 156.876 201.97 155.939C201.97 155.002 201.209 154.243 200.27 154.243H196.871V150.85C196.871 149.913 196.11 149.154 195.171 149.154C194.232 149.154 193.471 149.913 193.471 150.85V154.243H190.072C189.133 154.243 188.372 155.002 188.372 155.939C188.372 156.876 189.133 157.635 190.072 157.635H193.471V161.028C193.471 161.965 194.232 162.724 195.171 162.724Z" fill="#428DFF"></path><path d="M184.073 56.9509C183.134 56.9509 182.373 57.7105 182.373 58.6472V60.3435H180.673C179.735 60.3435 178.974 61.1031 178.974 62.0398C178.974 62.9765 179.735 63.7361 180.673 63.7361H182.373V65.4324C182.373 66.3693 183.134 67.1287 184.073 67.1287C185.011 67.1287 185.772 66.3691 185.772 65.4324V63.7361H187.472C188.411 63.7361 189.172 62.9765 189.172 62.0398C189.172 61.1031 188.411 60.3435 187.472 60.3435H185.772V58.6472C185.772 57.7105 185.011 56.9509 184.073 56.9509Z" fill="#428DFF"></path><path d="M161.478 94.7679C160.815 94.1058 159.739 94.1058 159.075 94.7679L138.18 115.621L134.283 111.732C133.616 111.089 132.556 111.098 131.9 111.752C131.245 112.407 131.235 113.465 131.88 114.13L136.979 119.219C137.642 119.882 138.718 119.882 139.382 119.219L161.478 97.1666C162.142 96.504 162.142 95.4303 161.478 94.7679Z" fill="#428DFF"></path><path fill-rule="evenodd" clip-rule="evenodd" d="M167.918 164.72H182.968C183.472 164.72 183.88 165.129 183.88 165.633V166.229C183.88 166.733 183.472 167.142 182.968 167.142H167.918C167.414 167.142 167.006 166.733 167.006 166.229V165.633C167.006 165.129 167.414 164.72 167.918 164.72ZM167.918 169.284H192.089C192.593 169.284 193.002 169.693 193.002 170.197V170.793C193.002 171.297 192.593 171.705 192.089 171.705H167.918C167.414 171.705 167.006 171.297 167.006 170.793V170.197C167.006 169.693 167.414 169.284 167.918 169.284Z" fill="#FB65BC"></path><defs><linearGradient id="paint0_linear" x1="167.982" y1="68.7703" x2="137.046" y2="154.506" gradientUnits="userSpaceOnUse"><stop stop-color="#17B7BD"></stop><stop offset="1" stop-color="#9DEB93"></stop></linearGradient><linearGradient id="paint1_linear" x1="127.217" y1="56.5506" x2="127.217" y2="165.876" gradientUnits="userSpaceOnUse"><stop stop-color="#FFF2F2" stop-opacity="0.139408"></stop><stop offset="1" stop-color="#FEFAF9"></stop></linearGradient><linearGradient id="paint2_linear" x1="160.844" y1="15.101" x2="160.844" y2="146.686" gradientUnits="userSpaceOnUse"><stop stop-color="#FFF2F2" stop-opacity="0.139408"></stop><stop offset="1" stop-color="#F9FBFE"></stop></linearGradient><linearGradient id="paint0_linear" x1="167.982" y1="68.7703" x2="137.046" y2="154.506" gradientUnits="userSpaceOnUse"><stop stop-color="#17B7BD"></stop><stop offset="1" stop-color="#9DEB93"></stop></linearGradient><linearGradient id="paint1_linear" x1="127.217" y1="56.5506" x2="127.217" y2="165.876" gradientUnits="userSpaceOnUse"><stop stop-color="#FFF2F2" stop-opacity="0.139408"></stop><stop offset="1" stop-color="#FEFAF9"></stop></linearGradient><linearGradient id="paint2_linear" x1="160.844" y1="15.101" x2="160.844" y2="146.686" gradientUnits="userSpaceOnUse"><stop stop-color="#FFF2F2" stop-opacity="0.139408"></stop><stop offset="1" stop-color="#F9FBFE"></stop></linearGradient></defs></svg>