<svg xmlns:xlink="http://www.w3.org/1999/xlink" xmlns="http://www.w3.org/2000/svg" width="210" height="210" viewBox="0 0 210 210" fill="none"><path fill-rule="evenodd" clip-rule="evenodd" d="M52.5624 129.183C33.6204 107.098 35.9294 73.6302 57.7196 54.4316C79.5098 35.2329 112.53 37.5732 131.472 59.6587C150.414 81.7442 148.105 115.212 126.314 134.41C104.524 153.609 71.5043 151.268 52.5624 129.183Z" fill="#966AFF"></path><path fill-rule="evenodd" clip-rule="evenodd" d="M140.25 73.9401C148.734 94.4563 143.786 119.019 126.317 134.41C110.999 147.906 90.131 150.758 72.5057 143.589L72.3984 141.937C78.4865 134.158 84.423 129.538 90.208 128.076C98.8855 125.885 94.0002 141.14 103.703 138.401C113.405 135.662 105.248 128.146 116.791 124.896C128.335 121.646 124.981 108.692 119.438 96.8691C115.743 88.9869 122.381 80.9811 139.354 72.8516L140.25 73.9401Z" fill="url(&quot;#paint0_linear&quot;)"></path><path opacity="0.965588" fill-rule="evenodd" clip-rule="evenodd" d="M55.3382 56.6625C70.1283 66.7061 75.4298 76.2757 71.2427 85.3711C64.95 99.0405 47.6928 102.943 55.1592 116.423C60.1368 125.409 61.4869 131.579 59.2096 134.931L57.9853 134.652C56.0764 132.989 54.2627 131.165 52.5624 129.183C34.3345 107.93 35.7855 76.1375 55.3382 56.6625Z" fill="#CFB9FF"></path><path opacity="0.965588" fill-rule="evenodd" clip-rule="evenodd" d="M102.674 59.6211C109.233 65.4016 115.054 57.9846 117.114 66.4379C119.173 74.8913 102.452 73.7738 99.5998 81.8688C96.7477 89.9639 88.4301 83.3778 86.9866 75.2025C85.543 67.0272 70.0966 60.9859 73.862 53.7882C77.6274 46.5905 92.848 43.9874 96.59 48.3503C100.332 52.7132 96.1146 53.8405 102.674 59.6211Z" fill="#CFB9FF"></path><path d="M183.695 125.428C183.85 124.843 184.443 124.495 185.02 124.652C185.598 124.809 185.94 125.411 185.786 125.996C185.501 127.074 185.194 128.144 184.865 129.204C184.685 129.782 184.078 130.103 183.508 129.922C182.937 129.74 182.62 129.124 182.8 128.546C183.119 127.516 183.418 126.476 183.695 125.428ZM181.018 133.642C181.238 133.079 181.867 132.803 182.423 133.026C182.978 133.248 183.251 133.886 183.031 134.449C182.627 135.485 182.201 136.511 181.754 137.525C181.51 138.078 180.87 138.326 180.325 138.079C179.779 137.832 179.534 137.183 179.778 136.63C180.212 135.645 180.625 134.649 181.018 133.642ZM177.426 141.485C177.709 140.951 178.365 140.751 178.892 141.037C179.418 141.324 179.616 141.989 179.333 142.523C178.812 143.505 178.271 144.475 177.71 145.431C177.404 145.952 176.74 146.123 176.226 145.813C175.712 145.503 175.544 144.83 175.849 144.309C176.395 143.38 176.92 142.439 177.426 141.485ZM172.959 148.848C173.301 148.351 173.976 148.23 174.466 148.577C174.956 148.923 175.076 149.607 174.733 150.104C174.105 151.016 173.457 151.914 172.79 152.797C172.426 153.278 171.747 153.369 171.272 153.001C170.798 152.632 170.708 151.944 171.071 151.463C171.719 150.605 172.348 149.734 172.959 148.848ZM167.667 155.643C168.064 155.19 168.748 155.149 169.195 155.552C169.642 155.954 169.682 156.647 169.285 157.1C168.556 157.932 167.809 158.747 167.045 159.545C166.629 159.98 165.944 159.991 165.514 159.569C165.085 159.147 165.075 158.453 165.491 158.018C166.233 157.242 166.959 156.45 167.667 155.643ZM161.629 161.77C162.075 161.367 162.759 161.407 163.157 161.859C163.555 162.312 163.515 163.005 163.069 163.408C162.249 164.149 161.413 164.872 160.561 165.576C160.098 165.959 159.417 165.89 159.039 165.42C158.661 164.951 158.73 164.26 159.193 163.877C160.02 163.192 160.832 162.49 161.629 161.77ZM154.964 167.126C155.453 166.777 156.128 166.896 156.472 167.392C156.816 167.888 156.698 168.572 156.209 168.92C155.311 169.56 154.399 170.181 153.474 170.781C152.971 171.108 152.301 170.959 151.979 170.449C151.657 169.938 151.803 169.26 152.307 168.933C153.205 168.35 154.091 167.747 154.964 167.126ZM147.702 171.689C148.228 171.4 148.885 171.597 149.17 172.13C149.455 172.662 149.26 173.328 148.735 173.617C147.77 174.148 146.794 174.657 145.808 175.145C145.271 175.411 144.623 175.185 144.36 174.641C144.098 174.096 144.321 173.44 144.858 173.174C145.817 172.7 146.765 172.205 147.702 171.689ZM139.972 175.373C140.527 175.147 141.157 175.42 141.38 175.982C141.603 176.545 141.334 177.183 140.779 177.409C139.76 177.824 138.732 178.216 137.696 178.586C137.132 178.787 136.514 178.486 136.316 177.915C136.117 177.343 136.414 176.717 136.977 176.516C137.984 176.157 138.982 175.776 139.972 175.373ZM131.876 178.128C132.452 177.969 133.047 178.313 133.204 178.898C133.361 179.483 133.021 180.086 132.444 180.245C131.385 180.537 130.319 180.806 129.247 181.052C128.664 181.185 128.085 180.815 127.953 180.224C127.821 179.633 128.187 179.045 128.77 178.912C129.811 178.673 130.846 178.412 131.876 178.128ZM123.509 179.914C124.1 179.824 124.651 180.236 124.74 180.836C124.829 181.435 124.422 181.993 123.83 182.083C122.744 182.249 121.655 182.39 120.562 182.508C119.967 182.571 119.435 182.135 119.372 181.532C119.309 180.93 119.74 180.389 120.334 180.326C121.395 180.212 122.454 180.075 123.509 179.914ZM114.989 180.699C115.587 180.679 116.086 181.154 116.106 181.76C116.125 182.366 115.656 182.872 115.059 182.892C113.961 182.927 112.863 182.939 111.764 182.925C111.166 182.918 110.687 182.421 110.694 181.816C110.701 181.21 111.192 180.724 111.789 180.732C112.857 180.744 113.924 180.733 114.989 180.699ZM106.534 180.477C107.129 180.528 107.572 181.058 107.522 181.662C107.472 182.266 106.948 182.714 106.353 182.663C105.26 182.57 104.168 182.453 103.077 182.312C102.484 182.235 102.065 181.685 102.141 181.084C102.217 180.483 102.759 180.058 103.352 180.135C104.411 180.273 105.472 180.387 106.534 180.477ZM98.0835 179.255C98.6695 179.375 99.0484 179.953 98.9299 180.547C98.8114 181.141 98.2404 181.525 97.6545 181.405C96.5805 181.185 95.5092 180.941 94.441 180.673C93.8608 180.528 93.5067 179.933 93.6502 179.345C93.7937 178.757 94.3805 178.398 94.9607 178.543C95.9988 178.804 97.0399 179.041 98.0835 179.255ZM36.7394 68.3862C36.4907 68.9371 35.8484 69.1795 35.3048 68.9274C34.7613 68.6754 34.5222 68.0244 34.7708 67.4735C35.2292 66.4579 35.7143 65.4547 36.2254 64.4652C36.5026 63.9285 37.1567 63.7211 37.6863 64.0022C38.2159 64.2832 38.4204 64.9461 38.1432 65.4828C37.6499 66.4378 37.1818 67.406 36.7394 68.3862ZM40.817 60.8221C40.4939 61.3318 39.8243 61.4796 39.3214 61.1521C38.8185 60.8246 38.6727 60.1459 38.9958 59.6361C39.5912 58.6969 40.2111 57.7739 40.8549 56.8681C41.2043 56.3766 41.8808 56.2652 42.3658 56.6193C42.8508 56.9735 42.9607 57.6591 42.6113 58.1506C41.9899 59.0248 41.3916 59.9156 40.817 60.8221ZM45.9122 53.9174C45.5211 54.3755 44.8375 54.4255 44.3855 54.029C43.9335 53.6326 43.8842 52.9398 44.2754 52.4817C44.9962 51.6374 45.7392 50.8129 46.5035 50.0089C46.9183 49.5727 47.6035 49.5598 48.034 49.9802C48.4644 50.4006 48.4771 51.0951 48.0623 51.5313C47.3248 52.3071 46.6078 53.1028 45.9122 53.9174ZM51.915 47.8255C51.4635 48.2225 50.7799 48.1733 50.3882 47.7156C49.9965 47.2579 50.045 46.5651 50.4966 46.1681C51.3288 45.4364 52.1805 44.7274 53.0508 44.0417C53.5228 43.67 54.2028 43.7564 54.5696 44.2347C54.9365 44.7131 54.8512 45.4023 54.3792 45.7741C53.5396 46.4355 52.7179 47.1196 51.915 47.8255ZM58.728 42.6564C58.2249 42.9836 57.5553 42.8355 57.2325 42.3256C56.9096 41.8157 57.0557 41.1371 57.5588 40.8099C58.4855 40.2071 59.4288 39.6293 60.3879 39.0771C60.9077 38.7778 61.5684 38.9623 61.8636 39.4891C62.1589 40.0159 61.9769 40.6856 61.4571 40.9848C60.5319 41.5175 59.6219 42.0749 58.728 42.6564ZM66.2171 38.5255C65.6728 38.776 65.0312 38.5319 64.784 37.9803C64.5368 37.4287 64.7776 36.7784 65.3219 36.5278C66.3233 36.0668 67.3384 35.6323 68.3665 35.2248C68.9232 35.0042 69.551 35.2827 69.7687 35.847C69.9864 36.4112 69.7116 37.0475 69.1548 37.2682C68.1628 37.6614 67.1833 38.0806 66.2171 38.5255ZM74.1525 35.5403C73.5789 35.7106 72.9776 35.3773 72.8096 34.7959C72.6416 34.2144 72.9705 33.605 73.5441 33.4347C74.0078 33.2971 74.4736 33.1647 74.9414 33.0377C75.5188 32.8808 76.1123 33.2281 76.267 33.8133C76.4218 34.3985 76.0791 35.0001 75.5017 35.1569C75.05 35.2796 74.6002 35.4074 74.1525 35.5403ZM186.36 115.175C185.015 115.175 183.925 114.07 183.925 112.707C183.925 111.344 185.015 110.239 186.36 110.239C187.705 110.239 188.795 111.344 188.795 112.707C188.795 114.07 187.705 115.175 186.36 115.175ZM186.36 116.821C188.601 116.821 190.419 114.979 190.419 112.707C190.419 110.435 188.601 108.593 186.36 108.593C184.118 108.593 182.301 110.435 182.301 112.707C182.301 114.979 184.118 116.821 186.36 116.821ZM186.36 118.466C183.222 118.466 180.677 115.888 180.677 112.707C180.677 109.526 183.222 106.948 186.36 106.948C189.498 106.948 192.042 109.526 192.042 112.707C192.042 115.888 189.498 118.466 186.36 118.466ZM31.5837 78.4252C30.2387 78.4252 29.1484 77.3201 29.1484 75.9569C29.1484 74.5937 30.2387 73.4886 31.5837 73.4886C32.9287 73.4886 34.019 74.5937 34.019 75.9569C34.019 77.3201 32.9287 78.4252 31.5837 78.4252ZM31.5837 80.0707C33.8253 80.0707 35.6425 78.2289 35.6425 75.9569C35.6425 73.6849 33.8253 71.8431 31.5837 71.8431C29.3421 71.8431 27.5249 73.6849 27.5249 75.9569C27.5249 78.2289 29.3421 80.0707 31.5837 80.0707ZM31.5837 81.7163C28.4454 81.7163 25.9014 79.1377 25.9014 75.9569C25.9014 72.7761 28.4454 70.1976 31.5837 70.1976C34.722 70.1976 37.266 72.7761 37.266 75.9569C37.266 79.1377 34.722 81.7163 31.5837 81.7163Z" fill="#D4DFFF"></path><path fill-rule="evenodd" clip-rule="evenodd" d="M31.9345 102.56H158.761C162.348 102.56 165.255 105.506 165.255 109.142V190.101C165.255 193.737 162.348 196.684 158.761 196.684H31.9345C28.3479 196.684 25.4404 193.737 25.4404 190.101V109.142C25.4404 105.506 28.3479 102.56 31.9345 102.56Z" fill="#428DFF"></path><path opacity="0.965588" fill-rule="evenodd" clip-rule="evenodd" d="M34.539 109.142H156.152C157.587 109.142 158.75 110.32 158.75 111.775V190.101H31.9414V111.775C31.9414 110.32 33.1044 109.142 34.539 109.142Z" fill="#9EBEF7"></path><path opacity="0.965588" fill-rule="evenodd" clip-rule="evenodd" d="M53.4023 121.648H156.157C157.592 121.648 158.755 122.826 158.755 124.281V190.102H50.8047V124.281C50.8047 122.826 51.9677 121.648 53.4023 121.648Z" fill="#E3E7F2"></path><path d="M67.7011 131.521H158.754V147.318H67.7011C63.3972 147.318 59.9082 143.782 59.9082 139.419C59.9082 135.057 63.3972 131.521 67.7011 131.521ZM74.4281 140.304C74.4281 138.893 73.8316 138.187 72.6385 138.187C72.2709 138.187 71.9431 138.259 71.6552 138.403C71.3674 138.547 71.1367 138.756 70.9633 139.03V136.576C70.9633 136.393 70.9044 136.249 70.7864 136.144C70.6685 136.039 70.5124 135.986 70.3182 135.986C70.124 135.986 69.9662 136.042 69.8448 136.155C69.7234 136.267 69.6627 136.414 69.6627 136.597V142.895C69.6627 143.091 69.7199 143.246 69.8344 143.358C69.9489 143.47 70.1067 143.527 70.3078 143.527C70.509 143.527 70.6685 143.47 70.7864 143.358C70.9044 143.246 70.9633 143.091 70.9633 142.895V140.546C70.9633 140.146 71.076 139.827 71.3015 139.588C71.5269 139.349 71.8269 139.23 72.2015 139.23C72.5206 139.23 72.7547 139.316 72.9038 139.488C73.053 139.66 73.1275 139.932 73.1275 140.304V142.895C73.1275 143.091 73.1865 143.246 73.3044 143.358C73.4223 143.47 73.5819 143.527 73.783 143.527C73.9842 143.527 74.142 143.47 74.2564 143.358C74.3709 143.246 74.4281 143.091 74.4281 142.895V140.304ZM79.2351 143.021C79.2351 142.726 79.0617 142.568 78.7149 142.547L78.434 142.526C77.9623 142.491 77.7264 142.214 77.7264 141.694V139.303H78.6109C78.7981 139.303 78.9421 139.261 79.0427 139.177C79.1432 139.093 79.1935 138.97 79.1935 138.809C79.1935 138.647 79.1432 138.524 79.0427 138.44C78.9421 138.356 78.7981 138.314 78.6109 138.314H77.7264V137.345C77.7264 137.155 77.6675 137.004 77.5496 136.892C77.4316 136.779 77.2756 136.723 77.0814 136.723C76.8802 136.723 76.7207 136.779 76.6027 136.892C76.4848 137.004 76.4258 137.155 76.4258 137.345V138.314H75.9056C75.7183 138.314 75.5744 138.356 75.4738 138.44C75.3732 138.524 75.3229 138.647 75.3229 138.809C75.3229 138.97 75.3732 139.093 75.4738 139.177C75.5744 139.261 75.7183 139.303 75.9056 139.303H76.4258V141.599C76.4258 142.779 77.0085 143.411 78.1739 143.495L78.4548 143.516C78.7045 143.53 78.897 143.493 79.0323 143.405C79.1675 143.318 79.2351 143.19 79.2351 143.021ZM83.3242 143.021C83.3242 142.726 83.1508 142.568 82.804 142.547L82.5231 142.526C82.0514 142.491 81.8155 142.214 81.8155 141.694V139.303H82.7C82.8872 139.303 83.0312 139.261 83.1318 139.177C83.2323 139.093 83.2826 138.97 83.2826 138.809C83.2826 138.647 83.2323 138.524 83.1318 138.44C83.0312 138.356 82.8872 138.314 82.7 138.314H81.8155V137.345C81.8155 137.155 81.7566 137.004 81.6387 136.892C81.5207 136.779 81.3647 136.723 81.1704 136.723C80.9693 136.723 80.8097 136.779 80.6918 136.892C80.5739 137.004 80.5149 137.155 80.5149 137.345V138.314H79.9947C79.8074 138.314 79.6635 138.356 79.5629 138.44C79.4623 138.524 79.412 138.647 79.412 138.809C79.412 138.97 79.4623 139.093 79.5629 139.177C79.6635 139.261 79.8074 139.303 79.9947 139.303H80.5149V141.599C80.5149 142.779 81.0976 143.411 82.2629 143.495L82.5439 143.516C82.7936 143.53 82.9861 143.493 83.1213 143.405C83.2566 143.318 83.3242 143.19 83.3242 143.021ZM88.4174 138.524C88.074 138.299 87.6839 138.187 87.2469 138.187C86.8792 138.187 86.5515 138.266 86.2636 138.424C85.9757 138.582 85.7555 138.805 85.6029 139.093V138.83C85.6029 138.64 85.5439 138.489 85.426 138.377C85.3081 138.264 85.152 138.208 84.9578 138.208C84.7636 138.208 84.6092 138.264 84.4948 138.377C84.3803 138.489 84.3231 138.64 84.3231 138.83V144.801C84.3231 144.983 84.3838 145.131 84.5052 145.243C84.6266 145.356 84.7844 145.412 84.9786 145.412C85.1728 145.412 85.3289 145.359 85.4468 145.254C85.5647 145.148 85.6237 145.004 85.6237 144.822V142.674C85.7763 142.947 85.9948 143.161 86.2792 143.316C86.5636 143.47 86.8862 143.548 87.2469 143.548C87.6908 143.548 88.0827 143.439 88.4226 143.221C88.7625 143.004 89.0278 142.695 89.2186 142.294C89.4093 141.894 89.5047 141.427 89.5047 140.894C89.5047 140.36 89.4093 139.888 89.2186 139.477C89.0278 139.067 88.7608 138.749 88.4174 138.524ZM87.8607 142.1C87.6318 142.384 87.3128 142.526 86.9035 142.526C86.4873 142.526 86.1665 142.382 85.9411 142.094C85.7156 141.806 85.6029 141.399 85.6029 140.873C85.6029 140.339 85.7156 139.928 85.9411 139.64C86.1665 139.353 86.4873 139.209 86.9035 139.209C87.3128 139.209 87.6318 139.356 87.8607 139.651C88.0897 139.946 88.2041 140.36 88.2041 140.894C88.2041 141.413 88.0897 141.815 87.8607 142.1ZM90.9094 143.095C91.3741 143.397 91.9845 143.548 92.7406 143.548C93.3926 143.548 93.9146 143.404 94.3065 143.116C94.6984 142.828 94.8944 142.445 94.8944 141.968C94.8944 141.673 94.8372 141.431 94.7227 141.241C94.6083 141.052 94.4192 140.894 94.1557 140.767C93.8921 140.641 93.5279 140.529 93.0631 140.43C92.6261 140.339 92.3313 140.248 92.1787 140.157C92.0261 140.065 91.9498 139.932 91.9498 139.756C91.9498 139.574 92.0244 139.43 92.1735 139.325C92.3227 139.219 92.5256 139.167 92.7822 139.167C92.9973 139.167 93.1776 139.193 93.3233 139.246C93.4689 139.298 93.6423 139.377 93.8435 139.483C93.9545 139.546 94.0464 139.593 94.1192 139.625C94.1921 139.656 94.2666 139.672 94.3429 139.672C94.4539 139.672 94.5476 139.625 94.6239 139.53C94.7002 139.435 94.7383 139.318 94.7383 139.177C94.7383 138.945 94.6273 138.759 94.4054 138.619C94.1903 138.479 93.9476 138.371 93.677 138.298C93.4065 138.224 93.1256 138.187 92.8342 138.187C92.4319 138.187 92.073 138.256 91.7573 138.393C91.4417 138.529 91.1938 138.723 91.0134 138.972C90.8331 139.221 90.7429 139.5 90.7429 139.809C90.7429 140.216 90.8764 140.536 91.1435 140.767C91.4105 140.999 91.8527 141.178 92.4701 141.304C92.8169 141.382 93.0753 141.45 93.2452 141.51C93.4152 141.569 93.5331 141.634 93.599 141.705C93.6649 141.775 93.6978 141.87 93.6978 141.989C93.6978 142.165 93.6163 142.301 93.4533 142.4C93.2903 142.498 93.0632 142.547 92.7718 142.547C92.4874 142.547 92.2533 142.519 92.0695 142.463C91.8857 142.407 91.6828 142.326 91.4608 142.221C91.2527 142.108 91.0897 142.052 90.9718 142.052C90.8608 142.052 90.7672 142.096 90.6908 142.184C90.6145 142.272 90.5764 142.386 90.5764 142.526C90.5764 142.772 90.6874 142.961 90.9094 143.095ZM96.3303 139.551C96.4759 139.702 96.6597 139.777 96.8817 139.777C97.1037 139.777 97.2875 139.702 97.4332 139.551C97.5788 139.4 97.6517 139.212 97.6517 138.988C97.6517 138.763 97.5788 138.577 97.4332 138.429C97.2875 138.282 97.1037 138.208 96.8817 138.208C96.6597 138.208 96.4759 138.282 96.3303 138.429C96.1846 138.577 96.1118 138.763 96.1118 138.988C96.1118 139.212 96.1846 139.4 96.3303 139.551ZM96.3303 143.3C96.4759 143.451 96.6597 143.527 96.8817 143.527C97.1037 143.527 97.2875 143.451 97.4332 143.3C97.5788 143.149 97.6517 142.961 97.6517 142.737C97.6517 142.512 97.5788 142.324 97.4332 142.173C97.2875 142.022 97.1037 141.947 96.8817 141.947C96.6597 141.947 96.4759 142.022 96.3303 142.173C96.1846 142.324 96.1118 142.512 96.1118 142.737C96.1118 142.961 96.1846 143.149 96.3303 143.3ZM99.7638 144.116C99.854 144.053 99.9199 143.955 99.9615 143.821L102.375 136.165C102.396 136.102 102.407 136.039 102.407 135.976C102.407 135.828 102.353 135.707 102.245 135.612C102.138 135.517 102.015 135.47 101.876 135.47C101.765 135.47 101.664 135.502 101.574 135.565C101.484 135.628 101.418 135.726 101.377 135.86L98.9627 143.516C98.9419 143.579 98.9315 143.642 98.9315 143.706C98.9315 143.853 98.9852 143.974 99.0927 144.069C99.2003 144.164 99.3234 144.211 99.4621 144.211C99.5731 144.211 99.6737 144.18 99.7638 144.116ZM102.854 144.116C102.944 144.053 103.01 143.955 103.052 143.821L105.466 136.165C105.487 136.102 105.497 136.039 105.497 135.976C105.497 135.828 105.443 135.707 105.336 135.612C105.228 135.517 105.105 135.47 104.966 135.47C104.855 135.47 104.755 135.502 104.665 135.565C104.574 135.628 104.508 135.726 104.467 135.86L102.053 143.516C102.032 143.579 102.022 143.642 102.022 143.706C102.022 143.853 102.075 143.974 102.183 144.069C102.29 144.164 102.414 144.211 102.552 144.211C102.663 144.211 102.764 144.18 102.854 144.116Z" fill="#FFFFFF"></path><path d="M62.8286 159.824H124.613C125.869 159.824 126.886 160.855 126.886 162.128C126.886 163.4 125.869 164.431 124.613 164.431H62.8286C61.5733 164.431 60.5557 163.4 60.5557 162.128C60.5557 160.855 61.5733 159.824 62.8286 159.824Z" fill="#FFFFFF"></path><path d="M101.195 169.697H158.75V174.304H101.195C99.9395 174.304 98.9219 173.273 98.9219 172.001C98.9219 170.728 99.9395 169.697 101.195 169.697Z" fill="#FFFFFF"></path><path d="M62.8286 169.697H92.0984C93.3537 169.697 94.3713 170.728 94.3713 172.001C94.3713 173.273 93.3537 174.304 92.0984 174.304H62.8286C61.5733 174.304 60.5557 173.273 60.5557 172.001C60.5557 170.728 61.5733 169.697 62.8286 169.697Z" fill="#FFFFFF"></path><path d="M120.708 179.57H158.753V184.178H120.708C119.452 184.178 118.435 183.146 118.435 181.874C118.435 180.602 119.452 179.57 120.708 179.57Z" fill="#FFFFFF"></path><path d="M62.8286 179.57H111.607C112.863 179.57 113.88 180.602 113.88 181.874C113.88 183.146 112.863 184.178 111.607 184.178H62.8286C61.5733 184.178 60.5557 183.146 60.5557 181.874C60.5557 180.602 61.5733 179.57 62.8286 179.57Z" fill="#FFFFFF"></path><path fill-rule="evenodd" clip-rule="evenodd" d="M16.9854 190.102H175.008C175.008 194.464 171.519 198 167.216 198H24.7783C20.4744 198 16.9854 194.464 16.9854 190.102Z" fill="#428DFF"></path><path d="M69.6592 190.102H117.131C117.131 191.919 115.677 193.393 113.884 193.393H72.9062C71.1129 193.393 69.6592 191.919 69.6592 190.102Z" fill="#316FCD"></path><path d="M141.231 159.824H158.467V164.431H141.231C139.976 164.431 138.958 163.4 138.958 162.128C138.958 160.855 139.976 159.824 141.231 159.824Z" fill="url(&quot;#paint1_linear&quot;)"></path><path d="M25.9059 89.3953H32.9411C33.5389 89.3953 34.0235 89.8865 34.0235 90.4923V91.2084C34.0235 91.8143 33.5389 92.3055 32.9411 92.3055H25.9059C25.3081 92.3055 24.8235 91.8143 24.8235 91.2084V90.4923C24.8235 89.8865 25.3081 89.3953 25.9059 89.3953ZM15.0824 94.8804H32.9411C33.5389 94.8804 34.0235 95.3716 34.0235 95.9774V96.6935C34.0235 97.2994 33.5389 97.7905 32.9411 97.7905H15.0824C14.4846 97.7905 14 97.2994 14 96.6935V95.9774C14 95.3716 14.4846 94.8804 15.0824 94.8804Z" fill="#FB65BC"></path><path d="M145.905 145.208C199.036 122.129 192.204 72.8057 190.251 62.9596C190.159 62.5031 189.886 62.105 189.496 61.858C189.106 61.6109 188.634 61.5364 188.188 61.6519C163.436 67.5133 151.229 53.7767 147.367 48.1125C147.053 47.6409 146.528 47.3583 145.966 47.3583C145.405 47.3583 144.88 47.6409 144.565 48.1125C140.69 53.7769 128.442 67.5185 103.685 61.6519C103.239 61.5364 102.767 61.6109 102.377 61.858C101.987 62.105 101.714 62.5031 101.622 62.9596C99.6688 72.8057 92.8373 122.129 145.969 145.208H145.905Z" fill="#E3E7F2"></path><path d="M145.936 137.684C106.469 119.03 105.85 83.8858 107.485 69.3522C110.052 69.7326 112.643 69.9269 115.237 69.9333C126.786 70.1564 137.91 65.5151 145.958 57.1153C153.987 65.5139 165.097 70.1552 176.633 69.9299C179.227 69.9234 181.817 69.7292 184.383 69.3488C186.021 83.8876 185.402 119.03 145.936 137.684Z" fill="#E3E7F2"></path><path d="M145.933 145.19C145.071 144.813 144.225 144.436 143.396 144.042C193.736 120.511 187.091 72.66 185.18 62.9595C185.135 62.7309 185.043 62.5146 184.909 62.3254C185.975 62.1541 187.074 61.9141 188.19 61.657C188.634 61.5445 189.105 61.6197 189.494 61.8651C189.882 62.1105 190.157 62.5056 190.253 62.9595C192.197 72.8142 199.029 122.105 145.933 145.19Z" fill="#A4C2F7"></path><path d="M145.926 137.684C145.063 137.273 144.218 136.861 143.406 136.433C179.931 117.718 180.895 84.3489 179.373 69.8497C181.049 69.775 182.72 69.6091 184.378 69.3526C186.018 83.8862 185.392 119.037 145.926 137.684Z" fill="#A4C2F7"></path><path d="M145.964 145.207L145.932 145.192L145.9 145.207H145.964Z" fill="#FFFFFF"></path><path d="M106.958 62.3167C105.887 62.1299 104.8 61.9174 103.677 61.6517C103.232 61.5362 102.759 61.6107 102.369 61.8578C101.98 62.1048 101.707 62.5029 101.614 62.9594C99.6932 72.6444 93.097 120.494 143.424 144.025L143.392 144.042C144.185 144.419 144.997 144.781 145.821 145.142C145.859 145.158 145.893 145.177 145.931 145.192C146.806 144.811 147.643 144.414 148.486 144.02C98.1716 120.485 104.766 72.6426 106.687 62.9594C106.733 62.7286 106.825 62.5099 106.958 62.3167Z" fill="#FFFFFF"></path><path d="M148.503 49.6631C148.068 49.1009 147.688 48.5765 147.37 48.1085C147.055 47.637 146.531 47.3544 145.969 47.3544C145.407 47.3544 144.882 47.637 144.568 48.1085C138.388 57.0264 128.47 62.527 117.728 62.9952C134.747 63.991 144.33 55.0326 148.503 49.6631Z" fill="#FFFFFF"></path><path d="M145.298 146.782C138.412 143.828 131.908 140.029 125.934 135.471C114.864 127.027 106.607 115.354 102.271 102.018C100.148 95.3983 98.9277 88.5158 98.6436 81.5613C98.3029 74.5904 98.8819 67.6049 100.365 60.7893L103.635 61.6668C102.243 68.147 101.701 74.7848 102.022 81.4086C102.293 88.0507 103.458 94.6239 105.483 100.947C109.605 113.63 117.459 124.731 127.99 132.756C133.742 137.139 140.002 140.792 146.631 143.632L145.298 146.782Z" fill="#FFFFFF"></path><path d="M139.081 143.804C141.051 144.845 143.094 145.729 145.101 146.689C145.344 146.834 145.619 146.913 145.901 146.92H145.965C146.284 146.921 146.597 146.828 146.864 146.651C206.354 120.6 191.656 61.3848 191.505 60.7867C191.267 59.8721 190.342 59.3266 189.439 59.5682C160.583 67.2719 149.024 48.0306 147.559 45.3174C147.514 45.1712 147.451 45.0312 147.372 44.9008C147.036 44.4256 146.494 44.1439 145.917 44.1439C145.34 44.1439 144.798 44.4256 144.462 44.9008C144.366 45.0601 144.296 45.2336 144.254 45.415C142.583 48.4487 130.965 67.1777 102.43 59.57C101.528 59.3296 100.604 59.8747 100.365 60.7885C98.8816 67.6039 98.3026 74.5896 98.6438 81.5605C98.928 88.5148 100.148 95.3975 102.271 102.017C106.607 115.354 114.864 127.027 125.934 135.472C126.39 135.828 126.867 136.157 127.334 136.5C128.088 137.05 129.138 136.881 129.687 136.121C130.235 135.361 130.076 134.296 129.331 133.734C128.885 133.406 128.427 133.093 127.99 132.753C117.461 124.731 109.607 113.633 105.484 100.953C103.458 94.6301 102.293 88.0567 102.022 81.4148C101.751 75.3532 102.189 69.2803 103.329 63.3233C128.822 69.3287 141.761 55.0575 145.933 49.0589C150.108 55.0575 163.062 69.3681 188.605 63.3045C190.594 72.9294 197.466 120.448 145.934 143.301C144.157 142.461 142.356 141.665 140.621 140.747C139.802 140.315 138.792 140.634 138.36 141.461C137.922 142.31 138.244 143.359 139.081 143.804Z" fill="#428DFF"></path><path d="M133.075 140.383C133.462 140.62 133.924 140.701 134.367 140.609L134.67 140.497C134.773 140.45 134.869 140.388 134.955 140.314C135.046 140.256 135.127 140.184 135.195 140.101C135.268 140.013 135.335 139.921 135.395 139.824C135.614 139.426 135.683 138.96 135.589 138.515C135.532 138.298 135.436 138.094 135.305 137.913C134.912 137.362 134.232 137.101 133.577 137.25C133.362 137.309 133.16 137.407 132.98 137.539C132.418 137.932 132.149 138.634 132.304 139.308C132.419 139.752 132.695 140.135 133.075 140.383Z" fill="#428DFF"></path><path d="M145.93 139.399C146.177 139.399 146.421 139.344 146.645 139.238C187.492 119.953 187.85 83.7912 186.108 69.1411C186.054 68.6826 185.819 68.2656 185.457 67.9848C185.095 67.7041 184.637 67.5834 184.186 67.65C181.683 68.0232 179.158 68.214 176.629 68.2208C175.695 68.2208 174.938 68.9882 174.938 69.9346C174.938 70.881 175.695 71.6484 176.629 71.6484C178.736 71.6448 180.84 71.5189 182.933 71.2714C184.309 86.0225 182.562 118.097 145.93 135.791C142.455 134.126 139.099 132.214 135.889 130.071C135.386 129.71 134.729 129.656 134.175 129.929C133.621 130.201 133.257 130.757 133.225 131.381C133.193 132.004 133.498 132.596 134.021 132.926C137.592 135.312 141.335 137.423 145.218 139.241C145.441 139.346 145.684 139.399 145.93 139.399Z" fill="#428DFF"></path><path d="M115.239 71.6467C126.64 71.8836 137.672 67.5473 145.933 59.581C150.589 64.1161 156.213 67.5025 162.369 69.4767C162.948 69.6758 163.588 69.5426 164.043 69.1283C164.498 68.7139 164.696 68.0831 164.563 67.4786C164.429 66.8738 163.983 66.3896 163.398 66.2118C157.228 64.2259 151.647 60.7059 147.165 55.9733C146.488 55.3049 145.409 55.3049 144.733 55.9733C137.011 64.0309 126.329 68.4675 115.25 68.2189C112.733 68.212 110.22 68.023 107.73 67.6533C107.278 67.5872 106.818 67.7097 106.456 67.9925C106.095 68.2753 105.861 68.6945 105.809 69.1546C104.927 76.9519 105.252 84.8412 106.773 92.5367C108.918 103.692 114.08 114.024 121.682 122.378C122.093 122.828 122.709 123.021 123.298 122.885C123.888 122.749 124.361 122.305 124.539 121.72C124.718 121.134 124.575 120.497 124.164 120.047C116.978 112.154 112.099 102.391 110.072 91.8492C108.734 85.0826 108.366 78.156 108.979 71.2829C111.058 71.5245 113.148 71.6458 115.239 71.6467Z" fill="#428DFF"></path><path d="M132.439 116.072H145.967C146.9 116.072 147.657 115.304 147.657 114.358C147.657 113.411 146.9 112.644 145.967 112.644H132.439C131.505 112.644 130.748 113.412 130.748 114.358C130.748 115.304 131.505 116.072 132.439 116.072Z" fill="#428DFF"></path><path d="M152.727 112.644C151.793 112.644 151.036 113.411 151.036 114.357C151.036 115.304 151.793 116.071 152.727 116.071H159.491C160.425 116.071 161.182 115.304 161.182 114.357C161.182 113.411 160.424 112.644 159.491 112.644H152.727Z" fill="#428DFF"></path><path d="M105.382 138.352C106.316 138.352 107.073 137.584 107.073 136.638V133.21H110.455C111.389 133.21 112.146 132.443 112.146 131.496C112.146 130.55 111.389 129.783 110.455 129.783H107.073V126.355C107.073 125.408 106.316 124.641 105.382 124.641C104.448 124.641 103.691 125.408 103.691 126.355V129.783H100.309C99.3751 129.783 98.6182 130.55 98.6182 131.496C98.6182 132.443 99.3753 133.21 100.309 133.21H103.691V136.638C103.691 137.584 104.448 138.352 105.382 138.352Z" fill="#428DFF"></path><path d="M188.231 146.921C189.165 146.921 189.922 146.154 189.922 145.207V141.779H193.304C194.238 141.779 194.995 141.012 194.995 140.066C194.995 139.119 194.238 138.352 193.304 138.352H189.922V134.924C189.922 133.978 189.165 133.21 188.231 133.21C187.298 133.21 186.541 133.978 186.541 134.924V138.352H183.159C182.225 138.352 181.468 139.119 181.468 140.066C181.468 141.012 182.225 141.779 183.159 141.779H186.541V145.207C186.541 146.154 187.298 146.921 188.231 146.921Z" fill="#428DFF"></path><path d="M183.162 44.0897C182.229 44.0897 181.472 44.8571 181.472 45.8035V47.5172H179.781C178.847 47.5172 178.09 48.2847 178.09 49.231C178.09 50.1774 178.847 50.9448 179.781 50.9448H181.472V52.6586C181.472 53.6052 182.229 54.3724 183.162 54.3724C184.096 54.3724 184.853 53.605 184.853 52.6586V50.9448H186.544C187.478 50.9448 188.235 50.1774 188.235 49.231C188.235 48.2847 187.478 47.5172 186.544 47.5172H184.853V45.8035C184.854 44.8571 184.096 44.0897 183.162 44.0897Z" fill="#428DFF"></path><path d="M160.689 82.2966C160.029 81.6275 158.959 81.6275 158.298 82.2966L137.512 103.365L133.634 99.4351C132.971 98.7855 131.916 98.7948 131.264 99.456C130.612 100.117 130.602 101.186 131.243 101.858L136.316 107C136.976 107.669 138.047 107.669 138.707 107L160.689 84.7199C161.349 84.0505 161.349 82.9658 160.689 82.2966Z" fill="#428DFF"></path><defs><linearGradient id="paint0_linear" x1="108.348" y1="72.8516" x2="108.348" y2="147.408" gradientUnits="userSpaceOnUse"><stop stop-color="#966AFF"></stop><stop offset="1" stop-color="#E885E0"></stop></linearGradient><linearGradient id="paint1_linear" x1="163.695" y1="161.534" x2="159.751" y2="182.991" gradientUnits="userSpaceOnUse"><stop stop-color="white"></stop><stop offset="0.458052" stop-color="#CFE5FF"></stop><stop offset="1" stop-color="#57B6FF"></stop></linearGradient><linearGradient id="paint0_linear" x1="167.982" y1="68.7703" x2="137.046" y2="154.506" gradientUnits="userSpaceOnUse"><stop stop-color="#17B7BD"></stop><stop offset="1" stop-color="#9DEB93"></stop></linearGradient><linearGradient id="paint1_linear" x1="127.217" y1="56.5506" x2="127.217" y2="165.876" gradientUnits="userSpaceOnUse"><stop stop-color="#FFF2F2" stop-opacity="0.139408"></stop><stop offset="1" stop-color="#FEFAF9"></stop></linearGradient></defs></svg>