<svg xmlns:xlink="http://www.w3.org/1999/xlink" xmlns="http://www.w3.org/2000/svg" width="52" height="65" viewBox="0 0 52 65" fill="none"><path d="M50.3225 26.7493C50.3225 31.4791 46.4882 35.3134 41.7584 35.3134H9.64319C4.91335 35.3134 1.0791 31.4791 1.0791 26.7493C1.0791 22.0194 4.91335 18.1852 9.64319 18.1852H9.65386C7.38497 15.1728 6.87063 11.1877 8.30038 7.69795C9.73013 4.20818 12.8926 1.72954 16.623 1.17493C17.1476 1.09765 17.677 1.05826 18.2073 1.05713C22.071 1.05751 25.633 3.14549 27.5207 6.51671C27.6818 6.7907 27.8283 7.07296 27.9596 7.36237C28.7743 6.97134 29.6388 6.6941 30.5289 6.53804C33.3231 6.07764 36.1787 6.86659 38.3401 8.69628C40.5016 10.526 41.7512 13.2121 41.7584 16.0441C41.7589 16.7648 41.6762 17.4833 41.5121 18.1852H41.7584C46.4882 18.1853 50.3225 22.0196 50.3225 26.7493Z" fill="#A4C2F7"></path><path d="M47.11 26.7492C47.11 31.479 43.2757 35.3133 38.5459 35.3133H9.64222C4.91238 35.3133 1.07812 31.479 1.07812 26.7492C1.07812 22.0194 4.91238 18.1851 9.64222 18.1851H9.65288C7.38399 15.1727 6.86965 11.1876 8.2994 7.69786C9.72916 4.20809 12.8916 1.72945 16.622 1.17484C20.2025 1.73045 23.2594 4.05843 24.7471 7.3624C25.6238 6.94328 26.5584 6.65813 27.5197 6.51675C27.6808 6.79073 27.8273 7.07299 27.9587 7.3624C28.7733 6.97138 29.6378 6.69413 30.5279 6.53807C35.1557 7.33681 38.539 11.3478 38.546 16.0442C38.5465 16.7649 38.4638 17.4833 38.2998 18.1852H38.546C43.2757 18.1852 47.11 22.0195 47.11 26.7492Z" fill="#F5F5F5"></path><path d="M39.6164 40.6658V56.7234C39.6164 60.2707 36.7407 63.1464 33.1934 63.1464H18.2062C14.6643 63.1335 11.7961 60.2653 11.7832 56.7234V40.6658C11.7832 40.0745 12.2625 39.5953 12.8537 39.5953H38.5458C39.1371 39.5952 39.6164 40.0745 39.6164 40.6658Z" fill="#A4C2F7"></path><path d="M36.4049 40.6658V56.7234C36.4049 60.2707 33.5292 63.1464 29.9819 63.1464H18.2062C14.6643 63.1335 11.7961 60.2653 11.7832 56.7234V40.6658C11.7832 40.0745 12.2625 39.5953 12.8537 39.5953H35.3343C35.9256 39.5952 36.4049 40.0745 36.4049 40.6658Z" fill="#F5F5F5"></path><path d="M25.6996 51.3709C26.8821 51.3709 27.8407 50.4123 27.8407 49.2298C27.8407 48.0474 26.8821 47.0888 25.6996 47.0888C24.5172 47.0888 23.5586 48.0474 23.5586 49.2298C23.5586 50.4123 24.5172 51.3709 25.6996 51.3709Z" fill="#A4C2F7"></path><path d="M1.0791 26.7493C1.0791 31.4792 4.91335 35.3134 9.64319 35.3134H12.8547C8.12487 35.3134 4.29062 31.4792 4.29062 26.7493C4.29062 22.0195 8.12487 18.1852 12.8547 18.1852H12.8654C10.6008 15.1783 10.0842 11.2022 11.5052 7.71642C12.9262 4.23067 16.0755 1.74902 19.797 1.18236C19.271 1.10094 18.7396 1.05904 18.2073 1.05716C17.677 1.05829 17.1475 1.09768 16.623 1.17496C12.8926 1.72957 9.73026 4.20821 8.3005 7.69811C6.87075 11.188 7.38509 15.1729 9.65398 18.1853H9.64332C4.91336 18.1853 1.0791 22.0196 1.0791 26.7493Z" fill="#FFFFFF"></path><path d="M16.0652 39.5953H12.8537C12.2624 39.5953 11.7832 40.0746 11.7832 40.6658V56.7234C11.7961 60.2654 14.6643 63.1335 18.2062 63.1464H21.4178C17.8758 63.1335 15.0076 60.2654 14.9947 56.7234V40.6658C14.9946 40.0747 15.4739 39.5953 16.0652 39.5953Z" fill="#FFFFFF"></path><path d="M33.1942 64.217H19.2776H18.207V62.0759H19.2776H33.1942V64.217Z" fill="#FFFFFF"></path><path d="M23.8701 62.3864C23.7734 62.4888 23.697 62.6087 23.6453 62.7397C23.5904 62.8684 23.5613 63.0067 23.5596 63.1466C23.5571 63.5815 23.8179 63.9746 24.2196 64.1415C24.6213 64.3082 25.0839 64.2155 25.3902 63.9067L25.5186 63.7461C25.5591 63.6864 25.5915 63.6216 25.615 63.5534C25.6459 63.4927 25.6675 63.4278 25.6792 63.3607C25.6911 63.2899 25.6983 63.2183 25.7006 63.1466C25.6965 62.8632 25.5856 62.5918 25.3902 62.3864C25.2878 62.2897 25.1679 62.2133 25.0369 62.1616C24.6376 62.0001 24.1807 62.0881 23.8701 62.3864Z" fill="#428DFF"></path><path d="M41.758 36.3838C46.8848 36.3873 51.1165 32.375 51.3859 27.2551C51.6551 22.1353 47.8676 17.7014 42.7686 17.1671C43.1617 13.4945 41.6311 9.87919 38.7206 7.60528C35.81 5.33137 31.9317 4.72106 28.4634 5.99099C25.8353 1.33203 20.3975 -0.970481 15.2229 0.38488C10.0483 1.74024 6.43751 6.413 6.43112 11.7621C6.42811 13.6902 6.90381 15.5889 7.81533 17.288C2.93633 18.2264 -0.42899 22.7211 0.0443329 27.667C0.517656 32.6129 4.67431 36.3876 9.64264 36.3838H13.9246V38.5248H12.8542C11.6717 38.5248 10.7131 39.4834 10.7131 40.6659V56.7235C10.7179 60.8601 14.07 64.2123 18.2066 64.217H20.3477C20.9389 64.217 21.4181 63.7378 21.4181 63.1465C21.4181 62.5553 20.9389 62.076 20.3477 62.076H18.2066C15.664 62.0728 13.4733 60.2845 12.9612 57.7941H16.0657C16.6569 57.7941 17.1361 57.3148 17.1361 56.7236C17.1361 56.1323 16.6568 55.6531 16.0657 55.6531H12.8542V53.5121H16.0657C16.6569 53.5121 17.1361 53.0329 17.1361 52.4416C17.1361 51.8504 16.6568 51.3711 16.0657 51.3711H12.8542V49.2298H16.0657C16.6569 49.2298 17.1361 48.7506 17.1361 48.1594C17.1361 47.5681 16.6568 47.0889 16.0657 47.0889H12.8542V44.9478H16.0657C16.6569 44.9478 17.1361 44.4686 17.1361 43.8774C17.1361 43.2861 16.6568 42.8069 16.0657 42.8069H12.8542V40.6659H38.5463V42.8069H35.3348C34.7435 42.8069 34.2643 43.2863 34.2643 43.8774C34.2643 44.4685 34.7435 44.9478 35.3348 44.9478H38.5463V47.0889H35.3348C34.7435 47.0889 34.2643 47.5681 34.2643 48.1594C34.2643 48.7506 34.7435 49.2298 35.3348 49.2298H38.5463V51.3709H35.3348C34.7435 51.3709 34.2643 51.8501 34.2643 52.4414C34.2643 53.0326 34.7435 53.5118 35.3348 53.5118H38.5463V55.6529H35.3348C34.7435 55.6529 34.2643 56.1321 34.2643 56.7233C34.2643 57.3146 34.7435 57.7938 35.3348 57.7938H38.4393C37.9271 60.2842 35.7364 62.0727 33.1939 62.0758H28.9119C28.3206 62.0758 27.8414 62.5551 27.8414 63.1463C27.8414 63.7374 28.3208 64.2167 28.9119 64.2167H33.1939C37.3304 64.2119 40.6827 60.8598 40.6874 56.7232V40.6656C40.6874 39.4831 39.7288 38.5246 38.5463 38.5246H37.4758V36.3838H41.758ZM2.14913 26.7492C2.15503 22.6088 5.51307 19.2557 9.65342 19.2557C10.0589 19.2557 10.4296 19.0266 10.6109 18.6639C10.7921 18.3013 10.7531 17.8673 10.5097 17.5429C8.29192 14.5893 7.9591 10.6274 9.6533 7.34535C11.3475 4.06332 14.7699 2.03957 18.4621 2.13679C22.1544 2.23389 25.4656 4.43478 26.9848 7.80136C27.1033 8.06317 27.3221 8.26628 27.5918 8.36513C27.8615 8.46398 28.1597 8.45018 28.4192 8.32699C31.0719 7.04878 34.1953 7.22454 36.6878 8.79241C39.1802 10.3603 40.691 13.0997 40.6872 16.0443C40.6892 16.6827 40.6174 17.3192 40.4731 17.9412C40.3987 18.2587 40.4732 18.5929 40.6753 18.8489C40.8775 19.1048 41.1853 19.2546 41.5114 19.2558H41.7577C45.8963 19.2558 49.2512 22.6109 49.2512 26.7493C49.2512 30.8878 45.8962 34.2428 41.7577 34.2428H37.4757V29.9607C37.4757 23.4573 32.2036 18.1851 25.7001 18.1851C19.1967 18.1851 13.9245 23.4573 13.9245 29.9607V34.2427H9.64251C5.50605 34.2381 2.1539 30.8858 2.14913 26.7492ZM26.7708 38.5248H16.0658V36.3838H27.8414C28.4327 36.3838 28.9119 35.9044 28.9119 35.3133C28.9119 34.722 28.4325 34.2428 27.8414 34.2428H16.0658V29.9607C16.0658 24.6398 20.3794 20.3262 25.7004 20.3262C31.0213 20.3262 35.3349 24.6398 35.3349 29.9607V34.2427H32.1234C31.5321 34.2427 31.0529 34.722 31.0529 35.3132C31.0529 35.9044 31.5323 36.3836 32.1234 36.3836H35.3349V38.5247H26.7708V38.5248Z" fill="#428DFF"></path><path d="M26.7705 54.5825V52.2444C28.2452 51.7231 29.1297 50.2152 28.8653 48.6735C28.6008 47.1319 27.2642 46.0051 25.7 46.0051C24.1359 46.0051 22.7993 47.1319 22.5348 48.6735C22.2704 50.2152 23.1549 51.7231 24.6296 52.2444V54.5825C24.6296 55.1737 25.1089 55.6529 25.7 55.6529C26.2912 55.6529 26.7705 55.1737 26.7705 54.5825ZM25.7 48.1594C26.2913 48.1594 26.7705 48.6386 26.7705 49.2299C26.7705 49.8211 26.2913 50.3003 25.7 50.3003C25.1088 50.3003 24.6296 49.8211 24.6296 49.2299C24.6296 48.6386 25.1088 48.1594 25.7 48.1594Z" fill="#428DFF"></path></svg>