<svg xmlns:xlink="http://www.w3.org/1999/xlink" xmlns="http://www.w3.org/2000/svg" width="66" height="66" viewBox="0 0 66 66" fill="none"><path d="M64.897 38.4986C64.897 40.5408 64.0853 42.4995 62.6405 43.9435C61.1956 45.3876 59.2359 46.1988 57.1925 46.1988H8.76385C5.64751 46.1991 2.83788 44.3229 1.64531 41.4454C0.452737 38.5679 1.11197 35.2556 3.31563 33.0533C4.032 32.334 4.88522 31.7655 5.82511 31.3813C5.87464 31.3581 5.92624 31.3396 5.97925 31.3262C6.86549 30.9751 7.81054 30.7959 8.76385 30.7982H8.98403C8.3849 27.849 9.02001 24.7833 10.7418 22.3144C12.4635 19.8455 15.1215 18.1887 18.0974 17.7298H18.1084C18.658 17.6413 19.2138 17.5972 19.7703 17.5978C19.8293 17.596 19.8882 17.5996 19.9464 17.6088C21.1039 17.6208 22.2521 17.8176 23.3474 18.1918C23.166 17.2716 23.0738 16.3358 23.0723 15.3977C23.0741 8.13945 28.516 2.03376 35.7297 1.19636C36.2775 1.12984 36.8289 1.09684 37.3807 1.09736C45.2831 1.09736 51.6891 7.49993 51.6891 15.3977C51.6909 15.4712 51.6873 15.5448 51.6781 15.6178C54.9984 16.2911 57.8235 18.4551 59.3369 21.4845C60.8502 24.5138 60.8834 28.0711 59.4268 31.1282C62.6757 32.1123 64.8974 35.1056 64.897 38.4986Z" fill="#A4C2F7"></path><path d="M61.5951 38.4986C61.5951 42.7514 58.1456 46.1988 53.8906 46.1988H8.76385C5.64751 46.1991 2.83788 44.3229 1.64531 41.4454C0.452737 38.5679 1.11197 35.2556 3.31563 33.0533C4.032 32.334 4.88522 31.7655 5.82511 31.3813C5.87464 31.3581 5.92624 31.3396 5.97925 31.3262C6.86549 30.9751 7.81054 30.7959 8.76385 30.7982H8.98402C8.3849 27.849 9.02001 24.7833 10.7418 22.3144C12.4635 19.8455 15.1215 18.1887 18.0974 17.7298H18.1084C18.7156 17.6295 19.3313 17.5889 19.9465 17.6088C21.104 17.6208 22.2522 17.8176 23.3475 18.1918C23.1662 17.2715 23.0739 16.3358 23.0724 15.3977C23.0742 8.13944 28.5161 2.03375 35.7298 1.19635C42.9436 2.03388 48.3856 8.13957 48.3873 15.3977C48.3891 15.4712 48.3855 15.5448 48.3763 15.6178C49.4389 15.8337 50.463 16.2083 51.4141 16.7288C51.4808 16.7531 51.5437 16.7863 51.6013 16.8278C56.6308 19.6693 58.606 25.9137 56.1249 31.1282C56.9263 31.3666 57.6817 31.7385 58.3593 32.2282C58.4583 32.3052 58.5574 32.3712 58.6565 32.4482C60.5154 33.9057 61.5993 36.1373 61.5951 38.4986Z" fill="#F5F5F5"></path><path d="M48.3867 27.4983V41.5897C48.3867 41.5897 48.3867 56.1652 32.9775 64.8993C32.4052 64.5803 31.8548 64.2393 31.3265 63.8983C17.5684 55.098 17.5684 41.5897 17.5684 41.5897V27.4983C17.572 26.2847 18.5555 25.3018 19.7697 25.2982H46.1853C47.3996 25.3019 48.383 26.2847 48.3867 27.4983Z" fill="#A4C2F7"></path><path d="M45.0847 27.4983V41.5897C45.0847 41.5897 45.0847 55.098 31.3265 63.8983C17.5684 55.098 17.5684 41.5897 17.5684 41.5897V27.4983C17.572 26.2847 18.5555 25.3018 19.7697 25.2982H42.8834C44.0976 25.3019 45.0811 26.2847 45.0847 27.4983Z" fill="#F5F5F5"></path><path d="M43.9836 29.6983V41.5896C43.9727 42.0296 43.6865 52.4249 32.9772 59.7181C32.3902 59.3221 31.8398 58.9151 31.3262 58.4971C22.0917 51.2148 21.9707 41.6996 21.9707 41.5896V29.6983H43.9836Z" fill="#A4C2F7"></path><path d="M39.5811 29.6983C40.189 29.6983 40.6817 30.1909 40.6817 30.7983V41.5896C40.6707 42.0077 40.4175 51.3249 31.3262 58.4971C22.0917 51.2148 21.9707 41.6996 21.9707 41.5896V29.6983H39.5811Z" fill="#F5F5F5"></path><path d="M39.0214 1.19855C38.4771 1.13371 37.9296 1.09981 37.3814 1.09736C36.8296 1.09684 36.2782 1.12984 35.7304 1.19636C31.8535 1.61944 28.3214 3.6178 25.9631 6.72221C23.6049 9.82662 22.6281 13.7639 23.2622 17.6098C24.4152 17.6226 25.5589 17.819 26.6501 18.1917C26.4687 17.2714 26.3765 16.3357 26.375 15.3976C26.3773 8.14409 31.8129 2.04111 39.0214 1.19855Z" fill="#FFFFFF"></path><path d="M4.36165 38.4986C4.36049 35.3802 6.2426 32.5695 9.12742 31.3813C9.17695 31.3581 9.22855 31.3397 9.28156 31.3263C10.1678 30.9751 11.1129 30.7959 12.0662 30.7983H12.2863C11.6872 27.8491 12.3223 24.7833 14.0441 22.3144C15.7658 19.8456 18.4238 18.1888 21.3997 17.7299C20.9177 17.6562 20.4312 17.6157 19.9435 17.6088C19.8864 17.6 19.8286 17.5962 19.7707 17.5979C19.7035 17.5979 19.6364 17.6045 19.5692 17.6056C19.0796 17.602 18.5906 17.6437 18.1086 17.7299H18.0976C15.1218 18.1888 12.4637 19.8456 10.742 22.3144C9.02037 24.7833 8.38513 27.8491 8.98425 30.7983H8.76408C7.81077 30.7959 6.86572 30.9751 5.97948 31.3263C5.92647 31.3397 5.87487 31.3581 5.82534 31.3813C2.94052 32.5694 1.05841 35.3801 1.05957 38.4986C1.05957 42.7513 4.50908 46.1987 8.76408 46.1987H12.066C7.81103 46.1987 4.36165 42.7512 4.36165 38.4986Z" fill="#FFFFFF"></path><path d="M60.8659 30.5146C61.3483 29.1957 61.5949 27.8025 61.5945 26.3983C61.5833 20.9788 57.9752 16.2248 52.7563 14.7533C52.4093 6.38332 45.4279 -0.172005 37.0478 0.00344089C28.6676 0.178887 21.9671 7.02078 21.9711 15.398C21.9711 15.838 21.9986 16.2781 22.0372 16.718C18.4921 16.0304 14.8251 16.9648 12.0422 19.2648C9.25925 21.5648 7.65252 24.9891 7.66271 28.5984C7.66271 28.9888 7.6836 29.3783 7.72101 29.7655C3.11247 30.3371 -0.259653 34.3876 0.015725 39.0207C0.291103 43.6539 4.11943 47.2768 8.76332 47.2989H17.3913C18.8552 52.5395 22.6392 60.3013 32.4339 65.8564C32.7711 66.0479 33.1842 66.0479 33.5214 65.8564C43.3172 60.3013 47.1001 52.5394 48.564 47.2989H57.192C61.3297 47.304 64.9116 44.4262 65.7959 40.3864C66.6802 36.3464 64.6278 32.2367 60.8659 30.5146ZM32.9776 63.6289C23.8047 58.2134 20.5139 50.7585 19.3296 46.0503C19.3191 45.945 19.294 45.8417 19.2547 45.7434C18.9132 44.3849 18.7169 42.994 18.6692 41.594V27.4982C18.6692 26.8907 19.162 26.3983 19.7698 26.3983H46.1854C46.7933 26.3983 47.286 26.8908 47.286 27.4982V41.593C47.2372 42.9934 47.0399 44.3847 46.6972 45.7434C46.6585 45.841 46.6336 45.9436 46.6234 46.0481C45.4414 50.754 42.1516 58.2134 32.9776 63.6289ZM61.862 43.1682C60.6258 44.409 58.9442 45.1042 57.192 45.0987H49.0845C49.3216 43.9446 49.4564 42.7718 49.4873 41.594V27.4982C49.4873 25.6756 48.0089 24.1982 46.1854 24.1982H19.7698C17.9462 24.1982 16.4678 25.6757 16.4678 27.4982V41.594C16.4988 42.7719 16.6336 43.9446 16.8706 45.0987H8.76332C5.24029 45.0982 2.33805 42.3337 2.16818 38.8168C1.99831 35.2999 4.62053 32.2689 8.12717 31.9291C8.7263 34.0251 9.88392 35.919 11.4765 37.4085C11.7606 37.6904 12.1755 37.7957 12.56 37.6837C12.9444 37.5717 13.2376 37.2598 13.3256 36.8694C13.4135 36.479 13.2825 36.0717 12.9832 35.8057C11.4894 34.4092 10.4683 32.5819 10.0622 30.5784C9.35457 27.0975 10.5656 23.5044 13.2362 21.1607C15.9068 18.8169 19.6283 18.0814 22.9905 19.2327C23.0119 19.2368 23.0337 19.2396 23.0553 19.2414C23.1276 19.2582 23.2014 19.2677 23.2755 19.2701C23.3462 19.2771 23.4173 19.2771 23.488 19.2701C23.511 19.2701 23.5331 19.2701 23.5562 19.2701C23.6016 19.2558 23.6458 19.2377 23.6883 19.2162C23.7577 19.1955 23.8247 19.168 23.8886 19.1337C23.9505 19.0965 24.0084 19.053 24.0614 19.0039C24.1745 18.9134 24.2635 18.7962 24.32 18.6629C24.3448 18.6258 24.3671 18.5872 24.3872 18.5474C24.3938 18.5265 24.3872 18.5045 24.395 18.4836C24.4126 18.4115 24.4227 18.3378 24.4246 18.2635C24.432 18.1904 24.432 18.1167 24.4246 18.0435C24.4246 18.0204 24.4246 17.9995 24.4246 17.9775C24.2585 17.1276 24.1741 16.2639 24.1726 15.3979C24.185 10.6818 26.7138 6.3306 30.8065 3.98328C34.8993 1.63596 39.934 1.64923 44.0144 4.01795C48.0947 6.38667 50.6006 10.751 50.5882 15.4671C50.5818 15.5134 50.578 15.56 50.5772 15.6068C50.5597 17.5384 50.1084 19.4413 49.2565 21.1752C48.9899 21.7221 49.2174 22.3812 49.7644 22.6476C50.3115 22.9141 50.971 22.6867 51.2376 22.14C52.018 20.5376 52.5086 18.81 52.6871 17.037C56.691 18.4091 59.3838 22.1678 59.3935 26.3983C59.3971 27.8259 59.0887 29.2371 58.4898 30.5333C58.4643 30.573 58.4412 30.6141 58.4204 30.6565C57.5134 32.573 56.0124 34.1461 54.14 35.1425C53.6955 35.381 53.4703 35.8909 53.5934 36.3799C53.7164 36.8688 54.1562 37.2116 54.6607 37.2116C54.842 37.2119 55.0207 37.1669 55.1802 37.0808C57.149 36.0189 58.7826 34.4297 59.8976 32.4914C61.8758 33.378 63.2914 35.1801 63.6837 37.3111C64.0758 39.4421 63.3945 41.6297 61.8613 43.1617L61.862 43.1682Z" fill="#428DFF"></path><path d="M42.883 28.5984C42.2751 28.5984 41.7824 29.091 41.7824 29.6984C41.7824 30.3058 42.2752 30.7984 42.883 30.7984V41.5787C42.8764 41.9934 42.6023 51.8333 32.3575 58.813C32.0206 59.0292 31.8276 59.4112 31.8539 59.8106C31.8801 60.21 32.1213 60.5636 32.4836 60.734C32.846 60.9044 33.2724 60.8646 33.5969 60.6302C44.774 53.0191 45.0767 42.0738 45.0843 41.5942V30.7985C45.0843 29.5834 44.0988 28.5984 42.883 28.5984Z" fill="#428DFF"></path><path d="M23.0724 41.5941V30.7984H35.1796C35.7875 30.7984 36.2802 30.306 36.2802 29.6984C36.2802 29.0909 35.7874 28.5984 35.1796 28.5984H23.0724C21.8566 28.5984 20.8711 29.5834 20.8711 30.7985V41.5942C21.1801 46.0947 22.7813 50.4106 25.4829 54.0246C25.8396 54.5167 26.5281 54.6265 27.0205 54.2699C27.5128 53.9134 27.6227 53.2252 27.2659 52.7332C24.8432 49.4906 23.3893 45.6285 23.0724 41.5941Z" fill="#428DFF"></path><path d="M40.3591 36.4835C39.9293 36.0541 39.2325 36.0541 38.8028 36.4835L30.6382 44.6435L29.3526 43.3586C28.9208 42.9417 28.2342 42.9476 27.8097 43.372C27.3851 43.7964 27.3792 44.4824 27.7963 44.914L29.86 46.9766C30.2898 47.406 30.9865 47.406 31.4163 46.9766L40.3591 38.0389C40.7888 37.6094 40.7888 36.9131 40.3591 36.4835Z" fill="#428DFF"></path></svg>