<svg xmlns:xlink="http://www.w3.org/1999/xlink" xmlns="http://www.w3.org/2000/svg" width="210" height="210" viewBox="0 0 210 210" fill="none"><path fill-rule="evenodd" clip-rule="evenodd" d="M111.971 119.841C114.195 121.756 115.603 124.592 115.603 127.758V137.493C115.603 145.618 107.45 150.382 101.684 150.382H32.439C26.6737 150.382 22 145.707 22 139.94V131.238C22 127.582 23.1889 123.914 25.0999 121.261C23.1859 119.368 22 116.74 22 113.835V105.133C22 101.477 23.1889 97.8085 25.0999 95.1556C23.1859 93.2627 22 90.6348 22 87.7298V79.028C22 75.3718 23.1889 71.7032 25.0999 69.0504C23.1859 67.1575 22 64.5295 22 61.6245V52.9228C22 45.9837 26.2825 39 31.6557 39C33.8439 39 58.3466 39 105.164 39C110.929 39 115.603 43.6751 115.603 49.4421V59.1778C115.603 62.6429 114.12 65.4969 111.971 67.6306C114.195 69.5456 115.603 72.382 115.603 75.5473V85.283C115.603 88.7482 114.12 91.6021 111.971 93.7358C114.195 95.6508 115.603 98.4872 115.603 101.653V111.388C115.603 114.853 114.12 117.707 111.971 119.841Z" fill="#966AFF"></path><path opacity="0.965588" fill-rule="evenodd" clip-rule="evenodd" d="M33.9781 43.9724H103.624C107.49 43.9724 110.624 47.1045 110.624 50.9681V59.7127C110.624 63.5763 107.49 66.7084 103.624 66.7084H33.9781C30.1123 66.7084 26.9785 63.5763 26.9785 59.7127V50.9681C26.9785 47.1045 30.1123 43.9724 33.9781 43.9724ZM33.9781 70.2062H103.624C107.49 70.2062 110.624 73.3383 110.624 77.2019V85.9465C110.624 89.8101 107.49 92.9422 103.624 92.9422H33.9781C30.1123 92.9422 26.9785 89.8101 26.9785 85.9465V77.2019C26.9785 73.3383 30.1123 70.2062 33.9781 70.2062ZM33.9781 96.4401H103.624C107.49 96.4401 110.624 99.5721 110.624 103.436V112.18C110.624 116.044 107.49 119.176 103.624 119.176H33.9781C30.1123 119.176 26.9785 116.044 26.9785 112.18V103.436C26.9785 99.5721 30.1123 96.4401 33.9781 96.4401ZM33.9781 122.674H103.624C107.49 122.674 110.624 125.806 110.624 129.67V138.414C110.624 142.278 107.49 145.41 103.624 145.41H33.9781C30.1123 145.41 26.9785 142.278 26.9785 138.414V129.67C26.9785 125.806 30.1123 122.674 33.9781 122.674Z" fill="#D1BCFF"></path><path d="M64.4563 51.4578C66.128 51.4578 67.4831 52.8252 67.4831 54.5121V57.7565C67.4831 59.4433 66.128 60.8108 64.4563 60.8108C62.7847 60.8108 61.4296 59.4433 61.4296 57.7565V54.5121C61.4296 52.8252 62.7847 51.4578 64.4563 51.4578ZM76.6216 51.4578C78.2933 51.4578 79.6484 52.8252 79.6484 54.5121V57.7565C79.6484 59.4433 78.2933 60.8108 76.6216 60.8108C74.95 60.8108 73.5948 59.4433 73.5948 57.7565V54.5121C73.5948 52.8252 74.95 51.4578 76.6216 51.4578ZM87.6283 51.4578C89.2999 51.4578 90.6551 52.8252 90.6551 54.5121V57.7565C90.6551 59.4433 89.2999 60.8108 87.6283 60.8108C85.9566 60.8108 84.6015 59.4433 84.6015 57.7565V54.5121C84.6015 52.8252 85.9566 51.4578 87.6283 51.4578ZM98.635 51.4578C100.307 51.4578 101.662 52.8252 101.662 54.5121V57.7565C101.662 59.4433 100.307 60.8108 98.635 60.8108C96.9633 60.8108 95.6082 59.4433 95.6082 57.7565V54.5121C95.6082 52.8252 96.9633 51.4578 98.635 51.4578ZM43.8051 63.8621C39.4616 63.8621 35.9404 60.3002 35.9404 55.9063C35.9404 51.5123 39.4616 47.9504 43.8051 47.9504C48.1486 47.9504 51.6698 51.5123 51.6698 55.9063C51.6698 60.3002 48.1486 63.8621 43.8051 63.8621Z" fill="#FFFFFF"></path><path d="M64.4563 77.3143C66.128 77.3143 67.4831 78.6818 67.4831 80.3686V83.6131C67.4831 85.2999 66.128 86.6674 64.4563 86.6674C62.7847 86.6674 61.4296 85.2999 61.4296 83.6131V80.3686C61.4296 78.6818 62.7847 77.3143 64.4563 77.3143ZM76.6216 77.3143C78.2933 77.3143 79.6484 78.6818 79.6484 80.3686V83.6131C79.6484 85.2999 78.2933 86.6674 76.6216 86.6674C74.95 86.6674 73.5948 85.2999 73.5948 83.6131V80.3686C73.5948 78.6818 74.95 77.3143 76.6216 77.3143ZM87.6283 77.3143C89.2999 77.3143 90.6551 78.6818 90.6551 80.3686V83.6131C90.6551 85.2999 89.2999 86.6674 87.6283 86.6674C85.9566 86.6674 84.6015 85.2999 84.6015 83.6131V80.3686C84.6015 78.6818 85.9566 77.3143 87.6283 77.3143ZM98.635 77.3143C100.307 77.3143 101.662 78.6818 101.662 80.3686V83.6131C101.662 85.2999 100.307 86.6674 98.635 86.6674C96.9633 86.6674 95.6082 85.2999 95.6082 83.6131V80.3686C95.6082 78.6818 96.9633 77.3143 98.635 77.3143ZM43.8051 89.7187C39.4616 89.7187 35.9404 86.1567 35.9404 81.7628C35.9404 77.3689 39.4616 73.8069 43.8051 73.8069C48.1486 73.8069 51.6698 77.3689 51.6698 81.7628C51.6698 86.1567 48.1486 89.7187 43.8051 89.7187Z" fill="#FFFFFF"></path><path d="M64.4563 103.171C66.128 103.171 67.4831 104.538 67.4831 106.225V109.47C67.4831 111.157 66.128 112.524 64.4563 112.524C62.7847 112.524 61.4296 111.157 61.4296 109.47V106.225C61.4296 104.538 62.7847 103.171 64.4563 103.171ZM76.6216 103.171C78.2933 103.171 79.6484 104.538 79.6484 106.225V109.47C79.6484 111.157 78.2933 112.524 76.6216 112.524C74.95 112.524 73.5948 111.157 73.5948 109.47V106.225C73.5948 104.538 74.95 103.171 76.6216 103.171ZM87.6283 103.171C89.2999 103.171 90.6551 104.538 90.6551 106.225V109.47C90.6551 111.157 89.2999 112.524 87.6283 112.524C85.9566 112.524 84.6015 111.157 84.6015 109.47V106.225C84.6015 104.538 85.9566 103.171 87.6283 103.171ZM98.635 103.171C100.307 103.171 101.662 104.538 101.662 106.225V109.47C101.662 111.157 100.307 112.524 98.635 112.524C96.9633 112.524 95.6082 111.157 95.6082 109.47V106.225C95.6082 104.538 96.9633 103.171 98.635 103.171ZM43.8051 115.575C39.4616 115.575 35.9404 112.013 35.9404 107.619C35.9404 103.226 39.4616 99.6636 43.8051 99.6636C48.1486 99.6636 51.6698 103.226 51.6698 107.619C51.6698 112.013 48.1486 115.575 43.8051 115.575Z" fill="#FFFFFF"></path><path d="M64.4563 130.022C66.128 130.022 67.4831 131.389 67.4831 133.076V136.321C67.4831 138.008 66.128 139.375 64.4563 139.375C62.7847 139.375 61.4296 138.008 61.4296 136.321V133.076C61.4296 131.389 62.7847 130.022 64.4563 130.022ZM76.6216 130.022C78.2933 130.022 79.6484 131.389 79.6484 133.076V136.321C79.6484 138.008 78.2933 139.375 76.6216 139.375C74.95 139.375 73.5948 138.008 73.5948 136.321V133.076C73.5948 131.389 74.95 130.022 76.6216 130.022ZM87.6283 130.022C89.2999 130.022 90.6551 131.389 90.6551 133.076V136.321C90.6551 138.008 89.2999 139.375 87.6283 139.375C85.9566 139.375 84.6015 138.008 84.6015 136.321V133.076C84.6015 131.389 85.9566 130.022 87.6283 130.022ZM98.635 130.022C100.307 130.022 101.662 131.389 101.662 133.076V136.321C101.662 138.008 100.307 139.375 98.635 139.375C96.9633 139.375 95.6082 138.008 95.6082 136.321V133.076C95.6082 131.389 96.9633 130.022 98.635 130.022ZM43.8051 142.426C39.4616 142.426 35.9404 138.864 35.9404 134.471C35.9404 130.077 39.4616 126.515 43.8051 126.515C48.1486 126.515 51.6698 130.077 51.6698 134.471C51.6698 138.864 48.1486 142.426 43.8051 142.426Z" fill="#FFFFFF"></path><path d="M162.198 49.7383C163.298 48.6464 165.043 48.6864 166.096 49.8276C167.149 50.9688 167.11 52.779 166.01 53.8709L153.735 66.0518C152.454 67.3234 150.365 67.0278 149.459 65.4468L144.346 56.5242C143.567 55.1665 143.998 53.4117 145.307 52.6047C146.616 51.7977 148.308 52.244 149.086 53.6017L152.428 59.4335L162.198 49.7383Z" fill="#FFFFFF"></path><path fill-rule="evenodd" clip-rule="evenodd" d="M139.171 83.7518H158.772C159.429 83.7518 159.96 84.2173 159.96 84.7914V85.4701C159.96 86.0442 159.429 86.5097 158.772 86.5097H139.171C138.515 86.5097 137.983 86.0442 137.983 85.4701V84.7914C137.983 84.2173 138.515 83.7518 139.171 83.7518ZM139.171 88.9499H170.652C171.308 88.9499 171.84 89.4153 171.84 89.9895V90.6681C171.84 91.2423 171.308 91.7077 170.652 91.7077H139.171C138.515 91.7077 137.983 91.2423 137.983 90.6681V89.9895C137.983 89.4153 138.515 88.9499 139.171 88.9499Z" fill="#FB65BC"></path><path d="M147.011 81.2099C170.585 71.1197 167.554 49.5555 166.688 45.2507C166.647 45.0511 166.525 44.8771 166.353 44.7691C166.18 44.6611 165.97 44.6285 165.772 44.679C154.79 47.2416 149.373 41.2359 147.66 38.7595C147.52 38.5534 147.287 38.4298 147.038 38.4298C146.789 38.4298 146.556 38.5534 146.417 38.7595C144.697 41.236 139.263 47.2439 128.278 44.679C128.08 44.6285 127.87 44.6611 127.698 44.7691C127.525 44.8771 127.404 45.0511 127.362 45.2507C126.496 49.5555 123.465 71.1197 147.039 81.2099H147.011Z" fill="#E3E7F2"></path><path d="M147.025 77.9197C129.514 69.7643 129.239 54.399 129.965 48.0449C131.104 48.2112 132.253 48.2961 133.404 48.2989C138.529 48.3965 143.464 46.3673 147.035 42.6949C150.598 46.3668 155.527 48.396 160.646 48.2975C161.797 48.2946 162.946 48.2097 164.084 48.0434C164.811 54.3998 164.537 69.7643 147.025 77.9197Z" fill="#E3E7F2"></path><path d="M147.024 81.2019C146.641 81.0371 146.266 80.8722 145.898 80.6999C168.234 70.4119 165.286 49.4914 164.438 45.2503C164.418 45.1504 164.377 45.0558 164.318 44.9731C164.79 44.8982 165.278 44.7933 165.773 44.6809C165.971 44.6317 166.179 44.6646 166.352 44.7719C166.524 44.8792 166.646 45.0519 166.689 45.2503C167.551 49.5589 170.583 71.1088 147.024 81.2019Z" fill="#A4C2F7"></path><path d="M147.023 77.9201C146.641 77.7403 146.265 77.5604 145.905 77.3731C162.111 69.1907 162.539 54.6018 161.864 48.2627C162.607 48.23 163.349 48.1575 164.085 48.0453C164.812 54.3995 164.535 69.7677 147.023 77.9201Z" fill="#A4C2F7"></path><path d="M147.037 81.2089L147.023 81.2025L147.01 81.2089H147.037Z" fill="#FFFFFF"></path><path d="M129.733 44.9693C129.258 44.8876 128.776 44.7947 128.277 44.6786C128.08 44.6281 127.87 44.6607 127.697 44.7687C127.524 44.8767 127.403 45.0507 127.362 45.2503C126.51 49.4846 123.583 70.4044 145.913 80.6924L145.899 80.6999C146.251 80.8647 146.611 81.0228 146.977 81.1809C146.994 81.1876 147.009 81.1959 147.025 81.2026C147.414 81.0363 147.785 80.8624 148.159 80.69C125.835 70.4007 128.761 49.4838 129.613 45.2503C129.633 45.1494 129.674 45.0538 129.733 44.9693Z" fill="#FFFFFF"></path><path d="M148.164 39.437C147.971 39.1912 147.802 38.9619 147.661 38.7573C147.522 38.5512 147.289 38.4276 147.04 38.4276C146.79 38.4276 146.558 38.5512 146.418 38.7573C143.676 42.6562 139.275 45.0611 134.509 45.2658C142.06 45.7012 146.312 41.7846 148.164 39.437Z" fill="#FFFFFF"></path><path d="M146.743 81.8975C143.687 80.6058 140.802 78.9449 138.151 76.9521C133.239 73.2604 129.576 68.1569 127.651 62.3264C126.71 59.4323 126.168 56.4233 126.042 53.3827C125.891 50.335 126.148 47.2809 126.806 44.3011L128.257 44.6848C127.639 47.5179 127.399 50.42 127.541 53.316C127.661 56.2199 128.178 59.0937 129.077 61.858C130.906 67.4035 134.391 72.2567 139.063 75.7652C141.615 77.6816 144.393 79.2785 147.334 80.5203L146.743 81.8975Z" fill="#FFFFFF"></path><path d="M143.984 80.5957C144.858 81.0505 145.765 81.4372 146.655 81.8568C146.763 81.9202 146.885 81.955 147.01 81.958H147.039C147.18 81.9584 147.319 81.9175 147.438 81.8403C173.833 70.4509 167.312 44.5617 167.245 44.3002C167.139 43.9003 166.729 43.6618 166.328 43.7674C153.525 47.1355 148.396 38.7231 147.746 37.5369C147.726 37.473 147.698 37.4118 147.663 37.3548C147.514 37.1471 147.273 37.0239 147.017 37.0239C146.761 37.0239 146.521 37.1471 146.372 37.3548C146.329 37.4244 146.298 37.5003 146.279 37.5796C145.538 38.906 140.383 47.0943 127.722 43.7682C127.322 43.6631 126.912 43.9014 126.806 44.301C126.148 47.2807 125.891 50.3348 126.042 53.3825C126.168 56.423 126.71 59.4321 127.651 62.3262C129.576 68.1571 133.239 73.2607 138.151 76.9527C138.353 77.1085 138.565 77.2524 138.772 77.4023C139.107 77.6427 139.573 77.5687 139.816 77.2366C140.059 76.9045 139.989 76.4385 139.658 76.1929C139.46 76.0497 139.257 75.9127 139.063 75.7643C134.391 72.2567 130.906 67.4049 129.077 61.8609C128.178 59.0966 127.662 56.2227 127.541 53.3189C127.421 50.6687 127.615 48.0136 128.121 45.4092C139.432 48.0348 145.173 41.7953 147.024 39.1727C148.877 41.7953 154.625 48.052 165.958 45.4009C166.841 49.609 169.89 70.3842 147.025 80.3755C146.236 80.0083 145.437 79.6606 144.668 79.259C144.304 79.0703 143.856 79.2098 143.665 79.5714C143.47 79.9425 143.613 80.4008 143.984 80.5957Z" fill="#428DFF"></path><path d="M141.32 79.1002C141.491 79.2041 141.696 79.2394 141.893 79.1991L142.027 79.1503C142.073 79.1295 142.116 79.1025 142.154 79.0701C142.194 79.0448 142.23 79.0135 142.261 78.9772C142.293 78.9387 142.323 78.8981 142.349 78.8558C142.447 78.6816 142.477 78.4781 142.436 78.283C142.41 78.1883 142.368 78.0991 142.31 78.0199C142.135 77.7788 141.833 77.6646 141.542 77.7298C141.447 77.7557 141.357 77.7986 141.277 77.8565C141.028 78.0283 140.909 78.3351 140.977 78.6302C141.028 78.8241 141.151 78.9919 141.32 79.1002Z" fill="#428DFF"></path><path d="M147.023 78.6695C147.133 78.6697 147.241 78.6456 147.34 78.5991C165.464 70.1679 165.623 54.3576 164.85 47.9526C164.826 47.7521 164.722 47.5698 164.561 47.4471C164.401 47.3243 164.197 47.2715 163.997 47.3007C162.887 47.4638 161.766 47.5473 160.644 47.5502C160.23 47.5502 159.894 47.8858 159.894 48.2995C159.894 48.7133 160.23 49.0488 160.644 49.0488C161.579 49.0472 162.513 48.9922 163.441 48.884C164.052 55.3332 163.277 69.3565 147.023 77.0923C145.481 76.3641 143.992 75.5283 142.568 74.5911C142.345 74.4337 142.053 74.4099 141.807 74.5291C141.562 74.6482 141.4 74.8914 141.386 75.164C141.372 75.4366 141.507 75.6953 141.739 75.8394C143.323 76.8827 144.984 77.8057 146.707 78.6006C146.806 78.6462 146.914 78.6698 147.023 78.6695Z" fill="#428DFF"></path><path d="M133.405 49.0481C138.463 49.1517 143.358 47.2558 147.024 43.773C149.09 45.7557 151.585 47.2363 154.317 48.0994C154.573 48.1864 154.857 48.1282 155.059 47.9471C155.261 47.7659 155.349 47.4901 155.29 47.2258C155.23 46.9614 155.033 46.7497 154.773 46.672C152.035 45.8037 149.559 44.2648 147.57 42.1957C147.27 41.9034 146.791 41.9034 146.491 42.1957C143.065 45.7185 138.326 47.6582 133.409 47.5495C132.293 47.5465 131.178 47.4639 130.073 47.3022C129.872 47.2733 129.668 47.3269 129.508 47.4505C129.347 47.5742 129.244 47.7574 129.221 47.9586C128.829 51.3676 128.973 54.8168 129.648 58.1813C130.6 63.0585 132.89 67.5756 136.263 71.2282C136.446 71.4247 136.719 71.5091 136.981 71.4497C137.242 71.3903 137.452 71.1961 137.531 70.9401C137.61 70.6843 137.547 70.4056 137.365 70.209C134.176 66.7582 132.011 62.4898 131.112 57.8807C130.518 54.9224 130.355 51.894 130.627 48.8891C131.549 48.9947 132.477 49.0478 133.405 49.0481Z" fill="#428DFF"></path><path d="M141.036 68.4708H147.039C147.453 68.4708 147.789 68.1353 147.789 67.7215C147.789 67.3077 147.453 66.9722 147.039 66.9722H141.036C140.622 66.9722 140.286 67.3077 140.286 67.7215C140.286 68.1353 140.622 68.4708 141.036 68.4708Z" fill="#428DFF"></path><path d="M150.039 66.9721C149.625 66.9721 149.289 67.3076 149.289 67.7214C149.289 68.1352 149.625 68.4707 150.039 68.4707H153.04C153.455 68.4707 153.791 68.1351 153.791 67.7214C153.791 67.3075 153.455 66.9721 153.04 66.9721H150.039Z" fill="#428DFF"></path><path d="M129.032 78.2117C129.447 78.2117 129.783 77.8763 129.783 77.4624V75.9638H131.283C131.698 75.9638 132.033 75.6283 132.033 75.2145C132.033 74.8008 131.698 74.4653 131.283 74.4653H129.783V72.9666C129.783 72.5528 129.447 72.2173 129.032 72.2173C128.618 72.2173 128.282 72.5529 128.282 72.9666V74.4653H126.781C126.367 74.4653 126.031 74.8007 126.031 75.2145C126.031 75.6284 126.367 75.9638 126.781 75.9638H128.282V77.4624C128.282 77.8763 128.618 78.2117 129.032 78.2117Z" fill="#428DFF"></path><path d="M165.795 81.9582C166.209 81.9582 166.545 81.6227 166.545 81.2089V79.7103H168.046C168.46 79.7103 168.796 79.3748 168.796 78.961C168.796 78.5471 168.46 78.2117 168.046 78.2117H166.545V76.7131C166.545 76.2992 166.209 75.9638 165.795 75.9638C165.381 75.9638 165.045 76.2992 165.045 76.7131V78.2117H163.544C163.13 78.2117 162.794 78.5472 162.794 78.961C162.794 79.3747 163.13 79.7103 163.544 79.7103H165.045V81.2089C165.045 81.6227 165.381 81.9582 165.795 81.9582Z" fill="#428DFF"></path><path d="M163.545 37C163.13 37 162.794 37.3355 162.794 37.7493V38.4985H162.044C161.63 38.4985 161.294 38.8341 161.294 39.2478C161.294 39.6616 161.63 39.9971 162.044 39.9971H162.794V40.7464C162.794 41.1602 163.13 41.4956 163.545 41.4956C163.959 41.4956 164.295 41.1601 164.295 40.7464V39.9971H165.045C165.46 39.9971 165.795 39.6616 165.795 39.2478C165.795 38.8341 165.46 38.4985 165.045 38.4985H164.295V37.7493C164.295 37.3355 163.959 37 163.545 37Z" fill="#428DFF"></path><path d="M153.571 53.7043C153.278 53.4118 152.803 53.4118 152.51 53.7043L143.287 62.9155L141.566 61.1973C141.272 60.9133 140.804 60.9174 140.515 61.2064C140.225 61.4955 140.221 61.9628 140.506 62.2568L142.756 64.5047C143.049 64.7972 143.524 64.7972 143.817 64.5047L153.571 54.7638C153.864 54.4711 153.864 53.9969 153.571 53.7043Z" fill="#428DFF"></path><path fill-rule="evenodd" clip-rule="evenodd" d="M43.9492 103H170.776C174.362 103 177.27 105.947 177.27 109.582V190.542C177.27 194.177 174.362 197.124 170.776 197.124H43.9492C40.3626 197.124 37.4551 194.177 37.4551 190.542V109.582C37.4551 105.947 40.3626 103 43.9492 103Z" fill="#428DFF"></path><path opacity="0.965588" fill-rule="evenodd" clip-rule="evenodd" d="M46.5527 109.582H168.166C169.601 109.582 170.764 110.761 170.764 112.215V190.542H43.9551V112.215C43.9551 110.761 45.1181 109.582 46.5527 109.582Z" fill="#9EBEF7"></path><path opacity="0.965588" fill-rule="evenodd" clip-rule="evenodd" d="M65.417 122.088H168.172C169.606 122.088 170.769 123.267 170.769 124.721V190.542H62.8193V124.721C62.8193 123.267 63.9823 122.088 65.417 122.088Z" fill="#E3E7F2"></path><path d="M79.7158 131.961H170.769V147.758H79.7158C75.4119 147.758 71.9229 144.222 71.9229 139.86C71.9229 135.497 75.4119 131.961 79.7158 131.961ZM86.4428 140.744C86.4428 139.333 85.8462 138.628 84.6531 138.628C84.2855 138.628 83.9578 138.699 83.6699 138.843C83.382 138.987 83.1514 139.196 82.978 139.47V137.016C82.978 136.834 82.919 136.69 82.8011 136.584C82.6832 136.479 82.5271 136.426 82.3329 136.426C82.1386 136.426 81.9808 136.483 81.8595 136.595C81.7381 136.707 81.6774 136.855 81.6774 137.037V143.335C81.6774 143.532 81.7346 143.686 81.849 143.798C81.9635 143.911 82.1213 143.967 82.3225 143.967C82.5236 143.967 82.6832 143.911 82.8011 143.798C82.919 143.686 82.978 143.532 82.978 143.335V140.987C82.978 140.586 83.0907 140.267 83.3161 140.028C83.5416 139.789 83.8416 139.67 84.2161 139.67C84.5352 139.67 84.7693 139.756 84.9185 139.928C85.0676 140.1 85.1422 140.372 85.1422 140.744V143.335C85.1422 143.532 85.2011 143.686 85.3191 143.798C85.437 143.911 85.5965 143.967 85.7977 143.967C85.9988 143.967 86.1566 143.911 86.2711 143.798C86.3855 143.686 86.4428 143.532 86.4428 143.335V140.744ZM91.2498 143.461C91.2498 143.167 91.0764 143.009 90.7296 142.988L90.4486 142.966C89.9769 142.931 89.7411 142.654 89.7411 142.134V139.744H90.6255C90.8128 139.744 90.9567 139.702 91.0573 139.617C91.1579 139.533 91.2082 139.41 91.2082 139.249C91.2082 139.087 91.1579 138.965 91.0573 138.88C90.9567 138.796 90.8128 138.754 90.6255 138.754H89.7411V137.785C89.7411 137.595 89.6821 137.445 89.5642 137.332C89.4463 137.22 89.2902 137.164 89.096 137.164C88.8948 137.164 88.7353 137.22 88.6174 137.332C88.4995 137.445 88.4405 137.595 88.4405 137.785V138.754H87.9203C87.733 138.754 87.589 138.796 87.4885 138.88C87.3879 138.965 87.3376 139.087 87.3376 139.249C87.3376 139.41 87.3879 139.533 87.4885 139.617C87.589 139.702 87.733 139.744 87.9203 139.744H88.4405V142.04C88.4405 143.219 89.0232 143.851 90.1885 143.935L90.4694 143.956C90.7192 143.97 90.9116 143.934 91.0469 143.846C91.1822 143.758 91.2498 143.63 91.2498 143.461ZM95.3389 143.461C95.3389 143.167 95.1655 143.009 94.8186 142.988L94.5377 142.966C94.066 142.931 93.8302 142.654 93.8302 142.134V139.744H94.7146C94.9019 139.744 95.0458 139.702 95.1464 139.617C95.247 139.533 95.2973 139.41 95.2973 139.249C95.2973 139.087 95.247 138.965 95.1464 138.88C95.0458 138.796 94.9019 138.754 94.7146 138.754H93.8302V137.785C93.8302 137.595 93.7712 137.445 93.6533 137.332C93.5354 137.22 93.3793 137.164 93.1851 137.164C92.9839 137.164 92.8244 137.22 92.7065 137.332C92.5885 137.445 92.5296 137.595 92.5296 137.785V138.754H92.0093C91.8221 138.754 91.6781 138.796 91.5775 138.88C91.477 138.965 91.4267 139.087 91.4267 139.249C91.4267 139.41 91.477 139.533 91.5775 139.617C91.6781 139.702 91.8221 139.744 92.0093 139.744H92.5296V142.04C92.5296 143.219 93.1123 143.851 94.2776 143.935L94.5585 143.956C94.8082 143.97 95.0007 143.934 95.136 143.846C95.2713 143.758 95.3389 143.63 95.3389 143.461ZM100.432 138.965C100.089 138.74 99.6985 138.628 99.2615 138.628C98.8939 138.628 98.5661 138.707 98.2783 138.864C97.9904 139.022 97.7701 139.245 97.6175 139.533V139.27C97.6175 139.08 97.5586 138.929 97.4407 138.817C97.3227 138.705 97.1667 138.649 96.9724 138.649C96.7782 138.649 96.6239 138.705 96.5094 138.817C96.395 138.929 96.3378 139.08 96.3378 139.27V145.241C96.3378 145.424 96.3984 145.571 96.5198 145.684C96.6412 145.796 96.799 145.852 96.9933 145.852C97.1875 145.852 97.3436 145.799 97.4615 145.694C97.5794 145.589 97.6384 145.445 97.6384 145.262V143.114C97.791 143.388 98.0095 143.602 98.2939 143.756C98.5783 143.911 98.9008 143.988 99.2615 143.988C99.7055 143.988 100.097 143.879 100.437 143.662C100.777 143.444 101.042 143.135 101.233 142.735C101.424 142.335 101.519 141.868 101.519 141.334C101.519 140.8 101.424 140.328 101.233 139.918C101.042 139.507 100.775 139.189 100.432 138.965ZM99.8754 142.54C99.6465 142.824 99.3274 142.966 98.9181 142.966C98.502 142.966 98.1811 142.823 97.9557 142.535C97.7303 142.247 97.6175 141.84 97.6175 141.313C97.6175 140.779 97.7303 140.369 97.9557 140.081C98.1811 139.793 98.502 139.649 98.9181 139.649C99.3274 139.649 99.6465 139.797 99.8754 140.091C100.104 140.386 100.219 140.8 100.219 141.334C100.219 141.854 100.104 142.256 99.8754 142.54ZM102.924 143.535C103.389 143.837 103.999 143.988 104.755 143.988C105.407 143.988 105.929 143.844 106.321 143.556C106.713 143.268 106.909 142.886 106.909 142.408C106.909 142.113 106.852 141.871 106.737 141.682C106.623 141.492 106.434 141.334 106.17 141.208C105.907 141.081 105.543 140.969 105.078 140.871C104.641 140.779 104.346 140.688 104.193 140.597C104.041 140.506 103.964 140.372 103.964 140.197C103.964 140.014 104.039 139.87 104.188 139.765C104.337 139.66 104.54 139.607 104.797 139.607C105.012 139.607 105.192 139.633 105.338 139.686C105.484 139.739 105.657 139.818 105.858 139.923C105.969 139.986 106.061 140.033 106.134 140.065C106.207 140.097 106.281 140.112 106.358 140.112C106.469 140.112 106.562 140.065 106.639 139.97C106.715 139.875 106.753 139.758 106.753 139.617C106.753 139.386 106.642 139.2 106.42 139.059C106.205 138.919 105.962 138.812 105.692 138.738C105.421 138.664 105.14 138.628 104.849 138.628C104.447 138.628 104.088 138.696 103.772 138.833C103.456 138.97 103.208 139.163 103.028 139.412C102.848 139.661 102.758 139.94 102.758 140.249C102.758 140.657 102.891 140.976 103.158 141.208C103.425 141.439 103.867 141.618 104.485 141.745C104.832 141.822 105.09 141.89 105.26 141.95C105.43 142.01 105.548 142.075 105.614 142.145C105.68 142.215 105.712 142.31 105.712 142.429C105.712 142.605 105.631 142.742 105.468 142.84C105.305 142.938 105.078 142.988 104.786 142.988C104.502 142.988 104.268 142.959 104.084 142.903C103.9 142.847 103.697 142.766 103.475 142.661C103.267 142.549 103.104 142.493 102.986 142.493C102.875 142.493 102.782 142.536 102.705 142.624C102.629 142.712 102.591 142.826 102.591 142.966C102.591 143.212 102.702 143.402 102.924 143.535ZM108.345 139.991C108.491 140.142 108.674 140.218 108.896 140.218C109.118 140.218 109.302 140.142 109.448 139.991C109.593 139.84 109.666 139.653 109.666 139.428C109.666 139.203 109.593 139.017 109.448 138.87C109.302 138.722 109.118 138.649 108.896 138.649C108.674 138.649 108.491 138.722 108.345 138.87C108.199 139.017 108.126 139.203 108.126 139.428C108.126 139.653 108.199 139.84 108.345 139.991ZM108.345 143.741C108.491 143.891 108.674 143.967 108.896 143.967C109.118 143.967 109.302 143.891 109.448 143.741C109.593 143.59 109.666 143.402 109.666 143.177C109.666 142.952 109.593 142.765 109.448 142.614C109.302 142.463 109.118 142.387 108.896 142.387C108.674 142.387 108.491 142.463 108.345 142.614C108.199 142.765 108.126 142.952 108.126 143.177C108.126 143.402 108.199 143.59 108.345 143.741ZM111.778 144.557C111.869 144.493 111.935 144.395 111.976 144.262L114.39 136.606C114.411 136.542 114.421 136.479 114.421 136.416C114.421 136.269 114.368 136.147 114.26 136.053C114.153 135.958 114.029 135.91 113.891 135.91C113.78 135.91 113.679 135.942 113.589 136.005C113.499 136.068 113.433 136.167 113.391 136.3L110.977 143.956C110.957 144.02 110.946 144.083 110.946 144.146C110.946 144.293 111 144.415 111.107 144.509C111.215 144.604 111.338 144.651 111.477 144.651C111.588 144.651 111.688 144.62 111.778 144.557ZM114.869 144.557C114.959 144.493 115.025 144.395 115.066 144.262L117.48 136.606C117.501 136.542 117.512 136.479 117.512 136.416C117.512 136.269 117.458 136.147 117.35 136.053C117.243 135.958 117.12 135.91 116.981 135.91C116.87 135.91 116.769 135.942 116.679 136.005C116.589 136.068 116.523 136.167 116.481 136.3L114.068 143.956C114.047 144.02 114.036 144.083 114.036 144.146C114.036 144.293 114.09 144.415 114.198 144.509C114.305 144.604 114.428 144.651 114.567 144.651C114.678 144.651 114.779 144.62 114.869 144.557Z" fill="#FFFFFF"></path><path d="M74.8433 160.264H136.628C137.883 160.264 138.901 161.296 138.901 162.568C138.901 163.84 137.883 164.872 136.628 164.872H74.8433C73.5879 164.872 72.5703 163.84 72.5703 162.568C72.5703 161.296 73.5879 160.264 74.8433 160.264Z" fill="#FFFFFF"></path><path d="M113.209 170.137H170.764V174.745H113.209C111.954 174.745 110.937 173.714 110.937 172.441C110.937 171.169 111.954 170.137 113.209 170.137Z" fill="#FFFFFF"></path><path d="M74.8433 170.137H104.113C105.368 170.137 106.386 171.169 106.386 172.441C106.386 173.714 105.368 174.745 104.113 174.745H74.8433C73.5879 174.745 72.5703 173.714 72.5703 172.441C72.5703 171.169 73.5879 170.137 74.8433 170.137Z" fill="#FFFFFF"></path><path d="M132.722 180.01H170.768V184.618H132.722C131.467 184.618 130.449 183.587 130.449 182.314C130.449 181.042 131.467 180.01 132.722 180.01Z" fill="#FFFFFF"></path><path d="M74.8433 180.01H123.622C124.877 180.01 125.895 181.042 125.895 182.314C125.895 183.587 124.877 184.618 123.622 184.618H74.8433C73.5879 184.618 72.5703 183.587 72.5703 182.314C72.5703 181.042 73.5879 180.01 74.8433 180.01Z" fill="#FFFFFF"></path><path fill-rule="evenodd" clip-rule="evenodd" d="M29 190.542H187.023C187.023 194.904 183.534 198.44 179.23 198.44H36.7929C32.489 198.44 29 194.904 29 190.542Z" fill="#428DFF"></path><path d="M81.6738 190.542H129.146C129.146 192.36 127.692 193.833 125.899 193.833H84.9209C83.1276 193.833 81.6738 192.36 81.6738 190.542Z" fill="#316FCD"></path></svg>