<svg width="1332" height="1332" viewBox="0 0 1332 1332" fill="none" xmlns="http://www.w3.org/2000/svg">
<rect width="1332" height="1332" fill="url(#paint0_radial_3057_1406)"/>
<g filter="url(#filter0_d_3057_1406)">
<rect x="104" y="488" width="631" height="132" rx="40" fill="white" shape-rendering="crispEdges"/>
<path d="M199.688 544.449H189.063C188.76 542.706 188.201 541.163 187.387 539.818C186.573 538.455 185.559 537.299 184.347 536.352C183.135 535.405 181.753 534.695 180.2 534.222C178.665 533.729 177.008 533.483 175.228 533.483C172.065 533.483 169.262 534.278 166.819 535.869C164.376 537.441 162.463 539.752 161.08 542.801C159.698 545.831 159.006 549.534 159.006 553.909C159.006 558.36 159.698 562.11 161.08 565.159C162.482 568.189 164.395 570.481 166.819 572.034C169.262 573.568 172.056 574.335 175.2 574.335C176.942 574.335 178.571 574.108 180.086 573.653C181.62 573.18 182.993 572.489 184.205 571.58C185.436 570.67 186.469 569.553 187.302 568.227C188.154 566.902 188.741 565.386 189.063 563.682L199.688 563.739C199.29 566.504 198.429 569.098 197.103 571.523C195.796 573.947 194.082 576.087 191.961 577.943C189.84 579.78 187.359 581.22 184.518 582.261C181.677 583.284 178.523 583.795 175.058 583.795C169.944 583.795 165.379 582.612 161.364 580.244C157.349 577.877 154.186 574.458 151.876 569.989C149.565 565.519 148.41 560.159 148.41 553.909C148.41 547.64 149.575 542.28 151.904 537.83C154.234 533.36 157.406 529.941 161.421 527.574C165.436 525.206 169.982 524.023 175.058 524.023C178.296 524.023 181.308 524.477 184.092 525.386C186.876 526.295 189.357 527.631 191.535 529.392C193.713 531.134 195.503 533.275 196.904 535.812C198.325 538.331 199.253 541.21 199.688 544.449ZM215.668 599.364C214.267 599.364 212.969 599.25 211.776 599.023C210.602 598.814 209.665 598.568 208.964 598.284L211.35 590.273C212.846 590.708 214.182 590.917 215.356 590.898C216.53 590.879 217.562 590.509 218.452 589.79C219.362 589.089 220.129 587.915 220.754 586.267L221.634 583.909L205.81 539.364H216.719L226.776 572.318H227.231L237.316 539.364H248.254L230.782 588.284C229.968 590.595 228.888 592.574 227.543 594.222C226.199 595.888 224.551 597.157 222.6 598.028C220.668 598.919 218.358 599.364 215.668 599.364ZM255.825 583V524.818H266.109V546.58H266.535C267.065 545.519 267.813 544.392 268.779 543.199C269.745 541.987 271.052 540.955 272.7 540.102C274.347 539.231 276.45 538.795 279.006 538.795C282.378 538.795 285.417 539.657 288.126 541.381C290.853 543.085 293.012 545.614 294.603 548.966C296.213 552.299 297.018 556.39 297.018 561.239C297.018 566.03 296.232 570.102 294.66 573.455C293.088 576.807 290.948 579.364 288.239 581.125C285.531 582.886 282.463 583.767 279.035 583.767C276.535 583.767 274.461 583.35 272.813 582.517C271.165 581.684 269.84 580.68 268.836 579.506C267.851 578.312 267.084 577.186 266.535 576.125H265.938V583H255.825ZM265.91 561.182C265.91 564.004 266.308 566.475 267.103 568.597C267.917 570.718 269.082 572.375 270.597 573.568C272.131 574.742 273.987 575.33 276.165 575.33C278.438 575.33 280.342 574.723 281.876 573.511C283.41 572.28 284.565 570.604 285.342 568.483C286.137 566.343 286.535 563.909 286.535 561.182C286.535 558.473 286.147 556.068 285.37 553.966C284.594 551.864 283.438 550.216 281.904 549.023C280.37 547.83 278.457 547.233 276.165 547.233C273.969 547.233 272.103 547.811 270.569 548.966C269.035 550.121 267.87 551.741 267.075 553.824C266.298 555.907 265.91 558.36 265.91 561.182ZM325.079 583.852C320.704 583.852 316.925 582.943 313.744 581.125C310.581 579.288 308.147 576.693 306.442 573.341C304.738 569.97 303.886 566.002 303.886 561.438C303.886 556.949 304.738 553.009 306.442 549.619C308.166 546.21 310.571 543.559 313.658 541.665C316.746 539.752 320.372 538.795 324.539 538.795C327.228 538.795 329.766 539.231 332.153 540.102C334.558 540.955 336.679 542.28 338.516 544.08C340.372 545.879 341.831 548.17 342.891 550.955C343.952 553.72 344.482 557.015 344.482 560.841V563.994H308.715V557.062H334.624C334.605 555.093 334.179 553.341 333.346 551.807C332.513 550.254 331.348 549.032 329.852 548.142C328.374 547.252 326.651 546.807 324.681 546.807C322.579 546.807 320.732 547.318 319.141 548.341C317.55 549.345 316.31 550.67 315.42 552.318C314.549 553.947 314.103 555.737 314.085 557.688V563.739C314.085 566.277 314.549 568.455 315.477 570.273C316.405 572.072 317.702 573.455 319.369 574.42C321.035 575.367 322.986 575.841 325.221 575.841C326.717 575.841 328.071 575.633 329.283 575.216C330.496 574.78 331.547 574.146 332.437 573.312C333.327 572.479 333.999 571.447 334.454 570.216L344.056 571.295C343.45 573.833 342.295 576.049 340.59 577.943C338.905 579.818 336.746 581.277 334.113 582.318C331.48 583.341 328.469 583.852 325.079 583.852ZM353.183 583V539.364H363.154V546.636H363.609C364.404 544.117 365.768 542.176 367.7 540.812C369.65 539.43 371.876 538.739 374.376 538.739C374.944 538.739 375.578 538.767 376.279 538.824C376.999 538.862 377.595 538.928 378.069 539.023V548.483C377.633 548.331 376.942 548.199 375.995 548.085C375.067 547.953 374.167 547.886 373.296 547.886C371.421 547.886 369.736 548.294 368.239 549.108C366.762 549.903 365.597 551.011 364.745 552.432C363.893 553.852 363.467 555.491 363.467 557.347V583H353.183ZM419.39 550.898L410.015 551.92C409.75 550.973 409.286 550.083 408.623 549.25C407.979 548.417 407.108 547.744 406.009 547.233C404.911 546.722 403.566 546.466 401.975 546.466C399.835 546.466 398.036 546.93 396.577 547.858C395.138 548.786 394.428 549.989 394.447 551.466C394.428 552.735 394.892 553.767 395.839 554.562C396.805 555.358 398.396 556.011 400.612 556.523L408.055 558.114C412.183 559.004 415.252 560.415 417.259 562.347C419.286 564.278 420.308 566.807 420.327 569.932C420.308 572.678 419.504 575.102 417.913 577.205C416.341 579.288 414.153 580.917 411.35 582.091C408.547 583.265 405.327 583.852 401.691 583.852C396.35 583.852 392.051 582.735 388.793 580.5C385.536 578.246 383.594 575.112 382.969 571.097L392.998 570.131C393.452 572.1 394.418 573.587 395.896 574.591C397.373 575.595 399.295 576.097 401.663 576.097C404.106 576.097 406.066 575.595 407.543 574.591C409.04 573.587 409.788 572.347 409.788 570.869C409.788 569.619 409.305 568.587 408.339 567.773C407.392 566.958 405.915 566.333 403.907 565.898L396.464 564.335C392.278 563.464 389.182 561.996 387.174 559.932C385.166 557.848 384.172 555.216 384.191 552.034C384.172 549.345 384.901 547.015 386.379 545.045C387.875 543.057 389.949 541.523 392.6 540.443C395.271 539.345 398.348 538.795 401.833 538.795C406.947 538.795 410.971 539.884 413.907 542.062C416.862 544.241 418.689 547.186 419.39 550.898ZM448.126 583.852C443.751 583.852 439.972 582.943 436.79 581.125C433.628 579.288 431.194 576.693 429.489 573.341C427.785 569.97 426.933 566.002 426.933 561.438C426.933 556.949 427.785 553.009 429.489 549.619C431.213 546.21 433.618 543.559 436.705 541.665C439.792 539.752 443.419 538.795 447.586 538.795C450.275 538.795 452.813 539.231 455.2 540.102C457.605 540.955 459.726 542.28 461.563 544.08C463.419 545.879 464.878 548.17 465.938 550.955C466.999 553.72 467.529 557.015 467.529 560.841V563.994H431.762V557.062H457.671C457.652 555.093 457.226 553.341 456.393 551.807C455.559 550.254 454.395 549.032 452.898 548.142C451.421 547.252 449.698 546.807 447.728 546.807C445.626 546.807 443.779 547.318 442.188 548.341C440.597 549.345 439.357 550.67 438.467 552.318C437.595 553.947 437.15 555.737 437.131 557.688V563.739C437.131 566.277 437.595 568.455 438.523 570.273C439.451 572.072 440.749 573.455 442.415 574.42C444.082 575.367 446.033 575.841 448.268 575.841C449.764 575.841 451.118 575.633 452.33 575.216C453.542 574.78 454.594 574.146 455.484 573.312C456.374 572.479 457.046 571.447 457.501 570.216L467.103 571.295C466.497 573.833 465.342 576.049 463.637 577.943C461.951 579.818 459.792 581.277 457.16 582.318C454.527 583.341 451.516 583.852 448.126 583.852ZM495.263 583.852C490.907 583.852 487.167 582.896 484.042 580.983C480.936 579.07 478.54 576.428 476.854 573.057C475.188 569.667 474.354 565.765 474.354 561.352C474.354 556.92 475.207 553.009 476.911 549.619C478.616 546.21 481.021 543.559 484.127 541.665C487.252 539.752 490.945 538.795 495.207 538.795C498.748 538.795 501.883 539.449 504.61 540.756C507.356 542.044 509.544 543.871 511.173 546.239C512.801 548.587 513.729 551.333 513.957 554.477H504.127C503.729 552.375 502.782 550.623 501.286 549.222C499.809 547.801 497.83 547.091 495.349 547.091C493.246 547.091 491.4 547.659 489.809 548.795C488.218 549.913 486.978 551.523 486.087 553.625C485.216 555.727 484.781 558.246 484.781 561.182C484.781 564.155 485.216 566.712 486.087 568.852C486.959 570.973 488.18 572.612 489.752 573.767C491.343 574.903 493.209 575.472 495.349 575.472C496.864 575.472 498.218 575.187 499.411 574.619C500.623 574.032 501.637 573.189 502.451 572.091C503.265 570.992 503.824 569.657 504.127 568.085H513.957C513.71 571.172 512.801 573.909 511.229 576.295C509.657 578.663 507.517 580.519 504.809 581.864C502.101 583.189 498.919 583.852 495.263 583.852ZM550.214 564.648V539.364H560.498V583H550.526V575.244H550.072C549.087 577.687 547.468 579.686 545.214 581.239C542.979 582.792 540.223 583.568 536.947 583.568C534.087 583.568 531.558 582.934 529.362 581.665C527.183 580.377 525.479 578.511 524.248 576.068C523.017 573.606 522.401 570.633 522.401 567.148V539.364H532.685V565.557C532.685 568.322 533.443 570.519 534.958 572.148C536.473 573.777 538.462 574.591 540.924 574.591C542.439 574.591 543.907 574.222 545.327 573.483C546.748 572.744 547.913 571.646 548.822 570.188C549.75 568.71 550.214 566.864 550.214 564.648ZM571.073 583V539.364H581.045V546.636H581.499C582.295 544.117 583.658 542.176 585.59 540.812C587.541 539.43 589.766 538.739 592.266 538.739C592.835 538.739 593.469 538.767 594.17 538.824C594.889 538.862 595.486 538.928 595.96 539.023V548.483C595.524 548.331 594.833 548.199 593.886 548.085C592.958 547.953 592.058 547.886 591.187 547.886C589.312 547.886 587.626 548.294 586.13 549.108C584.653 549.903 583.488 551.011 582.636 552.432C581.783 553.852 581.357 555.491 581.357 557.347V583H571.073ZM602.792 583V539.364H613.076V583H602.792ZM607.962 533.17C606.334 533.17 604.932 532.631 603.758 531.551C602.584 530.453 601.996 529.136 601.996 527.602C601.996 526.049 602.584 524.733 603.758 523.653C604.932 522.555 606.334 522.006 607.962 522.006C609.61 522.006 611.012 522.555 612.167 523.653C613.341 524.733 613.928 526.049 613.928 527.602C613.928 529.136 613.341 530.453 612.167 531.551C611.012 532.631 609.61 533.17 607.962 533.17ZM645.441 539.364V547.318H620.356V539.364H645.441ZM626.549 528.909H636.833V569.875C636.833 571.258 637.041 572.318 637.458 573.057C637.894 573.777 638.462 574.269 639.163 574.534C639.863 574.799 640.64 574.932 641.492 574.932C642.136 574.932 642.723 574.884 643.254 574.79C643.803 574.695 644.219 574.61 644.504 574.534L646.237 582.574C645.687 582.763 644.901 582.972 643.879 583.199C642.875 583.426 641.644 583.559 640.185 583.597C637.61 583.672 635.29 583.284 633.225 582.432C631.161 581.561 629.522 580.216 628.31 578.398C627.117 576.58 626.53 574.307 626.549 571.58V528.909ZM660.434 599.364C659.032 599.364 657.735 599.25 656.542 599.023C655.368 598.814 654.43 598.568 653.729 598.284L656.116 590.273C657.612 590.708 658.947 590.917 660.121 590.898C661.296 590.879 662.328 590.509 663.218 589.79C664.127 589.089 664.894 587.915 665.519 586.267L666.4 583.909L650.576 539.364H661.485L671.542 572.318H671.996L682.082 539.364H693.019L675.548 588.284C674.733 590.595 673.654 592.574 672.309 594.222C670.964 595.888 669.317 597.157 667.366 598.028C665.434 598.919 663.123 599.364 660.434 599.364Z" fill="#428DFF"/>
</g>
<path d="M173.682 223.364H154.455C154.318 221.773 153.955 220.33 153.364 219.034C152.795 217.739 152 216.625 150.977 215.693C149.977 214.739 148.761 214.011 147.33 213.511C145.898 212.989 144.273 212.727 142.455 212.727C139.273 212.727 136.58 213.5 134.375 215.045C132.193 216.591 130.534 218.807 129.398 221.693C128.284 224.58 127.727 228.045 127.727 232.091C127.727 236.364 128.295 239.943 129.432 242.83C130.591 245.693 132.261 247.852 134.443 249.307C136.625 250.739 139.25 251.455 142.318 251.455C144.068 251.455 145.636 251.239 147.023 250.807C148.409 250.352 149.614 249.705 150.636 248.864C151.659 248.023 152.489 247.011 153.125 245.83C153.784 244.625 154.227 243.273 154.455 241.773L173.682 241.909C173.455 244.864 172.625 247.875 171.193 250.943C169.761 253.989 167.727 256.807 165.091 259.398C162.477 261.966 159.239 264.034 155.375 265.602C151.511 267.17 147.023 267.955 141.909 267.955C135.5 267.955 129.75 266.58 124.659 263.83C119.591 261.08 115.58 257.034 112.625 251.693C109.693 246.352 108.227 239.818 108.227 232.091C108.227 224.318 109.727 217.773 112.727 212.455C115.727 207.114 119.773 203.08 124.864 200.352C129.955 197.602 135.636 196.227 141.909 196.227C146.318 196.227 150.375 196.83 154.08 198.034C157.784 199.239 161.034 201 163.83 203.318C166.625 205.614 168.875 208.443 170.58 211.807C172.284 215.17 173.318 219.023 173.682 223.364ZM210.661 267.955C204.979 267.955 200.116 266.83 196.07 264.58C192.025 262.307 188.923 259.148 186.764 255.102C184.604 251.034 183.525 246.318 183.525 240.955C183.525 235.591 184.604 230.886 186.764 226.841C188.923 222.773 192.025 219.614 196.07 217.364C200.116 215.091 204.979 213.955 210.661 213.955C216.343 213.955 221.207 215.091 225.252 217.364C229.298 219.614 232.4 222.773 234.559 226.841C236.718 230.886 237.798 235.591 237.798 240.955C237.798 246.318 236.718 251.034 234.559 255.102C232.4 259.148 229.298 262.307 225.252 264.58C221.207 266.83 216.343 267.955 210.661 267.955ZM210.798 254.045C212.389 254.045 213.764 253.511 214.923 252.443C216.082 251.375 216.979 249.852 217.616 247.875C218.252 245.898 218.57 243.545 218.57 240.818C218.57 238.068 218.252 235.716 217.616 233.761C216.979 231.784 216.082 230.261 214.923 229.193C213.764 228.125 212.389 227.591 210.798 227.591C209.116 227.591 207.673 228.125 206.468 229.193C205.264 230.261 204.343 231.784 203.707 233.761C203.07 235.716 202.752 238.068 202.752 240.818C202.752 243.545 203.07 245.898 203.707 247.875C204.343 249.852 205.264 251.375 206.468 252.443C207.673 253.511 209.116 254.045 210.798 254.045ZM267.132 237.545V267H248.314V214.636H266.178V224.591H266.723C267.859 221.273 269.859 218.67 272.723 216.784C275.609 214.898 278.973 213.955 282.814 213.955C286.519 213.955 289.734 214.807 292.462 216.511C295.212 218.193 297.337 220.511 298.837 223.466C300.359 226.42 301.109 229.795 301.087 233.591V267H282.269V237.545C282.291 234.955 281.632 232.92 280.291 231.443C278.973 229.966 277.132 229.227 274.769 229.227C273.223 229.227 271.871 229.568 270.712 230.25C269.575 230.909 268.7 231.864 268.087 233.114C267.473 234.341 267.155 235.818 267.132 237.545ZM344.62 214.636V228.273H309.575V214.636H344.62ZM316.256 267V213.136C316.256 208.818 317.029 205.239 318.575 202.398C320.12 199.557 322.302 197.432 325.12 196.023C327.938 194.614 331.256 193.909 335.075 193.909C337.461 193.909 339.779 194.091 342.029 194.455C344.302 194.818 345.984 195.136 347.075 195.409L344.347 208.909C343.666 208.705 342.87 208.545 341.961 208.432C341.052 208.295 340.256 208.227 339.575 208.227C337.802 208.227 336.609 208.602 335.995 209.352C335.381 210.102 335.075 211.091 335.075 212.318V267H316.256ZM354.761 267V214.636H373.58V267H354.761ZM364.171 209.182C361.625 209.182 359.443 208.341 357.625 206.659C355.807 204.977 354.898 202.955 354.898 200.591C354.898 198.227 355.807 196.205 357.625 194.523C359.443 192.841 361.625 192 364.171 192C366.739 192 368.921 192.841 370.716 194.523C372.534 196.205 373.443 198.227 373.443 200.591C373.443 202.955 372.534 204.977 370.716 206.659C368.921 208.341 366.739 209.182 364.171 209.182ZM411.275 287.727C406.025 287.727 401.525 286.977 397.775 285.477C394.048 284 391.15 281.955 389.082 279.341C387.036 276.75 385.889 273.773 385.639 270.409H403.775C403.957 271.523 404.411 272.42 405.139 273.102C405.866 273.784 406.798 274.273 407.934 274.568C409.093 274.886 410.389 275.045 411.82 275.045C414.252 275.045 416.264 274.455 417.855 273.273C419.468 272.091 420.275 269.955 420.275 266.864V258H419.73C419.048 259.773 418.002 261.284 416.593 262.534C415.184 263.761 413.491 264.705 411.514 265.364C409.536 266 407.366 266.318 405.002 266.318C401.275 266.318 397.843 265.455 394.707 263.727C391.593 262 389.093 259.261 387.207 255.511C385.343 251.761 384.411 246.864 384.411 240.818C384.411 234.5 385.389 229.364 387.343 225.409C389.32 221.455 391.866 218.557 394.98 216.716C398.116 214.875 401.411 213.955 404.866 213.955C407.457 213.955 409.73 214.409 411.684 215.318C413.639 216.205 415.275 217.398 416.593 218.898C417.911 220.375 418.911 222 419.593 223.773H420.002V214.636H438.82V266.864C438.82 271.295 437.673 275.057 435.377 278.148C433.105 281.261 429.9 283.636 425.764 285.273C421.627 286.909 416.798 287.727 411.275 287.727ZM411.957 252.955C413.684 252.955 415.161 252.477 416.389 251.523C417.639 250.545 418.593 249.159 419.252 247.364C419.934 245.545 420.275 243.364 420.275 240.818C420.275 238.227 419.934 236.011 419.252 234.17C418.593 232.307 417.639 230.886 416.389 229.909C415.161 228.909 413.684 228.409 411.957 228.409C410.23 228.409 408.752 228.909 407.525 229.909C406.32 230.886 405.389 232.307 404.73 234.17C404.093 236.011 403.775 238.227 403.775 240.818C403.775 243.409 404.093 245.614 404.73 247.432C405.389 249.227 406.32 250.602 407.525 251.557C408.752 252.489 410.23 252.955 411.957 252.955ZM485.226 244.091V214.636H504.044V267H486.181V257.045H485.635C484.499 260.386 482.51 263 479.669 264.886C476.828 266.75 473.453 267.682 469.544 267.682C465.885 267.682 462.681 266.841 459.931 265.159C457.203 263.477 455.078 261.159 453.556 258.205C452.056 255.25 451.294 251.864 451.271 248.045V214.636H470.09V244.091C470.112 246.682 470.771 248.716 472.067 250.193C473.385 251.67 475.226 252.409 477.59 252.409C479.158 252.409 480.51 252.08 481.646 251.42C482.806 250.739 483.692 249.784 484.306 248.557C484.942 247.307 485.249 245.818 485.226 244.091ZM516.495 267V214.636H534.768V224.591H535.313C536.268 220.909 537.779 218.216 539.848 216.511C541.938 214.807 544.382 213.955 547.177 213.955C547.995 213.955 548.802 214.023 549.598 214.159C550.416 214.273 551.2 214.443 551.95 214.67V230.727C551.018 230.409 549.87 230.17 548.507 230.011C547.143 229.852 545.973 229.773 544.995 229.773C543.154 229.773 541.495 230.193 540.018 231.034C538.563 231.852 537.416 233.011 536.575 234.511C535.734 235.989 535.313 237.727 535.313 239.727V267H516.495ZM583.091 267.955C577.5 267.955 572.682 266.886 568.637 264.75C564.614 262.591 561.512 259.5 559.33 255.477C557.171 251.432 556.091 246.591 556.091 240.955C556.091 235.545 557.182 230.818 559.364 226.773C561.546 222.727 564.625 219.58 568.603 217.33C572.58 215.08 577.273 213.955 582.682 213.955C586.637 213.955 590.216 214.568 593.421 215.795C596.625 217.023 599.364 218.807 601.637 221.148C603.909 223.466 605.659 226.284 606.887 229.602C608.114 232.92 608.728 236.659 608.728 240.818V245.182H561.955V234.818H591.409C591.387 233.318 591 232 590.25 230.864C589.523 229.705 588.534 228.807 587.284 228.17C586.057 227.511 584.659 227.182 583.091 227.182C581.568 227.182 580.171 227.511 578.898 228.17C577.625 228.807 576.603 229.693 575.83 230.83C575.08 231.966 574.682 233.295 574.637 234.818V246C574.637 247.682 574.989 249.182 575.693 250.5C576.398 251.818 577.409 252.852 578.728 253.602C580.046 254.352 581.637 254.727 583.5 254.727C584.796 254.727 585.978 254.545 587.046 254.182C588.137 253.818 589.068 253.295 589.841 252.614C590.614 251.909 591.182 251.068 591.546 250.091H608.728C608.137 253.727 606.739 256.886 604.534 259.568C602.33 262.227 599.409 264.295 595.773 265.773C592.159 267.227 587.932 267.955 583.091 267.955ZM678.655 219C678.473 216.727 677.621 214.955 676.098 213.682C674.598 212.409 672.314 211.773 669.246 211.773C667.291 211.773 665.689 212.011 664.439 212.489C663.212 212.943 662.303 213.568 661.712 214.364C661.121 215.159 660.814 216.068 660.791 217.091C660.746 217.932 660.894 218.693 661.235 219.375C661.598 220.034 662.166 220.636 662.939 221.182C663.712 221.705 664.701 222.182 665.905 222.614C667.11 223.045 668.541 223.432 670.201 223.773L675.928 225C679.791 225.818 683.098 226.898 685.848 228.239C688.598 229.58 690.848 231.159 692.598 232.977C694.348 234.773 695.632 236.795 696.451 239.045C697.291 241.295 697.723 243.75 697.746 246.409C697.723 251 696.576 254.886 694.303 258.068C692.03 261.25 688.78 263.67 684.553 265.33C680.348 266.989 675.291 267.818 669.382 267.818C663.314 267.818 658.019 266.92 653.496 265.125C648.996 263.33 645.496 260.568 642.996 256.841C640.519 253.091 639.269 248.295 639.246 242.455H657.246C657.36 244.591 657.894 246.386 658.848 247.841C659.803 249.295 661.144 250.398 662.871 251.148C664.621 251.898 666.701 252.273 669.11 252.273C671.132 252.273 672.826 252.023 674.189 251.523C675.553 251.023 676.587 250.33 677.291 249.443C677.996 248.557 678.36 247.545 678.382 246.409C678.36 245.341 678.007 244.409 677.326 243.614C676.666 242.795 675.576 242.068 674.053 241.432C672.53 240.773 670.473 240.159 667.882 239.591L660.928 238.091C654.746 236.75 649.871 234.511 646.303 231.375C642.757 228.216 640.996 223.909 641.019 218.455C640.996 214.023 642.178 210.148 644.564 206.83C646.973 203.489 650.303 200.886 654.553 199.023C658.826 197.159 663.723 196.227 669.246 196.227C674.882 196.227 679.757 197.17 683.871 199.057C687.985 200.943 691.155 203.602 693.382 207.034C695.632 210.443 696.769 214.432 696.791 219H678.655ZM733.336 267.955C727.654 267.955 722.791 266.83 718.745 264.58C714.7 262.307 711.598 259.148 709.439 255.102C707.279 251.034 706.2 246.318 706.2 240.955C706.2 235.591 707.279 230.886 709.439 226.841C711.598 222.773 714.7 219.614 718.745 217.364C722.791 215.091 727.654 213.955 733.336 213.955C739.018 213.955 743.882 215.091 747.927 217.364C751.973 219.614 755.075 222.773 757.234 226.841C759.393 230.886 760.473 235.591 760.473 240.955C760.473 246.318 759.393 251.034 757.234 255.102C755.075 259.148 751.973 262.307 747.927 264.58C743.882 266.83 739.018 267.955 733.336 267.955ZM733.473 254.045C735.064 254.045 736.439 253.511 737.598 252.443C738.757 251.375 739.654 249.852 740.291 247.875C740.927 245.898 741.245 243.545 741.245 240.818C741.245 238.068 740.927 235.716 740.291 233.761C739.654 231.784 738.757 230.261 737.598 229.193C736.439 228.125 735.064 227.591 733.473 227.591C731.791 227.591 730.348 228.125 729.143 229.193C727.939 230.261 727.018 231.784 726.382 233.761C725.745 235.716 725.427 238.068 725.427 240.818C725.427 243.545 725.745 245.898 726.382 247.875C727.018 249.852 727.939 251.375 729.143 252.443C730.348 253.511 731.791 254.045 733.473 254.045ZM789.807 237.545V267H770.989V214.636H788.853V224.591H789.398C790.534 221.273 792.534 218.67 795.398 216.784C798.284 214.898 801.648 213.955 805.489 213.955C809.194 213.955 812.409 214.807 815.137 216.511C817.887 218.193 820.012 220.511 821.512 223.466C823.034 226.42 823.784 229.795 823.762 233.591V267H804.944V237.545C804.966 234.955 804.307 232.92 802.966 231.443C801.648 229.966 799.807 229.227 797.444 229.227C795.898 229.227 794.546 229.568 793.387 230.25C792.25 230.909 791.375 231.864 790.762 233.114C790.148 234.341 789.83 235.818 789.807 237.545ZM850.522 267.818C847.181 267.818 844.227 267.273 841.659 266.182C839.113 265.068 837.113 263.386 835.659 261.136C834.204 258.886 833.477 256.023 833.477 252.545C833.477 249.682 833.966 247.239 834.943 245.216C835.92 243.17 837.284 241.5 839.034 240.205C840.784 238.909 842.818 237.92 845.136 237.239C847.477 236.557 850 236.114 852.704 235.909C855.636 235.682 857.988 235.409 859.761 235.091C861.556 234.75 862.852 234.284 863.647 233.693C864.443 233.08 864.841 232.273 864.841 231.273V231.136C864.841 229.773 864.318 228.727 863.272 228C862.227 227.273 860.886 226.909 859.25 226.909C857.454 226.909 855.988 227.307 854.852 228.102C853.738 228.875 853.068 230.068 852.841 231.682H835.522C835.75 228.5 836.761 225.568 838.556 222.886C840.375 220.182 843.022 218.023 846.5 216.409C849.977 214.773 854.318 213.955 859.522 213.955C863.272 213.955 866.636 214.398 869.613 215.284C872.591 216.148 875.125 217.364 877.216 218.932C879.306 220.477 880.897 222.295 881.988 224.386C883.102 226.455 883.659 228.705 883.659 231.136V267H866.068V259.636H865.659C864.613 261.591 863.341 263.17 861.841 264.375C860.363 265.58 858.67 266.455 856.761 267C854.875 267.545 852.795 267.818 850.522 267.818ZM856.659 255.955C858.091 255.955 859.431 255.659 860.681 255.068C861.954 254.477 862.988 253.625 863.784 252.511C864.579 251.398 864.977 250.045 864.977 248.455V244.091C864.477 244.295 863.943 244.489 863.375 244.67C862.829 244.852 862.238 245.023 861.602 245.182C860.988 245.341 860.329 245.489 859.625 245.625C858.943 245.761 858.227 245.886 857.477 246C856.022 246.227 854.829 246.602 853.897 247.125C852.988 247.625 852.306 248.25 851.852 249C851.42 249.727 851.204 250.545 851.204 251.455C851.204 252.909 851.716 254.023 852.738 254.795C853.761 255.568 855.068 255.955 856.659 255.955ZM895.53 267V214.636H913.803V224.591H914.348C915.303 220.909 916.814 218.216 918.883 216.511C920.973 214.807 923.417 213.955 926.212 213.955C927.03 213.955 927.837 214.023 928.633 214.159C929.451 214.273 930.235 214.443 930.985 214.67V230.727C930.053 230.409 928.905 230.17 927.542 230.011C926.178 229.852 925.008 229.773 924.03 229.773C922.189 229.773 920.53 230.193 919.053 231.034C917.598 231.852 916.451 233.011 915.61 234.511C914.769 235.989 914.348 237.727 914.348 239.727V267H895.53ZM939.763 267V197.182H958.717V251.727H986.944V267H939.763ZM997.759 267V214.636H1016.58V267H997.759ZM1007.17 209.182C1004.62 209.182 1002.44 208.341 1000.62 206.659C998.804 204.977 997.895 202.955 997.895 200.591C997.895 198.227 998.804 196.205 1000.62 194.523C1002.44 192.841 1004.62 192 1007.17 192C1009.74 192 1011.92 192.841 1013.71 194.523C1015.53 196.205 1016.44 198.227 1016.44 200.591C1016.44 202.955 1015.53 204.977 1013.71 206.659C1011.92 208.341 1009.74 209.182 1007.17 209.182ZM1047.86 237.545V267H1029.05V214.636H1046.91V224.591H1047.45C1048.59 221.273 1050.59 218.67 1053.45 216.784C1056.34 214.898 1059.7 213.955 1063.55 213.955C1067.25 213.955 1070.47 214.807 1073.19 216.511C1075.94 218.193 1078.07 220.511 1079.57 223.466C1081.09 226.42 1081.84 229.795 1081.82 233.591V267H1063V237.545C1063.02 234.955 1062.36 232.92 1061.02 231.443C1059.7 229.966 1057.86 229.227 1055.5 229.227C1053.95 229.227 1052.6 229.568 1051.44 230.25C1050.31 230.909 1049.43 231.864 1048.82 233.114C1048.2 234.341 1047.89 235.818 1047.86 237.545ZM1125.22 214.636V228.273H1090.72V214.636H1125.22ZM1097.4 202.091H1116.22V250.159C1116.22 250.886 1116.34 251.5 1116.59 252C1116.84 252.477 1117.23 252.841 1117.75 253.091C1118.27 253.318 1118.94 253.432 1119.76 253.432C1120.33 253.432 1120.99 253.364 1121.74 253.227C1122.51 253.091 1123.08 252.977 1123.44 252.886L1126.17 266.114C1125.33 266.364 1124.12 266.67 1122.56 267.034C1121.01 267.398 1119.17 267.636 1117.03 267.75C1112.72 267.977 1109.09 267.534 1106.16 266.42C1103.23 265.284 1101.02 263.5 1099.54 261.068C1098.07 258.636 1097.35 255.591 1097.4 251.932V202.091ZM1176.46 197.182V267H1157.51V197.182H1176.46ZM1207.41 237.545V267H1188.6V214.636H1206.46V224.591H1207.01C1208.14 221.273 1210.14 218.67 1213.01 216.784C1215.89 214.898 1219.26 213.955 1223.1 213.955C1226.8 213.955 1230.02 214.807 1232.74 216.511C1235.49 218.193 1237.62 220.511 1239.12 223.466C1240.64 226.42 1241.39 229.795 1241.37 233.591V267H1222.55V237.545C1222.57 234.955 1221.91 232.92 1220.57 231.443C1219.26 229.966 1217.41 229.227 1215.05 229.227C1213.51 229.227 1212.15 229.568 1210.99 230.25C1209.86 230.909 1208.98 231.864 1208.37 233.114C1207.76 234.341 1207.44 235.818 1207.41 237.545ZM127.591 317.182L141.909 366.409H142.455L156.773 317.182H178.182L155.136 387H129.227L106.182 317.182H127.591ZM225.423 339C225.241 336.727 224.389 334.955 222.866 333.682C221.366 332.409 219.082 331.773 216.014 331.773C214.059 331.773 212.457 332.011 211.207 332.489C209.979 332.943 209.07 333.568 208.479 334.364C207.889 335.159 207.582 336.068 207.559 337.091C207.514 337.932 207.661 338.693 208.002 339.375C208.366 340.034 208.934 340.636 209.707 341.182C210.479 341.705 211.468 342.182 212.673 342.614C213.877 343.045 215.309 343.432 216.968 343.773L222.695 345C226.559 345.818 229.866 346.898 232.616 348.239C235.366 349.58 237.616 351.159 239.366 352.977C241.116 354.773 242.4 356.795 243.218 359.045C244.059 361.295 244.491 363.75 244.514 366.409C244.491 371 243.343 374.886 241.07 378.068C238.798 381.25 235.548 383.67 231.32 385.33C227.116 386.989 222.059 387.818 216.15 387.818C210.082 387.818 204.786 386.92 200.264 385.125C195.764 383.33 192.264 380.568 189.764 376.841C187.286 373.091 186.036 368.295 186.014 362.455H204.014C204.127 364.591 204.661 366.386 205.616 367.841C206.57 369.295 207.911 370.398 209.639 371.148C211.389 371.898 213.468 372.273 215.877 372.273C217.9 372.273 219.593 372.023 220.957 371.523C222.32 371.023 223.354 370.33 224.059 369.443C224.764 368.557 225.127 367.545 225.15 366.409C225.127 365.341 224.775 364.409 224.093 363.614C223.434 362.795 222.343 362.068 220.82 361.432C219.298 360.773 217.241 360.159 214.65 359.591L207.695 358.091C201.514 356.75 196.639 354.511 193.07 351.375C189.525 348.216 187.764 343.909 187.786 338.455C187.764 334.023 188.945 330.148 191.332 326.83C193.741 323.489 197.07 320.886 201.32 319.023C205.593 317.159 210.491 316.227 216.014 316.227C221.65 316.227 226.525 317.17 230.639 319.057C234.752 320.943 237.923 323.602 240.15 327.034C242.4 330.443 243.536 334.432 243.559 339H225.423ZM341.791 343.364H322.563C322.427 341.773 322.063 340.33 321.472 339.034C320.904 337.739 320.109 336.625 319.086 335.693C318.086 334.739 316.87 334.011 315.438 333.511C314.006 332.989 312.381 332.727 310.563 332.727C307.381 332.727 304.688 333.5 302.484 335.045C300.302 336.591 298.643 338.807 297.506 341.693C296.393 344.58 295.836 348.045 295.836 352.091C295.836 356.364 296.404 359.943 297.541 362.83C298.7 365.693 300.37 367.852 302.552 369.307C304.734 370.739 307.359 371.455 310.427 371.455C312.177 371.455 313.745 371.239 315.131 370.807C316.518 370.352 317.722 369.705 318.745 368.864C319.768 368.023 320.597 367.011 321.234 365.83C321.893 364.625 322.336 363.273 322.563 361.773L341.791 361.909C341.563 364.864 340.734 367.875 339.302 370.943C337.87 373.989 335.836 376.807 333.2 379.398C330.586 381.966 327.347 384.034 323.484 385.602C319.62 387.17 315.131 387.955 310.018 387.955C303.609 387.955 297.859 386.58 292.768 383.83C287.7 381.08 283.688 377.034 280.734 371.693C277.802 366.352 276.336 359.818 276.336 352.091C276.336 344.318 277.836 337.773 280.836 332.455C283.836 327.114 287.881 323.08 292.972 320.352C298.063 317.602 303.745 316.227 310.018 316.227C314.427 316.227 318.484 316.83 322.188 318.034C325.893 319.239 329.143 321 331.938 323.318C334.734 325.614 336.984 328.443 338.688 331.807C340.393 335.17 341.427 339.023 341.791 343.364ZM378.77 387.955C373.088 387.955 368.225 386.83 364.179 384.58C360.134 382.307 357.031 379.148 354.872 375.102C352.713 371.034 351.634 366.318 351.634 360.955C351.634 355.591 352.713 350.886 354.872 346.841C357.031 342.773 360.134 339.614 364.179 337.364C368.225 335.091 373.088 333.955 378.77 333.955C384.452 333.955 389.315 335.091 393.361 337.364C397.406 339.614 400.509 342.773 402.668 346.841C404.827 350.886 405.906 355.591 405.906 360.955C405.906 366.318 404.827 371.034 402.668 375.102C400.509 379.148 397.406 382.307 393.361 384.58C389.315 386.83 384.452 387.955 378.77 387.955ZM378.906 374.045C380.497 374.045 381.872 373.511 383.031 372.443C384.19 371.375 385.088 369.852 385.725 367.875C386.361 365.898 386.679 363.545 386.679 360.818C386.679 358.068 386.361 355.716 385.725 353.761C385.088 351.784 384.19 350.261 383.031 349.193C381.872 348.125 380.497 347.591 378.906 347.591C377.225 347.591 375.781 348.125 374.577 349.193C373.372 350.261 372.452 351.784 371.815 353.761C371.179 355.716 370.861 358.068 370.861 360.818C370.861 363.545 371.179 365.898 371.815 367.875C372.452 369.852 373.372 371.375 374.577 372.443C375.781 373.511 377.225 374.045 378.906 374.045ZM435.377 387.682C431.65 387.682 428.218 386.705 425.082 384.75C421.968 382.795 419.468 379.83 417.582 375.852C415.718 371.875 414.786 366.864 414.786 360.818C414.786 354.5 415.764 349.364 417.718 345.409C419.695 341.455 422.241 338.557 425.355 336.716C428.491 334.875 431.786 333.955 435.241 333.955C437.832 333.955 440.105 334.409 442.059 335.318C444.014 336.205 445.65 337.398 446.968 338.898C448.286 340.375 449.286 342 449.968 343.773H450.241V317.182H469.059V387H450.377V378.409H449.968C449.241 380.182 448.195 381.773 446.832 383.182C445.491 384.568 443.855 385.67 441.923 386.489C440.014 387.284 437.832 387.682 435.377 387.682ZM442.332 373.227C444.059 373.227 445.536 372.727 446.764 371.727C448.014 370.705 448.968 369.273 449.627 367.432C450.309 365.568 450.65 363.364 450.65 360.818C450.65 358.227 450.309 356.011 449.627 354.17C448.968 352.307 448.014 350.886 446.764 349.909C445.536 348.909 444.059 348.409 442.332 348.409C440.605 348.409 439.127 348.909 437.9 349.909C436.695 350.886 435.764 352.307 435.105 354.17C434.468 356.011 434.15 358.227 434.15 360.818C434.15 363.409 434.468 365.636 435.105 367.5C435.764 369.341 436.695 370.761 437.9 371.761C439.127 372.739 440.605 373.227 442.332 373.227ZM506.269 387.955C500.678 387.955 495.86 386.886 491.814 384.75C487.791 382.591 484.689 379.5 482.507 375.477C480.348 371.432 479.269 366.591 479.269 360.955C479.269 355.545 480.36 350.818 482.541 346.773C484.723 342.727 487.803 339.58 491.78 337.33C495.757 335.08 500.45 333.955 505.86 333.955C509.814 333.955 513.394 334.568 516.598 335.795C519.803 337.023 522.541 338.807 524.814 341.148C527.087 343.466 528.837 346.284 530.064 349.602C531.291 352.92 531.905 356.659 531.905 360.818V365.182H485.132V354.818H514.587C514.564 353.318 514.178 352 513.428 350.864C512.7 349.705 511.712 348.807 510.462 348.17C509.235 347.511 507.837 347.182 506.269 347.182C504.746 347.182 503.348 347.511 502.075 348.17C500.803 348.807 499.78 349.693 499.007 350.83C498.257 351.966 497.86 353.295 497.814 354.818V366C497.814 367.682 498.166 369.182 498.871 370.5C499.575 371.818 500.587 372.852 501.905 373.602C503.223 374.352 504.814 374.727 506.678 374.727C507.973 374.727 509.155 374.545 510.223 374.182C511.314 373.818 512.246 373.295 513.019 372.614C513.791 371.909 514.36 371.068 514.723 370.091H531.905C531.314 373.727 529.916 376.886 527.712 379.568C525.507 382.227 522.587 384.295 518.95 385.773C515.337 387.227 511.11 387.955 506.269 387.955Z" fill="white"/>
<path d="M1023.7 674.308V769.591L1109.64 820.849L1194.5 770.065V674.071L1109.64 623.316L1023.7 674.308Z" fill="white" fill-opacity="0.15" stroke="white" stroke-width="4"/>
<path d="M1188.55 676.752V767.621L1108.91 815.099L1029.27 767.621V676.752L1108.91 629.273L1188.55 676.752ZM1115.55 617.778C1113.53 616.613 1111.24 616 1108.91 616C1106.58 616 1104.29 616.613 1102.28 617.778L1022.64 665.257C1020.62 666.422 1018.94 668.097 1017.78 670.115C1016.61 672.133 1016 674.422 1016 676.752V767.621C1016 769.951 1016.61 772.24 1017.78 774.257C1018.94 776.275 1020.62 777.951 1022.64 779.115L1102.28 826.594C1104.29 827.759 1106.58 828.372 1108.91 828.372C1111.24 828.372 1113.53 827.759 1115.55 826.594L1195.19 779.115C1197.21 777.951 1198.88 776.275 1200.05 774.257C1201.21 772.24 1201.83 769.951 1201.83 767.621V676.752C1201.83 674.422 1201.21 672.133 1200.05 670.115C1198.88 668.097 1197.21 666.422 1195.19 665.257L1115.55 617.778Z" fill="white" fill-opacity="0.15"/>
<g opacity="0.8">
<path d="M1105.62 775.372L1059.3 748.826V695.732L1105.62 722.279V775.372Z" fill="white"/>
<path d="M1151.95 748.826L1105.62 775.372V722.279L1151.95 695.732V748.826Z" fill="#EBEBEB"/>
<path d="M1105.62 721.744L1059.3 695.333L1105.62 668.922L1151.94 695.333L1105.62 721.744Z" fill="#FBFBFB"/>
<path d="M1105.62 721.896L1061.31 696.863L1059.3 698.011L1105.62 724.175L1151.94 698.011V695.732L1105.62 721.896Z" fill="white"/>
</g>
<path d="M743.656 951.692V1145.65L918.601 1249.99L1091.36 1146.62V951.209L918.601 847.893L743.656 951.692Z" fill="white" fill-opacity="0.15" stroke="white" stroke-width="4"/>
<path d="M1079.25 956.667V1141.64L917.136 1238.29L755.019 1141.64V956.667L917.136 860.019L1079.25 956.667ZM930.646 836.62C926.538 834.248 921.879 833 917.136 833C912.393 833 907.734 834.248 903.626 836.62L741.51 933.268C737.402 935.64 733.992 939.051 731.62 943.158C729.249 947.265 728 951.925 728 956.667V1141.64C728 1146.39 729.249 1151.04 731.62 1155.15C733.992 1159.26 737.402 1162.67 741.51 1165.04L903.626 1261.69C907.734 1264.06 912.393 1265.31 917.136 1265.31C921.879 1265.31 926.538 1264.06 930.646 1261.69L1092.76 1165.04C1096.87 1162.67 1100.28 1159.26 1102.65 1155.15C1105.02 1151.04 1106.27 1146.39 1106.27 1141.64V956.667C1106.27 951.925 1105.02 947.265 1102.65 943.158C1100.28 939.051 1096.87 935.64 1092.76 933.268L930.646 836.62Z" fill="white" fill-opacity="0.15"/>
<path d="M866.358 1052.84L866.34 1052.87L866.326 1052.9L866.782 1053.1L866.326 1052.9L866.326 1052.9L866.325 1052.9L866.325 1052.9L866.321 1052.91L866.305 1052.94L866.246 1053.08C866.194 1053.19 866.119 1053.35 866.026 1053.56C865.841 1053.96 865.584 1054.52 865.298 1055.11C864.733 1056.3 864.075 1057.61 863.641 1058.27C863.401 1058.51 863.146 1058.79 862.891 1059.08C862.781 1059.2 862.672 1059.32 862.564 1059.44C862.18 1059.86 861.805 1060.25 861.44 1060.53C861.066 1060.83 860.766 1060.96 860.535 1060.98C860.353 1060.99 860.131 1060.92 859.865 1060.57C858.864 1059.17 858.93 1057.08 859.384 1054.98C859.607 1053.95 859.915 1052.96 860.199 1052.1C860.277 1051.86 860.355 1051.63 860.429 1051.42C860.602 1050.9 860.755 1050.45 860.846 1050.11C861.325 1049.37 861.89 1048.12 862.33 1047.08C862.56 1046.53 862.761 1046.03 862.905 1045.66C862.977 1045.48 863.034 1045.33 863.074 1045.22L863.12 1045.1L863.131 1045.08C864.038 1043.03 865.153 1040.81 866.638 1039.11C868.118 1037.41 869.932 1036.25 872.253 1036.25C874.567 1036.25 876.266 1037.4 877.693 1039.1C878.896 1040.54 879.868 1042.32 880.829 1044.08C881.018 1044.43 881.207 1044.77 881.397 1045.12C882.307 1047.16 883.13 1048.7 884.04 1049.72C884.975 1050.78 886.02 1051.32 887.329 1051.32C888.672 1051.32 889.712 1050.63 890.622 1049.54C891.52 1048.46 892.341 1046.93 893.253 1045.11L893.259 1045.1L893.263 1045.09C894.172 1043.04 895.288 1040.82 896.776 1039.11C898.257 1037.41 900.07 1036.25 902.392 1036.25C904.705 1036.25 906.404 1037.4 907.831 1039.1C909.035 1040.54 910.006 1042.32 910.967 1044.08C911.156 1044.43 911.345 1044.77 911.536 1045.12C912.446 1047.16 913.269 1048.7 914.178 1049.72C915.114 1050.78 916.159 1051.32 917.467 1051.32C918.81 1051.32 919.85 1050.63 920.761 1049.54C921.658 1048.46 922.48 1046.93 923.392 1045.11L923.397 1045.1L923.402 1045.09C924.31 1043.04 925.426 1040.82 926.915 1039.11C928.395 1037.41 930.209 1036.25 932.53 1036.25C934.844 1036.25 936.545 1037.4 937.973 1039.1C939.181 1040.54 940.155 1042.33 941.119 1044.09C941.306 1044.43 941.493 1044.78 941.681 1045.12C942.59 1047.16 943.412 1048.7 944.32 1049.72C945.254 1050.78 946.297 1051.32 947.606 1051.32C948.946 1051.32 949.985 1050.63 950.896 1049.54C951.794 1048.46 952.615 1046.93 953.524 1045.11L953.529 1045.1L953.533 1045.09C954.445 1043.04 955.565 1040.82 957.055 1039.11C958.538 1037.41 960.354 1036.25 962.675 1036.25C964.989 1036.25 966.688 1037.4 968.115 1039.1C969.317 1040.53 970.287 1042.31 971.247 1044.07C971.437 1044.41 971.627 1044.76 971.818 1045.11L971.823 1045.12L971.87 1045.23C971.911 1045.32 971.971 1045.46 972.049 1045.65C972.206 1046.01 972.434 1046.54 972.719 1047.2C973.288 1048.51 974.085 1050.33 974.999 1052.39C975.881 1054.6 976.211 1057.03 976.101 1058.89C976.045 1059.83 975.881 1060.59 975.646 1061.09C975.404 1061.62 975.162 1061.73 974.999 1061.73C974.702 1061.73 974.325 1061.58 973.881 1061.25C973.447 1060.92 973.006 1060.47 972.591 1059.97C971.762 1058.98 971.097 1057.87 970.883 1057.44L970.875 1057.43L970.866 1057.41C970.186 1056.28 969.619 1055.26 969.221 1054.52C969.023 1054.15 968.867 1053.86 968.761 1053.65C968.708 1053.55 968.667 1053.47 968.64 1053.42L968.609 1053.36L968.605 1053.35C967.693 1051.3 966.871 1049.75 965.962 1048.72C965.028 1047.66 963.985 1047.12 962.675 1047.12C961.332 1047.12 960.289 1047.81 959.376 1048.9C958.476 1049.98 957.653 1051.52 956.744 1053.34L956.739 1053.35L956.734 1053.36C955.825 1055.41 954.71 1057.64 953.221 1059.35C951.741 1061.05 949.927 1062.2 947.606 1062.2C945.292 1062.2 943.593 1061.05 942.166 1059.35C940.963 1057.92 939.991 1056.14 939.03 1054.38C938.841 1054.03 938.652 1053.68 938.462 1053.34C937.552 1051.29 936.729 1049.75 935.82 1048.72C934.884 1047.66 933.84 1047.12 932.53 1047.12C931.187 1047.12 930.147 1047.81 929.237 1048.9C928.339 1049.98 927.517 1051.52 926.606 1053.34L926.6 1053.35L926.596 1053.36C925.687 1055.41 924.571 1057.64 923.083 1059.35C921.602 1061.05 919.789 1062.2 917.467 1062.2C915.154 1062.2 913.455 1061.05 912.028 1059.35C910.824 1057.92 909.853 1056.14 908.892 1054.38C908.702 1054.03 908.514 1053.68 908.323 1053.34C907.414 1051.29 906.591 1049.75 905.681 1048.72C904.746 1047.66 903.701 1047.12 902.392 1047.12C901.048 1047.12 900.008 1047.81 899.098 1048.9C898.201 1049.98 897.379 1051.52 896.467 1053.34L896.462 1053.35L896.457 1053.36C895.548 1055.41 894.433 1057.64 892.944 1059.35C891.464 1061.05 889.65 1062.2 887.329 1062.2C885.015 1062.2 883.314 1061.05 881.886 1059.35C880.678 1057.91 879.704 1056.13 878.74 1054.36C878.553 1054.02 878.366 1053.68 878.178 1053.34C877.269 1051.29 876.447 1049.75 875.54 1048.72C874.606 1047.66 873.563 1047.12 872.253 1047.12C870.935 1047.12 870.009 1047.67 869.141 1048.66C868.449 1049.45 867.759 1050.57 866.903 1051.96C866.729 1052.24 866.548 1052.53 866.358 1052.84ZM838.5 1049C838.5 1005.45 873.903 970.5 917 970.5C960.11 970.5 995.5 1005.45 995.5 1049C995.5 1092.11 960.108 1127.5 917 1127.5C873.897 1127.5 838.5 1092.57 838.5 1049ZM941.84 989.036C933.964 985.779 925.523 984.106 917 984.115C908.477 984.107 900.036 985.78 892.161 989.038C884.285 992.296 877.129 997.075 871.102 1003.1C865.075 1009.13 860.296 1016.28 857.038 1024.16C853.78 1032.04 852.107 1040.48 852.115 1049C852.106 1057.52 853.779 1065.96 857.036 1073.84C860.294 1081.72 865.073 1088.87 871.1 1094.9C877.127 1100.93 884.283 1105.71 892.16 1108.96C900.036 1112.22 908.477 1113.89 917 1113.89C925.524 1113.9 933.966 1112.22 941.842 1108.97C949.719 1105.71 956.877 1100.93 962.904 1094.9C968.931 1088.88 973.71 1081.72 976.967 1073.84C980.224 1065.97 981.895 1057.52 981.885 1049C981.894 1040.48 980.221 1032.04 976.964 1024.16C973.706 1016.28 968.927 1009.13 962.9 1003.1C956.873 997.073 949.717 992.294 941.84 989.036Z" fill="white" stroke="white"/>
<defs>
<filter id="filter0_d_3057_1406" x="64" y="464" width="711" height="212" filterUnits="userSpaceOnUse" color-interpolation-filters="sRGB">
<feFlood flood-opacity="0" result="BackgroundImageFix"/>
<feColorMatrix in="SourceAlpha" type="matrix" values="0 0 0 0 0 0 0 0 0 0 0 0 0 0 0 0 0 0 127 0" result="hardAlpha"/>
<feOffset dy="16"/>
<feGaussianBlur stdDeviation="20"/>
<feComposite in2="hardAlpha" operator="out"/>
<feColorMatrix type="matrix" values="0 0 0 0 0 0 0 0 0 0 0 0 0 0 0 0 0 0 0.05 0"/>
<feBlend mode="normal" in2="BackgroundImageFix" result="effect1_dropShadow_3057_1406"/>
<feBlend mode="normal" in="SourceGraphic" in2="effect1_dropShadow_3057_1406" result="shape"/>
</filter>
<radialGradient id="paint0_radial_3057_1406" cx="0" cy="0" r="1" gradientUnits="userSpaceOnUse" gradientTransform="translate(-355.2 -322.136) rotate(36.5012) scale(2238.73 3337.02)">
<stop offset="0.120942" stop-color="#321179"/>
<stop offset="1" stop-color="#160E2B"/>
</radialGradient>
</defs>
</svg>
