<svg width="1332" height="1332" viewBox="0 0 1332 1332" fill="none" xmlns="http://www.w3.org/2000/svg">
<rect width="1332" height="1332" fill="url(#paint0_radial_3057_1407)"/>
<g filter="url(#filter0_d_3057_1407)">
<rect x="104" y="488" width="631" height="132" rx="40" fill="white" shape-rendering="crispEdges"/>
<path d="M199.688 544.449H189.063C188.76 542.706 188.201 541.163 187.387 539.818C186.573 538.455 185.559 537.299 184.347 536.352C183.135 535.405 181.753 534.695 180.2 534.222C178.665 533.729 177.008 533.483 175.228 533.483C172.065 533.483 169.262 534.278 166.819 535.869C164.376 537.441 162.463 539.752 161.08 542.801C159.698 545.831 159.006 549.534 159.006 553.909C159.006 558.36 159.698 562.11 161.08 565.159C162.482 568.189 164.395 570.481 166.819 572.034C169.262 573.568 172.056 574.335 175.2 574.335C176.942 574.335 178.571 574.108 180.086 573.653C181.62 573.18 182.993 572.489 184.205 571.58C185.436 570.67 186.469 569.553 187.302 568.227C188.154 566.902 188.741 565.386 189.063 563.682L199.688 563.739C199.29 566.504 198.429 569.098 197.103 571.523C195.796 573.947 194.082 576.087 191.961 577.943C189.84 579.78 187.359 581.22 184.518 582.261C181.677 583.284 178.523 583.795 175.058 583.795C169.944 583.795 165.379 582.612 161.364 580.244C157.349 577.877 154.186 574.458 151.876 569.989C149.565 565.519 148.41 560.159 148.41 553.909C148.41 547.64 149.575 542.28 151.904 537.83C154.234 533.36 157.406 529.941 161.421 527.574C165.436 525.206 169.982 524.023 175.058 524.023C178.296 524.023 181.308 524.477 184.092 525.386C186.876 526.295 189.357 527.631 191.535 529.392C193.713 531.134 195.503 533.275 196.904 535.812C198.325 538.331 199.253 541.21 199.688 544.449ZM215.668 599.364C214.267 599.364 212.969 599.25 211.776 599.023C210.602 598.814 209.665 598.568 208.964 598.284L211.35 590.273C212.846 590.708 214.182 590.917 215.356 590.898C216.53 590.879 217.562 590.509 218.452 589.79C219.362 589.089 220.129 587.915 220.754 586.267L221.634 583.909L205.81 539.364H216.719L226.776 572.318H227.231L237.316 539.364H248.254L230.782 588.284C229.968 590.595 228.888 592.574 227.543 594.222C226.199 595.888 224.551 597.157 222.6 598.028C220.668 598.919 218.358 599.364 215.668 599.364ZM255.825 583V524.818H266.109V546.58H266.535C267.065 545.519 267.813 544.392 268.779 543.199C269.745 541.987 271.052 540.955 272.7 540.102C274.347 539.231 276.45 538.795 279.006 538.795C282.378 538.795 285.417 539.657 288.126 541.381C290.853 543.085 293.012 545.614 294.603 548.966C296.213 552.299 297.018 556.39 297.018 561.239C297.018 566.03 296.232 570.102 294.66 573.455C293.088 576.807 290.948 579.364 288.239 581.125C285.531 582.886 282.463 583.767 279.035 583.767C276.535 583.767 274.461 583.35 272.813 582.517C271.165 581.684 269.84 580.68 268.836 579.506C267.851 578.312 267.084 577.186 266.535 576.125H265.938V583H255.825ZM265.91 561.182C265.91 564.004 266.308 566.475 267.103 568.597C267.917 570.718 269.082 572.375 270.597 573.568C272.131 574.742 273.987 575.33 276.165 575.33C278.438 575.33 280.342 574.723 281.876 573.511C283.41 572.28 284.565 570.604 285.342 568.483C286.137 566.343 286.535 563.909 286.535 561.182C286.535 558.473 286.147 556.068 285.37 553.966C284.594 551.864 283.438 550.216 281.904 549.023C280.37 547.83 278.457 547.233 276.165 547.233C273.969 547.233 272.103 547.811 270.569 548.966C269.035 550.121 267.87 551.741 267.075 553.824C266.298 555.907 265.91 558.36 265.91 561.182ZM325.079 583.852C320.704 583.852 316.925 582.943 313.744 581.125C310.581 579.288 308.147 576.693 306.442 573.341C304.738 569.97 303.886 566.002 303.886 561.438C303.886 556.949 304.738 553.009 306.442 549.619C308.166 546.21 310.571 543.559 313.658 541.665C316.746 539.752 320.372 538.795 324.539 538.795C327.228 538.795 329.766 539.231 332.153 540.102C334.558 540.955 336.679 542.28 338.516 544.08C340.372 545.879 341.831 548.17 342.891 550.955C343.952 553.72 344.482 557.015 344.482 560.841V563.994H308.715V557.062H334.624C334.605 555.093 334.179 553.341 333.346 551.807C332.513 550.254 331.348 549.032 329.852 548.142C328.374 547.252 326.651 546.807 324.681 546.807C322.579 546.807 320.732 547.318 319.141 548.341C317.55 549.345 316.31 550.67 315.42 552.318C314.549 553.947 314.103 555.737 314.085 557.688V563.739C314.085 566.277 314.549 568.455 315.477 570.273C316.405 572.072 317.702 573.455 319.369 574.42C321.035 575.367 322.986 575.841 325.221 575.841C326.717 575.841 328.071 575.633 329.283 575.216C330.496 574.78 331.547 574.146 332.437 573.312C333.327 572.479 333.999 571.447 334.454 570.216L344.056 571.295C343.45 573.833 342.295 576.049 340.59 577.943C338.905 579.818 336.746 581.277 334.113 582.318C331.48 583.341 328.469 583.852 325.079 583.852ZM353.183 583V539.364H363.154V546.636H363.609C364.404 544.117 365.768 542.176 367.7 540.812C369.65 539.43 371.876 538.739 374.376 538.739C374.944 538.739 375.578 538.767 376.279 538.824C376.999 538.862 377.595 538.928 378.069 539.023V548.483C377.633 548.331 376.942 548.199 375.995 548.085C375.067 547.953 374.167 547.886 373.296 547.886C371.421 547.886 369.736 548.294 368.239 549.108C366.762 549.903 365.597 551.011 364.745 552.432C363.893 553.852 363.467 555.491 363.467 557.347V583H353.183ZM419.39 550.898L410.015 551.92C409.75 550.973 409.286 550.083 408.623 549.25C407.979 548.417 407.108 547.744 406.009 547.233C404.911 546.722 403.566 546.466 401.975 546.466C399.835 546.466 398.036 546.93 396.577 547.858C395.138 548.786 394.428 549.989 394.447 551.466C394.428 552.735 394.892 553.767 395.839 554.562C396.805 555.358 398.396 556.011 400.612 556.523L408.055 558.114C412.183 559.004 415.252 560.415 417.259 562.347C419.286 564.278 420.308 566.807 420.327 569.932C420.308 572.678 419.504 575.102 417.913 577.205C416.341 579.288 414.153 580.917 411.35 582.091C408.547 583.265 405.327 583.852 401.691 583.852C396.35 583.852 392.051 582.735 388.793 580.5C385.536 578.246 383.594 575.112 382.969 571.097L392.998 570.131C393.452 572.1 394.418 573.587 395.896 574.591C397.373 575.595 399.295 576.097 401.663 576.097C404.106 576.097 406.066 575.595 407.543 574.591C409.04 573.587 409.788 572.347 409.788 570.869C409.788 569.619 409.305 568.587 408.339 567.773C407.392 566.958 405.915 566.333 403.907 565.898L396.464 564.335C392.278 563.464 389.182 561.996 387.174 559.932C385.166 557.848 384.172 555.216 384.191 552.034C384.172 549.345 384.901 547.015 386.379 545.045C387.875 543.057 389.949 541.523 392.6 540.443C395.271 539.345 398.348 538.795 401.833 538.795C406.947 538.795 410.971 539.884 413.907 542.062C416.862 544.241 418.689 547.186 419.39 550.898ZM448.126 583.852C443.751 583.852 439.972 582.943 436.79 581.125C433.628 579.288 431.194 576.693 429.489 573.341C427.785 569.97 426.933 566.002 426.933 561.438C426.933 556.949 427.785 553.009 429.489 549.619C431.213 546.21 433.618 543.559 436.705 541.665C439.792 539.752 443.419 538.795 447.586 538.795C450.275 538.795 452.813 539.231 455.2 540.102C457.605 540.955 459.726 542.28 461.563 544.08C463.419 545.879 464.878 548.17 465.938 550.955C466.999 553.72 467.529 557.015 467.529 560.841V563.994H431.762V557.062H457.671C457.652 555.093 457.226 553.341 456.393 551.807C455.559 550.254 454.395 549.032 452.898 548.142C451.421 547.252 449.698 546.807 447.728 546.807C445.626 546.807 443.779 547.318 442.188 548.341C440.597 549.345 439.357 550.67 438.467 552.318C437.595 553.947 437.15 555.737 437.131 557.688V563.739C437.131 566.277 437.595 568.455 438.523 570.273C439.451 572.072 440.749 573.455 442.415 574.42C444.082 575.367 446.033 575.841 448.268 575.841C449.764 575.841 451.118 575.633 452.33 575.216C453.542 574.78 454.594 574.146 455.484 573.312C456.374 572.479 457.046 571.447 457.501 570.216L467.103 571.295C466.497 573.833 465.342 576.049 463.637 577.943C461.951 579.818 459.792 581.277 457.16 582.318C454.527 583.341 451.516 583.852 448.126 583.852ZM495.263 583.852C490.907 583.852 487.167 582.896 484.042 580.983C480.936 579.07 478.54 576.428 476.854 573.057C475.188 569.667 474.354 565.765 474.354 561.352C474.354 556.92 475.207 553.009 476.911 549.619C478.616 546.21 481.021 543.559 484.127 541.665C487.252 539.752 490.945 538.795 495.207 538.795C498.748 538.795 501.883 539.449 504.61 540.756C507.356 542.044 509.544 543.871 511.173 546.239C512.801 548.587 513.729 551.333 513.957 554.477H504.127C503.729 552.375 502.782 550.623 501.286 549.222C499.809 547.801 497.83 547.091 495.349 547.091C493.246 547.091 491.4 547.659 489.809 548.795C488.218 549.913 486.978 551.523 486.087 553.625C485.216 555.727 484.781 558.246 484.781 561.182C484.781 564.155 485.216 566.712 486.087 568.852C486.959 570.973 488.18 572.612 489.752 573.767C491.343 574.903 493.209 575.472 495.349 575.472C496.864 575.472 498.218 575.187 499.411 574.619C500.623 574.032 501.637 573.189 502.451 572.091C503.265 570.992 503.824 569.657 504.127 568.085H513.957C513.71 571.172 512.801 573.909 511.229 576.295C509.657 578.663 507.517 580.519 504.809 581.864C502.101 583.189 498.919 583.852 495.263 583.852ZM550.214 564.648V539.364H560.498V583H550.526V575.244H550.072C549.087 577.687 547.468 579.686 545.214 581.239C542.979 582.792 540.223 583.568 536.947 583.568C534.087 583.568 531.558 582.934 529.362 581.665C527.183 580.377 525.479 578.511 524.248 576.068C523.017 573.606 522.401 570.633 522.401 567.148V539.364H532.685V565.557C532.685 568.322 533.443 570.519 534.958 572.148C536.473 573.777 538.462 574.591 540.924 574.591C542.439 574.591 543.907 574.222 545.327 573.483C546.748 572.744 547.913 571.646 548.822 570.188C549.75 568.71 550.214 566.864 550.214 564.648ZM571.073 583V539.364H581.045V546.636H581.499C582.295 544.117 583.658 542.176 585.59 540.812C587.541 539.43 589.766 538.739 592.266 538.739C592.835 538.739 593.469 538.767 594.17 538.824C594.889 538.862 595.486 538.928 595.96 539.023V548.483C595.524 548.331 594.833 548.199 593.886 548.085C592.958 547.953 592.058 547.886 591.187 547.886C589.312 547.886 587.626 548.294 586.13 549.108C584.653 549.903 583.488 551.011 582.636 552.432C581.783 553.852 581.357 555.491 581.357 557.347V583H571.073ZM602.792 583V539.364H613.076V583H602.792ZM607.962 533.17C606.334 533.17 604.932 532.631 603.758 531.551C602.584 530.453 601.996 529.136 601.996 527.602C601.996 526.049 602.584 524.733 603.758 523.653C604.932 522.555 606.334 522.006 607.962 522.006C609.61 522.006 611.012 522.555 612.167 523.653C613.341 524.733 613.928 526.049 613.928 527.602C613.928 529.136 613.341 530.453 612.167 531.551C611.012 532.631 609.61 533.17 607.962 533.17ZM645.441 539.364V547.318H620.356V539.364H645.441ZM626.549 528.909H636.833V569.875C636.833 571.258 637.041 572.318 637.458 573.057C637.894 573.777 638.462 574.269 639.163 574.534C639.863 574.799 640.64 574.932 641.492 574.932C642.136 574.932 642.723 574.884 643.254 574.79C643.803 574.695 644.219 574.61 644.504 574.534L646.237 582.574C645.687 582.763 644.901 582.972 643.879 583.199C642.875 583.426 641.644 583.559 640.185 583.597C637.61 583.672 635.29 583.284 633.225 582.432C631.161 581.561 629.522 580.216 628.31 578.398C627.117 576.58 626.53 574.307 626.549 571.58V528.909ZM660.434 599.364C659.032 599.364 657.735 599.25 656.542 599.023C655.368 598.814 654.43 598.568 653.729 598.284L656.116 590.273C657.612 590.708 658.947 590.917 660.121 590.898C661.296 590.879 662.328 590.509 663.218 589.79C664.127 589.089 664.894 587.915 665.519 586.267L666.4 583.909L650.576 539.364H661.485L671.542 572.318H671.996L682.082 539.364H693.019L675.548 588.284C674.733 590.595 673.654 592.574 672.309 594.222C670.964 595.888 669.317 597.157 667.366 598.028C665.434 598.919 663.123 599.364 660.434 599.364Z" fill="#428DFF"/>
</g>
<path d="M127.455 197.182V267H108.5V197.182H127.455ZM206.954 232.091C206.954 239.864 205.443 246.42 202.42 251.761C199.397 257.08 195.318 261.114 190.181 263.864C185.045 266.591 179.318 267.955 172.999 267.955C166.636 267.955 160.886 266.58 155.749 263.83C150.636 261.057 146.568 257.011 143.545 251.693C140.545 246.352 139.045 239.818 139.045 232.091C139.045 224.318 140.545 217.773 143.545 212.455C146.568 207.114 150.636 203.08 155.749 200.352C160.886 197.602 166.636 196.227 172.999 196.227C179.318 196.227 185.045 197.602 190.181 200.352C195.318 203.08 199.397 207.114 202.42 212.455C205.443 217.773 206.954 224.318 206.954 232.091ZM187.454 232.091C187.454 227.909 186.897 224.386 185.783 221.523C184.693 218.636 183.068 216.455 180.908 214.977C178.772 213.477 176.136 212.727 172.999 212.727C169.863 212.727 167.215 213.477 165.056 214.977C162.92 216.455 161.295 218.636 160.181 221.523C159.09 224.386 158.545 227.909 158.545 232.091C158.545 236.273 159.09 239.807 160.181 242.693C161.295 245.557 162.92 247.739 165.056 249.239C167.215 250.716 169.863 251.455 172.999 251.455C176.136 251.455 178.772 250.716 180.908 249.239C183.068 247.739 184.693 245.557 185.783 242.693C186.897 239.807 187.454 236.273 187.454 232.091ZM256.24 219C256.058 216.727 255.206 214.955 253.683 213.682C252.183 212.409 249.899 211.773 246.831 211.773C244.876 211.773 243.274 212.011 242.024 212.489C240.797 212.943 239.888 213.568 239.297 214.364C238.706 215.159 238.399 216.068 238.376 217.091C238.331 217.932 238.479 218.693 238.82 219.375C239.183 220.034 239.751 220.636 240.524 221.182C241.297 221.705 242.286 222.182 243.49 222.614C244.695 223.045 246.126 223.432 247.786 223.773L253.513 225C257.376 225.818 260.683 226.898 263.433 228.239C266.183 229.58 268.433 231.159 270.183 232.977C271.933 234.773 273.217 236.795 274.036 239.045C274.876 241.295 275.308 243.75 275.331 246.409C275.308 251 274.161 254.886 271.888 258.068C269.615 261.25 266.365 263.67 262.138 265.33C257.933 266.989 252.876 267.818 246.967 267.818C240.899 267.818 235.604 266.92 231.081 265.125C226.581 263.33 223.081 260.568 220.581 256.841C218.104 253.091 216.854 248.295 216.831 242.455H234.831C234.945 244.591 235.479 246.386 236.433 247.841C237.388 249.295 238.729 250.398 240.456 251.148C242.206 251.898 244.286 252.273 246.695 252.273C248.717 252.273 250.411 252.023 251.774 251.523C253.138 251.023 254.172 250.33 254.876 249.443C255.581 248.557 255.945 247.545 255.967 246.409C255.945 245.341 255.592 244.409 254.911 243.614C254.251 242.795 253.161 242.068 251.638 241.432C250.115 240.773 248.058 240.159 245.467 239.591L238.513 238.091C232.331 236.75 227.456 234.511 223.888 231.375C220.342 228.216 218.581 223.909 218.604 218.455C218.581 214.023 219.763 210.148 222.149 206.83C224.558 203.489 227.888 200.886 232.138 199.023C236.411 197.159 241.308 196.227 246.831 196.227C252.467 196.227 257.342 197.17 261.456 199.057C265.57 200.943 268.74 203.602 270.967 207.034C273.217 210.443 274.354 214.432 274.376 219H256.24ZM307.426 267V197.182H356.517V212.455H326.381V224.455H353.517V239.727H326.381V267H307.426ZM388.025 267.955C382.343 267.955 377.48 266.83 373.434 264.58C369.389 262.307 366.286 259.148 364.127 255.102C361.968 251.034 360.889 246.318 360.889 240.955C360.889 235.591 361.968 230.886 364.127 226.841C366.286 222.773 369.389 219.614 373.434 217.364C377.48 215.091 382.343 213.955 388.025 213.955C393.707 213.955 398.57 215.091 402.616 217.364C406.661 219.614 409.764 222.773 411.923 226.841C414.082 230.886 415.161 235.591 415.161 240.955C415.161 246.318 414.082 251.034 411.923 255.102C409.764 259.148 406.661 262.307 402.616 264.58C398.57 266.83 393.707 267.955 388.025 267.955ZM388.161 254.045C389.752 254.045 391.127 253.511 392.286 252.443C393.445 251.375 394.343 249.852 394.98 247.875C395.616 245.898 395.934 243.545 395.934 240.818C395.934 238.068 395.616 235.716 394.98 233.761C394.343 231.784 393.445 230.261 392.286 229.193C391.127 228.125 389.752 227.591 388.161 227.591C386.48 227.591 385.036 228.125 383.832 229.193C382.627 230.261 381.707 231.784 381.07 233.761C380.434 235.716 380.116 238.068 380.116 240.818C380.116 243.545 380.434 245.898 381.07 247.875C381.707 249.852 382.627 251.375 383.832 252.443C385.036 253.511 386.48 254.045 388.161 254.045ZM425.678 267V214.636H443.95V224.591H444.496C445.45 220.909 446.962 218.216 449.03 216.511C451.121 214.807 453.564 213.955 456.36 213.955C457.178 213.955 457.985 214.023 458.78 214.159C459.598 214.273 460.382 214.443 461.132 214.67V230.727C460.2 230.409 459.053 230.17 457.689 230.011C456.325 229.852 455.155 229.773 454.178 229.773C452.337 229.773 450.678 230.193 449.2 231.034C447.746 231.852 446.598 233.011 445.757 234.511C444.916 235.989 444.496 237.727 444.496 239.727V267H425.678ZM492.274 267.955C486.683 267.955 481.865 266.886 477.819 264.75C473.796 262.591 470.694 259.5 468.512 255.477C466.353 251.432 465.274 246.591 465.274 240.955C465.274 235.545 466.365 230.818 468.546 226.773C470.728 222.727 473.808 219.58 477.785 217.33C481.762 215.08 486.455 213.955 491.865 213.955C495.819 213.955 499.399 214.568 502.603 215.795C505.808 217.023 508.546 218.807 510.819 221.148C513.092 223.466 514.842 226.284 516.069 229.602C517.296 232.92 517.91 236.659 517.91 240.818V245.182H471.137V234.818H500.592C500.569 233.318 500.183 232 499.433 230.864C498.705 229.705 497.717 228.807 496.467 228.17C495.24 227.511 493.842 227.182 492.274 227.182C490.751 227.182 489.353 227.511 488.08 228.17C486.808 228.807 485.785 229.693 485.012 230.83C484.262 231.966 483.865 233.295 483.819 234.818V246C483.819 247.682 484.171 249.182 484.876 250.5C485.58 251.818 486.592 252.852 487.91 253.602C489.228 254.352 490.819 254.727 492.683 254.727C493.978 254.727 495.16 254.545 496.228 254.182C497.319 253.818 498.251 253.295 499.024 252.614C499.796 251.909 500.365 251.068 500.728 250.091H517.91C517.319 253.727 515.921 256.886 513.717 259.568C511.512 262.227 508.592 264.295 504.955 265.773C501.342 267.227 497.115 267.955 492.274 267.955ZM547.287 237.545V267H528.469V214.636H546.333V224.591H546.878C548.014 221.273 550.014 218.67 552.878 216.784C555.764 214.898 559.128 213.955 562.969 213.955C566.674 213.955 569.889 214.807 572.617 216.511C575.367 218.193 577.492 220.511 578.992 223.466C580.514 226.42 581.264 229.795 581.242 233.591V267H562.424V237.545C562.446 234.955 561.787 232.92 560.446 231.443C559.128 229.966 557.287 229.227 554.924 229.227C553.378 229.227 552.026 229.568 550.867 230.25C549.73 230.909 548.855 231.864 548.242 233.114C547.628 234.341 547.31 235.818 547.287 237.545ZM641.275 231.682H623.957C623.866 230.614 623.491 229.693 622.832 228.92C622.173 228.148 621.321 227.557 620.275 227.148C619.252 226.716 618.116 226.5 616.866 226.5C615.252 226.5 613.866 226.795 612.707 227.386C611.548 227.977 610.98 228.818 611.002 229.909C610.98 230.682 611.309 231.398 611.991 232.057C612.696 232.716 614.048 233.227 616.048 233.591L626.684 235.5C632.048 236.477 636.036 238.125 638.65 240.443C641.286 242.739 642.616 245.818 642.639 249.682C642.616 253.409 641.502 256.648 639.298 259.398C637.116 262.125 634.127 264.239 630.332 265.739C626.559 267.216 622.252 267.955 617.411 267.955C609.411 267.955 603.15 266.318 598.627 263.045C594.127 259.773 591.616 255.455 591.093 250.091H609.775C610.025 251.75 610.843 253.034 612.23 253.943C613.639 254.83 615.411 255.273 617.548 255.273C619.275 255.273 620.696 254.977 621.809 254.386C622.946 253.795 623.525 252.955 623.548 251.864C623.525 250.864 623.025 250.068 622.048 249.477C621.093 248.886 619.593 248.409 617.548 248.045L608.275 246.409C602.934 245.477 598.934 243.705 596.275 241.091C593.616 238.477 592.298 235.114 592.321 231C592.298 227.364 593.252 224.284 595.184 221.761C597.139 219.216 599.923 217.284 603.536 215.966C607.173 214.625 611.48 213.955 616.457 213.955C624.025 213.955 629.991 215.523 634.355 218.659C638.741 221.795 641.048 226.136 641.275 231.682ZM652.729 267V214.636H671.547V267H652.729ZM662.138 209.182C659.593 209.182 657.411 208.341 655.593 206.659C653.774 204.977 652.865 202.955 652.865 200.591C652.865 198.227 653.774 196.205 655.593 194.523C657.411 192.841 659.593 192 662.138 192C664.706 192 666.888 192.841 668.684 194.523C670.502 196.205 671.411 198.227 671.411 200.591C671.411 202.955 670.502 204.977 668.684 206.659C666.888 208.341 664.706 209.182 662.138 209.182ZM709.242 267.955C703.561 267.955 698.697 266.83 694.652 264.58C690.606 262.307 687.504 259.148 685.345 255.102C683.186 251.034 682.106 246.318 682.106 240.955C682.106 235.591 683.186 230.886 685.345 226.841C687.504 222.773 690.606 219.614 694.652 217.364C698.697 215.091 703.561 213.955 709.242 213.955C714.379 213.955 718.822 214.886 722.572 216.75C726.345 218.591 729.265 221.205 731.333 224.591C733.402 227.955 734.447 231.909 734.47 236.455H717.015C716.765 233.705 715.97 231.614 714.629 230.182C713.311 228.727 711.606 228 709.515 228C707.879 228 706.447 228.477 705.22 229.432C703.992 230.364 703.038 231.784 702.356 233.693C701.674 235.58 701.333 237.955 701.333 240.818C701.333 243.682 701.674 246.068 702.356 247.977C703.038 249.864 703.992 251.284 705.22 252.239C706.447 253.17 707.879 253.636 709.515 253.636C710.902 253.636 712.129 253.318 713.197 252.682C714.265 252.023 715.129 251.068 715.788 249.818C716.47 248.545 716.879 247 717.015 245.182H734.47C734.402 249.795 733.345 253.818 731.299 257.25C729.254 260.659 726.356 263.295 722.606 265.159C718.879 267.023 714.424 267.955 709.242 267.955ZM792.978 231.682H775.659C775.569 230.614 775.194 229.693 774.534 228.92C773.875 228.148 773.023 227.557 771.978 227.148C770.955 226.716 769.819 226.5 768.569 226.5C766.955 226.5 765.569 226.795 764.409 227.386C763.25 227.977 762.682 228.818 762.705 229.909C762.682 230.682 763.012 231.398 763.694 232.057C764.398 232.716 765.75 233.227 767.75 233.591L778.387 235.5C783.75 236.477 787.739 238.125 790.353 240.443C792.989 242.739 794.319 245.818 794.341 249.682C794.319 253.409 793.205 256.648 791 259.398C788.819 262.125 785.83 264.239 782.034 265.739C778.262 267.216 773.955 267.955 769.114 267.955C761.114 267.955 754.853 266.318 750.33 263.045C745.83 259.773 743.319 255.455 742.796 250.091H761.478C761.728 251.75 762.546 253.034 763.932 253.943C765.341 254.83 767.114 255.273 769.25 255.273C770.978 255.273 772.398 254.977 773.512 254.386C774.648 253.795 775.228 252.955 775.25 251.864C775.228 250.864 774.728 250.068 773.75 249.477C772.796 248.886 771.296 248.409 769.25 248.045L759.978 246.409C754.637 245.477 750.637 243.705 747.978 241.091C745.319 238.477 744 235.114 744.023 231C744 227.364 744.955 224.284 746.887 221.761C748.841 219.216 751.625 217.284 755.239 215.966C758.875 214.625 763.182 213.955 768.159 213.955C775.728 213.955 781.694 215.523 786.057 218.659C790.444 221.795 792.75 226.136 792.978 231.682ZM838.522 197.182V267H819.568V214.636H819.159L803.886 223.773V207.682L821.068 197.182H838.522ZM886.147 268.909C879.806 268.886 874.329 267.42 869.715 264.511C865.101 261.602 861.544 257.409 859.044 251.932C856.544 246.455 855.306 239.886 855.329 232.227C855.351 224.545 856.601 218.023 859.079 212.659C861.579 207.295 865.124 203.216 869.715 200.42C874.329 197.625 879.806 196.227 886.147 196.227C892.488 196.227 897.965 197.636 902.579 200.455C907.192 203.25 910.749 207.33 913.249 212.693C915.749 218.057 916.988 224.568 916.965 232.227C916.965 239.932 915.715 246.523 913.215 252C910.715 257.477 907.158 261.67 902.544 264.58C897.954 267.466 892.488 268.909 886.147 268.909ZM886.147 253.5C889.419 253.5 892.101 251.795 894.192 248.386C896.306 244.955 897.351 239.568 897.329 232.227C897.329 227.432 896.851 223.511 895.897 220.466C894.942 217.42 893.624 215.17 891.942 213.716C890.26 212.239 888.329 211.5 886.147 211.5C882.874 211.5 880.204 213.159 878.135 216.477C876.067 219.795 875.01 225.045 874.965 232.227C874.942 237.114 875.408 241.136 876.363 244.295C877.317 247.432 878.635 249.75 880.317 251.25C882.022 252.75 883.965 253.5 886.147 253.5ZM962.97 197.182V267H944.015V214.636H943.606L928.334 223.773V207.682L945.515 197.182H962.97ZM990.549 259.432C987.912 259.432 985.651 258.511 983.765 256.67C981.901 254.807 980.981 252.545 981.003 249.886C980.981 247.295 981.901 245.08 983.765 243.239C985.651 241.398 987.912 240.477 990.549 240.477C993.049 240.477 995.253 241.398 997.162 243.239C999.094 245.08 1000.07 247.295 1000.09 249.886C1000.07 251.659 999.606 253.273 998.696 254.727C997.81 256.159 996.651 257.307 995.219 258.17C993.787 259.011 992.231 259.432 990.549 259.432ZM990.549 225.886C987.912 225.886 985.651 224.966 983.765 223.125C981.901 221.261 980.981 219 981.003 216.341C980.981 213.75 981.901 211.534 983.765 209.693C985.651 207.852 987.912 206.932 990.549 206.932C993.049 206.932 995.253 207.852 997.162 209.693C999.094 211.534 1000.07 213.75 1000.09 216.341C1000.07 218.114 999.606 219.727 998.696 221.182C997.81 222.614 996.651 223.761 995.219 224.625C993.787 225.466 992.231 225.886 990.549 225.886ZM1033.02 212.455V197.182H1093.71V212.455H1072.71V267H1054.02V212.455H1033.02ZM1122.81 237.545V267H1103.99V197.182H1122.13V224.591H1122.67C1123.86 221.25 1125.82 218.648 1128.57 216.784C1131.32 214.898 1134.63 213.955 1138.49 213.955C1142.2 213.955 1145.41 214.795 1148.14 216.477C1150.89 218.159 1153.02 220.477 1154.52 223.432C1156.04 226.386 1156.79 229.773 1156.77 233.591V267H1137.95V237.545C1137.97 234.955 1137.32 232.92 1136 231.443C1134.71 229.966 1132.86 229.227 1130.45 229.227C1128.92 229.227 1127.58 229.568 1126.42 230.25C1125.29 230.909 1124.4 231.864 1123.77 233.114C1123.15 234.341 1122.83 235.818 1122.81 237.545ZM1194.03 267.955C1188.44 267.955 1183.62 266.886 1179.57 264.75C1175.55 262.591 1172.45 259.5 1170.26 255.477C1168.11 251.432 1167.03 246.591 1167.03 240.955C1167.03 235.545 1168.12 230.818 1170.3 226.773C1172.48 222.727 1175.56 219.58 1179.54 217.33C1183.51 215.08 1188.21 213.955 1193.62 213.955C1197.57 213.955 1201.15 214.568 1204.36 215.795C1207.56 217.023 1210.3 218.807 1212.57 221.148C1214.84 223.466 1216.59 226.284 1217.82 229.602C1219.05 232.92 1219.66 236.659 1219.66 240.818V245.182H1172.89V234.818H1202.34C1202.32 233.318 1201.94 232 1201.19 230.864C1200.46 229.705 1199.47 228.807 1198.22 228.17C1196.99 227.511 1195.59 227.182 1194.03 227.182C1192.5 227.182 1191.11 227.511 1189.83 228.17C1188.56 228.807 1187.54 229.693 1186.76 230.83C1186.01 231.966 1185.62 233.295 1185.57 234.818V246C1185.57 247.682 1185.92 249.182 1186.63 250.5C1187.33 251.818 1188.34 252.852 1189.66 253.602C1190.98 254.352 1192.57 254.727 1194.44 254.727C1195.73 254.727 1196.91 254.545 1197.98 254.182C1199.07 253.818 1200 253.295 1200.78 252.614C1201.55 251.909 1202.12 251.068 1202.48 250.091H1219.66C1219.07 253.727 1217.67 256.886 1215.47 259.568C1213.26 262.227 1210.34 264.295 1206.71 265.773C1203.09 267.227 1198.87 267.955 1194.03 267.955ZM108.5 387V317.182H158.818V332.455H127.455V344.455H156.227V359.727H127.455V371.727H158.682V387H108.5ZM219.235 351.682H201.917C201.826 350.614 201.451 349.693 200.792 348.92C200.133 348.148 199.281 347.557 198.235 347.148C197.212 346.716 196.076 346.5 194.826 346.5C193.212 346.5 191.826 346.795 190.667 347.386C189.508 347.977 188.94 348.818 188.962 349.909C188.94 350.682 189.269 351.398 189.951 352.057C190.656 352.716 192.008 353.227 194.008 353.591L204.644 355.5C210.008 356.477 213.996 358.125 216.61 360.443C219.246 362.739 220.576 365.818 220.599 369.682C220.576 373.409 219.462 376.648 217.258 379.398C215.076 382.125 212.087 384.239 208.292 385.739C204.519 387.216 200.212 387.955 195.371 387.955C187.371 387.955 181.11 386.318 176.587 383.045C172.087 379.773 169.576 375.455 169.053 370.091H187.735C187.985 371.75 188.803 373.034 190.19 373.943C191.599 374.83 193.371 375.273 195.508 375.273C197.235 375.273 198.656 374.977 199.769 374.386C200.906 373.795 201.485 372.955 201.508 371.864C201.485 370.864 200.985 370.068 200.008 369.477C199.053 368.886 197.553 368.409 195.508 368.045L186.235 366.409C180.894 365.477 176.894 363.705 174.235 361.091C171.576 358.477 170.258 355.114 170.281 351C170.258 347.364 171.212 344.284 173.144 341.761C175.099 339.216 177.883 337.284 181.496 335.966C185.133 334.625 189.44 333.955 194.417 333.955C201.985 333.955 207.951 335.523 212.315 338.659C216.701 341.795 219.008 346.136 219.235 351.682ZM278.553 351.682H261.234C261.144 350.614 260.769 349.693 260.109 348.92C259.45 348.148 258.598 347.557 257.553 347.148C256.53 346.716 255.394 346.5 254.144 346.5C252.53 346.5 251.144 346.795 249.984 347.386C248.825 347.977 248.257 348.818 248.28 349.909C248.257 350.682 248.587 351.398 249.269 352.057C249.973 352.716 251.325 353.227 253.325 353.591L263.962 355.5C269.325 356.477 273.314 358.125 275.928 360.443C278.564 362.739 279.894 365.818 279.916 369.682C279.894 373.409 278.78 376.648 276.575 379.398C274.394 382.125 271.405 384.239 267.609 385.739C263.837 387.216 259.53 387.955 254.689 387.955C246.689 387.955 240.428 386.318 235.905 383.045C231.405 379.773 228.894 375.455 228.371 370.091H247.053C247.303 371.75 248.121 373.034 249.507 373.943C250.916 374.83 252.689 375.273 254.825 375.273C256.553 375.273 257.973 374.977 259.087 374.386C260.223 373.795 260.803 372.955 260.825 371.864C260.803 370.864 260.303 370.068 259.325 369.477C258.371 368.886 256.871 368.409 254.825 368.045L245.553 366.409C240.212 365.477 236.212 363.705 233.553 361.091C230.894 358.477 229.575 355.114 229.598 351C229.575 347.364 230.53 344.284 232.462 341.761C234.416 339.216 237.2 337.284 240.814 335.966C244.45 334.625 248.757 333.955 253.734 333.955C261.303 333.955 267.269 335.523 271.632 338.659C276.019 341.795 278.325 346.136 278.553 351.682ZM315.097 387.955C309.506 387.955 304.688 386.886 300.643 384.75C296.62 382.591 293.518 379.5 291.336 375.477C289.177 371.432 288.097 366.591 288.097 360.955C288.097 355.545 289.188 350.818 291.37 346.773C293.552 342.727 296.631 339.58 300.609 337.33C304.586 335.08 309.279 333.955 314.688 333.955C318.643 333.955 322.222 334.568 325.427 335.795C328.631 337.023 331.37 338.807 333.643 341.148C335.916 343.466 337.666 346.284 338.893 349.602C340.12 352.92 340.734 356.659 340.734 360.818V365.182H293.961V354.818H323.416C323.393 353.318 323.006 352 322.256 350.864C321.529 349.705 320.541 348.807 319.291 348.17C318.063 347.511 316.666 347.182 315.097 347.182C313.575 347.182 312.177 347.511 310.904 348.17C309.631 348.807 308.609 349.693 307.836 350.83C307.086 351.966 306.688 353.295 306.643 354.818V366C306.643 367.682 306.995 369.182 307.7 370.5C308.404 371.818 309.416 372.852 310.734 373.602C312.052 374.352 313.643 374.727 315.506 374.727C316.802 374.727 317.984 374.545 319.052 374.182C320.143 373.818 321.075 373.295 321.847 372.614C322.62 371.909 323.188 371.068 323.552 370.091H340.734C340.143 373.727 338.745 376.886 336.541 379.568C334.336 382.227 331.416 384.295 327.779 385.773C324.166 387.227 319.938 387.955 315.097 387.955ZM370.111 357.545V387H351.293V334.636H369.156V344.591H369.702C370.838 341.273 372.838 338.67 375.702 336.784C378.588 334.898 381.952 333.955 385.793 333.955C389.497 333.955 392.713 334.807 395.44 336.511C398.19 338.193 400.315 340.511 401.815 343.466C403.338 346.42 404.088 349.795 404.065 353.591V387H385.247V357.545C385.27 354.955 384.611 352.92 383.27 351.443C381.952 349.966 380.111 349.227 377.747 349.227C376.202 349.227 374.85 349.568 373.69 350.25C372.554 350.909 371.679 351.864 371.065 353.114C370.452 354.341 370.134 355.818 370.111 357.545ZM447.462 334.636V348.273H412.962V334.636H447.462ZM419.644 322.091H438.462V370.159C438.462 370.886 438.587 371.5 438.837 372C439.087 372.477 439.474 372.841 439.997 373.091C440.519 373.318 441.19 373.432 442.008 373.432C442.576 373.432 443.235 373.364 443.985 373.227C444.758 373.091 445.326 372.977 445.69 372.886L448.417 386.114C447.576 386.364 446.372 386.67 444.803 387.034C443.258 387.398 441.417 387.636 439.281 387.75C434.962 387.977 431.337 387.534 428.406 386.42C425.474 385.284 423.269 383.5 421.792 381.068C420.315 378.636 419.599 375.591 419.644 371.932V322.091ZM458.021 387V334.636H476.84V387H458.021ZM467.431 329.182C464.885 329.182 462.703 328.341 460.885 326.659C459.067 324.977 458.158 322.955 458.158 320.591C458.158 318.227 459.067 316.205 460.885 314.523C462.703 312.841 464.885 312 467.431 312C469.999 312 472.181 312.841 473.976 314.523C475.794 316.205 476.703 318.227 476.703 320.591C476.703 322.955 475.794 324.977 473.976 326.659C472.181 328.341 469.999 329.182 467.431 329.182ZM503.899 387.818C500.558 387.818 497.603 387.273 495.035 386.182C492.49 385.068 490.49 383.386 489.035 381.136C487.58 378.886 486.853 376.023 486.853 372.545C486.853 369.682 487.342 367.239 488.319 365.216C489.296 363.17 490.66 361.5 492.41 360.205C494.16 358.909 496.194 357.92 498.512 357.239C500.853 356.557 503.376 356.114 506.08 355.909C509.012 355.682 511.365 355.409 513.137 355.091C514.933 354.75 516.228 354.284 517.024 353.693C517.819 353.08 518.217 352.273 518.217 351.273V351.136C518.217 349.773 517.694 348.727 516.649 348C515.603 347.273 514.262 346.909 512.626 346.909C510.83 346.909 509.365 347.307 508.228 348.102C507.115 348.875 506.444 350.068 506.217 351.682H488.899C489.126 348.5 490.137 345.568 491.933 342.886C493.751 340.182 496.399 338.023 499.876 336.409C503.353 334.773 507.694 333.955 512.899 333.955C516.649 333.955 520.012 334.398 522.99 335.284C525.967 336.148 528.501 337.364 530.592 338.932C532.683 340.477 534.274 342.295 535.365 344.386C536.478 346.455 537.035 348.705 537.035 351.136V387H519.444V379.636H519.035C517.99 381.591 516.717 383.17 515.217 384.375C513.74 385.58 512.046 386.455 510.137 387C508.251 387.545 506.171 387.818 503.899 387.818ZM510.035 375.955C511.467 375.955 512.808 375.659 514.058 375.068C515.33 374.477 516.365 373.625 517.16 372.511C517.955 371.398 518.353 370.045 518.353 368.455V364.091C517.853 364.295 517.319 364.489 516.751 364.67C516.205 364.852 515.615 365.023 514.978 365.182C514.365 365.341 513.705 365.489 513.001 365.625C512.319 365.761 511.603 365.886 510.853 366C509.399 366.227 508.205 366.602 507.274 367.125C506.365 367.625 505.683 368.25 505.228 369C504.796 369.727 504.58 370.545 504.58 371.455C504.58 372.909 505.092 374.023 506.115 374.795C507.137 375.568 508.444 375.955 510.035 375.955ZM567.725 317.182V387H548.906V317.182H567.725ZM647.266 340.227C646.97 339.023 646.505 337.966 645.868 337.057C645.232 336.125 644.436 335.341 643.482 334.705C642.55 334.045 641.459 333.557 640.209 333.239C638.982 332.898 637.63 332.727 636.152 332.727C632.97 332.727 630.255 333.489 628.005 335.011C625.777 336.534 624.073 338.727 622.891 341.591C621.732 344.455 621.152 347.909 621.152 351.955C621.152 356.045 621.709 359.545 622.823 362.455C623.936 365.364 625.595 367.591 627.8 369.136C630.005 370.682 632.743 371.455 636.016 371.455C638.902 371.455 641.3 371.034 643.209 370.193C645.141 369.352 646.584 368.159 647.539 366.614C648.493 365.068 648.97 363.25 648.97 361.159L652.243 361.5H636.289V348H667.243V357.682C667.243 364.045 665.891 369.489 663.186 374.011C660.505 378.511 656.8 381.966 652.073 384.375C647.368 386.761 641.97 387.955 635.88 387.955C629.084 387.955 623.118 386.511 617.982 383.625C612.845 380.739 608.834 376.625 605.948 371.284C603.084 365.943 601.652 359.591 601.652 352.227C601.652 346.455 602.527 341.341 604.277 336.886C606.05 332.432 608.505 328.67 611.641 325.602C614.777 322.511 618.402 320.182 622.516 318.614C626.63 317.023 631.039 316.227 635.743 316.227C639.88 316.227 643.72 316.818 647.266 318C650.834 319.159 653.982 320.818 656.709 322.977C659.459 325.114 661.675 327.648 663.357 330.58C665.039 333.511 666.061 336.727 666.425 340.227H647.266ZM713.189 364.091V334.636H732.007V387H714.143V377.045H713.598C712.461 380.386 710.473 383 707.632 384.886C704.791 386.75 701.416 387.682 697.507 387.682C693.848 387.682 690.643 386.841 687.893 385.159C685.166 383.477 683.041 381.159 681.518 378.205C680.018 375.25 679.257 371.864 679.234 368.045V334.636H698.052V364.091C698.075 366.682 698.734 368.716 700.029 370.193C701.348 371.67 703.189 372.409 705.552 372.409C707.12 372.409 708.473 372.08 709.609 371.42C710.768 370.739 711.654 369.784 712.268 368.557C712.904 367.307 713.211 365.818 713.189 364.091ZM744.458 387V334.636H763.276V387H744.458ZM753.867 329.182C751.321 329.182 749.14 328.341 747.321 326.659C745.503 324.977 744.594 322.955 744.594 320.591C744.594 318.227 745.503 316.205 747.321 314.523C749.14 312.841 751.321 312 753.867 312C756.435 312 758.617 312.841 760.412 314.523C762.23 316.205 763.14 318.227 763.14 320.591C763.14 322.955 762.23 324.977 760.412 326.659C758.617 328.341 756.435 329.182 753.867 329.182ZM794.699 387.682C790.971 387.682 787.539 386.705 784.403 384.75C781.289 382.795 778.789 379.83 776.903 375.852C775.039 371.875 774.108 366.864 774.108 360.818C774.108 354.5 775.085 349.364 777.039 345.409C779.017 341.455 781.562 338.557 784.676 336.716C787.812 334.875 791.108 333.955 794.562 333.955C797.153 333.955 799.426 334.409 801.38 335.318C803.335 336.205 804.971 337.398 806.289 338.898C807.608 340.375 808.608 342 809.289 343.773H809.562V317.182H828.38V387H809.699V378.409H809.289C808.562 380.182 807.517 381.773 806.153 383.182C804.812 384.568 803.176 385.67 801.244 386.489C799.335 387.284 797.153 387.682 794.699 387.682ZM801.653 373.227C803.38 373.227 804.858 372.727 806.085 371.727C807.335 370.705 808.289 369.273 808.949 367.432C809.63 365.568 809.971 363.364 809.971 360.818C809.971 358.227 809.63 356.011 808.949 354.17C808.289 352.307 807.335 350.886 806.085 349.909C804.858 348.909 803.38 348.409 801.653 348.409C799.926 348.409 798.449 348.909 797.221 349.909C796.017 350.886 795.085 352.307 794.426 354.17C793.789 356.011 793.471 358.227 793.471 360.818C793.471 363.409 793.789 365.636 794.426 367.5C795.085 369.341 796.017 370.761 797.221 371.761C798.449 372.739 799.926 373.227 801.653 373.227ZM865.59 387.955C859.999 387.955 855.181 386.886 851.135 384.75C847.113 382.591 844.01 379.5 841.829 375.477C839.669 371.432 838.59 366.591 838.59 360.955C838.59 355.545 839.681 350.818 841.863 346.773C844.044 342.727 847.124 339.58 851.101 337.33C855.079 335.08 859.772 333.955 865.181 333.955C869.135 333.955 872.715 334.568 875.919 335.795C879.124 337.023 881.863 338.807 884.135 341.148C886.408 343.466 888.158 346.284 889.385 349.602C890.613 352.92 891.226 356.659 891.226 360.818V365.182H844.454V354.818H873.908C873.885 353.318 873.499 352 872.749 350.864C872.022 349.705 871.033 348.807 869.783 348.17C868.556 347.511 867.158 347.182 865.59 347.182C864.067 347.182 862.669 347.511 861.397 348.17C860.124 348.807 859.101 349.693 858.329 350.83C857.579 351.966 857.181 353.295 857.135 354.818V366C857.135 367.682 857.488 369.182 858.192 370.5C858.897 371.818 859.908 372.852 861.226 373.602C862.544 374.352 864.135 374.727 865.999 374.727C867.294 374.727 868.476 374.545 869.544 374.182C870.635 373.818 871.567 373.295 872.34 372.614C873.113 371.909 873.681 371.068 874.044 370.091H891.226C890.635 373.727 889.238 376.886 887.033 379.568C884.829 382.227 881.908 384.295 878.272 385.773C874.658 387.227 870.431 387.955 865.59 387.955Z" fill="white"/>
<path d="M1023.7 674.308V769.591L1109.64 820.849L1194.5 770.065V674.071L1109.64 623.316L1023.7 674.308Z" fill="white" fill-opacity="0.15" stroke="white" stroke-width="4"/>
<path d="M1188.55 676.752V767.621L1108.91 815.099L1029.27 767.621V676.752L1108.91 629.273L1188.55 676.752ZM1115.55 617.778C1113.53 616.613 1111.24 616 1108.91 616C1106.58 616 1104.29 616.613 1102.28 617.778L1022.64 665.257C1020.62 666.422 1018.94 668.097 1017.78 670.115C1016.61 672.133 1016 674.422 1016 676.752V767.621C1016 769.951 1016.61 772.24 1017.78 774.257C1018.94 776.275 1020.62 777.951 1022.64 779.115L1102.28 826.594C1104.29 827.759 1106.58 828.372 1108.91 828.372C1111.24 828.372 1113.53 827.759 1115.55 826.594L1195.19 779.115C1197.21 777.951 1198.88 776.275 1200.05 774.257C1201.21 772.24 1201.83 769.951 1201.83 767.621V676.752C1201.83 674.422 1201.21 672.133 1200.05 670.115C1198.88 668.097 1197.21 666.422 1195.19 665.257L1115.55 617.778Z" fill="white" fill-opacity="0.15"/>
<g opacity="0.8">
<path d="M1105.62 775.372L1059.3 748.826V695.732L1105.62 722.279V775.372Z" fill="white"/>
<path d="M1151.95 748.826L1105.62 775.372V722.279L1151.95 695.732V748.826Z" fill="#EBEBEB"/>
<path d="M1105.62 721.744L1059.3 695.333L1105.62 668.922L1151.94 695.333L1105.62 721.744Z" fill="#FBFBFB"/>
<path d="M1105.62 721.896L1061.31 696.863L1059.3 698.011L1105.62 724.175L1151.94 698.011V695.732L1105.62 721.896Z" fill="white"/>
</g>
<path d="M743.656 951.692V1145.65L918.601 1249.99L1091.36 1146.62V951.209L918.601 847.893L743.656 951.692Z" fill="white" fill-opacity="0.15" stroke="white" stroke-width="4"/>
<path d="M1079.25 956.667V1141.64L917.136 1238.29L755.019 1141.64V956.667L917.136 860.019L1079.25 956.667ZM930.646 836.62C926.538 834.248 921.879 833 917.136 833C912.393 833 907.734 834.248 903.626 836.62L741.51 933.268C737.402 935.64 733.992 939.051 731.62 943.158C729.249 947.265 728 951.925 728 956.667V1141.64C728 1146.39 729.249 1151.04 731.62 1155.15C733.992 1159.26 737.402 1162.67 741.51 1165.04L903.626 1261.69C907.734 1264.06 912.393 1265.31 917.136 1265.31C921.879 1265.31 926.538 1264.06 930.646 1261.69L1092.76 1165.04C1096.87 1162.67 1100.28 1159.26 1102.65 1155.15C1105.02 1151.04 1106.27 1146.39 1106.27 1141.64V956.667C1106.27 951.925 1105.02 947.265 1102.65 943.158C1100.28 939.051 1096.87 935.64 1092.76 933.268L930.646 836.62Z" fill="white" fill-opacity="0.15"/>
<path d="M953.438 970H881.562C875.844 970 870.359 972.27 866.316 976.311C862.272 980.351 860 985.831 860 991.545V1106.45C860 1112.17 862.272 1117.65 866.316 1121.69C870.359 1125.73 875.844 1128 881.562 1128H953.438C959.156 1128 964.641 1125.73 968.684 1121.69C972.728 1117.65 975 1112.17 975 1106.45V991.545C975 985.831 972.728 980.351 968.684 976.311C964.641 972.27 959.156 970 953.438 970ZM910.312 984.364H924.688C926.594 984.364 928.422 985.12 929.77 986.467C931.118 987.814 931.875 989.641 931.875 991.545C931.875 993.45 931.118 995.277 929.77 996.624C928.422 997.971 926.594 998.727 924.688 998.727H910.312C908.406 998.727 906.578 997.971 905.23 996.624C903.882 995.277 903.125 993.45 903.125 991.545C903.125 989.641 903.882 987.814 905.23 986.467C906.578 985.12 908.406 984.364 910.312 984.364ZM946.25 1099.27H888.75C886.844 1099.27 885.016 1098.52 883.668 1097.17C882.32 1095.82 881.562 1094 881.562 1092.09C881.562 1090.19 882.32 1088.36 883.668 1087.01C885.016 1085.67 886.844 1084.91 888.75 1084.91H946.25C948.156 1084.91 949.984 1085.67 951.332 1087.01C952.68 1088.36 953.438 1090.19 953.438 1092.09C953.438 1094 952.68 1095.82 951.332 1097.17C949.984 1098.52 948.156 1099.27 946.25 1099.27Z" fill="white"/>
<defs>
<filter id="filter0_d_3057_1407" x="64" y="464" width="711" height="212" filterUnits="userSpaceOnUse" color-interpolation-filters="sRGB">
<feFlood flood-opacity="0" result="BackgroundImageFix"/>
<feColorMatrix in="SourceAlpha" type="matrix" values="0 0 0 0 0 0 0 0 0 0 0 0 0 0 0 0 0 0 127 0" result="hardAlpha"/>
<feOffset dy="16"/>
<feGaussianBlur stdDeviation="20"/>
<feComposite in2="hardAlpha" operator="out"/>
<feColorMatrix type="matrix" values="0 0 0 0 0 0 0 0 0 0 0 0 0 0 0 0 0 0 0.05 0"/>
<feBlend mode="normal" in2="BackgroundImageFix" result="effect1_dropShadow_3057_1407"/>
<feBlend mode="normal" in="SourceGraphic" in2="effect1_dropShadow_3057_1407" result="shape"/>
</filter>
<radialGradient id="paint0_radial_3057_1407" cx="0" cy="0" r="1" gradientUnits="userSpaceOnUse" gradientTransform="translate(-355.2 -322.136) rotate(36.5012) scale(2238.73 3337.02)">
<stop offset="0.120942" stop-color="#321179"/>
<stop offset="1" stop-color="#160E2B"/>
</radialGradient>
</defs>
</svg>
