<svg width="1332" height="1332" viewBox="0 0 1332 1332" fill="none" xmlns="http://www.w3.org/2000/svg">
<rect width="1332" height="1332" fill="url(#paint0_radial_3057_1413)"/>
<g filter="url(#filter0_d_3057_1413)">
<rect x="104" y="488" width="631" height="132" rx="40" fill="white" shape-rendering="crispEdges"/>
<path d="M199.688 544.449H189.063C188.76 542.706 188.201 541.163 187.387 539.818C186.573 538.455 185.559 537.299 184.347 536.352C183.135 535.405 181.753 534.695 180.2 534.222C178.665 533.729 177.008 533.483 175.228 533.483C172.065 533.483 169.262 534.278 166.819 535.869C164.376 537.441 162.463 539.752 161.08 542.801C159.698 545.831 159.006 549.534 159.006 553.909C159.006 558.36 159.698 562.11 161.08 565.159C162.482 568.189 164.395 570.481 166.819 572.034C169.262 573.568 172.056 574.335 175.2 574.335C176.942 574.335 178.571 574.108 180.086 573.653C181.62 573.18 182.993 572.489 184.205 571.58C185.436 570.67 186.469 569.553 187.302 568.227C188.154 566.902 188.741 565.386 189.063 563.682L199.688 563.739C199.29 566.504 198.429 569.098 197.103 571.523C195.796 573.947 194.082 576.087 191.961 577.943C189.84 579.78 187.359 581.22 184.518 582.261C181.677 583.284 178.523 583.795 175.058 583.795C169.944 583.795 165.379 582.612 161.364 580.244C157.349 577.877 154.186 574.458 151.876 569.989C149.565 565.519 148.41 560.159 148.41 553.909C148.41 547.64 149.575 542.28 151.904 537.83C154.234 533.36 157.406 529.941 161.421 527.574C165.436 525.206 169.982 524.023 175.058 524.023C178.296 524.023 181.308 524.477 184.092 525.386C186.876 526.295 189.357 527.631 191.535 529.392C193.713 531.134 195.503 533.275 196.904 535.812C198.325 538.331 199.253 541.21 199.688 544.449ZM215.668 599.364C214.267 599.364 212.969 599.25 211.776 599.023C210.602 598.814 209.665 598.568 208.964 598.284L211.35 590.273C212.846 590.708 214.182 590.917 215.356 590.898C216.53 590.879 217.562 590.509 218.452 589.79C219.362 589.089 220.129 587.915 220.754 586.267L221.634 583.909L205.81 539.364H216.719L226.776 572.318H227.231L237.316 539.364H248.254L230.782 588.284C229.968 590.595 228.888 592.574 227.543 594.222C226.199 595.888 224.551 597.157 222.6 598.028C220.668 598.919 218.358 599.364 215.668 599.364ZM255.825 583V524.818H266.109V546.58H266.535C267.065 545.519 267.813 544.392 268.779 543.199C269.745 541.987 271.052 540.955 272.7 540.102C274.347 539.231 276.45 538.795 279.006 538.795C282.378 538.795 285.417 539.657 288.126 541.381C290.853 543.085 293.012 545.614 294.603 548.966C296.213 552.299 297.018 556.39 297.018 561.239C297.018 566.03 296.232 570.102 294.66 573.455C293.088 576.807 290.948 579.364 288.239 581.125C285.531 582.886 282.463 583.767 279.035 583.767C276.535 583.767 274.461 583.35 272.813 582.517C271.165 581.684 269.84 580.68 268.836 579.506C267.851 578.312 267.084 577.186 266.535 576.125H265.938V583H255.825ZM265.91 561.182C265.91 564.004 266.308 566.475 267.103 568.597C267.917 570.718 269.082 572.375 270.597 573.568C272.131 574.742 273.987 575.33 276.165 575.33C278.438 575.33 280.342 574.723 281.876 573.511C283.41 572.28 284.565 570.604 285.342 568.483C286.137 566.343 286.535 563.909 286.535 561.182C286.535 558.473 286.147 556.068 285.37 553.966C284.594 551.864 283.438 550.216 281.904 549.023C280.37 547.83 278.457 547.233 276.165 547.233C273.969 547.233 272.103 547.811 270.569 548.966C269.035 550.121 267.87 551.741 267.075 553.824C266.298 555.907 265.91 558.36 265.91 561.182ZM325.079 583.852C320.704 583.852 316.925 582.943 313.744 581.125C310.581 579.288 308.147 576.693 306.442 573.341C304.738 569.97 303.886 566.002 303.886 561.438C303.886 556.949 304.738 553.009 306.442 549.619C308.166 546.21 310.571 543.559 313.658 541.665C316.746 539.752 320.372 538.795 324.539 538.795C327.228 538.795 329.766 539.231 332.153 540.102C334.558 540.955 336.679 542.28 338.516 544.08C340.372 545.879 341.831 548.17 342.891 550.955C343.952 553.72 344.482 557.015 344.482 560.841V563.994H308.715V557.062H334.624C334.605 555.093 334.179 553.341 333.346 551.807C332.513 550.254 331.348 549.032 329.852 548.142C328.374 547.252 326.651 546.807 324.681 546.807C322.579 546.807 320.732 547.318 319.141 548.341C317.55 549.345 316.31 550.67 315.42 552.318C314.549 553.947 314.103 555.737 314.085 557.688V563.739C314.085 566.277 314.549 568.455 315.477 570.273C316.405 572.072 317.702 573.455 319.369 574.42C321.035 575.367 322.986 575.841 325.221 575.841C326.717 575.841 328.071 575.633 329.283 575.216C330.496 574.78 331.547 574.146 332.437 573.312C333.327 572.479 333.999 571.447 334.454 570.216L344.056 571.295C343.45 573.833 342.295 576.049 340.59 577.943C338.905 579.818 336.746 581.277 334.113 582.318C331.48 583.341 328.469 583.852 325.079 583.852ZM353.183 583V539.364H363.154V546.636H363.609C364.404 544.117 365.768 542.176 367.7 540.812C369.65 539.43 371.876 538.739 374.376 538.739C374.944 538.739 375.578 538.767 376.279 538.824C376.999 538.862 377.595 538.928 378.069 539.023V548.483C377.633 548.331 376.942 548.199 375.995 548.085C375.067 547.953 374.167 547.886 373.296 547.886C371.421 547.886 369.736 548.294 368.239 549.108C366.762 549.903 365.597 551.011 364.745 552.432C363.893 553.852 363.467 555.491 363.467 557.347V583H353.183ZM419.39 550.898L410.015 551.92C409.75 550.973 409.286 550.083 408.623 549.25C407.979 548.417 407.108 547.744 406.009 547.233C404.911 546.722 403.566 546.466 401.975 546.466C399.835 546.466 398.036 546.93 396.577 547.858C395.138 548.786 394.428 549.989 394.447 551.466C394.428 552.735 394.892 553.767 395.839 554.562C396.805 555.358 398.396 556.011 400.612 556.523L408.055 558.114C412.183 559.004 415.252 560.415 417.259 562.347C419.286 564.278 420.308 566.807 420.327 569.932C420.308 572.678 419.504 575.102 417.913 577.205C416.341 579.288 414.153 580.917 411.35 582.091C408.547 583.265 405.327 583.852 401.691 583.852C396.35 583.852 392.051 582.735 388.793 580.5C385.536 578.246 383.594 575.112 382.969 571.097L392.998 570.131C393.452 572.1 394.418 573.587 395.896 574.591C397.373 575.595 399.295 576.097 401.663 576.097C404.106 576.097 406.066 575.595 407.543 574.591C409.04 573.587 409.788 572.347 409.788 570.869C409.788 569.619 409.305 568.587 408.339 567.773C407.392 566.958 405.915 566.333 403.907 565.898L396.464 564.335C392.278 563.464 389.182 561.996 387.174 559.932C385.166 557.848 384.172 555.216 384.191 552.034C384.172 549.345 384.901 547.015 386.379 545.045C387.875 543.057 389.949 541.523 392.6 540.443C395.271 539.345 398.348 538.795 401.833 538.795C406.947 538.795 410.971 539.884 413.907 542.062C416.862 544.241 418.689 547.186 419.39 550.898ZM448.126 583.852C443.751 583.852 439.972 582.943 436.79 581.125C433.628 579.288 431.194 576.693 429.489 573.341C427.785 569.97 426.933 566.002 426.933 561.438C426.933 556.949 427.785 553.009 429.489 549.619C431.213 546.21 433.618 543.559 436.705 541.665C439.792 539.752 443.419 538.795 447.586 538.795C450.275 538.795 452.813 539.231 455.2 540.102C457.605 540.955 459.726 542.28 461.563 544.08C463.419 545.879 464.878 548.17 465.938 550.955C466.999 553.72 467.529 557.015 467.529 560.841V563.994H431.762V557.062H457.671C457.652 555.093 457.226 553.341 456.393 551.807C455.559 550.254 454.395 549.032 452.898 548.142C451.421 547.252 449.698 546.807 447.728 546.807C445.626 546.807 443.779 547.318 442.188 548.341C440.597 549.345 439.357 550.67 438.467 552.318C437.595 553.947 437.15 555.737 437.131 557.688V563.739C437.131 566.277 437.595 568.455 438.523 570.273C439.451 572.072 440.749 573.455 442.415 574.42C444.082 575.367 446.033 575.841 448.268 575.841C449.764 575.841 451.118 575.633 452.33 575.216C453.542 574.78 454.594 574.146 455.484 573.312C456.374 572.479 457.046 571.447 457.501 570.216L467.103 571.295C466.497 573.833 465.342 576.049 463.637 577.943C461.951 579.818 459.792 581.277 457.16 582.318C454.527 583.341 451.516 583.852 448.126 583.852ZM495.263 583.852C490.907 583.852 487.167 582.896 484.042 580.983C480.936 579.07 478.54 576.428 476.854 573.057C475.188 569.667 474.354 565.765 474.354 561.352C474.354 556.92 475.207 553.009 476.911 549.619C478.616 546.21 481.021 543.559 484.127 541.665C487.252 539.752 490.945 538.795 495.207 538.795C498.748 538.795 501.883 539.449 504.61 540.756C507.356 542.044 509.544 543.871 511.173 546.239C512.801 548.587 513.729 551.333 513.957 554.477H504.127C503.729 552.375 502.782 550.623 501.286 549.222C499.809 547.801 497.83 547.091 495.349 547.091C493.246 547.091 491.4 547.659 489.809 548.795C488.218 549.913 486.978 551.523 486.087 553.625C485.216 555.727 484.781 558.246 484.781 561.182C484.781 564.155 485.216 566.712 486.087 568.852C486.959 570.973 488.18 572.612 489.752 573.767C491.343 574.903 493.209 575.472 495.349 575.472C496.864 575.472 498.218 575.187 499.411 574.619C500.623 574.032 501.637 573.189 502.451 572.091C503.265 570.992 503.824 569.657 504.127 568.085H513.957C513.71 571.172 512.801 573.909 511.229 576.295C509.657 578.663 507.517 580.519 504.809 581.864C502.101 583.189 498.919 583.852 495.263 583.852ZM550.214 564.648V539.364H560.498V583H550.526V575.244H550.072C549.087 577.687 547.468 579.686 545.214 581.239C542.979 582.792 540.223 583.568 536.947 583.568C534.087 583.568 531.558 582.934 529.362 581.665C527.183 580.377 525.479 578.511 524.248 576.068C523.017 573.606 522.401 570.633 522.401 567.148V539.364H532.685V565.557C532.685 568.322 533.443 570.519 534.958 572.148C536.473 573.777 538.462 574.591 540.924 574.591C542.439 574.591 543.907 574.222 545.327 573.483C546.748 572.744 547.913 571.646 548.822 570.188C549.75 568.71 550.214 566.864 550.214 564.648ZM571.073 583V539.364H581.045V546.636H581.499C582.295 544.117 583.658 542.176 585.59 540.812C587.541 539.43 589.766 538.739 592.266 538.739C592.835 538.739 593.469 538.767 594.17 538.824C594.889 538.862 595.486 538.928 595.96 539.023V548.483C595.524 548.331 594.833 548.199 593.886 548.085C592.958 547.953 592.058 547.886 591.187 547.886C589.312 547.886 587.626 548.294 586.13 549.108C584.653 549.903 583.488 551.011 582.636 552.432C581.783 553.852 581.357 555.491 581.357 557.347V583H571.073ZM602.792 583V539.364H613.076V583H602.792ZM607.962 533.17C606.334 533.17 604.932 532.631 603.758 531.551C602.584 530.453 601.996 529.136 601.996 527.602C601.996 526.049 602.584 524.733 603.758 523.653C604.932 522.555 606.334 522.006 607.962 522.006C609.61 522.006 611.012 522.555 612.167 523.653C613.341 524.733 613.928 526.049 613.928 527.602C613.928 529.136 613.341 530.453 612.167 531.551C611.012 532.631 609.61 533.17 607.962 533.17ZM645.441 539.364V547.318H620.356V539.364H645.441ZM626.549 528.909H636.833V569.875C636.833 571.258 637.041 572.318 637.458 573.057C637.894 573.777 638.462 574.269 639.163 574.534C639.863 574.799 640.64 574.932 641.492 574.932C642.136 574.932 642.723 574.884 643.254 574.79C643.803 574.695 644.219 574.61 644.504 574.534L646.237 582.574C645.687 582.763 644.901 582.972 643.879 583.199C642.875 583.426 641.644 583.559 640.185 583.597C637.61 583.672 635.29 583.284 633.225 582.432C631.161 581.561 629.522 580.216 628.31 578.398C627.117 576.58 626.53 574.307 626.549 571.58V528.909ZM660.434 599.364C659.032 599.364 657.735 599.25 656.542 599.023C655.368 598.814 654.43 598.568 653.729 598.284L656.116 590.273C657.612 590.708 658.947 590.917 660.121 590.898C661.296 590.879 662.328 590.509 663.218 589.79C664.127 589.089 664.894 587.915 665.519 586.267L666.4 583.909L650.576 539.364H661.485L671.542 572.318H671.996L682.082 539.364H693.019L675.548 588.284C674.733 590.595 673.654 592.574 672.309 594.222C670.964 595.888 669.317 597.157 667.366 598.028C665.434 598.919 663.123 599.364 660.434 599.364Z" fill="#428DFF"/>
</g>
<path d="M126.227 267L105.636 197.182H126.773L136.318 240.136H136.864L148.182 197.182H164.818L176.136 240.273H176.682L186.227 197.182H207.364L186.773 267H168.636L156.773 228H156.227L144.364 267H126.227ZM235.471 237.545V267H216.653V197.182H234.789V224.591H235.335C236.516 221.25 238.482 218.648 241.232 216.784C243.982 214.898 247.289 213.955 251.153 213.955C254.857 213.955 258.073 214.795 260.8 216.477C263.55 218.159 265.675 220.477 267.175 223.432C268.698 226.386 269.448 229.773 269.425 233.591V267H250.607V237.545C250.63 234.955 249.982 232.92 248.664 231.443C247.369 229.966 245.516 229.227 243.107 229.227C241.585 229.227 240.244 229.568 239.085 230.25C237.948 230.909 237.062 231.864 236.425 233.114C235.812 234.341 235.494 235.818 235.471 237.545ZM296.186 267.818C292.845 267.818 289.891 267.273 287.322 266.182C284.777 265.068 282.777 263.386 281.322 261.136C279.868 258.886 279.141 256.023 279.141 252.545C279.141 249.682 279.629 247.239 280.607 245.216C281.584 243.17 282.947 241.5 284.697 240.205C286.447 238.909 288.482 237.92 290.8 237.239C293.141 236.557 295.663 236.114 298.368 235.909C301.3 235.682 303.652 235.409 305.425 235.091C307.22 234.75 308.516 234.284 309.311 233.693C310.107 233.08 310.504 232.273 310.504 231.273V231.136C310.504 229.773 309.982 228.727 308.936 228C307.891 227.273 306.55 226.909 304.913 226.909C303.118 226.909 301.652 227.307 300.516 228.102C299.402 228.875 298.732 230.068 298.504 231.682H281.186C281.413 228.5 282.425 225.568 284.22 222.886C286.038 220.182 288.686 218.023 292.163 216.409C295.641 214.773 299.982 213.955 305.186 213.955C308.936 213.955 312.3 214.398 315.277 215.284C318.254 216.148 320.788 217.364 322.879 218.932C324.97 220.477 326.561 222.295 327.652 224.386C328.766 226.455 329.322 228.705 329.322 231.136V267H311.732V259.636H311.322C310.277 261.591 309.004 263.17 307.504 264.375C306.027 265.58 304.334 266.455 302.425 267C300.538 267.545 298.459 267.818 296.186 267.818ZM302.322 255.955C303.754 255.955 305.095 255.659 306.345 255.068C307.618 254.477 308.652 253.625 309.447 252.511C310.243 251.398 310.641 250.045 310.641 248.455V244.091C310.141 244.295 309.607 244.489 309.038 244.67C308.493 244.852 307.902 245.023 307.266 245.182C306.652 245.341 305.993 245.489 305.288 245.625C304.607 245.761 303.891 245.886 303.141 246C301.686 246.227 300.493 246.602 299.561 247.125C298.652 247.625 297.97 248.25 297.516 249C297.084 249.727 296.868 250.545 296.868 251.455C296.868 252.909 297.379 254.023 298.402 254.795C299.425 255.568 300.732 255.955 302.322 255.955ZM372.421 214.636V228.273H337.921V214.636H372.421ZM344.603 202.091H363.421V250.159C363.421 250.886 363.546 251.5 363.796 252C364.046 252.477 364.433 252.841 364.955 253.091C365.478 253.318 366.149 253.432 366.967 253.432C367.535 253.432 368.194 253.364 368.944 253.227C369.717 253.091 370.285 252.977 370.649 252.886L373.376 266.114C372.535 266.364 371.33 266.67 369.762 267.034C368.217 267.398 366.376 267.636 364.239 267.75C359.921 267.977 356.296 267.534 353.364 266.42C350.433 265.284 348.228 263.5 346.751 261.068C345.274 258.636 344.558 255.591 344.603 251.932V202.091ZM423.667 197.182V267H404.712V197.182H423.667ZM483.666 231.682H466.348C466.257 230.614 465.882 229.693 465.223 228.92C464.564 228.148 463.712 227.557 462.666 227.148C461.644 226.716 460.507 226.5 459.257 226.5C457.644 226.5 456.257 226.795 455.098 227.386C453.939 227.977 453.371 228.818 453.394 229.909C453.371 230.682 453.7 231.398 454.382 232.057C455.087 232.716 456.439 233.227 458.439 233.591L469.075 235.5C474.439 236.477 478.428 238.125 481.041 240.443C483.678 242.739 485.007 245.818 485.03 249.682C485.007 253.409 483.894 256.648 481.689 259.398C479.507 262.125 476.519 264.239 472.723 265.739C468.95 267.216 464.644 267.955 459.803 267.955C451.803 267.955 445.541 266.318 441.019 263.045C436.519 259.773 434.007 255.455 433.485 250.091H452.166C452.416 251.75 453.235 253.034 454.621 253.943C456.03 254.83 457.803 255.273 459.939 255.273C461.666 255.273 463.087 254.977 464.2 254.386C465.337 253.795 465.916 252.955 465.939 251.864C465.916 250.864 465.416 250.068 464.439 249.477C463.485 248.886 461.985 248.409 459.939 248.045L450.666 246.409C445.325 245.477 441.325 243.705 438.666 241.091C436.007 238.477 434.689 235.114 434.712 231C434.689 227.364 435.644 224.284 437.575 221.761C439.53 219.216 442.314 217.284 445.928 215.966C449.564 214.625 453.871 213.955 458.848 213.955C466.416 213.955 472.382 215.523 476.746 218.659C481.132 221.795 483.439 226.136 483.666 231.682ZM516.853 267V197.182H567.171V212.455H535.807V224.455H564.58V239.727H535.807V251.727H567.034V267H516.853ZM598.542 237.545V267H579.724V214.636H597.588V224.591H598.133C599.269 221.273 601.269 218.67 604.133 216.784C607.019 214.898 610.383 213.955 614.224 213.955C617.929 213.955 621.144 214.807 623.872 216.511C626.622 218.193 628.747 220.511 630.247 223.466C631.769 226.42 632.519 229.795 632.497 233.591V267H613.679V237.545C613.701 234.955 613.042 232.92 611.701 231.443C610.383 229.966 608.542 229.227 606.179 229.227C604.633 229.227 603.281 229.568 602.122 230.25C600.985 230.909 600.11 231.864 599.497 233.114C598.883 234.341 598.565 235.818 598.542 237.545ZM663.621 267.682C659.894 267.682 656.462 266.705 653.326 264.75C650.212 262.795 647.712 259.83 645.826 255.852C643.962 251.875 643.03 246.864 643.03 240.818C643.03 234.5 644.007 229.364 645.962 225.409C647.939 221.455 650.485 218.557 653.598 216.716C656.735 214.875 660.03 213.955 663.485 213.955C666.076 213.955 668.348 214.409 670.303 215.318C672.257 216.205 673.894 217.398 675.212 218.898C676.53 220.375 677.53 222 678.212 223.773H678.485V197.182H697.303V267H678.621V258.409H678.212C677.485 260.182 676.439 261.773 675.076 263.182C673.735 264.568 672.098 265.67 670.166 266.489C668.257 267.284 666.076 267.682 663.621 267.682ZM670.576 253.227C672.303 253.227 673.78 252.727 675.007 251.727C676.257 250.705 677.212 249.273 677.871 247.432C678.553 245.568 678.894 243.364 678.894 240.818C678.894 238.227 678.553 236.011 677.871 234.17C677.212 232.307 676.257 230.886 675.007 229.909C673.78 228.909 672.303 228.409 670.576 228.409C668.848 228.409 667.371 228.909 666.144 229.909C664.939 230.886 664.007 232.307 663.348 234.17C662.712 236.011 662.394 238.227 662.394 240.818C662.394 243.409 662.712 245.636 663.348 247.5C664.007 249.341 664.939 250.761 666.144 251.761C667.371 252.739 668.848 253.227 670.576 253.227ZM709.421 286.636V214.636H728.103V223.773H728.512C729.194 222 730.194 220.375 731.512 218.898C732.831 217.398 734.467 216.205 736.421 215.318C738.376 214.409 740.649 213.955 743.24 213.955C746.694 213.955 749.978 214.875 753.092 216.716C756.228 218.557 758.774 221.455 760.728 225.409C762.706 229.364 763.694 234.5 763.694 240.818C763.694 246.864 762.751 251.875 760.865 255.852C759.001 259.83 756.501 262.795 753.365 264.75C750.251 266.705 746.831 267.682 743.103 267.682C740.649 267.682 738.456 267.284 736.524 266.489C734.615 265.67 732.978 264.568 731.615 263.182C730.274 261.773 729.24 260.182 728.512 258.409H728.24V286.636H709.421ZM727.831 240.818C727.831 243.364 728.16 245.568 728.819 247.432C729.501 249.273 730.456 250.705 731.683 251.727C732.933 252.727 734.421 253.227 736.149 253.227C737.876 253.227 739.342 252.739 740.546 251.761C741.774 250.761 742.706 249.341 743.342 247.5C744.001 245.636 744.331 243.409 744.331 240.818C744.331 238.227 744.001 236.011 743.342 234.17C742.706 232.307 741.774 230.886 740.546 229.909C739.342 228.909 737.876 228.409 736.149 228.409C734.421 228.409 732.933 228.909 731.683 229.909C730.456 230.886 729.501 232.307 728.819 234.17C728.16 236.011 727.831 238.227 727.831 240.818ZM799.685 267.955C794.003 267.955 789.14 266.83 785.094 264.58C781.049 262.307 777.946 259.148 775.787 255.102C773.628 251.034 772.549 246.318 772.549 240.955C772.549 235.591 773.628 230.886 775.787 226.841C777.946 222.773 781.049 219.614 785.094 217.364C789.14 215.091 794.003 213.955 799.685 213.955C805.367 213.955 810.23 215.091 814.276 217.364C818.321 219.614 821.424 222.773 823.583 226.841C825.742 230.886 826.821 235.591 826.821 240.955C826.821 246.318 825.742 251.034 823.583 255.102C821.424 259.148 818.321 262.307 814.276 264.58C810.23 266.83 805.367 267.955 799.685 267.955ZM799.821 254.045C801.412 254.045 802.787 253.511 803.946 252.443C805.105 251.375 806.003 249.852 806.64 247.875C807.276 245.898 807.594 243.545 807.594 240.818C807.594 238.068 807.276 235.716 806.64 233.761C806.003 231.784 805.105 230.261 803.946 229.193C802.787 228.125 801.412 227.591 799.821 227.591C798.14 227.591 796.696 228.125 795.492 229.193C794.287 230.261 793.367 231.784 792.73 233.761C792.094 235.716 791.776 238.068 791.776 240.818C791.776 243.545 792.094 245.898 792.73 247.875C793.367 249.852 794.287 251.375 795.492 252.443C796.696 253.511 798.14 254.045 799.821 254.045ZM837.338 267V214.636H856.156V267H837.338ZM846.747 209.182C844.201 209.182 842.02 208.341 840.201 206.659C838.383 204.977 837.474 202.955 837.474 200.591C837.474 198.227 838.383 196.205 840.201 194.523C842.02 192.841 844.201 192 846.747 192C849.315 192 851.497 192.841 853.292 194.523C855.11 196.205 856.02 198.227 856.02 200.591C856.02 202.955 855.11 204.977 853.292 206.659C851.497 208.341 849.315 209.182 846.747 209.182ZM887.442 237.545V267H868.624V214.636H886.488V224.591H887.033C888.169 221.273 890.169 218.67 893.033 216.784C895.919 214.898 899.283 213.955 903.124 213.955C906.829 213.955 910.044 214.807 912.772 216.511C915.522 218.193 917.647 220.511 919.147 223.466C920.669 226.42 921.419 229.795 921.397 233.591V267H902.579V237.545C902.601 234.955 901.942 232.92 900.601 231.443C899.283 229.966 897.442 229.227 895.079 229.227C893.533 229.227 892.181 229.568 891.022 230.25C889.885 230.909 889.01 231.864 888.397 233.114C887.783 234.341 887.465 235.818 887.442 237.545ZM964.794 214.636V228.273H930.294V214.636H964.794ZM936.976 202.091H955.794V250.159C955.794 250.886 955.919 251.5 956.169 252C956.419 252.477 956.805 252.841 957.328 253.091C957.851 253.318 958.521 253.432 959.339 253.432C959.907 253.432 960.566 253.364 961.316 253.227C962.089 253.091 962.657 252.977 963.021 252.886L965.748 266.114C964.907 266.364 963.703 266.67 962.135 267.034C960.589 267.398 958.748 267.636 956.612 267.75C952.294 267.977 948.669 267.534 945.737 266.42C942.805 265.284 940.601 263.5 939.123 261.068C937.646 258.636 936.93 255.591 936.976 251.932V202.091ZM146.136 339C145.955 336.727 145.102 334.955 143.58 333.682C142.08 332.409 139.795 331.773 136.727 331.773C134.773 331.773 133.17 332.011 131.92 332.489C130.693 332.943 129.784 333.568 129.193 334.364C128.602 335.159 128.295 336.068 128.273 337.091C128.227 337.932 128.375 338.693 128.716 339.375C129.08 340.034 129.648 340.636 130.42 341.182C131.193 341.705 132.182 342.182 133.386 342.614C134.591 343.045 136.023 343.432 137.682 343.773L143.409 345C147.273 345.818 150.58 346.898 153.33 348.239C156.08 349.58 158.33 351.159 160.08 352.977C161.83 354.773 163.114 356.795 163.932 359.045C164.773 361.295 165.205 363.75 165.227 366.409C165.205 371 164.057 374.886 161.784 378.068C159.511 381.25 156.261 383.67 152.034 385.33C147.83 386.989 142.773 387.818 136.864 387.818C130.795 387.818 125.5 386.92 120.977 385.125C116.477 383.33 112.977 380.568 110.477 376.841C108 373.091 106.75 368.295 106.727 362.455H124.727C124.841 364.591 125.375 366.386 126.33 367.841C127.284 369.295 128.625 370.398 130.352 371.148C132.102 371.898 134.182 372.273 136.591 372.273C138.614 372.273 140.307 372.023 141.67 371.523C143.034 371.023 144.068 370.33 144.773 369.443C145.477 368.557 145.841 367.545 145.864 366.409C145.841 365.341 145.489 364.409 144.807 363.614C144.148 362.795 143.057 362.068 141.534 361.432C140.011 360.773 137.955 360.159 135.364 359.591L128.409 358.091C122.227 356.75 117.352 354.511 113.784 351.375C110.239 348.216 108.477 343.909 108.5 338.455C108.477 334.023 109.659 330.148 112.045 326.83C114.455 323.489 117.784 320.886 122.034 319.023C126.307 317.159 131.205 316.227 136.727 316.227C142.364 316.227 147.239 317.17 151.352 319.057C155.466 320.943 158.636 323.602 160.864 327.034C163.114 330.443 164.25 334.432 164.273 339H146.136ZM200.681 387.955C195.09 387.955 190.272 386.886 186.227 384.75C182.204 382.591 179.102 379.5 176.92 375.477C174.761 371.432 173.681 366.591 173.681 360.955C173.681 355.545 174.772 350.818 176.954 346.773C179.136 342.727 182.215 339.58 186.192 337.33C190.17 335.08 194.863 333.955 200.272 333.955C204.227 333.955 207.806 334.568 211.011 335.795C214.215 337.023 216.954 338.807 219.227 341.148C221.499 343.466 223.249 346.284 224.477 349.602C225.704 352.92 226.317 356.659 226.317 360.818V365.182H179.545V354.818H208.999C208.977 353.318 208.59 352 207.84 350.864C207.113 349.705 206.124 348.807 204.874 348.17C203.647 347.511 202.249 347.182 200.681 347.182C199.158 347.182 197.761 347.511 196.488 348.17C195.215 348.807 194.192 349.693 193.42 350.83C192.67 351.966 192.272 353.295 192.227 354.818V366C192.227 367.682 192.579 369.182 193.283 370.5C193.988 371.818 194.999 372.852 196.317 373.602C197.636 374.352 199.227 374.727 201.09 374.727C202.386 374.727 203.567 374.545 204.636 374.182C205.727 373.818 206.658 373.295 207.431 372.614C208.204 371.909 208.772 371.068 209.136 370.091H226.317C225.727 373.727 224.329 376.886 222.124 379.568C219.92 382.227 216.999 384.295 213.363 385.773C209.749 387.227 205.522 387.955 200.681 387.955ZM262.104 387.955C256.422 387.955 251.558 386.83 247.513 384.58C243.467 382.307 240.365 379.148 238.206 375.102C236.047 371.034 234.967 366.318 234.967 360.955C234.967 355.591 236.047 350.886 238.206 346.841C240.365 342.773 243.467 339.614 247.513 337.364C251.558 335.091 256.422 333.955 262.104 333.955C267.24 333.955 271.683 334.886 275.433 336.75C279.206 338.591 282.126 341.205 284.195 344.591C286.263 347.955 287.308 351.909 287.331 356.455H269.876C269.626 353.705 268.831 351.614 267.49 350.182C266.172 348.727 264.467 348 262.376 348C260.74 348 259.308 348.477 258.081 349.432C256.854 350.364 255.899 351.784 255.217 353.693C254.536 355.58 254.195 357.955 254.195 360.818C254.195 363.682 254.536 366.068 255.217 367.977C255.899 369.864 256.854 371.284 258.081 372.239C259.308 373.17 260.74 373.636 262.376 373.636C263.763 373.636 264.99 373.318 266.058 372.682C267.126 372.023 267.99 371.068 268.649 369.818C269.331 368.545 269.74 367 269.876 365.182H287.331C287.263 369.795 286.206 373.818 284.161 377.25C282.115 380.659 279.217 383.295 275.467 385.159C271.74 387.023 267.286 387.955 262.104 387.955ZM331.93 364.091V334.636H350.748V387H332.884V377.045H332.339C331.203 380.386 329.214 383 326.373 384.886C323.532 386.75 320.157 387.682 316.248 387.682C312.589 387.682 309.384 386.841 306.634 385.159C303.907 383.477 301.782 381.159 300.259 378.205C298.759 375.25 297.998 371.864 297.975 368.045V334.636H316.793V364.091C316.816 366.682 317.475 368.716 318.771 370.193C320.089 371.67 321.93 372.409 324.293 372.409C325.862 372.409 327.214 372.08 328.35 371.42C329.509 370.739 330.396 369.784 331.009 368.557C331.646 367.307 331.953 365.818 331.93 364.091ZM363.199 387V334.636H381.472V344.591H382.017C382.972 340.909 384.483 338.216 386.551 336.511C388.642 334.807 391.085 333.955 393.881 333.955C394.699 333.955 395.506 334.023 396.301 334.159C397.119 334.273 397.904 334.443 398.654 334.67V350.727C397.722 350.409 396.574 350.17 395.21 350.011C393.847 349.852 392.676 349.773 391.699 349.773C389.858 349.773 388.199 350.193 386.722 351.034C385.267 351.852 384.119 353.011 383.279 354.511C382.438 355.989 382.017 357.727 382.017 359.727V387H363.199ZM407.704 387V334.636H426.522V387H407.704ZM417.113 329.182C414.568 329.182 412.386 328.341 410.568 326.659C408.749 324.977 407.84 322.955 407.84 320.591C407.84 318.227 408.749 316.205 410.568 314.523C412.386 312.841 414.568 312 417.113 312C419.681 312 421.863 312.841 423.659 314.523C425.477 316.205 426.386 318.227 426.386 320.591C426.386 322.955 425.477 324.977 423.659 326.659C421.863 328.341 419.681 329.182 417.113 329.182ZM470.217 334.636V348.273H435.717V334.636H470.217ZM442.399 322.091H461.217V370.159C461.217 370.886 461.342 371.5 461.592 372C461.842 372.477 462.229 372.841 462.752 373.091C463.274 373.318 463.945 373.432 464.763 373.432C465.331 373.432 465.99 373.364 466.74 373.227C467.513 373.091 468.081 372.977 468.445 372.886L471.172 386.114C470.331 386.364 469.127 386.67 467.558 387.034C466.013 387.398 464.172 387.636 462.036 387.75C457.717 387.977 454.092 387.534 451.161 386.42C448.229 385.284 446.024 383.5 444.547 381.068C443.07 378.636 442.354 375.591 442.399 371.932V322.091ZM492.231 406.636C490.072 406.636 488.015 406.466 486.061 406.125C484.106 405.807 482.39 405.364 480.913 404.795L485.004 391.432C486.549 391.977 487.958 392.33 489.231 392.489C490.526 392.648 491.629 392.557 492.538 392.216C493.47 391.875 494.14 391.227 494.549 390.273L494.958 389.318L476.549 334.636H496.186L504.64 370.909H505.186L513.776 334.636H533.549L514.458 391.364C513.504 394.25 512.117 396.841 510.299 399.136C508.504 401.455 506.14 403.284 503.208 404.625C500.276 405.966 496.617 406.636 492.231 406.636ZM555.554 365.182V363.545C555.554 359.795 555.85 356.807 556.441 354.58C557.031 352.352 557.906 350.568 559.066 349.227C560.225 347.864 561.645 346.636 563.327 345.545C564.781 344.591 566.077 343.67 567.213 342.784C568.372 341.898 569.281 340.955 569.941 339.955C570.622 338.955 570.963 337.818 570.963 336.545C570.963 335.409 570.691 334.409 570.145 333.545C569.6 332.682 568.861 332.011 567.929 331.534C566.997 331.057 565.963 330.818 564.827 330.818C563.6 330.818 562.463 331.102 561.418 331.67C560.395 332.239 559.566 333.023 558.929 334.023C558.316 335.023 558.009 336.182 558.009 337.5H540.554C540.6 332.5 541.736 328.443 543.963 325.33C546.191 322.193 549.145 319.898 552.827 318.443C556.509 316.966 560.554 316.227 564.963 316.227C569.827 316.227 574.168 316.943 577.986 318.375C581.804 319.784 584.816 321.92 587.02 324.784C589.225 327.625 590.327 331.182 590.327 335.455C590.327 338.205 589.85 340.625 588.895 342.716C587.963 344.784 586.656 346.614 584.975 348.205C583.316 349.773 581.372 351.205 579.145 352.5C577.509 353.455 576.134 354.443 575.02 355.466C573.906 356.466 573.066 357.614 572.497 358.909C571.929 360.182 571.645 361.727 571.645 363.545V365.182H555.554ZM563.872 388.091C561.236 388.091 558.975 387.17 557.088 385.33C555.225 383.466 554.304 381.205 554.327 378.545C554.304 375.955 555.225 373.739 557.088 371.898C558.975 370.057 561.236 369.136 563.872 369.136C566.372 369.136 568.577 370.057 570.486 371.898C572.418 373.739 573.395 375.955 573.418 378.545C573.395 380.318 572.929 381.932 572.02 383.386C571.134 384.818 569.975 385.966 568.543 386.83C567.111 387.67 565.554 388.091 563.872 388.091Z" fill="white"/>
<path d="M1023.7 674.308V769.591L1109.64 820.849L1194.5 770.065V674.071L1109.64 623.316L1023.7 674.308Z" fill="white" fill-opacity="0.15" stroke="white" stroke-width="4"/>
<path d="M1188.55 676.752V767.621L1108.91 815.099L1029.27 767.621V676.752L1108.91 629.273L1188.55 676.752ZM1115.55 617.778C1113.53 616.613 1111.24 616 1108.91 616C1106.58 616 1104.29 616.613 1102.28 617.778L1022.64 665.257C1020.62 666.422 1018.94 668.097 1017.78 670.115C1016.61 672.133 1016 674.422 1016 676.752V767.621C1016 769.951 1016.61 772.24 1017.78 774.257C1018.94 776.275 1020.62 777.951 1022.64 779.115L1102.28 826.594C1104.29 827.759 1106.58 828.372 1108.91 828.372C1111.24 828.372 1113.53 827.759 1115.55 826.594L1195.19 779.115C1197.21 777.951 1198.88 776.275 1200.05 774.257C1201.21 772.24 1201.83 769.951 1201.83 767.621V676.752C1201.83 674.422 1201.21 672.133 1200.05 670.115C1198.88 668.097 1197.21 666.422 1195.19 665.257L1115.55 617.778Z" fill="white" fill-opacity="0.15"/>
<g opacity="0.8">
<path d="M1105.62 775.372L1059.3 748.826V695.732L1105.62 722.279V775.372Z" fill="white"/>
<path d="M1151.95 748.826L1105.62 775.372V722.279L1151.95 695.732V748.826Z" fill="#EBEBEB"/>
<path d="M1105.62 721.744L1059.3 695.333L1105.62 668.922L1151.94 695.333L1105.62 721.744Z" fill="#FBFBFB"/>
<path d="M1105.62 721.896L1061.31 696.863L1059.3 698.011L1105.62 724.175L1151.94 698.011V695.732L1105.62 721.896Z" fill="white"/>
</g>
<path d="M743.656 951.692V1145.65L918.601 1249.99L1091.36 1146.62V951.209L918.601 847.893L743.656 951.692Z" fill="white" fill-opacity="0.15" stroke="white" stroke-width="4"/>
<path d="M1079.25 956.667V1141.64L917.136 1238.29L755.019 1141.64V956.667L917.136 860.019L1079.25 956.667ZM930.646 836.62C926.538 834.248 921.879 833 917.136 833C912.393 833 907.734 834.248 903.626 836.62L741.51 933.268C737.402 935.64 733.992 939.051 731.62 943.158C729.249 947.265 728 951.925 728 956.667V1141.64C728 1146.39 729.249 1151.04 731.62 1155.15C733.992 1159.26 737.402 1162.67 741.51 1165.04L903.626 1261.69C907.734 1264.06 912.393 1265.31 917.136 1265.31C921.879 1265.31 926.538 1264.06 930.646 1261.69L1092.76 1165.04C1096.87 1162.67 1100.28 1159.26 1102.65 1155.15C1105.02 1151.04 1106.27 1146.39 1106.27 1141.64V956.667C1106.27 951.925 1105.02 947.265 1102.65 943.158C1100.28 939.051 1096.87 935.64 1092.76 933.268L930.646 836.62Z" fill="white" fill-opacity="0.15"/>
<path d="M917.002 1007C906.802 1007 899.002 1014.8 899.002 1025V1031H935.002V1025C935.002 1014.8 927.202 1007 917.002 1007Z" fill="white"/>
<path d="M998.6 984.2C996.8 983 995 982.4 993.2 983.6C967.4 992 941 985.4 921.2 966.8C918.8 964.4 915.2 964.4 912.8 966.8C893 985.4 866.6 992 840.8 983.6C839 982.4 837.2 983 835.4 984.2C834.2 985.4 833 987.2 833 989C833 1083.2 874.4 1114.4 914.6 1132.4C915.2 1133 916.4 1133 917 1133C917.6 1133 918.8 1133 919.4 1132.4C959.6 1114.4 1001 1083.2 1001 989C1001 987.2 999.8 985.4 998.6 984.2ZM953 1073C953 1083.2 945.2 1091 935 1091H899C888.8 1091 881 1083.2 881 1073V1049C881 1043.6 883.4 1038.8 887 1035.8V1025C887 1008.2 900.2 995 917 995C933.8 995 947 1008.2 947 1025V1035.8C950.6 1038.8 953 1043.6 953 1049V1073Z" fill="white"/>
<path d="M916.996 1049C913.396 1049 910.996 1051.4 910.996 1055V1067C910.996 1070.6 913.396 1073 916.996 1073C920.596 1073 922.996 1070.6 922.996 1067V1055C922.996 1051.4 920.596 1049 916.996 1049Z" fill="white"/>
<defs>
<filter id="filter0_d_3057_1413" x="64" y="464" width="711" height="212" filterUnits="userSpaceOnUse" color-interpolation-filters="sRGB">
<feFlood flood-opacity="0" result="BackgroundImageFix"/>
<feColorMatrix in="SourceAlpha" type="matrix" values="0 0 0 0 0 0 0 0 0 0 0 0 0 0 0 0 0 0 127 0" result="hardAlpha"/>
<feOffset dy="16"/>
<feGaussianBlur stdDeviation="20"/>
<feComposite in2="hardAlpha" operator="out"/>
<feColorMatrix type="matrix" values="0 0 0 0 0 0 0 0 0 0 0 0 0 0 0 0 0 0 0.05 0"/>
<feBlend mode="normal" in2="BackgroundImageFix" result="effect1_dropShadow_3057_1413"/>
<feBlend mode="normal" in="SourceGraphic" in2="effect1_dropShadow_3057_1413" result="shape"/>
</filter>
<radialGradient id="paint0_radial_3057_1413" cx="0" cy="0" r="1" gradientUnits="userSpaceOnUse" gradientTransform="translate(-355.2 -322.136) rotate(36.5012) scale(2238.73 3337.02)">
<stop offset="0.120942" stop-color="#321179"/>
<stop offset="1" stop-color="#160E2B"/>
</radialGradient>
</defs>
</svg>
