<svg width="1332" height="1332" viewBox="0 0 1332 1332" fill="none" xmlns="http://www.w3.org/2000/svg">
<rect width="1332" height="1332" fill="url(#paint0_radial_3057_1415)"/>
<g filter="url(#filter0_d_3057_1415)">
<rect x="104" y="488" width="631" height="132" rx="40" fill="white" shape-rendering="crispEdges"/>
<path d="M199.688 544.449H189.063C188.76 542.706 188.201 541.163 187.387 539.818C186.573 538.455 185.559 537.299 184.347 536.352C183.135 535.405 181.753 534.695 180.2 534.222C178.665 533.729 177.008 533.483 175.228 533.483C172.065 533.483 169.262 534.278 166.819 535.869C164.376 537.441 162.463 539.752 161.08 542.801C159.698 545.831 159.006 549.534 159.006 553.909C159.006 558.36 159.698 562.11 161.08 565.159C162.482 568.189 164.395 570.481 166.819 572.034C169.262 573.568 172.056 574.335 175.2 574.335C176.942 574.335 178.571 574.108 180.086 573.653C181.62 573.18 182.993 572.489 184.205 571.58C185.436 570.67 186.469 569.553 187.302 568.227C188.154 566.902 188.741 565.386 189.063 563.682L199.688 563.739C199.29 566.504 198.429 569.098 197.103 571.523C195.796 573.947 194.082 576.087 191.961 577.943C189.84 579.78 187.359 581.22 184.518 582.261C181.677 583.284 178.523 583.795 175.058 583.795C169.944 583.795 165.379 582.612 161.364 580.244C157.349 577.877 154.186 574.458 151.876 569.989C149.565 565.519 148.41 560.159 148.41 553.909C148.41 547.64 149.575 542.28 151.904 537.83C154.234 533.36 157.406 529.941 161.421 527.574C165.436 525.206 169.982 524.023 175.058 524.023C178.296 524.023 181.308 524.477 184.092 525.386C186.876 526.295 189.357 527.631 191.535 529.392C193.713 531.134 195.503 533.275 196.904 535.812C198.325 538.331 199.253 541.21 199.688 544.449ZM215.668 599.364C214.267 599.364 212.969 599.25 211.776 599.023C210.602 598.814 209.665 598.568 208.964 598.284L211.35 590.273C212.846 590.708 214.182 590.917 215.356 590.898C216.53 590.879 217.562 590.509 218.452 589.79C219.362 589.089 220.129 587.915 220.754 586.267L221.634 583.909L205.81 539.364H216.719L226.776 572.318H227.231L237.316 539.364H248.254L230.782 588.284C229.968 590.595 228.888 592.574 227.543 594.222C226.199 595.888 224.551 597.157 222.6 598.028C220.668 598.919 218.358 599.364 215.668 599.364ZM255.825 583V524.818H266.109V546.58H266.535C267.065 545.519 267.813 544.392 268.779 543.199C269.745 541.987 271.052 540.955 272.7 540.102C274.347 539.231 276.45 538.795 279.006 538.795C282.378 538.795 285.417 539.657 288.126 541.381C290.853 543.085 293.012 545.614 294.603 548.966C296.213 552.299 297.018 556.39 297.018 561.239C297.018 566.03 296.232 570.102 294.66 573.455C293.088 576.807 290.948 579.364 288.239 581.125C285.531 582.886 282.463 583.767 279.035 583.767C276.535 583.767 274.461 583.35 272.813 582.517C271.165 581.684 269.84 580.68 268.836 579.506C267.851 578.312 267.084 577.186 266.535 576.125H265.938V583H255.825ZM265.91 561.182C265.91 564.004 266.308 566.475 267.103 568.597C267.917 570.718 269.082 572.375 270.597 573.568C272.131 574.742 273.987 575.33 276.165 575.33C278.438 575.33 280.342 574.723 281.876 573.511C283.41 572.28 284.565 570.604 285.342 568.483C286.137 566.343 286.535 563.909 286.535 561.182C286.535 558.473 286.147 556.068 285.37 553.966C284.594 551.864 283.438 550.216 281.904 549.023C280.37 547.83 278.457 547.233 276.165 547.233C273.969 547.233 272.103 547.811 270.569 548.966C269.035 550.121 267.87 551.741 267.075 553.824C266.298 555.907 265.91 558.36 265.91 561.182ZM325.079 583.852C320.704 583.852 316.925 582.943 313.744 581.125C310.581 579.288 308.147 576.693 306.442 573.341C304.738 569.97 303.886 566.002 303.886 561.438C303.886 556.949 304.738 553.009 306.442 549.619C308.166 546.21 310.571 543.559 313.658 541.665C316.746 539.752 320.372 538.795 324.539 538.795C327.228 538.795 329.766 539.231 332.153 540.102C334.558 540.955 336.679 542.28 338.516 544.08C340.372 545.879 341.831 548.17 342.891 550.955C343.952 553.72 344.482 557.015 344.482 560.841V563.994H308.715V557.062H334.624C334.605 555.093 334.179 553.341 333.346 551.807C332.513 550.254 331.348 549.032 329.852 548.142C328.374 547.252 326.651 546.807 324.681 546.807C322.579 546.807 320.732 547.318 319.141 548.341C317.55 549.345 316.31 550.67 315.42 552.318C314.549 553.947 314.103 555.737 314.085 557.688V563.739C314.085 566.277 314.549 568.455 315.477 570.273C316.405 572.072 317.702 573.455 319.369 574.42C321.035 575.367 322.986 575.841 325.221 575.841C326.717 575.841 328.071 575.633 329.283 575.216C330.496 574.78 331.547 574.146 332.437 573.312C333.327 572.479 333.999 571.447 334.454 570.216L344.056 571.295C343.45 573.833 342.295 576.049 340.59 577.943C338.905 579.818 336.746 581.277 334.113 582.318C331.48 583.341 328.469 583.852 325.079 583.852ZM353.183 583V539.364H363.154V546.636H363.609C364.404 544.117 365.768 542.176 367.7 540.812C369.65 539.43 371.876 538.739 374.376 538.739C374.944 538.739 375.578 538.767 376.279 538.824C376.999 538.862 377.595 538.928 378.069 539.023V548.483C377.633 548.331 376.942 548.199 375.995 548.085C375.067 547.953 374.167 547.886 373.296 547.886C371.421 547.886 369.736 548.294 368.239 549.108C366.762 549.903 365.597 551.011 364.745 552.432C363.893 553.852 363.467 555.491 363.467 557.347V583H353.183ZM419.39 550.898L410.015 551.92C409.75 550.973 409.286 550.083 408.623 549.25C407.979 548.417 407.108 547.744 406.009 547.233C404.911 546.722 403.566 546.466 401.975 546.466C399.835 546.466 398.036 546.93 396.577 547.858C395.138 548.786 394.428 549.989 394.447 551.466C394.428 552.735 394.892 553.767 395.839 554.562C396.805 555.358 398.396 556.011 400.612 556.523L408.055 558.114C412.183 559.004 415.252 560.415 417.259 562.347C419.286 564.278 420.308 566.807 420.327 569.932C420.308 572.678 419.504 575.102 417.913 577.205C416.341 579.288 414.153 580.917 411.35 582.091C408.547 583.265 405.327 583.852 401.691 583.852C396.35 583.852 392.051 582.735 388.793 580.5C385.536 578.246 383.594 575.112 382.969 571.097L392.998 570.131C393.452 572.1 394.418 573.587 395.896 574.591C397.373 575.595 399.295 576.097 401.663 576.097C404.106 576.097 406.066 575.595 407.543 574.591C409.04 573.587 409.788 572.347 409.788 570.869C409.788 569.619 409.305 568.587 408.339 567.773C407.392 566.958 405.915 566.333 403.907 565.898L396.464 564.335C392.278 563.464 389.182 561.996 387.174 559.932C385.166 557.848 384.172 555.216 384.191 552.034C384.172 549.345 384.901 547.015 386.379 545.045C387.875 543.057 389.949 541.523 392.6 540.443C395.271 539.345 398.348 538.795 401.833 538.795C406.947 538.795 410.971 539.884 413.907 542.062C416.862 544.241 418.689 547.186 419.39 550.898ZM448.126 583.852C443.751 583.852 439.972 582.943 436.79 581.125C433.628 579.288 431.194 576.693 429.489 573.341C427.785 569.97 426.933 566.002 426.933 561.438C426.933 556.949 427.785 553.009 429.489 549.619C431.213 546.21 433.618 543.559 436.705 541.665C439.792 539.752 443.419 538.795 447.586 538.795C450.275 538.795 452.813 539.231 455.2 540.102C457.605 540.955 459.726 542.28 461.563 544.08C463.419 545.879 464.878 548.17 465.938 550.955C466.999 553.72 467.529 557.015 467.529 560.841V563.994H431.762V557.062H457.671C457.652 555.093 457.226 553.341 456.393 551.807C455.559 550.254 454.395 549.032 452.898 548.142C451.421 547.252 449.698 546.807 447.728 546.807C445.626 546.807 443.779 547.318 442.188 548.341C440.597 549.345 439.357 550.67 438.467 552.318C437.595 553.947 437.15 555.737 437.131 557.688V563.739C437.131 566.277 437.595 568.455 438.523 570.273C439.451 572.072 440.749 573.455 442.415 574.42C444.082 575.367 446.033 575.841 448.268 575.841C449.764 575.841 451.118 575.633 452.33 575.216C453.542 574.78 454.594 574.146 455.484 573.312C456.374 572.479 457.046 571.447 457.501 570.216L467.103 571.295C466.497 573.833 465.342 576.049 463.637 577.943C461.951 579.818 459.792 581.277 457.16 582.318C454.527 583.341 451.516 583.852 448.126 583.852ZM495.263 583.852C490.907 583.852 487.167 582.896 484.042 580.983C480.936 579.07 478.54 576.428 476.854 573.057C475.188 569.667 474.354 565.765 474.354 561.352C474.354 556.92 475.207 553.009 476.911 549.619C478.616 546.21 481.021 543.559 484.127 541.665C487.252 539.752 490.945 538.795 495.207 538.795C498.748 538.795 501.883 539.449 504.61 540.756C507.356 542.044 509.544 543.871 511.173 546.239C512.801 548.587 513.729 551.333 513.957 554.477H504.127C503.729 552.375 502.782 550.623 501.286 549.222C499.809 547.801 497.83 547.091 495.349 547.091C493.246 547.091 491.4 547.659 489.809 548.795C488.218 549.913 486.978 551.523 486.087 553.625C485.216 555.727 484.781 558.246 484.781 561.182C484.781 564.155 485.216 566.712 486.087 568.852C486.959 570.973 488.18 572.612 489.752 573.767C491.343 574.903 493.209 575.472 495.349 575.472C496.864 575.472 498.218 575.187 499.411 574.619C500.623 574.032 501.637 573.189 502.451 572.091C503.265 570.992 503.824 569.657 504.127 568.085H513.957C513.71 571.172 512.801 573.909 511.229 576.295C509.657 578.663 507.517 580.519 504.809 581.864C502.101 583.189 498.919 583.852 495.263 583.852ZM550.214 564.648V539.364H560.498V583H550.526V575.244H550.072C549.087 577.687 547.468 579.686 545.214 581.239C542.979 582.792 540.223 583.568 536.947 583.568C534.087 583.568 531.558 582.934 529.362 581.665C527.183 580.377 525.479 578.511 524.248 576.068C523.017 573.606 522.401 570.633 522.401 567.148V539.364H532.685V565.557C532.685 568.322 533.443 570.519 534.958 572.148C536.473 573.777 538.462 574.591 540.924 574.591C542.439 574.591 543.907 574.222 545.327 573.483C546.748 572.744 547.913 571.646 548.822 570.188C549.75 568.71 550.214 566.864 550.214 564.648ZM571.073 583V539.364H581.045V546.636H581.499C582.295 544.117 583.658 542.176 585.59 540.812C587.541 539.43 589.766 538.739 592.266 538.739C592.835 538.739 593.469 538.767 594.17 538.824C594.889 538.862 595.486 538.928 595.96 539.023V548.483C595.524 548.331 594.833 548.199 593.886 548.085C592.958 547.953 592.058 547.886 591.187 547.886C589.312 547.886 587.626 548.294 586.13 549.108C584.653 549.903 583.488 551.011 582.636 552.432C581.783 553.852 581.357 555.491 581.357 557.347V583H571.073ZM602.792 583V539.364H613.076V583H602.792ZM607.962 533.17C606.334 533.17 604.932 532.631 603.758 531.551C602.584 530.453 601.996 529.136 601.996 527.602C601.996 526.049 602.584 524.733 603.758 523.653C604.932 522.555 606.334 522.006 607.962 522.006C609.61 522.006 611.012 522.555 612.167 523.653C613.341 524.733 613.928 526.049 613.928 527.602C613.928 529.136 613.341 530.453 612.167 531.551C611.012 532.631 609.61 533.17 607.962 533.17ZM645.441 539.364V547.318H620.356V539.364H645.441ZM626.549 528.909H636.833V569.875C636.833 571.258 637.041 572.318 637.458 573.057C637.894 573.777 638.462 574.269 639.163 574.534C639.863 574.799 640.64 574.932 641.492 574.932C642.136 574.932 642.723 574.884 643.254 574.79C643.803 574.695 644.219 574.61 644.504 574.534L646.237 582.574C645.687 582.763 644.901 582.972 643.879 583.199C642.875 583.426 641.644 583.559 640.185 583.597C637.61 583.672 635.29 583.284 633.225 582.432C631.161 581.561 629.522 580.216 628.31 578.398C627.117 576.58 626.53 574.307 626.549 571.58V528.909ZM660.434 599.364C659.032 599.364 657.735 599.25 656.542 599.023C655.368 598.814 654.43 598.568 653.729 598.284L656.116 590.273C657.612 590.708 658.947 590.917 660.121 590.898C661.296 590.879 662.328 590.509 663.218 589.79C664.127 589.089 664.894 587.915 665.519 586.267L666.4 583.909L650.576 539.364H661.485L671.542 572.318H671.996L682.082 539.364H693.019L675.548 588.284C674.733 590.595 673.654 592.574 672.309 594.222C670.964 595.888 669.317 597.157 667.366 598.028C665.434 598.919 663.123 599.364 660.434 599.364Z" fill="#428DFF"/>
</g>
<path d="M126.227 267L105.636 197.182H126.773L136.318 240.136H136.864L148.182 197.182H164.818L176.136 240.273H176.682L186.227 197.182H207.364L186.773 267H168.636L156.773 228H156.227L144.364 267H126.227ZM235.471 237.545V267H216.653V197.182H234.789V224.591H235.335C236.516 221.25 238.482 218.648 241.232 216.784C243.982 214.898 247.289 213.955 251.153 213.955C254.857 213.955 258.073 214.795 260.8 216.477C263.55 218.159 265.675 220.477 267.175 223.432C268.698 226.386 269.448 229.773 269.425 233.591V267H250.607V237.545C250.63 234.955 249.982 232.92 248.664 231.443C247.369 229.966 245.516 229.227 243.107 229.227C241.585 229.227 240.244 229.568 239.085 230.25C237.948 230.909 237.062 231.864 236.425 233.114C235.812 234.341 235.494 235.818 235.471 237.545ZM296.186 267.818C292.845 267.818 289.891 267.273 287.322 266.182C284.777 265.068 282.777 263.386 281.322 261.136C279.868 258.886 279.141 256.023 279.141 252.545C279.141 249.682 279.629 247.239 280.607 245.216C281.584 243.17 282.947 241.5 284.697 240.205C286.447 238.909 288.482 237.92 290.8 237.239C293.141 236.557 295.663 236.114 298.368 235.909C301.3 235.682 303.652 235.409 305.425 235.091C307.22 234.75 308.516 234.284 309.311 233.693C310.107 233.08 310.504 232.273 310.504 231.273V231.136C310.504 229.773 309.982 228.727 308.936 228C307.891 227.273 306.55 226.909 304.913 226.909C303.118 226.909 301.652 227.307 300.516 228.102C299.402 228.875 298.732 230.068 298.504 231.682H281.186C281.413 228.5 282.425 225.568 284.22 222.886C286.038 220.182 288.686 218.023 292.163 216.409C295.641 214.773 299.982 213.955 305.186 213.955C308.936 213.955 312.3 214.398 315.277 215.284C318.254 216.148 320.788 217.364 322.879 218.932C324.97 220.477 326.561 222.295 327.652 224.386C328.766 226.455 329.322 228.705 329.322 231.136V267H311.732V259.636H311.322C310.277 261.591 309.004 263.17 307.504 264.375C306.027 265.58 304.334 266.455 302.425 267C300.538 267.545 298.459 267.818 296.186 267.818ZM302.322 255.955C303.754 255.955 305.095 255.659 306.345 255.068C307.618 254.477 308.652 253.625 309.447 252.511C310.243 251.398 310.641 250.045 310.641 248.455V244.091C310.141 244.295 309.607 244.489 309.038 244.67C308.493 244.852 307.902 245.023 307.266 245.182C306.652 245.341 305.993 245.489 305.288 245.625C304.607 245.761 303.891 245.886 303.141 246C301.686 246.227 300.493 246.602 299.561 247.125C298.652 247.625 297.97 248.25 297.516 249C297.084 249.727 296.868 250.545 296.868 251.455C296.868 252.909 297.379 254.023 298.402 254.795C299.425 255.568 300.732 255.955 302.322 255.955ZM372.421 214.636V228.273H337.921V214.636H372.421ZM344.603 202.091H363.421V250.159C363.421 250.886 363.546 251.5 363.796 252C364.046 252.477 364.433 252.841 364.955 253.091C365.478 253.318 366.149 253.432 366.967 253.432C367.535 253.432 368.194 253.364 368.944 253.227C369.717 253.091 370.285 252.977 370.649 252.886L373.376 266.114C372.535 266.364 371.33 266.67 369.762 267.034C368.217 267.398 366.376 267.636 364.239 267.75C359.921 267.977 356.296 267.534 353.364 266.42C350.433 265.284 348.228 263.5 346.751 261.068C345.274 258.636 344.558 255.591 344.603 251.932V202.091ZM423.667 197.182V267H404.712V197.182H423.667ZM483.666 231.682H466.348C466.257 230.614 465.882 229.693 465.223 228.92C464.564 228.148 463.712 227.557 462.666 227.148C461.644 226.716 460.507 226.5 459.257 226.5C457.644 226.5 456.257 226.795 455.098 227.386C453.939 227.977 453.371 228.818 453.394 229.909C453.371 230.682 453.7 231.398 454.382 232.057C455.087 232.716 456.439 233.227 458.439 233.591L469.075 235.5C474.439 236.477 478.428 238.125 481.041 240.443C483.678 242.739 485.007 245.818 485.03 249.682C485.007 253.409 483.894 256.648 481.689 259.398C479.507 262.125 476.519 264.239 472.723 265.739C468.95 267.216 464.644 267.955 459.803 267.955C451.803 267.955 445.541 266.318 441.019 263.045C436.519 259.773 434.007 255.455 433.485 250.091H452.166C452.416 251.75 453.235 253.034 454.621 253.943C456.03 254.83 457.803 255.273 459.939 255.273C461.666 255.273 463.087 254.977 464.2 254.386C465.337 253.795 465.916 252.955 465.939 251.864C465.916 250.864 465.416 250.068 464.439 249.477C463.485 248.886 461.985 248.409 459.939 248.045L450.666 246.409C445.325 245.477 441.325 243.705 438.666 241.091C436.007 238.477 434.689 235.114 434.712 231C434.689 227.364 435.644 224.284 437.575 221.761C439.53 219.216 442.314 217.284 445.928 215.966C449.564 214.625 453.871 213.955 458.848 213.955C466.416 213.955 472.382 215.523 476.746 218.659C481.132 221.795 483.439 226.136 483.666 231.682ZM531.716 267.818C528.375 267.818 525.421 267.273 522.853 266.182C520.307 265.068 518.307 263.386 516.853 261.136C515.398 258.886 514.671 256.023 514.671 252.545C514.671 249.682 515.159 247.239 516.137 245.216C517.114 243.17 518.478 241.5 520.228 240.205C521.978 238.909 524.012 237.92 526.33 237.239C528.671 236.557 531.193 236.114 533.898 235.909C536.83 235.682 539.182 235.409 540.955 235.091C542.75 234.75 544.046 234.284 544.841 233.693C545.637 233.08 546.034 232.273 546.034 231.273V231.136C546.034 229.773 545.512 228.727 544.466 228C543.421 227.273 542.08 226.909 540.443 226.909C538.648 226.909 537.182 227.307 536.046 228.102C534.932 228.875 534.262 230.068 534.034 231.682H516.716C516.943 228.5 517.955 225.568 519.75 222.886C521.568 220.182 524.216 218.023 527.693 216.409C531.171 214.773 535.512 213.955 540.716 213.955C544.466 213.955 547.83 214.398 550.807 215.284C553.784 216.148 556.318 217.364 558.409 218.932C560.5 220.477 562.091 222.295 563.182 224.386C564.296 226.455 564.853 228.705 564.853 231.136V267H547.262V259.636H546.853C545.807 261.591 544.534 263.17 543.034 264.375C541.557 265.58 539.864 266.455 537.955 267C536.068 267.545 533.989 267.818 531.716 267.818ZM537.853 255.955C539.284 255.955 540.625 255.659 541.875 255.068C543.148 254.477 544.182 253.625 544.978 252.511C545.773 251.398 546.171 250.045 546.171 248.455V244.091C545.671 244.295 545.137 244.489 544.568 244.67C544.023 244.852 543.432 245.023 542.796 245.182C542.182 245.341 541.523 245.489 540.818 245.625C540.137 245.761 539.421 245.886 538.671 246C537.216 246.227 536.023 246.602 535.091 247.125C534.182 247.625 533.5 248.25 533.046 249C532.614 249.727 532.398 250.545 532.398 251.455C532.398 252.909 532.909 254.023 533.932 254.795C534.955 255.568 536.262 255.955 537.853 255.955ZM663.638 223.364H644.411C644.274 221.773 643.911 220.33 643.32 219.034C642.752 217.739 641.956 216.625 640.934 215.693C639.934 214.739 638.718 214.011 637.286 213.511C635.854 212.989 634.229 212.727 632.411 212.727C629.229 212.727 626.536 213.5 624.331 215.045C622.149 216.591 620.49 218.807 619.354 221.693C618.24 224.58 617.684 228.045 617.684 232.091C617.684 236.364 618.252 239.943 619.388 242.83C620.547 245.693 622.218 247.852 624.399 249.307C626.581 250.739 629.206 251.455 632.274 251.455C634.024 251.455 635.593 251.239 636.979 250.807C638.365 250.352 639.57 249.705 640.593 248.864C641.615 248.023 642.445 247.011 643.081 245.83C643.74 244.625 644.184 243.273 644.411 241.773L663.638 241.909C663.411 244.864 662.581 247.875 661.149 250.943C659.718 253.989 657.684 256.807 655.047 259.398C652.434 261.966 649.195 264.034 645.331 265.602C641.468 267.17 636.979 267.955 631.865 267.955C625.456 267.955 619.706 266.58 614.615 263.83C609.547 261.08 605.536 257.034 602.581 251.693C599.649 246.352 598.184 239.818 598.184 232.091C598.184 224.318 599.684 217.773 602.684 212.455C605.684 207.114 609.729 203.08 614.82 200.352C619.911 197.602 625.593 196.227 631.865 196.227C636.274 196.227 640.331 196.83 644.036 198.034C647.74 199.239 650.99 201 653.786 203.318C656.581 205.614 658.831 208.443 660.536 211.807C662.24 215.17 663.274 219.023 663.638 223.364ZM687.97 286.636C685.811 286.636 683.754 286.466 681.799 286.125C679.845 285.807 678.129 285.364 676.652 284.795L680.742 271.432C682.288 271.977 683.697 272.33 684.97 272.489C686.265 272.648 687.367 272.557 688.277 272.216C689.208 271.875 689.879 271.227 690.288 270.273L690.697 269.318L672.288 214.636H691.924L700.379 250.909H700.924L709.515 214.636H729.288L710.197 271.364C709.242 274.25 707.856 276.841 706.038 279.136C704.242 281.455 701.879 283.284 698.947 284.625C696.015 285.966 692.356 286.636 687.97 286.636ZM737.247 267V197.182H756.066V223.773H756.338C757.02 222 758.02 220.375 759.338 218.898C760.657 217.398 762.293 216.205 764.247 215.318C766.202 214.409 768.475 213.955 771.066 213.955C774.52 213.955 777.804 214.875 780.918 216.716C784.054 218.557 786.6 221.455 788.554 225.409C790.532 229.364 791.52 234.5 791.52 240.818C791.52 246.864 790.577 251.875 788.691 255.852C786.827 259.83 784.327 262.795 781.191 264.75C778.077 266.705 774.657 267.682 770.929 267.682C768.475 267.682 766.282 267.284 764.35 266.489C762.441 265.67 760.804 264.568 759.441 263.182C758.1 261.773 757.066 260.182 756.338 258.409H755.929V267H737.247ZM755.657 240.818C755.657 243.364 755.986 245.568 756.645 247.432C757.327 249.273 758.282 250.705 759.509 251.727C760.759 252.727 762.247 253.227 763.975 253.227C765.702 253.227 767.168 252.739 768.372 251.761C769.6 250.761 770.532 249.341 771.168 247.5C771.827 245.636 772.157 243.409 772.157 240.818C772.157 238.227 771.827 236.011 771.168 234.17C770.532 232.307 769.6 230.886 768.372 229.909C767.168 228.909 765.702 228.409 763.975 228.409C762.247 228.409 760.759 228.909 759.509 229.909C758.282 230.886 757.327 232.307 756.645 234.17C755.986 236.011 755.657 238.227 755.657 240.818ZM827.366 267.955C821.775 267.955 816.957 266.886 812.912 264.75C808.889 262.591 805.787 259.5 803.605 255.477C801.446 251.432 800.366 246.591 800.366 240.955C800.366 235.545 801.457 230.818 803.639 226.773C805.821 222.727 808.9 219.58 812.878 217.33C816.855 215.08 821.548 213.955 826.957 213.955C830.912 213.955 834.491 214.568 837.696 215.795C840.9 217.023 843.639 218.807 845.912 221.148C848.184 223.466 849.934 226.284 851.162 229.602C852.389 232.92 853.003 236.659 853.003 240.818V245.182H806.23V234.818H835.684C835.662 233.318 835.275 232 834.525 230.864C833.798 229.705 832.809 228.807 831.559 228.17C830.332 227.511 828.934 227.182 827.366 227.182C825.843 227.182 824.446 227.511 823.173 228.17C821.9 228.807 820.878 229.693 820.105 230.83C819.355 231.966 818.957 233.295 818.912 234.818V246C818.912 247.682 819.264 249.182 819.968 250.5C820.673 251.818 821.684 252.852 823.003 253.602C824.321 254.352 825.912 254.727 827.775 254.727C829.071 254.727 830.253 254.545 831.321 254.182C832.412 253.818 833.343 253.295 834.116 252.614C834.889 251.909 835.457 251.068 835.821 250.091H853.003C852.412 253.727 851.014 256.886 848.809 259.568C846.605 262.227 843.684 264.295 840.048 265.773C836.434 267.227 832.207 267.955 827.366 267.955ZM863.561 267V214.636H881.834V224.591H882.38C883.334 220.909 884.846 218.216 886.914 216.511C889.005 214.807 891.448 213.955 894.243 213.955C895.061 213.955 895.868 214.023 896.664 214.159C897.482 214.273 898.266 214.443 899.016 214.67V230.727C898.084 230.409 896.936 230.17 895.573 230.011C894.209 229.852 893.039 229.773 892.061 229.773C890.221 229.773 888.561 230.193 887.084 231.034C885.63 231.852 884.482 233.011 883.641 234.511C882.8 235.989 882.38 237.727 882.38 239.727V267H863.561ZM126.636 387H106.182L129.227 317.182H155.136L178.182 387H157.727L142.455 336.409H141.909L126.636 387ZM122.818 359.455H161.273V373.636H122.818V359.455ZM216.005 334.636V348.273H181.505V334.636H216.005ZM188.187 322.091H207.005V370.159C207.005 370.886 207.13 371.5 207.38 372C207.63 372.477 208.016 372.841 208.539 373.091C209.062 373.318 209.732 373.432 210.55 373.432C211.119 373.432 211.778 373.364 212.528 373.227C213.3 373.091 213.869 372.977 214.232 372.886L216.96 386.114C216.119 386.364 214.914 386.67 213.346 387.034C211.8 387.398 209.96 387.636 207.823 387.75C203.505 387.977 199.88 387.534 196.948 386.42C194.016 385.284 191.812 383.5 190.335 381.068C188.857 378.636 188.141 375.591 188.187 371.932V322.091ZM257.791 334.636V348.273H223.291V334.636H257.791ZM229.973 322.091H248.791V370.159C248.791 370.886 248.916 371.5 249.166 372C249.416 372.477 249.803 372.841 250.325 373.091C250.848 373.318 251.519 373.432 252.337 373.432C252.905 373.432 253.564 373.364 254.314 373.227C255.087 373.091 255.655 372.977 256.019 372.886L258.746 386.114C257.905 386.364 256.7 386.67 255.132 387.034C253.587 387.398 251.746 387.636 249.609 387.75C245.291 387.977 241.666 387.534 238.734 386.42C235.803 385.284 233.598 383.5 232.121 381.068C230.644 378.636 229.928 375.591 229.973 371.932V322.091ZM282.941 387.818C279.6 387.818 276.646 387.273 274.077 386.182C271.532 385.068 269.532 383.386 268.077 381.136C266.623 378.886 265.896 376.023 265.896 372.545C265.896 369.682 266.384 367.239 267.362 365.216C268.339 363.17 269.702 361.5 271.452 360.205C273.202 358.909 275.237 357.92 277.555 357.239C279.896 356.557 282.418 356.114 285.123 355.909C288.055 355.682 290.407 355.409 292.18 355.091C293.975 354.75 295.271 354.284 296.066 353.693C296.862 353.08 297.259 352.273 297.259 351.273V351.136C297.259 349.773 296.737 348.727 295.691 348C294.646 347.273 293.305 346.909 291.668 346.909C289.873 346.909 288.407 347.307 287.271 348.102C286.157 348.875 285.487 350.068 285.259 351.682H267.941C268.168 348.5 269.18 345.568 270.975 342.886C272.793 340.182 275.441 338.023 278.918 336.409C282.396 334.773 286.737 333.955 291.941 333.955C295.691 333.955 299.055 334.398 302.032 335.284C305.009 336.148 307.543 337.364 309.634 338.932C311.725 340.477 313.316 342.295 314.407 344.386C315.521 346.455 316.077 348.705 316.077 351.136V387H298.487V379.636H298.077C297.032 381.591 295.759 383.17 294.259 384.375C292.782 385.58 291.089 386.455 289.18 387C287.293 387.545 285.214 387.818 282.941 387.818ZM289.077 375.955C290.509 375.955 291.85 375.659 293.1 375.068C294.373 374.477 295.407 373.625 296.202 372.511C296.998 371.398 297.396 370.045 297.396 368.455V364.091C296.896 364.295 296.362 364.489 295.793 364.67C295.248 364.852 294.657 365.023 294.021 365.182C293.407 365.341 292.748 365.489 292.043 365.625C291.362 365.761 290.646 365.886 289.896 366C288.441 366.227 287.248 366.602 286.316 367.125C285.407 367.625 284.725 368.25 284.271 369C283.839 369.727 283.623 370.545 283.623 371.455C283.623 372.909 284.134 374.023 285.157 374.795C286.18 375.568 287.487 375.955 289.077 375.955ZM353.176 387.955C347.494 387.955 342.631 386.83 338.585 384.58C334.54 382.307 331.438 379.148 329.279 375.102C327.119 371.034 326.04 366.318 326.04 360.955C326.04 355.591 327.119 350.886 329.279 346.841C331.438 342.773 334.54 339.614 338.585 337.364C342.631 335.091 347.494 333.955 353.176 333.955C358.313 333.955 362.756 334.886 366.506 336.75C370.279 338.591 373.199 341.205 375.267 344.591C377.335 347.955 378.381 351.909 378.404 356.455H360.949C360.699 353.705 359.904 351.614 358.563 350.182C357.244 348.727 355.54 348 353.449 348C351.813 348 350.381 348.477 349.154 349.432C347.926 350.364 346.972 351.784 346.29 353.693C345.608 355.58 345.267 357.955 345.267 360.818C345.267 363.682 345.608 366.068 346.29 367.977C346.972 369.864 347.926 371.284 349.154 372.239C350.381 373.17 351.813 373.636 353.449 373.636C354.835 373.636 356.063 373.318 357.131 372.682C358.199 372.023 359.063 371.068 359.722 369.818C360.404 368.545 360.813 367 360.949 365.182H378.404C378.335 369.795 377.279 373.818 375.233 377.25C373.188 380.659 370.29 383.295 366.54 385.159C362.813 387.023 358.358 387.955 353.176 387.955ZM405.957 374.591L406.093 352.227H408.548L421.23 334.636H442.366L421.093 362.045H415.775L405.957 374.591ZM389.048 387V317.182H407.866V387H389.048ZM421.366 387L409.366 366.273L421.639 352.909L442.911 387H421.366ZM463.919 365.182V363.545C463.919 359.795 464.215 356.807 464.806 354.58C465.396 352.352 466.271 350.568 467.431 349.227C468.59 347.864 470.01 346.636 471.692 345.545C473.146 344.591 474.442 343.67 475.578 342.784C476.737 341.898 477.646 340.955 478.306 339.955C478.987 338.955 479.328 337.818 479.328 336.545C479.328 335.409 479.056 334.409 478.51 333.545C477.965 332.682 477.226 332.011 476.294 331.534C475.362 331.057 474.328 330.818 473.192 330.818C471.965 330.818 470.828 331.102 469.783 331.67C468.76 332.239 467.931 333.023 467.294 334.023C466.681 335.023 466.374 336.182 466.374 337.5H448.919C448.965 332.5 450.101 328.443 452.328 325.33C454.556 322.193 457.51 319.898 461.192 318.443C464.874 316.966 468.919 316.227 473.328 316.227C478.192 316.227 482.533 316.943 486.351 318.375C490.169 319.784 493.181 321.92 495.385 324.784C497.59 327.625 498.692 331.182 498.692 335.455C498.692 338.205 498.215 340.625 497.26 342.716C496.328 344.784 495.021 346.614 493.34 348.205C491.681 349.773 489.737 351.205 487.51 352.5C485.874 353.455 484.499 354.443 483.385 355.466C482.271 356.466 481.431 357.614 480.862 358.909C480.294 360.182 480.01 361.727 480.01 363.545V365.182H463.919ZM472.237 388.091C469.601 388.091 467.34 387.17 465.453 385.33C463.59 383.466 462.669 381.205 462.692 378.545C462.669 375.955 463.59 373.739 465.453 371.898C467.34 370.057 469.601 369.136 472.237 369.136C474.737 369.136 476.942 370.057 478.851 371.898C480.783 373.739 481.76 375.955 481.783 378.545C481.76 380.318 481.294 381.932 480.385 383.386C479.499 384.818 478.34 385.966 476.908 386.83C475.476 387.67 473.919 388.091 472.237 388.091Z" fill="white"/>
<path d="M1023.7 674.308V769.591L1109.64 820.849L1194.5 770.065V674.071L1109.64 623.316L1023.7 674.308Z" fill="white" fill-opacity="0.15" stroke="white" stroke-width="4"/>
<path d="M1188.55 676.752V767.621L1108.91 815.099L1029.27 767.621V676.752L1108.91 629.273L1188.55 676.752ZM1115.55 617.778C1113.53 616.613 1111.24 616 1108.91 616C1106.58 616 1104.29 616.613 1102.28 617.778L1022.64 665.257C1020.62 666.422 1018.94 668.097 1017.78 670.115C1016.61 672.133 1016 674.422 1016 676.752V767.621C1016 769.951 1016.61 772.24 1017.78 774.257C1018.94 776.275 1020.62 777.951 1022.64 779.115L1102.28 826.594C1104.29 827.759 1106.58 828.372 1108.91 828.372C1111.24 828.372 1113.53 827.759 1115.55 826.594L1195.19 779.115C1197.21 777.951 1198.88 776.275 1200.05 774.257C1201.21 772.24 1201.83 769.951 1201.83 767.621V676.752C1201.83 674.422 1201.21 672.133 1200.05 670.115C1198.88 668.097 1197.21 666.422 1195.19 665.257L1115.55 617.778Z" fill="white" fill-opacity="0.15"/>
<g opacity="0.8">
<path d="M1105.62 775.372L1059.3 748.826V695.732L1105.62 722.279V775.372Z" fill="white"/>
<path d="M1151.95 748.826L1105.62 775.372V722.279L1151.95 695.732V748.826Z" fill="#EBEBEB"/>
<path d="M1105.62 721.744L1059.3 695.333L1105.62 668.922L1151.94 695.333L1105.62 721.744Z" fill="#FBFBFB"/>
<path d="M1105.62 721.896L1061.31 696.863L1059.3 698.011L1105.62 724.175L1151.94 698.011V695.732L1105.62 721.896Z" fill="white"/>
</g>
<path d="M743.656 951.692V1145.65L918.601 1249.99L1091.36 1146.62V951.209L918.601 847.893L743.656 951.692Z" fill="white" fill-opacity="0.15" stroke="white" stroke-width="4"/>
<path d="M1079.25 956.667V1141.64L917.136 1238.29L755.019 1141.64V956.667L917.136 860.019L1079.25 956.667ZM930.646 836.62C926.538 834.248 921.879 833 917.136 833C912.393 833 907.734 834.248 903.626 836.62L741.51 933.268C737.402 935.64 733.992 939.051 731.62 943.158C729.249 947.265 728 951.925 728 956.667V1141.64C728 1146.39 729.249 1151.04 731.62 1155.15C733.992 1159.26 737.402 1162.67 741.51 1165.04L903.626 1261.69C907.734 1264.06 912.393 1265.31 917.136 1265.31C921.879 1265.31 926.538 1264.06 930.646 1261.69L1092.76 1165.04C1096.87 1162.67 1100.28 1159.26 1102.65 1155.15C1105.02 1151.04 1106.27 1146.39 1106.27 1141.64V956.667C1106.27 951.925 1105.02 947.265 1102.65 943.158C1100.28 939.051 1096.87 935.64 1092.76 933.268L930.646 836.62Z" fill="white" fill-opacity="0.15"/>
<path d="M972.496 1043.68H985.275C987.119 1043.68 988.627 1042.18 988.627 1040.36V987.62H992.943C994.326 991.648 998.222 994.596 1002.75 994.596C1008.45 994.596 1013.14 989.987 1013.14 984.298C1013.14 978.609 1008.49 974 1002.75 974C998.222 974 994.326 976.907 992.943 980.976H985.275C983.432 980.976 981.924 982.471 981.924 984.298V1037.03H972.496C970.653 1037.03 969.145 1038.53 969.145 1040.36C969.145 1042.18 970.653 1043.68 972.496 1043.68Z" fill="white"/>
<path d="M1005.78 1043C1001.26 1043 997.359 1045.91 995.976 1049.98H989.356C987.513 1049.98 986.004 1051.47 986.004 1053.3V1066.3H971.633C969.79 1066.3 968.281 1067.79 968.281 1069.62C968.281 1071.44 969.79 1072.94 971.633 1072.94H989.356C991.2 1072.94 992.708 1071.44 992.708 1069.62V1056.62H995.976C997.359 1060.65 1001.26 1063.6 1005.78 1063.6C1011.48 1063.6 1016.17 1058.99 1016.17 1053.3C1016.17 1047.61 1011.52 1043 1005.78 1043Z" fill="white"/>
<path d="M1001.77 1101.44C997.24 1101.44 993.343 1104.34 991.961 1108.41H989.405V1096.37C989.405 1094.54 987.897 1093.05 986.053 1093.05H972.981C971.137 1093.05 969.629 1094.54 969.629 1096.37C969.629 1098.2 971.137 1099.69 972.981 1099.69H982.743V1111.74C982.743 1113.56 984.251 1115.06 986.095 1115.06H992.003C993.385 1119.08 997.282 1122.03 1001.81 1122.03C1007.51 1122.03 1012.2 1117.42 1012.2 1111.74C1012.2 1106.05 1007.51 1101.44 1001.77 1101.44Z" fill="white"/>
<path d="M830.391 994.596C834.916 994.596 838.812 991.69 840.195 987.62H844.511V1040.36C844.511 1042.18 846.019 1043.68 847.863 1043.68H860.642C862.485 1043.68 863.993 1042.18 863.993 1040.36C863.993 1038.53 862.485 1037.03 860.642 1037.03H851.214V984.298C851.214 982.471 849.706 980.976 847.863 980.976H840.195C838.812 976.948 834.916 974 830.391 974C824.693 974 820 978.609 820 984.298C820 989.987 824.651 994.596 830.391 994.596Z" fill="white"/>
<path d="M867.58 1066.3H853.167V1053.3C853.167 1051.47 851.659 1049.98 849.815 1049.98H843.195C841.812 1045.95 837.916 1043 833.391 1043C827.693 1043 823 1047.61 823 1053.3C823 1058.99 827.651 1063.6 833.391 1063.6C837.916 1063.6 841.812 1060.69 843.195 1056.62H846.463V1069.62C846.463 1071.44 847.972 1072.94 849.815 1072.94H867.538C869.382 1072.94 870.89 1071.44 870.89 1069.62C870.89 1067.79 869.424 1066.3 867.58 1066.3Z" fill="white"/>
<path d="M858.175 1093H845.103C843.259 1093 841.751 1094.49 841.751 1096.32V1108.36H839.195C837.812 1104.34 833.916 1101.39 829.391 1101.39C823.693 1101.39 819 1106 819 1111.69C819 1117.38 823.651 1121.98 829.391 1121.98C833.916 1121.98 837.812 1119.08 839.195 1115.01H845.103C846.946 1115.01 848.455 1113.51 848.455 1111.69V1099.64H858.175C860.019 1099.64 861.527 1098.15 861.527 1096.32C861.527 1094.49 860.019 1093 858.175 1093Z" fill="white"/>
<path fill-rule="evenodd" clip-rule="evenodd" d="M972 1033H952.4C948.9 1027.4 944.7 1022.5 939.8 1019L951 1007.8L941.2 998L925.8 1013.4C923 1012.7 919.5 1012 916 1012C912.5 1012 909 1012.7 906.2 1013.4L890.8 998L881 1007.8L892.2 1019C887.3 1022.5 883.1 1027.4 879.6 1033H860V1047H874.7C874 1049.1 874 1051.9 874 1054V1061H860V1075H874V1082C874 1084.1 874 1086.9 874.7 1089H860V1103H879.6C886.6 1115.6 900.6 1124 916 1124C931.4 1124 945.4 1115.6 952.4 1103H972V1089H957.3C958 1086.9 958 1084.1 958 1082V1075H972V1061H958V1054C958 1051.9 958 1049.1 957.3 1047H972V1033ZM930 1089H902V1075H930V1089ZM930 1061H902V1047H930V1061Z" fill="white"/>
<defs>
<filter id="filter0_d_3057_1415" x="64" y="464" width="711" height="212" filterUnits="userSpaceOnUse" color-interpolation-filters="sRGB">
<feFlood flood-opacity="0" result="BackgroundImageFix"/>
<feColorMatrix in="SourceAlpha" type="matrix" values="0 0 0 0 0 0 0 0 0 0 0 0 0 0 0 0 0 0 127 0" result="hardAlpha"/>
<feOffset dy="16"/>
<feGaussianBlur stdDeviation="20"/>
<feComposite in2="hardAlpha" operator="out"/>
<feColorMatrix type="matrix" values="0 0 0 0 0 0 0 0 0 0 0 0 0 0 0 0 0 0 0.05 0"/>
<feBlend mode="normal" in2="BackgroundImageFix" result="effect1_dropShadow_3057_1415"/>
<feBlend mode="normal" in="SourceGraphic" in2="effect1_dropShadow_3057_1415" result="shape"/>
</filter>
<radialGradient id="paint0_radial_3057_1415" cx="0" cy="0" r="1" gradientUnits="userSpaceOnUse" gradientTransform="translate(-355.2 -322.136) rotate(36.5012) scale(2238.73 3337.02)">
<stop offset="0.120942" stop-color="#321179"/>
<stop offset="1" stop-color="#160E2B"/>
</radialGradient>
</defs>
</svg>
