<svg width="66" height="66" viewBox="0 0 66 66" fill="none" xmlns="http://www.w3.org/2000/svg">
<path d="M9.44977 48.8484C9.26525 48.8491 9.0834 48.8043 8.92036 48.7178C8.75731 48.6314 8.61811 48.5061 8.51509 48.3531C5.58113 43.7261 4.019 38.362 4.0099 32.8832C3.99674 28.5869 4.95534 24.3432 6.81396 20.4698C6.94592 20.2218 7.16544 20.0318 7.42979 19.9368C7.69413 19.8418 7.98439 19.8485 8.24403 19.9557C8.37463 19.9955 8.49492 20.0634 8.59647 20.1547C8.69801 20.2459 8.77833 20.3583 8.83179 20.4839C8.88524 20.6095 8.91054 20.7454 8.90588 20.8818C8.90122 21.0182 8.86673 21.152 8.80484 21.2737C7.05764 24.894 6.15328 28.8632 6.15968 32.8832C6.16886 38.0079 7.63051 43.0251 10.3751 47.3529C10.4493 47.4655 10.4983 47.593 10.5186 47.7263C10.539 47.8597 10.5302 47.9959 10.4929 48.1256C10.4556 48.2553 10.3906 48.3753 10.3026 48.4775C10.2145 48.5797 10.1053 48.6616 9.98255 48.7176C9.81786 48.8028 9.63523 48.8477 9.44977 48.8484Z" fill="#D7E9F7"/>
<path d="M56.958 48.8482C56.7692 48.8505 56.5829 48.8055 56.4159 48.7173C56.2932 48.6613 56.184 48.5794 56.0959 48.4772C56.0078 48.375 55.9429 48.255 55.9056 48.1253C55.8683 47.9957 55.8595 47.8595 55.8798 47.7261C55.9001 47.5927 55.9491 47.4653 56.0233 47.3526C58.7646 43.0238 60.223 38.0067 60.2294 32.8829C60.2345 28.8641 59.3336 24.8959 57.5936 21.2734C57.5316 21.1523 57.4967 21.0191 57.4914 20.8832C57.4862 20.7472 57.5107 20.6118 57.5632 20.4863C57.6157 20.3608 57.695 20.2483 57.7955 20.1566C57.896 20.0649 58.0153 19.9962 58.1451 19.9554C58.4061 19.8477 58.6977 19.8406 58.9637 19.9356C59.2296 20.0305 59.4508 20.2208 59.5845 20.4695C61.4431 24.3429 62.4017 28.5866 62.3885 32.8829C62.3766 38.3627 60.8113 43.7268 57.874 48.3528C57.7745 48.505 57.6387 48.63 57.4788 48.7165C57.3188 48.803 57.1398 48.8483 56.958 48.8482Z" fill="#D7E9F7"/>
<path d="M52.5589 13.1039C52.3208 13.108 52.0901 13.0211 51.914 12.8609C46.636 8.34894 39.9207 5.86976 32.9772 5.86976C26.0337 5.86976 19.3184 8.34894 14.0405 12.8609C13.8466 13.0278 13.596 13.1141 13.3404 13.1019C13.0849 13.0898 12.8437 12.9801 12.6665 12.7955C12.5008 12.6118 12.4147 12.37 12.4269 12.123C12.4392 11.8759 12.5489 11.6438 12.7319 11.4775C18.3718 6.65186 25.5501 4 32.9725 4C40.395 4 47.5733 6.65186 53.2132 11.4775C53.3975 11.6425 53.509 11.874 53.523 12.121C53.537 12.3681 53.4525 12.6106 53.2879 12.7955C53.1938 12.8938 53.0806 12.9719 52.9552 13.0249C52.8299 13.078 52.695 13.1048 52.5589 13.1039Z" fill="#D7E9F7"/>
<path d="M32.976 61.9534C26.419 61.9874 20.0171 59.9601 14.6748 56.158C14.5759 56.085 14.4923 55.9933 14.4289 55.888C14.3655 55.7827 14.3235 55.6659 14.3053 55.5444C14.287 55.4228 14.293 55.2988 14.3227 55.1796C14.3524 55.0603 14.4054 54.9481 14.4785 54.8494C14.6417 54.6505 14.874 54.5207 15.1288 54.4861C15.3837 54.4514 15.6422 54.5144 15.8525 54.6624C20.864 58.19 26.8428 60.0833 32.9713 60.0833C39.0997 60.0833 45.0786 58.19 50.0901 54.6624C50.3019 54.5138 50.5619 54.4504 50.8183 54.4851C51.0747 54.5197 51.3086 54.6499 51.4734 54.8494C51.5466 54.9481 51.5995 55.0603 51.6292 55.1796C51.659 55.2988 51.6649 55.4228 51.6467 55.5444C51.6284 55.6659 51.5864 55.7827 51.523 55.888C51.4596 55.9933 51.376 56.085 51.2771 56.158C45.9342 59.9589 39.5327 61.9861 32.976 61.9534Z" fill="#D7E9F7"/>
<path d="M29.7975 21.2549C29.6573 21.4886 29.5265 21.7409 29.3956 22.0027L29.3115 22.1989C29.1786 22.473 29.06 22.7538 28.9563 23.0402V23.0963C28.8442 23.4047 28.732 23.7412 28.6292 24.0871C28.5988 24.1663 28.5738 24.2475 28.5544 24.3301C28.4516 24.676 28.3488 25.0405 28.2647 25.4144H23.4043C25.0378 23.382 27.2777 21.9247 29.7975 21.2549Z" fill="#F5F5F5"/>
<path d="M42.5474 25.4988H37.7712C37.687 25.1249 37.5842 24.7603 37.4814 24.4145C37.4608 24.3291 37.4358 24.2449 37.4066 24.1621C37.3038 23.8256 37.1917 23.4891 37.0795 23.2274V23.162C36.9673 22.8722 36.8458 22.5918 36.7243 22.3301L36.6402 22.1338C36.5093 21.8721 36.3785 21.6197 36.2383 21.386C38.7214 22.0594 40.9291 23.4986 42.5474 25.4988Z" fill="#F5F5F5"/>
<path d="M35.8355 25.4986H30.1152C30.1152 25.4986 30.1152 25.4239 30.1152 25.3865L30.2554 24.9285C30.3209 24.7041 30.3863 24.4704 30.4611 24.2554L30.62 23.8348C30.6854 23.6478 30.7602 23.4609 30.8349 23.2833L31.0032 22.9188C31.0735 22.7654 31.1515 22.6156 31.2369 22.4701L31.4051 22.171C31.4799 22.0401 31.564 21.9279 31.6388 21.8158C31.6903 21.7377 31.7465 21.6628 31.807 21.5914C31.8864 21.4968 31.9707 21.4063 32.0594 21.3203L32.2089 21.1708C32.291 21.1043 32.3785 21.0449 32.4706 20.9932L32.5922 20.909C32.7057 20.8537 32.8304 20.825 32.9567 20.825C33.083 20.825 33.2077 20.8537 33.3212 20.909L33.4427 20.9932C33.5348 21.0449 33.6224 21.1043 33.7044 21.1708L33.854 21.3203C33.9427 21.4063 34.0269 21.4968 34.1063 21.5914C34.1669 21.6628 34.2231 21.7377 34.2746 21.8158C34.3494 21.9279 34.4335 22.0401 34.5083 22.171L34.6765 22.4701C34.7637 22.6178 34.8418 22.7708 34.9102 22.9281C34.9663 23.0403 35.0223 23.1524 35.0784 23.2833L35.3027 23.8441L35.4523 24.2554C35.5271 24.4704 35.5925 24.7134 35.6673 24.9471C35.742 25.1808 35.7514 25.2276 35.7981 25.3865C35.8449 25.5454 35.8262 25.4612 35.8355 25.4986Z" fill="#F5F5F5"/>
<path d="M27.8065 27.3682C27.802 27.4522 27.802 27.5365 27.8065 27.6206C27.8065 27.7982 27.7504 27.9851 27.7317 28.172C27.713 28.359 27.6383 28.8263 27.6102 29.1629C27.5822 29.4994 27.5635 29.5461 27.5541 29.7424C27.5541 30.0976 27.4981 30.4622 27.47 30.8267V31.3502C27.47 31.883 27.47 32.4251 27.47 32.9766C27.47 33.7151 27.47 34.4535 27.5448 35.1826C27.5448 35.3976 27.5448 35.6126 27.5448 35.8276C27.5448 36.0426 27.5448 36.4258 27.6102 36.7623H21.3852C20.8902 35.2299 20.7047 33.6145 20.8395 32.0098C20.9743 30.4051 21.4267 28.8432 22.1703 27.4149L27.8065 27.3682Z" fill="#F5F5F5"/>
<path d="M29.7971 44.6888C28.1829 44.242 26.6774 43.4691 25.3737 42.4176C24.0699 41.3662 22.9955 40.0586 22.2168 38.5757H27.8249C27.8249 38.7439 27.8903 38.9122 27.9184 39.0804C27.9464 39.2487 27.9184 39.3048 27.9838 39.417C28.0492 39.5291 28.0492 39.7348 28.0773 39.8843L28.1614 40.2582L28.2736 40.6975C28.2736 40.8191 28.3296 40.9499 28.367 41.0714C28.4044 41.1929 28.4512 41.3705 28.4979 41.5201C28.5446 41.6697 28.5633 41.7538 28.6007 41.8659C28.6381 41.9781 28.6848 42.1183 28.7316 42.2398C28.8624 42.623 28.9933 43.0063 29.1522 43.3615C29.2082 43.5017 29.2737 43.6419 29.3391 43.7728C29.4045 43.9036 29.4232 43.9597 29.4606 44.0438C29.498 44.128 29.6102 44.3056 29.6756 44.4365L29.7971 44.6888Z" fill="#F5F5F5"/>
<path d="M43.7424 38.5847C42.9637 40.0677 41.8893 41.3752 40.5856 42.4267C39.2818 43.4781 37.7763 44.251 36.1621 44.6978L36.293 44.4641C36.3584 44.3333 36.4332 44.2024 36.5079 44.0716C36.5827 43.9407 36.5827 43.894 36.6295 43.8005C36.6762 43.707 36.7603 43.5294 36.8164 43.3892C36.9753 43.034 37.1061 42.6508 37.237 42.2676C37.2837 42.146 37.3305 42.0245 37.3679 41.8936C37.4052 41.7628 37.4333 41.66 37.4707 41.5478C37.5081 41.4356 37.5641 41.2487 37.6015 41.0991C37.6389 40.9496 37.667 40.8467 37.695 40.7252L37.8072 40.2859L37.8913 39.912C37.8913 39.7625 37.9567 39.6036 37.9848 39.4447C38.0128 39.2857 37.9848 39.2203 38.0502 39.1082C38.1156 38.996 38.1156 38.7717 38.1436 38.6034H43.7518L43.7424 38.5847Z" fill="#F5F5F5"/>
<path d="M36.2475 38.5847C36.2475 38.7249 36.1914 38.8651 36.1727 39.0054C36.154 39.1456 36.1727 39.211 36.1073 39.3138C36.0418 39.4166 36.0325 39.6971 35.9858 39.884C35.939 40.071 35.9858 40.0148 35.939 40.0709C35.8829 40.3233 35.8175 40.557 35.7614 40.7813C35.7573 40.8248 35.7573 40.8687 35.7614 40.9122C35.7053 41.0991 35.6493 41.2767 35.6025 41.445C35.5558 41.6132 35.6025 41.5758 35.5278 41.6506L35.3876 42.0526C35.3683 42.1231 35.3433 42.1918 35.3128 42.2582L35.1726 42.6041L35.0885 42.8004L34.9483 43.1088L34.8548 43.2864L34.7146 43.5481C34.6893 43.6073 34.658 43.6637 34.6211 43.7164L34.4809 43.9407C34.4809 43.9968 34.4155 44.0436 34.3874 44.0903L34.2472 44.2772L34.1538 44.4081L34.0136 44.567L33.9108 44.6605L33.7705 44.7913L33.6771 44.8661L33.5369 44.9596H33.4528L33.3032 45.025H33.2284C33.0875 45.0623 32.9394 45.0623 32.7985 45.025H32.7237L32.5742 44.9596H32.49L32.3498 44.8661L32.2564 44.7913L32.1162 44.6605L32.0133 44.567L31.8731 44.4081L31.7797 44.2772L31.6395 44.0903C31.6395 44.0903 31.574 43.9968 31.546 43.9407L31.4058 43.7164C31.3689 43.6637 31.3376 43.6073 31.3123 43.5481L31.1721 43.2864L31.0787 43.1088L30.9385 42.8004L30.8543 42.6041L30.7141 42.2582C30.6836 42.1918 30.6586 42.1231 30.6394 42.0526L30.4991 41.6506C30.4991 41.5758 30.4991 41.5104 30.4244 41.445C30.3496 41.3796 30.3216 41.0991 30.2655 40.9122C30.2696 40.8687 30.2696 40.8248 30.2655 40.7813C30.2094 40.557 30.144 40.3233 30.0879 40.0709C30.0879 40.0148 30.0879 39.9401 30.0879 39.884C30.0879 39.8279 30.0038 39.5101 29.9664 39.3138C29.929 39.1175 29.9664 39.1082 29.9009 39.0054C29.8355 38.9025 29.9009 38.7249 29.8262 38.5847H36.2475Z" fill="#F5F5F5"/>
<path d="M36.7138 32.9766C36.7138 33.687 36.7138 34.3974 36.6484 35.0985L36.5923 35.7527C36.5923 36.0799 36.5269 36.3977 36.4988 36.6875H29.4513C29.4513 36.3697 29.3859 36.0519 29.3578 35.7527L29.3018 35.0985C29.3018 34.3974 29.2363 33.687 29.2363 32.9766C29.2363 32.4438 29.2363 31.9203 29.2363 31.3969V30.9108C29.2363 30.5556 29.2363 30.2004 29.3111 29.8545L29.3672 29.2937C29.3672 28.9853 29.442 28.6674 29.4887 28.359C29.5354 28.0505 29.5354 27.9851 29.5635 27.8075L29.6476 27.3682H36.1904L36.2745 27.8075C36.2745 27.9851 36.3306 28.172 36.3493 28.359C36.368 28.5459 36.4334 28.9853 36.4708 29.2937L36.5269 29.8452C36.5269 30.1911 36.583 30.5462 36.6017 30.9014V31.3875C36.7045 31.9203 36.7138 32.4438 36.7138 32.9766Z" fill="#F5F5F5"/>
<path d="M46.0609 32.9765C46.0631 34.2565 45.822 35.5254 45.3506 36.7154H37.9479C37.9479 36.4257 37.9479 36.1266 38.032 35.7807C38.1161 35.4348 38.032 35.3507 38.0881 35.1357C38.1442 34.4066 38.1722 33.6682 38.1722 32.9297C38.1722 32.3782 38.1722 31.8361 38.1722 31.3033C38.1722 31.1257 38.1722 30.9574 38.1722 30.7798C38.1722 30.4153 38.1161 30.0507 38.0694 29.6955C38.0614 29.501 38.0396 29.3073 38.0039 29.116C38.0039 28.7795 37.9105 28.4523 37.8544 28.1252C37.7983 27.798 37.7983 27.7512 37.7703 27.5736C37.7422 27.396 37.7703 27.4054 37.7703 27.3213H44.5281C45.5616 29.0243 46.093 30.9846 46.0609 32.9765Z" fill="#F5F5F5"/>
<path d="M57.2761 9.60814V11.4776C57.2761 12.2213 56.9807 12.9346 56.4548 13.4605C55.9289 13.9864 55.2157 14.2818 54.472 14.2818C53.7283 14.2818 53.0151 13.9864 52.4893 13.4605C51.9634 12.9346 51.668 12.2213 51.668 11.4776V9.60814C51.668 8.86443 51.9634 8.15115 52.4893 7.62527C53.0151 7.09938 53.7283 6.80396 54.472 6.80396C55.2157 6.80396 55.9289 7.09938 56.4548 7.62527C56.9807 8.15115 57.2761 8.86443 57.2761 9.60814Z" fill="#E3E7F2"/>
<path d="M59.1476 18.0207V20.825C59.1476 21.0729 59.0492 21.3106 58.8739 21.4859C58.6986 21.6612 58.4608 21.7597 58.213 21.7597H50.7355C50.4876 21.7597 50.2498 21.6612 50.0745 21.4859C49.8993 21.3106 49.8008 21.0729 49.8008 20.825V18.0207C49.8015 17.4898 49.9152 16.9652 50.1343 16.4817C50.3535 15.9982 50.6731 15.5669 51.072 15.2165C51.351 14.9703 51.6662 14.7685 52.0066 14.6182C52.4874 14.3969 53.0103 14.2822 53.5395 14.2817H55.4089C56.4005 14.2817 57.3514 14.6757 58.0526 15.3769C58.7537 16.0781 59.1476 17.0291 59.1476 18.0207Z" fill="#BFCEF4"/>
<path d="M14.2819 9.60814V11.4776C14.2819 12.2213 13.9865 12.9346 13.4607 13.4605C12.9348 13.9864 12.2216 14.2818 11.4779 14.2818C10.7342 14.2818 10.021 13.9864 9.49512 13.4605C8.96925 12.9346 8.67383 12.2213 8.67383 11.4776V9.60814C8.67383 8.86443 8.96925 8.15115 9.49512 7.62527C10.021 7.09938 10.7342 6.80396 11.4779 6.80396C12.2216 6.80396 12.9348 7.09938 13.4607 7.62527C13.9865 8.15115 14.2819 8.86443 14.2819 9.60814Z" fill="#E3E7F2"/>
<path d="M16.1496 18.0207V21.7597H6.80273V18.0207C6.80423 17.3015 7.01313 16.5979 7.40438 15.9945C7.79563 15.391 8.35263 14.9131 9.00859 14.6182C9.48935 14.3969 10.0122 14.2822 10.5415 14.2817H12.4109C13.4024 14.2817 14.3534 14.6757 15.0545 15.3769C15.7557 16.0781 16.1496 17.0291 16.1496 18.0207Z" fill="#BFCEF4"/>
<path d="M57.2761 46.9976V48.8671C57.2761 49.6108 56.9807 50.3241 56.4548 50.8499C55.9289 51.3758 55.2157 51.6713 54.472 51.6713C53.7283 51.6713 53.0151 51.3758 52.4893 50.8499C51.9634 50.3241 51.668 49.6108 51.668 48.8671V46.9976C51.668 46.2539 51.9634 45.5406 52.4893 45.0147C53.0151 44.4888 53.7283 44.1934 54.472 44.1934C55.2157 44.1934 55.9289 44.4888 56.4548 45.0147C56.9807 45.5406 57.2761 46.2539 57.2761 46.9976Z" fill="#E3E7F2"/>
<path d="M59.1476 55.4101V58.2144C59.1476 58.4623 59.0492 58.7 58.8739 58.8753C58.6986 59.0506 58.4608 59.1491 58.213 59.1491H50.7355C50.4876 59.1491 50.2498 59.0506 50.0745 58.8753C49.8993 58.7 49.8008 58.4623 49.8008 58.2144V55.4101C49.8015 54.8792 49.9152 54.3546 50.1343 53.8711C50.3535 53.3876 50.6731 52.9563 51.072 52.6059C51.351 52.3597 51.6662 52.1579 52.0066 52.0076C52.4874 51.7863 53.0103 51.6716 53.5395 51.6711H55.4089C56.4005 51.6711 57.3514 52.0651 58.0526 52.7663C58.7537 53.4675 59.1476 54.4185 59.1476 55.4101Z" fill="#BFCEF4"/>
<path d="M14.2819 46.9976V48.8671C14.2819 49.6108 13.9865 50.3241 13.4607 50.8499C12.9348 51.3758 12.2216 51.6713 11.4779 51.6713C10.7342 51.6713 10.021 51.3758 9.49512 50.8499C8.96925 50.3241 8.67383 49.6108 8.67383 48.8671V46.9976C8.67383 46.2539 8.96925 45.5406 9.49512 45.0147C10.021 44.4888 10.7342 44.1934 11.4779 44.1934C12.2216 44.1934 12.9348 44.4888 13.4607 45.0147C13.9865 45.5406 14.2819 46.2539 14.2819 46.9976Z" fill="#E3E7F2"/>
<path d="M16.1496 55.4101V58.2144C16.1496 58.4623 16.0511 58.7 15.8758 58.8753C15.7005 59.0506 15.4628 59.1491 15.2149 59.1491H7.73742C7.48953 59.1491 7.25178 59.0506 7.0765 58.8753C6.90121 58.7 6.80273 58.4623 6.80273 58.2144V55.4101C6.80341 54.8792 6.91711 54.3546 7.13629 53.8711C7.35547 53.3876 7.6751 52.9563 8.07391 52.6059C8.35294 52.3597 8.66819 52.1579 9.00859 52.0076C9.48935 51.7863 10.0122 51.6716 10.5415 51.6711H12.4109C13.4024 51.6711 14.3534 52.0651 15.0545 52.7663C15.7557 53.4675 16.1496 54.4185 16.1496 55.4101Z" fill="#BFCEF4"/>
<path d="M56.3436 56.3449V58.2143H50.7355C50.4071 58.2138 50.0848 58.1267 49.8008 57.9619V55.4101C49.8015 54.8793 49.9152 54.3546 50.1343 53.8711C50.3535 53.3876 50.6731 52.9563 51.072 52.606H52.6048C53.5964 52.606 54.5474 52.9999 55.2485 53.7011C55.9497 54.4022 56.3436 55.3533 56.3436 56.3449Z" fill="#E3E7F2"/>
<path d="M13.3455 56.3449V58.2143H7.73742C7.4091 58.2138 7.08673 58.1267 6.80273 57.9619V55.4101C6.80341 54.8793 6.91711 54.3546 7.13629 53.8711C7.35547 53.3876 7.6751 52.9563 8.07391 52.606H9.60679C10.5984 52.606 11.5493 52.9999 12.2505 53.7011C12.9516 54.4022 13.3455 55.3533 13.3455 56.3449Z" fill="#E3E7F2"/>
<path d="M8.07391 15.2166H9.60679C10.5984 15.2166 11.5493 15.6105 12.2505 16.3117C12.9516 17.0129 13.3455 17.9639 13.3455 18.9555V20.825H7.73742C7.4091 20.8244 7.08673 20.7374 6.80273 20.5726L8.07391 15.2166Z" fill="#E3E7F2"/>
<path d="M56.3436 18.9555V20.825H50.7355C50.4071 20.8244 50.0848 20.7374 49.8008 20.5726V18.0208C49.8015 17.4899 49.9152 16.9653 50.1343 16.4817C50.3535 15.9982 50.6731 15.5669 51.072 15.2166H52.6048C53.5964 15.2166 54.5474 15.6105 55.2485 16.3117C55.9497 17.0129 56.3436 17.9639 56.3436 18.9555Z" fill="#E3E7F2"/>
<path d="M45.9586 34.8365C45.8383 34.8105 45.714 34.8085 45.5929 34.8306C45.4718 34.8527 45.3563 34.8984 45.2529 34.9653C45.1496 35.0322 45.0604 35.1188 44.9907 35.2202C44.9209 35.3216 44.8718 35.4359 44.8463 35.5563C44.7715 35.9022 44.6781 36.248 44.5659 36.6032V36.7154H38.3876C38.519 35.4734 38.5845 34.2253 38.5839 32.9764C38.5838 31.0976 38.4307 29.2219 38.1259 27.368H43.734C43.8088 27.5082 43.8929 27.6484 43.9583 27.7886C44.0612 28.0179 44.251 28.197 44.4859 28.2864C44.7208 28.3758 44.9815 28.3682 45.2108 28.2654C45.4401 28.1625 45.6192 27.9727 45.7086 27.7378C45.798 27.5029 45.7904 27.2421 45.6875 27.0128C45.5193 26.6576 45.3323 26.3024 45.1361 25.9659C43.5949 23.2884 41.2126 21.1949 38.3593 20.0107C35.5061 18.8264 32.3416 18.6178 29.3576 19.4172C26.3735 20.2165 23.737 21.979 21.8577 24.431C19.9784 26.883 18.9614 29.887 18.9649 32.9764C18.9665 33.4416 18.9914 33.9065 19.0396 34.3692C19.1139 35.1822 19.2641 35.9865 19.4883 36.7715C19.6014 37.1842 19.7388 37.59 19.8995 37.9866C20.9169 40.6317 22.7119 42.9064 25.0479 44.5108C27.3839 46.1152 30.1513 46.974 32.9851 46.974C35.819 46.974 38.5863 46.1152 40.9223 44.5108C43.2583 42.9064 45.0534 40.6317 46.0707 37.9866C46.3262 37.3235 46.5324 36.6424 46.6876 35.9489C46.7136 35.8279 46.7153 35.703 46.6926 35.5814C46.6699 35.4598 46.6233 35.3439 46.5555 35.2404C46.4876 35.1369 46.4 35.048 46.2975 34.9787C46.195 34.9093 46.0798 34.861 45.9586 34.8365ZM36.7145 32.9671C36.7165 34.2163 36.6478 35.4646 36.5089 36.706H29.4333C29.3024 35.464 29.2369 34.216 29.237 32.9671C29.2283 31.0875 29.3847 29.2108 29.7044 27.3586H36.2472C36.5677 29.2138 36.7241 31.0937 36.7145 32.9764V32.9671ZM32.9758 45.1187C31.8822 45.1187 30.4428 42.679 29.7044 38.5755H36.2472C35.5088 42.6884 34.0694 45.128 32.9758 45.128V45.1187ZM32.9758 20.8154C33.9105 20.8154 35.0508 22.526 35.7798 25.4891H30.1156C30.9008 22.5354 32.0598 20.8248 32.9758 20.8248V20.8154ZM42.547 25.4891H37.752C37.428 23.9988 36.883 22.5653 36.135 21.2361C38.6739 21.9329 40.9217 23.4271 42.547 25.4985V25.4891ZM29.7979 21.2454C29.0467 22.5741 28.4985 24.0076 28.1715 25.4985H23.4046C25.0264 23.4339 27.267 21.9434 29.7979 21.2454ZM20.909 31.4434C20.909 31.2845 20.9651 31.1163 20.9931 30.9574C21.0492 30.6115 21.1146 30.275 21.1988 29.9479C21.2455 29.7609 21.3109 29.5739 21.367 29.387C21.4231 29.2 21.5539 28.7888 21.6754 28.499C21.7969 28.2093 21.8437 28.1158 21.9278 27.9288C22.0119 27.7419 22.1054 27.5549 22.2082 27.368H27.8163C27.5116 29.2219 27.3584 31.0976 27.3583 32.9764C27.3577 34.2253 27.4232 35.4734 27.5546 36.7154H21.4324L21.3389 36.463L21.2268 36.0611C21.2268 35.8554 21.124 35.6498 21.0866 35.4348L21.0025 35.0515C21.0025 34.8178 20.937 34.5842 20.909 34.3598C20.881 34.1355 20.909 34.1355 20.909 34.0233C20.909 33.6775 20.909 33.3316 20.909 32.9764C20.8824 32.4656 20.8886 31.9535 20.9277 31.4434H20.909ZM22.1989 38.5849H27.807C28.1014 40.7249 28.7756 42.7951 29.7979 44.698C28.1834 44.2518 26.6777 43.479 25.3739 42.4275C24.07 41.376 22.9958 40.0682 22.2176 38.5849H22.1989ZM36.1257 44.698C37.1447 42.7945 37.8157 40.7243 38.1072 38.5849H43.7153C42.9381 40.0672 41.8653 41.3744 40.5632 42.4259C39.261 43.4773 37.7571 44.2506 36.1444 44.698H36.1257Z" fill="#428DFF"/>
<path d="M45.7607 30.0132C45.6391 30.0314 45.5223 30.0735 45.417 30.137C45.3117 30.2004 45.22 30.2841 45.1471 30.383C45.0741 30.482 45.0214 30.5944 44.992 30.7138C44.9626 30.8332 44.957 30.9572 44.9756 31.0787C45.0317 31.4246 45.069 31.7611 45.0971 32.1163C45.1159 32.351 45.2226 32.57 45.3959 32.7294C45.5692 32.8888 45.7963 32.977 46.0318 32.9763H46.0972C46.2201 32.968 46.34 32.9355 46.4503 32.8806C46.5606 32.8258 46.6589 32.7498 46.7397 32.6568C46.8205 32.5639 46.8821 32.4559 46.921 32.3391C46.9599 32.2223 46.9754 32.0989 46.9665 31.9761C46.9665 31.5742 46.8823 31.1909 46.8263 30.7983C46.808 30.6767 46.7659 30.5599 46.7025 30.4546C46.639 30.3493 46.5554 30.2576 46.4564 30.1847C46.3574 30.1117 46.245 30.059 46.1256 30.0296C46.0063 30.0002 45.8823 29.9946 45.7607 30.0132Z" fill="#428DFF"/>
<path d="M57.38 51.1942C57.9131 50.5351 58.2064 49.7144 58.2118 48.8667V47.1935C60.3316 43.4397 61.5831 39.2584 61.8743 34.9571C62.1654 30.6559 61.4888 26.3441 59.8943 22.3388C60.0135 22.1866 60.0792 21.9993 60.0812 21.806V18.067C60.0771 17.1805 59.821 16.3134 59.3427 15.567C58.8644 14.8205 58.1837 14.2255 57.38 13.8514C57.9131 13.1923 58.2064 12.3716 58.2118 11.5239V9.65438C58.2118 8.66275 57.8179 7.71173 57.1168 7.01054C56.4156 6.30935 55.4647 5.91543 54.4731 5.91543C53.4815 5.91543 52.5306 6.30935 51.8294 7.01054C51.1283 7.71173 50.7344 8.66275 50.7344 9.65438V10.1405C45.6573 6.1899 39.4081 4.04492 32.9753 4.04492C26.5425 4.04492 20.2933 6.1899 15.2163 10.1405V9.65438C15.2163 8.66275 14.8224 7.71173 14.1212 7.01054C13.4201 6.30935 12.4691 5.91543 11.4775 5.91543C10.486 5.91543 9.535 6.30935 8.83385 7.01054C8.1327 7.71173 7.7388 8.66275 7.7388 9.65438V11.5239C7.74423 12.3716 8.03756 13.1923 8.57067 13.8514C7.76697 14.2255 7.08624 14.8205 6.60794 15.567C6.12964 16.3134 5.87351 17.1805 5.86943 18.067V21.806C5.87143 21.9993 5.93713 22.1866 6.05637 22.3388C4.69078 25.7349 3.99261 29.3624 4.00006 33.0229C3.99972 38.0051 5.28766 42.9028 7.7388 47.2403V48.9134C7.74423 49.7611 8.03756 50.5818 8.57067 51.2409C7.76697 51.615 7.08624 52.2101 6.60794 52.9565C6.12964 53.703 5.87351 54.57 5.86943 55.4566V59.1955C5.86943 59.4435 5.96791 59.6812 6.14319 59.8565C6.31848 60.0318 6.55622 60.1303 6.80412 60.1303H16.151C16.3989 60.1303 16.6366 60.0318 16.8119 59.8565C16.9872 59.6812 17.0857 59.4435 17.0857 59.1955V57.242C21.8037 60.3462 27.3277 62.0005 32.9753 62.0005C38.6229 62.0005 44.1469 60.3462 48.865 57.242V59.1955C48.865 59.4435 48.9635 59.6812 49.1387 59.8565C49.314 60.0318 49.5518 60.1303 49.7997 60.1303H59.1465C59.3944 60.1303 59.6322 60.0318 59.8075 59.8565C59.9827 59.6812 60.0812 59.4435 60.0812 59.1955V55.4566C60.086 54.5621 59.8341 53.685 59.3553 52.9295C58.8765 52.1739 58.1909 51.5717 57.38 51.1942ZM52.6037 48.8667V46.9972C52.6037 46.5014 52.8007 46.0259 53.1513 45.6753C53.5018 45.3247 53.9773 45.1277 54.4731 45.1277C54.9689 45.1277 55.4444 45.3247 55.7949 45.6753C56.1455 46.0259 56.3425 46.5014 56.3425 46.9972V48.8667C56.3425 49.3625 56.1455 49.838 55.7949 50.1886C55.4444 50.5392 54.9689 50.7362 54.4731 50.7362C53.9773 50.7362 53.5018 50.5392 53.1513 50.1886C52.8007 49.838 52.6037 49.3625 52.6037 48.8667ZM58.2118 18.0203V20.8245H50.7344V18.0203C50.7344 17.2766 51.0298 16.5633 51.5556 16.0374C52.0815 15.5115 52.7947 15.2161 53.5384 15.2161H53.8282H53.9029H53.9777H55.4078C56.1515 15.2161 56.8647 15.5115 57.3906 16.0374C57.9164 16.5633 58.2118 17.2766 58.2118 18.0203ZM52.6037 9.60766C52.6037 9.11184 52.8007 8.6363 53.1513 8.28571C53.5018 7.93511 53.9773 7.73818 54.4731 7.73818C54.9689 7.73818 55.4444 7.93511 55.7949 8.28571C56.1455 8.6363 56.3425 9.11184 56.3425 9.60766V11.4771C56.3425 11.973 56.1455 12.4484 55.7949 12.799C55.4444 13.1496 54.9689 13.3466 54.4731 13.3466C53.9773 13.3466 53.5018 13.1496 53.1513 12.799C52.8007 12.4484 52.6037 11.973 52.6037 11.4771V9.60766ZM9.60817 9.60766C9.60817 9.11184 9.80512 8.6363 10.1557 8.28571C10.5063 7.93511 10.9818 7.73818 11.4775 7.73818C11.9733 7.73818 12.4488 7.93511 12.7994 8.28571C13.15 8.6363 13.3469 9.11184 13.3469 9.60766V11.4771C13.3469 11.973 13.15 12.4484 12.7994 12.799C12.4488 13.1496 11.9733 13.3466 11.4775 13.3466C10.9818 13.3466 10.5063 13.1496 10.1557 12.799C9.80512 12.4484 9.60817 11.973 9.60817 11.4771V9.60766ZM7.7388 18.0203C7.7388 17.2766 8.03423 16.5633 8.56009 16.0374C9.08595 15.5115 9.79918 15.2161 10.5429 15.2161H12.4122C13.1559 15.2161 13.8691 15.5115 14.395 16.0374C14.9209 16.5633 15.2163 17.2766 15.2163 18.0203V20.8245H7.7388V18.0203ZM13.3469 48.8667C13.3469 49.3625 13.15 49.838 12.7994 50.1886C12.4488 50.5392 11.9733 50.7362 11.4775 50.7362C10.9818 50.7362 10.5063 50.5392 10.1557 50.1886C9.80512 49.838 9.60817 49.3625 9.60817 48.8667V46.9972C9.60817 46.5014 9.80512 46.0259 10.1557 45.6753C10.5063 45.3247 10.9818 45.1277 11.4775 45.1277C11.9733 45.1277 12.4488 45.3247 12.7994 45.6753C13.15 46.0259 13.3469 46.5014 13.3469 46.9972V48.8667ZM15.2163 58.2141H7.7388V55.4099C7.7388 54.6661 8.03423 53.9529 8.56009 53.427C9.08595 52.9011 9.79918 52.6057 10.5429 52.6057H12.4122C13.1559 52.6057 13.8691 52.9011 14.395 53.427C14.9209 53.9529 15.2163 54.6661 15.2163 55.4099V58.2141ZM17.0296 54.8864C16.9466 54.0886 16.6596 53.3255 16.1964 52.6707C15.7331 52.0159 15.1091 51.4913 14.3844 51.1475C14.9175 50.4884 15.2109 49.6677 15.2163 48.82V46.9505C15.2109 46.1758 14.965 45.4219 14.5127 44.7931C14.0603 44.1642 13.4238 43.6914 12.6911 43.44C11.9584 43.1885 11.1657 43.1709 10.4225 43.3895C9.67939 43.6082 9.02249 44.0522 8.54263 44.6604C6.7841 40.9997 5.87053 36.9906 5.86943 32.9294C5.86498 29.4013 6.55744 25.907 7.90705 22.6473H16.151C16.3989 22.6473 16.6366 22.5488 16.8119 22.3735C16.9872 22.1982 17.0857 21.9604 17.0857 21.7125V17.9736C17.0816 17.087 16.8254 16.2199 16.3472 15.4735C15.8689 14.727 15.1881 14.132 14.3844 13.7579C14.6478 13.4307 14.8533 13.0608 14.992 12.6643C19.946 8.25773 26.3453 5.8234 32.9753 5.8234C39.6054 5.8234 46.0047 8.25773 50.9587 12.6643C51.0973 13.0608 51.3028 13.4307 51.5662 13.7579C50.7625 14.132 50.0818 14.727 49.6035 15.4735C49.1252 16.2199 48.8691 17.087 48.865 17.9736V21.7125C48.865 21.9604 48.9635 22.1982 49.1387 22.3735C49.314 22.5488 49.5518 22.6473 49.7997 22.6473H58.0436C59.3932 25.907 60.0857 29.4013 60.0812 32.9294C60.0801 36.9906 59.1665 40.9997 57.408 44.6604C56.9282 44.0522 56.2713 43.6082 55.5281 43.3895C54.785 43.1709 53.9923 43.1885 53.2596 43.44C52.5269 43.6914 51.8903 44.1642 51.438 44.7931C50.9856 45.4219 50.7397 46.1758 50.7344 46.9505V48.82C50.7398 49.6677 51.0331 50.4884 51.5662 51.1475C50.8415 51.4913 50.2175 52.0159 49.7543 52.6707C49.291 53.3255 49.0041 54.0886 48.9211 54.8864C44.2876 58.2573 38.7051 60.0731 32.9753 60.0731C27.2455 60.0731 21.6631 58.2573 17.0296 54.8864ZM58.2118 58.2141H50.7344V55.4099C50.7344 54.6661 51.0298 53.9529 51.5556 53.427C52.0815 52.9011 52.7947 52.6057 53.5384 52.6057H55.4078C56.1515 52.6057 56.8647 52.9011 57.3906 53.427C57.9164 53.9529 58.2118 54.6661 58.2118 55.4099V58.2141Z" fill="#428DFF"/>
</svg>
