<svg width="66" height="66" viewBox="0 0 66 66" fill="none" xmlns="http://www.w3.org/2000/svg">
<path d="M60.0345 7.89571V19.4826H5V7.89571C5 7.38353 5.20345 6.89231 5.56559 6.53015C5.92772 6.16799 6.41889 5.96456 6.93103 5.96456H58.0358C58.2951 5.95548 58.5535 5.99871 58.7956 6.09168C59.0378 6.18466 59.2587 6.32546 59.4452 6.50569C59.6317 6.68593 59.7801 6.90189 59.8813 7.1407C59.9826 7.37952 60.0346 7.63631 60.0345 7.89571Z" fill="#F5F5F5"/>
<path d="M61.0006 19.4824V58.1053C61.0006 58.6175 60.7972 59.1087 60.435 59.4708C60.0729 59.833 59.5817 60.0365 59.0696 60.0365H8.86267C8.35053 60.0365 7.85937 59.833 7.49723 59.4708C7.13509 59.1087 6.93164 58.6175 6.93164 58.1053V19.4824H61.0006Z" fill="#CCD3EB"/>
<path d="M57 20V51.4523C56.9563 52.9587 56.3133 54.387 55.2111 55.4259C54.1088 56.4648 52.6367 57.0301 51.1154 56.9988H6V20.0874H7.96154V20H57Z" fill="#F5F5F5"/>
<path d="M36.2 11H12.8C11.8059 11 11 11.597 11 12.3333V13.6667C11 14.403 11.8059 15 12.8 15H36.2C37.1941 15 38 14.403 38 13.6667V12.3333C38 11.597 37.1941 11 36.2 11Z" fill="#428DFF"/>
<path d="M49.4134 14.6548C50.4799 14.6548 51.3445 13.7902 51.3445 12.7236C51.3445 11.6571 50.4799 10.7925 49.4134 10.7925C48.347 10.7925 47.4824 11.6571 47.4824 12.7236C47.4824 13.7902 48.347 14.6548 49.4134 14.6548Z" fill="#428DFF"/>
<path d="M43.6185 14.6548C44.685 14.6548 45.5496 13.7902 45.5496 12.7236C45.5496 11.6571 44.685 10.7925 43.6185 10.7925C42.5521 10.7925 41.6875 11.6571 41.6875 12.7236C41.6875 13.7902 42.5521 14.6548 43.6185 14.6548Z" fill="#428DFF"/>
<path d="M55.2084 14.6548C56.2749 14.6548 57.1394 13.7902 57.1394 12.7236C57.1394 11.6571 56.2749 10.7925 55.2084 10.7925C54.1419 10.7925 53.2773 11.6571 53.2773 12.7236C53.2773 13.7902 54.1419 14.6548 55.2084 14.6548Z" fill="#428DFF"/>
<path d="M58.1034 5H7.89655C7.12834 5 6.3916 5.30517 5.84839 5.84841C5.30518 6.39165 5 7.12846 5 7.89672V58.1064C5 58.8747 5.30518 59.6115 5.84839 60.1548C6.3916 60.698 7.12834 61.0032 7.89655 61.0032H58.1034C58.8717 61.0032 59.6084 60.698 60.1516 60.1548C60.6948 59.6115 61 58.8747 61 58.1064V7.89672C61 7.12846 60.6948 6.39165 60.1516 5.84841C59.6084 5.30517 58.8717 5 58.1034 5ZM7.89655 6.93114H58.1034C58.3595 6.93114 58.6051 7.03289 58.7862 7.21397C58.9673 7.39505 59.069 7.64063 59.069 7.89672V18.518H6.93103V7.89672C6.93103 7.64063 7.03277 7.39505 7.21384 7.21397C7.39491 7.03289 7.64048 6.93114 7.89655 6.93114ZM58.1034 59.072H7.89655C7.64048 59.072 7.39491 58.9703 7.21384 58.7892C7.03277 58.6081 6.93103 58.3625 6.93103 58.1064V20.4491H59.069V58.1064C59.069 58.3625 58.9673 58.6081 58.7862 58.7892C58.6051 58.9703 58.3595 59.072 58.1034 59.072Z" fill="#428DFF"/>
<path d="M47.7622 32.489C47.5823 32.6699 47.4814 32.9146 47.4814 33.1697C47.4814 33.4248 47.5823 33.6695 47.7622 33.8505C48.3046 34.3936 48.6093 35.1298 48.6093 35.8975C48.6093 36.6651 48.3046 37.4013 47.7622 37.9445C47.6717 38.0342 47.5998 38.1411 47.5508 38.2587C47.5018 38.3764 47.4766 38.5026 47.4766 38.6301C47.4766 38.7575 47.5018 38.8837 47.5508 39.0014C47.5998 39.1191 47.6717 39.2258 47.7622 39.3156C47.8524 39.4051 47.9594 39.4759 48.077 39.5239C48.1946 39.572 48.3206 39.5964 48.4477 39.5956C48.5748 39.5964 48.7007 39.572 48.8184 39.5239C48.936 39.4759 49.043 39.4051 49.1332 39.3156C50.0382 38.4102 50.5467 37.1825 50.5467 35.9023C50.5467 34.6221 50.0382 33.3943 49.1332 32.489C49.0434 32.3985 48.9367 32.3266 48.819 32.2776C48.7014 32.2286 48.5751 32.2034 48.4477 32.2034C48.3202 32.2034 48.194 32.2286 48.0764 32.2776C47.9587 32.3266 47.8519 32.3985 47.7622 32.489Z" fill="#428DFF"/>
<path d="M52.5922 32.489C52.4124 32.6699 52.3115 32.9146 52.3115 33.1697C52.3115 33.4248 52.4124 33.6695 52.5922 33.8505C53.1347 34.3936 53.4394 35.1298 53.4394 35.8975C53.4394 36.6651 53.1347 37.4013 52.5922 37.9445C52.5018 38.0342 52.4299 38.1411 52.3809 38.2587C52.3319 38.3764 52.3066 38.5026 52.3066 38.6301C52.3066 38.7575 52.3319 38.8837 52.3809 39.0014C52.4299 39.1191 52.5018 39.2258 52.5922 39.3156C52.6825 39.4051 52.7895 39.4759 52.9071 39.5239C53.0247 39.572 53.1507 39.5964 53.2778 39.5956C53.4048 39.5964 53.5308 39.572 53.6484 39.5239C53.7661 39.4759 53.8731 39.4051 53.9633 39.3156C54.8683 38.4102 55.3768 37.1825 55.3768 35.9023C55.3768 34.6221 54.8683 33.3943 53.9633 32.489C53.8735 32.3985 53.7667 32.3266 53.6491 32.2776C53.5314 32.2286 53.4052 32.2034 53.2778 32.2034C53.1503 32.2034 53.0241 32.2286 52.9064 32.2776C52.7888 32.3266 52.682 32.3985 52.5922 32.489Z" fill="#428DFF"/>
<path d="M18.4017 32.489C18.3119 32.3985 18.2051 32.3266 18.0875 32.2776C17.9698 32.2286 17.8436 32.2034 17.7162 32.2034C17.5887 32.2034 17.4625 32.2286 17.3448 32.2776C17.2272 32.3266 17.1204 32.3985 17.0306 32.489C16.1256 33.3943 15.6172 34.6221 15.6172 35.9023C15.6172 37.1825 16.1256 38.4102 17.0306 39.3156C17.1204 39.4061 17.2272 39.478 17.3448 39.527C17.4625 39.576 17.5887 39.6012 17.7162 39.6012C17.8436 39.6012 17.9698 39.576 18.0875 39.527C18.2051 39.478 18.3119 39.4061 18.4017 39.3156C18.4922 39.2258 18.564 39.1191 18.613 39.0014C18.662 38.8838 18.6873 38.7575 18.6873 38.6301C18.6873 38.5026 18.662 38.3764 18.613 38.2587C18.564 38.1411 18.4922 38.0343 18.4017 37.9445C17.8592 37.4014 17.5546 36.6651 17.5546 35.8975C17.5546 35.1298 17.8592 34.3936 18.4017 33.8505C18.5815 33.6695 18.6824 33.4248 18.6824 33.1697C18.6824 32.9146 18.5815 32.6699 18.4017 32.489Z" fill="#428DFF"/>
<path d="M13.5735 32.489C13.4838 32.3985 13.377 32.3266 13.2594 32.2776C13.1417 32.2286 13.0155 32.2034 12.888 32.2034C12.7606 32.2034 12.6344 32.2286 12.5167 32.2776C12.3991 32.3266 12.2923 32.3985 12.2025 32.489C11.2975 33.3943 10.7891 34.6221 10.7891 35.9023C10.7891 37.1825 11.2975 38.4102 12.2025 39.3156C12.2923 39.4061 12.3991 39.478 12.5167 39.527C12.6344 39.576 12.7606 39.6012 12.888 39.6012C13.0155 39.6012 13.1417 39.576 13.2594 39.527C13.377 39.478 13.4838 39.4061 13.5735 39.3156C13.664 39.2258 13.7359 39.1191 13.7849 39.0014C13.8339 38.8838 13.8592 38.7575 13.8592 38.6301C13.8592 38.5026 13.8339 38.3764 13.7849 38.2587C13.7359 38.1411 13.664 38.0343 13.5735 37.9445C13.0311 37.4014 12.7265 36.6651 12.7265 35.8975C12.7265 35.1298 13.0311 34.3936 13.5735 33.8505C13.7534 33.6695 13.8543 33.4248 13.8543 33.1697C13.8543 32.9146 13.7534 32.6699 13.5735 32.489Z" fill="#428DFF"/>
<path d="M43.6203 33.9661C43.6206 35.7678 43.1626 37.54 42.2894 39.116C41.4161 40.692 40.1564 42.0199 38.6286 42.9749L38.4451 45.5529H27.5541L27.3706 42.9749C25.8031 41.9951 24.5185 40.6232 23.6436 38.9947C22.7688 37.3663 22.3341 35.5377 22.3826 33.6897C22.431 31.8418 22.9609 30.0384 23.9198 28.458C24.8787 26.8776 26.2335 25.5749 27.8502 24.6787C29.4669 23.7824 31.2895 23.3235 33.1378 23.3476C34.9861 23.3716 36.7961 23.8777 38.389 24.8157C39.9818 25.7538 41.3022 27.0914 42.2197 28.6962C43.1372 30.301 43.6199 32.1175 43.6203 33.9661Z" fill="#F5F7FF"/>
<path d="M36.4766 33.1938C36.2717 33.0402 36.0142 32.9742 35.7607 33.0104C35.5072 33.0467 35.2785 33.1821 35.1249 33.387L33.0007 36.2257L30.8766 33.387C30.723 33.1821 30.4942 33.0467 30.2407 33.0104C29.9872 32.9742 29.7297 33.0402 29.5249 33.1938C29.32 33.3475 29.1846 33.5762 29.1484 33.8297C29.1122 34.0833 29.1781 34.3407 29.3318 34.5456L32.0352 38.1568V45.5531C32.0352 45.8092 32.137 46.0548 32.318 46.2359C32.4991 46.417 32.7447 46.5187 33.0007 46.5187C33.2568 46.5187 33.5024 46.417 33.6835 46.2359C33.8645 46.0548 33.9662 45.8092 33.9662 45.5531V38.1568L36.6697 34.5456C36.7458 34.4442 36.8011 34.3287 36.8326 34.2059C36.8641 34.0831 36.871 33.9553 36.8531 33.8297C36.8352 33.7042 36.7927 33.5834 36.7281 33.4743C36.6635 33.3652 36.578 33.2699 36.4766 33.1938Z" fill="#FE9661"/>
<path d="M38.4438 45.553L38.1638 49.4153H27.8327L27.6976 47.4841L27.5527 45.553H38.4438Z" fill="#428DFF"/>
<path d="M42.7707 28.7713C42.5146 28.7713 42.2691 28.873 42.088 29.0541C41.9069 29.2352 41.8052 29.4808 41.8052 29.7369C41.8023 29.8927 41.8424 30.0464 41.9211 30.181C42.4107 31.3694 42.6633 32.6421 42.6645 33.9275C42.6709 35.5664 42.2571 37.1795 41.4627 38.613C40.6683 40.0465 39.5196 41.2523 38.1266 42.1155L38.0686 42.1734C38.0158 42.2134 37.9673 42.2587 37.9238 42.3086C37.8832 42.3494 37.8476 42.3947 37.8176 42.4438L37.7404 42.6079C37.7197 42.6711 37.7036 42.7356 37.6921 42.8011C37.6921 42.8011 37.6921 42.801 37.6921 42.8686L37.5762 44.5488H33.9652V38.118L36.6686 34.5068C36.7447 34.4053 36.8001 34.2899 36.8315 34.1671C36.863 34.0443 36.87 33.9164 36.852 33.7909C36.8341 33.6654 36.7916 33.5446 36.727 33.4355C36.6624 33.3264 36.577 33.231 36.4755 33.155C36.3741 33.0789 36.2587 33.0235 36.1358 32.9921C36.013 32.9606 35.8852 32.9536 35.7597 32.9716C35.6341 32.9895 35.5134 33.032 35.4043 33.0966C35.2952 33.1612 35.1999 33.2466 35.1238 33.3481L32.9997 36.1869L30.8755 33.3481C30.7219 33.1432 30.4931 33.0078 30.2396 32.9716C29.9861 32.9353 29.7286 33.0013 29.5238 33.155C29.3189 33.3086 29.1835 33.5374 29.1473 33.7909C29.1111 34.0444 29.1771 34.3019 29.3307 34.5068L32.0341 38.118V44.5488H28.4521L28.3362 42.8686C28.332 42.8463 28.332 42.8234 28.3362 42.8011L28.2783 42.6079C28.2617 42.554 28.239 42.5022 28.2107 42.4534L28.0852 42.2893C28.0479 42.2488 28.0057 42.2132 27.9597 42.1831L27.9017 42.1155C26.5067 41.2544 25.3566 40.0489 24.5619 38.615C23.7672 37.1811 23.3546 35.5669 23.3638 33.9275C23.3638 31.3666 24.381 28.9106 26.1917 27.0998C28.0024 25.289 30.4583 24.2717 33.019 24.2717C34.0873 24.2722 35.148 24.4517 36.1569 24.8028C36.3989 24.8873 36.6645 24.8722 36.8954 24.7608C37.1263 24.6495 37.3034 24.451 37.3879 24.209C37.4725 23.967 37.4573 23.7013 37.346 23.4704C37.2346 23.2395 37.0361 23.0624 36.7941 22.9779C35.5809 22.5533 34.3044 22.3378 33.019 22.3406C30.5512 22.3458 28.1495 23.1388 26.1639 24.6041C24.1782 26.0695 22.7122 28.1306 21.9795 30.4872C21.2468 32.8438 21.2856 35.3728 22.0904 37.7058C22.8951 40.0388 24.4237 42.054 26.4534 43.4577L26.9748 50.6898C27.0628 51.909 27.61 53.0495 28.506 53.881C29.402 54.7125 30.5801 55.1732 31.8024 55.17H34.2645C35.4868 55.1732 36.6649 54.7125 37.5609 53.881C38.4569 53.0495 39.0041 51.909 39.0921 50.6898L39.6038 43.4577C41.1563 42.4002 42.4263 40.9789 43.3032 39.3177C44.18 37.6565 44.637 35.8059 44.6342 33.9275C44.6223 32.3557 44.2939 30.8024 43.6686 29.3603C43.5941 29.1842 43.469 29.0343 43.3091 28.9294C43.1493 28.8245 42.9619 28.7695 42.7707 28.7713ZM37.441 46.5185L37.2962 48.4496H28.7514L28.6162 46.5185H37.441ZM34.2548 53.2775H31.7928C31.06 53.2795 30.3537 53.0036 29.8162 52.5055C29.2787 52.0074 28.9499 51.324 28.8962 50.5932V50.3808H37.161V50.5836C37.1093 51.3229 36.7761 52.0142 36.2301 52.5153C35.6841 53.0164 34.9669 53.2892 34.2259 53.2775H34.2548Z" fill="#428DFF"/>
<path d="M39.9239 27.2359C40.0144 27.3283 40.1226 27.4016 40.242 27.4513C40.3614 27.5011 40.4897 27.5264 40.619 27.5256C40.8676 27.5246 41.1063 27.4277 41.2852 27.2552C41.4651 27.0743 41.566 26.8296 41.566 26.5745C41.566 26.3194 41.4651 26.0747 41.2852 25.8938C40.9662 25.5678 40.6276 25.2615 40.2714 24.9765C40.1719 24.8978 40.0579 24.8396 39.9358 24.8051C39.8138 24.7705 39.6861 24.7603 39.5602 24.7751C39.4342 24.7899 39.3124 24.8294 39.2017 24.8913C39.091 24.9532 38.9935 25.0362 38.9149 25.1358C38.8363 25.2353 38.7781 25.3493 38.7435 25.4714C38.709 25.5934 38.6988 25.7211 38.7136 25.8471C38.7284 25.9731 38.7679 26.0949 38.8297 26.2056C38.8916 26.3163 38.9747 26.4138 39.0742 26.4924C39.3738 26.7209 39.6577 26.9692 39.9239 27.2359Z" fill="#428DFF"/>
</svg>
