<svg width="66" height="66" viewBox="0 0 66 66" fill="none" xmlns="http://www.w3.org/2000/svg">
<path d="M65.9998 28.4418C66.0048 30.4139 65.2701 32.316 63.9412 33.7715L63.691 34.022C62.9595 34.7672 62.0867 35.3585 61.1238 35.7614C60.161 36.1642 59.1275 36.3705 58.084 36.368H10.3161C7.60135 36.368 4.99779 35.2882 3.07817 33.366C1.15855 31.4439 0.0801308 28.8369 0.0801308 26.1186C0.0741992 24.2817 0.569722 22.4782 1.51316 20.9028C1.5328 20.85 1.5596 20.8002 1.59278 20.7548C2.45696 19.3871 3.62456 18.2374 5.00477 17.3952L5.14124 17.3155L5.5848 17.065C6.05486 16.8288 6.5414 16.6271 7.04058 16.4614C7.16976 15.067 7.4559 13.6917 7.89358 12.3617C9.04887 9.00034 11.1609 6.05083 13.9694 3.87642C16.7779 1.70201 20.1603 0.397681 23.7 0.124115C27.2396 -0.149452 30.7818 0.619681 33.8903 2.33678C36.9988 4.05388 39.5378 6.64395 41.1946 9.78793C42.5925 9.32399 44.0552 9.08566 45.5278 9.08186C48.2755 9.06902 50.9624 9.89179 53.2329 11.4413C55.5034 12.9909 57.2505 15.1942 58.2432 17.7597C58.5967 18.643 58.8485 19.5638 58.9938 20.5042C60.1398 20.6429 61.2419 21.0295 62.2239 21.6371C63.2058 22.2447 64.044 23.0589 64.6805 24.0232C65.5562 25.3286 66.0162 26.8693 65.9998 28.4418Z" fill="#E3E7F2"/>
<path d="M63.7236 32.997C63.7259 33.3554 63.6992 33.7134 63.644 34.0675C62.9125 34.8127 62.0397 35.404 61.0769 35.8069C60.114 36.2097 59.0805 36.4159 58.037 36.4135H51.213V40.9687H48.9384V36.4135H34.1531V40.9687H31.8784V36.4135H17.0931V40.9687H14.8185V36.4135H10.2692C7.55442 36.4135 4.95087 35.3336 3.03126 33.4115C1.11164 31.4893 0.0332031 28.8824 0.0332031 26.1641C0.0345607 25.4369 0.1108 24.7118 0.260683 24.0003C0.945396 23.215 1.7426 22.5357 2.62631 21.9846L2.7628 21.9049C3.12947 21.6878 3.50932 21.4938 3.90013 21.3241C4.13897 21.2216 4.38918 21.1305 4.63939 21.0508C4.63939 20.8344 4.6394 20.618 4.71901 20.413C4.85389 19.2874 5.09766 18.1775 5.4469 17.0991C5.91696 16.8629 6.4035 16.6612 6.90268 16.4955C7.03185 15.1011 7.318 13.7258 7.75568 12.3957C9.53644 9.80011 11.9586 7.71094 14.786 6.33193C17.6133 4.95293 20.7494 4.33118 23.8882 4.52733C27.027 4.72348 30.0615 5.73082 32.6957 7.45112C35.3299 9.17142 37.4739 11.5459 38.9185 14.3431C40.3164 13.8792 41.7791 13.6408 43.2517 13.637C45.9994 13.6242 48.6863 14.447 50.9568 15.9965C53.2273 17.5461 54.9744 19.7493 55.9671 22.3149C56.3206 23.1982 56.5724 24.119 56.7177 25.0594C57.8637 25.1981 58.9658 25.5847 59.9478 26.1923C60.9297 26.7999 61.7679 27.6141 62.4044 28.5784C62.8029 29.1694 63.1168 29.8134 63.337 30.4916C63.5985 31.3007 63.729 32.1466 63.7236 32.997Z" fill="#F5F5F5"/>
<path d="M50.0769 31.0266V42.6539C50.0769 43.2347 50.0769 43.7928 50.0087 44.385C49.6703 48.9435 47.9806 53.2971 45.1561 56.8881C42.3316 60.4792 38.5008 63.1443 34.1543 64.5421C33.779 64.6673 33.4037 64.7812 33.017 64.8837C32.6303 64.7812 32.255 64.6673 31.8796 64.5421C27.5356 63.1403 23.7073 60.4741 20.8834 56.8838C18.0595 53.2935 16.3682 48.9421 16.0253 44.385C16.0253 43.8156 15.957 43.2461 15.957 42.6539V31.0266C15.9603 30.0192 16.2969 29.0414 16.9143 28.246C17.5317 27.4506 18.3949 26.8826 19.369 26.6307L31.8796 23.2143L32.1526 23.146C32.7064 22.9181 33.3276 22.9181 33.8814 23.146L34.1543 23.2143L46.6649 26.6307C47.639 26.8826 48.5023 27.4506 49.1197 28.246C49.737 29.0414 50.0737 30.0192 50.0769 31.0266Z" fill="#F5F5F5"/>
<path d="M64.6686 24.0458C64.0322 23.0815 63.194 22.2674 62.212 21.6597C61.2301 21.0521 60.1279 20.6655 58.982 20.5269C58.8367 19.5864 58.5848 18.6656 58.2313 17.7823C57.2423 15.2125 55.4967 13.0044 53.2259 11.4506C50.9551 9.89676 48.2663 9.07065 45.516 9.08172C44.0433 9.08553 42.5806 9.32385 41.1828 9.78779C39.5327 6.6233 36.9906 4.01387 33.8722 2.28354C30.7538 0.553205 27.1965 -0.2218 23.642 0.0547785C20.0875 0.331357 16.6925 1.64733 13.8785 3.83927C11.0645 6.03121 8.95557 9.00255 7.81352 12.3843C7.37584 13.7143 7.08969 15.0897 6.96052 16.4841C6.46134 16.6498 5.9748 16.8515 5.50474 17.0876L5.06118 17.3382L4.92469 17.4179C3.54448 18.2601 2.37689 19.4097 1.5127 20.7774C1.47952 20.8229 1.45274 20.8727 1.4331 20.9255C0.489661 22.5008 -0.00587893 24.3044 5.26312e-05 26.1413C5.26312e-05 28.8596 1.07849 31.4665 2.99811 33.3887C4.91772 35.3108 7.52127 36.3906 10.236 36.3906H14.7853V42.6314C14.7853 42.7908 14.7853 42.9616 14.7853 43.121C14.7853 43.2805 14.7853 43.1894 14.7853 43.2235C14.78 43.2766 14.78 43.33 14.7853 43.383C14.9495 48.5686 16.7752 53.5637 19.9928 57.6304C23.2103 61.697 27.6489 64.6194 32.6528 65.9658C32.8473 66.0114 33.0497 66.0114 33.2442 65.9658C38.3912 64.6021 42.9473 61.5807 46.2098 57.3677C49.2996 53.3537 51.036 48.4606 51.1685 43.3944C51.1749 43.3453 51.1749 43.2955 51.1685 43.2463C51.1738 43.2124 51.1738 43.1778 51.1685 43.1438C51.1685 42.9844 51.1685 42.825 51.1685 42.6541V36.4134H57.9925C59.036 36.4159 60.0695 36.2097 61.0324 35.8068C61.9952 35.404 62.868 34.8126 63.5995 34.0674L63.8497 33.8169C65.1786 32.3614 65.9133 30.4593 65.9083 28.4872C65.953 26.9153 65.5207 25.3668 64.6686 24.0458ZM31.8794 63.3124C27.8509 61.9302 24.3127 59.4011 21.6985 56.035C19.0844 52.669 17.5079 48.6123 17.1624 44.3624H31.8794V63.3124ZM44.39 55.9556C41.7642 59.3515 38.2073 61.9079 34.1541 63.3124V44.3852H48.8711C48.5415 48.5993 46.9966 52.6268 44.4241 55.9783L44.39 55.9556ZM48.9393 42.0847H34.1541V24.4102L46.4145 27.7356C47.1378 27.9306 47.7769 28.3585 48.2332 28.9533C48.6895 29.5481 48.9376 30.2768 48.9393 31.0268V42.0847ZM63.3266 30.4915C63.0873 31.1213 62.7324 31.7007 62.2802 32.1998C61.753 32.7921 61.1064 33.2659 60.383 33.5898C59.6596 33.9137 58.8759 34.0803 58.0835 34.0788H51.2595V30.9699C51.26 29.7172 50.8479 28.4993 50.0872 27.5049C49.3264 26.5105 48.2594 25.795 47.0514 25.4694L34.2792 22.0529C33.4921 21.7504 32.621 21.7504 31.8339 22.0529L29.3545 22.7362C29.0659 22.8161 28.8203 23.0069 28.6713 23.267C28.5222 23.5271 28.4817 23.8356 28.5584 24.1255C28.6358 24.4167 28.8253 24.6653 29.0854 24.8168C29.3454 24.9684 29.6549 25.0105 29.9459 24.9341L31.9249 24.3875V42.0847H17.1396V31.004C17.1413 30.254 17.3895 29.5253 17.8458 28.9305C18.3021 28.3357 18.9412 27.9078 19.6645 27.7128L20.8018 27.394C20.9467 27.3551 21.0825 27.288 21.2015 27.1966C21.3205 27.1051 21.4203 26.9911 21.4953 26.861C21.5703 26.731 21.6189 26.5874 21.6385 26.4385C21.6581 26.2896 21.6481 26.1383 21.6093 25.9932C21.5705 25.8481 21.5035 25.7121 21.4122 25.593C21.3209 25.4739 21.207 25.3739 21.0771 25.2988C20.9472 25.2237 20.8038 25.175 20.6551 25.1554C20.5064 25.1358 20.3553 25.1458 20.2104 25.1846L19.0162 25.5035C17.8082 25.8292 16.7412 26.5447 15.9804 27.5391C15.2197 28.5335 14.8076 29.7514 14.8081 31.004V34.113H10.2588C8.83353 34.1119 7.43472 33.7277 6.20837 33.0005C4.98202 32.2734 3.97309 31.2299 3.28693 29.9791C2.61564 28.7513 2.27906 27.3682 2.311 25.9688C2.34294 24.5694 2.7423 23.2031 3.46891 22.0073C3.50209 21.9619 3.52889 21.9121 3.54853 21.8593C3.66227 21.6771 3.79874 21.4949 3.93522 21.3126C4.17766 20.9828 4.45195 20.6776 4.7541 20.4016C5.12553 20.038 5.53331 19.7136 5.97103 19.4336L6.11889 19.3539C6.79051 18.9348 7.52348 18.6236 8.29119 18.4314H8.35943C8.43454 18.4042 8.5069 18.3699 8.57553 18.3289L8.73475 18.2265L8.89398 18.0556C8.89398 17.9987 8.97358 17.9531 9.0077 17.8848C9.03891 17.8196 9.06185 17.7507 9.07596 17.6798C9.08104 17.6116 9.08104 17.5431 9.07596 17.4748C9.28038 13.386 11.0478 9.53266 14.012 6.71298C16.9762 3.89329 20.91 2.32339 24.9986 2.32851C28.0717 2.32811 31.0793 3.2182 33.6584 4.89138C36.2376 6.56456 38.278 8.94933 39.5336 11.7579C39.565 11.8218 39.6073 11.8797 39.6587 11.9288C39.687 11.9977 39.7297 12.0598 39.7839 12.111C39.8418 12.1565 39.9026 12.1984 39.9658 12.2362C40.0277 12.2784 40.0923 12.3164 40.1592 12.3501H40.3639H40.58C40.6519 12.3566 40.7242 12.3566 40.7961 12.3501C40.8677 12.3607 40.9405 12.3607 41.0122 12.3501C42.4234 11.7554 43.9393 11.4495 45.4705 11.4505C47.7614 11.45 49.9991 12.1423 51.8905 13.4367C53.7819 14.7311 55.2388 16.5673 56.0704 18.7048C56.4595 19.6966 56.7009 20.7402 56.7869 21.8023C56.8126 22.0863 56.9436 22.3503 57.1542 22.5421C57.3647 22.734 57.6395 22.8398 57.9243 22.8387H57.9811C58.9216 22.8398 59.8471 23.0744 60.6748 23.5216C61.5025 23.9688 62.2065 24.6145 62.7238 25.401C63.2282 26.1597 63.5413 27.0295 63.6364 27.9359C63.7315 28.8424 63.6057 29.7584 63.2697 30.6054L63.3266 30.4915Z" fill="#428DFF"/>
<path d="M25.0443 23.9092L24.5097 24.0572C24.2081 24.098 23.935 24.2571 23.7505 24.4995C23.566 24.7419 23.4852 25.0478 23.5259 25.3498C23.5667 25.6518 23.7256 25.9253 23.9676 26.11C24.2097 26.2948 24.5152 26.3757 24.8168 26.3349C24.915 26.3467 25.0143 26.3467 25.1125 26.3349L25.6471 26.1868C25.7912 26.1472 25.9261 26.0795 26.0441 25.9877C26.1621 25.8958 26.2609 25.7816 26.3348 25.6516C26.4088 25.5215 26.4564 25.3781 26.475 25.2296C26.4936 25.0811 26.4828 24.9304 26.4432 24.7861C26.4036 24.6418 26.336 24.5067 26.2443 24.3885C26.1526 24.2703 26.0385 24.1714 25.9086 24.0974C25.7787 24.0234 25.6355 23.9757 25.4872 23.9571C25.3389 23.9385 25.1884 23.9493 25.0443 23.9889V23.9092Z" fill="#428DFF"/>
</svg>
