<svg width="66" height="66" viewBox="0 0 66 66" fill="none" xmlns="http://www.w3.org/2000/svg">
<path d="M4.41556 24.1941C6.2372 24.1941 7.71393 22.717 7.71393 20.8949C7.71393 19.0728 6.2372 17.5957 4.41556 17.5957C2.59392 17.5957 1.11719 19.0728 1.11719 20.8949C1.11719 22.717 2.59392 24.1941 4.41556 24.1941Z" fill="#E3E7F2"/>
<path d="M4.41556 36.2912C6.2372 36.2912 7.71393 34.8141 7.71393 32.9921C7.71393 31.17 6.2372 29.6929 4.41556 29.6929C2.59392 29.6929 1.11719 31.17 1.11719 32.9921C1.11719 34.8141 2.59392 36.2912 4.41556 36.2912Z" fill="#E3E7F2"/>
<path d="M4.41556 48.3882C6.2372 48.3882 7.71393 46.9111 7.71393 45.089C7.71393 43.2669 6.2372 41.7898 4.41556 41.7898C2.59392 41.7898 1.11719 43.2669 1.11719 45.089C1.11719 46.9111 2.59392 48.3882 4.41556 48.3882Z" fill="#E3E7F2"/>
<path d="M61.5874 24.1941C63.4091 24.1941 64.8858 22.717 64.8858 20.8949C64.8858 19.0728 63.4091 17.5957 61.5874 17.5957C59.7658 17.5957 58.2891 19.0728 58.2891 20.8949C58.2891 22.717 59.7658 24.1941 61.5874 24.1941Z" fill="#E3E7F2"/>
<path d="M61.5874 36.2912C63.4091 36.2912 64.8858 34.8141 64.8858 32.9921C64.8858 31.17 63.4091 29.6929 61.5874 29.6929C59.7658 29.6929 58.2891 31.17 58.2891 32.9921C58.2891 34.8141 59.7658 36.2912 61.5874 36.2912Z" fill="#E3E7F2"/>
<path d="M61.5874 48.3882C63.4091 48.3882 64.8858 46.9111 64.8858 45.089C64.8858 43.2669 63.4091 41.7898 61.5874 41.7898C59.7658 41.7898 58.2891 43.2669 58.2891 45.089C58.2891 46.9111 59.7658 48.3882 61.5874 48.3882Z" fill="#E3E7F2"/>
<path d="M17.6089 64.884C19.4306 64.884 20.9073 63.4069 20.9073 61.5848C20.9073 59.7627 19.4306 58.2856 17.6089 58.2856C15.7873 58.2856 14.3105 59.7627 14.3105 61.5848C14.3105 63.4069 15.7873 64.884 17.6089 64.884Z" fill="#E3E7F2"/>
<path d="M33.0015 64.884C34.8231 64.884 36.2999 63.4069 36.2999 61.5848C36.2999 59.7627 34.8231 58.2856 33.0015 58.2856C31.1799 58.2856 29.7031 59.7627 29.7031 61.5848C29.7031 63.4069 31.1799 64.884 33.0015 64.884Z" fill="#E3E7F2"/>
<path d="M48.3941 64.884C50.2157 64.884 51.6924 63.4069 51.6924 61.5848C51.6924 59.7627 50.2157 58.2856 48.3941 58.2856C46.5724 58.2856 45.0957 59.7627 45.0957 61.5848C45.0957 63.4069 46.5724 64.884 48.3941 64.884Z" fill="#E3E7F2"/>
<path d="M47.2928 23.0943V39.5902C47.2928 43.2344 44.3394 46.1886 40.6961 46.1886H25.3038C21.6605 46.1886 18.707 43.2344 18.707 39.5902V23.0943C18.707 22.4869 19.1993 21.9946 19.8064 21.9946H46.1934C46.8006 21.9946 47.2928 22.4869 47.2928 23.0943Z" fill="#A4C2F7"/>
<path d="M43.9946 23.0943V39.5902C43.9946 43.2344 41.0411 46.1886 37.3978 46.1886H25.3038C21.6605 46.1886 18.707 43.2344 18.707 39.5902V23.0943C18.707 22.4869 19.1993 21.9946 19.8064 21.9946H42.895C43.5024 21.9946 43.9946 22.4869 43.9946 23.0943Z" fill="#F5F5F5"/>
<path d="M33.0017 34.0919C34.2161 34.0919 35.2006 33.1071 35.2006 31.8924C35.2006 30.6776 34.2161 29.6929 33.0017 29.6929C31.7872 29.6929 30.8027 30.6776 30.8027 31.8924C30.8027 33.1071 31.7872 34.0919 33.0017 34.0919Z" fill="#A4C2F7"/>
<path d="M28.6021 46.1886C24.9589 46.1886 22.0054 43.2344 22.0054 39.5902V23.0943C22.0054 22.4869 22.4976 21.9946 23.1048 21.9946H19.8064C19.1992 21.9946 18.707 22.4869 18.707 23.0943V39.5902C18.707 43.2344 21.6605 46.1886 25.3038 46.1886H28.6021Z" fill="white"/>
<path d="M48.3926 27.4931H56.0888C56.3804 27.4931 56.6599 27.3772 56.8661 27.171L59.3663 24.6702C60.0365 25.0744 60.8035 25.2899 61.5861 25.2936C64.0149 25.2936 65.9839 23.3242 65.9839 20.8948C65.9839 18.4654 64.0149 16.4959 61.5861 16.4959C59.1573 16.4959 57.1883 18.4654 57.1883 20.8948C57.1922 21.6776 57.4076 22.4447 57.8117 23.1152L55.6336 25.2938H48.3925V23.0943C48.3925 21.8795 47.408 20.8948 46.1936 20.8948H45.0941V12.097C45.0941 5.41607 39.6794 0 33.0001 0C26.3207 0 20.906 5.41607 20.906 12.097V20.8949H19.8066C18.5921 20.8949 17.6076 21.8796 17.6076 23.0944V25.2939H10.3668L8.18872 23.1153C8.5929 22.4449 8.80832 21.6777 8.81206 20.8949C8.81206 18.4655 6.84309 16.496 4.41428 16.496C1.98546 16.496 0.0164919 18.4654 0.0164919 20.8948C0.0164919 23.3242 1.98546 25.2936 4.41428 25.2936C5.19687 25.2898 5.96387 25.0743 6.63411 24.6702L9.1343 27.171C9.34044 27.3772 9.62003 27.4931 9.9116 27.4931H17.6078V31.892H8.65603C8.1024 29.7472 6.04066 28.3487 3.84376 28.6279C1.64674 28.907 0 30.7767 0 32.9918C0 35.2069 1.64674 37.0765 3.84363 37.3556C6.04053 37.6348 8.10227 36.2364 8.6559 34.0915H17.6076V38.4904H9.9116C9.62003 38.4904 9.34044 38.6064 9.1343 38.8126L6.63411 41.3135C5.96387 40.9092 5.19687 40.6937 4.41428 40.69C1.98546 40.69 0.0164919 42.6595 0.0164919 45.0889C0.0164919 47.5183 1.98546 49.4877 4.41428 49.4877C6.84309 49.4877 8.81206 47.5183 8.81206 45.0889C8.80819 44.3061 8.59277 43.5389 8.18872 42.8685L10.3668 40.6899H17.6958C18.2445 44.4725 21.4827 47.2809 25.304 47.2882V52.3316L19.8276 57.8094C19.1573 57.4051 18.3903 57.1896 17.6078 57.1859C15.1789 57.1859 13.21 59.1554 13.21 61.5848C13.21 64.0142 15.1789 65.9836 17.6078 65.9836C20.0366 65.9836 22.0055 64.0142 22.0055 61.5848C22.0017 60.802 21.7863 60.0348 21.3822 59.3644L27.1808 53.5644C27.3869 53.3582 27.5029 53.0786 27.5029 52.7869V47.2882H31.9007V57.342C29.7563 57.8958 28.3583 59.958 28.6373 62.1554C28.9164 64.3529 30.7855 66 33.0001 66C35.2146 66 37.0837 64.3529 37.3628 62.1554C37.6419 59.958 36.2438 57.8958 34.0995 57.342V47.2882H38.4973V52.7869C38.4973 53.0786 38.6132 53.3582 38.8194 53.5644L44.6179 59.3644C44.2138 60.0348 43.9983 60.802 43.9946 61.5848C43.9946 64.0142 45.9636 65.9836 48.3924 65.9836C50.8212 65.9836 52.7902 64.0142 52.7902 61.5848C52.7902 59.1554 50.8212 57.1859 48.3924 57.1859C47.6098 57.1898 46.8428 57.4053 46.1726 57.8094L40.6961 52.3316V47.2882C44.5174 47.2809 47.7556 44.4725 48.3044 40.6899H55.6333L57.8114 42.8685C57.4072 43.5389 57.1918 44.3061 57.1881 45.0889C57.1881 47.5183 59.157 49.4877 61.5859 49.4877C64.0147 49.4877 65.9836 47.5183 65.9836 45.0889C65.9836 42.6595 64.0147 40.69 61.5859 40.69C60.8033 40.6939 60.0363 40.9093 59.366 41.3135L56.8658 38.8127C56.6597 38.6065 56.3801 38.4905 56.0885 38.4905H48.3924V34.0916H57.3441C57.8977 36.2365 59.9595 37.6349 62.1564 37.3558C64.3533 37.0766 66 35.207 66 32.992C66 30.7769 64.3533 28.9073 62.1564 28.6281C59.9595 28.349 57.8977 29.7474 57.3441 31.8923H48.3924V27.4931H48.3926ZM61.5861 18.6954C62.5814 18.6948 63.453 19.3627 63.7112 20.3243C63.9694 21.2857 63.5499 22.3008 62.6882 22.799C61.8265 23.2973 60.7378 23.1546 60.0336 22.4511C59.4044 21.8224 59.2157 20.8766 59.5556 20.0545C59.8953 19.2324 60.6967 18.6961 61.5861 18.6954ZM2.21545 20.8948C2.21468 19.8992 2.8826 19.0274 3.84389 18.7691C4.80506 18.5109 5.81995 18.9305 6.31805 19.7924C6.81616 20.6543 6.67353 21.7433 5.97018 22.4477C5.34169 23.077 4.39611 23.2658 3.57422 22.9258C2.75234 22.5859 2.21596 21.7844 2.21545 20.8948ZM4.41428 35.1913C3.19981 35.1913 2.21532 34.2066 2.21532 32.9918C2.21532 31.7771 3.19981 30.7923 4.41428 30.7923C5.62875 30.7923 6.61323 31.7771 6.61323 32.9918C6.61323 34.2066 5.62875 35.1913 4.41428 35.1913ZM4.41428 47.2882C3.41897 47.2889 2.54735 46.6209 2.28915 45.6594C2.03095 44.698 2.45046 43.6828 3.31216 43.1846C4.17386 42.6864 5.26258 42.8291 5.96683 43.5326C6.59597 44.1612 6.78472 45.107 6.44484 45.9291C6.10495 46.7512 5.30368 47.2876 4.41428 47.2882ZM17.6078 63.7841C16.6124 63.7848 15.7408 63.1168 15.4826 62.1553C15.2244 61.1939 15.6439 60.1788 16.5056 59.6805C17.3673 59.1823 18.4561 59.325 19.1603 60.0285C19.7894 60.6571 19.9782 61.6029 19.6383 62.425C19.2984 63.2471 18.4972 63.7835 17.6078 63.7841ZM35.1992 61.5848C35.1992 62.7995 34.2147 63.7843 33.0002 63.7843C31.7857 63.7843 30.8012 62.7995 30.8012 61.5848C30.8012 60.37 31.7857 59.3853 33.0002 59.3853C34.2147 59.3853 35.1992 60.37 35.1992 61.5848ZM50.5915 61.5848C50.5921 62.5803 49.9243 63.4522 48.963 63.7104C48.0019 63.9687 46.987 63.5491 46.4889 62.6872C45.9907 61.8253 46.1334 60.7363 46.8367 60.0318C47.4652 59.4025 48.4108 59.2137 49.2327 59.5537C50.0546 59.8936 50.5908 60.6952 50.5915 61.5848ZM63.7849 45.0889C63.7856 46.0844 63.1178 46.9563 62.1565 47.2145C61.1953 47.4728 60.1804 47.0532 59.6823 46.1913C59.1842 45.3293 59.3269 44.2404 60.0302 43.5359C60.6587 42.9066 61.6043 42.7178 62.4262 43.0578C63.2481 43.3976 63.7843 44.1992 63.7849 45.0889ZM61.5861 30.7923C62.8006 30.7923 63.7851 31.7771 63.7851 32.9918C63.7851 34.2066 62.8006 35.1913 61.5861 35.1913C60.3716 35.1913 59.3872 34.2066 59.3872 32.9918C59.3872 31.7771 60.3716 30.7923 61.5861 30.7923ZM23.1051 12.097C23.1051 6.63084 27.5353 2.1995 33.0002 2.1995C38.4651 2.1995 42.8953 6.63084 42.8953 12.097V20.8949H23.1051V12.097ZM40.6964 45.0889H25.304C22.6927 45.0855 20.4427 43.2484 19.9167 40.69H23.1052C23.7124 40.69 24.2046 40.1977 24.2046 39.5903C24.2046 38.9829 23.7123 38.4906 23.1052 38.4906H19.8068V36.2911H23.1052C23.7124 36.2911 24.2046 35.7988 24.2046 35.1914C24.2046 34.5841 23.7123 34.0918 23.1052 34.0918H19.8068V31.8923H23.1052C23.7124 31.8923 24.2046 31.3998 24.2046 30.7926C24.2046 30.1852 23.7123 29.6929 23.1052 29.6929H19.8068V27.4934H23.1052C23.7124 27.4934 24.2046 27.001 24.2046 26.3937C24.2046 25.7865 23.7123 25.294 23.1052 25.294H19.8068V23.0945H46.1938V25.294H42.8954C42.2882 25.294 41.796 25.7863 41.796 26.3937C41.796 27.0011 42.2883 27.4934 42.8954 27.4934H46.1938V29.6929H42.8954C42.2882 29.6929 41.796 30.1853 41.796 30.7926C41.796 31.4 42.2883 31.8923 42.8954 31.8923H46.1938V34.0918H42.8954C42.2882 34.0918 41.796 34.5841 41.796 35.1914C41.796 35.7988 42.2883 36.2911 42.8954 36.2911H46.1938V38.4906H42.8954C42.2882 38.4906 41.796 38.9829 41.796 39.5903C41.796 40.1977 42.2883 40.69 42.8954 40.69H46.0839C45.5577 43.2483 43.3077 45.0855 40.6964 45.0889Z" fill="#428DFF"/>
<path d="M33.0003 28.593C31.3957 28.5899 30.0229 29.745 29.751 31.3267C29.4792 32.9084 30.3874 34.4558 31.9009 34.9891V37.3909C31.9009 37.9983 32.3931 38.4906 33.0003 38.4906C33.6075 38.4906 34.0997 37.9981 34.0997 37.3909V34.9889C35.6132 34.4558 36.5214 32.9084 36.2496 31.3266C35.9777 29.7448 34.6049 28.5899 33.0003 28.593ZM33.0003 32.9919C32.3931 32.9919 31.9009 32.4996 31.9009 31.8922C31.9009 31.2848 32.3931 30.7925 33.0003 30.7925C33.6075 30.7925 34.0997 31.285 34.0997 31.8922C34.0997 32.4995 33.6075 32.9919 33.0003 32.9919Z" fill="#428DFF"/>
</svg>
