<svg width="66" height="66" viewBox="0 0 66 66" fill="none" xmlns="http://www.w3.org/2000/svg">
<path d="M11.0752 38.1865C11.3502 38.1865 11.614 38.0772 11.8085 37.8827C12.0029 37.6882 12.1122 37.4245 12.1122 37.1494V16.4078C12.1122 15.5827 12.44 14.7913 13.0234 14.2078C13.6068 13.6244 14.3982 13.2966 15.2233 13.2966H21.4454C21.7204 13.2966 21.9842 13.1873 22.1787 12.9928C22.3731 12.7983 22.4824 12.5345 22.4824 12.2595C22.4824 11.9844 22.3731 11.7207 22.1787 11.5262C21.9842 11.3317 21.7204 11.2224 21.4454 11.2224H15.2233C13.8481 11.2224 12.5292 11.7687 11.5568 12.7412C10.5844 13.7136 10.0382 15.0326 10.0382 16.4078V37.1494C10.0382 37.4245 10.1474 37.6882 10.3419 37.8827C10.5364 38.0772 10.8002 38.1865 11.0752 38.1865Z" fill="#B4CDE1"/>
<path d="M54.629 38.1865C54.904 38.1865 55.1678 38.0772 55.3623 37.8827C55.5567 37.6882 55.666 37.4245 55.666 37.1494V16.4078C55.666 15.0326 55.1197 13.7136 54.1473 12.7412C53.1749 11.7687 51.8561 11.2224 50.4809 11.2224H44.2588C43.9838 11.2224 43.72 11.3317 43.5255 11.5262C43.331 11.7207 43.2218 11.9844 43.2218 12.2595C43.2218 12.5345 43.331 12.7983 43.5255 12.9928C43.72 13.1873 43.9838 13.2966 44.2588 13.2966H50.4809C51.306 13.2966 52.0973 13.6244 52.6808 14.2078C53.2642 14.7913 53.592 15.5827 53.592 16.4078V37.1494C53.592 37.4245 53.7012 37.6882 53.8957 37.8827C54.0902 38.0772 54.354 38.1865 54.629 38.1865Z" fill="#B4CDE1"/>
<path d="M21.4453 8.11127V18.4821H44.2598V8.11127C44.2598 7.56117 44.0413 7.0336 43.6523 6.64461C43.2633 6.25563 42.7358 6.03711 42.1857 6.03711H23.5194C22.9693 6.03711 22.4418 6.25563 22.0528 6.64461C21.6638 7.0336 21.4453 7.56117 21.4453 8.11127Z" fill="#CCD3EB"/>
<path d="M21.4453 18.4819V20.5561C21.4453 21.1062 21.6638 21.6338 22.0528 22.0227C22.4418 22.4117 22.9693 22.6302 23.5194 22.6302H42.1857C42.7358 22.6302 43.2633 22.4117 43.6523 22.0227C44.0413 21.6338 44.2598 21.1062 44.2598 20.5561V18.4819H21.4453Z" fill="#F5F5F5"/>
<path d="M1.74413 49.5945V51.6686C1.74413 52.2187 1.96264 52.7463 2.3516 53.1353C2.74056 53.5243 3.2681 53.7428 3.81817 53.7428H22.4846C23.0346 53.7428 23.5622 53.5243 23.9511 53.1353C24.3401 52.7463 24.5586 52.2187 24.5586 51.6686V49.5945H1.74413Z" fill="#F5F5F5"/>
<path d="M1.74413 39.2238V49.5946H24.5586V39.2238C24.5586 38.6737 24.3401 38.1461 23.9511 37.7572C23.5622 37.3682 23.0346 37.1497 22.4846 37.1497H3.81817C3.2681 37.1497 2.74056 37.3682 2.3516 37.7572C1.96264 38.1461 1.74413 38.6737 1.74413 39.2238Z" fill="#CCD3EB"/>
<path d="M41.1484 39.2238V49.5946H63.9629V39.2238C63.9629 38.6737 63.7444 38.1461 63.3554 37.7572C62.9665 37.3682 62.4389 37.1497 61.8888 37.1497H43.2224C42.6724 37.1497 42.1448 37.3682 41.7559 37.7572C41.3669 38.1461 41.1484 38.6737 41.1484 39.2238Z" fill="#CCD3EB"/>
<path d="M23.5194 9.14814V18.4819H44.2598V8.11106C44.2591 7.74677 44.1625 7.38908 43.9797 7.07397H25.5934C25.0433 7.07397 24.5158 7.2925 24.1268 7.68148C23.7379 8.07046 23.5194 8.59803 23.5194 9.14814Z" fill="#F5F5F5"/>
<path d="M3.8182 40.2607V49.5944H24.5586V39.2236C24.5579 38.8593 24.4614 38.5016 24.2786 38.1865H5.89223C5.34216 38.1865 4.81462 38.405 4.42566 38.794C4.03671 39.183 3.8182 39.7106 3.8182 40.2607Z" fill="#F5F5F5"/>
<path d="M43.2225 40.2607V49.5944H63.9629V39.2236C63.9622 38.8593 63.8657 38.5016 63.6829 38.1865H45.2965C44.7464 38.1865 44.2189 38.405 43.8299 38.794C43.441 39.183 43.2225 39.7106 43.2225 40.2607Z" fill="#F5F5F5"/>
<path d="M41.1484 49.5945V51.6686C41.1484 52.2187 41.3669 52.7463 41.7559 53.1353C42.1448 53.5243 42.6724 53.7428 43.2224 53.7428H61.8888C62.4389 53.7428 62.9665 53.5243 63.3554 53.1353C63.7444 52.7463 63.9629 52.2187 63.9629 51.6686V49.5945H41.1484Z" fill="#F5F5F5"/>
<path d="M27.6669 28.8529H38.0371L35.9631 22.6304H29.7409L27.6669 28.8529Z" fill="#F5F5F5"/>
<path d="M47.3701 59.9654H57.7402L55.6662 53.7429H49.4441L47.3701 59.9654Z" fill="#F5F5F5"/>
<path d="M45.2982 61.0024H59.8165C60.0915 61.0024 60.3553 60.8931 60.5498 60.6986C60.7442 60.5041 60.8535 60.2403 60.8535 59.9653C60.8535 59.6902 60.7442 59.4264 60.5498 59.232C60.3553 59.0375 60.0915 58.9282 59.8165 58.9282H45.2982C45.0231 58.9282 44.7593 59.0375 44.5649 59.232C44.3704 59.4264 44.2611 59.6902 44.2611 59.9653C44.2611 60.2403 44.3704 60.5041 44.5649 60.6986C44.7593 60.8931 45.0231 61.0024 45.2982 61.0024Z" fill="#0668CB"/>
<path d="M7.96377 59.9654H18.334L16.2599 53.7429H10.0378L7.96377 59.9654Z" fill="#F5F5F5"/>
<path d="M7.96462 61.0022H18.3348C18.4985 61.0021 18.6599 60.9632 18.8056 60.8888C18.9514 60.8144 19.0775 60.7065 19.1736 60.574C19.2697 60.4415 19.333 60.2881 19.3585 60.1264C19.3839 59.9647 19.3707 59.7993 19.32 59.6437L17.246 53.4212C17.1782 53.2133 17.0464 53.0321 16.8694 52.9036C16.6925 52.775 16.4795 52.7057 16.2608 52.7056H10.0387C9.81123 52.6945 9.58646 52.7585 9.39904 52.8878C9.21162 53.0172 9.07196 53.2046 9.00164 53.4212L6.9276 59.6437C6.87525 59.8035 6.86255 59.9737 6.89063 60.1396C6.91872 60.3054 6.98674 60.462 7.08881 60.5957C7.19088 60.7294 7.32395 60.8363 7.47652 60.9071C7.6291 60.978 7.79662 61.0106 7.96462 61.0022ZM16.8934 58.9281H9.41645L10.7957 54.7797H15.5245L16.8934 58.9281Z" fill="#428DFF"/>
<path d="M3.81577 36.1124H10.0379V16.4079C10.0379 15.0326 10.5842 13.7137 11.5566 12.7412C12.5289 11.7688 13.8478 11.2225 15.223 11.2225H20.4081V8.11124C20.4081 7.28609 20.7359 6.49473 21.3193 5.91126C21.9027 5.32779 22.6941 5 23.5192 5H42.1855C43.0106 5 43.8019 5.32779 44.3854 5.91126C44.9688 6.49473 45.2966 7.28609 45.2966 8.11124V11.2225H50.4817C51.8569 11.2225 53.1757 11.7688 54.1481 12.7412C55.1205 13.7137 55.6668 15.0326 55.6668 16.4079V36.1124H61.8889C62.714 36.1124 63.5053 36.4402 64.0888 37.0236C64.6722 37.6071 65 38.3985 65 39.2236V51.6686C65 52.4937 64.6722 53.2851 64.0888 53.8685C63.5053 54.452 62.714 54.7798 61.8889 54.7798H57.1186L58.4979 58.9281H59.8149C60.0899 58.9281 60.3537 59.0374 60.5482 59.2319C60.7426 59.4264 60.8519 59.6902 60.8519 59.9652C60.8519 60.2403 60.7426 60.504 60.5482 60.6985C60.3537 60.893 60.0899 61.0023 59.8149 61.0023H45.2966C45.0216 61.0023 44.7578 60.893 44.5633 60.6985C44.3688 60.504 44.2596 60.2403 44.2596 59.9652C44.2596 59.6902 44.3688 59.4264 44.5633 59.2319C44.7578 59.0374 45.0216 58.9281 45.2966 58.9281H46.624L48.0032 54.7798H43.2226C42.3975 54.7798 41.6061 54.452 41.0227 53.8685C40.4393 53.2851 40.1115 52.4937 40.1115 51.6686V39.2236C40.1115 38.3985 40.4393 37.6071 41.0227 37.0236C41.6061 36.4402 42.3975 36.1124 43.2226 36.1124H53.5928V16.4079C53.5928 15.5827 53.265 14.7914 52.6815 14.2079C52.0981 13.6244 51.3068 13.2966 50.4817 13.2966H45.2966V20.5562C45.2966 21.3813 44.9688 22.1727 44.3854 22.7562C43.8019 23.3396 43.0106 23.6674 42.1855 23.6674H37.4152L38.7945 27.8158H40.1115C40.3865 27.8158 40.6503 27.925 40.8448 28.1195C41.0392 28.314 41.1485 28.5778 41.1485 28.8528C41.1485 29.1279 41.0392 29.3917 40.8448 29.5862C40.6503 29.7807 40.3865 29.8899 40.1115 29.8899H25.5932C25.3182 29.8899 25.0544 29.7807 24.8599 29.5862C24.6654 29.3917 24.5562 29.1279 24.5562 28.8528C24.5562 28.5778 24.6654 28.314 24.8599 28.1195C25.0544 27.925 25.3182 27.8158 25.5932 27.8158H26.9206L28.2998 23.6674H23.5192C22.6941 23.6674 21.9027 23.3396 21.3193 22.7562C20.7359 22.1727 20.4081 21.3813 20.4081 20.5562V13.2966H15.223C14.3979 13.2966 13.6066 13.6244 13.0231 14.2079C12.4397 14.7914 12.1119 15.5827 12.1119 16.4079V36.1124H22.4821C23.0362 36.1125 23.5802 36.2606 24.0578 36.5414C24.5355 36.8222 24.9295 37.2254 25.1991 37.7095C25.3366 37.9502 25.3729 38.2356 25.3 38.503C25.2271 38.7704 25.0509 38.998 24.8102 39.1355C24.5696 39.273 24.2842 39.3093 24.0168 39.2364C23.7493 39.1634 23.5219 38.9873 23.3843 38.7466C23.2943 38.5864 23.1633 38.453 23.0048 38.3601C22.8463 38.2671 22.6659 38.218 22.4821 38.2177H3.81577C3.54073 38.2177 3.27695 38.3269 3.08247 38.5214C2.88799 38.7159 2.77874 38.9797 2.77874 39.2547V48.5885H23.5192V47.5514C23.5192 47.2763 23.6284 47.0125 23.8229 46.818C24.0174 46.6235 24.2811 46.5143 24.5562 46.5143C24.8312 46.5143 25.095 46.6235 25.2895 46.818C25.4839 47.0125 25.5932 47.2763 25.5932 47.5514V51.6997C25.5932 52.5248 25.2654 53.3162 24.682 53.8997C24.0985 54.4831 23.3072 54.8109 22.4821 54.8109H3.81577C2.99066 54.8109 2.19933 54.4831 1.61589 53.8997C1.03246 53.3162 0.704704 52.5248 0.704704 51.6997V39.2547C0.700592 38.8436 0.77803 38.4356 0.932533 38.0546C1.08704 37.6735 1.31552 37.3268 1.60482 37.0346C1.89412 36.7424 2.23848 36.5104 2.61798 36.3521C2.99747 36.1939 3.40458 36.1124 3.81577 36.1124ZM48.8121 58.9281H56.2994L54.9202 54.7798H50.1913L48.8121 58.9281ZM43.2226 52.7057H61.8889C62.164 52.7057 62.4277 52.5964 62.6222 52.4019C62.8167 52.2074 62.926 51.9436 62.926 51.6686V50.6315H42.1855V51.6686C42.1855 51.9436 42.2948 52.2074 42.4893 52.4019C42.6837 52.5964 42.9475 52.7057 43.2226 52.7057ZM42.1855 39.2236V48.5573H62.926V39.2236C62.926 38.9486 62.8167 38.6848 62.6222 38.4903C62.4277 38.2958 62.164 38.1866 61.8889 38.1866H43.2226C42.9475 38.1866 42.6837 38.2958 42.4893 38.4903C42.2948 38.6848 42.1855 38.9486 42.1855 39.2236ZM43.2226 8.11124C43.2226 7.83619 43.1133 7.5724 42.9188 7.37791C42.7243 7.18342 42.4606 7.07416 42.1855 7.07416H23.5192C23.2441 7.07416 22.9803 7.18342 22.7859 7.37791C22.5914 7.5724 22.4821 7.83619 22.4821 8.11124V17.445H43.2226V8.11124ZM29.1087 27.8158H36.596L35.2168 23.6674H30.4879L29.1087 27.8158ZM23.5192 21.5933H42.1855C42.4606 21.5933 42.7243 21.484 42.9188 21.2895C43.1133 21.095 43.2226 20.8312 43.2226 20.5562V19.5191H22.4821V20.5562C22.4821 20.8312 22.5914 21.095 22.7859 21.2895C22.9803 21.484 23.2441 21.5933 23.5192 21.5933ZM3.81577 52.7057H22.4821C22.7572 52.7057 23.0209 52.5964 23.2154 52.4019C23.4099 52.2074 23.5192 51.9436 23.5192 51.6686V50.6315H2.77874V51.6686C2.77874 51.9436 2.88799 52.2074 3.08247 52.4019C3.27695 52.5964 3.54073 52.7057 3.81577 52.7057Z" fill="#428DFF"/>
<path d="M24.5567 44.4091C24.2817 44.4091 24.0179 44.2998 23.8234 44.1053C23.629 43.9108 23.5197 43.6471 23.5197 43.372V42.3349C23.5197 42.0599 23.629 41.7961 23.8234 41.6016C24.0179 41.4071 24.2817 41.2979 24.5567 41.2979C24.8318 41.2979 25.0955 41.4071 25.29 41.6016C25.4845 41.7961 25.5938 42.0599 25.5938 42.3349V43.372C25.5938 43.6471 25.4845 43.9108 25.29 44.1053C25.0955 44.2998 24.8318 44.4091 24.5567 44.4091Z" fill="#428DFF"/>
<path d="M5.89003 58.9282H20.4083C20.6833 58.9282 20.9471 59.0375 21.1416 59.232C21.336 59.4264 21.4453 59.6902 21.4453 59.9653C21.4453 60.2403 21.336 60.5041 21.1416 60.6986C20.9471 60.8931 20.6833 61.0024 20.4083 61.0024H5.89003C5.61499 61.0024 5.3512 60.8931 5.15672 60.6986C4.96225 60.5041 4.85301 60.2403 4.85301 59.9653C4.85301 59.6902 4.96225 59.4264 5.15672 59.232C5.3512 59.0375 5.61499 58.9282 5.89003 58.9282Z" fill="#428DFF"/>
</svg>
