<svg width="66" height="66" viewBox="0 0 66 66" fill="none" xmlns="http://www.w3.org/2000/svg">
<path d="M54.7234 13.2505V39.1508H2.92578V13.2505C2.92709 12.1039 3.2835 10.9858 3.94601 10.0499C4.60852 9.11406 5.54461 8.4064 6.62561 8.02419C7.21842 7.80833 7.84465 7.69876 8.47552 7.70046H49.1736C50.6455 7.70046 52.0571 8.28516 53.0979 9.326C54.1387 10.3668 54.7234 11.7786 54.7234 13.2505Z" fill="#CCD3EB"/>
<path d="M51.9485 13.2505V39.1508H2.92578V13.2505C2.92709 12.1039 3.2835 10.9858 3.94601 10.0499C4.60852 9.11406 5.54461 8.4064 6.62561 8.02419C7.21842 7.80833 7.84465 7.69876 8.47552 7.70046H46.3988C47.8707 7.70046 49.2823 8.28516 50.323 9.326C51.3638 10.3668 51.9485 11.7786 51.9485 13.2505Z" fill="#F5F7FF"/>
<path d="M54.7234 40.0752V43.7752C54.7234 45.2472 54.1387 46.6589 53.0979 47.6997C52.0571 48.7406 50.6455 49.3253 49.1736 49.3253H8.47552C7.00364 49.3253 5.59205 48.7406 4.55127 47.6997C3.51049 46.6589 2.92578 45.2472 2.92578 43.7752V40.0752H54.7234Z" fill="#F5F5F5"/>
<path d="M38.3403 60.4258H19.3047L23.1155 49.3257H34.5295L38.3403 60.4258Z" fill="#F5F5F5"/>
<path d="M39.9247 61.351H17.7257C17.4804 61.351 17.2452 61.2536 17.0717 61.0802C16.8982 60.9067 16.8008 60.6713 16.8008 60.426C16.8008 60.1807 16.8982 59.9453 17.0717 59.7719C17.2452 59.5984 17.4804 59.501 17.7257 59.501H39.9247C40.17 59.501 40.4053 59.5984 40.5787 59.7719C40.7522 59.9453 40.8497 60.1807 40.8497 60.426C40.8497 60.6713 40.7522 60.9067 40.5787 61.0802C40.4053 61.2536 40.17 61.351 39.9247 61.351Z" fill="#0668CB"/>
<path d="M29.7495 45.6256H27.8996C27.6543 45.6256 27.419 45.5282 27.2455 45.3547C27.0721 45.1812 26.9746 44.9459 26.9746 44.7006C26.9746 44.4553 27.0721 44.22 27.2455 44.0465C27.419 43.873 27.6543 43.7756 27.8996 43.7756H29.7495C29.9948 43.7756 30.2301 43.873 30.4035 44.0465C30.577 44.22 30.6744 44.4553 30.6744 44.7006C30.6744 44.9459 30.577 45.1812 30.4035 45.3547C30.2301 45.5282 29.9948 45.6256 29.7495 45.6256Z" fill="url(#paint0_linear)"/>
<path d="M50.0988 6.77506V14.1751H7.55078V6.77506C7.55078 6.28441 7.74568 5.81388 8.09261 5.46693C8.43953 5.11999 8.91007 4.92505 9.4007 4.92505H48.2489C48.7395 4.92505 49.2101 5.11999 49.557 5.46693C49.9039 5.81388 50.0988 6.28441 50.0988 6.77506Z" fill="#F5F5F5"/>
<path d="M50.0988 14.175V33.6003C50.0988 34.091 49.9039 34.5615 49.557 34.9085C49.2101 35.2554 48.7395 35.4504 48.2489 35.4504H9.4007C8.91007 35.4504 8.43953 35.2554 8.09261 34.9085C7.74568 34.5615 7.55078 34.091 7.55078 33.6003V14.175H50.0988Z" fill="#F0F7FC"/>
<path d="M44.5491 11.4004C44.1832 11.4004 43.8256 11.292 43.5214 11.0887C43.2172 10.8854 42.9801 10.5965 42.84 10.2584C42.7 9.92037 42.6634 9.54842 42.7348 9.18956C42.8061 8.83069 42.9823 8.50104 43.241 8.24231C43.4997 7.98358 43.8294 7.80738 44.1882 7.736C44.5471 7.66461 44.919 7.70121 45.257 7.84123C45.5951 7.98126 45.884 8.21833 46.0873 8.52257C46.2905 8.8268 46.399 9.18454 46.399 9.55044C46.399 10.0411 46.2041 10.5116 45.8572 10.8586C45.5103 11.2055 45.0397 11.4004 44.5491 11.4004Z" fill="#D7E9F7"/>
<path d="M38.9983 11.4004C38.6325 11.4004 38.2748 11.292 37.9706 11.0887C37.6664 10.8854 37.4293 10.5965 37.2893 10.2584C37.1492 9.92037 37.1126 9.54842 37.184 9.18956C37.2554 8.83069 37.4315 8.50104 37.6903 8.24231C37.949 7.98358 38.2786 7.80738 38.6375 7.736C38.9963 7.66461 39.3682 7.70121 39.7063 7.84123C40.0443 7.98126 40.3332 8.21833 40.5365 8.52257C40.7398 8.8268 40.8482 9.18454 40.8482 9.55044C40.8482 10.0411 40.6533 10.5116 40.3064 10.8586C39.9595 11.2055 39.489 11.4004 38.9983 11.4004Z" fill="#4795EA"/>
<path d="M33.4476 11.4004C33.0817 11.4004 32.724 11.292 32.4198 11.0887C32.1156 10.8854 31.8785 10.5965 31.7385 10.2584C31.5985 9.92037 31.5618 9.54842 31.6332 9.18956C31.7046 8.83069 31.8808 8.50104 32.1395 8.24231C32.3982 7.98358 32.7278 7.80738 33.0867 7.736C33.4455 7.66461 33.8175 7.70121 34.1555 7.84123C34.4935 7.98126 34.7824 8.21833 34.9857 8.52257C35.189 8.8268 35.2975 9.18454 35.2975 9.55044C35.2975 10.0411 35.1026 10.5116 34.7557 10.8586C34.4087 11.2055 33.9382 11.4004 33.4476 11.4004Z" fill="#EB7F58"/>
<path d="M27.8992 10.475H12.175C11.9296 10.475 11.6944 10.3776 11.5209 10.2041C11.3474 10.0306 11.25 9.79533 11.25 9.55C11.25 9.30468 11.3474 9.06935 11.5209 8.89588C11.6944 8.72241 11.9296 8.625 12.175 8.625H27.8992C28.1445 8.625 28.3798 8.72241 28.5533 8.89588C28.7267 9.06935 28.8242 9.30468 28.8242 9.55C28.8242 9.79533 28.7267 10.0306 28.5533 10.2041C28.3798 10.3776 28.1445 10.475 27.8992 10.475Z" fill="#4795EA"/>
<path d="M22.35 18.8003H14.9503C14.4395 18.8003 14.0254 19.2144 14.0254 19.7253V28.9754C14.0254 29.4862 14.4395 29.9004 14.9503 29.9004H22.35C22.8609 29.9004 23.275 29.4862 23.275 28.9754V19.7253C23.275 19.2144 22.8609 18.8003 22.35 18.8003Z" fill="#F5F7FF"/>
<path d="M43.6238 30.8254H27.8996C27.6543 30.8254 27.419 30.728 27.2455 30.5545C27.0721 30.381 26.9746 30.1457 26.9746 29.9004C26.9746 29.655 27.0721 29.4197 27.2455 29.2462C27.419 29.0728 27.6543 28.9753 27.8996 28.9753H43.6238C43.8692 28.9753 44.1044 29.0728 44.2779 29.2462C44.4514 29.4197 44.5488 29.655 44.5488 29.9004C44.5488 30.1457 44.4514 30.381 44.2779 30.5545C44.1044 30.728 43.8692 30.8254 43.6238 30.8254Z" fill="#CCD3EB"/>
<path d="M43.6238 27.1254H27.8996C27.6543 27.1254 27.419 27.028 27.2455 26.8545C27.0721 26.681 26.9746 26.4457 26.9746 26.2004C26.9746 25.9551 27.0721 25.7197 27.2455 25.5463C27.419 25.3728 27.6543 25.2754 27.8996 25.2754H43.6238C43.8692 25.2754 44.1044 25.3728 44.2779 25.5463C44.4514 25.7197 44.5488 25.9551 44.5488 26.2004C44.5488 26.4457 44.4514 26.681 44.2779 26.8545C44.1044 27.028 43.8692 27.1254 43.6238 27.1254Z" fill="#CCD3EB"/>
<path d="M42.6978 18.8003H28.8234C28.3126 18.8003 27.8984 19.2144 27.8984 19.7253V21.5753C27.8984 22.0862 28.3126 22.5003 28.8234 22.5003H42.6978C43.2086 22.5003 43.6227 22.0862 43.6227 21.5753V19.7253C43.6227 19.2144 43.2086 18.8003 42.6978 18.8003Z" fill="#F0F7FC"/>
<path d="M29.7495 43.7756H27.8996C27.6543 43.7756 27.419 43.873 27.2455 44.0465C27.0721 44.22 26.9746 44.4553 26.9746 44.7006C26.9746 44.9459 27.0721 45.1812 27.2455 45.3547C27.419 45.5282 27.6543 45.6256 27.8996 45.6256H29.7495C29.9948 45.6256 30.2301 45.5282 30.4035 45.3547C30.577 45.1812 30.6744 44.9459 30.6744 44.7006C30.6744 44.4553 30.577 44.22 30.4035 44.0465C30.2301 43.873 29.9948 43.7756 29.7495 43.7756Z" fill="#428DFF"/>
<path d="M51.0227 7.97758V6.77503C51.0227 6.03904 50.7304 5.33319 50.21 4.81277C49.6896 4.29235 48.9838 4 48.2479 4H9.39966C8.66372 4 7.95793 4.29235 7.43754 4.81277C6.91715 5.33319 6.62479 6.03904 6.62479 6.77503V7.97758C5.28982 8.37562 4.11882 9.1936 3.28566 10.3101C2.45251 11.4266 2.00163 12.782 2 14.1751V43.7754C2 45.4927 2.68216 47.1396 3.89641 48.3539C5.11065 49.5682 6.7575 50.2505 8.4747 50.2505H21.8218L18.6492 59.5006H17.7243C17.479 59.5006 17.2437 59.598 17.0702 59.7714C16.8968 59.9449 16.7993 60.1802 16.7993 60.4256C16.7993 60.6709 16.8968 60.9062 17.0702 61.0797C17.2437 61.2532 17.479 61.3506 17.7243 61.3506H39.9233C40.1686 61.3506 40.4038 61.2532 40.5773 61.0797C40.7508 60.9062 40.8482 60.6709 40.8482 60.4256C40.8482 60.1802 40.7508 59.9449 40.5773 59.7714C40.4038 59.598 40.1686 59.5006 39.9233 59.5006H38.9983L35.8257 50.2505H49.1728C50.89 50.2505 52.5369 49.5682 53.7511 48.3539C54.9654 47.1396 55.6475 45.4927 55.6475 43.7754V14.1751C55.6459 12.782 55.195 11.4266 54.3619 10.3101C53.5287 9.1936 52.3577 8.37562 51.0227 7.97758ZM8.4747 6.77503C8.4747 6.5297 8.57215 6.29438 8.74562 6.1209C8.91908 5.94743 9.15435 5.85002 9.39966 5.85002H48.2479C48.4932 5.85002 48.7285 5.94743 48.9019 6.1209C49.0754 6.29438 49.1728 6.5297 49.1728 6.77503V13.2501H8.4747V6.77503ZM6.62479 9.95701V33.6003C6.62479 34.3363 6.91715 35.0421 7.43754 35.5626C7.95793 36.083 8.66372 36.3753 9.39966 36.3753H48.2479C48.9838 36.3753 49.6896 36.083 50.21 35.5626C50.7304 35.0421 51.0227 34.3363 51.0227 33.6003V24.3502C51.0227 24.1049 50.9253 23.8696 50.7518 23.6961C50.5784 23.5226 50.3431 23.4252 50.0978 23.4252C49.8525 23.4252 49.6172 23.5226 49.4437 23.6961C49.2703 23.8696 49.1728 24.1049 49.1728 24.3502V33.6003C49.1728 33.8456 49.0754 34.0809 48.9019 34.2544C48.7285 34.4279 48.4932 34.5253 48.2479 34.5253H9.39966C9.15435 34.5253 8.91908 34.4279 8.74562 34.2544C8.57215 34.0809 8.4747 33.8456 8.4747 33.6003V15.1001H49.1728V16.0251C49.1728 16.2704 49.2703 16.5058 49.4437 16.6792C49.6172 16.8527 49.8525 16.9501 50.0978 16.9501C50.3431 16.9501 50.5784 16.8527 50.7518 16.6792C50.9253 16.5058 51.0227 16.2704 51.0227 16.0251V9.95701C51.8442 10.3155 52.5439 10.9052 53.0365 11.654C53.5291 12.4029 53.7936 13.2787 53.7976 14.1751V39.1503H3.84991V14.1751C3.85397 13.2787 4.1184 12.4029 4.61104 11.654C5.10368 10.9052 5.80328 10.3155 6.62479 9.95701ZM37.0374 59.5006H20.6009L23.7735 50.2505H33.874L37.0374 59.5006ZM49.1728 48.4004H8.4747C7.24813 48.4004 6.07181 47.9132 5.20449 47.0458C4.33718 46.1784 3.84991 45.002 3.84991 43.7754V41.0004H53.7976V43.7754C53.7976 45.002 53.3104 46.1784 52.4431 47.0458C51.5757 47.9132 50.3994 48.4004 49.1728 48.4004Z" fill="#428DFF"/>
<path d="M51.0218 19.7253C51.0218 19.48 50.9243 19.2447 50.7509 19.0712C50.5774 18.8977 50.3421 18.8003 50.0968 18.8003C49.8515 18.8003 49.6163 18.8977 49.4428 19.0712C49.2693 19.2447 49.1719 19.48 49.1719 19.7253V20.6503C49.1719 20.8956 49.2693 21.131 49.4428 21.3044C49.6163 21.4779 49.8515 21.5753 50.0968 21.5753C50.3421 21.5753 50.5774 21.4779 50.7509 21.3044C50.9243 21.131 51.0218 20.8956 51.0218 20.6503V19.7253Z" fill="#428DFF"/>
<path d="M44.5491 11.4004C45.5708 11.4004 46.399 10.5722 46.399 9.55044C46.399 8.52871 45.5708 7.70044 44.5491 7.70044C43.5275 7.70044 42.6992 8.52871 42.6992 9.55044C42.6992 10.5722 43.5275 11.4004 44.5491 11.4004Z" fill="#428DFF"/>
<path d="M38.9983 11.4004C40.02 11.4004 40.8482 10.5722 40.8482 9.55044C40.8482 8.52871 40.02 7.70044 38.9983 7.70044C37.9767 7.70044 37.1484 8.52871 37.1484 9.55044C37.1484 10.5722 37.9767 11.4004 38.9983 11.4004Z" fill="#428DFF"/>
<path d="M33.4476 11.4004C34.4692 11.4004 35.2975 10.5722 35.2975 9.55044C35.2975 8.52871 34.4692 7.70044 33.4476 7.70044C32.4259 7.70044 31.5977 8.52871 31.5977 9.55044C31.5977 10.5722 32.4259 11.4004 33.4476 11.4004Z" fill="#428DFF"/>
<path d="M27.8992 8.625H12.175C11.9296 8.625 11.6944 8.72241 11.5209 8.89588C11.3474 9.06935 11.25 9.30468 11.25 9.55C11.25 9.79533 11.3474 10.0306 11.5209 10.2041C11.6944 10.3776 11.9296 10.475 12.175 10.475H27.8992C28.1445 10.475 28.3798 10.3776 28.5533 10.2041C28.7267 10.0306 28.8242 9.79533 28.8242 9.55C28.8242 9.30468 28.7267 9.06935 28.5533 8.89588C28.3798 8.72241 28.1445 8.625 27.8992 8.625Z" fill="#428DFF"/>
<path d="M23.2722 17.875H14.0226C13.7773 17.875 13.542 17.9724 13.3686 18.1459C13.1951 18.3194 13.0977 18.5547 13.0977 18.8V29.9001C13.0977 30.1455 13.1951 30.3808 13.3686 30.5543C13.542 30.7277 13.7773 30.8251 14.0226 30.8251H23.2722C23.5175 30.8251 23.7528 30.7277 23.9262 30.5543C24.0997 30.3808 24.1971 30.1455 24.1971 29.9001V18.8C24.1971 18.5547 24.0997 18.3194 23.9262 18.1459C23.7528 17.9724 23.5175 17.875 23.2722 17.875ZM22.3472 28.9751H14.9476V19.725H22.3472V28.9751Z" fill="#428DFF"/>
<path d="M43.6238 28.9753H27.8996C27.6543 28.9753 27.419 29.0728 27.2455 29.2462C27.0721 29.4197 26.9746 29.655 26.9746 29.9004C26.9746 30.1457 27.0721 30.381 27.2455 30.5545C27.419 30.728 27.6543 30.8254 27.8996 30.8254H43.6238C43.8692 30.8254 44.1044 30.728 44.2779 30.5545C44.4514 30.381 44.5488 30.1457 44.5488 29.9004C44.5488 29.655 44.4514 29.4197 44.2779 29.2462C44.1044 29.0728 43.8692 28.9753 43.6238 28.9753Z" fill="#428DFF"/>
<path d="M43.6238 25.2754H27.8996C27.6543 25.2754 27.419 25.3728 27.2455 25.5463C27.0721 25.7197 26.9746 25.9551 26.9746 26.2004C26.9746 26.4457 27.0721 26.681 27.2455 26.8545C27.419 27.028 27.6543 27.1254 27.8996 27.1254H43.6238C43.8692 27.1254 44.1044 27.028 44.2779 26.8545C44.4514 26.681 44.5488 26.4457 44.5488 26.2004C44.5488 25.9551 44.4514 25.7197 44.2779 25.5463C44.1044 25.3728 43.8692 25.2754 43.6238 25.2754Z" fill="#428DFF"/>
<path d="M43.6238 17.875H27.8996C27.6543 17.875 27.419 17.9724 27.2455 18.1459C27.0721 18.3194 26.9746 18.5547 26.9746 18.8V22.5001C26.9746 22.7454 27.0721 22.9807 27.2455 23.1542C27.419 23.3277 27.6543 23.4251 27.8996 23.4251H43.6238C43.8692 23.4251 44.1044 23.3277 44.2779 23.1542C44.4514 22.9807 44.5488 22.7454 44.5488 22.5001V18.8C44.5488 18.5547 44.4514 18.3194 44.2779 18.1459C44.1044 17.9724 43.8692 17.875 43.6238 17.875ZM42.6989 21.575H28.8245V19.725H42.6989V21.575Z" fill="#428DFF"/>
<path d="M64.0729 27.4258V34.0211C64.0747 38.1395 62.7151 42.143 60.2058 45.4086C57.6966 48.6741 54.1783 51.0186 50.1986 52.0773C46.2196 51.0172 42.7022 48.6723 40.1932 45.407C37.6842 42.1417 36.3241 38.1391 36.3242 34.0211V27.4258C36.3257 27.0568 36.4375 26.6968 36.6451 26.3919C36.8528 26.0869 37.1469 25.851 37.4897 25.7145L49.5141 20.9045C49.9536 20.7294 50.4435 20.7294 50.883 20.9045L62.9075 25.7145C63.2502 25.851 63.5443 26.0869 63.752 26.3919C63.9597 26.6968 64.0714 27.0568 64.0729 27.4258Z" fill="#F5F5F5"/>
<path d="M55.0758 32.6516H45.3267C44.443 32.6516 43.7266 33.3681 43.7266 34.2519V42.1515C43.7266 43.0353 44.443 43.7518 45.3267 43.7518H55.0758C55.9595 43.7518 56.676 43.0353 56.676 42.1515V34.2519C56.676 33.3681 55.9595 32.6516 55.0758 32.6516Z" fill="#F5F5F5"/>
<path d="M63.2528 24.9003L51.2284 20.0902C50.5691 19.8277 49.8342 19.8277 49.175 20.0902L37.1505 24.9003C36.6357 25.1054 36.194 25.4599 35.8824 25.9182C35.5709 26.3765 35.4037 26.9177 35.4023 27.4719V34.0671C35.406 38.3881 36.8345 42.5872 39.4666 46.0138C42.0987 49.4404 45.7874 51.9032 49.9612 53.0206C50.041 53.0302 50.1218 53.0302 50.2017 53.0206C50.2816 53.0297 50.3622 53.0297 50.4421 53.0206C53.9004 52.1 57.0403 50.2491 59.5206 47.6692C62.0009 45.0893 63.7268 41.8789 64.5107 38.3869C64.5634 38.149 64.52 37.9 64.3901 37.6939C64.2602 37.4878 64.0543 37.3414 63.817 37.2862C63.6986 37.2588 63.5759 37.255 63.456 37.275C63.3361 37.2951 63.2213 37.3385 63.1182 37.403C63.0152 37.4674 62.9258 37.5516 62.8552 37.6506C62.7847 37.7496 62.7343 37.8615 62.7071 37.98C62.004 41.1012 60.4708 43.9746 58.2696 46.2965C56.0684 48.6183 53.2809 50.3023 50.2017 51.1706C46.476 50.1176 43.1956 47.8776 40.8586 44.7908C38.5215 41.704 37.2553 37.9389 37.2523 34.0671V27.4719C37.2539 27.2882 37.3102 27.1091 37.414 26.9576C37.5178 26.806 37.6643 26.6888 37.835 26.6208L49.8594 21.8108C50.0792 21.7232 50.3241 21.7232 50.5439 21.8108L62.5683 26.6208C62.739 26.6888 62.8855 26.806 62.9893 26.9576C63.0931 27.1091 63.1494 27.2882 63.1511 27.4719V29.9231C63.1511 30.1684 63.2485 30.4037 63.422 30.5772C63.5954 30.7506 63.8307 30.8481 64.076 30.8481C64.3213 30.8481 64.5566 30.7506 64.7301 30.5772C64.9035 30.4037 65.001 30.1684 65.001 29.9231V27.4719C64.9997 26.9177 64.8324 26.3765 64.5209 25.9182C64.2093 25.4599 63.7676 25.1054 63.2528 24.9003Z" fill="#428DFF"/>
<path d="M50.1985 25.2512C48.7266 25.2512 47.315 25.8359 46.2742 26.8768C45.2334 27.9176 44.6487 29.3293 44.6487 30.8013V31.828C44.1192 31.9766 43.6523 32.2933 43.3186 32.7305C42.9849 33.1677 42.8025 33.7016 42.7988 34.2516V42.1512C42.7988 42.8209 43.0649 43.4633 43.5384 43.9369C44.012 44.4104 44.6543 44.6765 45.324 44.6765H55.073C55.7427 44.6765 56.385 44.4104 56.8585 43.9369C57.3321 43.4633 57.5981 42.8209 57.5981 42.1512V34.2516C57.5945 33.7016 57.412 33.1677 57.0783 32.7305C56.7446 32.2933 56.2778 31.9766 55.7482 31.828V30.8013C55.7482 29.3293 55.1635 27.9176 54.1227 26.8768C53.082 25.8359 51.6704 25.2512 50.1985 25.2512ZM46.4987 30.8013C46.4987 29.82 46.8885 28.8789 47.5823 28.185C48.2762 27.4911 49.2172 27.1012 50.1985 27.1012C51.1797 27.1012 52.1208 27.4911 52.8147 28.185C53.5085 28.8789 53.8983 29.82 53.8983 30.8013V31.7263H46.4987V30.8013ZM55.7482 42.1512C55.7482 42.3303 55.6771 42.502 55.5505 42.6286C55.4238 42.7552 55.2521 42.8264 55.073 42.8264H45.324C45.2353 42.8264 45.1475 42.809 45.0656 42.7751C44.9836 42.7411 44.9092 42.6913 44.8465 42.6286C44.7838 42.5659 44.7341 42.4915 44.7001 42.4096C44.6662 42.3276 44.6487 42.2399 44.6487 42.1512V34.2516C44.6487 34.1629 44.6662 34.0751 44.7001 33.9932C44.7341 33.9112 44.7838 33.8368 44.8465 33.7741C44.9092 33.7114 44.9836 33.6616 45.0656 33.6277C45.1475 33.5938 45.2353 33.5763 45.324 33.5763H55.073C55.2521 33.5763 55.4238 33.6475 55.5505 33.7741C55.6771 33.9007 55.7482 34.0725 55.7482 34.2516V42.1512Z" fill="#428DFF"/>
<path d="M50.4476 35.7856C49.9569 35.7856 49.4864 35.9806 49.1395 36.3275C48.7926 36.6745 48.5977 37.145 48.5977 37.6356C48.5996 37.9585 48.686 38.2752 48.8483 38.5543C49.0105 38.8334 49.243 39.0652 49.5226 39.2266V40.4106C49.5226 40.656 49.6201 40.8913 49.7935 41.0648C49.967 41.2382 50.2023 41.3356 50.4476 41.3356C50.6929 41.3356 50.9282 41.2382 51.1016 41.0648C51.2751 40.8913 51.3725 40.656 51.3725 40.4106V39.2266C51.7198 39.0206 51.9901 38.7067 52.1422 38.3327C52.2944 37.9587 52.32 37.5452 52.2152 37.1553C52.1104 36.7654 51.8809 36.4205 51.5617 36.1732C51.2426 35.9259 50.8513 35.7898 50.4476 35.7856Z" fill="#428DFF"/>
<defs>
<linearGradient id="paint0_linear" x1="838.719" y1="2427.2" x2="853.519" y2="2427.2" gradientUnits="userSpaceOnUse">
<stop stop-color="#D3E6F5"/>
<stop offset="1" stop-color="#F0F7FC"/>
</linearGradient>
</defs>
</svg>
