<svg width="1332" height="1332" viewBox="0 0 1332 1332" fill="none" xmlns="http://www.w3.org/2000/svg">
<rect width="1332" height="1332" fill="url(#paint0_radial_3047_1300)"/>
<g filter="url(#filter0_d_3047_1300)">
<rect x="104" y="488" width="309" height="132" rx="40" fill="white" shape-rendering="crispEdges"/>
<path d="M200.016 544.449H189.391C189.088 542.706 188.53 541.163 187.715 539.818C186.901 538.455 185.888 537.299 184.675 536.352C183.463 535.405 182.081 534.695 180.528 534.222C178.994 533.729 177.336 533.483 175.556 533.483C172.393 533.483 169.59 534.278 167.147 535.869C164.704 537.441 162.791 539.752 161.408 542.801C160.026 545.831 159.335 549.534 159.335 553.909C159.335 558.36 160.026 562.11 161.408 565.159C162.81 568.189 164.723 570.481 167.147 572.034C169.59 573.568 172.384 574.335 175.528 574.335C177.27 574.335 178.899 574.108 180.414 573.653C181.948 573.18 183.321 572.489 184.533 571.58C185.764 570.67 186.797 569.553 187.63 568.227C188.482 566.902 189.069 565.386 189.391 563.682L200.016 563.739C199.619 566.504 198.757 569.098 197.431 571.523C196.124 573.947 194.41 576.087 192.289 577.943C190.168 579.78 187.687 581.22 184.846 582.261C182.005 583.284 178.852 583.795 175.386 583.795C170.272 583.795 165.708 582.612 161.692 580.244C157.677 577.877 154.514 574.458 152.204 569.989C149.893 565.519 148.738 560.159 148.738 553.909C148.738 547.64 149.903 542.28 152.232 537.83C154.562 533.36 157.734 529.941 161.749 527.574C165.764 525.206 170.31 524.023 175.386 524.023C178.624 524.023 181.636 524.477 184.42 525.386C187.204 526.295 189.685 527.631 191.863 529.392C194.041 531.134 195.831 533.275 197.232 535.812C198.653 538.331 199.581 541.21 200.016 544.449ZM219.498 524.818V583H209.214V524.818H219.498ZM249.107 583.852C244.846 583.852 241.153 582.915 238.028 581.04C234.903 579.165 232.478 576.542 230.755 573.17C229.05 569.799 228.198 565.86 228.198 561.352C228.198 556.845 229.05 552.896 230.755 549.506C232.478 546.116 234.903 543.483 238.028 541.608C241.153 539.733 244.846 538.795 249.107 538.795C253.369 538.795 257.062 539.733 260.187 541.608C263.312 543.483 265.727 546.116 267.431 549.506C269.155 552.896 270.016 556.845 270.016 561.352C270.016 565.86 269.155 569.799 267.431 573.17C265.727 576.542 263.312 579.165 260.187 581.04C257.062 582.915 253.369 583.852 249.107 583.852ZM249.164 575.614C251.475 575.614 253.406 574.979 254.96 573.71C256.513 572.422 257.668 570.699 258.425 568.54C259.202 566.381 259.59 563.975 259.59 561.324C259.59 558.653 259.202 556.239 258.425 554.08C257.668 551.902 256.513 550.169 254.96 548.881C253.406 547.593 251.475 546.949 249.164 546.949C246.797 546.949 244.827 547.593 243.255 548.881C241.702 550.169 240.537 551.902 239.761 554.08C239.003 556.239 238.624 558.653 238.624 561.324C238.624 563.975 239.003 566.381 239.761 568.54C240.537 570.699 241.702 572.422 243.255 573.71C244.827 574.979 246.797 575.614 249.164 575.614ZM306.558 564.648V539.364H316.842V583H306.87V575.244H306.415C305.431 577.687 303.811 579.686 301.558 581.239C299.323 582.792 296.567 583.568 293.29 583.568C290.431 583.568 287.902 582.934 285.705 581.665C283.527 580.377 281.823 578.511 280.592 576.068C279.361 573.606 278.745 570.633 278.745 567.148V539.364H289.029V565.557C289.029 568.322 289.787 570.519 291.302 572.148C292.817 573.777 294.806 574.591 297.268 574.591C298.783 574.591 300.251 574.222 301.671 573.483C303.092 572.744 304.256 571.646 305.165 570.188C306.094 568.71 306.558 566.864 306.558 564.648ZM343.61 583.767C340.182 583.767 337.114 582.886 334.406 581.125C331.697 579.364 329.557 576.807 327.985 573.455C326.413 570.102 325.627 566.03 325.627 561.239C325.627 556.39 326.423 552.299 328.013 548.966C329.623 545.614 331.792 543.085 334.519 541.381C337.246 539.657 340.286 538.795 343.638 538.795C346.195 538.795 348.298 539.231 349.945 540.102C351.593 540.955 352.9 541.987 353.866 543.199C354.832 544.392 355.58 545.519 356.11 546.58H356.536V524.818H366.849V583H356.735V576.125H356.11C355.58 577.186 354.813 578.312 353.809 579.506C352.805 580.68 351.479 581.684 349.832 582.517C348.184 583.35 346.11 583.767 343.61 583.767ZM346.479 575.33C348.657 575.33 350.513 574.742 352.048 573.568C353.582 572.375 354.746 570.718 355.542 568.597C356.337 566.475 356.735 564.004 356.735 561.182C356.735 558.36 356.337 555.907 355.542 553.824C354.765 551.741 353.61 550.121 352.076 548.966C350.561 547.811 348.695 547.233 346.479 547.233C344.188 547.233 342.275 547.83 340.741 549.023C339.207 550.216 338.051 551.864 337.275 553.966C336.498 556.068 336.11 558.473 336.11 561.182C336.11 563.909 336.498 566.343 337.275 568.483C338.07 570.604 339.235 572.28 340.769 573.511C342.322 574.723 344.226 575.33 346.479 575.33Z" fill="#FF9900"/>
</g>
<path d="M127.455 197.182V267H108.5V197.182H127.455ZM158.408 237.545V267H139.59V214.636H157.454V224.591H157.999C159.136 221.273 161.136 218.67 163.999 216.784C166.886 214.898 170.249 213.955 174.09 213.955C177.795 213.955 181.011 214.807 183.738 216.511C186.488 218.193 188.613 220.511 190.113 223.466C191.636 226.42 192.386 229.795 192.363 233.591V267H173.545V237.545C173.568 234.955 172.908 232.92 171.568 231.443C170.249 229.966 168.408 229.227 166.045 229.227C164.499 229.227 163.147 229.568 161.988 230.25C160.852 230.909 159.977 231.864 159.363 233.114C158.749 234.341 158.431 235.818 158.408 237.545ZM235.76 214.636V228.273H201.26V214.636H235.76ZM207.942 202.091H226.76V250.159C226.76 250.886 226.885 251.5 227.135 252C227.385 252.477 227.771 252.841 228.294 253.091C228.817 253.318 229.487 253.432 230.305 253.432C230.874 253.432 231.533 253.364 232.283 253.227C233.055 253.091 233.624 252.977 233.987 252.886L236.715 266.114C235.874 266.364 234.669 266.67 233.101 267.034C231.555 267.398 229.715 267.636 227.578 267.75C223.26 267.977 219.635 267.534 216.703 266.42C213.771 265.284 211.567 263.5 210.09 261.068C208.612 258.636 207.896 255.591 207.942 251.932V202.091ZM246.319 267V214.636H264.592V224.591H265.137C266.092 220.909 267.603 218.216 269.671 216.511C271.762 214.807 274.205 213.955 277.001 213.955C277.819 213.955 278.626 214.023 279.421 214.159C280.239 214.273 281.024 214.443 281.774 214.67V230.727C280.842 230.409 279.694 230.17 278.33 230.011C276.967 229.852 275.796 229.773 274.819 229.773C272.978 229.773 271.319 230.193 269.842 231.034C268.387 231.852 267.239 233.011 266.399 234.511C265.558 235.989 265.137 237.727 265.137 239.727V267H246.319ZM313.051 267.955C307.369 267.955 302.506 266.83 298.46 264.58C294.415 262.307 291.313 259.148 289.154 255.102C286.994 251.034 285.915 246.318 285.915 240.955C285.915 235.591 286.994 230.886 289.154 226.841C291.313 222.773 294.415 219.614 298.46 217.364C302.506 215.091 307.369 213.955 313.051 213.955C318.733 213.955 323.597 215.091 327.642 217.364C331.688 219.614 334.79 222.773 336.949 226.841C339.108 230.886 340.188 235.591 340.188 240.955C340.188 246.318 339.108 251.034 336.949 255.102C334.79 259.148 331.688 262.307 327.642 264.58C323.597 266.83 318.733 267.955 313.051 267.955ZM313.188 254.045C314.779 254.045 316.154 253.511 317.313 252.443C318.472 251.375 319.369 249.852 320.006 247.875C320.642 245.898 320.96 243.545 320.96 240.818C320.96 238.068 320.642 235.716 320.006 233.761C319.369 231.784 318.472 230.261 317.313 229.193C316.154 228.125 314.779 227.591 313.188 227.591C311.506 227.591 310.063 228.125 308.858 229.193C307.654 230.261 306.733 231.784 306.097 233.761C305.46 235.716 305.142 238.068 305.142 240.818C305.142 243.545 305.46 245.898 306.097 247.875C306.733 249.852 307.654 251.375 308.858 252.443C310.063 253.511 311.506 254.045 313.188 254.045ZM369.659 267.682C365.931 267.682 362.499 266.705 359.363 264.75C356.249 262.795 353.749 259.83 351.863 255.852C349.999 251.875 349.068 246.864 349.068 240.818C349.068 234.5 350.045 229.364 351.999 225.409C353.977 221.455 356.522 218.557 359.636 216.716C362.772 214.875 366.068 213.955 369.522 213.955C372.113 213.955 374.386 214.409 376.34 215.318C378.295 216.205 379.931 217.398 381.249 218.898C382.568 220.375 383.568 222 384.249 223.773H384.522V197.182H403.34V267H384.659V258.409H384.249C383.522 260.182 382.477 261.773 381.113 263.182C379.772 264.568 378.136 265.67 376.204 266.489C374.295 267.284 372.113 267.682 369.659 267.682ZM376.613 253.227C378.34 253.227 379.818 252.727 381.045 251.727C382.295 250.705 383.249 249.273 383.909 247.432C384.59 245.568 384.931 243.364 384.931 240.818C384.931 238.227 384.59 236.011 383.909 234.17C383.249 232.307 382.295 230.886 381.045 229.909C379.818 228.909 378.34 228.409 376.613 228.409C374.886 228.409 373.409 228.909 372.181 229.909C370.977 230.886 370.045 232.307 369.386 234.17C368.749 236.011 368.431 238.227 368.431 240.818C368.431 243.409 368.749 245.636 369.386 247.5C370.045 249.341 370.977 250.761 372.181 251.761C373.409 252.739 374.886 253.227 376.613 253.227ZM449.414 244.091V214.636H468.232V267H450.368V257.045H449.823C448.686 260.386 446.698 263 443.857 264.886C441.016 266.75 437.641 267.682 433.732 267.682C430.073 267.682 426.868 266.841 424.118 265.159C421.391 263.477 419.266 261.159 417.743 258.205C416.243 255.25 415.482 251.864 415.459 248.045V214.636H434.277V244.091C434.3 246.682 434.959 248.716 436.254 250.193C437.573 251.67 439.414 252.409 441.777 252.409C443.345 252.409 444.698 252.08 445.834 251.42C446.993 250.739 447.879 249.784 448.493 248.557C449.129 247.307 449.436 245.818 449.414 244.091ZM505.91 267.955C500.228 267.955 495.365 266.83 491.319 264.58C487.274 262.307 484.171 259.148 482.012 255.102C479.853 251.034 478.774 246.318 478.774 240.955C478.774 235.591 479.853 230.886 482.012 226.841C484.171 222.773 487.274 219.614 491.319 217.364C495.365 215.091 500.228 213.955 505.91 213.955C511.046 213.955 515.49 214.886 519.24 216.75C523.012 218.591 525.933 221.205 528.001 224.591C530.069 227.955 531.115 231.909 531.137 236.455H513.683C513.433 233.705 512.637 231.614 511.296 230.182C509.978 228.727 508.274 228 506.183 228C504.546 228 503.115 228.477 501.887 229.432C500.66 230.364 499.705 231.784 499.024 233.693C498.342 235.58 498.001 237.955 498.001 240.818C498.001 243.682 498.342 246.068 499.024 247.977C499.705 249.864 500.66 251.284 501.887 252.239C503.115 253.17 504.546 253.636 506.183 253.636C507.569 253.636 508.796 253.318 509.865 252.682C510.933 252.023 511.796 251.068 512.455 249.818C513.137 248.545 513.546 247 513.683 245.182H531.137C531.069 249.795 530.012 253.818 527.967 257.25C525.921 260.659 523.024 263.295 519.274 265.159C515.546 267.023 511.092 267.955 505.91 267.955ZM573.009 214.636V228.273H538.509V214.636H573.009ZM545.191 202.091H564.009V250.159C564.009 250.886 564.134 251.5 564.384 252C564.634 252.477 565.02 252.841 565.543 253.091C566.066 253.318 566.736 253.432 567.554 253.432C568.122 253.432 568.781 253.364 569.531 253.227C570.304 253.091 570.872 252.977 571.236 252.886L573.963 266.114C573.122 266.364 571.918 266.67 570.35 267.034C568.804 267.398 566.963 267.636 564.827 267.75C560.509 267.977 556.884 267.534 553.952 266.42C551.02 265.284 548.816 263.5 547.338 261.068C545.861 258.636 545.145 255.591 545.191 251.932V202.091ZM583.568 267V214.636H602.386V267H583.568ZM592.977 209.182C590.431 209.182 588.25 208.341 586.431 206.659C584.613 204.977 583.704 202.955 583.704 200.591C583.704 198.227 584.613 196.205 586.431 194.523C588.25 192.841 590.431 192 592.977 192C595.545 192 597.727 192.841 599.522 194.523C601.34 196.205 602.25 198.227 602.25 200.591C602.25 202.955 601.34 204.977 599.522 206.659C597.727 208.341 595.545 209.182 592.977 209.182ZM640.081 267.955C634.399 267.955 629.536 266.83 625.49 264.58C621.445 262.307 618.343 259.148 616.184 255.102C614.024 251.034 612.945 246.318 612.945 240.955C612.945 235.591 614.024 230.886 616.184 226.841C618.343 222.773 621.445 219.614 625.49 217.364C629.536 215.091 634.399 213.955 640.081 213.955C645.763 213.955 650.627 215.091 654.672 217.364C658.718 219.614 661.82 222.773 663.979 226.841C666.138 230.886 667.218 235.591 667.218 240.955C667.218 246.318 666.138 251.034 663.979 255.102C661.82 259.148 658.718 262.307 654.672 264.58C650.627 266.83 645.763 267.955 640.081 267.955ZM640.218 254.045C641.809 254.045 643.184 253.511 644.343 252.443C645.502 251.375 646.399 249.852 647.036 247.875C647.672 245.898 647.99 243.545 647.99 240.818C647.99 238.068 647.672 235.716 647.036 233.761C646.399 231.784 645.502 230.261 644.343 229.193C643.184 228.125 641.809 227.591 640.218 227.591C638.536 227.591 637.093 228.125 635.888 229.193C634.684 230.261 633.763 231.784 633.127 233.761C632.49 235.716 632.172 238.068 632.172 240.818C632.172 243.545 632.49 245.898 633.127 247.875C633.763 249.852 634.684 251.375 635.888 252.443C637.093 253.511 638.536 254.045 640.218 254.045ZM696.552 237.545V267H677.734V214.636H695.598V224.591H696.143C697.279 221.273 699.279 218.67 702.143 216.784C705.029 214.898 708.393 213.955 712.234 213.955C715.939 213.955 719.154 214.807 721.882 216.511C724.632 218.193 726.757 220.511 728.257 223.466C729.779 226.42 730.529 229.795 730.507 233.591V267H711.689V237.545C711.711 234.955 711.052 232.92 709.711 231.443C708.393 229.966 706.552 229.227 704.189 229.227C702.643 229.227 701.291 229.568 700.132 230.25C698.995 230.909 698.12 231.864 697.507 233.114C696.893 234.341 696.575 235.818 696.552 237.545ZM762.5 212.455V197.182H823.181V212.455H802.181V267H783.5V212.455H762.5ZM851.101 267.955C845.419 267.955 840.556 266.83 836.51 264.58C832.465 262.307 829.363 259.148 827.204 255.102C825.044 251.034 823.965 246.318 823.965 240.955C823.965 235.591 825.044 230.886 827.204 226.841C829.363 222.773 832.465 219.614 836.51 217.364C840.556 215.091 845.419 213.955 851.101 213.955C856.783 213.955 861.647 215.091 865.692 217.364C869.738 219.614 872.84 222.773 874.999 226.841C877.158 230.886 878.238 235.591 878.238 240.955C878.238 246.318 877.158 251.034 874.999 255.102C872.84 259.148 869.738 262.307 865.692 264.58C861.647 266.83 856.783 267.955 851.101 267.955ZM851.238 254.045C852.829 254.045 854.204 253.511 855.363 252.443C856.522 251.375 857.419 249.852 858.056 247.875C858.692 245.898 859.01 243.545 859.01 240.818C859.01 238.068 858.692 235.716 858.056 233.761C857.419 231.784 856.522 230.261 855.363 229.193C854.204 228.125 852.829 227.591 851.238 227.591C849.556 227.591 848.113 228.125 846.908 229.193C845.704 230.261 844.783 231.784 844.147 233.761C843.51 235.716 843.192 238.068 843.192 240.818C843.192 243.545 843.51 245.898 844.147 247.875C844.783 249.852 845.704 251.375 846.908 252.443C848.113 253.511 849.556 254.045 851.238 254.045ZM928.623 267H908.168L931.214 197.182H957.123L980.168 267H959.714L944.441 216.409H943.895L928.623 267ZM924.804 239.455H963.259V253.636H924.804V239.455ZM999.344 267L978.753 197.182H999.889L1009.43 240.136H1009.98L1021.3 197.182H1037.93L1049.25 240.273H1049.8L1059.34 197.182H1080.48L1059.89 267H1041.75L1029.89 228H1029.34L1017.48 267H999.344ZM1126.01 219C1125.83 216.727 1124.97 214.955 1123.45 213.682C1121.95 212.409 1119.67 211.773 1116.6 211.773C1114.64 211.773 1113.04 212.011 1111.79 212.489C1110.56 212.943 1109.66 213.568 1109.06 214.364C1108.47 215.159 1108.17 216.068 1108.14 217.091C1108.1 217.932 1108.25 218.693 1108.59 219.375C1108.95 220.034 1109.52 220.636 1110.29 221.182C1111.06 221.705 1112.05 222.182 1113.26 222.614C1114.46 223.045 1115.89 223.432 1117.55 223.773L1123.28 225C1127.14 225.818 1130.45 226.898 1133.2 228.239C1135.95 229.58 1138.2 231.159 1139.95 232.977C1141.7 234.773 1142.98 236.795 1143.8 239.045C1144.64 241.295 1145.08 243.75 1145.1 246.409C1145.08 251 1143.93 254.886 1141.66 258.068C1139.38 261.25 1136.13 263.67 1131.91 265.33C1127.7 266.989 1122.64 267.818 1116.73 267.818C1110.67 267.818 1105.37 266.92 1100.85 265.125C1096.35 263.33 1092.85 260.568 1090.35 256.841C1087.87 253.091 1086.62 248.295 1086.6 242.455H1104.6C1104.71 244.591 1105.25 246.386 1106.2 247.841C1107.16 249.295 1108.5 250.398 1110.22 251.148C1111.97 251.898 1114.05 252.273 1116.46 252.273C1118.48 252.273 1120.18 252.023 1121.54 251.523C1122.91 251.023 1123.94 250.33 1124.64 249.443C1125.35 248.557 1125.71 247.545 1125.73 246.409C1125.71 245.341 1125.36 244.409 1124.68 243.614C1124.02 242.795 1122.93 242.068 1121.41 241.432C1119.88 240.773 1117.83 240.159 1115.23 239.591L1108.28 238.091C1102.1 236.75 1097.22 234.511 1093.66 231.375C1090.11 228.216 1088.35 223.909 1088.37 218.455C1088.35 214.023 1089.53 210.148 1091.92 206.83C1094.33 203.489 1097.66 200.886 1101.91 199.023C1106.18 197.159 1111.08 196.227 1116.6 196.227C1122.23 196.227 1127.11 197.17 1131.22 199.057C1135.34 200.943 1138.51 203.602 1140.73 207.034C1142.98 210.443 1144.12 214.432 1144.14 219H1126.01ZM173.682 343.364H154.455C154.318 341.773 153.955 340.33 153.364 339.034C152.795 337.739 152 336.625 150.977 335.693C149.977 334.739 148.761 334.011 147.33 333.511C145.898 332.989 144.273 332.727 142.455 332.727C139.273 332.727 136.58 333.5 134.375 335.045C132.193 336.591 130.534 338.807 129.398 341.693C128.284 344.58 127.727 348.045 127.727 352.091C127.727 356.364 128.295 359.943 129.432 362.83C130.591 365.693 132.261 367.852 134.443 369.307C136.625 370.739 139.25 371.455 142.318 371.455C144.068 371.455 145.636 371.239 147.023 370.807C148.409 370.352 149.614 369.705 150.636 368.864C151.659 368.023 152.489 367.011 153.125 365.83C153.784 364.625 154.227 363.273 154.455 361.773L173.682 361.909C173.455 364.864 172.625 367.875 171.193 370.943C169.761 373.989 167.727 376.807 165.091 379.398C162.477 381.966 159.239 384.034 155.375 385.602C151.511 387.17 147.023 387.955 141.909 387.955C135.5 387.955 129.75 386.58 124.659 383.83C119.591 381.08 115.58 377.034 112.625 371.693C109.693 366.352 108.227 359.818 108.227 352.091C108.227 344.318 109.727 337.773 112.727 332.455C115.727 327.114 119.773 323.08 124.864 320.352C129.955 317.602 135.636 316.227 141.909 316.227C146.318 316.227 150.375 316.83 154.08 318.034C157.784 319.239 161.034 321 163.83 323.318C166.625 325.614 168.875 328.443 170.58 331.807C172.284 335.17 173.318 339.023 173.682 343.364ZM204.252 317.182V387H185.434V317.182H204.252ZM241.948 387.955C236.266 387.955 231.402 386.83 227.357 384.58C223.311 382.307 220.209 379.148 218.05 375.102C215.891 371.034 214.811 366.318 214.811 360.955C214.811 355.591 215.891 350.886 218.05 346.841C220.209 342.773 223.311 339.614 227.357 337.364C231.402 335.091 236.266 333.955 241.948 333.955C247.629 333.955 252.493 335.091 256.538 337.364C260.584 339.614 263.686 342.773 265.845 346.841C268.004 350.886 269.084 355.591 269.084 360.955C269.084 366.318 268.004 371.034 265.845 375.102C263.686 379.148 260.584 382.307 256.538 384.58C252.493 386.83 247.629 387.955 241.948 387.955ZM242.084 374.045C243.675 374.045 245.05 373.511 246.209 372.443C247.368 371.375 248.266 369.852 248.902 367.875C249.538 365.898 249.857 363.545 249.857 360.818C249.857 358.068 249.538 355.716 248.902 353.761C248.266 351.784 247.368 350.261 246.209 349.193C245.05 348.125 243.675 347.591 242.084 347.591C240.402 347.591 238.959 348.125 237.754 349.193C236.55 350.261 235.629 351.784 234.993 353.761C234.357 355.716 234.038 358.068 234.038 360.818C234.038 363.545 234.357 365.898 234.993 367.875C235.629 369.852 236.55 371.375 237.754 372.443C238.959 373.511 240.402 374.045 242.084 374.045ZM313.555 364.091V334.636H332.373V387H314.509V377.045H313.964C312.828 380.386 310.839 383 307.998 384.886C305.157 386.75 301.782 387.682 297.873 387.682C294.214 387.682 291.009 386.841 288.259 385.159C285.532 383.477 283.407 381.159 281.884 378.205C280.384 375.25 279.623 371.864 279.6 368.045V334.636H298.418V364.091C298.441 366.682 299.1 368.716 300.396 370.193C301.714 371.67 303.555 372.409 305.918 372.409C307.487 372.409 308.839 372.08 309.975 371.42C311.134 370.739 312.021 369.784 312.634 368.557C313.271 367.307 313.578 365.818 313.555 364.091ZM363.779 387.682C360.051 387.682 356.619 386.705 353.483 384.75C350.369 382.795 347.869 379.83 345.983 375.852C344.119 371.875 343.188 366.864 343.188 360.818C343.188 354.5 344.165 349.364 346.119 345.409C348.097 341.455 350.642 338.557 353.756 336.716C356.892 334.875 360.188 333.955 363.642 333.955C366.233 333.955 368.506 334.409 370.46 335.318C372.415 336.205 374.051 337.398 375.369 338.898C376.688 340.375 377.688 342 378.369 343.773H378.642V317.182H397.46V387H378.779V378.409H378.369C377.642 380.182 376.597 381.773 375.233 383.182C373.892 384.568 372.256 385.67 370.324 386.489C368.415 387.284 366.233 387.682 363.779 387.682ZM370.733 373.227C372.46 373.227 373.938 372.727 375.165 371.727C376.415 370.705 377.369 369.273 378.029 367.432C378.71 365.568 379.051 363.364 379.051 360.818C379.051 358.227 378.71 356.011 378.029 354.17C377.369 352.307 376.415 350.886 375.165 349.909C373.938 348.909 372.46 348.409 370.733 348.409C369.006 348.409 367.529 348.909 366.301 349.909C365.097 350.886 364.165 352.307 363.506 354.17C362.869 356.011 362.551 358.227 362.551 360.818C362.551 363.409 362.869 365.636 363.506 367.5C364.165 369.341 365.097 370.761 366.301 371.761C367.529 372.739 369.006 373.227 370.733 373.227ZM458.175 387H431.311V317.182H457.902C465.084 317.182 471.289 318.58 476.516 321.375C481.766 324.148 485.811 328.148 488.652 333.375C491.516 338.58 492.948 344.818 492.948 352.091C492.948 359.364 491.527 365.614 488.686 370.841C485.845 376.045 481.823 380.045 476.618 382.841C471.414 385.614 465.266 387 458.175 387ZM450.266 370.909H457.493C460.948 370.909 463.891 370.352 466.323 369.239C468.777 368.125 470.641 366.205 471.914 363.477C473.209 360.75 473.857 356.955 473.857 352.091C473.857 347.227 473.198 343.432 471.879 340.705C470.584 337.977 468.675 336.057 466.152 334.943C463.652 333.83 460.584 333.273 456.948 333.273H450.266V370.909ZM529.961 387.955C524.37 387.955 519.552 386.886 515.507 384.75C511.484 382.591 508.382 379.5 506.2 375.477C504.041 371.432 502.961 366.591 502.961 360.955C502.961 355.545 504.052 350.818 506.234 346.773C508.416 342.727 511.495 339.58 515.473 337.33C519.45 335.08 524.143 333.955 529.552 333.955C533.507 333.955 537.086 334.568 540.291 335.795C543.495 337.023 546.234 338.807 548.507 341.148C550.779 343.466 552.529 346.284 553.757 349.602C554.984 352.92 555.598 356.659 555.598 360.818V365.182H508.825V354.818H538.279C538.257 353.318 537.87 352 537.12 350.864C536.393 349.705 535.404 348.807 534.154 348.17C532.927 347.511 531.529 347.182 529.961 347.182C528.438 347.182 527.041 347.511 525.768 348.17C524.495 348.807 523.473 349.693 522.7 350.83C521.95 351.966 521.552 353.295 521.507 354.818V366C521.507 367.682 521.859 369.182 522.563 370.5C523.268 371.818 524.279 372.852 525.598 373.602C526.916 374.352 528.507 374.727 530.37 374.727C531.666 374.727 532.848 374.545 533.916 374.182C535.007 373.818 535.938 373.295 536.711 372.614C537.484 371.909 538.052 371.068 538.416 370.091H555.598C555.007 373.727 553.609 376.886 551.404 379.568C549.2 382.227 546.279 384.295 542.643 385.773C539.029 387.227 534.802 387.955 529.961 387.955ZM617.617 334.636L600.026 387H578.208L560.617 334.636H580.389L588.844 369.273H589.389L597.844 334.636H617.617ZM649.346 387.955C643.755 387.955 638.937 386.886 634.892 384.75C630.869 382.591 627.767 379.5 625.585 375.477C623.426 371.432 622.346 366.591 622.346 360.955C622.346 355.545 623.437 350.818 625.619 346.773C627.801 342.727 630.88 339.58 634.857 337.33C638.835 335.08 643.528 333.955 648.937 333.955C652.892 333.955 656.471 334.568 659.676 335.795C662.88 337.023 665.619 338.807 667.892 341.148C670.164 343.466 671.914 346.284 673.142 349.602C674.369 352.92 674.982 356.659 674.982 360.818V365.182H628.21V354.818H657.664C657.642 353.318 657.255 352 656.505 350.864C655.778 349.705 654.789 348.807 653.539 348.17C652.312 347.511 650.914 347.182 649.346 347.182C647.823 347.182 646.426 347.511 645.153 348.17C643.88 348.807 642.857 349.693 642.085 350.83C641.335 351.966 640.937 353.295 640.892 354.818V366C640.892 367.682 641.244 369.182 641.948 370.5C642.653 371.818 643.664 372.852 644.982 373.602C646.301 374.352 647.892 374.727 649.755 374.727C651.051 374.727 652.232 374.545 653.301 374.182C654.392 373.818 655.323 373.295 656.096 372.614C656.869 371.909 657.437 371.068 657.801 370.091H674.982C674.392 373.727 672.994 376.886 670.789 379.568C668.585 382.227 665.664 384.295 662.028 385.773C658.414 387.227 654.187 387.955 649.346 387.955ZM704.36 317.182V387H685.541V317.182H704.36ZM742.055 387.955C736.373 387.955 731.51 386.83 727.464 384.58C723.419 382.307 720.316 379.148 718.157 375.102C715.998 371.034 714.919 366.318 714.919 360.955C714.919 355.591 715.998 350.886 718.157 346.841C720.316 342.773 723.419 339.614 727.464 337.364C731.51 335.091 736.373 333.955 742.055 333.955C747.737 333.955 752.6 335.091 756.646 337.364C760.691 339.614 763.794 342.773 765.953 346.841C768.112 350.886 769.191 355.591 769.191 360.955C769.191 366.318 768.112 371.034 765.953 375.102C763.794 379.148 760.691 382.307 756.646 384.58C752.6 386.83 747.737 387.955 742.055 387.955ZM742.191 374.045C743.782 374.045 745.157 373.511 746.316 372.443C747.475 371.375 748.373 369.852 749.01 367.875C749.646 365.898 749.964 363.545 749.964 360.818C749.964 358.068 749.646 355.716 749.01 353.761C748.373 351.784 747.475 350.261 746.316 349.193C745.157 348.125 743.782 347.591 742.191 347.591C740.51 347.591 739.066 348.125 737.862 349.193C736.657 350.261 735.737 351.784 735.1 353.761C734.464 355.716 734.146 358.068 734.146 360.818C734.146 363.545 734.464 365.898 735.1 367.875C735.737 369.852 736.657 371.375 737.862 372.443C739.066 373.511 740.51 374.045 742.191 374.045ZM779.708 406.636V334.636H798.39V343.773H798.799C799.48 342 800.48 340.375 801.799 338.898C803.117 337.398 804.753 336.205 806.708 335.318C808.662 334.409 810.935 333.955 813.526 333.955C816.98 333.955 820.265 334.875 823.378 336.716C826.515 338.557 829.06 341.455 831.015 345.409C832.992 349.364 833.98 354.5 833.98 360.818C833.98 366.864 833.037 371.875 831.151 375.852C829.287 379.83 826.787 382.795 823.651 384.75C820.537 386.705 817.117 387.682 813.39 387.682C810.935 387.682 808.742 387.284 806.81 386.489C804.901 385.67 803.265 384.568 801.901 383.182C800.56 381.773 799.526 380.182 798.799 378.409H798.526V406.636H779.708ZM798.117 360.818C798.117 363.364 798.446 365.568 799.105 367.432C799.787 369.273 800.742 370.705 801.969 371.727C803.219 372.727 804.708 373.227 806.435 373.227C808.162 373.227 809.628 372.739 810.833 371.761C812.06 370.761 812.992 369.341 813.628 367.5C814.287 365.636 814.617 363.409 814.617 360.818C814.617 358.227 814.287 356.011 813.628 354.17C812.992 352.307 812.06 350.886 810.833 349.909C809.628 348.909 808.162 348.409 806.435 348.409C804.708 348.409 803.219 348.909 801.969 349.909C800.742 350.886 799.787 352.307 799.105 354.17C798.446 356.011 798.117 358.227 798.117 360.818ZM844.744 387V334.636H862.608V344.591H863.153C864.244 341.318 866.108 338.727 868.744 336.818C871.38 334.909 874.517 333.955 878.153 333.955C881.835 333.955 885.005 334.932 887.664 336.886C890.324 338.818 891.926 341.386 892.471 344.591H893.017C893.903 341.386 895.789 338.818 898.676 336.886C901.562 334.932 904.949 333.955 908.835 333.955C913.858 333.955 917.926 335.568 921.039 338.795C924.176 342.023 925.744 346.318 925.744 351.682V387H906.926V356.455C906.926 354.159 906.346 352.364 905.187 351.068C904.028 349.75 902.471 349.091 900.517 349.091C898.585 349.091 897.051 349.75 895.914 351.068C894.801 352.364 894.244 354.159 894.244 356.455V387H876.244V356.455C876.244 354.159 875.664 352.364 874.505 351.068C873.346 349.75 871.789 349.091 869.835 349.091C868.539 349.091 867.426 349.386 866.494 349.977C865.562 350.568 864.835 351.42 864.312 352.534C863.812 353.625 863.562 354.932 863.562 356.455V387H844.744ZM962.996 387.955C957.405 387.955 952.587 386.886 948.542 384.75C944.519 382.591 941.417 379.5 939.235 375.477C937.076 371.432 935.996 366.591 935.996 360.955C935.996 355.545 937.087 350.818 939.269 346.773C941.451 342.727 944.53 339.58 948.508 337.33C952.485 335.08 957.178 333.955 962.587 333.955C966.542 333.955 970.121 334.568 973.326 335.795C976.53 337.023 979.269 338.807 981.542 341.148C983.814 343.466 985.564 346.284 986.792 349.602C988.019 352.92 988.633 356.659 988.633 360.818V365.182H941.86V354.818H971.314C971.292 353.318 970.905 352 970.155 350.864C969.428 349.705 968.439 348.807 967.189 348.17C965.962 347.511 964.564 347.182 962.996 347.182C961.473 347.182 960.076 347.511 958.803 348.17C957.53 348.807 956.508 349.693 955.735 350.83C954.985 351.966 954.587 353.295 954.542 354.818V366C954.542 367.682 954.894 369.182 955.598 370.5C956.303 371.818 957.314 372.852 958.633 373.602C959.951 374.352 961.542 374.727 963.405 374.727C964.701 374.727 965.883 374.545 966.951 374.182C968.042 373.818 968.973 373.295 969.746 372.614C970.519 371.909 971.087 371.068 971.451 370.091H988.633C988.042 373.727 986.644 376.886 984.439 379.568C982.235 382.227 979.314 384.295 975.678 385.773C972.064 387.227 967.837 387.955 962.996 387.955ZM1018.01 357.545V387H999.191V334.636H1017.06V344.591H1017.6C1018.74 341.273 1020.74 338.67 1023.6 336.784C1026.49 334.898 1029.85 333.955 1033.69 333.955C1037.4 333.955 1040.61 334.807 1043.34 336.511C1046.09 338.193 1048.21 340.511 1049.71 343.466C1051.24 346.42 1051.99 349.795 1051.96 353.591V387H1033.15V357.545C1033.17 354.955 1032.51 352.92 1031.17 351.443C1029.85 349.966 1028.01 349.227 1025.65 349.227C1024.1 349.227 1022.75 349.568 1021.59 350.25C1020.45 350.909 1019.58 351.864 1018.96 353.114C1018.35 354.341 1018.03 355.818 1018.01 357.545ZM1095.36 334.636V348.273H1060.86V334.636H1095.36ZM1067.54 322.091H1086.36V370.159C1086.36 370.886 1086.49 371.5 1086.74 372C1086.99 372.477 1087.37 372.841 1087.9 373.091C1088.42 373.318 1089.09 373.432 1089.91 373.432C1090.47 373.432 1091.13 373.364 1091.88 373.227C1092.66 373.091 1093.22 372.977 1093.59 372.886L1096.32 386.114C1095.47 386.364 1094.27 386.67 1092.7 387.034C1091.16 387.398 1089.32 387.636 1087.18 387.75C1082.86 387.977 1079.24 387.534 1076.3 386.42C1073.37 385.284 1071.17 383.5 1069.69 381.068C1068.21 378.636 1067.5 375.591 1067.54 371.932V322.091ZM1127.65 387V317.182H1146.61V345.409H1147.56L1168.56 317.182H1190.65L1167.06 348.273L1191.2 387H1168.56L1152.88 360.818L1146.61 369V387H1127.65ZM1202.71 387V334.636H1221.53V387H1202.71ZM1212.12 329.182C1209.58 329.182 1207.39 328.341 1205.58 326.659C1203.76 324.977 1202.85 322.955 1202.85 320.591C1202.85 318.227 1203.76 316.205 1205.58 314.523C1207.39 312.841 1209.58 312 1212.12 312C1214.69 312 1216.87 312.841 1218.67 314.523C1220.48 316.205 1221.39 318.227 1221.39 320.591C1221.39 322.955 1220.48 324.977 1218.67 326.659C1216.87 328.341 1214.69 329.182 1212.12 329.182ZM1265.22 334.636V348.273H1230.72V334.636H1265.22ZM1237.41 322.091H1256.22V370.159C1256.22 370.886 1256.35 371.5 1256.6 372C1256.85 372.477 1257.24 372.841 1257.76 373.091C1258.28 373.318 1258.95 373.432 1259.77 373.432C1260.34 373.432 1261 373.364 1261.75 373.227C1262.52 373.091 1263.09 372.977 1263.45 372.886L1266.18 386.114C1265.34 386.364 1264.13 386.67 1262.57 387.034C1261.02 387.398 1259.18 387.636 1257.04 387.75C1252.72 387.977 1249.1 387.534 1246.17 386.42C1243.24 385.284 1241.03 383.5 1239.55 381.068C1238.08 378.636 1237.36 375.591 1237.41 371.932V322.091Z" fill="white"/>
<path d="M1023.7 674.308V769.591L1109.64 820.849L1194.5 770.065V674.071L1109.64 623.316L1023.7 674.308Z" fill="white" fill-opacity="0.15" stroke="white" stroke-width="4"/>
<path d="M1188.55 676.752V767.621L1108.91 815.099L1029.27 767.621V676.752L1108.91 629.273L1188.55 676.752ZM1115.55 617.778C1113.53 616.613 1111.24 616 1108.91 616C1106.58 616 1104.29 616.613 1102.28 617.778L1022.64 665.257C1020.62 666.422 1018.94 668.097 1017.78 670.115C1016.61 672.133 1016 674.422 1016 676.752V767.621C1016 769.951 1016.61 772.24 1017.78 774.257C1018.94 776.275 1020.62 777.951 1022.64 779.115L1102.28 826.594C1104.29 827.759 1106.58 828.372 1108.91 828.372C1111.24 828.372 1113.53 827.759 1115.55 826.594L1195.19 779.115C1197.21 777.951 1198.88 776.275 1200.05 774.257C1201.21 772.24 1201.83 769.951 1201.83 767.621V676.752C1201.83 674.422 1201.21 672.133 1200.05 670.115C1198.88 668.097 1197.21 666.422 1195.19 665.257L1115.55 617.778Z" fill="white" fill-opacity="0.15"/>
<g opacity="0.8">
<path d="M1105.62 775.372L1059.3 748.826V695.732L1105.62 722.279V775.372Z" fill="white"/>
<path d="M1151.95 748.826L1105.62 775.372V722.279L1151.95 695.732V748.826Z" fill="#EBEBEB"/>
<path d="M1105.62 721.744L1059.3 695.333L1105.62 668.922L1151.94 695.333L1105.62 721.744Z" fill="#FBFBFB"/>
<path d="M1105.62 721.896L1061.31 696.863L1059.3 698.011L1105.62 724.175L1151.94 698.011V695.732L1105.62 721.896Z" fill="white"/>
</g>
<path d="M743.656 951.692V1145.65L918.601 1249.99L1091.36 1146.62V951.209L918.601 847.893L743.656 951.692Z" fill="white" fill-opacity="0.15" stroke="white" stroke-width="4"/>
<path d="M1079.25 956.667V1141.64L917.136 1238.29L755.019 1141.64V956.667L917.136 860.019L1079.25 956.667ZM930.646 836.62C926.538 834.248 921.879 833 917.136 833C912.393 833 907.734 834.248 903.626 836.62L741.51 933.268C737.402 935.64 733.992 939.051 731.62 943.158C729.249 947.265 728 951.925 728 956.667V1141.64C728 1146.39 729.249 1151.04 731.62 1155.15C733.992 1159.26 737.402 1162.67 741.51 1165.04L903.626 1261.69C907.734 1264.06 912.393 1265.31 917.136 1265.31C921.879 1265.31 926.538 1264.06 930.646 1261.69L1092.76 1165.04C1096.87 1162.67 1100.28 1159.26 1102.65 1155.15C1105.02 1151.04 1106.27 1146.39 1106.27 1141.64V956.667C1106.27 951.925 1105.02 947.265 1102.65 943.158C1100.28 939.051 1096.87 935.64 1092.76 933.268L930.646 836.62Z" fill="white" fill-opacity="0.15"/>
<path d="M990.221 1013.87V1085.72L918.088 1044.63L919.597 969.469L990.221 1013.87Z" fill="#9B9B9B" stroke="white" stroke-width="5"/>
<path d="M843.5 1013.88V1085.73L914.686 1045.27V969.504L843.5 1013.88Z" fill="#C3C3C3" stroke="white" stroke-width="5"/>
<path d="M916.86 1130.12L846.043 1089.7L916.86 1049.27L987.678 1089.7L916.86 1130.12Z" fill="#BFBFBF" stroke="white" stroke-width="5"/>
<path d="M916.776 1049.94L888.859 1033.95V1001.95L916.776 1017.95V1049.94Z" fill="#D6D3DB"/>
<path d="M944.698 1033.95L916.781 1049.94V1017.95L944.698 1001.95V1033.95Z" fill="white"/>
<path d="M916.776 1017.62L888.859 1001.71L916.776 985.789L944.692 1001.71L916.776 1017.62Z" fill="white"/>
<path d="M916.776 1017.72L890.076 1002.63L888.859 1003.32L916.776 1019.09L944.692 1003.32V1001.95L916.776 1017.72Z" fill="white"/>
<path d="M889.055 1098.16L861.139 1082.16V1050.16L889.055 1066.16V1098.16Z" fill="#D6D3DB"/>
<path d="M916.977 1082.16L889.061 1098.16V1066.16L916.977 1050.16V1082.16Z" fill="white"/>
<path d="M889.055 1065.84L861.139 1049.92L889.055 1034L916.972 1049.92L889.055 1065.84Z" fill="white"/>
<path d="M889.055 1065.93L862.355 1050.84L861.139 1051.53L889.055 1067.3L916.972 1051.53V1050.16L889.055 1065.93Z" fill="white"/>
<path d="M945.104 1098.16L917.188 1082.16V1050.16L945.104 1066.16V1098.16Z" fill="#D6D3DB"/>
<path d="M973.026 1082.16L945.109 1098.16V1066.16L973.026 1050.16V1082.16Z" fill="white"/>
<path d="M945.104 1065.84L917.188 1049.92L945.104 1034L973.02 1049.92L945.104 1065.84Z" fill="white"/>
<path d="M945.104 1065.93L918.404 1050.84L917.188 1051.53L945.104 1067.3L973.02 1051.53V1050.16L945.104 1065.93Z" fill="white"/>
<line x1="888.984" y1="1001.95" x2="917.31" y2="1017.62" stroke="#413360" stroke-width="3"/>
<line x1="861.261" y1="1050.17" x2="889.587" y2="1065.84" stroke="#413360" stroke-width="3"/>
<line x1="917.912" y1="1050.17" x2="946.237" y2="1065.84" stroke="#413360" stroke-width="3"/>
<line x1="889.008" y1="1033.31" x2="916.128" y2="1048.98" stroke="#413360" stroke-width="3"/>
<line x1="861.286" y1="1081.52" x2="888.406" y2="1097.19" stroke="#413360" stroke-width="3"/>
<line x1="917.936" y1="1081.52" x2="945.056" y2="1097.19" stroke="#413360" stroke-width="3"/>
<line x1="917.331" y1="985.693" x2="945.657" y2="1001.97" stroke="#413360" stroke-width="3"/>
<line x1="889.609" y1="1033.91" x2="917.934" y2="1050.18" stroke="#413360" stroke-width="3"/>
<line x1="946.259" y1="1033.91" x2="974.584" y2="1050.18" stroke="#413360" stroke-width="3"/>
<line x1="945.033" y1="1002.77" x2="916.707" y2="1018.44" stroke="#413360" stroke-width="3"/>
<line x1="917.31" y1="1050.98" x2="888.984" y2="1066.65" stroke="#413360" stroke-width="3"/>
<line x1="973.96" y1="1050.98" x2="945.635" y2="1066.65" stroke="#413360" stroke-width="3"/>
<line x1="945.634" y1="1034.11" x2="917.309" y2="1049.78" stroke="#413360" stroke-width="3"/>
<line x1="917.912" y1="1082.32" x2="889.586" y2="1097.99" stroke="#413360" stroke-width="3"/>
<line x1="974.564" y1="1082.32" x2="946.238" y2="1097.99" stroke="#413360" stroke-width="3"/>
<line x1="917.921" y1="986.494" x2="888.993" y2="1002.77" stroke="#413360" stroke-width="3"/>
<line x1="890.198" y1="1034.71" x2="861.27" y2="1050.98" stroke="#413360" stroke-width="3"/>
<line x1="946.851" y1="1034.71" x2="917.922" y2="1050.98" stroke="#413360" stroke-width="3"/>
<line x1="916.732" y1="1017.74" x2="916.732" y2="1050.3" stroke="#413360" stroke-width="3"/>
<line x1="889.383" y1="1065.93" x2="889.383" y2="1098.49" stroke="#413360" stroke-width="3"/>
<line x1="946.035" y1="1065.93" x2="946.035" y2="1098.49" stroke="#413360" stroke-width="3"/>
<line x1="890.035" y1="1001.46" x2="890.035" y2="1034.02" stroke="#413360" stroke-width="3"/>
<line x1="862.035" y1="1049.65" x2="862.035" y2="1082.21" stroke="#413360" stroke-width="3"/>
<line x1="918.686" y1="1049.65" x2="918.686" y2="1082.21" stroke="#413360" stroke-width="3"/>
<line x1="945.203" y1="1002.03" x2="945.806" y2="1034.58" stroke="#413360" stroke-width="3"/>
<line x1="917.48" y1="1050.25" x2="918.083" y2="1082.79" stroke="#413360" stroke-width="3"/>
<line x1="974.131" y1="1050.25" x2="974.733" y2="1082.79" stroke="#413360" stroke-width="3"/>
<defs>
<filter id="filter0_d_3047_1300" x="64" y="464" width="389" height="212" filterUnits="userSpaceOnUse" color-interpolation-filters="sRGB">
<feFlood flood-opacity="0" result="BackgroundImageFix"/>
<feColorMatrix in="SourceAlpha" type="matrix" values="0 0 0 0 0 0 0 0 0 0 0 0 0 0 0 0 0 0 127 0" result="hardAlpha"/>
<feOffset dy="16"/>
<feGaussianBlur stdDeviation="20"/>
<feComposite in2="hardAlpha" operator="out"/>
<feColorMatrix type="matrix" values="0 0 0 0 0 0 0 0 0 0 0 0 0 0 0 0 0 0 0.05 0"/>
<feBlend mode="normal" in2="BackgroundImageFix" result="effect1_dropShadow_3047_1300"/>
<feBlend mode="normal" in="SourceGraphic" in2="effect1_dropShadow_3047_1300" result="shape"/>
</filter>
<radialGradient id="paint0_radial_3047_1300" cx="0" cy="0" r="1" gradientUnits="userSpaceOnUse" gradientTransform="translate(-355.2 -322.136) rotate(36.5012) scale(2238.73 3337.02)">
<stop offset="0.120942" stop-color="#321179"/>
<stop offset="1" stop-color="#160E2B"/>
</radialGradient>
</defs>
</svg>
