<svg width="210" height="210" viewBox="0 0 210 210" fill="none" xmlns="http://www.w3.org/2000/svg">
<path d="M72.9824 50.4838L111.176 60.6454L98.0447 68.1597C91.9285 71.6595 84.1053 69.5781 80.5709 63.5108L72.9824 50.4838Z" fill="#A5FECB"/>
<path fill-rule="evenodd" clip-rule="evenodd" d="M41.3338 53.9568L80.1145 31.7654L118.286 42.6721L155.543 106.63C158.874 112.348 156.897 119.66 151.128 122.961L98.9295 152.83C93.1603 156.131 85.7834 154.172 82.4526 148.454L36.9188 70.2874C33.588 64.5695 35.5646 57.258 41.3338 53.9568Z" fill="#F0E9FF"/>
<path d="M96.1814 107.468L111.811 98.5238C112.388 98.1937 113.126 98.3896 113.459 98.9614L113.852 99.6372C114.186 100.209 113.988 100.94 113.411 101.27L97.7813 110.214C97.2044 110.544 96.4667 110.348 96.1336 109.776L95.7399 109.101C95.4068 108.529 95.6045 107.798 96.1814 107.468Z" fill="#FFE988"/>
<path d="M96.1698 88.5795C105.338 83.3331 108.475 71.707 103.177 62.6118C97.8792 53.5166 86.1518 50.3965 76.9835 55.6429C67.8152 60.8892 64.6778 72.5154 69.9759 81.6105C75.2741 90.7057 87.0014 93.8258 96.1698 88.5795Z" fill="white"/>
<path d="M88.3018 75.4097C91.6191 73.5115 92.7543 69.305 90.8373 66.0142C88.9204 62.7234 84.6772 61.5945 81.3599 63.4927C78.0427 65.3909 76.9075 69.5975 78.8245 72.8882C80.7414 76.179 84.9846 77.3079 88.3018 75.4097Z" fill="#A5FECB"/>
<path d="M104.486 102.025C111.547 97.9847 113.963 89.0311 109.883 82.0266C105.803 75.0222 96.7713 72.6193 89.7105 76.6597C82.6497 80.7 80.2335 89.6536 84.3137 96.6581C88.394 103.663 97.4256 106.065 104.486 102.025Z" fill="#A5FECB"/>
<path d="M92.0467 119.497L124.288 101.048C124.865 100.717 125.602 100.913 125.935 101.485L126.329 102.161C126.662 102.733 126.464 103.464 125.888 103.794L93.6465 122.243C93.0696 122.573 92.3319 122.377 91.9988 121.806L91.6052 121.13C91.2721 120.558 91.4697 119.827 92.0467 119.497Z" fill="white"/>
<path d="M100.806 121.386L121.973 109.274C122.55 108.943 123.288 109.139 123.621 109.711L124.015 110.387C124.348 110.959 124.15 111.69 123.573 112.02L102.406 124.132C101.829 124.462 101.092 124.266 100.759 123.695L100.365 123.019C100.032 122.447 100.23 121.716 100.806 121.386Z" fill="white"/>
<path d="M80.2285 31.8423L118.422 42.0039L105.291 49.5182C99.1746 53.018 91.3513 50.9366 87.817 44.8692L80.2285 31.8423Z" fill="#A5FECB"/>
<path d="M97.9492 36.4996L132.188 56.1126L117.542 60.0023C110.72 61.8139 103.707 57.7966 101.877 51.0293L97.9492 36.4996Z" fill="#A5FECB"/>
<path fill-rule="evenodd" clip-rule="evenodd" d="M66.4704 31.7353L109.725 20.2482L143.747 40.5751L163.033 111.911C164.757 118.289 160.938 124.844 154.504 126.553L96.2841 142.014C89.8495 143.723 83.2355 139.938 81.5114 133.561L57.9413 46.377C56.2172 39.9995 60.0358 33.4442 66.4704 31.7353Z" fill="#E5D9FF"/>
<path d="M105.476 97.4926L122.909 92.863C123.552 92.6921 124.214 93.0706 124.386 93.7083L124.59 94.4621C124.762 95.0999 124.381 95.7554 123.737 95.9263L106.305 100.556C105.661 100.727 105 100.348 104.827 99.7106L104.623 98.9568C104.451 98.319 104.833 97.6635 105.476 97.4926Z" fill="#FFE988"/>
<path d="M98.3416 108.051L134.302 98.5012C134.945 98.3303 135.607 98.7088 135.779 99.3465L135.983 100.1C136.155 100.738 135.773 101.394 135.13 101.564L99.1697 111.114C98.5263 111.285 97.8649 110.907 97.6925 110.269L97.4887 109.515C97.3162 108.878 97.6981 108.222 98.3416 108.051Z" fill="white"/>
<path d="M106.31 112.123L129.919 105.853C130.562 105.683 131.224 106.061 131.396 106.699L131.6 107.453C131.772 108.09 131.39 108.746 130.747 108.917L107.138 115.186C106.495 115.357 105.834 114.979 105.661 114.341L105.457 113.587C105.285 112.95 105.667 112.294 106.31 112.123Z" fill="white"/>
<path d="M109.818 20.3523L144.057 39.9653L129.411 43.855C122.589 45.6666 115.576 41.6493 113.746 34.882L109.818 20.3523Z" fill="#A5FECB"/>
<path d="M121.564 28.6769L149.515 56.4046H134.352C127.29 56.4046 121.564 50.7252 121.564 43.7192V28.6769Z" fill="#A5FECB"/>
<path fill-rule="evenodd" clip-rule="evenodd" d="M92.4018 16H137.182L164.737 44.3618V118.214C164.737 124.817 159.337 130.169 152.675 130.169H92.4018C85.7402 130.169 80.3398 124.817 80.3398 118.214V27.9549C80.3398 21.3524 85.7402 16 92.4018 16Z" fill="#996BFE"/>
<path opacity="0.965588" fill-rule="evenodd" clip-rule="evenodd" d="M115.319 33.3346H133.367C134.033 33.3346 134.573 33.8698 134.573 34.5301V35.3105C134.573 35.9707 134.033 36.506 133.367 36.506H115.319C114.653 36.506 114.113 35.9707 114.113 35.3105V34.5301C114.113 33.8698 114.653 33.3346 115.319 33.3346ZM115.319 59.0376H133.367C134.033 59.0376 134.573 59.5729 134.573 60.2331V61.0135C134.573 61.6737 134.033 62.209 133.367 62.209H115.319C114.653 62.209 114.113 61.6737 114.113 61.0135V60.2331C114.113 59.5729 114.653 59.0376 115.319 59.0376ZM115.319 39.9098H152.548C153.214 39.9098 153.754 40.445 153.754 41.1053V41.8857C153.754 42.5459 153.214 43.0812 152.548 43.0812H115.319C114.653 43.0812 114.113 42.5459 114.113 41.8857V41.1053C114.113 40.445 114.653 39.9098 115.319 39.9098ZM115.319 65.6128H152.548C153.214 65.6128 153.754 66.148 153.754 66.8083V67.5887C153.754 68.2489 153.214 68.7842 152.548 68.7842H115.319C114.653 68.7842 114.113 68.2489 114.113 67.5887V66.8083C114.113 66.148 114.653 65.6128 115.319 65.6128ZM115.319 84.7406H133.367C134.033 84.7406 134.573 85.2759 134.573 85.9361V86.7165C134.573 87.3768 134.033 87.912 133.367 87.912H115.319C114.653 87.912 114.113 87.3768 114.113 86.7165V85.9361C114.113 85.2759 114.653 84.7406 115.319 84.7406ZM115.319 91.3158H152.548C153.214 91.3158 153.754 91.8511 153.754 92.5113V93.2917C153.754 93.9519 153.214 94.4872 152.548 94.4872H115.319C114.653 94.4872 114.113 93.9519 114.113 93.2917V92.5113C114.113 91.8511 114.653 91.3158 115.319 91.3158ZM115.319 117.019H152.548C153.214 117.019 153.754 117.554 153.754 118.214V118.995C153.754 119.655 153.214 120.19 152.548 120.19H115.319C114.653 120.19 114.113 119.655 114.113 118.995V118.214C114.113 117.554 114.653 117.019 115.319 117.019ZM100.78 48.7641C95.4864 48.7641 91.1953 44.5072 91.1953 39.2561C91.1953 34.005 95.4864 29.7481 100.78 29.7481C106.073 29.7481 110.364 34.005 110.364 39.2561C110.364 44.5072 106.073 48.7641 100.78 48.7641ZM100.78 74.4671C95.4864 74.4671 91.1953 70.2102 91.1953 64.9591C91.1953 59.708 95.4864 55.4511 100.78 55.4511C106.073 55.4511 110.364 59.708 110.364 64.9591C110.364 70.2102 106.073 74.4671 100.78 74.4671ZM100.78 100.17C95.4864 100.17 91.1953 95.9133 91.1953 90.6621C91.1953 85.411 95.4864 81.1542 100.78 81.1542C106.073 81.1542 110.364 85.411 110.364 90.6621C110.364 95.9133 106.073 100.17 100.78 100.17Z" fill="#E5D9FF"/>
<path d="M100.696 41.1115C98.7804 41.1115 97.2278 39.5713 97.2278 37.6713C97.2278 35.7714 98.7804 34.2312 100.696 34.2312C102.611 34.2312 104.163 35.7714 104.163 37.6713C104.163 39.5713 102.611 41.1115 100.696 41.1115ZM94.2891 46.2506C95.4602 43.742 98.0205 42.0019 100.99 42.0019C103.852 42.0019 106.334 43.6175 107.558 45.9794C105.824 47.6999 103.428 48.7641 100.781 48.7641C98.2767 48.7641 95.9965 47.8111 94.2891 46.2506ZM100.696 66.8145C98.7804 66.8145 97.2278 65.2743 97.2278 63.3744C97.2278 61.4744 98.7804 59.9342 100.696 59.9342C102.611 59.9342 104.163 61.4744 104.163 63.3744C104.163 65.2743 102.611 66.8145 100.696 66.8145ZM94.2891 71.9536C95.4602 69.445 98.0205 67.7049 100.99 67.7049C103.852 67.7049 106.334 69.3205 107.558 71.6824C105.824 73.4029 103.428 74.4671 100.781 74.4671C98.2767 74.4671 95.9965 73.5141 94.2891 71.9536ZM100.696 92.5175C98.7804 92.5175 97.2278 90.9773 97.2278 89.0774C97.2278 87.1774 98.7804 85.6372 100.696 85.6372C102.611 85.6372 104.163 87.1774 104.163 89.0774C104.163 90.9773 102.611 92.5175 100.696 92.5175ZM94.2891 97.6567C95.4602 95.1481 98.0205 93.4079 100.99 93.4079C103.852 93.4079 106.334 95.0235 107.558 97.3854C105.824 99.1059 103.428 100.17 100.781 100.17C98.2767 100.17 95.9965 99.2171 94.2891 97.6567Z" fill="white"/>
<path d="M115.319 110.444H133.367C134.033 110.444 134.573 110.979 134.573 111.639V112.419C134.573 113.08 134.033 113.615 133.367 113.615H115.319C114.653 113.615 114.113 113.08 114.113 112.419V111.639C114.113 110.979 114.653 110.444 115.319 110.444Z" fill="#FFE988"/>
<path d="M100.78 125.873C106.073 125.873 110.364 121.616 110.364 116.365C110.364 111.114 106.073 106.857 100.78 106.857C95.4864 106.857 91.1953 111.114 91.1953 116.365C91.1953 121.616 95.4864 125.873 100.78 125.873Z" fill="white"/>
<path d="M100.694 118.22C102.61 118.22 104.162 116.68 104.162 114.78C104.162 112.88 102.61 111.34 100.694 111.34C98.7792 111.34 97.2266 112.88 97.2266 114.78C97.2266 116.68 98.7792 118.22 100.694 118.22Z" fill="#A5FECB"/>
<path d="M100.989 133.756C105.065 133.756 108.37 130.477 108.37 126.433C108.37 122.389 105.065 119.111 100.989 119.111C96.9121 119.111 93.6074 122.389 93.6074 126.433C93.6074 130.477 96.9121 133.756 100.989 133.756Z" fill="#A5FECB"/>
<path d="M137.244 16.1243L165.195 43.852H150.032C142.969 43.852 137.244 38.1725 137.244 31.1665V16.1243Z" fill="#CFB9FF"/>
<path fill-rule="evenodd" clip-rule="evenodd" d="M151.505 154.079H171.407C172.073 154.079 172.613 154.614 172.613 155.274V156.055C172.613 156.715 172.073 157.25 171.407 157.25H151.505C150.839 157.25 150.299 156.715 150.299 156.055V155.274C150.299 154.614 150.839 154.079 151.505 154.079ZM151.505 160.056H183.469C184.135 160.056 184.675 160.592 184.675 161.252V162.032C184.675 162.692 184.135 163.228 183.469 163.228H151.505C150.839 163.228 150.299 162.692 150.299 162.032V161.252C150.299 160.592 150.839 160.056 151.505 160.056Z" fill="#FB65BC"/>
<path d="M40.8825 144.407C41.4594 144.737 41.6571 145.468 41.324 146.04C40.9909 146.612 40.2532 146.808 39.6763 146.478C38.5543 145.836 37.5069 145.174 36.5325 144.492C35.9884 144.111 35.8589 143.365 36.2432 142.826C36.6276 142.287 37.3802 142.158 37.9243 142.539C38.8373 143.178 39.8228 143.801 40.8825 144.407ZM33.5709 138.79C34.0198 139.278 33.9845 140.034 33.4923 140.479C33 140.924 32.2371 140.889 31.7883 140.401C30.9017 139.437 30.1251 138.435 29.4576 137.392C29.1008 136.834 29.2677 136.095 29.8302 135.742C30.3928 135.388 31.1381 135.554 31.4948 136.111C32.0862 137.035 32.7773 137.927 33.5709 138.79ZM29.2971 130.975C29.4526 131.617 29.0536 132.263 28.4058 132.417C27.758 132.571 27.1069 132.175 26.9514 131.533C26.6586 130.325 26.4766 129.071 26.4042 127.77C26.3675 127.111 26.877 126.547 27.5421 126.511C28.2073 126.474 28.7762 126.979 28.8129 127.639C28.8775 128.798 29.0387 129.908 29.2971 130.975ZM29.198 121.95C29.0835 122.6 28.4586 123.036 27.8024 122.922C27.1461 122.809 26.707 122.189 26.8216 121.539C27.0271 120.372 27.3025 119.169 27.6477 117.929C27.8249 117.292 28.4891 116.919 29.1312 117.094C29.7734 117.27 30.1504 117.928 29.9733 118.565C29.6482 119.733 29.3899 120.86 29.198 121.95ZM35.4096 109.248C33.9107 109.248 32.6957 108.044 32.6957 106.558C32.6957 105.073 33.9107 103.868 35.4096 103.868C36.9085 103.868 38.1235 105.073 38.1235 106.558C38.1235 108.044 36.9085 109.248 35.4096 109.248ZM35.4096 111.041C37.9077 111.041 39.9328 109.034 39.9328 106.558C39.9328 104.082 37.9077 102.075 35.4096 102.075C32.9115 102.075 30.8864 104.082 30.8864 106.558C30.8864 109.034 32.9115 111.041 35.4096 111.041ZM35.4096 112.835C31.9122 112.835 29.0771 110.025 29.0771 106.558C29.0771 103.092 31.9122 100.282 35.4096 100.282C38.9069 100.282 41.7421 103.092 41.7421 106.558C41.7421 110.025 38.9069 112.835 35.4096 112.835ZM171.081 101.809C170.563 101.393 170.483 100.64 170.902 100.127C171.322 99.6142 172.081 99.5351 172.599 99.9506C173.606 100.759 174.536 101.574 175.391 102.399C175.868 102.86 175.878 103.617 175.413 104.09C174.949 104.563 174.185 104.573 173.708 104.112C172.907 103.339 172.032 102.572 171.081 101.809ZM177.416 108.49C177.049 107.939 177.204 107.197 177.76 106.834C178.316 106.471 179.064 106.624 179.431 107.176C180.154 108.265 180.763 109.375 181.258 110.509C181.522 111.115 181.241 111.819 180.629 112.081C180.018 112.343 179.308 112.064 179.043 111.458C178.605 110.454 178.063 109.465 177.416 108.49ZM180.403 116.872C180.351 116.213 180.847 115.638 181.511 115.586C182.175 115.534 182.756 116.026 182.808 116.684C182.907 117.923 182.889 119.19 182.755 120.486C182.687 121.142 182.095 121.62 181.432 121.553C180.769 121.486 180.287 120.899 180.355 120.242C180.474 119.088 180.49 117.965 180.403 116.872ZM179.077 125.801C179.293 125.177 179.978 124.844 180.609 125.057C181.239 125.271 181.575 125.951 181.359 126.576C180.972 127.697 180.51 128.842 179.973 130.013C179.698 130.614 178.983 130.88 178.376 130.608C177.77 130.335 177.501 129.626 177.777 129.025C178.282 127.922 178.715 126.848 179.077 125.801ZM170.503 145.113C169.004 145.113 167.789 143.909 167.789 142.423C167.789 140.937 169.004 139.733 170.503 139.733C172.002 139.733 173.217 140.937 173.217 142.423C173.217 143.909 172.002 145.113 170.503 145.113ZM170.503 146.906C173.001 146.906 175.026 144.899 175.026 142.423C175.026 139.947 173.001 137.94 170.503 137.94C168.005 137.94 165.98 139.947 165.98 142.423C165.98 144.899 168.005 146.906 170.503 146.906ZM170.503 148.699C167.006 148.699 164.171 145.889 164.171 142.423C164.171 138.957 167.006 136.147 170.503 136.147C174.001 136.147 176.836 138.957 176.836 142.423C176.836 145.889 174.001 148.699 170.503 148.699Z" fill="#D4DFFF"/>
<path fill-rule="evenodd" clip-rule="evenodd" d="M52.5974 111.041H136.428C139.759 111.041 142.459 113.718 142.459 117.019V169.023C142.459 172.324 139.759 175 136.428 175H52.5974C49.2666 175 46.5664 172.324 46.5664 169.023V117.019C46.5664 113.718 49.2666 111.041 52.5974 111.041Z" fill="#428DFF"/>
<path fill-rule="evenodd" clip-rule="evenodd" d="M43.5527 110.444H145.476V138.538C145.476 141.839 142.776 144.515 139.445 144.515H49.5837C46.2529 144.515 43.5527 141.839 43.5527 138.538V110.444Z" fill="#72A5FF"/>
<path fill-rule="evenodd" clip-rule="evenodd" d="M117.129 136.744H121.954C123.286 136.744 124.366 137.815 124.366 139.135V150.492C124.366 151.813 123.286 152.883 121.954 152.883H117.129C115.797 152.883 114.717 151.813 114.717 150.492V139.135C114.717 137.815 115.797 136.744 117.129 136.744Z" fill="white"/>
<path fill-rule="evenodd" clip-rule="evenodd" d="M64.0569 136.744H68.8817C70.214 136.744 71.2941 137.815 71.2941 139.135V150.492C71.2941 151.813 70.214 152.883 68.8817 152.883H64.0569C62.7246 152.883 61.6445 151.813 61.6445 150.492V139.135C61.6445 137.815 62.7246 136.744 64.0569 136.744Z" fill="white"/>
<path fill-rule="evenodd" clip-rule="evenodd" d="M52.5534 102.673H136.475C138.348 102.673 140.114 103.535 141.256 105.006L145.476 110.444H43.5527L47.7731 105.006C48.9147 103.535 50.6809 102.673 52.5534 102.673Z" fill="#89B7FC"/>
<path fill-rule="evenodd" clip-rule="evenodd" d="M111.099 108.336H111.093C110.926 103.86 107.213 100.282 102.656 100.282H86.9753C82.4184 100.282 78.7047 103.86 78.5378 108.336H78.532V108.65H70.1099C70.0158 108.65 69.9219 108.644 69.8286 108.632C68.6619 108.478 67.8421 107.416 67.9974 106.259C68.1813 104.891 69.3591 103.868 70.7522 103.868H78.532V104.466C78.532 99.8444 82.3122 96.0978 86.9753 96.0978H102.656C107.319 96.0978 111.099 99.8444 111.099 104.466V103.868H118.879C120.272 103.868 121.45 104.891 121.634 106.259C121.789 107.416 120.969 108.478 119.802 108.632C119.709 108.644 119.615 108.65 119.521 108.65H111.099V108.336Z" fill="#E3E7F2"/>
<path d="M55.9892 196.729C87.3902 183.089 83.3527 153.938 82.1985 148.119C82.1438 147.85 81.9825 147.614 81.7522 147.468C81.5218 147.322 81.2425 147.278 80.9792 147.346C66.3505 150.811 59.1362 142.692 56.8536 139.345C56.6678 139.066 56.3575 138.899 56.0256 138.899C55.6937 138.899 55.3835 139.066 55.1976 139.345C52.9072 142.692 45.6688 150.814 31.037 147.346C30.7738 147.278 30.4945 147.322 30.2641 147.468C30.0337 147.614 29.8725 147.85 29.8178 148.119C28.6635 153.938 24.626 183.089 56.027 196.729H55.9892Z" fill="#E3E7F2"/>
<path d="M56.0073 192.282C32.6822 181.258 32.3164 160.487 33.2827 151.898C34.7997 152.122 36.3307 152.237 37.8638 152.241C44.6899 152.373 51.2641 149.63 56.0203 144.666C60.7656 149.629 67.3318 152.372 74.1497 152.239C75.6825 152.235 77.2132 152.12 78.7298 151.896C79.6982 160.488 79.3324 181.258 56.0073 192.282Z" fill="#E3E7F2"/>
<path d="M56.0049 196.719C55.4952 196.496 54.9955 196.273 54.5059 196.04C84.257 182.133 80.3295 153.853 79.2002 148.119C79.1739 147.984 79.1195 147.857 79.0403 147.745C79.6699 147.643 80.3195 147.502 80.9791 147.35C81.2418 147.283 81.5199 147.328 81.7497 147.473C81.9795 147.618 82.1415 147.851 82.1984 148.119C83.3475 153.944 87.3849 183.075 56.0049 196.719Z" fill="#A4C2F7"/>
<path d="M55.9989 192.282C55.4892 192.039 54.9895 191.796 54.5098 191.543C76.096 180.482 76.6656 160.761 75.7662 152.192C76.7568 152.147 77.7443 152.049 78.7244 151.898C79.6938 160.487 79.324 181.262 55.9989 192.282Z" fill="#A4C2F7"/>
<path d="M56.0289 196.729L56.0096 196.72L55.9902 196.729H56.0289Z" fill="white"/>
<path d="M32.9733 147.74C32.3406 147.629 31.698 147.504 31.0345 147.347C30.7712 147.278 30.4919 147.323 30.2615 147.469C30.0312 147.615 29.8699 147.85 29.8152 148.12C28.6799 153.844 24.7815 182.123 54.5254 196.03L54.5065 196.04C54.9751 196.263 55.4548 196.477 55.9416 196.69C55.9645 196.699 55.9845 196.711 56.0066 196.72C56.5242 196.495 57.0189 196.26 57.5166 196.027C27.7806 182.118 31.6781 153.842 32.8134 148.12C32.8403 147.983 32.8948 147.854 32.9733 147.74Z" fill="white"/>
<path d="M57.5244 140.261C57.2676 139.929 57.0427 139.619 56.8548 139.343C56.669 139.064 56.3588 138.897 56.0269 138.897C55.695 138.897 55.3847 139.064 55.1989 139.343C51.5462 144.613 45.6847 147.864 39.3359 148.141C49.3945 148.729 55.058 143.435 57.5244 140.261Z" fill="white"/>
<path d="M55.6294 197.659C51.5594 195.913 47.7158 193.668 44.1847 190.974C37.6426 185.984 32.7626 179.085 30.1996 171.203C28.9451 167.291 28.2239 163.223 28.056 159.113C27.8547 154.993 28.1969 150.865 29.0733 146.837L31.0061 147.355C30.1835 151.185 29.8629 155.108 30.0526 159.023C30.2129 162.949 30.9011 166.833 32.0984 170.57C34.5342 178.066 39.1761 184.627 45.3999 189.37C48.7995 191.96 52.4994 194.119 56.4169 195.798L55.6294 197.659Z" fill="white"/>
<path d="M51.9549 195.9C53.1191 196.515 54.3264 197.038 55.5127 197.605C55.6561 197.691 55.8189 197.738 55.9853 197.742H56.0233C56.2119 197.742 56.3967 197.687 56.555 197.583C91.7135 182.187 83.027 147.19 82.9382 146.836C82.797 146.295 82.2503 145.973 81.7169 146.116C64.6628 150.669 57.8311 139.297 56.9657 137.694C56.9391 137.607 56.9017 137.524 56.8548 137.447C56.656 137.167 56.3359 137 55.9948 137C55.6538 137 55.3336 137.167 55.1349 137.447C55.0784 137.542 55.037 137.644 55.0119 137.751C54.0245 139.544 47.158 150.613 30.2937 146.117C29.7606 145.975 29.2146 146.297 29.0735 146.837C28.1967 150.865 27.8545 154.994 28.0561 159.114C28.2241 163.224 28.9453 167.291 30.1998 171.204C32.7627 179.086 37.6426 185.985 44.1848 190.976C44.4546 191.186 44.7364 191.381 45.0123 191.583C45.4578 191.908 46.0785 191.808 46.4027 191.359C46.7269 190.91 46.6331 190.28 46.1926 189.948C45.9287 189.755 45.658 189.57 45.4001 189.369C39.1771 184.628 34.5353 178.069 32.0985 170.575C30.9013 166.838 30.2131 162.953 30.0528 159.027C29.8922 155.445 30.1515 151.856 30.8253 148.335C45.8917 151.884 53.5388 143.45 56.0042 139.905C58.4716 143.45 66.1278 151.908 81.2241 148.324C82.3993 154.013 86.4608 182.096 56.0051 195.602C54.9547 195.106 53.8904 194.636 52.8651 194.093C52.3808 193.838 51.7843 194.027 51.529 194.515C51.2698 195.017 51.4603 195.637 51.9549 195.9Z" fill="#428DFF"/>
<path d="M48.4091 193.877C48.6379 194.018 48.9105 194.065 49.1725 194.011L49.3514 193.945C49.4123 193.917 49.4692 193.88 49.5202 193.837C49.5736 193.802 49.6215 193.76 49.6622 193.711C49.7049 193.659 49.7444 193.604 49.7801 193.547C49.9095 193.311 49.9503 193.037 49.895 192.773C49.861 192.645 49.8042 192.525 49.7271 192.418C49.4946 192.092 49.0929 191.938 48.7057 192.026C48.5789 192.061 48.4593 192.119 48.353 192.197C48.0205 192.429 47.8619 192.843 47.9533 193.242C48.0214 193.504 48.1841 193.731 48.4091 193.877Z" fill="#428DFF"/>
<path d="M56.0042 193.296C56.1504 193.296 56.2946 193.263 56.427 193.201C80.5676 181.803 80.7794 160.431 79.7501 151.773C79.7179 151.502 79.5791 151.255 79.3652 151.089C79.1512 150.923 78.8803 150.852 78.6138 150.892C77.1349 151.112 75.6424 151.225 74.1477 151.229C73.5957 151.229 73.1483 151.682 73.1483 152.242C73.1483 152.801 73.5957 153.255 74.1477 153.255C75.3927 153.252 76.6367 153.178 77.8733 153.032C78.6867 161.75 77.6544 180.706 56.0042 191.164C53.9503 190.179 51.9673 189.049 50.07 187.783C49.7726 187.57 49.3846 187.538 49.0572 187.699C48.7297 187.86 48.5145 188.189 48.4955 188.557C48.4765 188.925 48.6567 189.275 48.9657 189.47C51.0764 190.88 53.2886 192.128 55.5835 193.203C55.7154 193.264 55.859 193.296 56.0042 193.296Z" fill="#428DFF"/>
<path d="M37.8633 153.254C44.6011 153.394 51.1209 150.831 56.0037 146.123C58.7552 148.803 62.0792 150.804 65.7175 151.971C66.0597 152.089 66.4379 152.01 66.7067 151.765C66.9754 151.52 67.0928 151.148 67.0137 150.79C66.9347 150.433 66.6713 150.147 66.3252 150.042C62.679 148.868 59.3808 146.788 56.7313 143.991C56.3316 143.595 55.6941 143.595 55.2942 143.991C50.7307 148.753 44.4176 151.375 37.8694 151.228C36.382 151.224 34.8968 151.112 33.4252 150.894C33.1579 150.854 32.8863 150.927 32.6725 151.094C32.4586 151.261 32.3206 151.509 32.2899 151.781C31.7686 156.389 31.9608 161.052 32.8595 165.6C34.1273 172.193 37.1778 178.299 41.6709 183.236C41.9136 183.502 42.2779 183.616 42.6261 183.536C42.9744 183.456 43.2541 183.193 43.3596 182.847C43.4651 182.501 43.3807 182.124 43.1378 181.859C38.8907 177.194 36.007 171.424 34.8091 165.194C34.0185 161.194 33.801 157.101 34.1635 153.039C35.3919 153.181 36.627 153.253 37.8633 153.254Z" fill="#428DFF"/>
<path d="M48.0306 179.509H56.0255C56.5775 179.509 57.0248 179.056 57.0248 178.496C57.0248 177.937 56.5775 177.483 56.0255 177.483H48.0306C47.4786 177.483 47.0312 177.937 47.0312 178.496C47.0312 179.056 47.4787 179.509 48.0306 179.509Z" fill="#428DFF"/>
<path d="M60.0228 177.483C59.4708 177.483 59.0234 177.937 59.0234 178.496C59.0234 179.055 59.4708 179.509 60.0228 179.509H64.0202C64.5721 179.509 65.0195 179.055 65.0195 178.496C65.0195 177.937 64.572 177.483 64.0202 177.483H60.0228Z" fill="#428DFF"/>
<path d="M32.0443 192.677C32.5962 192.677 33.0436 192.223 33.0436 191.664V189.638H35.0424C35.5943 189.638 36.0417 189.185 36.0417 188.625C36.0417 188.066 35.5943 187.612 35.0424 187.612H33.0436V185.587C33.0436 185.027 32.5961 184.574 32.0443 184.574C31.4925 184.574 31.045 185.027 31.045 185.587V187.612H29.0462C28.4942 187.612 28.0469 188.066 28.0469 188.625C28.0469 189.185 28.4944 189.638 29.0462 189.638H31.045V191.664C31.045 192.223 31.4923 192.677 32.0443 192.677Z" fill="#428DFF"/>
<path d="M81.0013 197.741C81.5533 197.741 82.0006 197.288 82.0006 196.729V194.703H83.9994C84.5514 194.703 84.9987 194.249 84.9987 193.69C84.9987 193.13 84.5514 192.677 83.9994 192.677H82.0006V190.651C82.0006 190.092 81.5533 189.638 81.0013 189.638C80.4494 189.638 80.002 190.092 80.002 190.651V192.677H78.0032C77.4513 192.677 77.0039 193.131 77.0039 193.69C77.0039 194.249 77.4513 194.703 78.0032 194.703H80.002V196.729C80.002 197.288 80.4495 197.741 81.0013 197.741Z" fill="#428DFF"/>
<path d="M64.7244 159.548C64.3342 159.152 63.7016 159.152 63.3113 159.548L51.0262 171.999L48.7347 169.677C48.3426 169.293 47.7192 169.298 47.3337 169.689C46.9482 170.08 46.9428 170.712 47.3216 171.109L50.3197 174.148C50.7099 174.543 51.3425 174.543 51.7327 174.148L64.7244 160.98C65.1145 160.584 65.1145 159.943 64.7244 159.548Z" fill="#428DFF"/>
</svg>
