<svg width="66" height="66" viewBox="0 0 66 66" fill="none" xmlns="http://www.w3.org/2000/svg">
<path d="M41.2657 48.5911H24.7324V55.8244H41.2657V48.5911Z" fill="#7FABFA"/>
<path d="M38.1657 48.5911H24.7324V55.8244H38.1657V48.5911Z" fill="#F5F5F5"/>
<path d="M62.967 8.29074L62.9675 41.3574H3.03321L3.0337 8.29074C3.01662 7.17789 3.44263 6.10391 4.21787 5.30529C4.99312 4.50668 6.05414 4.04919 7.16699 4.03345H58.8337C59.9466 4.04919 61.0076 4.5068 61.7828 5.30529C62.5581 6.10379 62.9842 7.17789 62.967 8.29074Z" fill="#F5F5F5"/>
<path d="M62.9665 40.324V44.4573C62.9665 46.74 61.1159 48.5906 58.8332 48.5906H7.1665C4.88376 48.5906 3.0332 46.74 3.0332 44.4573V40.324H62.9665Z" fill="#7FABFA"/>
<path d="M59.8665 40.324V44.4573C59.8665 46.74 58.0159 48.5906 55.7332 48.5906H7.1665C4.88376 48.5906 3.0332 46.74 3.0332 44.4573V40.324H59.8665Z" fill="#F5F5F5"/>
<path d="M49.5335 57.8907V59.9574H16.4668V57.8907C16.4702 56.7507 17.3935 55.8274 18.5335 55.824H47.4668C48.6068 55.8274 49.5301 56.7507 49.5335 57.8907Z" fill="#7FABFA"/>
<path d="M46.4335 57.8904V59.9571H16.4668V57.8904C16.4702 56.7505 17.3935 55.8271 18.5335 55.8237H44.3668C45.5068 55.8271 46.4301 56.7505 46.4335 57.8904Z" fill="#F5F5F5"/>
<path d="M24.733 16.5572C24.733 21.1228 21.0319 24.8239 16.4663 24.8239C15.9464 24.8233 15.4275 24.7749 14.9163 24.6792C11.0141 23.9395 8.18945 20.529 8.18945 16.5572C8.18945 12.5855 11.0141 9.175 14.9163 8.43523C15.4275 8.33957 15.9464 8.29113 16.4663 8.29053C21.0319 8.29053 24.733 11.9916 24.733 16.5572Z" fill="#F5F5F5"/>
<path d="M21.6316 16.5577C21.6375 20.5246 18.8216 23.9349 14.9253 24.6797H14.915C14.7187 24.6384 14.5327 24.597 14.3467 24.5454C14.1217 24.4922 13.9007 24.4231 13.6854 24.3387C13.4684 24.2664 13.2514 24.1734 13.0447 24.0804C12.838 23.9874 12.652 23.8944 12.4557 23.7807C12.4402 23.7781 12.4258 23.7709 12.4144 23.76C12.2801 23.6877 12.1457 23.605 12.0217 23.5223C11.939 23.4705 11.8564 23.419 11.7737 23.357C11.6497 23.2743 11.536 23.1917 11.4224 23.0987C11.3821 23.0746 11.3441 23.0468 11.3087 23.016C8.7861 21.0021 7.66635 17.7041 8.44135 14.5705C9.21635 11.437 11.7444 9.04126 14.915 8.43555C18.8131 9.17979 21.6326 12.5891 21.6316 16.5577Z" fill="#F5F5F5"/>
<path d="M16.4652 18.6241C18.1773 18.6241 19.5652 17.2362 19.5652 15.5241C19.5652 13.812 18.1773 12.4241 16.4652 12.4241C14.7532 12.4241 13.3652 13.812 13.3652 15.5241C13.3652 17.2362 14.7532 18.6241 16.4652 18.6241Z" fill="#F5F5F5"/>
<path d="M8.19931 33.0908H16.466C17.0367 33.0908 17.4993 33.5534 17.4993 34.1241V40.3241H7.16602V34.1241C7.16602 33.5534 7.62871 33.0908 8.19931 33.0908Z" fill="#F5F5F5"/>
<path d="M22.6661 33.0908H30.9328C31.5035 33.0908 31.9661 33.5534 31.9661 34.1241V40.3241H21.6328V34.1241C21.6328 33.5534 22.0954 33.0908 22.6661 33.0908Z" fill="#F5F5F5"/>
<path d="M21.634 22.7574C21.6357 22.8436 21.6323 22.9299 21.6237 23.0157C20.1602 24.1865 18.3416 24.8243 16.4674 24.824C15.9509 24.8234 15.4355 24.7749 14.9277 24.6793C17.5372 24.1739 19.7465 22.4487 20.8694 20.0396C21.3716 20.8571 21.6363 21.7981 21.634 22.7574Z" fill="#F5F5F5"/>
<path d="M20.87 20.0399C19.7471 22.4491 17.5378 24.1742 14.9282 24.6796C14.732 24.6383 14.5355 24.5969 14.3495 24.5453C14.1245 24.4922 13.9036 24.423 13.6882 24.3386C13.4712 24.2663 13.2542 24.1733 13.0475 24.0803C12.8408 23.9873 12.6548 23.8943 12.4585 23.7806C12.443 23.7781 12.4286 23.7708 12.4172 23.7599C12.283 23.6876 12.1485 23.6049 12.0245 23.5222C11.9418 23.4705 11.8592 23.4189 11.7765 23.3569C11.6525 23.2742 11.5388 23.1916 11.4252 23.0986C11.3849 23.0745 11.3469 23.0468 11.3115 23.0159C11.3029 22.9301 11.2994 22.8439 11.3012 22.7576C11.3072 20.6459 12.5893 18.7471 14.546 17.9526H14.5562C15.6735 18.8481 17.2624 18.8481 18.3795 17.9526H18.3898C19.4117 18.3765 20.2779 19.1054 20.87 20.0399Z" fill="#F5F5F5"/>
<path d="M62.9665 26.7669V40.0039C62.9665 40.0039 62.9665 53.6956 48.4998 61.9002C47.9625 61.6005 47.4458 61.2802 46.9498 60.9599C34.0332 52.6932 34.0332 40.0039 34.0332 40.0039V26.7669C34.0366 25.6269 34.9599 24.7036 36.0999 24.7002H60.8999C62.0398 24.7036 62.9631 25.6269 62.9665 26.7669Z" fill="#F5F5F5"/>
<path d="M59.8665 26.7669V40.0039C59.8665 40.0039 59.8665 52.6932 46.9498 60.9599C34.0332 52.6932 34.0332 40.0039 34.0332 40.0039V26.7669C34.0366 25.6269 34.9599 24.7036 36.0999 24.7002H57.7999C58.9399 24.7036 59.8631 25.6269 59.8665 26.7669Z" fill="#F5F5F5"/>
<path d="M58.8326 28.8335V40.0038C58.8223 40.4171 58.5536 50.1821 48.4993 57.0331C47.9482 56.6611 47.4315 56.2788 46.9493 55.8861C38.2796 49.0454 38.166 40.1071 38.166 40.0038V28.8335H58.8326Z" fill="#F5F5F5"/>
<path d="M55.7326 28.8335V40.0038C55.7223 40.3965 55.4846 49.1488 46.9493 55.8861C38.2796 49.0454 38.166 40.1071 38.166 40.0038V28.8335H55.7326Z" fill="#F5F5F5"/>
<path d="M7.16699 48.5907H10.267C7.98425 48.5907 6.1337 46.7402 6.1337 44.4574V8.29074C6.11662 7.17789 6.54263 6.10391 7.31787 5.30529C8.09312 4.50668 9.15414 4.04919 10.267 4.03345H7.16699C6.05414 4.04919 4.99312 4.5068 4.21787 5.30529C3.44263 6.10379 3.01662 7.17789 3.0337 8.29074V44.4574C3.0337 46.7402 4.88425 48.5907 7.16699 48.5907Z" fill="#E3E7F2"/>
<path d="M19.5668 57.8907C19.5702 56.7507 20.4935 55.8274 21.6335 55.824H18.5335C17.3935 55.8274 16.4702 56.7507 16.4668 57.8907V59.9574H19.5668V57.8907Z" fill="#E3E7F2"/>
<path d="M27.8324 48.5911H24.7324V55.8244H27.8324V48.5911Z" fill="#E3E7F2"/>
<path d="M2 40.2V26.7667V8.16675H4.06671V26.7667V40.2H2Z" fill="white"/>
<path d="M2.64071 32.8841C2.69932 32.9141 2.76192 32.9349 2.82671 32.9461C2.895 32.9576 2.96415 32.9646 3.03341 32.9669C3.30696 32.9629 3.56889 32.8558 3.76712 32.6671C3.86048 32.5683 3.93423 32.4526 3.98412 32.3261C4.13997 31.9407 4.05508 31.4997 3.76712 31.1999C3.66831 31.1065 3.55254 31.0327 3.42612 30.9829C3.30188 30.9299 3.16843 30.9018 3.03341 30.9001C2.75986 30.9041 2.49794 31.0112 2.29971 31.1999C1.9001 31.6073 1.9001 32.2597 2.29971 32.6671L2.45471 32.7911C2.51235 32.8304 2.57483 32.8616 2.64071 32.8841Z" fill="#428DFF"/>
<path d="M58.8334 3H7.16671C4.31471 3.00339 2.00351 5.31459 2 8.16671V27.8C2 28.3707 2.4627 28.8333 3.03329 28.8333C3.60389 28.8333 4.06659 28.3707 4.06659 27.8V8.16671C4.06659 6.45468 5.45456 5.06671 7.16659 5.06671H58.8333C60.5453 5.06671 61.9333 6.45468 61.9333 8.16671V23.8568C61.6023 23.7344 61.2527 23.6701 60.9 23.6667H36.1C34.388 23.6667 33 25.0547 33 26.7667V27.8H8.2C7.62929 27.8 7.16671 28.2627 7.16671 28.8333C7.16671 29.404 7.62941 29.8666 8.2 29.8666H33V39.1666H22.6667V33.9999H29.9C30.4707 33.9999 30.9333 33.5373 30.9333 32.9666C30.9333 32.3959 30.4706 31.9333 29.9 31.9333H22.6667C21.5253 31.9333 20.6 32.8586 20.6 34V39.1667H18.5333V34C18.5333 32.8586 17.608 31.9333 16.4666 31.9333H8.2C7.05857 31.9333 6.13329 32.8586 6.13329 34V39.1667H4.06671V36.0667C4.06671 35.496 3.60401 35.0334 3.03341 35.0334C2.46282 35.0334 2 35.496 2 36.0667V44.3334C2.00339 47.1854 4.31459 49.4966 7.16671 49.5001H23.7V54.6668H18.5333C16.8213 54.6668 15.4333 56.0548 15.4333 57.7668V59.8335C15.4333 60.4042 15.896 60.8668 16.4666 60.8668H44.969C45.9418 61.5628 46.9499 62.2077 47.9895 62.7991C48.306 62.9789 48.6939 62.9789 49.0104 62.7991C63.8295 54.3887 64 40.5916 64 40.0078V8.16671C63.9966 5.31459 61.6854 3.00339 58.8334 3ZM8.2 34H16.4667V39.1667H8.2V34ZM4.06671 44.3334V41.2334H33.0734C33.2996 43.353 33.7909 45.436 34.5356 47.4334H7.16671C6.34448 47.4334 5.55604 47.1068 4.97467 46.5255C4.3933 45.9441 4.06671 45.1555 4.06671 44.3334ZM25.7667 49.5H35.3933C36.242 51.3307 37.2881 53.0632 38.5129 54.6667H25.7667V49.5ZM17.5 58.8V57.7667C17.5 57.196 17.9627 56.7334 18.5333 56.7334H40.2467C40.8925 57.432 41.6025 58.1222 42.3671 58.8001H17.5V58.8ZM61.9334 40.0069C61.9334 40.5349 61.734 52.8894 48.5001 60.7066C45.8998 59.1927 43.5468 57.2892 41.5231 55.0626C41.4922 55.019 41.4577 54.9782 41.4198 54.9406C39.6387 52.9444 38.1785 50.6838 37.0912 48.2394C37.0634 48.1172 37.0133 48.0013 36.9434 47.8974C35.8364 45.4059 35.2002 42.7311 35.0668 40.0079V26.7667C35.0668 26.196 35.5295 25.7334 36.1001 25.7334H60.9001C61.4708 25.7334 61.9334 26.1961 61.9334 26.7667V40.0069Z" fill="#428DFF"/>
<path d="M10.6209 23.6575L10.6406 23.672C14.0285 26.4138 18.87 26.4215 22.2666 23.6906C22.2838 23.6791 22.3004 23.6667 22.3163 23.6534C25.3805 21.1756 26.5505 17.0357 25.2364 13.3205C23.9222 9.60546 20.4093 7.12183 16.4687 7.12183C12.528 7.12183 9.01512 9.60546 7.70088 13.3205C6.38665 17.0355 7.55666 21.1756 10.6209 23.6534V23.6575ZM12.3528 22.3752C12.4413 20.9604 13.2487 19.6898 14.4918 19.0085C15.7158 19.709 17.2193 19.709 18.4432 19.0085C19.6859 19.6904 20.4924 20.9615 20.5802 22.3761C18.1082 24.0984 14.8248 24.0984 12.3528 22.3761V22.3752ZM16.4665 17.4669C15.3251 17.4669 14.3998 16.5416 14.3998 15.4002C14.3998 14.2587 15.3251 13.3335 16.4665 13.3335C17.6079 13.3335 18.5332 14.2587 18.5332 15.4002C18.5332 16.5416 17.6079 17.4669 16.4665 17.4669ZM16.4665 9.20016C19.1808 9.19495 21.6686 10.7125 22.9061 13.1283C24.1437 15.544 23.9218 18.4498 22.3317 20.6496C21.9019 19.3884 21.0771 18.2991 19.9798 17.5434C20.381 16.9003 20.5957 16.1583 20.5998 15.4003C20.5998 13.1175 18.7492 11.267 16.4665 11.267C14.1838 11.267 12.3332 13.1174 12.3332 15.4002C12.3373 16.1582 12.552 16.9001 12.9532 17.5433C11.8559 18.299 11.0312 19.3883 10.6013 20.6495C9.01124 18.4497 8.7894 15.544 10.0269 13.1282C11.2643 10.7124 13.7523 9.19495 16.4665 9.20016Z" fill="#428DFF"/>
<path d="M28.8673 12.3002H58.834C59.4047 12.3002 59.8673 11.8375 59.8673 11.2669C59.8673 10.6963 59.4047 10.2336 58.834 10.2336H28.8673C28.2966 10.2336 27.834 10.6963 27.834 11.2669C27.834 11.8375 28.2966 12.3002 28.8673 12.3002Z" fill="#428DFF"/>
<path d="M28.8673 16.4335H58.834C59.4047 16.4335 59.8673 15.9708 59.8673 15.4002C59.8673 14.8295 59.4047 14.3669 58.834 14.3669H28.8673C28.2966 14.3669 27.834 14.8296 27.834 15.4002C27.834 15.9708 28.2966 16.4335 28.8673 16.4335Z" fill="#428DFF"/>
<path d="M28.8673 20.5668H39.2006C39.7713 20.5668 40.2339 20.1041 40.2339 19.5335C40.2339 18.9628 39.7712 18.5002 39.2006 18.5002H28.8673C28.2966 18.5002 27.834 18.9629 27.834 19.5335C27.834 20.1041 28.2966 20.5668 28.8673 20.5668Z" fill="#428DFF"/>
<path d="M57.8002 27.8C57.2295 27.8 56.7669 28.2627 56.7669 28.8333C56.7669 29.4041 57.2296 29.8666 57.8002 29.8666V39.9933C57.794 40.3829 57.5367 49.6261 47.9184 56.1826C47.6022 56.3857 47.421 56.7446 47.4456 57.1198C47.4702 57.4949 47.6966 57.8271 48.0368 57.9871C48.3769 58.1472 48.7772 58.1098 49.0819 57.8897C59.5754 50.74 59.8596 40.4583 59.8668 40.0079V29.8668C59.8668 28.7253 58.9415 27.8 57.8002 27.8Z" fill="#428DFF"/>
<path d="M39.1995 40.0078V29.8666H50.5662C51.1369 29.8666 51.5995 29.4039 51.5995 28.8333C51.5995 28.2626 51.1369 27.8 50.5662 27.8H39.1995C38.0581 27.8 37.1328 28.7253 37.1328 29.8668V40.0079C37.423 44.2355 38.9262 48.2897 41.4625 51.6846C41.6793 51.9836 42.039 52.1444 42.4063 52.1061C42.7736 52.068 43.0927 51.8367 43.2433 51.4996C43.394 51.1623 43.3533 50.7704 43.1365 50.4713C40.862 47.4255 39.4969 43.7975 39.1995 40.0078Z" fill="#428DFF"/>
<path d="M55.4322 35.2071C55.0287 34.8037 54.3745 34.8037 53.971 35.2071L46.3058 42.8723L45.0989 41.6654C44.6934 41.2737 44.0489 41.2793 43.6503 41.678C43.2517 42.0766 43.2461 42.7211 43.6377 43.1265L45.5752 45.064C45.9787 45.4673 46.6329 45.4673 47.0364 45.064L55.4322 36.6682C55.8355 36.2647 55.8355 35.6105 55.4322 35.2071Z" fill="#428DFF"/>
</svg>
