<svg width="66" height="66" viewBox="0 0 66 66" fill="none" xmlns="http://www.w3.org/2000/svg">
<path d="M61 12.001V52.0032C61 52.5337 60.7893 53.0424 60.4142 53.4175C60.0391 53.7926 59.5304 54.0033 59 54.0033H7C6.46957 54.0033 5.96086 53.7926 5.58578 53.4175C5.21071 53.0424 5 52.5337 5 52.0032V12.001H61Z" fill="#E3E7F2"/>
<path d="M57 13V45.3024C56.9546 46.8495 56.2864 48.3164 55.1409 49.3833C53.9955 50.4503 52.4656 51.0309 50.8846 50.9987H4V13.0898H6.03846V13H57Z" fill="#F5F5F5"/>
<path d="M61 7.00012V15.0006H5V7.00012C5 6.46965 5.21071 5.96091 5.58578 5.58582C5.96086 5.21072 6.46957 5 7 5H59C59.5304 5 60.0391 5.21072 60.4142 5.58582C60.7893 5.96091 61 6.46965 61 7.00012Z" fill="#F5F5F5"/>
<path d="M43.0001 12.0007C44.1047 12.0007 45.0002 11.1052 45.0002 10.0005C45.0002 8.89578 44.1047 8.00024 43.0001 8.00024C41.8955 8.00024 41 8.89578 41 10.0005C41 11.1052 41.8955 12.0007 43.0001 12.0007Z" fill="#428DFF"/>
<path d="M48.9982 12.0007C50.1028 12.0007 50.9983 11.1052 50.9983 10.0005C50.9983 8.89578 50.1028 8.00024 48.9982 8.00024C47.8935 8.00024 46.998 8.89578 46.998 10.0005C46.998 11.1052 47.8935 12.0007 48.9982 12.0007Z" fill="#428DFF"/>
<path d="M54.9982 12.0007C56.1028 12.0007 56.9983 11.1052 56.9983 10.0005C56.9983 8.89578 56.1028 8.00024 54.9982 8.00024C53.8935 8.00024 52.998 8.89578 52.998 10.0005C52.998 11.1052 53.8935 12.0007 54.9982 12.0007Z" fill="#428DFF"/>
<path d="M10.002 11.0008H29.0019C29.2672 11.0008 29.5215 10.8954 29.709 10.7079C29.8966 10.5204 30.0019 10.266 30.0019 10.0008C30.0019 9.73555 29.8966 9.48117 29.709 9.29362C29.5215 9.10608 29.2672 9.00073 29.0019 9.00073H10.002C9.73674 9.00073 9.48238 9.10608 9.29485 9.29362C9.10731 9.48117 9.00195 9.73555 9.00195 10.0008C9.00195 10.266 9.10731 10.5204 9.29485 10.7079C9.48238 10.8954 9.73674 11.0008 10.002 11.0008Z" fill="#428DFF"/>
<path d="M45 33.0027C44.9985 35.7182 44.076 38.3529 42.3834 40.4763C40.6908 42.5997 38.3281 44.0863 35.6814 44.693C33.0347 45.2998 30.2604 44.9909 27.8119 43.8169C25.3634 42.6428 23.3855 40.6731 22.2013 38.2294C21.0171 35.7857 20.6966 33.0126 21.2923 30.3632C21.888 27.7138 23.3645 25.3448 25.4807 23.6432C27.5969 21.9417 30.2276 21.0082 32.9429 20.9953C35.6583 20.9823 38.2978 21.8908 40.43 23.5721C41.8554 24.6961 43.0072 26.1287 43.7988 27.7622C44.5903 29.3957 45.0011 31.1875 45 33.0027Z" fill="#CCD3EB"/>
<path d="M42.9999 31.0022C42.7581 33.0244 41.8377 34.9049 40.3891 36.3364C38.9404 37.7678 37.0492 38.6656 35.0243 38.8832C32.9994 39.1007 30.9606 38.6251 29.241 37.5339C27.5214 36.4428 26.2227 34.8008 25.557 32.876C24.8912 30.9513 24.8979 28.8576 25.5759 26.9372C26.2539 25.0167 27.563 23.3829 29.2896 22.3028C31.0161 21.2227 33.0578 20.76 35.0813 20.9904C37.1047 21.2208 38.9902 22.1307 40.4297 23.5714C42.0965 25.6894 43.0018 28.3069 42.9999 31.0022Z" fill="#F5F7FF"/>
<path d="M33.9385 40.4627H32.0484C31.5095 40.4606 30.9767 40.3497 30.4817 40.1366C29.9868 39.9235 29.54 39.6125 29.1682 39.2225C28.4098 38.4324 27.99 37.3774 27.9982 36.2822V29.0414C27.9982 28.7761 28.1035 28.5217 28.2911 28.3342C28.4786 28.1466 28.733 28.0413 28.9982 28.0413H36.9987C37.2639 28.0413 37.5183 28.1466 37.7058 28.3342C37.8934 28.5217 37.9987 28.7761 37.9987 29.0414V36.2822C38.0032 37.3786 37.5798 38.4334 36.8187 39.2225C36.4469 39.6125 36.0001 39.9235 35.5052 40.1366C35.0102 40.3497 34.4774 40.4606 33.9385 40.4627ZM29.9983 30.0415V36.2822C29.9963 36.8608 30.2144 37.4185 30.6083 37.8423C30.7942 38.0374 31.0176 38.1929 31.2651 38.2994C31.5125 38.406 31.779 38.4614 32.0484 38.4625H33.9385C34.2079 38.4614 34.4744 38.406 34.7218 38.2994C34.9693 38.1929 35.1927 38.0374 35.3786 37.8423C35.7753 37.4195 35.9969 36.862 35.9986 36.2822V30.0415H29.9983Z" fill="#428DFF"/>
<path d="M35.9984 30.0019H29.9981C29.7329 30.0019 29.4785 29.8965 29.291 29.709C29.1034 29.5214 28.998 29.267 28.998 29.0018V28.0017C28.998 26.9407 29.4195 25.9232 30.1697 25.1729C30.9199 24.4227 31.9373 24.0012 32.9983 24.0012C34.0592 24.0012 35.0767 24.4227 35.8269 25.1729C36.5771 25.9232 36.9985 26.9407 36.9985 28.0017V29.0018C36.9985 29.267 36.8931 29.5214 36.7056 29.709C36.518 29.8965 36.2637 30.0019 35.9984 30.0019ZM30.9982 28.0017H34.9984C34.9984 27.4712 34.7877 26.9624 34.4126 26.5873C34.0375 26.2122 33.5287 26.0015 32.9983 26.0015C32.4678 26.0015 31.9591 26.2122 31.584 26.5873C31.2089 26.9624 30.9982 27.4712 30.9982 28.0017Z" fill="#428DFF"/>
<path d="M38.0001 31.0019H37.0001C36.7348 31.0019 36.4805 30.8966 36.2929 30.709C36.1054 30.5214 36 30.2671 36 30.0018C36 29.7366 36.1054 29.4822 36.2929 29.2946C36.4805 29.1071 36.7348 29.0017 37.0001 29.0017H38.0001C38.2653 29.0017 38.5197 28.8963 38.7073 28.7088C38.8948 28.5212 39.0002 28.2668 39.0002 28.0016C39.0002 27.7363 39.1055 27.4819 39.2931 27.2944C39.4806 27.1068 39.735 27.0015 40.0002 27.0015C40.2655 27.0015 40.5198 27.1068 40.7074 27.2944C40.8949 27.4819 41.0003 27.7363 41.0003 28.0016C41.0003 28.7973 40.6842 29.5605 40.1216 30.1232C39.5589 30.6858 38.7958 31.0019 38.0001 31.0019Z" fill="#428DFF"/>
<path d="M40.0002 39.0024C39.735 39.0024 39.4806 38.897 39.2931 38.7094C39.1055 38.5219 39.0002 38.2675 39.0002 38.0023C39.0002 37.737 38.8948 37.4826 38.7073 37.2951C38.5197 37.1075 38.2653 37.0022 38.0001 37.0022H37.0001C36.7348 37.0022 36.4805 36.8968 36.2929 36.7092C36.1054 36.5217 36 36.2673 36 36.0021C36 35.7368 36.1054 35.4824 36.2929 35.2949C36.4805 35.1073 36.7348 35.002 37.0001 35.002H38.0001C38.7958 35.002 39.5589 35.318 40.1216 35.8807C40.6842 36.4434 41.0003 37.2065 41.0003 38.0023C41.0003 38.2675 40.8949 38.5219 40.7074 38.7094C40.5198 38.897 40.2655 39.0024 40.0002 39.0024Z" fill="#428DFF"/>
<path d="M29.0022 31.0019H28.0021C27.2064 31.0019 26.4433 30.6858 25.8807 30.1232C25.3181 29.5605 25.002 28.7973 25.002 28.0016C25.002 27.7363 25.1073 27.4819 25.2949 27.2944C25.4824 27.1068 25.7368 27.0015 26.002 27.0015C26.2672 27.0015 26.5216 27.1068 26.7092 27.2944C26.8967 27.4819 27.0021 27.7363 27.0021 28.0016C27.0021 28.2668 27.1074 28.5212 27.295 28.7088C27.4825 28.8963 27.7369 29.0017 28.0021 29.0017H29.0022C29.2674 29.0017 29.5218 29.1071 29.7093 29.2946C29.8969 29.4822 30.0022 29.7366 30.0022 30.0018C30.0022 30.2671 29.8969 30.5214 29.7093 30.709C29.5218 30.8966 29.2674 31.0019 29.0022 31.0019Z" fill="#428DFF"/>
<path d="M26.002 39.0024C25.7368 39.0024 25.4824 38.897 25.2949 38.7094C25.1073 38.5219 25.002 38.2675 25.002 38.0023C25.002 37.2065 25.3181 36.4434 25.8807 35.8807C26.4433 35.318 27.2064 35.002 28.0021 35.002H29.0022C29.2674 35.002 29.5218 35.1073 29.7093 35.2949C29.8969 35.4824 30.0022 35.7368 30.0022 36.0021C30.0022 36.2673 29.8969 36.5217 29.7093 36.7092C29.5218 36.8968 29.2674 37.0022 29.0022 37.0022H28.0021C27.7369 37.0022 27.4825 37.1075 27.295 37.2951C27.1074 37.4826 27.0021 37.737 27.0021 38.0023C27.0021 38.2675 26.8967 38.5219 26.7092 38.7094C26.5216 38.897 26.2672 39.0024 26.002 39.0024Z" fill="#428DFF"/>
<path d="M33.0001 40.5026C32.7348 40.5026 32.4805 40.3972 32.2929 40.2097C32.1054 40.0221 32 39.7677 32 39.5025V33.5018C32 33.2366 32.1054 32.9822 32.2929 32.7946C32.4805 32.6071 32.7348 32.5017 33.0001 32.5017C33.2653 32.5017 33.5197 32.6071 33.7072 32.7946C33.8948 32.9822 34.0001 33.2366 34.0001 33.5018V39.5025C34.0001 39.7677 33.8948 40.0221 33.7072 40.2097C33.5197 40.3972 33.2653 40.5026 33.0001 40.5026Z" fill="#428DFF"/>
<path d="M35.0022 44.8323V49.0028H31.002V44.8323C32.3257 45.059 33.6784 45.059 35.0022 44.8323Z" fill="#F5F7FF"/>
<path d="M35.9984 49.0027V58.0037C35.9975 58.7226 35.7386 59.4174 35.2687 59.9614C34.7988 60.5055 34.1492 60.8627 33.4381 60.9681C32.727 61.0735 32.0017 60.9201 31.3942 60.5357C30.7867 60.1513 30.3374 59.5616 30.1281 58.8738C30.0436 58.5914 29.9998 58.2985 29.998 58.0037V49.0027H35.9984Z" fill="#E3E7F2"/>
<path d="M34.002 50.0024V57.0032C34.002 57.799 33.6859 58.5621 33.1232 59.1248C32.5606 59.6875 31.7975 60.0036 31.0018 60.0036C30.862 60.0775 30.7021 60.1046 30.5457 60.081C30.3893 60.0574 30.2446 59.9844 30.1328 59.8725C30.0209 59.7607 29.9479 59.616 29.9243 59.4596C29.9007 59.3032 29.9279 59.1433 30.0017 59.0035V50.0024H34.002Z" fill="#F5F7FF"/>
<path d="M29.0022 34.0019H26.002C25.7368 34.0019 25.4824 33.8965 25.2949 33.709C25.1073 33.5214 25.002 33.2671 25.002 33.0018C25.002 32.7366 25.1073 32.4822 25.2949 32.2946C25.4824 32.1071 25.7368 32.0017 26.002 32.0017H29.0022C29.2674 32.0017 29.5218 32.1071 29.7093 32.2946C29.8969 32.4822 30.0022 32.7366 30.0022 33.0018C30.0022 33.2671 29.8969 33.5214 29.7093 33.709C29.5218 33.8965 29.2674 34.0019 29.0022 34.0019Z" fill="#428DFF"/>
<path d="M40.0002 34.0019H37.0001C36.7348 34.0019 36.4805 33.8965 36.2929 33.709C36.1054 33.5214 36 33.2671 36 33.0018C36 32.7366 36.1054 32.4822 36.2929 32.2946C36.4805 32.1071 36.7348 32.0017 37.0001 32.0017H40.0002C40.2655 32.0017 40.5198 32.1071 40.7074 32.2946C40.8949 32.4822 41.0003 32.7366 41.0003 33.0018C41.0003 33.2671 40.8949 33.5214 40.7074 33.709C40.5198 33.8965 40.2655 34.0019 40.0002 34.0019Z" fill="#428DFF"/>
<path d="M20.2078 30.6216C20.1278 31.1116 20.0678 31.5117 20.0378 31.9017C20.0185 32.1655 20.1045 32.4262 20.2769 32.6268C20.4493 32.8273 20.6942 32.9514 20.9579 32.9719H21.0379C21.2898 32.9727 21.5328 32.8783 21.7182 32.7078C21.9036 32.5372 22.0178 32.3029 22.0379 32.0517C22.0636 31.6926 22.1104 31.3353 22.1779 30.9816C22.2257 30.7164 22.1661 30.443 22.0123 30.2217C21.8585 30.0004 21.6231 29.8492 21.3579 29.8015C21.0927 29.7537 20.8193 29.8133 20.598 29.9671C20.3767 30.1209 20.2256 30.3563 20.1778 30.6216H20.2078Z" fill="#428DFF"/>
<path d="M59 4H7C6.20435 4 5.4413 4.31607 4.87869 4.87871C4.31608 5.44135 4 6.20448 4 7.00017V52.0027C4 52.7984 4.31608 53.5615 4.87869 54.1242C5.4413 54.6868 6.20435 55.0029 7 55.0029H29V58.0031C29 59.064 29.4214 60.0815 30.1716 60.8316C30.9217 61.5818 31.9391 62.0033 33 62.0033C34.0609 62.0033 35.0783 61.5818 35.8284 60.8316C36.5786 60.0815 37 59.064 37 58.0031V55.0029H59C59.7957 55.0029 60.5587 54.6868 61.1213 54.1242C61.6839 53.5615 62 52.7984 62 52.0027V7.00017C62 6.20448 61.6839 5.44135 61.1213 4.87871C60.5587 4.31607 59.7957 4 59 4ZM7 6.00011H59C59.2652 6.00011 59.5196 6.10546 59.7071 6.29301C59.8946 6.48055 60 6.73494 60 7.00017V14.0006H6V7.00017C6 6.73494 6.10536 6.48055 6.29289 6.29301C6.48043 6.10546 6.73478 6.00011 7 6.00011ZM32 46.0024C32.6653 46.0624 33.3347 46.0624 34 46.0024V48.0025H32V46.0024ZM35 58.0031C35 58.5335 34.7893 59.0422 34.4142 59.4173C34.0391 59.7924 33.5304 60.0032 33 60.0032C32.4696 60.0032 31.9609 59.7924 31.5858 59.4173C31.2107 59.0422 31 58.5335 31 58.0031V50.0026H35V58.0031ZM59 53.0028H37V49.0025C37 48.7373 36.8946 48.483 36.7071 48.2954C36.5196 48.1079 36.2652 48.0025 36 48.0025V45.6223C38.1062 45.1295 40.0562 44.1188 41.6732 42.6819C43.2902 41.245 44.5231 39.4273 45.2602 37.3935C45.9972 35.3597 46.2152 33.1741 45.8943 31.0348C45.5734 28.8955 44.7237 26.8701 43.4224 25.1421C42.121 23.4141 40.4091 22.0382 38.4417 21.1391C36.4742 20.2399 34.3136 19.8459 32.1554 19.9928C29.9973 20.1397 27.9099 20.8228 26.0825 21.9803C24.255 23.1377 22.7453 24.7329 21.69 26.6213C21.5596 26.8509 21.5254 27.1228 21.5947 27.3776C21.664 27.6324 21.8313 27.8494 22.06 27.9813C22.1741 28.0475 22.3002 28.0903 22.431 28.1075C22.5618 28.1247 22.6947 28.1159 22.822 28.0815C22.9493 28.0471 23.0686 27.9878 23.173 27.9071C23.2773 27.8265 23.3647 27.7259 23.43 27.6113C24.4025 25.8933 25.8193 24.4687 27.5318 23.4868C29.2444 22.505 31.1897 22.0021 33.1635 22.031C35.1373 22.0598 37.067 22.6193 38.7502 23.6508C40.4333 24.6823 41.8079 26.1477 42.7297 27.8934C43.6516 29.6391 44.0866 31.6007 43.9894 33.5725C43.8921 35.5443 43.266 37.4535 42.1768 39.1C41.0877 40.7465 39.5755 42.0695 37.799 42.9302C36.0225 43.791 34.0471 44.1578 32.08 43.9922C31.78 43.9922 31.47 43.9323 31.16 43.8823C29.0607 43.5261 27.1099 42.5684 25.5443 41.1251C23.9787 39.6819 22.8656 37.8153 22.34 35.7518C22.3078 35.6244 22.2509 35.5046 22.1724 35.3992C22.0939 35.2938 21.9955 35.2049 21.8827 35.1376C21.7698 35.0703 21.6449 35.0258 21.5149 35.0068C21.3849 34.9878 21.2524 34.9946 21.125 35.0267C20.9976 35.0589 20.8778 35.1159 20.7724 35.1944C20.6671 35.2728 20.5782 35.3713 20.5109 35.4841C20.4435 35.5969 20.3991 35.7219 20.3801 35.8519C20.3611 35.9819 20.3678 36.1144 20.4 36.2418C20.986 38.5419 22.1904 40.6376 23.8827 42.3018C25.575 43.966 27.6906 45.1351 30 45.6823V48.0325C29.7348 48.0325 29.4804 48.1378 29.2929 48.3254C29.1054 48.5129 29 48.7673 29 49.0325V53.0327H7C6.73478 53.0327 6.48043 52.9274 6.29289 52.7399C6.10536 52.5523 6 52.2979 6 52.0327V16.0307H60V52.0327C59.9922 52.2927 59.8834 52.5394 59.6967 52.7205C59.51 52.9016 59.2601 53.0029 59 53.0028Z" fill="#428DFF"/>
<path d="M33 45C39.6274 45 45 39.6274 45 33C45 26.3726 39.6274 21 33 21C26.3726 21 21 26.3726 21 33C21 39.6274 26.3726 45 33 45Z" fill="#F5F7FF"/>
<path opacity="0.965588" fill-rule="evenodd" clip-rule="evenodd" d="M32.9993 42.257C27.8868 42.257 23.7422 38.1124 23.7422 32.9998C23.7422 27.8872 27.8868 23.7427 32.9993 23.7427C38.1119 23.7427 42.2565 27.8872 42.2565 32.9998C42.2565 38.1124 38.1119 42.257 32.9993 42.257Z" fill="url(#paint0_linear)"/>
<path fill-rule="evenodd" clip-rule="evenodd" d="M32.9992 41.5713C37.733 41.5713 41.5706 37.7338 41.5706 32.9999C41.5706 28.266 37.733 24.4285 32.9992 24.4285C28.2653 24.4285 24.4277 28.266 24.4277 32.9999C24.4277 37.7338 28.2653 41.5713 32.9992 41.5713Z" fill="#E3E7F2"/>
<path opacity="0.965588" fill-rule="evenodd" clip-rule="evenodd" d="M36.578 37.7276C35.9678 38.3378 35.146 38.7309 34.1125 38.9068V39.8469C34.1125 40.1437 34.0218 40.3828 33.8404 40.5643C33.6589 40.7457 33.4198 40.8364 33.123 40.8364C32.8371 40.8364 32.6007 40.7457 32.4138 40.5643C32.2269 40.3828 32.1334 40.1437 32.1334 39.8469V38.9563C31.5287 38.9013 30.9433 38.7749 30.377 38.577C29.8108 38.3791 29.3133 38.1262 28.8845 37.8183C28.7086 37.7084 28.5849 37.5847 28.5134 37.4473C28.442 37.3098 28.4062 37.1367 28.4062 36.9278C28.4062 36.6529 28.4915 36.411 28.6619 36.2021C28.8323 35.9932 29.0274 35.8888 29.2473 35.8888C29.4562 35.8888 29.7146 35.9767 30.0225 36.1527C30.5282 36.4495 31.0092 36.6667 31.4655 36.8041C31.9218 36.9415 32.3973 37.0102 32.8921 37.0102C33.5517 37.0102 34.0575 36.8866 34.4093 36.6392C34.7612 36.3918 34.9371 36.0427 34.9371 35.5919C34.9371 35.3171 34.8354 35.0917 34.632 34.9158C34.4286 34.7398 34.1784 34.6024 33.8816 34.5035C33.5847 34.4045 33.1559 34.2781 32.5952 34.1241C31.7816 33.9152 31.1109 33.7064 30.5832 33.4975C30.0554 33.2886 29.6019 32.9587 29.2226 32.5079C28.8433 32.0572 28.6536 31.4525 28.6536 30.6938C28.6536 29.8032 28.9697 29.0391 29.6019 28.4014C30.2341 27.7637 31.0615 27.3569 32.084 27.181V26.241C32.084 25.9441 32.1774 25.705 32.3643 25.5236C32.5512 25.3422 32.7876 25.2515 33.0735 25.2515C33.3703 25.2515 33.6095 25.3422 33.7909 25.5236C33.9723 25.705 34.063 25.9441 34.063 26.241V27.148C35.0525 27.28 35.9816 27.6538 36.8501 28.2695C37.0151 28.3794 37.1333 28.5059 37.2047 28.6488C37.2762 28.7917 37.3119 28.9622 37.3119 29.1601C37.3119 29.4349 37.2267 29.6768 37.0563 29.8857C36.8859 30.0946 36.6907 30.1991 36.4708 30.1991C36.3499 30.1991 36.2372 30.1826 36.1327 30.1496C36.0283 30.1166 35.8826 30.0451 35.6957 29.9352C35.2449 29.6493 34.8409 29.4349 34.4835 29.292C34.1262 29.1491 33.6892 29.0776 33.1724 29.0776C32.5787 29.0776 32.1032 29.2095 31.7459 29.4734C31.3885 29.7373 31.2099 30.0891 31.2099 30.5289C31.2099 30.8367 31.3143 31.0869 31.5232 31.2793C31.7321 31.4717 31.996 31.6229 32.3148 31.7328C32.6337 31.8428 33.079 31.9692 33.6507 32.1121C34.4533 32.31 35.1102 32.5107 35.6215 32.7141C36.1327 32.9175 36.5725 33.2418 36.9408 33.6871C37.3092 34.1324 37.4933 34.7288 37.4933 35.4765C37.4933 36.3671 37.1882 37.1174 36.578 37.7276Z" fill="#428DFF"/>
<defs>
<linearGradient id="paint0_linear" x1="32.9993" y1="18.0106" x2="32.9993" y2="47.4192" gradientUnits="userSpaceOnUse">
<stop stop-color="#FFF2F2" stop-opacity="0.139408"/>
<stop offset="1" stop-color="#FEFAF9"/>
</linearGradient>
</defs>
</svg>
