<svg width="66" height="66" viewBox="0 0 66 66" fill="none" xmlns="http://www.w3.org/2000/svg">
<path d="M18.8323 5.94434H47.1656C48.2089 5.94434 49.0545 6.79002 49.0545 7.83326V58.8333C49.0545 59.8765 48.2089 60.7222 47.1656 60.7222H18.8323C17.789 60.7222 16.9434 59.8765 16.9434 58.8333V7.83326C16.9434 6.79002 17.789 5.94434 18.8323 5.94434Z" fill="#E3E7F2"/>
<path d="M18.8323 5.94434H44.3323C45.3755 5.94434 46.2212 6.79002 46.2212 7.83326V58.8333C46.2212 59.8765 45.3755 60.7222 44.3323 60.7222H18.8323C17.789 60.7222 16.9434 59.8765 16.9434 58.8333V7.83326C16.9434 6.79002 17.789 5.94434 18.8323 5.94434Z" fill="#F5F5F5"/>
<path d="M49.0556 13.5H17.0625V52.2223H49.0556V13.5Z" fill="#F5F5F5"/>
<path d="M23.556 22.9445C25.1208 22.9445 26.3893 21.676 26.3893 20.1112C26.3893 18.5464 25.1208 17.2778 23.556 17.2778C21.9912 17.2778 20.7227 18.5464 20.7227 20.1112C20.7227 21.676 21.9912 22.9445 23.556 22.9445Z" fill="#F5F5F5"/>
<path d="M42.4447 22.9445C44.0095 22.9445 45.278 21.676 45.278 20.1112C45.278 18.5464 44.0095 17.2778 42.4447 17.2778C40.8799 17.2778 39.6113 18.5464 39.6113 20.1112C39.6113 21.676 40.8799 22.9445 42.4447 22.9445Z" fill="white"/>
<path d="M32.9993 22.9445C34.5642 22.9445 35.8327 21.676 35.8327 20.1112C35.8327 18.5464 34.5642 17.2778 32.9993 17.2778C31.4345 17.2778 30.166 18.5464 30.166 20.1112C30.166 21.676 31.4345 22.9445 32.9993 22.9445Z" fill="#F5F5F5"/>
<path d="M23.556 35.2223C25.1208 35.2223 26.3893 33.9538 26.3893 32.389C26.3893 30.8242 25.1208 29.5557 23.556 29.5557C21.9912 29.5557 20.7227 30.8242 20.7227 32.389C20.7227 33.9538 21.9912 35.2223 23.556 35.2223Z" fill="white"/>
<path d="M42.4447 35.2221C44.0095 35.2221 45.278 33.9536 45.278 32.3888C45.278 30.8239 44.0095 29.5554 42.4447 29.5554C40.8799 29.5554 39.6113 30.8239 39.6113 32.3888C39.6113 33.9536 40.8799 35.2221 42.4447 35.2221Z" fill="#F5F5F5"/>
<path d="M32.9993 35.2221C34.5642 35.2221 35.8327 33.9536 35.8327 32.3888C35.8327 30.8239 34.5642 29.5554 32.9993 29.5554C31.4345 29.5554 30.166 30.8239 30.166 32.3888C30.166 33.9536 31.4345 35.2221 32.9993 35.2221Z" fill="#F5F5F5"/>
<path d="M23.556 47.4999C25.1208 47.4999 26.3893 46.2314 26.3893 44.6666C26.3893 43.1018 25.1208 41.8333 23.556 41.8333C21.9912 41.8333 20.7227 43.1018 20.7227 44.6666C20.7227 46.2314 21.9912 47.4999 23.556 47.4999Z" fill="white"/>
<path d="M42.4447 47.4999C44.0095 47.4999 45.278 46.2314 45.278 44.6666C45.278 43.1018 44.0095 41.8333 42.4447 41.8333C40.8799 41.8333 39.6113 43.1018 39.6113 44.6666C39.6113 46.2314 40.8799 47.4999 42.4447 47.4999Z" fill="#F5F5F5"/>
<path d="M32.9993 47.4999C34.5642 47.4999 35.8327 46.2314 35.8327 44.6666C35.8327 43.1018 34.5642 41.8333 32.9993 41.8333C31.4345 41.8333 30.166 43.1018 30.166 44.6666C30.166 46.2314 31.4345 47.4999 32.9993 47.4999Z" fill="white"/>
<path d="M18.8323 60.7222H21.6656C20.6237 60.7191 19.7798 59.8752 19.7767 58.8333V7.83326C19.7798 6.79135 20.6237 5.94743 21.6656 5.94434H18.8323C17.7904 5.94743 16.9465 6.79135 16.9434 7.83326V58.8333C16.9465 59.8752 17.7904 60.7191 18.8323 60.7222Z" fill="white"/>
<path d="M17.8889 13.5V25.7777V52.2223H16V25.7777V13.5H17.8889Z" fill="white"/>
<path d="M16 52.2223V58.8333C16 60.3981 17.2686 61.6667 18.8333 61.6667H47.1667C48.7314 61.6667 50 60.3982 50 58.8333V7.83333C50 6.26858 48.7314 5 47.1667 5H18.8333C17.2686 5 16 6.26858 16 7.83333V17.2777C16 17.7994 16.4229 18.2221 16.9444 18.2221C17.4659 18.2221 17.8888 17.7993 17.8888 17.2777V14.4444H48.1111V51.2777H17.8889V24.8333C17.8889 24.3117 17.466 23.8889 16.9445 23.8889C16.423 23.8889 16.0001 24.3118 16.0001 24.8333V52.2223H16ZM18.8333 6.88893H47.1667C47.6883 6.88893 48.1111 7.31182 48.1111 7.83333V12.5556H17.8889V7.83333C17.8889 7.31171 18.3117 6.88893 18.8333 6.88893ZM48.1111 58.8333C48.1111 59.3549 47.6883 59.7777 47.1667 59.7777H18.8333C18.3117 59.7777 17.8889 59.3549 17.8889 58.8333V53.1667H48.1112V58.8333H48.1111Z" fill="#428DFF"/>
<path d="M16.9452 22C17.3289 22.0022 17.6757 21.7721 17.8229 21.4177C17.97 21.0633 17.8882 20.6552 17.6158 20.385L17.4741 20.2717C17.4214 20.2359 17.3643 20.2074 17.3041 20.1867C17.2505 20.1594 17.1933 20.1403 17.1341 20.13C17.0717 20.1195 17.0085 20.1132 16.9452 20.1111C16.6951 20.1147 16.4557 20.2126 16.2746 20.385C16.1892 20.4753 16.1218 20.5811 16.0762 20.6967C15.9338 21.049 16.0114 21.452 16.2746 21.7261C16.3649 21.8114 16.4707 21.8788 16.5862 21.9244C16.6999 21.9729 16.8218 21.9986 16.9452 22Z" fill="#428DFF"/>
<path d="M30.7747 58.4572H35.3126C36.5657 58.4572 37.5814 57.4412 37.5814 56.1883C37.5814 54.9352 36.5657 53.9194 35.3126 53.9194H30.7747C29.5215 53.9194 28.5059 54.9354 28.5059 56.1883C28.5056 57.4412 29.5215 58.4572 30.7747 58.4572Z" fill="#428DFF"/>
<path d="M42.4457 23.8891C44.5321 23.8891 46.2234 22.1977 46.2234 20.1113C46.2234 18.025 44.5322 16.3335 42.4457 16.3335C40.3592 16.3335 38.668 18.0249 38.668 20.1112C38.668 22.1976 40.3593 23.8891 42.4457 23.8891ZM42.4457 18.2224C43.489 18.2224 44.3346 19.0681 44.3346 20.1113C44.3346 21.1546 43.489 22.0003 42.4457 22.0003C41.4025 22.0003 40.5568 21.1546 40.5568 20.1113C40.5569 19.0681 41.4026 18.2224 42.4457 18.2224Z" fill="#428DFF"/>
<path d="M36.7797 20.1113C36.782 18.2113 35.3702 16.6064 33.4854 16.3665C31.6005 16.1267 29.8318 17.3268 29.3582 19.1669H27.2011C26.7256 17.3249 24.9545 16.1239 23.0673 16.3636C21.1802 16.6034 19.7656 18.209 19.7656 20.1113C19.7656 22.0136 21.1802 23.6192 23.0673 23.8589C24.9545 24.0986 26.7256 22.8977 27.2011 21.0557H29.3582C29.7038 22.3773 30.7358 23.4093 32.0574 23.7549V28.7453C30.275 29.2021 29.0825 30.8788 29.2363 32.7124C29.39 34.546 30.8448 36.0009 32.6784 36.1546C34.512 36.3083 36.1888 35.1159 36.6455 33.3334H38.8026C39.1482 34.655 40.1802 35.6871 41.5018 36.0326V41.0231C39.6598 41.4986 38.4589 43.2697 38.6986 45.1568C38.9383 47.044 40.5439 48.4586 42.4462 48.4586C44.3486 48.4586 45.9541 47.044 46.1939 45.1568C46.4336 43.2697 45.2326 41.4986 43.3906 41.0231V36.0326C45.1731 35.5759 46.3655 33.8991 46.2118 32.0655C46.0581 30.2319 44.6032 28.7771 42.7696 28.6233C40.936 28.4696 39.2593 29.6621 38.8025 31.4445H36.6454C36.2999 30.1229 35.2678 29.0908 33.9462 28.7453V23.7549C35.6093 23.3257 36.7733 21.8287 36.7797 20.1113ZM23.5575 22.0002C22.5143 22.0002 21.6686 21.1545 21.6686 20.1113C21.6686 19.068 22.5143 18.2224 23.5575 18.2224C24.6008 18.2224 25.4465 19.068 25.4465 20.1113C25.4463 21.1545 24.6007 22.0002 23.5575 22.0002ZM31.113 20.1113C31.113 19.068 31.9587 18.2224 33.0019 18.2224C34.0452 18.2224 34.8909 19.068 34.8909 20.1113C34.8909 21.1545 34.0452 22.0002 33.0019 22.0002C31.9587 22.0002 31.113 21.1545 31.113 20.1113ZM44.3353 44.6669C44.3353 45.7101 43.4896 46.5558 42.4463 46.5558C41.4031 46.5558 40.5574 45.7101 40.5574 44.6669C40.5574 43.6236 41.4031 42.778 42.4463 42.778C43.4896 42.778 44.3353 43.6236 44.3353 44.6669ZM42.4463 30.5002C43.4896 30.5002 44.3353 31.3459 44.3353 32.3891C44.3353 33.4324 43.4896 34.2781 42.4463 34.2781C41.4031 34.2781 40.5574 33.4324 40.5574 32.3891C40.5574 31.3459 41.4032 30.5002 42.4463 30.5002ZM34.8909 32.3891C34.8909 33.4324 34.0452 34.2781 33.0019 34.2781C31.9587 34.2781 31.113 33.4324 31.113 32.3891C31.113 31.3459 31.9587 30.5002 33.0019 30.5002C34.0452 30.5002 34.8909 31.3459 34.8909 32.3891Z" fill="#428DFF"/>
<path d="M23.5551 36.1666C25.6415 36.1666 27.3328 34.4752 27.3328 32.3888C27.3328 30.3025 25.6415 28.6111 23.5551 28.6111C21.4687 28.6111 19.7773 30.3025 19.7773 32.3888C19.7773 34.4752 21.4686 36.1666 23.5551 36.1666ZM23.5551 30.4999C24.5983 30.4999 25.444 31.3456 25.444 32.3888C25.444 33.4321 24.5983 34.2777 23.5551 34.2777C22.5118 34.2777 21.6662 33.4321 21.6662 32.3888C21.6662 31.3456 22.5118 30.4999 23.5551 30.4999Z" fill="#428DFF"/>
<path d="M23.5551 48.4444C25.6415 48.4444 27.3328 46.753 27.3328 44.6667C27.3328 42.5803 25.6415 40.8889 23.5551 40.8889C21.4687 40.8889 19.7773 42.5803 19.7773 44.6667C19.7772 46.753 21.4686 48.4444 23.5551 48.4444ZM23.5551 42.7777C24.5983 42.7777 25.444 43.6234 25.444 44.6667C25.444 45.7099 24.5983 46.5556 23.5551 46.5556C22.5118 46.5556 21.6662 45.7099 21.6662 44.6667C21.6662 43.6234 22.5118 42.7777 23.5551 42.7777Z" fill="#428DFF"/>
<path d="M33.0004 40.8889C30.914 40.8889 29.2227 42.5803 29.2227 44.6667C29.2227 46.753 30.914 48.4444 33.0004 48.4444C35.0868 48.4444 36.7781 46.753 36.7781 44.6667C36.7781 42.5803 35.0868 40.8889 33.0004 40.8889ZM33.0004 46.5556C31.9572 46.5556 31.1115 45.7099 31.1115 44.6667C31.1115 43.6234 31.9572 42.7777 33.0004 42.7777C34.0436 42.7777 34.8893 43.6234 34.8893 44.6667C34.8893 45.7099 34.0436 46.5556 33.0004 46.5556Z" fill="#428DFF"/>
<path d="M22.8855 19.4408C22.713 19.6218 22.6151 19.8613 22.6116 20.1114C22.6084 20.2353 22.6342 20.3582 22.6872 20.4703C22.7332 20.5829 22.8005 20.6855 22.8855 20.7726C23.0616 20.9538 23.3034 21.0561 23.5561 21.0561C23.8088 21.0561 24.0506 20.9538 24.2267 20.7726C24.3117 20.6856 24.379 20.5829 24.425 20.4703C24.4779 20.3582 24.5038 20.2354 24.5006 20.1114C24.5028 19.7277 24.2727 19.3808 23.9184 19.2336C23.5639 19.0864 23.1557 19.1683 22.8855 19.4408Z" fill="#428DFF"/>
<path d="M33.6698 20.7723C33.7548 20.6853 33.8221 20.5826 33.8682 20.4701C33.9211 20.358 33.947 20.2351 33.9438 20.1112C33.9438 19.5895 33.5209 19.1667 32.9994 19.1667C32.4777 19.1667 32.055 19.5896 32.055 20.1112C32.0517 20.235 32.0775 20.358 32.1305 20.4701C32.1766 20.5826 32.2439 20.6852 32.3289 20.7723C32.505 20.9535 32.7468 21.0558 32.9995 21.0558C33.2519 21.0557 33.4938 20.9535 33.6698 20.7723Z" fill="#428DFF"/>
<path d="M32.3289 31.7184C32.1563 31.8993 32.0585 32.1388 32.055 32.389C32.0517 32.5128 32.0775 32.6358 32.1305 32.7479C32.1766 32.8604 32.2439 32.963 32.3289 33.0501C32.505 33.2313 32.7468 33.3336 32.9995 33.3336C33.2521 33.3336 33.494 33.2313 33.6701 33.0501C33.7551 32.9632 33.8224 32.8604 33.8684 32.7479C33.9213 32.6358 33.9472 32.5129 33.944 32.389C33.9462 32.0052 33.7161 31.6584 33.3617 31.5112C33.0073 31.3641 32.5992 31.4459 32.3289 31.7184Z" fill="#428DFF"/>
<path d="M41.774 33.0502C41.9501 33.2314 42.1919 33.3336 42.4446 33.3336C42.6972 33.3336 42.9391 33.2314 43.1152 33.0502C43.2002 32.9632 43.2674 32.8605 43.3135 32.7479C43.3664 32.6358 43.3923 32.5129 43.3891 32.389C43.3891 31.8674 42.9662 31.4446 42.4447 31.4446C41.9232 31.4446 41.5003 31.8675 41.5003 32.389C41.4971 32.5128 41.5228 32.6358 41.5759 32.7479C41.6217 32.8605 41.689 32.9632 41.774 33.0502Z" fill="#428DFF"/>
<path d="M41.7742 43.9962C41.6016 44.1771 41.5038 44.4166 41.5003 44.6668C41.4971 44.7906 41.5228 44.9136 41.5759 45.0257C41.6219 45.1383 41.6892 45.2409 41.7742 45.328C41.9503 45.5091 42.1921 45.6114 42.4448 45.6114C42.6975 45.6114 42.9393 45.5091 43.1154 45.328C43.2004 45.241 43.2677 45.1383 43.3137 45.0257C43.3666 44.9136 43.3925 44.7907 43.3893 44.6668C43.3915 44.2831 43.1614 43.9362 42.807 43.789C42.4525 43.6419 42.0444 43.7238 41.7742 43.9962Z" fill="#428DFF"/>
<rect x="29.7246" y="55.0261" width="3.76302" height="2.32422" rx="1.16211" fill="white"/>
</svg>
