<svg width="66" height="66" viewBox="0 0 66 66" fill="none" xmlns="http://www.w3.org/2000/svg">
<rect width="66" height="66" fill="white"/>
<path d="M61.0188 19.7419V59.0546C61.0188 59.5759 60.8117 60.0758 60.4431 60.4445C60.0745 60.8131 59.5746 61.0202 59.0533 61.0202H7.94989C7.4286 61.0202 6.92867 60.8131 6.56006 60.4445C6.19145 60.0758 5.98438 59.5759 5.98438 59.0546V19.7419H61.0188Z" fill="#E3E7F2"/>
<path d="M62.0016 7.94875V19.7424H5.98438V7.94875C5.98438 7.42744 6.19145 6.92751 6.56006 6.55888C6.92867 6.19026 7.4286 5.98314 7.94989 5.98314H59.9673C60.2311 5.9739 60.4941 6.01795 60.7406 6.11259C60.987 6.20722 61.2119 6.35047 61.4018 6.53393C61.5916 6.71738 61.7426 6.93726 61.8456 7.18033C61.9487 7.42341 62.0017 7.68473 62.0016 7.94875Z" fill="#F5F5F5"/>
<path d="M8 20H58V52.2998C57.9763 53.8297 57.3318 55.2882 56.2074 56.3563C55.083 57.4245 53.5703 58.0153 52 57.9997H6V20.0974" fill="#F5F5F5"/>
<path d="M33.4998 57.089C42.7268 57.089 50.2067 49.6086 50.2067 40.3811C50.2067 31.1537 42.7268 23.6733 33.4998 23.6733C24.2729 23.6733 16.793 31.1537 16.793 40.3811C16.793 49.6086 24.2729 57.089 33.4998 57.089Z" fill="#E3E7F2"/>
<path d="M37.4313 9.91382H11.8796C10.7941 9.91382 9.91406 10.7939 9.91406 11.8794V13.8451C9.91406 14.9307 10.7941 15.8107 11.8796 15.8107H37.4313C38.5168 15.8107 39.3968 14.9307 39.3968 13.8451V11.8794C39.3968 10.7939 38.5168 9.91382 37.4313 9.91382Z" fill="#428DFF"/>
<path d="M50.2077 14.8279C51.2932 14.8279 52.1732 13.9479 52.1732 12.8623C52.1732 11.7768 51.2932 10.8967 50.2077 10.8967C49.1222 10.8967 48.2422 11.7768 48.2422 12.8623C48.2422 13.9479 49.1222 14.8279 50.2077 14.8279Z" fill="#F5F7FF"/>
<path d="M44.3093 14.8279C45.3948 14.8279 46.2748 13.9479 46.2748 12.8623C46.2748 11.7768 45.3948 10.8967 44.3093 10.8967C43.2237 10.8967 42.3438 11.7768 42.3438 12.8623C42.3438 13.9479 43.2237 14.8279 44.3093 14.8279Z" fill="#F5F7FF"/>
<path d="M56.1042 14.8279C57.1897 14.8279 58.0697 13.9479 58.0697 12.8623C58.0697 11.7768 57.1897 10.8967 56.1042 10.8967C55.0187 10.8967 54.1387 11.7768 54.1387 12.8623C54.1387 13.9479 55.0187 14.8279 56.1042 14.8279Z" fill="#F5F7FF"/>
<path d="M59.0517 5H7.94827C7.16634 5 6.41644 5.31062 5.86353 5.86356C5.31062 6.4165 5 7.16647 5 7.94844V59.0548C5 59.8367 5.31062 60.5867 5.86353 61.1396C6.41644 61.6926 7.16634 62.0032 7.94827 62.0032H59.0517C59.8336 62.0032 60.5835 61.6926 61.1364 61.1396C61.6893 60.5867 61.9999 59.8367 61.9999 59.0548V7.94844C61.9999 7.16647 61.6893 6.4165 61.1364 5.86356C60.5835 5.31062 59.8336 5 59.0517 5ZM60.0344 59.0548C60.0344 59.3154 59.9309 59.5654 59.7466 59.7498C59.5623 59.9341 59.3123 60.0376 59.0517 60.0376H7.94827C7.68763 60.0376 7.43766 59.9341 7.25336 59.7498C7.06905 59.5654 6.96552 59.3154 6.96552 59.0548V20.725H60.0344V59.0548ZM60.0344 18.7594H6.96552V7.94844C6.96552 7.68778 7.06905 7.43775 7.25336 7.25344C7.43766 7.06913 7.68763 6.96563 7.94827 6.96563H59.0517C59.3123 6.96563 59.5623 7.06913 59.7466 7.25344C59.9309 7.43775 60.0344 7.68778 60.0344 7.94844V18.7594Z" fill="#428DFF"/>
<path d="M33.4982 22.6904C29.9996 22.6904 26.5794 23.728 23.6704 25.6719C20.7614 27.6157 18.494 30.3786 17.1551 33.6111C15.8163 36.8437 15.4659 40.4007 16.1485 43.8323C16.8311 47.2639 18.5158 50.4161 20.9898 52.8902C23.4637 55.3643 26.6157 57.0492 30.0472 57.7318C33.4786 58.4144 37.0354 58.0641 40.2678 56.7251C43.5001 55.3862 46.2629 53.1186 48.2066 50.2094C50.1504 47.3002 51.1879 43.8799 51.1879 40.3811C51.1879 35.6892 49.3242 31.1895 46.0067 27.8719C42.6892 24.5543 38.1898 22.6904 33.4982 22.6904ZM33.4982 56.1061C30.3883 56.1061 27.3482 55.1838 24.7624 53.4559C22.1766 51.728 20.1612 49.2721 18.971 46.3987C17.7809 43.5254 17.4695 40.3636 18.0763 37.3132C18.683 34.2629 20.1805 31.461 22.3796 29.2618C24.5787 27.0626 27.3804 25.5649 30.4306 24.9581C33.4808 24.3514 36.6424 24.6628 39.5156 25.853C42.3888 27.0432 44.8446 29.0587 46.5724 31.6447C48.3002 34.2306 49.2224 37.2709 49.2224 40.3811C49.2224 44.5516 47.5657 48.5513 44.6169 51.5003C41.668 54.4493 37.6685 56.1061 33.4982 56.1061Z" fill="#428DFF"/>
<path d="M33.4982 58.0717C29.9996 58.0717 26.5794 57.0342 23.6704 55.0903C20.7614 53.1464 18.494 50.3836 17.1551 47.151C15.8163 43.9185 15.4659 40.3615 16.1485 36.9299C16.8311 33.4982 18.5158 30.346 20.9898 27.872C23.4637 25.3979 26.6157 23.713 30.0472 23.0304C33.4786 22.3478 37.0354 22.6981 40.2678 24.037C43.5001 25.376 46.2629 27.6435 48.2066 30.5527C50.1504 33.4619 51.1879 36.8822 51.1879 40.3811C51.1879 45.073 49.3242 49.5726 46.0067 52.8902C42.6892 56.2079 38.1898 58.0717 33.4982 58.0717ZM33.4982 24.6561C30.3883 24.6561 27.3482 25.5784 24.7624 27.3063C22.1766 29.0342 20.1612 31.49 18.971 34.3634C17.7809 37.2368 17.4695 40.3986 18.0763 43.4489C18.683 46.4993 20.1805 49.3012 22.3796 51.5004C24.5787 53.6996 27.3804 55.1971 30.4306 55.8039C33.4808 56.4106 36.6424 56.0993 39.5156 54.9091C42.3888 53.719 44.8446 51.7034 46.5724 49.1175C48.3002 46.5315 49.2224 43.4912 49.2224 40.3811C49.2224 36.2106 47.5657 32.2108 44.6169 29.2618C41.668 26.3128 37.6685 24.6561 33.4982 24.6561Z" fill="#428DFF"/>
<path d="M45.2932 40.381C45.2936 42.054 44.938 43.708 44.25 45.2331C43.5621 46.7581 42.5576 48.1194 41.3032 49.2264H25.697C24.2196 47.9225 23.0924 46.2693 22.4184 44.4176C21.7444 42.566 21.5451 40.5749 21.8386 38.6264C22.1322 36.6779 22.9092 34.834 24.0988 33.2631C25.2884 31.6923 26.8526 30.4445 28.6486 29.6338C30.4445 28.8232 32.4149 28.4755 34.3798 28.6225C36.3447 28.7695 38.2415 29.4064 39.8969 30.4752C41.5522 31.544 42.9134 33.0107 43.8561 34.7411C44.7987 36.4715 45.2928 38.4105 45.2932 40.381Z" fill="#E3E7F2"/>
<path d="M42.3457 41.3639C42.3445 44.2655 41.2738 47.0648 39.3384 49.2264H25.6977C24.2426 47.9436 23.1264 46.3216 22.4479 44.5042C21.7695 42.6868 21.5498 40.7302 21.8083 38.8075C22.0669 36.8849 22.7956 35.0558 23.9301 33.4822C25.0645 31.9086 26.5696 30.6392 28.3119 29.7863C29.0497 29.6396 29.8003 29.5671 30.5526 29.5702C32.1013 29.5702 33.6348 29.8752 35.0656 30.4679C36.4964 31.0606 37.7965 31.9294 38.8915 33.0245C39.9866 34.1197 40.8553 35.4198 41.448 36.8507C42.0406 38.2816 42.3457 39.8151 42.3457 41.3639Z" fill="#F5F7FF"/>
<path d="M33.5003 47.2609C33.2397 47.2609 32.9897 47.1574 32.8054 46.973C32.6211 46.7887 32.5176 46.5387 32.5176 46.278V34.4843C32.5176 34.2236 32.6211 33.9736 32.8054 33.7893C32.9897 33.605 33.2397 33.5015 33.5003 33.5015C33.761 33.5015 34.0109 33.605 34.1953 33.7893C34.3796 33.9736 34.4831 34.2236 34.4831 34.4843V46.278C34.4831 46.5387 34.3796 46.7887 34.1953 46.973C34.0109 47.1574 33.761 47.2609 33.5003 47.2609Z" fill="#F0F7FC"/>
<path d="M33.4994 53.1578C35.6704 53.1578 37.4304 51.3978 37.4304 49.2266C37.4304 47.0555 35.6704 45.2954 33.4994 45.2954C31.3283 45.2954 29.5684 47.0555 29.5684 49.2266C29.5684 51.3978 31.3283 53.1578 33.4994 53.1578Z" fill="white"/>
<path d="M43.722 34.4057C43.4879 34.5182 43.3079 34.7189 43.2214 34.9639C43.1348 35.2088 43.1487 35.4781 43.2601 35.7128C44.2483 37.7798 44.5543 40.1073 44.1339 42.3596C43.7135 44.6118 42.5885 46.6723 40.9212 48.2436H37.2948C37.1183 47.5676 36.7649 46.9508 36.2709 46.4568C35.7769 45.9627 35.1601 45.6093 34.4841 45.4328V34.4842C34.4841 34.2236 34.3806 33.9735 34.1963 33.7892C34.012 33.6049 33.762 33.5014 33.5014 33.5014C33.2407 33.5014 32.9907 33.6049 32.8064 33.7892C32.6221 33.9735 32.5186 34.2236 32.5186 34.4842V45.4328C31.8426 45.6093 31.2258 45.9627 30.7318 46.4568C30.2378 46.9508 29.8844 47.5676 29.7079 48.2436H26.0815C24.2582 46.5205 23.0909 44.2169 22.7797 41.7275C22.4684 39.238 23.0326 36.7179 24.3755 34.5988C25.7184 32.4798 27.7565 30.8937 30.1404 30.1126C32.5243 29.3314 35.1057 29.4037 37.4422 30.3171C37.6846 30.4136 37.9554 30.4098 38.195 30.3066C38.4346 30.2033 38.6234 30.0091 38.7198 29.7667C38.8162 29.5243 38.8124 29.2535 38.7092 29.0139C38.606 28.7742 38.4118 28.5855 38.1695 28.4891C36.6837 27.9006 35.0994 27.6004 33.5014 27.6045C30.913 27.6055 28.3861 28.3927 26.2551 29.8618C24.1241 31.331 22.4895 33.4128 21.5679 35.8316C20.6462 38.2504 20.4809 40.8921 21.0939 43.4069C21.7069 45.9218 23.0692 48.191 25.0005 49.9144C25.0491 49.9528 25.1019 49.9859 25.1577 50.0128C25.1966 50.0446 25.2396 50.071 25.2855 50.0913C25.4019 50.1348 25.5249 50.158 25.6491 50.1601H29.6588C29.8851 50.9929 30.3791 51.7281 31.0647 52.2523C31.7503 52.7764 32.5893 53.0604 33.4522 53.0604C34.3152 53.0604 35.1542 52.7764 35.8397 52.2523C36.5253 51.7281 37.0193 50.9929 37.2457 50.1601H41.2553C41.3795 50.1571 41.5023 50.1339 41.6189 50.0913C41.6636 50.0687 41.7064 50.0425 41.7467 50.0128L41.9039 49.9144C43.9702 48.0727 45.3825 45.6097 45.9284 42.8961C46.4743 40.1825 46.1242 37.365 44.9308 34.8675C44.8194 34.6572 44.6355 34.4944 44.4132 34.4095C44.1909 34.3245 43.9453 34.3232 43.722 34.4057ZM33.5014 51.1921C33.1126 51.1921 32.7326 51.0768 32.4094 50.8608C32.0861 50.6448 31.8342 50.3379 31.6855 49.9787C31.5367 49.6195 31.4978 49.2243 31.5736 48.843C31.6494 48.4617 31.8366 48.1115 32.1115 47.8366C32.3864 47.5617 32.7366 47.3745 33.1179 47.2986C33.4992 47.2228 33.8944 47.2617 34.2535 47.4104C34.6127 47.5592 34.9196 47.8111 35.1356 48.1343C35.3516 48.4576 35.4669 48.8377 35.4669 49.2264C35.4669 49.4846 35.416 49.7402 35.3173 49.9787C35.2185 50.2172 35.0737 50.4338 34.8912 50.6163C34.7087 50.7989 34.492 50.9437 34.2535 51.0425C34.0151 51.1413 33.7595 51.1921 33.5014 51.1921Z" fill="#428DFF"/>
<path d="M41.2348 32.8234C41.3266 32.9145 41.4355 32.9866 41.5553 33.0355C41.675 33.0844 41.8032 33.1092 41.9326 33.1085C42.0619 33.1092 42.1901 33.0844 42.3099 33.0355C42.4296 32.9866 42.5385 32.9145 42.6303 32.8234C42.7224 32.732 42.7955 32.6234 42.8454 32.5037C42.8953 32.3839 42.921 32.2554 42.921 32.1256C42.921 31.9959 42.8953 31.8675 42.8454 31.7477C42.7955 31.628 42.7224 31.5192 42.6303 31.4279C42.365 31.1723 42.0996 30.9266 41.8146 30.6809C41.6183 30.5234 41.369 30.4471 41.1182 30.468C40.8673 30.4888 40.634 30.6052 40.4664 30.793C40.2988 30.9808 40.2096 31.2257 40.2173 31.4773C40.2249 31.7289 40.3288 31.9681 40.5076 32.1453C40.7631 32.3714 40.9695 32.5875 41.2348 32.8234Z" fill="#428DFF"/>
<path d="M50.2077 14.8279C51.2932 14.8279 52.1732 13.9479 52.1732 12.8623C52.1732 11.7768 51.2932 10.8967 50.2077 10.8967C49.1222 10.8967 48.2422 11.7768 48.2422 12.8623C48.2422 13.9479 49.1222 14.8279 50.2077 14.8279Z" fill="#428DFF"/>
<path d="M44.3093 14.8279C45.3948 14.8279 46.2748 13.9479 46.2748 12.8623C46.2748 11.7768 45.3948 10.8967 44.3093 10.8967C43.2237 10.8967 42.3438 11.7768 42.3438 12.8623C42.3438 13.9479 43.2237 14.8279 44.3093 14.8279Z" fill="#428DFF"/>
<path d="M56.1042 14.8279C57.1897 14.8279 58.0697 13.9479 58.0697 12.8623C58.0697 11.7768 57.1897 10.8967 56.1042 10.8967C55.0187 10.8967 54.1387 11.7768 54.1387 12.8623C54.1387 13.9479 55.0187 14.8279 56.1042 14.8279Z" fill="#428DFF"/>
<path d="M59.0517 5H7.94827C7.16634 5 6.41644 5.31062 5.86353 5.86356C5.31062 6.4165 5 7.16647 5 7.94844V59.0548C5 59.8367 5.31062 60.5867 5.86353 61.1396C6.41644 61.6926 7.16634 62.0032 7.94827 62.0032H59.0517C59.8336 62.0032 60.5835 61.6926 61.1364 61.1396C61.6893 60.5867 61.9999 59.8367 61.9999 59.0548V7.94844C61.9999 7.16647 61.6893 6.4165 61.1364 5.86356C60.5835 5.31062 59.8336 5 59.0517 5ZM7.94827 6.96563H59.0517C59.3123 6.96563 59.5623 7.06913 59.7466 7.25344C59.9309 7.43775 60.0344 7.68778 60.0344 7.94844V18.7594H6.96552V7.94844C6.96552 7.68778 7.06905 7.43775 7.25336 7.25344C7.43766 7.06913 7.68763 6.96563 7.94827 6.96563ZM59.0517 60.0376H7.94827C7.68763 60.0376 7.43766 59.9341 7.25336 59.7498C7.06905 59.5654 6.96552 59.3154 6.96552 59.0548V20.725H60.0344V59.0548C60.0344 59.3154 59.9309 59.5654 59.7466 59.7498C59.5623 59.9341 59.3123 60.0376 59.0517 60.0376Z" fill="#428DFF"/>
</svg>
