<svg width="210" height="210" viewBox="0 0 210 210" fill="none" xmlns="http://www.w3.org/2000/svg">
<path fill-rule="evenodd" clip-rule="evenodd" d="M23.5948 36.2635H156.903C160.646 36.2635 163.681 39.2876 163.681 43.018V126.323C163.681 130.054 160.646 133.078 156.903 133.078H23.5948C19.8512 133.078 16.8164 130.054 16.8164 126.323V43.018C16.8164 39.2876 19.8512 36.2635 23.5948 36.2635Z" fill="#B493FF"/>
<path opacity="0.965588" fill-rule="evenodd" clip-rule="evenodd" d="M29.243 58.7781H60.8754C61.4994 58.7781 62.0052 59.2822 62.0052 59.9039V124.072C62.0052 124.693 61.4994 125.197 60.8754 125.197H29.243C28.6191 125.197 28.1133 124.693 28.1133 124.072V59.9039C28.1133 59.2822 28.6191 58.7781 29.243 58.7781ZM68.7835 58.7781H151.254C151.878 58.7781 152.384 59.2822 152.384 59.9039V67.7841C152.384 68.4059 151.878 68.9099 151.254 68.9099H68.7835C68.1596 68.9099 67.6538 68.4059 67.6538 67.7841V59.9039C67.6538 59.2822 68.1596 58.7781 68.7835 58.7781ZM68.7835 75.6644H151.254C151.878 75.6644 152.384 76.1684 152.384 76.7901V131.389H67.6538V76.7901C67.6538 76.1684 68.1596 75.6644 68.7835 75.6644Z" fill="#E5D9FF"/>
<path opacity="0.965588" fill-rule="evenodd" clip-rule="evenodd" d="M31.5025 48.6468C29.6307 48.6468 28.1133 47.1347 28.1133 45.2695C28.1133 43.4043 29.6307 41.8923 31.5025 41.8923C33.3743 41.8923 34.8917 43.4043 34.8917 45.2695C34.8917 47.1347 33.3743 48.6468 31.5025 48.6468ZM41.1052 48.6468C39.2334 48.6468 37.716 47.1347 37.716 45.2695C37.716 43.4043 39.2334 41.8923 41.1052 41.8923C42.977 41.8923 44.4944 43.4043 44.4944 45.2695C44.4944 47.1347 42.977 48.6468 41.1052 48.6468ZM50.7079 48.6468C48.8361 48.6468 47.3187 47.1347 47.3187 45.2695C47.3187 43.4043 48.8361 41.8923 50.7079 41.8923C52.5797 41.8923 54.0971 43.4043 54.0971 45.2695C54.0971 47.1347 52.5797 48.6468 50.7079 48.6468Z" fill="#E5D9FF"/>
<path d="M193.619 117.611C193.619 116.99 194.125 116.486 194.749 116.486C195.373 116.486 195.878 116.99 195.878 117.611V120.988C195.878 121.61 195.373 122.114 194.749 122.114C194.125 122.114 193.619 121.61 193.619 120.988V117.611ZM193.619 126.617C193.619 125.996 194.125 125.491 194.749 125.491C195.373 125.491 195.878 125.996 195.878 126.617V129.994C195.878 130.616 195.373 131.12 194.749 131.12C194.125 131.12 193.619 130.616 193.619 129.994V126.617ZM193.619 135.623C193.619 135.001 194.125 134.497 194.749 134.497C195.373 134.497 195.878 135.001 195.878 135.623V139C195.878 139.622 195.373 140.126 194.749 140.126C194.125 140.126 193.619 139.622 193.619 139V135.623ZM193.619 144.629C193.619 144.007 194.125 143.503 194.749 143.503C195.373 143.503 195.878 144.007 195.878 144.629V148.006C195.878 148.628 195.373 149.132 194.749 149.132C194.125 149.132 193.619 148.628 193.619 148.006V144.629ZM193.619 153.635C193.619 153.013 194.125 152.509 194.749 152.509C195.373 152.509 195.878 153.013 195.878 153.635V157.012C195.878 157.634 195.373 158.138 194.749 158.138C194.125 158.138 193.619 157.634 193.619 157.012V153.635ZM193.619 162.641C193.619 162.019 194.125 161.515 194.749 161.515C195.373 161.515 195.878 162.019 195.878 162.641V165.162C195.878 165.493 195.859 165.823 195.82 166.149C195.747 166.766 195.185 167.208 194.566 167.135C193.946 167.062 193.503 166.502 193.576 165.885C193.605 165.647 193.619 165.405 193.619 165.162V162.641ZM191.257 169.876C191.766 169.517 192.471 169.636 192.832 170.143C193.193 170.65 193.073 171.353 192.565 171.713C191.445 172.504 190.139 172.965 188.767 173.033C188.144 173.064 187.614 172.585 187.583 171.964C187.552 171.344 188.032 170.815 188.656 170.784C189.592 170.738 190.484 170.423 191.257 169.876ZM183.104 170.79C183.728 170.79 184.233 171.294 184.233 171.916C184.233 172.538 183.728 173.042 183.104 173.042H179.715C179.091 173.042 178.585 172.538 178.585 171.916C178.585 171.294 179.091 170.79 179.715 170.79H183.104ZM174.066 170.79C174.69 170.79 175.195 171.294 175.195 171.916C175.195 172.538 174.69 173.042 174.066 173.042H170.676C170.052 173.042 169.546 172.538 169.546 171.916C169.546 171.294 170.052 170.79 170.676 170.79H174.066ZM165.029 170.79C165.653 170.79 166.159 171.294 166.159 171.916C166.159 172.538 165.653 173.042 165.029 173.042H161.64C161.016 173.042 160.511 172.538 160.511 171.916C160.511 171.294 161.016 170.79 161.64 170.79H165.029ZM155.993 170.79C156.617 170.79 157.122 171.294 157.122 171.916C157.122 172.538 156.617 173.042 155.993 173.042H152.604C151.98 173.042 151.474 172.538 151.474 171.916C151.474 171.294 151.98 170.79 152.604 170.79H155.993ZM146.953 170.79C147.577 170.79 148.083 171.294 148.083 171.916C148.083 172.538 147.577 173.042 146.953 173.042H143.564C142.94 173.042 142.435 172.538 142.435 171.916C142.435 171.294 142.94 170.79 143.564 170.79H146.953ZM137.916 170.79C138.54 170.79 139.046 171.294 139.046 171.916C139.046 172.538 138.54 173.042 137.916 173.042H135.619C134.995 173.042 134.489 172.538 134.489 171.916C134.489 171.294 134.995 170.79 135.619 170.79H137.916ZM7.82776 76.2275C7.82776 76.8493 7.32197 77.3533 6.69803 77.3533C6.0741 77.3533 5.5683 76.8493 5.5683 76.2275V72.8503C5.5683 72.2285 6.0741 71.7245 6.69803 71.7245C7.32197 71.7245 7.82776 72.2285 7.82776 72.8503V76.2275ZM7.82776 67.2215C7.82776 67.8433 7.32197 68.3473 6.69803 68.3473C6.0741 68.3473 5.5683 67.8433 5.5683 67.2215V63.8443C5.5683 63.2226 6.0741 62.7185 6.69803 62.7185C7.32197 62.7185 7.82776 63.2226 7.82776 63.8443V67.2215ZM7.82776 58.2156C7.82776 58.8373 7.32197 59.3413 6.69803 59.3413C6.0741 59.3413 5.5683 58.8373 5.5683 58.2156V54.8383C5.5683 54.2166 6.0741 53.7126 6.69803 53.7126C7.32197 53.7126 7.82776 54.2166 7.82776 54.8383V58.2156ZM7.82776 49.2096C7.82776 49.8313 7.32197 50.3353 6.69803 50.3353C6.0741 50.3353 5.5683 49.8313 5.5683 49.2096V45.8323C5.5683 45.2106 6.0741 44.7066 6.69803 44.7066C7.32197 44.7066 7.82776 45.2106 7.82776 45.8323V49.2096ZM7.82776 40.2036C7.82776 40.8253 7.32197 41.3293 6.69803 41.3293C6.0741 41.3293 5.5683 40.8253 5.5683 40.2036V36.8263C5.5683 36.2046 6.0741 35.7006 6.69803 35.7006C7.32197 35.7006 7.82776 36.2046 7.82776 36.8263V40.2036ZM7.82776 31.1976C7.82776 31.8193 7.32197 32.3233 6.69803 32.3233C6.0741 32.3233 5.5683 31.8193 5.5683 31.1976V28.6771C5.5683 28.3422 5.58934 28.0096 5.63105 27.6807C5.70927 27.0639 6.27449 26.627 6.8935 26.705C7.51251 26.7829 7.9509 27.3461 7.87268 27.963C7.84283 28.1983 7.82776 28.4366 7.82776 28.6771V31.1976ZM10.2814 24.0345C9.76725 24.3867 9.06392 24.2568 8.71051 23.7445C8.35709 23.2321 8.48741 22.5312 9.0016 22.1791C10.1007 21.4263 11.3749 20.96 12.7201 20.8326C13.3412 20.7737 13.8926 21.2278 13.9516 21.8467C14.0107 22.4657 13.555 23.0151 12.9339 23.074C11.9739 23.1649 11.0661 23.4971 10.2814 24.0345ZM18.4422 23.0484C17.8183 23.0484 17.3125 22.5444 17.3125 21.9227C17.3125 21.3009 17.8183 20.7969 18.4422 20.7969H21.8314C22.4554 20.7969 22.9612 21.3009 22.9612 21.9227C22.9612 22.5444 22.4554 23.0484 21.8314 23.0484H18.4422ZM27.4801 23.0484C26.8562 23.0484 26.3504 22.5444 26.3504 21.9227C26.3504 21.3009 26.8562 20.7969 27.4801 20.7969H30.8693C31.4932 20.7969 31.999 21.3009 31.999 21.9227C31.999 22.5444 31.4932 23.0484 30.8693 23.0484H27.4801ZM36.5179 23.0484C35.894 23.0484 35.3882 22.5444 35.3882 21.9227C35.3882 21.3009 35.894 20.7969 36.5179 20.7969H39.9071C40.531 20.7969 41.0368 21.3009 41.0368 21.9227C41.0368 22.5444 40.531 23.0484 39.9071 23.0484H36.5179ZM45.5558 23.0484C44.9318 23.0484 44.426 22.5444 44.426 21.9227C44.426 21.3009 44.9318 20.7969 45.5558 20.7969H48.945C49.5689 20.7969 50.0747 21.3009 50.0747 21.9227C50.0747 22.5444 49.5689 23.0484 48.945 23.0484H45.5558ZM54.5936 23.0484C53.9697 23.0484 53.4639 22.5444 53.4639 21.9227C53.4639 21.3009 53.9697 20.7969 54.5936 20.7969H57.9828C58.6067 20.7969 59.1125 21.3009 59.1125 21.9227C59.1125 22.5444 58.6067 23.0484 57.9828 23.0484H54.5936ZM63.6314 23.0484C63.0075 23.0484 62.5017 22.5444 62.5017 21.9227C62.5017 21.3009 63.0075 20.7969 63.6314 20.7969H67.0206C67.6446 20.7969 68.1504 21.3009 68.1504 21.9227C68.1504 22.5444 67.6446 23.0484 67.0206 23.0484H63.6314ZM72.6693 23.0484C72.0453 23.0484 71.5395 22.5444 71.5395 21.9227C71.5395 21.3009 72.0453 20.7969 72.6693 20.7969H76.0585C76.6824 20.7969 77.1882 21.3009 77.1882 21.9227C77.1882 22.5444 76.6824 23.0484 76.0585 23.0484H72.6693ZM81.7071 23.0484C81.0832 23.0484 80.5774 22.5444 80.5774 21.9227C80.5774 21.3009 81.0832 20.7969 81.7071 20.7969H85.0963C85.7202 20.7969 86.226 21.3009 86.226 21.9227C86.226 22.5444 85.7202 23.0484 85.0963 23.0484H81.7071ZM90.7449 23.0484C90.121 23.0484 89.6152 22.5444 89.6152 21.9227C89.6152 21.3009 90.121 20.7969 90.7449 20.7969H93.073C93.6969 20.7969 94.2027 21.3009 94.2027 21.9227C94.2027 22.5444 93.6969 23.0484 93.073 23.0484H90.7449ZM195.031 111.689C193.627 111.689 192.489 110.555 192.489 109.156C192.489 107.757 193.627 106.623 195.031 106.623C196.435 106.623 197.573 107.757 197.573 109.156C197.573 110.555 196.435 111.689 195.031 111.689ZM195.031 113.377C197.371 113.377 199.268 111.487 199.268 109.156C199.268 106.824 197.371 104.934 195.031 104.934C192.691 104.934 190.795 106.824 190.795 109.156C190.795 111.487 192.691 113.377 195.031 113.377ZM195.031 115.066C191.755 115.066 189.1 112.42 189.1 109.156C189.1 105.892 191.755 103.245 195.031 103.245C198.307 103.245 200.962 105.892 200.962 109.156C200.962 112.42 198.307 115.066 195.031 115.066ZM100.134 24.4431C98.7299 24.4431 97.5919 23.3091 97.5919 21.9102C97.5919 20.5113 98.7299 19.3772 100.134 19.3772C101.538 19.3772 102.676 20.5113 102.676 21.9102C102.676 23.3091 101.538 24.4431 100.134 24.4431ZM100.134 26.1317C102.474 26.1317 104.37 24.2417 104.37 21.9102C104.37 19.5787 102.474 17.6886 100.134 17.6886C97.794 17.6886 95.8973 19.5787 95.8973 21.9102C95.8973 24.2417 97.794 26.1317 100.134 26.1317ZM100.134 27.8204C96.8581 27.8204 94.2027 25.1743 94.2027 21.9102C94.2027 18.6461 96.8581 16 100.134 16C103.409 16 106.065 18.6461 106.065 21.9102C106.065 25.1743 103.409 27.8204 100.134 27.8204ZM6.93108 87.485C5.52723 87.485 4.38919 86.351 4.38919 84.9521C4.38919 83.5532 5.52723 82.4191 6.93108 82.4191C8.33493 82.4191 9.47297 83.5532 9.47297 84.9521C9.47297 86.351 8.33493 87.485 6.93108 87.485ZM6.93108 89.1736C9.27083 89.1736 11.1676 87.2836 11.1676 84.9521C11.1676 82.6206 9.27083 80.7305 6.93108 80.7305C4.59133 80.7305 2.69459 82.6206 2.69459 84.9521C2.69459 87.2836 4.59133 89.1736 6.93108 89.1736ZM6.93108 90.8623C3.65544 90.8623 1 88.2162 1 84.9521C1 81.688 3.65544 79.0419 6.93108 79.0419C10.2067 79.0419 12.8622 81.688 12.8622 84.9521C12.8622 88.2162 10.2067 90.8623 6.93108 90.8623Z" fill="#D4DFFF"/>
<path fill-rule="evenodd" clip-rule="evenodd" d="M43.3643 63.844H176.672C180.416 63.844 183.451 66.8681 183.451 70.5985V153.904C183.451 157.634 180.416 160.658 176.672 160.658H43.3643C39.6207 160.658 36.5859 157.634 36.5859 153.904V70.5985C36.5859 66.8681 39.6207 63.844 43.3643 63.844Z" fill="#428DFF"/>
<path opacity="0.965588" fill-rule="evenodd" clip-rule="evenodd" d="M49.0125 86.3593H80.645C81.2689 86.3593 81.7747 86.8633 81.7747 87.4851V95.3653C81.7747 95.987 81.2689 96.491 80.645 96.491H49.0125C48.3886 96.491 47.8828 95.987 47.8828 95.3653V87.4851C47.8828 86.8633 48.3886 86.3593 49.0125 86.3593ZM49.0125 102.12H80.645C81.2689 102.12 81.7747 102.624 81.7747 103.246V111.126C81.7747 111.748 81.2689 112.252 80.645 112.252H49.0125C48.3886 112.252 47.8828 111.748 47.8828 111.126V103.246C47.8828 102.624 48.3886 102.12 49.0125 102.12ZM49.0125 117.88H80.645C81.2689 117.88 81.7747 118.384 81.7747 119.006V126.886C81.7747 127.508 81.2689 128.012 80.645 128.012H49.0125C48.3886 128.012 47.8828 127.508 47.8828 126.886V119.006C47.8828 118.384 48.3886 117.88 49.0125 117.88ZM88.5531 86.3593H171.023C171.647 86.3593 172.153 86.8633 172.153 87.4851V95.3653C172.153 95.987 171.647 96.491 171.023 96.491H88.5531C87.9292 96.491 87.4234 95.987 87.4234 95.3653V87.4851C87.4234 86.8633 87.9292 86.3593 88.5531 86.3593ZM88.5531 103.246H171.023C171.647 103.246 172.153 103.75 172.153 104.371V158.97H87.4234V104.371C87.4234 103.75 87.9292 103.246 88.5531 103.246Z" fill="#BFD6FF"/>
<path opacity="0.965588" fill-rule="evenodd" clip-rule="evenodd" d="M51.272 76.2273C49.4002 76.2273 47.8828 74.7153 47.8828 72.8501C47.8828 70.9849 49.4002 69.4728 51.272 69.4728C53.1438 69.4728 54.6612 70.9849 54.6612 72.8501C54.6612 74.7153 53.1438 76.2273 51.272 76.2273ZM60.8747 76.2273C59.0029 76.2273 57.4855 74.7153 57.4855 72.8501C57.4855 70.9849 59.0029 69.4728 60.8747 69.4728C62.7465 69.4728 64.2639 70.9849 64.2639 72.8501C64.2639 74.7153 62.7465 76.2273 60.8747 76.2273ZM70.4774 76.2273C68.6056 76.2273 67.0882 74.7153 67.0882 72.8501C67.0882 70.9849 68.6056 69.4728 70.4774 69.4728C72.3492 69.4728 73.8666 70.9849 73.8666 72.8501C73.8666 74.7153 72.3492 76.2273 70.4774 76.2273Z" fill="#BFD6FF"/>
<path fill-rule="evenodd" clip-rule="evenodd" d="M189.665 85.2334H197.573C198.197 85.2334 198.703 85.7374 198.703 86.3592V87.094C198.703 87.7158 198.197 88.2198 197.573 88.2198H189.665C189.041 88.2198 188.535 87.7158 188.535 87.094V86.3592C188.535 85.7374 189.041 85.2334 189.665 85.2334ZM189.665 90.8622H208.87C209.494 90.8622 210 91.3662 210 91.9879V92.7228C210 93.3445 209.494 93.8485 208.87 93.8485H189.665C189.041 93.8485 188.535 93.3445 188.535 92.7228V91.9879C188.535 91.3662 189.041 90.8622 189.665 90.8622Z" fill="#FB65BC"/>
<path d="M96.6618 158.28C96.6618 161.007 95.5741 163.622 93.6377 165.55C91.7014 167.478 89.0751 168.561 86.3367 168.561H21.4355C17.2592 168.562 13.4939 166.057 11.8957 162.215C10.2974 158.373 11.1809 153.95 14.1341 151.01C15.0942 150.049 16.2376 149.29 17.4972 148.777C17.5636 148.746 17.6327 148.722 17.7037 148.704C18.8914 148.235 20.1579 147.995 21.4355 147.999H21.7306C20.9277 144.061 21.7788 139.967 24.0862 136.671C26.3935 133.375 29.9557 131.162 33.9438 130.55H33.9585C34.695 130.431 35.4398 130.373 36.1857 130.373C36.2647 130.371 36.3437 130.376 36.4216 130.388C37.9728 130.404 39.5116 130.667 40.9795 131.167C40.7364 129.938 40.6129 128.688 40.6108 127.436C40.6132 117.745 47.9061 109.592 57.5735 108.474C58.3076 108.385 59.0466 108.341 59.7861 108.342C70.3763 108.342 78.9613 116.891 78.9613 127.436C78.9638 127.534 78.9589 127.632 78.9466 127.73C83.3963 128.629 87.1823 131.518 89.2104 135.563C91.2385 139.608 91.2829 144.357 89.3309 148.439C93.6849 149.753 96.6623 153.75 96.6618 158.28Z" fill="#A4C2F7"/>
<path d="M92.2368 158.28C92.2368 163.958 87.6139 168.561 81.9116 168.561H21.4355C17.2592 168.561 13.4939 166.056 11.8957 162.214C10.2974 158.372 11.1809 153.95 14.1341 151.009C15.0942 150.049 16.2376 149.29 17.4972 148.777C17.5636 148.746 17.6327 148.721 17.7037 148.703C18.8914 148.234 20.1579 147.995 21.4355 147.998H21.7306C20.9277 144.06 21.7788 139.967 24.0862 136.671C26.3935 133.374 29.9557 131.162 33.9438 130.549H33.9585C34.7723 130.415 35.5973 130.361 36.4218 130.388C37.973 130.404 39.5118 130.667 40.9797 131.166C40.7366 129.938 40.613 128.688 40.611 127.436C40.6134 117.744 47.9063 109.592 57.5737 108.474C67.2411 109.592 74.5342 117.745 74.5364 127.436C74.5389 127.534 74.534 127.632 74.5217 127.729C75.9457 128.018 77.3182 128.518 78.5928 129.213C78.6822 129.245 78.7665 129.29 78.8436 129.345C85.5839 133.139 88.231 141.476 84.906 148.439C85.9799 148.757 86.9923 149.254 87.9004 149.908C88.0331 150.01 88.1659 150.098 88.2986 150.201C90.7898 152.147 92.2425 155.127 92.2368 158.28Z" fill="#E3E7F2"/>
<path d="M74.5372 143.592V162.407C74.5372 162.407 74.5372 181.868 53.8867 193.53C53.1198 193.104 52.3822 192.648 51.6742 192.193C33.2363 180.443 33.2363 162.407 33.2363 162.407V143.592C33.2412 141.972 34.5592 140.659 36.1864 140.654H71.5871C73.2143 140.659 74.5323 141.972 74.5372 143.592Z" fill="#A4C2F7"/>
<path d="M70.1121 143.592V162.407C70.1121 162.407 70.1121 180.443 51.6742 192.193C33.2363 180.443 33.2363 162.407 33.2363 162.407V143.592C33.2412 141.972 34.5592 140.659 36.1864 140.654H67.162C68.7892 140.659 70.1073 141.972 70.1121 143.592Z" fill="#E3E7F2"/>
<path d="M68.6352 146.53V162.407C68.6205 162.995 68.2369 176.875 53.885 186.613C53.0983 186.084 52.3607 185.54 51.6724 184.982C39.2969 175.259 39.1348 162.554 39.1348 162.407V146.53H68.6352Z" fill="#A4C2F7"/>
<path d="M62.7351 146.53C63.5498 146.53 64.2101 147.188 64.2101 147.999V162.407C64.1954 162.966 63.8561 175.406 51.6724 184.982C39.2969 175.259 39.1348 162.554 39.1348 162.407V146.53H62.7351Z" fill="#E3E7F2"/>
<path d="M61.9822 108.477C61.2527 108.391 60.519 108.345 59.7843 108.342C59.0449 108.341 58.3059 108.385 57.5718 108.474C52.3761 109.039 47.6427 111.707 44.4822 115.852C41.3219 119.997 40.0129 125.254 40.8626 130.389C42.4078 130.406 43.9405 130.669 45.4028 131.166C45.1598 129.938 45.0362 128.688 45.0341 127.436C45.0372 117.751 52.3217 109.602 61.9822 108.477Z" fill="white"/>
<path d="M15.5346 158.28C15.5331 154.116 18.0554 150.363 21.9214 148.777C21.9878 148.746 22.057 148.721 22.128 148.703C23.3157 148.234 24.5822 147.995 25.8598 147.998H26.1548C25.3519 144.061 26.203 139.967 28.5105 136.671C30.8177 133.374 34.3799 131.162 38.368 130.549C37.7221 130.451 37.0701 130.397 36.4165 130.388C36.3399 130.376 36.2625 130.371 36.1849 130.373C36.0948 130.373 36.0049 130.382 35.9149 130.383C35.2587 130.379 34.6034 130.434 33.9575 130.549H33.9428C29.9547 131.162 26.3925 133.374 24.0852 136.671C21.778 139.967 20.9267 144.061 21.7296 147.998H21.4345C20.1569 147.995 18.8904 148.234 17.7027 148.703C17.6317 148.721 17.5626 148.746 17.4962 148.777C13.6301 150.363 11.1078 154.116 11.1094 158.28C11.1094 163.958 15.7322 168.561 21.4345 168.561H25.8596C20.1573 168.561 15.5346 163.958 15.5346 158.28Z" fill="white"/>
<path d="M91.2603 147.62C91.9068 145.859 92.2373 143.999 92.2367 142.124C92.2217 134.888 87.3863 128.54 80.3922 126.575C79.9272 115.4 70.5711 106.647 59.3406 106.881C48.1101 107.116 39.1304 116.251 39.1358 127.436C39.1358 128.024 39.1726 128.611 39.2243 129.199C34.4734 128.281 29.5591 129.528 25.8296 132.599C22.1001 135.67 19.9469 140.242 19.9605 145.061C19.9605 145.583 19.9885 146.103 20.0386 146.62C13.8625 147.383 9.34344 152.791 9.71248 158.977C10.0815 165.163 15.212 170.001 21.4355 170.03H32.9982C34.96 177.028 40.0312 187.391 53.1574 194.808C53.6093 195.064 54.1629 195.064 54.6148 194.808C67.7425 187.391 72.8122 177.027 74.7739 170.03H86.3367C91.8819 170.037 96.682 166.195 97.8671 160.801C99.0522 155.406 96.3018 149.919 91.2603 147.62ZM53.886 191.834C41.5931 184.603 37.1829 174.65 35.5957 168.363C35.5817 168.223 35.548 168.085 35.4955 167.953C35.0378 166.14 34.7747 164.282 34.7107 162.413V143.593C34.7107 142.781 35.3712 142.124 36.1857 142.124H71.5863C72.401 142.124 73.0613 142.781 73.0613 143.593V162.412C72.9959 164.282 72.7315 166.139 72.2722 167.953C72.2203 168.084 72.187 168.221 72.1733 168.36C70.5893 174.644 66.1805 184.603 53.886 191.834ZM92.5952 164.515C90.9384 166.172 88.6849 167.1 86.3367 167.093H75.4716C75.7893 165.552 75.9699 163.986 76.0114 162.413V143.593C76.0114 141.159 74.0301 139.186 71.5863 139.186H36.1857C33.7419 139.186 31.7606 141.159 31.7606 143.593V162.413C31.8021 163.986 31.9827 165.552 32.3004 167.093H21.4355C16.7141 167.092 12.8247 163.401 12.5971 158.705C12.3694 154.009 15.8836 149.962 20.583 149.509C21.3859 152.307 22.9372 154.836 25.0715 156.825C25.4523 157.201 26.0084 157.342 26.5236 157.192C27.0387 157.042 27.4316 156.626 27.5495 156.105C27.6674 155.584 27.4918 155.04 27.0908 154.685C25.0888 152.82 23.7204 150.38 23.1761 147.705C22.2278 143.057 23.8508 138.26 27.4297 135.131C31.0087 132.001 35.9961 131.019 40.5019 132.556C40.5306 132.562 40.5598 132.566 40.5888 132.568C40.6856 132.59 40.7845 132.603 40.8839 132.606C40.9786 132.616 41.0738 132.616 41.1686 132.606C41.1995 132.606 41.2291 132.606 41.26 132.606C41.3208 132.587 41.3801 132.563 41.437 132.534C41.53 132.507 41.6199 132.47 41.7055 132.424C41.7884 132.375 41.866 132.316 41.9371 132.251C42.0887 132.13 42.2079 131.974 42.2837 131.796C42.3168 131.746 42.3467 131.695 42.3737 131.641C42.3825 131.613 42.3737 131.584 42.3841 131.556C42.4078 131.46 42.4212 131.361 42.4238 131.262C42.4337 131.165 42.4337 131.066 42.4238 130.969C42.4238 130.938 42.4238 130.91 42.4238 130.88C42.2012 129.746 42.0882 128.592 42.0861 127.436C42.1027 121.139 45.4917 115.329 50.9765 112.195C56.4614 109.061 63.2086 109.079 68.6768 112.242C74.1451 115.404 77.5033 121.232 77.4867 127.529C77.4781 127.59 77.4731 127.653 77.472 127.715C77.4485 130.294 76.8437 132.835 75.702 135.15C75.3447 135.88 75.6496 136.76 76.3827 137.116C77.1159 137.472 77.9997 137.168 78.357 136.438C79.4028 134.299 80.0603 131.992 80.2996 129.625C85.6653 131.457 89.274 136.475 89.287 142.124C89.2918 144.03 88.8785 145.914 88.076 147.645C88.0417 147.698 88.0108 147.753 87.983 147.809C86.7674 150.368 84.7559 152.469 82.2466 153.799C81.6509 154.117 81.3492 154.798 81.5141 155.451C81.679 156.104 82.2684 156.562 82.9444 156.562C83.1875 156.562 83.4269 156.502 83.6407 156.387C86.2791 154.969 88.4683 152.847 89.9627 150.259C92.6137 151.443 94.5108 153.849 95.0365 156.695C95.5619 159.54 94.6489 162.461 92.5942 164.506L92.5952 164.515Z" fill="#428DFF"/>
<path d="M67.1626 145.061C66.3479 145.061 65.6876 145.719 65.6876 146.53C65.6876 147.341 66.3481 147.999 67.1626 147.999V162.393C67.1537 162.946 66.7864 176.084 53.0569 185.404C52.6054 185.692 52.3468 186.202 52.3821 186.736C52.4172 187.269 52.7404 187.741 53.226 187.969C53.7115 188.196 54.283 188.143 54.7179 187.83C69.6968 177.668 70.1025 163.054 70.1127 162.413V147.999C70.1127 146.376 68.7919 145.061 67.1626 145.061Z" fill="#428DFF"/>
<path d="M40.6122 162.413V147.999H56.8376C57.6522 147.999 58.3125 147.341 58.3125 146.53C58.3125 145.719 57.6521 145.061 56.8376 145.061H40.6122C38.9829 145.061 37.6621 146.376 37.6621 147.999V162.413C38.0763 168.422 40.2221 174.185 43.8425 179.01C44.3206 179.667 45.2433 179.814 45.9031 179.338C46.5629 178.862 46.7102 177.943 46.2321 177.286C42.9853 172.956 41.0369 167.8 40.6122 162.413Z" fill="#428DFF"/>
<path d="M63.7792 155.59C63.2033 155.016 62.2695 155.016 61.6936 155.59L50.7519 166.485L49.029 164.769C48.4503 164.213 47.5302 164.221 46.9614 164.787C46.3923 165.354 46.3844 166.27 46.9434 166.846L49.7091 169.6C50.285 170.173 51.2188 170.173 51.7947 169.6L63.7792 157.666C64.3552 157.093 64.3552 156.163 63.7792 155.59Z" fill="#428DFF"/>
</svg>
