<svg width="210" height="210" viewBox="0 0 210 210" fill="none" xmlns="http://www.w3.org/2000/svg">
<path d="M171.037 116.476C171.037 115.929 171.481 115.485 172.029 115.485C172.576 115.485 173.02 115.929 173.02 116.476V119.45C173.02 119.998 172.576 120.441 172.029 120.441C171.481 120.441 171.037 119.998 171.037 119.45V116.476ZM171.037 124.407C171.037 123.859 171.481 123.415 172.029 123.415C172.576 123.415 173.02 123.859 173.02 124.407V127.381C173.02 127.928 172.576 128.372 172.029 128.372C171.481 128.372 171.037 127.928 171.037 127.381V124.407ZM171.037 132.337C171.037 131.79 171.481 131.346 172.029 131.346C172.576 131.346 173.02 131.79 173.02 132.337V135.311C173.02 135.859 172.576 136.302 172.029 136.302C171.481 136.302 171.037 135.859 171.037 135.311V132.337ZM171.037 140.268C171.037 139.72 171.481 139.276 172.029 139.276C172.576 139.276 173.02 139.72 173.02 140.268V143.241C173.02 143.789 172.576 144.233 172.029 144.233C171.481 144.233 171.037 143.789 171.037 143.241V140.268ZM171.037 148.198C171.037 147.651 171.481 147.207 172.029 147.207C172.576 147.207 173.02 147.651 173.02 148.198V151.172C173.02 151.719 172.576 152.163 172.029 152.163C171.481 152.163 171.037 151.719 171.037 151.172V148.198ZM171.037 156.128C171.037 155.581 171.481 155.137 172.029 155.137C172.576 155.137 173.02 155.581 173.02 156.128V158.348C173.02 158.64 173.003 158.93 172.969 159.217C172.905 159.761 172.412 160.15 171.868 160.086C171.324 160.021 170.936 159.529 171 158.985C171.025 158.775 171.037 158.562 171.037 158.348V156.128ZM168.964 162.5C169.411 162.183 170.03 162.288 170.347 162.734C170.664 163.181 170.559 163.8 170.112 164.116C169.129 164.814 167.984 165.22 166.78 165.279C166.233 165.306 165.767 164.885 165.74 164.338C165.713 163.791 166.135 163.326 166.682 163.299C167.503 163.258 168.286 162.981 168.964 162.5ZM161.809 163.304C162.357 163.304 162.801 163.748 162.801 164.296C162.801 164.843 162.357 165.287 161.809 165.287H158.835C158.288 165.287 157.844 164.843 157.844 164.296C157.844 163.748 158.288 163.304 158.835 163.304H161.809ZM153.878 163.304C154.425 163.304 154.869 163.748 154.869 164.296C154.869 164.843 154.425 165.287 153.878 165.287H150.903C150.356 165.287 149.912 164.843 149.912 164.296C149.912 163.748 150.356 163.304 150.903 163.304H153.878ZM145.948 163.304C146.495 163.304 146.939 163.748 146.939 164.296C146.939 164.843 146.495 165.287 145.948 165.287H142.974C142.426 165.287 141.982 164.843 141.982 164.296C141.982 163.748 142.426 163.304 142.974 163.304H145.948ZM138.017 163.304C138.565 163.304 139.009 163.748 139.009 164.296C139.009 164.843 138.565 165.287 138.017 165.287H135.043C134.496 165.287 134.052 164.843 134.052 164.296C134.052 163.748 134.496 163.304 135.043 163.304H138.017ZM130.085 163.304C130.632 163.304 131.076 163.748 131.076 164.296C131.076 164.843 130.632 165.287 130.085 165.287H127.111C126.563 165.287 126.119 164.843 126.119 164.296C126.119 163.748 126.563 163.304 127.111 163.304H130.085ZM122.154 163.304C122.702 163.304 123.146 163.748 123.146 164.296C123.146 164.843 122.702 165.287 122.154 165.287H120.138C119.59 165.287 119.147 164.843 119.147 164.296C119.147 163.748 119.59 163.304 120.138 163.304H122.154ZM7.99186 80.0348C7.99186 80.5823 7.54799 81.0261 7.00044 81.0261C6.4529 81.0261 6.00902 80.5823 6.00902 80.0348V77.0609C6.00902 76.5134 6.4529 76.0696 7.00044 76.0696C7.54799 76.0696 7.99186 76.5134 7.99186 77.0609V80.0348ZM7.99186 72.1044C7.99186 72.6518 7.54799 73.0957 7.00044 73.0957C6.4529 73.0957 6.00902 72.6518 6.00902 72.1044V69.1305C6.00902 68.583 6.4529 68.1391 7.00044 68.1391C7.54799 68.1391 7.99186 68.583 7.99186 69.1305V72.1044ZM7.99186 64.1739C7.99186 64.7214 7.54799 65.1652 7.00044 65.1652C6.4529 65.1652 6.00902 64.7214 6.00902 64.1739V61.2C6.00902 60.6525 6.4529 60.2087 7.00044 60.2087C7.54799 60.2087 7.99186 60.6525 7.99186 61.2V64.1739ZM7.99186 56.2435C7.99186 56.791 7.54799 57.2348 7.00044 57.2348C6.4529 57.2348 6.00902 56.791 6.00902 56.2435V53.2696C6.00902 52.7221 6.4529 52.2783 7.00044 52.2783C7.54799 52.2783 7.99186 52.7221 7.99186 53.2696V56.2435ZM7.99186 48.3131C7.99186 48.8605 7.54799 49.3044 7.00044 49.3044C6.4529 49.3044 6.00902 48.8605 6.00902 48.3131V45.3391C6.00902 44.7917 6.4529 44.3478 7.00044 44.3478C7.54799 44.3478 7.99186 44.7917 7.99186 45.3391V48.3131ZM7.99186 40.3826C7.99186 40.9301 7.54799 41.3739 7.00044 41.3739C6.4529 41.3739 6.00902 40.9301 6.00902 40.3826V38.1632C6.00902 37.8682 6.02748 37.5753 6.06408 37.2857C6.13273 36.7426 6.62875 36.3579 7.17198 36.4265C7.7152 36.4951 8.09993 36.9911 8.03128 37.5343C8.00509 37.7415 7.99186 37.9514 7.99186 38.1632V40.3826ZM10.1451 34.075C9.69391 34.3851 9.07668 34.2708 8.76653 33.8196C8.45638 33.3684 8.57076 32.7512 9.02199 32.4411C9.98653 31.7782 11.1047 31.3676 12.2852 31.2554C12.8303 31.2036 13.3142 31.6035 13.366 32.1485C13.4178 32.6935 13.018 33.1773 12.4729 33.2291C11.6304 33.3092 10.8338 33.6018 10.1451 34.075ZM17.3069 33.2066C16.7593 33.2066 16.3154 32.7628 16.3154 32.2153C16.3154 31.6679 16.7593 31.224 17.3069 31.224H20.2811C20.8287 31.224 21.2725 31.6679 21.2725 32.2153C21.2725 32.7628 20.8287 33.2066 20.2811 33.2066H17.3069ZM25.2382 33.2066C24.6907 33.2066 24.2468 32.7628 24.2468 32.2153C24.2468 31.6679 24.6907 31.224 25.2382 31.224H28.2125C28.76 31.224 29.2039 31.6679 29.2039 32.2153C29.2039 32.7628 28.76 33.2066 28.2125 33.2066H25.2382ZM33.1696 33.2066C32.622 33.2066 32.1782 32.7628 32.1782 32.2153C32.1782 31.6679 32.622 31.224 33.1696 31.224H36.1438C36.6914 31.224 37.1353 31.6679 37.1353 32.2153C37.1353 32.7628 36.6914 33.2066 36.1438 33.2066H33.1696ZM41.1009 33.2066C40.5534 33.2066 40.1095 32.7628 40.1095 32.2153C40.1095 31.6679 40.5534 31.224 41.1009 31.224H44.0752C44.6228 31.224 45.0666 31.6679 45.0666 32.2153C45.0666 32.7628 44.6228 33.2066 44.0752 33.2066H41.1009ZM49.0323 33.2066C48.4848 33.2066 48.0409 32.7628 48.0409 32.2153C48.0409 31.6679 48.4848 31.224 49.0323 31.224H52.0066C52.5541 31.224 52.998 31.6679 52.998 32.2153C52.998 32.7628 52.5541 33.2066 52.0066 33.2066H49.0323ZM56.9637 33.2066C56.4161 33.2066 55.9723 32.7628 55.9723 32.2153C55.9723 31.6679 56.4161 31.224 56.9637 31.224H59.9379C60.4855 31.224 60.9294 31.6679 60.9294 32.2153C60.9294 32.7628 60.4855 33.2066 59.9379 33.2066H56.9637ZM64.8951 33.2066C64.3475 33.2066 63.9036 32.7628 63.9036 32.2153C63.9036 31.6679 64.3475 31.224 64.8951 31.224H67.8693C68.4169 31.224 68.8607 31.6679 68.8607 32.2153C68.8607 32.7628 68.4169 33.2066 67.8693 33.2066H64.8951ZM72.8264 33.2066C72.2789 33.2066 71.835 32.7628 71.835 32.2153C71.835 31.6679 72.2789 31.224 72.8264 31.224H75.8007C76.3482 31.224 76.7921 31.6679 76.7921 32.2153C76.7921 32.7628 76.3482 33.2066 75.8007 33.2066H72.8264ZM80.7578 33.2066C80.2102 33.2066 79.7664 32.7628 79.7664 32.2153C79.7664 31.6679 80.2102 31.224 80.7578 31.224H82.8008C83.3483 31.224 83.7922 31.6679 83.7922 32.2153C83.7922 32.7628 83.3483 33.2066 82.8008 33.2066H80.7578ZM172.277 111.261C171.045 111.261 170.046 110.262 170.046 109.03C170.046 107.799 171.045 106.8 172.277 106.8C173.508 106.8 174.507 107.799 174.507 109.03C174.507 110.262 173.508 111.261 172.277 111.261ZM172.277 112.748C174.33 112.748 175.994 111.084 175.994 109.03C175.994 106.977 174.33 105.313 172.277 105.313C170.223 105.313 168.559 106.977 168.559 109.03C168.559 111.084 170.223 112.748 172.277 112.748ZM172.277 114.235C169.402 114.235 167.072 111.905 167.072 109.03C167.072 106.156 169.402 103.826 172.277 103.826C175.151 103.826 177.481 106.156 177.481 109.03C177.481 111.905 175.151 114.235 172.277 114.235ZM88.9972 34.4348C87.7652 34.4348 86.7665 33.4362 86.7665 32.2043C86.7665 30.9725 87.7652 29.9739 88.9972 29.9739C90.2292 29.9739 91.2279 30.9725 91.2279 32.2043C91.2279 33.4362 90.2292 34.4348 88.9972 34.4348ZM88.9972 35.9217C91.0505 35.9217 92.715 34.2574 92.715 32.2043C92.715 30.1513 91.0505 28.487 88.9972 28.487C86.9439 28.487 85.2794 30.1513 85.2794 32.2043C85.2794 34.2574 86.9439 35.9217 88.9972 35.9217ZM88.9972 37.4087C86.1226 37.4087 83.7922 35.0786 83.7922 32.2043C83.7922 29.3301 86.1226 27 88.9972 27C91.8718 27 94.2021 29.3301 94.2021 32.2043C94.2021 35.0786 91.8718 37.4087 88.9972 37.4087ZM7.20496 89.9478C5.97298 89.9478 4.97426 88.9492 4.97426 87.7174C4.97426 86.4856 5.97298 85.487 7.20496 85.487C8.43694 85.487 9.43566 86.4856 9.43566 87.7174C9.43566 88.9492 8.43694 89.9478 7.20496 89.9478ZM7.20496 91.4348C9.25826 91.4348 10.9228 89.7705 10.9228 87.7174C10.9228 85.6644 9.25826 84 7.20496 84C5.15166 84 3.48713 85.6644 3.48713 87.7174C3.48713 89.7705 5.15166 91.4348 7.20496 91.4348ZM7.20496 92.9218C4.33034 92.9218 2 90.5917 2 87.7174C2 84.8431 4.33034 82.5131 7.20496 82.5131C10.0796 82.5131 12.4099 84.8431 12.4099 87.7174C12.4099 90.5917 10.0796 92.9218 7.20496 92.9218Z" fill="#D4DFFF"/>
<path fill-rule="evenodd" clip-rule="evenodd" d="M32.5183 44.1666H190.833C195.047 44.1666 198.463 47.3833 198.463 51.3512V144.751C198.463 148.718 195.047 151.935 190.833 151.935H32.5183C28.3046 151.935 24.8887 148.718 24.8887 144.751V51.3512C24.8887 47.3833 28.3046 44.1666 32.5183 44.1666Z" fill="#BBD3FF"/>
<path fill-rule="evenodd" clip-rule="evenodd" d="M20.1201 146.213H203.231C205.865 146.213 208 148.348 208 150.981C208 153.615 205.865 155.75 203.231 155.75H20.1201C17.4865 155.75 15.3516 153.615 15.3516 150.981C15.3516 148.348 17.4865 146.213 20.1201 146.213ZM20.1201 40.3518H203.231C205.865 40.3518 208 42.4867 208 45.1203C208 47.7539 205.865 49.8888 203.231 49.8888H20.1201C17.4865 49.8888 15.3516 47.7539 15.3516 45.1203C15.3516 42.4867 17.4865 40.3518 20.1201 40.3518Z" fill="#428DFF"/>
<path fill-rule="evenodd" clip-rule="evenodd" d="M111.678 173.313C113.362 174.049 114.539 175.73 114.539 177.685C114.539 180.319 112.404 182.454 109.77 182.454C107.137 182.454 105.002 180.319 105.002 177.685C105.002 175.73 106.179 174.049 107.863 173.313V155.75H111.678V173.313Z" fill="#6BA6FF"/>
<path d="M109.769 179.593C110.822 179.593 111.676 178.739 111.676 177.685C111.676 176.632 110.822 175.778 109.769 175.778C108.715 175.778 107.861 176.632 107.861 177.685C107.861 178.739 108.715 179.593 109.769 179.593Z" fill="white"/>
<path d="M92.6211 43.2129H131.682C132.747 43.2129 133.61 43.8567 133.61 44.6509V45.5897C133.61 46.3839 132.747 47.0277 131.682 47.0277H92.6211C91.5564 47.0277 90.6934 46.3839 90.6934 45.5897V44.6509C90.6934 43.8567 91.5564 43.2129 92.6211 43.2129Z" fill="white"/>
<path d="M156.766 75.7588C157.184 76.2629 157.795 77.0003 158.027 77.2738C160.908 80.6807 162.787 81.9789 165.334 81.8758C171.12 81.6419 176.304 77.4676 180.875 69.1647L178.457 69.8351C177.787 70.0209 177.091 69.6341 176.904 68.9713C176.716 68.3084 177.107 67.6205 177.777 67.4347L182.784 66.0465C183.442 65.8641 184.127 66.2338 184.328 66.8798L185.944 72.07C186.149 72.7279 185.776 73.4255 185.111 73.6282C184.446 73.8308 183.741 73.4618 183.536 72.8039L182.887 70.7189C177.972 79.4852 172.16 84.0948 165.437 84.3667C161.875 84.5107 159.437 82.8261 156.094 78.8736C155.824 78.5538 155.066 77.639 154.663 77.1537C154.216 77.2969 153.738 77.3743 153.242 77.3743C150.69 77.3743 148.622 75.3281 148.622 72.804C148.622 72.3906 148.678 71.99 148.782 71.6091C146.609 70.3295 144.343 69.9611 141.407 70.38C136.401 71.0944 132.47 75.0898 126.142 84.4596C125.861 84.8751 124.418 87.024 124.011 87.6241C123.192 88.8341 122.529 89.7923 121.888 90.6834C119.704 93.7236 117.761 95.9755 115.859 97.4736C115.863 97.5594 115.866 97.6459 115.866 97.733C115.866 100.257 113.798 102.303 111.246 102.303C109.398 102.303 107.804 101.229 107.065 99.6781C104.51 99.5358 102.201 99.1545 99.1268 98.4737C98.7871 98.3984 97.5635 98.124 97.6234 98.1374C92.0946 96.9018 88.5243 96.4621 82.5375 96.6189C73.8581 96.8463 65.0565 107.307 56.4266 128.224C56.1637 128.862 55.4283 129.167 54.7841 128.907C54.1399 128.647 53.8308 127.92 54.0938 127.282C63.0741 105.516 72.4351 94.3898 82.4708 94.1269C88.6924 93.9639 92.4616 94.4281 98.1786 95.7057C98.1217 95.693 99.3414 95.9666 99.6773 96.041C102.4 96.644 104.467 96.998 106.664 97.1543C106.951 94.9034 108.893 93.1626 111.246 93.1626C112.749 93.1626 114.085 93.8728 114.928 94.9724C116.418 93.661 118.019 91.7651 119.835 89.2389C120.459 88.3696 121.111 87.4291 121.918 86.2367C122.321 85.6414 123.763 83.4942 124.046 83.0746C130.79 73.0892 135.04 68.7699 141.048 67.9127C144.666 67.3964 147.464 67.8922 150.091 69.4616C150.916 68.6998 152.024 68.2336 153.242 68.2336C155.793 68.2336 157.861 70.2798 157.861 72.804C157.861 73.9306 157.449 74.9621 156.766 75.7588ZM111.246 99.8104C112.406 99.8104 113.346 98.8803 113.346 97.733C113.346 96.5856 112.406 95.6555 111.246 95.6555C110.087 95.6555 109.147 96.5856 109.147 97.733C109.147 98.8803 110.087 99.8104 111.246 99.8104ZM153.242 74.8814C154.401 74.8814 155.341 73.9513 155.341 72.804C155.341 71.6566 154.401 70.7265 153.242 70.7265C152.082 70.7265 151.142 71.6566 151.142 72.804C151.142 73.9513 152.082 74.8814 153.242 74.8814Z" fill="white"/>
<path d="M144.867 89.9987C149.193 90.3847 152.396 92.7864 156.284 97.3721C156.398 97.5056 157.607 98.9457 157.955 99.351C160.834 102.704 162.712 103.982 165.257 103.881C170.819 103.659 178.339 95.6842 187.439 79.9197L185.113 80.3259C184.428 80.4454 183.774 80.0016 183.652 79.3346C183.529 78.6677 183.984 78.0301 184.669 77.9105L189.771 77.0194C190.381 76.913 190.979 77.2538 191.182 77.8233L192.93 82.7086C193.158 83.3484 192.812 84.0479 192.155 84.2709C191.498 84.4939 190.781 84.156 190.552 83.5162L189.672 81.0564C180.122 97.6251 172.146 106.062 165.36 106.333C161.8 106.475 159.364 104.816 156.024 100.926C155.665 100.508 154.449 99.0596 154.343 98.9352C151.028 95.0255 148.446 92.9891 145.12 92.513C144.719 94.5993 142.841 96.1781 140.583 96.1781C139 96.1781 137.602 95.4009 136.771 94.2165C133.855 96.0187 131.126 99.3023 127.614 104.603C127.73 104.428 125.696 107.519 125.136 108.349C120.687 114.945 117.512 117.835 113.052 117.874C109.189 117.908 105.943 116.514 101.595 113.479C101.108 113.139 100.605 112.778 99.972 112.318C99.7251 112.138 98.6424 111.347 98.3517 111.136C98.0734 110.933 97.7997 110.737 97.5303 110.545C96.7099 111.274 95.6184 111.719 94.4204 111.719C91.8709 111.719 89.8042 109.705 89.8042 107.22C89.8042 106.851 89.8498 106.492 89.9359 106.149C87.5334 105.205 85.2043 104.82 82.4764 104.89C73.6893 105.117 64.9465 112.871 56.367 128.356C56.0367 128.952 55.2729 129.174 54.6611 128.852C54.0492 128.531 53.8211 127.786 54.1514 127.19C63.1149 111.012 72.4947 102.693 82.4098 102.437C85.66 102.353 88.3942 102.837 91.2028 103.995C92.0342 103.207 93.1692 102.722 94.4204 102.722C96.9699 102.722 99.0367 104.736 99.0367 107.22C99.0367 107.648 98.9755 108.062 98.861 108.454C99.1875 108.685 99.5193 108.923 99.8572 109.169C100.151 109.382 101.234 110.174 101.478 110.351C102.099 110.803 102.59 111.155 103.062 111.484C107.015 114.244 109.82 115.449 113.03 115.42C116.328 115.391 119.033 112.93 123.032 107.001C123.583 106.184 125.608 103.108 125.498 103.272C129.402 97.3794 132.467 93.7483 135.969 91.7951C135.968 91.7566 135.967 91.7181 135.967 91.6794C135.967 89.1948 138.034 87.1807 140.583 87.1807C142.523 87.1807 144.183 88.3467 144.867 89.9987ZM140.583 93.7243C141.742 93.7243 142.682 92.8088 142.682 91.6794C142.682 90.5501 141.742 89.6345 140.583 89.6345C139.424 89.6345 138.485 90.5501 138.485 91.6794C138.485 92.8088 139.424 93.7243 140.583 93.7243ZM94.4204 109.265C95.5793 109.265 96.5188 108.35 96.5188 107.22C96.5188 106.091 95.5793 105.176 94.4204 105.176C93.2616 105.176 92.3221 106.091 92.3221 107.22C92.3221 108.35 93.2616 109.265 94.4204 109.265Z" fill="white"/>
<path d="M121.104 169H128.83C129.44 169 129.934 169.494 129.934 170.104V170.824C129.934 171.434 129.44 171.928 128.83 171.928H121.104C120.494 171.928 120 171.434 120 170.824V170.104C120 169.494 120.494 169 121.104 169ZM121.104 174.519H139.868C140.478 174.519 140.972 175.013 140.972 175.623V176.343C140.972 176.953 140.478 177.447 139.868 177.447H121.104C120.494 177.447 120 176.953 120 176.343V175.623C120 175.013 120.494 174.519 121.104 174.519Z" fill="#FB65BC"/>
<path d="M82.7366 129.069V179.414C82.7366 180.081 82.4714 180.722 81.9993 181.194C81.5273 181.666 80.887 181.931 80.2195 181.931H14.7749C14.1073 181.931 13.4671 181.666 12.9951 181.194C12.523 180.722 12.2578 180.081 12.2578 179.414V129.069H82.7366Z" fill="#A4C2F7"/>
<path d="M80 130V171.653C79.9409 173.648 79.071 175.54 77.5797 176.915C76.0884 178.291 74.0967 179.04 72.0385 178.998H11V130.116H13.6538V130H80Z" fill="#E3E7F2"/>
<path d="M82.7366 122.776V132.845H12.2578V122.776C12.2578 122.108 12.523 121.468 12.9951 120.996C13.4671 120.524 14.1073 120.259 14.7749 120.259H80.2195C80.887 120.259 81.5273 120.524 81.9993 120.996C82.4714 121.468 82.7366 122.108 82.7366 122.776Z" fill="#E3E7F2"/>
<path d="M60.0835 129.069C61.4737 129.069 62.6006 127.942 62.6006 126.552C62.6006 125.161 61.4737 124.034 60.0835 124.034C58.6933 124.034 57.5664 125.161 57.5664 126.552C57.5664 127.942 58.6933 129.069 60.0835 129.069Z" fill="#428DFF"/>
<path d="M67.6343 129.069C69.0244 129.069 70.1514 127.942 70.1514 126.552C70.1514 125.161 69.0244 124.034 67.6343 124.034C66.2441 124.034 65.1172 125.161 65.1172 126.552C65.1172 127.942 66.2441 129.069 67.6343 129.069Z" fill="#428DFF"/>
<path d="M75.187 129.069C76.5772 129.069 77.7041 127.942 77.7041 126.552C77.7041 125.161 76.5772 124.034 75.187 124.034C73.7969 124.034 72.6699 125.161 72.6699 126.552C72.6699 127.942 73.7969 129.069 75.187 129.069Z" fill="#428DFF"/>
<path d="M18.5515 127.81H42.4639C42.7977 127.81 43.1178 127.678 43.3539 127.442C43.5899 127.206 43.7225 126.886 43.7225 126.552C43.7225 126.218 43.5899 125.898 43.3539 125.662C43.1178 125.426 42.7977 125.293 42.4639 125.293H18.5515C18.2177 125.293 17.8976 125.426 17.6616 125.662C17.4256 125.898 17.293 126.218 17.293 126.552C17.293 126.886 17.4256 127.206 17.6616 127.442C17.8976 127.678 18.2177 127.81 18.5515 127.81Z" fill="#428DFF"/>
<path d="M62.5997 155.5C62.5978 158.918 61.4368 162.234 59.3066 164.906C57.1764 167.578 54.2028 169.449 50.8718 170.213C47.5407 170.977 44.0492 170.588 40.9677 169.11C37.8861 167.633 35.3968 165.154 33.9064 162.078C32.416 159.003 32.0127 155.513 32.7624 152.178C33.5121 148.844 35.3704 145.862 38.0337 143.721C40.6971 141.579 44.0079 140.404 47.4253 140.388C50.8427 140.372 54.1646 141.515 56.8482 143.631C58.642 145.046 60.0916 146.849 61.0879 148.905C62.0841 150.96 62.6011 153.216 62.5997 155.5Z" fill="#DCE9FF"/>
<path d="M60.0835 152.983C59.7793 155.528 58.621 157.894 56.7979 159.696C54.9748 161.497 52.5947 162.627 50.0465 162.901C47.4982 163.175 44.9324 162.576 42.7684 161.203C40.6043 159.83 38.9698 157.763 38.132 155.341C37.2942 152.919 37.3026 150.284 38.1559 147.867C39.0091 145.45 40.6566 143.394 42.8294 142.035C45.0022 140.676 47.5717 140.093 50.1182 140.383C52.6647 140.673 55.0375 141.818 56.8491 143.631C58.9467 146.297 60.086 149.591 60.0835 152.983Z" fill="#F5F7FF"/>
<path d="M48.681 164.889H46.3024C45.6242 164.887 44.9536 164.747 44.3308 164.479C43.7079 164.211 43.1457 163.82 42.6777 163.329C41.7233 162.334 41.1949 161.007 41.2052 159.628V150.516C41.2052 150.182 41.3378 149.862 41.5738 149.626C41.8099 149.39 42.13 149.257 42.4638 149.257H52.5322C52.866 149.257 53.1861 149.39 53.4221 149.626C53.6581 149.862 53.7907 150.182 53.7907 150.516V159.628C53.7963 161.008 53.2635 162.336 52.3056 163.329C51.8377 163.82 51.2755 164.211 50.6526 164.479C50.0298 164.747 49.3591 164.887 48.681 164.889ZM43.7223 151.775V159.628C43.7199 160.357 43.9943 161.058 44.49 161.592C44.724 161.837 45.0051 162.033 45.3166 162.167C45.628 162.301 45.9633 162.371 46.3024 162.372H48.681C49.0201 162.371 49.3554 162.301 49.6668 162.167C49.9783 162.033 50.2594 161.837 50.4933 161.592C50.9926 161.06 51.2714 160.358 51.2736 159.628V151.775H43.7223Z" fill="#428DFF"/>
<path d="M51.2727 151.724H43.7214C43.3877 151.724 43.0675 151.592 42.8315 151.356C42.5955 151.12 42.4629 150.799 42.4629 150.466V149.207C42.4629 147.872 42.9933 146.591 43.9374 145.647C44.8815 144.703 46.1619 144.172 47.4971 144.172C48.8322 144.172 50.1127 144.703 51.0568 145.647C52.0009 146.591 52.5313 147.872 52.5313 149.207V150.466C52.5313 150.799 52.3987 151.12 52.1627 151.356C51.9266 151.592 51.6065 151.724 51.2727 151.724ZM44.98 149.207H50.0142C50.0142 148.539 49.749 147.899 49.2769 147.427C48.8049 146.955 48.1647 146.69 47.4971 146.69C46.8295 146.69 46.1893 146.955 45.7172 147.427C45.2452 147.899 44.98 148.539 44.98 149.207Z" fill="#428DFF"/>
<path d="M53.7905 152.983H52.532C52.1982 152.983 51.8781 152.85 51.6421 152.614C51.406 152.378 51.2734 152.058 51.2734 151.724C51.2734 151.39 51.406 151.07 51.6421 150.834C51.8781 150.598 52.1982 150.466 52.532 150.466H53.7905C54.1243 150.466 54.4444 150.333 54.6805 150.097C54.9165 149.861 55.0491 149.541 55.0491 149.207C55.0491 148.873 55.1817 148.553 55.4177 148.317C55.6537 148.081 55.9738 147.948 56.3076 147.948C56.6414 147.948 56.9615 148.081 57.1976 148.317C57.4336 148.553 57.5662 148.873 57.5662 149.207C57.5662 150.208 57.1684 151.169 56.4603 151.877C55.7523 152.585 54.7919 152.983 53.7905 152.983Z" fill="#428DFF"/>
<path d="M56.3076 163.052C55.9738 163.052 55.6537 162.919 55.4177 162.683C55.1817 162.447 55.0491 162.127 55.0491 161.793C55.0491 161.459 54.9165 161.139 54.6805 160.903C54.4444 160.667 54.1243 160.534 53.7905 160.534H52.532C52.1982 160.534 51.8781 160.402 51.6421 160.166C51.406 159.93 51.2734 159.61 51.2734 159.276C51.2734 158.942 51.406 158.622 51.6421 158.386C51.8781 158.15 52.1982 158.017 52.532 158.017H53.7905C54.7919 158.017 55.7523 158.415 56.4603 159.123C57.1684 159.831 57.5662 160.792 57.5662 161.793C57.5662 162.127 57.4336 162.447 57.1976 162.683C56.9615 162.919 56.6414 163.052 56.3076 163.052Z" fill="#428DFF"/>
<path d="M42.4639 152.983H41.2053C40.204 152.983 39.2436 152.585 38.5356 151.877C37.8275 151.169 37.4297 150.208 37.4297 149.207C37.4297 148.873 37.5623 148.553 37.7983 148.317C38.0343 148.081 38.3544 147.948 38.6882 147.948C39.022 147.948 39.3421 148.081 39.5782 148.317C39.8142 148.553 39.9468 148.873 39.9468 149.207C39.9468 149.541 40.0794 149.861 40.3154 150.097C40.5514 150.333 40.8715 150.466 41.2053 150.466H42.4639C42.7977 150.466 43.1178 150.598 43.3538 150.834C43.5898 151.07 43.7224 151.39 43.7224 151.724C43.7224 152.058 43.5898 152.378 43.3538 152.614C43.1178 152.85 42.7977 152.983 42.4639 152.983Z" fill="#428DFF"/>
<path d="M38.6882 163.052C38.3544 163.052 38.0343 162.919 37.7983 162.683C37.5623 162.447 37.4297 162.127 37.4297 161.793C37.4297 160.792 37.8275 159.831 38.5356 159.123C39.2436 158.415 40.204 158.017 41.2053 158.017H42.4639C42.7977 158.017 43.1178 158.15 43.3538 158.386C43.5898 158.622 43.7224 158.942 43.7224 159.276C43.7224 159.61 43.5898 159.93 43.3538 160.166C43.1178 160.402 42.7977 160.534 42.4639 160.534H41.2053C40.8715 160.534 40.5514 160.667 40.3154 160.903C40.0794 161.139 39.9468 161.459 39.9468 161.793C39.9468 162.127 39.8142 162.447 39.5782 162.683C39.3421 162.919 39.022 163.052 38.6882 163.052Z" fill="#428DFF"/>
<path d="M47.4988 164.94C47.165 164.94 46.8449 164.807 46.6089 164.571C46.3728 164.335 46.2402 164.015 46.2402 163.681V156.129C46.2402 155.796 46.3728 155.475 46.6089 155.239C46.8449 155.003 47.165 154.871 47.4988 154.871C47.8326 154.871 48.1527 155.003 48.3887 155.239C48.6247 155.475 48.7573 155.796 48.7573 156.129V163.681C48.7573 164.015 48.6247 164.335 48.3887 164.571C48.1527 164.807 47.8326 164.94 47.4988 164.94Z" fill="#428DFF"/>
<path d="M50.0147 170.39V175.638H44.9805V170.39C46.6464 170.675 48.3487 170.675 50.0147 170.39Z" fill="#A4C2F7"/>
<path d="M51.2739 175.638V186.966C51.2729 187.87 50.947 188.745 50.3557 189.429C49.7643 190.114 48.9468 190.564 48.0519 190.696C47.157 190.829 46.2442 190.636 45.4797 190.152C44.7151 189.668 44.1497 188.926 43.8863 188.061C43.78 187.705 43.7249 187.336 43.7227 186.966V175.638H51.2739Z" fill="#A4C2F7"/>
<path d="M48.7573 176.897V185.707C48.7573 186.708 48.3595 187.669 47.6515 188.377C46.9434 189.085 45.983 189.483 44.9817 189.483C44.8057 189.576 44.6045 189.61 44.4077 189.58C44.2109 189.551 44.0288 189.459 43.888 189.318C43.7473 189.177 43.6553 188.995 43.6256 188.798C43.596 188.601 43.6301 188.4 43.7231 188.224V176.897H48.7573Z" fill="#E3E7F2"/>
<path d="M42.4639 156.759H38.6882C38.3544 156.759 38.0343 156.626 37.7983 156.39C37.5623 156.154 37.4297 155.834 37.4297 155.5C37.4297 155.166 37.5623 154.846 37.7983 154.61C38.0343 154.374 38.3544 154.241 38.6882 154.241H42.4639C42.7977 154.241 43.1178 154.374 43.3538 154.61C43.5898 154.846 43.7224 155.166 43.7224 155.5C43.7224 155.834 43.5898 156.154 43.3538 156.39C43.1178 156.626 42.7977 156.759 42.4639 156.759Z" fill="#428DFF"/>
<path d="M56.3076 156.759H52.532C52.1982 156.759 51.8781 156.626 51.6421 156.39C51.406 156.154 51.2734 155.834 51.2734 155.5C51.2734 155.166 51.406 154.846 51.6421 154.61C51.8781 154.374 52.1982 154.241 52.532 154.241H56.3076C56.6414 154.241 56.9615 154.374 57.1976 154.61C57.4336 154.846 57.5662 155.166 57.5662 155.5C57.5662 155.834 57.4336 156.154 57.1976 156.39C56.9615 156.626 56.6414 156.759 56.3076 156.759Z" fill="#428DFF"/>
<path d="M80.2202 119H14.7756C13.7743 119 12.8139 119.398 12.1059 120.106C11.3978 120.814 11 121.774 11 122.776V179.414C11 180.415 11.3978 181.376 12.1059 182.084C12.8139 182.792 13.7743 183.19 14.7756 183.19H42.4637V186.966C42.4637 188.301 42.9941 189.581 43.9382 190.525C44.8823 191.47 46.1628 192 47.4979 192C48.8331 192 50.1136 191.47 51.0577 190.525C52.0017 189.581 52.5321 188.301 52.5321 186.966V183.19H80.2202C81.2216 183.19 82.1819 182.792 82.89 182.084C83.5981 181.376 83.9959 180.415 83.9959 179.414V122.776C83.9959 121.774 83.5981 120.814 82.89 120.106C82.1819 119.398 81.2216 119 80.2202 119ZM14.7756 121.517H80.2202C80.554 121.517 80.8741 121.65 81.1102 121.886C81.3462 122.122 81.4788 122.442 81.4788 122.776V131.586H13.5171V122.776C13.5171 122.442 13.6497 122.122 13.8857 121.886C14.1217 121.65 14.4419 121.517 14.7756 121.517ZM46.2394 171.862C47.0767 171.938 47.9192 171.938 48.7565 171.862V174.379H46.2394V171.862ZM50.015 186.966C50.015 187.633 49.7498 188.273 49.2778 188.745C48.8057 189.218 48.1655 189.483 47.4979 189.483C46.8304 189.483 46.1901 189.218 45.7181 188.745C45.246 188.273 44.9808 187.633 44.9808 186.966V176.897H50.015V186.966ZM80.2202 180.672H52.5321V175.638C52.5321 175.304 52.3995 174.984 52.1635 174.748C51.9275 174.512 51.6074 174.379 51.2736 174.379V171.384C53.9244 170.763 56.3785 169.491 58.4136 167.683C60.4486 165.875 62.0003 163.587 62.928 161.027C63.8556 158.468 64.1299 155.717 63.726 153.025C63.3222 150.332 62.2528 147.783 60.615 145.608C58.9772 143.434 56.8226 141.702 54.3465 140.57C51.8704 139.439 49.1511 138.943 46.435 139.128C43.7189 139.313 41.0918 140.172 38.7919 141.629C36.4919 143.086 34.5918 145.093 33.2637 147.47C33.0997 147.759 33.0565 148.101 33.1438 148.422C33.231 148.743 33.4415 149.016 33.7294 149.182C33.8731 149.265 34.0317 149.319 34.1963 149.341C34.3609 149.362 34.5282 149.351 34.6884 149.308C34.8487 149.264 34.9988 149.19 35.1301 149.088C35.2615 148.987 35.3714 148.86 35.4536 148.716C36.6775 146.554 38.4606 144.761 40.616 143.525C42.7714 142.289 45.2195 141.657 47.7037 141.693C50.1879 141.729 52.6165 142.433 54.7348 143.732C56.8532 145.03 58.5831 146.874 59.7433 149.071C60.9034 151.268 61.451 153.737 61.3286 156.218C61.2062 158.7 60.4182 161.103 59.0475 163.175C57.6767 165.247 55.7736 166.912 53.5377 167.996C51.3019 169.079 48.8157 169.541 46.3401 169.332C45.9625 169.332 45.5724 169.257 45.1822 169.194C42.5402 168.746 40.085 167.54 38.1146 165.724C36.1442 163.907 34.7432 161.558 34.0818 158.961C34.0413 158.801 33.9696 158.65 33.8709 158.517C33.7721 158.385 33.6482 158.273 33.5062 158.188C33.3642 158.104 33.2069 158.048 33.0433 158.024C32.8797 158 32.713 158.008 32.5527 158.049C32.3923 158.089 32.2416 158.161 32.109 158.26C31.9763 158.358 31.8645 158.482 31.7797 158.624C31.695 158.766 31.6391 158.924 31.6151 159.087C31.5912 159.251 31.5997 159.418 31.6402 159.578C32.3777 162.473 33.8936 165.11 36.0234 167.205C38.1532 169.299 40.8157 170.771 43.7223 171.459V174.417C43.3885 174.417 43.0684 174.55 42.8324 174.786C42.5963 175.022 42.4637 175.342 42.4637 175.676V180.71H14.7756C14.4419 180.71 14.1217 180.578 13.8857 180.342C13.6497 180.106 13.5171 179.785 13.5171 179.452V134.141H81.4788V179.452C81.4689 179.779 81.332 180.089 81.0971 180.317C80.8621 180.545 80.5476 180.673 80.2202 180.672Z" fill="#428DFF"/>
<path d="M31.4009 152.504C31.3002 153.121 31.2247 153.625 31.187 154.115C31.1627 154.447 31.2708 154.775 31.4878 155.028C31.7048 155.28 32.013 155.436 32.3448 155.462H32.4455C32.7626 155.463 33.0683 155.344 33.3016 155.13C33.535 154.915 33.6787 154.62 33.7041 154.304C33.7364 153.852 33.7952 153.402 33.8802 152.957C33.9403 152.624 33.8653 152.28 33.6718 152.001C33.4783 151.723 33.182 151.532 32.8482 151.472C32.5144 151.412 32.1705 151.487 31.8919 151.681C31.6134 151.874 31.4232 152.171 31.3631 152.504H31.4009Z" fill="#428DFF"/>
</svg>
