<svg width="66" height="66" viewBox="0 0 66 66" fill="none" xmlns="http://www.w3.org/2000/svg">
<path d="M54.6986 24.7341V30.934H11.2988V24.7341C11.2931 13.35 20.093 3.90024 31.4487 3.09618C31.955 3.05489 32.482 3.03418 32.9987 3.03418C44.9832 3.03418 54.6986 12.7496 54.6986 24.7341Z" fill="#E3E7F2"/>
<path d="M51.5986 24.7333V30.9333H11.2988V24.7333C11.2931 13.3493 20.093 3.89952 31.4487 3.09546C42.8045 3.89964 51.6043 13.3493 51.5986 24.7333Z" fill="#F5F5F5"/>
<path d="M57.797 33V37.1333H8.19727V33C8.20175 31.8805 9.09323 30.9663 10.2123 30.9333H55.7303C56.8703 30.9367 57.7936 31.8601 57.797 33Z" fill="#E3E7F2"/>
<path d="M62.9656 40.2334C62.9669 41.33 62.5319 42.3822 61.7564 43.1575C60.981 43.933 59.9289 44.368 58.8323 44.3666H7.16587C5.49309 44.368 3.9844 43.3608 3.34418 41.8156C2.70396 40.2703 3.05815 38.4912 4.2416 37.3091C4.49953 37.0576 4.78761 36.8389 5.0993 36.6581C5.72705 36.2934 6.43992 36.1008 7.16599 36.1001H58.8324C61.115 36.1001 62.9656 37.9506 62.9656 40.2334Z" fill="#E3E7F2"/>
<path d="M54.6993 33V37.1333H5.09961V36.658C5.72736 36.2933 6.44023 36.1008 7.1663 36.1H8.19959V33C8.20407 31.8805 9.09556 30.9663 10.2146 30.9333H52.6326C53.7726 30.9367 54.6959 31.8601 54.6993 33Z" fill="#F5F5F5"/>
<path d="M59.8656 40.2334C59.8669 41.33 59.4319 42.3822 58.6565 43.1575C57.881 43.933 56.8289 44.368 55.7323 44.3666H7.16587C5.49309 44.368 3.9844 43.3608 3.34418 41.8156C2.70396 40.2703 3.05815 38.4912 4.2416 37.3091C4.49953 37.0576 4.78761 36.8389 5.0993 36.6581C5.72705 36.2934 6.43992 36.1008 7.16599 36.1001H55.7324C58.0126 36.1058 59.8599 37.9529 59.8656 40.2334Z" fill="#F5F5F5"/>
<path d="M32.9987 3.03418C31.2579 3.03406 29.5235 3.24222 27.832 3.65418V25.7673H38.1653V3.65418C36.474 3.24234 34.7394 3.03418 32.9987 3.03418Z" fill="#D4E1F4"/>
<path d="M33.0007 21.6333C36.4249 21.6333 39.2007 18.8575 39.2007 15.4334C39.2007 12.0092 36.4249 9.2334 33.0007 9.2334C29.5766 9.2334 26.8008 12.0092 26.8008 15.4334C26.8008 18.8575 29.5766 21.6333 33.0007 21.6333Z" fill="#F5F5F5"/>
<path d="M33.0022 17.5003C34.1436 17.5003 35.0689 16.575 35.0689 15.4336C35.0689 14.2922 34.1436 13.3669 33.0022 13.3669C31.8608 13.3669 30.9355 14.2922 30.9355 15.4336C30.9355 16.575 31.8608 17.5003 33.0022 17.5003Z" fill="#F5F5F5"/>
<path d="M33.8516 25.7668H32.1508C26.9139 25.7668 22.668 30.2773 22.668 35.8418V43.3334H26.8012V35.8418C26.7149 32.7974 29.1067 30.2562 32.1508 30.1585H33.8516C36.8957 30.2564 39.2875 32.7974 39.2012 35.8418V43.3334H43.3344V35.8418C43.3344 30.2773 39.0885 25.7668 33.8516 25.7668Z" fill="#F5F5F5"/>
<path d="M46.4349 43.2818V57.056C46.4351 58.6236 45.8125 60.1272 44.704 61.2357C43.5955 62.3442 42.0919 62.9669 40.5242 62.9666H25.479C23.9114 62.9669 22.4077 62.3442 21.2993 61.2357C20.1908 60.1272 19.5681 58.6236 19.5684 57.056V43.2818C19.5718 42.741 20.0093 42.3034 20.5501 42.3H45.4532C45.994 42.3034 46.4315 42.741 46.4349 43.2818Z" fill="#E3E7F2"/>
<path d="M43.3349 43.2818V57.056C43.3352 58.6236 42.7125 60.1272 41.604 61.2357C40.4955 62.3442 38.9919 62.9669 37.4243 62.9666H25.479C23.9114 62.9669 22.4077 62.3442 21.2993 61.2357C20.1908 60.1272 19.5681 58.6236 19.5684 57.056V43.2818C19.5718 42.741 20.0093 42.3034 20.5501 42.3H42.3532C42.894 42.3034 43.3315 42.741 43.3349 43.2818Z" fill="#F5F5F5"/>
<path d="M33.0022 53.6668C34.1436 53.6668 35.0689 52.7415 35.0689 51.6001C35.0689 50.4587 34.1436 49.5334 33.0022 49.5334C31.8608 49.5334 30.9355 50.4587 30.9355 51.6001C30.9355 52.7415 31.8608 53.6668 33.0022 53.6668Z" fill="#E3E7F2"/>
<path d="M6.13264 40.2334C6.13458 39.1373 6.56906 38.0865 7.34163 37.3091C7.59956 37.0576 7.88764 36.8389 8.19934 36.6581C8.82708 36.2933 9.53996 36.1008 10.266 36.1001H11.2993V33.0001C11.3038 31.8806 12.1953 30.9663 13.3143 30.9334H14.3993V24.7334C14.3988 14.7427 21.227 6.04564 30.9325 3.67524V3.65356C31.4244 3.53368 31.9256 3.43548 32.4308 3.34974L32.5341 3.33315C33.1923 3.22986 33.8619 3.15127 34.5377 3.10065C34.0324 3.06239 33.5158 3.03345 32.9991 3.03345C31.8056 3.03611 30.6144 3.13638 29.4372 3.33315L29.3339 3.34974C28.8286 3.43548 28.3275 3.53368 27.8357 3.65356V3.67524C18.129 6.04443 11.2992 14.7417 11.2993 24.7334V30.9334H10.2143C9.0953 30.9662 8.20382 31.8806 8.19934 33.0001V36.1001H7.16605C6.4401 36.1008 5.7271 36.2933 5.09935 36.6581C4.78766 36.8389 4.49958 37.0576 4.24165 37.3091C3.05821 38.4913 2.70389 40.2702 3.34423 41.8156C3.98457 43.3609 5.49315 44.368 7.16593 44.3666H10.2659C7.98318 44.3667 6.13264 42.5162 6.13264 40.2334Z" fill="white"/>
<path d="M22.6644 57.0557V44.3665H19.5645V57.0557C19.5642 58.6233 20.1869 60.127 21.2954 61.2354C22.4038 62.3439 23.9075 62.9666 25.4751 62.9663H28.5751C27.0074 62.9666 25.5038 62.3439 24.3953 61.2354C23.2869 60.127 22.6641 58.6233 22.6644 57.0557Z" fill="white"/>
<path d="M40.5197 63.9996H27.0865H25.4766V61.9329H27.0865H40.5197V63.9996Z" fill="white"/>
<path d="M32.6478 62.0156C32.2621 61.8595 31.8206 61.9445 31.5204 62.2326C31.4274 62.3317 31.3538 62.4473 31.3034 62.5736C31.2505 62.6979 31.2224 62.8313 31.2207 62.9663C31.2183 63.3862 31.47 63.7657 31.8578 63.9267C32.2455 64.0877 32.6921 63.9982 32.9877 63.7L33.1117 63.545C33.1512 63.4875 33.1828 63.4249 33.2058 63.359C33.2348 63.3003 33.2554 63.2376 33.2667 63.173C33.2782 63.1047 33.2851 63.0356 33.2874 62.9663C33.2834 62.6928 33.1764 62.4308 32.9877 62.2326C32.8892 62.1392 32.7738 62.0656 32.6478 62.0156Z" fill="#428DFF"/>
<path d="M58.833 35.0665V32.9998C58.833 31.2878 57.445 29.8998 55.733 29.8998V24.7332C55.733 12.178 45.555 2 32.9998 2C20.4447 2 10.2667 12.178 10.2667 24.7332V29.8998C8.55465 29.8998 7.16668 31.2878 7.16668 32.9998V35.0665C4.31324 35.0665 2 37.3798 2 40.2332C2 43.0866 4.31324 45.3999 7.16668 45.3999H18.5333V57.0547C18.5379 60.8884 21.6446 63.9952 25.4784 63.9998H28.1216C28.6923 63.9998 29.1549 63.5372 29.1549 62.9665C29.1549 62.3958 28.6923 61.9332 28.1216 61.9332H25.4784C23.0779 61.9264 21.0399 60.1725 20.6755 57.7999H23.7C24.2707 57.7999 24.7333 57.3373 24.7333 56.7666C24.7333 56.1959 24.2706 55.7333 23.7 55.7333H20.6L20.5927 53.6667H23.7C24.2707 53.6667 24.7333 53.2041 24.7333 52.6334C24.7333 52.0626 24.2706 51.6001 23.7 51.6001H20.5804L20.5731 49.5334H23.7C24.2707 49.5334 24.7333 49.0708 24.7333 48.5001C24.7333 47.9294 24.2706 47.4668 23.7 47.4668H20.5659L20.5515 43.3335H22.646C22.6533 43.3335 22.6594 43.3335 22.6667 43.3335H43.3333C43.4089 43.3272 43.4833 43.3123 43.5555 43.2891H45.4V47.4668H42.3C41.7293 47.4668 41.2667 47.9295 41.2667 48.5001C41.2667 49.0707 41.7293 49.5334 42.3 49.5334H45.4V51.5997H42.3C41.7293 51.5997 41.2667 52.0623 41.2667 52.633C41.2667 53.2037 41.7293 53.6663 42.3 53.6663H45.4V55.733H42.3C41.7293 55.733 41.2667 56.1956 41.2667 56.7663C41.2667 57.337 41.7293 57.7996 42.3 57.7996H45.3245C44.9601 60.1723 42.9221 61.926 40.5216 61.9328H36.3884C35.8177 61.9328 35.3551 62.3955 35.3551 62.9661C35.3551 63.5368 35.8178 63.9994 36.3884 63.9994H40.5216C44.3553 63.9948 47.4621 60.8882 47.4667 57.0543V45.3997H58.8333C61.6868 45.3997 64 43.0865 64 40.2331C63.9996 37.3796 61.6864 35.0665 58.833 35.0665ZM56.7664 32.9998V35.0665H44.3571C44.3399 34.0128 44.1636 32.9676 43.8343 31.9665H55.733C56.3037 31.9665 56.7664 32.4291 56.7664 32.9998ZM34.0331 41.2665H27.8331V35.2494C27.8359 32.8667 29.7668 30.936 32.1494 30.9331H33.8503C36.2329 30.9359 38.1636 32.8667 38.1665 35.2494V41.2665H34.0331ZM33.8503 28.8666H32.1494C28.6258 28.8705 25.7704 31.7259 25.7666 35.2494V41.2665H23.6999V35.2494C23.705 30.585 27.485 26.8049 32.1494 26.7999H33.8503C38.5146 26.8049 42.2947 30.585 42.2998 35.2494V41.2665H40.2331V35.2494C40.2291 31.7259 37.3737 28.8705 33.8503 28.8666ZM32.9998 10.2667C35.8533 10.2667 38.1665 12.5799 38.1665 15.4333C38.1665 18.2868 35.8533 20.5999 32.9998 20.5999C30.1464 20.5999 27.8331 18.2867 27.8331 15.4332C27.8365 12.5812 30.1478 10.2701 32.9998 10.2667ZM28.8666 21.3605C31.3469 23.102 34.6527 23.102 37.1332 21.3605V25.2654C36.0742 24.9141 34.966 24.7344 33.8504 24.7332H32.1495C31.0339 24.7344 29.9255 24.9141 28.8667 25.2654V21.3605H28.8666ZM53.6664 24.7332V29.8998H42.8877C41.9697 28.3544 40.673 27.0686 39.1201 26.1633C39.1725 26.0376 39.1995 25.9027 39.1997 25.7664V19.1398C40.5775 16.8608 40.5775 14.0056 39.1997 11.7267V5.01933C47.8021 7.73678 53.6544 15.7119 53.6664 24.7332ZM37.1331 4.47999V9.50607C36.2099 8.86101 35.148 8.44191 34.0331 8.28267V7.16668C34.0331 6.59597 33.5705 6.13339 32.9998 6.13339C32.4291 6.13339 31.9665 6.59609 31.9665 7.16668V8.28267C30.8516 8.44191 29.7898 8.86101 28.8666 9.50607V4.47999C31.594 3.92477 34.4056 3.92477 37.1331 4.47999ZM12.3332 24.7332C12.3451 15.7119 18.1974 7.73678 26.7999 5.01933V11.7267C25.4221 14.0056 25.4221 16.8608 26.7999 19.1398V25.7664C26.8 25.9027 26.827 26.0376 26.8794 26.1633C25.3268 27.0688 24.0302 28.3547 23.1118 29.8998H12.3332V24.7332ZM9.23325 32.9998C9.23325 32.4291 9.69595 31.9665 10.2665 31.9665H22.1653C21.8359 32.9676 21.6596 34.0128 21.6424 35.0665H9.23325V32.9998ZM18.5332 43.2845V43.3331H7.16668C5.45466 43.3331 4.06669 41.9451 4.06669 40.2331C4.06669 38.5211 5.45466 37.1331 7.16668 37.1331H21.6333V41.2664H20.5515C19.4373 41.2676 18.5344 42.1704 18.5332 43.2845ZM61.0319 42.4217C60.4482 43.0043 59.6576 43.332 58.833 43.3331H47.4663V43.2845C47.4652 42.1704 46.5624 41.2676 45.4482 41.2664H44.3663V37.1331H58.833C60.0865 37.1316 61.2175 37.8854 61.6989 39.043C62.1802 40.2005 61.917 41.5339 61.0319 42.4217Z" fill="#428DFF"/>
<path d="M23.7657 11.0272C24.2388 10.7077 24.3633 10.065 24.0436 9.59193C23.7241 9.11882 23.0814 8.99433 22.6083 9.31402C21.6203 9.9827 20.6983 10.7439 19.8545 11.5873C19.586 11.8468 19.4782 12.2309 19.5728 12.5923C19.6673 12.9536 19.9495 13.2356 20.3107 13.3302C20.672 13.4248 21.0562 13.317 21.3157 13.0484C22.0662 12.2982 22.8866 11.6214 23.7657 11.0272Z" fill="#428DFF"/>
<path d="M17.2197 16.9501C16.9673 16.8432 16.6826 16.8412 16.4285 16.9442C16.1745 17.0473 15.9717 17.2472 15.8651 17.4998C15.3888 18.6246 15.025 19.7939 14.779 20.9904C14.7238 21.259 14.7776 21.5385 14.9285 21.7673C15.0795 21.9962 15.3153 22.1557 15.5839 22.2107C15.6519 22.2241 15.7212 22.231 15.7906 22.2314C16.2809 22.2305 16.7031 21.8852 16.8012 21.4047C17.0209 20.3423 17.3441 19.3039 17.7663 18.3047C17.9893 17.7799 17.7446 17.1734 17.2197 16.9501Z" fill="#428DFF"/>
<path d="M33.0004 18.5332C34.7124 18.5332 36.1003 17.1452 36.1003 15.4332C36.1003 13.7212 34.7124 12.3333 33.0004 12.3333C31.2882 12.3333 29.9004 13.7212 29.9004 15.4332C29.9004 17.1452 31.2882 18.5332 33.0004 18.5332ZM33.0004 14.3999C33.5711 14.3999 34.0337 14.8626 34.0337 15.4332C34.0337 16.0039 33.5711 16.4665 33.0004 16.4665C32.4297 16.4665 31.9671 16.0038 31.9671 15.4332C31.9671 14.8626 32.4297 14.3999 33.0004 14.3999Z" fill="#428DFF"/>
<path d="M36.1009 51.5999C36.1074 50.0218 34.9273 48.6906 33.3598 48.5079C31.7922 48.3251 30.3377 49.3492 29.9811 50.8865C29.6244 52.4238 30.4796 53.9837 31.9675 54.5097V56.7665C31.9675 57.3373 32.4302 57.7998 33.0007 57.7998C33.5713 57.7998 34.034 57.3373 34.034 56.7665V54.5097C35.2683 54.0734 36.0954 52.9089 36.1009 51.5999ZM33.0009 52.6332C32.4302 52.6332 31.9676 52.1705 31.9676 51.5999C31.9676 51.0292 32.4303 50.5666 33.0009 50.5666C33.5715 50.5666 34.0342 51.0293 34.0342 51.5999C34.0342 52.1706 33.5716 52.6332 33.0009 52.6332Z" fill="#428DFF"/>
</svg>
