<svg width="1332" height="1332" viewBox="0 0 1332 1332" fill="none" xmlns="http://www.w3.org/2000/svg">
<rect width="1332" height="1332" fill="url(#paint0_radial_3007_1114)"/>
<g filter="url(#filter0_d_3007_1114)">
<rect x="104" y="488" width="631" height="132" rx="40" fill="white" shape-rendering="crispEdges"/>
<path d="M199.688 544.449H189.063C188.76 542.706 188.201 541.163 187.387 539.818C186.573 538.455 185.559 537.299 184.347 536.352C183.135 535.405 181.753 534.695 180.2 534.222C178.665 533.729 177.008 533.483 175.228 533.483C172.065 533.483 169.262 534.278 166.819 535.869C164.376 537.441 162.463 539.752 161.08 542.801C159.698 545.831 159.006 549.534 159.006 553.909C159.006 558.36 159.698 562.11 161.08 565.159C162.482 568.189 164.395 570.481 166.819 572.034C169.262 573.568 172.056 574.335 175.2 574.335C176.942 574.335 178.571 574.108 180.086 573.653C181.62 573.18 182.993 572.489 184.205 571.58C185.436 570.67 186.469 569.553 187.302 568.227C188.154 566.902 188.741 565.386 189.063 563.682L199.688 563.739C199.29 566.504 198.429 569.098 197.103 571.523C195.796 573.947 194.082 576.087 191.961 577.943C189.84 579.78 187.359 581.22 184.518 582.261C181.677 583.284 178.523 583.795 175.058 583.795C169.944 583.795 165.379 582.612 161.364 580.244C157.349 577.877 154.186 574.458 151.876 569.989C149.565 565.519 148.41 560.159 148.41 553.909C148.41 547.64 149.575 542.28 151.904 537.83C154.234 533.36 157.406 529.941 161.421 527.574C165.436 525.206 169.982 524.023 175.058 524.023C178.296 524.023 181.308 524.477 184.092 525.386C186.876 526.295 189.357 527.631 191.535 529.392C193.713 531.134 195.503 533.275 196.904 535.812C198.325 538.331 199.253 541.21 199.688 544.449ZM215.668 599.364C214.267 599.364 212.969 599.25 211.776 599.023C210.602 598.814 209.665 598.568 208.964 598.284L211.35 590.273C212.846 590.708 214.182 590.917 215.356 590.898C216.53 590.879 217.562 590.509 218.452 589.79C219.362 589.089 220.129 587.915 220.754 586.267L221.634 583.909L205.81 539.364H216.719L226.776 572.318H227.231L237.316 539.364H248.254L230.782 588.284C229.968 590.595 228.888 592.574 227.543 594.222C226.199 595.888 224.551 597.157 222.6 598.028C220.668 598.919 218.358 599.364 215.668 599.364ZM255.825 583V524.818H266.109V546.58H266.535C267.065 545.519 267.813 544.392 268.779 543.199C269.745 541.987 271.052 540.955 272.7 540.102C274.347 539.231 276.45 538.795 279.006 538.795C282.378 538.795 285.417 539.657 288.126 541.381C290.853 543.085 293.012 545.614 294.603 548.966C296.213 552.299 297.018 556.39 297.018 561.239C297.018 566.03 296.232 570.102 294.66 573.455C293.088 576.807 290.948 579.364 288.239 581.125C285.531 582.886 282.463 583.767 279.035 583.767C276.535 583.767 274.461 583.35 272.813 582.517C271.165 581.684 269.84 580.68 268.836 579.506C267.851 578.312 267.084 577.186 266.535 576.125H265.938V583H255.825ZM265.91 561.182C265.91 564.004 266.308 566.475 267.103 568.597C267.917 570.718 269.082 572.375 270.597 573.568C272.131 574.742 273.987 575.33 276.165 575.33C278.438 575.33 280.342 574.723 281.876 573.511C283.41 572.28 284.565 570.604 285.342 568.483C286.137 566.343 286.535 563.909 286.535 561.182C286.535 558.473 286.147 556.068 285.37 553.966C284.594 551.864 283.438 550.216 281.904 549.023C280.37 547.83 278.457 547.233 276.165 547.233C273.969 547.233 272.103 547.811 270.569 548.966C269.035 550.121 267.87 551.741 267.075 553.824C266.298 555.907 265.91 558.36 265.91 561.182ZM325.079 583.852C320.704 583.852 316.925 582.943 313.744 581.125C310.581 579.288 308.147 576.693 306.442 573.341C304.738 569.97 303.886 566.002 303.886 561.438C303.886 556.949 304.738 553.009 306.442 549.619C308.166 546.21 310.571 543.559 313.658 541.665C316.746 539.752 320.372 538.795 324.539 538.795C327.228 538.795 329.766 539.231 332.153 540.102C334.558 540.955 336.679 542.28 338.516 544.08C340.372 545.879 341.831 548.17 342.891 550.955C343.952 553.72 344.482 557.015 344.482 560.841V563.994H308.715V557.062H334.624C334.605 555.093 334.179 553.341 333.346 551.807C332.513 550.254 331.348 549.032 329.852 548.142C328.374 547.252 326.651 546.807 324.681 546.807C322.579 546.807 320.732 547.318 319.141 548.341C317.55 549.345 316.31 550.67 315.42 552.318C314.549 553.947 314.103 555.737 314.085 557.688V563.739C314.085 566.277 314.549 568.455 315.477 570.273C316.405 572.072 317.702 573.455 319.369 574.42C321.035 575.367 322.986 575.841 325.221 575.841C326.717 575.841 328.071 575.633 329.283 575.216C330.496 574.78 331.547 574.146 332.437 573.312C333.327 572.479 333.999 571.447 334.454 570.216L344.056 571.295C343.45 573.833 342.295 576.049 340.59 577.943C338.905 579.818 336.746 581.277 334.113 582.318C331.48 583.341 328.469 583.852 325.079 583.852ZM353.183 583V539.364H363.154V546.636H363.609C364.404 544.117 365.768 542.176 367.7 540.812C369.65 539.43 371.876 538.739 374.376 538.739C374.944 538.739 375.578 538.767 376.279 538.824C376.999 538.862 377.595 538.928 378.069 539.023V548.483C377.633 548.331 376.942 548.199 375.995 548.085C375.067 547.953 374.167 547.886 373.296 547.886C371.421 547.886 369.736 548.294 368.239 549.108C366.762 549.903 365.597 551.011 364.745 552.432C363.893 553.852 363.467 555.491 363.467 557.347V583H353.183ZM419.39 550.898L410.015 551.92C409.75 550.973 409.286 550.083 408.623 549.25C407.979 548.417 407.108 547.744 406.009 547.233C404.911 546.722 403.566 546.466 401.975 546.466C399.835 546.466 398.036 546.93 396.577 547.858C395.138 548.786 394.428 549.989 394.447 551.466C394.428 552.735 394.892 553.767 395.839 554.562C396.805 555.358 398.396 556.011 400.612 556.523L408.055 558.114C412.183 559.004 415.252 560.415 417.259 562.347C419.286 564.278 420.308 566.807 420.327 569.932C420.308 572.678 419.504 575.102 417.913 577.205C416.341 579.288 414.153 580.917 411.35 582.091C408.547 583.265 405.327 583.852 401.691 583.852C396.35 583.852 392.051 582.735 388.793 580.5C385.536 578.246 383.594 575.112 382.969 571.097L392.998 570.131C393.452 572.1 394.418 573.587 395.896 574.591C397.373 575.595 399.295 576.097 401.663 576.097C404.106 576.097 406.066 575.595 407.543 574.591C409.04 573.587 409.788 572.347 409.788 570.869C409.788 569.619 409.305 568.587 408.339 567.773C407.392 566.958 405.915 566.333 403.907 565.898L396.464 564.335C392.278 563.464 389.182 561.996 387.174 559.932C385.166 557.848 384.172 555.216 384.191 552.034C384.172 549.345 384.901 547.015 386.379 545.045C387.875 543.057 389.949 541.523 392.6 540.443C395.271 539.345 398.348 538.795 401.833 538.795C406.947 538.795 410.971 539.884 413.907 542.062C416.862 544.241 418.689 547.186 419.39 550.898ZM448.126 583.852C443.751 583.852 439.972 582.943 436.79 581.125C433.628 579.288 431.194 576.693 429.489 573.341C427.785 569.97 426.933 566.002 426.933 561.438C426.933 556.949 427.785 553.009 429.489 549.619C431.213 546.21 433.618 543.559 436.705 541.665C439.792 539.752 443.419 538.795 447.586 538.795C450.275 538.795 452.813 539.231 455.2 540.102C457.605 540.955 459.726 542.28 461.563 544.08C463.419 545.879 464.878 548.17 465.938 550.955C466.999 553.72 467.529 557.015 467.529 560.841V563.994H431.762V557.062H457.671C457.652 555.093 457.226 553.341 456.393 551.807C455.559 550.254 454.395 549.032 452.898 548.142C451.421 547.252 449.698 546.807 447.728 546.807C445.626 546.807 443.779 547.318 442.188 548.341C440.597 549.345 439.357 550.67 438.467 552.318C437.595 553.947 437.15 555.737 437.131 557.688V563.739C437.131 566.277 437.595 568.455 438.523 570.273C439.451 572.072 440.749 573.455 442.415 574.42C444.082 575.367 446.033 575.841 448.268 575.841C449.764 575.841 451.118 575.633 452.33 575.216C453.542 574.78 454.594 574.146 455.484 573.312C456.374 572.479 457.046 571.447 457.501 570.216L467.103 571.295C466.497 573.833 465.342 576.049 463.637 577.943C461.951 579.818 459.792 581.277 457.16 582.318C454.527 583.341 451.516 583.852 448.126 583.852ZM495.263 583.852C490.907 583.852 487.167 582.896 484.042 580.983C480.936 579.07 478.54 576.428 476.854 573.057C475.188 569.667 474.354 565.765 474.354 561.352C474.354 556.92 475.207 553.009 476.911 549.619C478.616 546.21 481.021 543.559 484.127 541.665C487.252 539.752 490.945 538.795 495.207 538.795C498.748 538.795 501.883 539.449 504.61 540.756C507.356 542.044 509.544 543.871 511.173 546.239C512.801 548.587 513.729 551.333 513.957 554.477H504.127C503.729 552.375 502.782 550.623 501.286 549.222C499.809 547.801 497.83 547.091 495.349 547.091C493.246 547.091 491.4 547.659 489.809 548.795C488.218 549.913 486.978 551.523 486.087 553.625C485.216 555.727 484.781 558.246 484.781 561.182C484.781 564.155 485.216 566.712 486.087 568.852C486.959 570.973 488.18 572.612 489.752 573.767C491.343 574.903 493.209 575.472 495.349 575.472C496.864 575.472 498.218 575.187 499.411 574.619C500.623 574.032 501.637 573.189 502.451 572.091C503.265 570.992 503.824 569.657 504.127 568.085H513.957C513.71 571.172 512.801 573.909 511.229 576.295C509.657 578.663 507.517 580.519 504.809 581.864C502.101 583.189 498.919 583.852 495.263 583.852ZM550.214 564.648V539.364H560.498V583H550.526V575.244H550.072C549.087 577.687 547.468 579.686 545.214 581.239C542.979 582.792 540.223 583.568 536.947 583.568C534.087 583.568 531.558 582.934 529.362 581.665C527.183 580.377 525.479 578.511 524.248 576.068C523.017 573.606 522.401 570.633 522.401 567.148V539.364H532.685V565.557C532.685 568.322 533.443 570.519 534.958 572.148C536.473 573.777 538.462 574.591 540.924 574.591C542.439 574.591 543.907 574.222 545.327 573.483C546.748 572.744 547.913 571.646 548.822 570.188C549.75 568.71 550.214 566.864 550.214 564.648ZM571.073 583V539.364H581.045V546.636H581.499C582.295 544.117 583.658 542.176 585.59 540.812C587.541 539.43 589.766 538.739 592.266 538.739C592.835 538.739 593.469 538.767 594.17 538.824C594.889 538.862 595.486 538.928 595.96 539.023V548.483C595.524 548.331 594.833 548.199 593.886 548.085C592.958 547.953 592.058 547.886 591.187 547.886C589.312 547.886 587.626 548.294 586.13 549.108C584.653 549.903 583.488 551.011 582.636 552.432C581.783 553.852 581.357 555.491 581.357 557.347V583H571.073ZM602.792 583V539.364H613.076V583H602.792ZM607.962 533.17C606.334 533.17 604.932 532.631 603.758 531.551C602.584 530.453 601.996 529.136 601.996 527.602C601.996 526.049 602.584 524.733 603.758 523.653C604.932 522.555 606.334 522.006 607.962 522.006C609.61 522.006 611.012 522.555 612.167 523.653C613.341 524.733 613.928 526.049 613.928 527.602C613.928 529.136 613.341 530.453 612.167 531.551C611.012 532.631 609.61 533.17 607.962 533.17ZM645.441 539.364V547.318H620.356V539.364H645.441ZM626.549 528.909H636.833V569.875C636.833 571.258 637.041 572.318 637.458 573.057C637.894 573.777 638.462 574.269 639.163 574.534C639.863 574.799 640.64 574.932 641.492 574.932C642.136 574.932 642.723 574.884 643.254 574.79C643.803 574.695 644.219 574.61 644.504 574.534L646.237 582.574C645.687 582.763 644.901 582.972 643.879 583.199C642.875 583.426 641.644 583.559 640.185 583.597C637.61 583.672 635.29 583.284 633.225 582.432C631.161 581.561 629.522 580.216 628.31 578.398C627.117 576.58 626.53 574.307 626.549 571.58V528.909ZM660.434 599.364C659.032 599.364 657.735 599.25 656.542 599.023C655.368 598.814 654.43 598.568 653.729 598.284L656.116 590.273C657.612 590.708 658.947 590.917 660.121 590.898C661.296 590.879 662.328 590.509 663.218 589.79C664.127 589.089 664.894 587.915 665.519 586.267L666.4 583.909L650.576 539.364H661.485L671.542 572.318H671.996L682.082 539.364H693.019L675.548 588.284C674.733 590.595 673.654 592.574 672.309 594.222C670.964 595.888 669.317 597.157 667.366 598.028C665.434 598.919 663.123 599.364 660.434 599.364Z" fill="#428DFF"/>
</g>
<path d="M126.636 267H106.182L129.227 197.182H155.136L178.182 267H157.727L142.455 216.409H141.909L126.636 267ZM122.818 239.455H161.273V253.636H122.818V239.455ZM188.059 286.636V214.636H206.741V223.773H207.15C207.832 222 208.832 220.375 210.15 218.898C211.468 217.398 213.104 216.205 215.059 215.318C217.014 214.409 219.286 213.955 221.877 213.955C225.332 213.955 228.616 214.875 231.729 216.716C234.866 218.557 237.411 221.455 239.366 225.409C241.343 229.364 242.332 234.5 242.332 240.818C242.332 246.864 241.389 251.875 239.502 255.852C237.639 259.83 235.139 262.795 232.002 264.75C228.889 266.705 225.468 267.682 221.741 267.682C219.286 267.682 217.093 267.284 215.161 266.489C213.252 265.67 211.616 264.568 210.252 263.182C208.911 261.773 207.877 260.182 207.15 258.409H206.877V286.636H188.059ZM206.468 240.818C206.468 243.364 206.798 245.568 207.457 247.432C208.139 249.273 209.093 250.705 210.32 251.727C211.57 252.727 213.059 253.227 214.786 253.227C216.514 253.227 217.979 252.739 219.184 251.761C220.411 250.761 221.343 249.341 221.979 247.5C222.639 245.636 222.968 243.409 222.968 240.818C222.968 238.227 222.639 236.011 221.979 234.17C221.343 232.307 220.411 230.886 219.184 229.909C217.979 228.909 216.514 228.409 214.786 228.409C213.059 228.409 211.57 228.909 210.32 229.909C209.093 230.886 208.139 232.307 207.457 234.17C206.798 236.011 206.468 238.227 206.468 240.818ZM253.095 286.636V214.636H271.777V223.773H272.186C272.868 222 273.868 220.375 275.186 218.898C276.504 217.398 278.141 216.205 280.095 215.318C282.05 214.409 284.322 213.955 286.913 213.955C290.368 213.955 293.652 214.875 296.766 216.716C299.902 218.557 302.447 221.455 304.402 225.409C306.379 229.364 307.368 234.5 307.368 240.818C307.368 246.864 306.425 251.875 304.538 255.852C302.675 259.83 300.175 262.795 297.038 264.75C293.925 266.705 290.504 267.682 286.777 267.682C284.322 267.682 282.129 267.284 280.197 266.489C278.288 265.67 276.652 264.568 275.288 263.182C273.947 261.773 272.913 260.182 272.186 258.409H271.913V286.636H253.095ZM271.504 240.818C271.504 243.364 271.834 245.568 272.493 247.432C273.175 249.273 274.129 250.705 275.357 251.727C276.607 252.727 278.095 253.227 279.822 253.227C281.55 253.227 283.016 252.739 284.22 251.761C285.447 250.761 286.379 249.341 287.016 247.5C287.675 245.636 288.004 243.409 288.004 240.818C288.004 238.227 287.675 236.011 287.016 234.17C286.379 232.307 285.447 230.886 284.22 229.909C283.016 228.909 281.55 228.409 279.822 228.409C278.095 228.409 276.607 228.909 275.357 229.909C274.129 230.886 273.175 232.307 272.493 234.17C271.834 236.011 271.504 238.227 271.504 240.818ZM355.495 219C355.313 216.727 354.461 214.955 352.938 213.682C351.438 212.409 349.154 211.773 346.086 211.773C344.131 211.773 342.529 212.011 341.279 212.489C340.052 212.943 339.143 213.568 338.552 214.364C337.961 215.159 337.654 216.068 337.631 217.091C337.586 217.932 337.734 218.693 338.075 219.375C338.438 220.034 339.006 220.636 339.779 221.182C340.552 221.705 341.541 222.182 342.745 222.614C343.95 223.045 345.381 223.432 347.041 223.773L352.768 225C356.631 225.818 359.938 226.898 362.688 228.239C365.438 229.58 367.688 231.159 369.438 232.977C371.188 234.773 372.472 236.795 373.291 239.045C374.131 241.295 374.563 243.75 374.586 246.409C374.563 251 373.416 254.886 371.143 258.068C368.87 261.25 365.62 263.67 361.393 265.33C357.188 266.989 352.131 267.818 346.222 267.818C340.154 267.818 334.859 266.92 330.336 265.125C325.836 263.33 322.336 260.568 319.836 256.841C317.359 253.091 316.109 248.295 316.086 242.455H334.086C334.2 244.591 334.734 246.386 335.688 247.841C336.643 249.295 337.984 250.398 339.711 251.148C341.461 251.898 343.541 252.273 345.95 252.273C347.972 252.273 349.666 252.023 351.029 251.523C352.393 251.023 353.427 250.33 354.131 249.443C354.836 248.557 355.2 247.545 355.222 246.409C355.2 245.341 354.847 244.409 354.166 243.614C353.506 242.795 352.416 242.068 350.893 241.432C349.37 240.773 347.313 240.159 344.722 239.591L337.768 238.091C331.586 236.75 326.711 234.511 323.143 231.375C319.597 228.216 317.836 223.909 317.859 218.455C317.836 214.023 319.018 210.148 321.404 206.83C323.813 203.489 327.143 200.886 331.393 199.023C335.666 197.159 340.563 196.227 346.086 196.227C351.722 196.227 356.597 197.17 360.711 199.057C364.825 200.943 367.995 203.602 370.222 207.034C372.472 210.443 373.609 214.432 373.631 219H355.495ZM410.04 267.955C404.449 267.955 399.631 266.886 395.585 264.75C391.563 262.591 388.46 259.5 386.279 255.477C384.119 251.432 383.04 246.591 383.04 240.955C383.04 235.545 384.131 230.818 386.313 226.773C388.494 222.727 391.574 219.58 395.551 217.33C399.529 215.08 404.222 213.955 409.631 213.955C413.585 213.955 417.165 214.568 420.369 215.795C423.574 217.023 426.313 218.807 428.585 221.148C430.858 223.466 432.608 226.284 433.835 229.602C435.063 232.92 435.676 236.659 435.676 240.818V245.182H388.904V234.818H418.358C418.335 233.318 417.949 232 417.199 230.864C416.472 229.705 415.483 228.807 414.233 228.17C413.006 227.511 411.608 227.182 410.04 227.182C408.517 227.182 407.119 227.511 405.847 228.17C404.574 228.807 403.551 229.693 402.779 230.83C402.029 231.966 401.631 233.295 401.585 234.818V246C401.585 247.682 401.938 249.182 402.642 250.5C403.347 251.818 404.358 252.852 405.676 253.602C406.994 254.352 408.585 254.727 410.449 254.727C411.744 254.727 412.926 254.545 413.994 254.182C415.085 253.818 416.017 253.295 416.79 252.614C417.563 251.909 418.131 251.068 418.494 250.091H435.676C435.085 253.727 433.688 256.886 431.483 259.568C429.279 262.227 426.358 264.295 422.722 265.773C419.108 267.227 414.881 267.955 410.04 267.955ZM471.462 267.955C465.781 267.955 460.917 266.83 456.872 264.58C452.826 262.307 449.724 259.148 447.565 255.102C445.406 251.034 444.326 246.318 444.326 240.955C444.326 235.591 445.406 230.886 447.565 226.841C449.724 222.773 452.826 219.614 456.872 217.364C460.917 215.091 465.781 213.955 471.462 213.955C476.599 213.955 481.042 214.886 484.792 216.75C488.565 218.591 491.485 221.205 493.553 224.591C495.622 227.955 496.667 231.909 496.69 236.455H479.235C478.985 233.705 478.19 231.614 476.849 230.182C475.531 228.727 473.826 228 471.735 228C470.099 228 468.667 228.477 467.44 229.432C466.212 230.364 465.258 231.784 464.576 233.693C463.894 235.58 463.553 237.955 463.553 240.818C463.553 243.682 463.894 246.068 464.576 247.977C465.258 249.864 466.212 251.284 467.44 252.239C468.667 253.17 470.099 253.636 471.735 253.636C473.122 253.636 474.349 253.318 475.417 252.682C476.485 252.023 477.349 251.068 478.008 249.818C478.69 248.545 479.099 247 479.235 245.182H496.69C496.622 249.795 495.565 253.818 493.519 257.25C491.474 260.659 488.576 263.295 484.826 265.159C481.099 267.023 476.644 267.955 471.462 267.955ZM527.157 212.455V197.182H587.839V212.455H566.839V267H548.157V212.455H527.157ZM615.759 267.955C610.077 267.955 605.213 266.83 601.168 264.58C597.122 262.307 594.02 259.148 591.861 255.102C589.702 251.034 588.622 246.318 588.622 240.955C588.622 235.591 589.702 230.886 591.861 226.841C594.02 222.773 597.122 219.614 601.168 217.364C605.213 215.091 610.077 213.955 615.759 213.955C621.441 213.955 626.304 215.091 630.35 217.364C634.395 219.614 637.497 222.773 639.656 226.841C641.816 230.886 642.895 235.591 642.895 240.955C642.895 246.318 641.816 251.034 639.656 255.102C637.497 259.148 634.395 262.307 630.35 264.58C626.304 266.83 621.441 267.955 615.759 267.955ZM615.895 254.045C617.486 254.045 618.861 253.511 620.02 252.443C621.179 251.375 622.077 249.852 622.713 247.875C623.35 245.898 623.668 243.545 623.668 240.818C623.668 238.068 623.35 235.716 622.713 233.761C622.077 231.784 621.179 230.261 620.02 229.193C618.861 228.125 617.486 227.591 615.895 227.591C614.213 227.591 612.77 228.125 611.566 229.193C610.361 230.261 609.441 231.784 608.804 233.761C608.168 235.716 607.85 238.068 607.85 240.818C607.85 243.545 608.168 245.898 608.804 247.875C609.441 249.852 610.361 251.375 611.566 252.443C612.77 253.511 614.213 254.045 615.895 254.045ZM678.639 267.955C672.957 267.955 668.093 266.83 664.048 264.58C660.002 262.307 656.9 259.148 654.741 255.102C652.582 251.034 651.502 246.318 651.502 240.955C651.502 235.591 652.582 230.886 654.741 226.841C656.9 222.773 660.002 219.614 664.048 217.364C668.093 215.091 672.957 213.955 678.639 213.955C684.321 213.955 689.184 215.091 693.23 217.364C697.275 219.614 700.377 222.773 702.536 226.841C704.696 230.886 705.775 235.591 705.775 240.955C705.775 246.318 704.696 251.034 702.536 255.102C700.377 259.148 697.275 262.307 693.23 264.58C689.184 266.83 684.321 267.955 678.639 267.955ZM678.775 254.045C680.366 254.045 681.741 253.511 682.9 252.443C684.059 251.375 684.957 249.852 685.593 247.875C686.23 245.898 686.548 243.545 686.548 240.818C686.548 238.068 686.23 235.716 685.593 233.761C684.957 231.784 684.059 230.261 682.9 229.193C681.741 228.125 680.366 227.591 678.775 227.591C677.093 227.591 675.65 228.125 674.446 229.193C673.241 230.261 672.321 231.784 671.684 233.761C671.048 235.716 670.73 238.068 670.73 240.818C670.73 243.545 671.048 245.898 671.684 247.875C672.321 249.852 673.241 251.375 674.446 252.443C675.65 253.511 677.093 254.045 678.775 254.045ZM735.11 197.182V267H716.291V197.182H735.11ZM795.441 231.682H778.123C778.032 230.614 777.657 229.693 776.998 228.92C776.339 228.148 775.487 227.557 774.441 227.148C773.419 226.716 772.282 226.5 771.032 226.5C769.419 226.5 768.032 226.795 766.873 227.386C765.714 227.977 765.146 228.818 765.169 229.909C765.146 230.682 765.475 231.398 766.157 232.057C766.862 232.716 768.214 233.227 770.214 233.591L780.85 235.5C786.214 236.477 790.203 238.125 792.816 240.443C795.453 242.739 796.782 245.818 796.805 249.682C796.782 253.409 795.669 256.648 793.464 259.398C791.282 262.125 788.294 264.239 784.498 265.739C780.725 267.216 776.419 267.955 771.578 267.955C763.578 267.955 757.316 266.318 752.794 263.045C748.294 259.773 745.782 255.455 745.26 250.091H763.941C764.191 251.75 765.01 253.034 766.396 253.943C767.805 254.83 769.578 255.273 771.714 255.273C773.441 255.273 774.862 254.977 775.975 254.386C777.112 253.795 777.691 252.955 777.714 251.864C777.691 250.864 777.191 250.068 776.214 249.477C775.26 248.886 773.76 248.409 771.714 248.045L762.441 246.409C757.1 245.477 753.1 243.705 750.441 241.091C747.782 238.477 746.464 235.114 746.487 231C746.464 227.364 747.419 224.284 749.35 221.761C751.305 219.216 754.089 217.284 757.703 215.966C761.339 214.625 765.646 213.955 770.623 213.955C778.191 213.955 784.157 215.523 788.521 218.659C792.907 221.795 795.214 226.136 795.441 231.682ZM843.491 267.818C840.15 267.818 837.196 267.273 834.628 266.182C832.082 265.068 830.082 263.386 828.628 261.136C827.173 258.886 826.446 256.023 826.446 252.545C826.446 249.682 826.934 247.239 827.912 245.216C828.889 243.17 830.253 241.5 832.003 240.205C833.753 238.909 835.787 237.92 838.105 237.239C840.446 236.557 842.968 236.114 845.673 235.909C848.605 235.682 850.957 235.409 852.73 235.091C854.525 234.75 855.821 234.284 856.616 233.693C857.412 233.08 857.809 232.273 857.809 231.273V231.136C857.809 229.773 857.287 228.727 856.241 228C855.196 227.273 853.855 226.909 852.218 226.909C850.423 226.909 848.957 227.307 847.821 228.102C846.707 228.875 846.037 230.068 845.809 231.682H828.491C828.718 228.5 829.73 225.568 831.525 222.886C833.343 220.182 835.991 218.023 839.468 216.409C842.946 214.773 847.287 213.955 852.491 213.955C856.241 213.955 859.605 214.398 862.582 215.284C865.559 216.148 868.093 217.364 870.184 218.932C872.275 220.477 873.866 222.295 874.957 224.386C876.071 226.455 876.628 228.705 876.628 231.136V267H859.037V259.636H858.628C857.582 261.591 856.309 263.17 854.809 264.375C853.332 265.58 851.639 266.455 849.73 267C847.843 267.545 845.764 267.818 843.491 267.818ZM849.628 255.955C851.059 255.955 852.4 255.659 853.65 255.068C854.923 254.477 855.957 253.625 856.753 252.511C857.548 251.398 857.946 250.045 857.946 248.455V244.091C857.446 244.295 856.912 244.489 856.343 244.67C855.798 244.852 855.207 245.023 854.571 245.182C853.957 245.341 853.298 245.489 852.593 245.625C851.912 245.761 851.196 245.886 850.446 246C848.991 246.227 847.798 246.602 846.866 247.125C845.957 247.625 845.275 248.25 844.821 249C844.389 249.727 844.173 250.545 844.173 251.455C844.173 252.909 844.684 254.023 845.707 254.795C846.73 255.568 848.037 255.955 849.628 255.955ZM907.317 237.545V267H888.499V214.636H906.363V224.591H906.908C908.044 221.273 910.044 218.67 912.908 216.784C915.794 214.898 919.158 213.955 922.999 213.955C926.704 213.955 929.919 214.807 932.647 216.511C935.397 218.193 937.522 220.511 939.022 223.466C940.544 226.42 941.294 229.795 941.272 233.591V267H922.454V237.545C922.476 234.955 921.817 232.92 920.476 231.443C919.158 229.966 917.317 229.227 914.954 229.227C913.408 229.227 912.056 229.568 910.897 230.25C909.76 230.909 908.885 231.864 908.272 233.114C907.658 234.341 907.34 235.818 907.317 237.545ZM972.396 267.682C968.669 267.682 965.237 266.705 962.101 264.75C958.987 262.795 956.487 259.83 954.601 255.852C952.737 251.875 951.805 246.864 951.805 240.818C951.805 234.5 952.782 229.364 954.737 225.409C956.714 221.455 959.26 218.557 962.373 216.716C965.51 214.875 968.805 213.955 972.26 213.955C974.851 213.955 977.123 214.409 979.078 215.318C981.032 216.205 982.669 217.398 983.987 218.898C985.305 220.375 986.305 222 986.987 223.773H987.26V197.182H1006.08V267H987.396V258.409H986.987C986.26 260.182 985.214 261.773 983.851 263.182C982.51 264.568 980.873 265.67 978.941 266.489C977.032 267.284 974.851 267.682 972.396 267.682ZM979.351 253.227C981.078 253.227 982.555 252.727 983.782 251.727C985.032 250.705 985.987 249.273 986.646 247.432C987.328 245.568 987.669 243.364 987.669 240.818C987.669 238.227 987.328 236.011 986.646 234.17C985.987 232.307 985.032 230.886 983.782 229.909C982.555 228.909 981.078 228.409 979.351 228.409C977.623 228.409 976.146 228.909 974.919 229.909C973.714 230.886 972.782 232.307 972.123 234.17C971.487 236.011 971.169 238.227 971.169 240.818C971.169 243.409 971.487 245.636 972.123 247.5C972.782 249.341 973.714 250.761 974.919 251.761C976.146 252.739 977.623 253.227 979.351 253.227ZM108.5 387V317.182H138.773C144.091 317.182 148.557 317.898 152.17 319.33C155.807 320.761 158.545 322.784 160.386 325.398C162.25 328.011 163.182 331.091 163.182 334.636C163.182 337.205 162.614 339.545 161.477 341.659C160.364 343.773 158.795 345.545 156.773 346.977C154.75 348.386 152.386 349.364 149.682 349.909V350.591C152.682 350.705 155.409 351.466 157.864 352.875C160.318 354.261 162.273 356.182 163.727 358.636C165.182 361.068 165.909 363.932 165.909 367.227C165.909 371.045 164.909 374.443 162.909 377.42C160.932 380.398 158.114 382.739 154.455 384.443C150.795 386.148 146.432 387 141.364 387H108.5ZM127.455 371.864H136.318C139.5 371.864 141.886 371.273 143.477 370.091C145.068 368.886 145.864 367.114 145.864 364.773C145.864 363.136 145.489 361.75 144.739 360.614C143.989 359.477 142.92 358.614 141.534 358.023C140.17 357.432 138.523 357.136 136.591 357.136H127.455V371.864ZM127.455 345.409H135.227C136.886 345.409 138.352 345.148 139.625 344.625C140.898 344.102 141.886 343.352 142.591 342.375C143.318 341.375 143.682 340.159 143.682 338.727C143.682 336.568 142.909 334.92 141.364 333.784C139.818 332.625 137.864 332.045 135.5 332.045H127.455V345.409ZM200.869 387.955C195.278 387.955 190.46 386.886 186.414 384.75C182.391 382.591 179.289 379.5 177.107 375.477C174.948 371.432 173.869 366.591 173.869 360.955C173.869 355.545 174.96 350.818 177.141 346.773C179.323 342.727 182.403 339.58 186.38 337.33C190.357 335.08 195.05 333.955 200.46 333.955C204.414 333.955 207.994 334.568 211.198 335.795C214.403 337.023 217.141 338.807 219.414 341.148C221.687 343.466 223.437 346.284 224.664 349.602C225.891 352.92 226.505 356.659 226.505 360.818V365.182H179.732V354.818H209.187C209.164 353.318 208.778 352 208.028 350.864C207.3 349.705 206.312 348.807 205.062 348.17C203.835 347.511 202.437 347.182 200.869 347.182C199.346 347.182 197.948 347.511 196.675 348.17C195.403 348.807 194.38 349.693 193.607 350.83C192.857 351.966 192.46 353.295 192.414 354.818V366C192.414 367.682 192.766 369.182 193.471 370.5C194.175 371.818 195.187 372.852 196.505 373.602C197.823 374.352 199.414 374.727 201.278 374.727C202.573 374.727 203.755 374.545 204.823 374.182C205.914 373.818 206.846 373.295 207.619 372.614C208.391 371.909 208.96 371.068 209.323 370.091H226.505C225.914 373.727 224.516 376.886 222.312 379.568C220.107 382.227 217.187 384.295 213.55 385.773C209.937 387.227 205.71 387.955 200.869 387.955ZM284.928 351.682H267.609C267.519 350.614 267.144 349.693 266.484 348.92C265.825 348.148 264.973 347.557 263.928 347.148C262.905 346.716 261.769 346.5 260.519 346.5C258.905 346.5 257.519 346.795 256.359 347.386C255.2 347.977 254.632 348.818 254.655 349.909C254.632 350.682 254.962 351.398 255.644 352.057C256.348 352.716 257.7 353.227 259.7 353.591L270.337 355.5C275.7 356.477 279.689 358.125 282.303 360.443C284.939 362.739 286.269 365.818 286.291 369.682C286.269 373.409 285.155 376.648 282.95 379.398C280.769 382.125 277.78 384.239 273.984 385.739C270.212 387.216 265.905 387.955 261.064 387.955C253.064 387.955 246.803 386.318 242.28 383.045C237.78 379.773 235.269 375.455 234.746 370.091H253.428C253.678 371.75 254.496 373.034 255.882 373.943C257.291 374.83 259.064 375.273 261.2 375.273C262.928 375.273 264.348 374.977 265.462 374.386C266.598 373.795 267.178 372.955 267.2 371.864C267.178 370.864 266.678 370.068 265.7 369.477C264.746 368.886 263.246 368.409 261.2 368.045L251.928 366.409C246.587 365.477 242.587 363.705 239.928 361.091C237.269 358.477 235.95 355.114 235.973 351C235.95 347.364 236.905 344.284 238.837 341.761C240.791 339.216 243.575 337.284 247.189 335.966C250.825 334.625 255.132 333.955 260.109 333.955C267.678 333.955 273.644 335.523 278.007 338.659C282.394 341.795 284.7 346.136 284.928 351.682ZM327.609 334.636V348.273H293.109V334.636H327.609ZM299.791 322.091H318.609V370.159C318.609 370.886 318.734 371.5 318.984 372C319.234 372.477 319.62 372.841 320.143 373.091C320.666 373.318 321.336 373.432 322.154 373.432C322.722 373.432 323.381 373.364 324.131 373.227C324.904 373.091 325.472 372.977 325.836 372.886L328.563 386.114C327.722 386.364 326.518 386.67 324.95 387.034C323.404 387.398 321.563 387.636 319.427 387.75C315.109 387.977 311.484 387.534 308.552 386.42C305.62 385.284 303.416 383.5 301.938 381.068C300.461 378.636 299.745 375.591 299.791 371.932V322.091ZM359.9 387V317.182H390.036C395.218 317.182 399.752 318.205 403.639 320.25C407.525 322.295 410.548 325.17 412.707 328.875C414.866 332.58 415.945 336.909 415.945 341.864C415.945 346.864 414.832 351.193 412.605 354.852C410.4 358.511 407.298 361.33 403.298 363.307C399.32 365.284 394.673 366.273 389.355 366.273H371.355V351.545H385.536C387.764 351.545 389.661 351.159 391.23 350.386C392.82 349.591 394.036 348.466 394.877 347.011C395.741 345.557 396.173 343.841 396.173 341.864C396.173 339.864 395.741 338.159 394.877 336.75C394.036 335.318 392.82 334.227 391.23 333.477C389.661 332.705 387.764 332.318 385.536 332.318H378.855V387H359.9ZM426.053 387V334.636H444.325V344.591H444.871C445.825 340.909 447.337 338.216 449.405 336.511C451.496 334.807 453.939 333.955 456.735 333.955C457.553 333.955 458.36 334.023 459.155 334.159C459.973 334.273 460.757 334.443 461.507 334.67V350.727C460.575 350.409 459.428 350.17 458.064 350.011C456.7 349.852 455.53 349.773 454.553 349.773C452.712 349.773 451.053 350.193 449.575 351.034C448.121 351.852 446.973 353.011 446.132 354.511C445.291 355.989 444.871 357.727 444.871 359.727V387H426.053ZM482.711 387.818C479.37 387.818 476.416 387.273 473.848 386.182C471.302 385.068 469.302 383.386 467.848 381.136C466.393 378.886 465.666 376.023 465.666 372.545C465.666 369.682 466.154 367.239 467.132 365.216C468.109 363.17 469.473 361.5 471.223 360.205C472.973 358.909 475.007 357.92 477.325 357.239C479.666 356.557 482.188 356.114 484.893 355.909C487.825 355.682 490.177 355.409 491.95 355.091C493.745 354.75 495.041 354.284 495.836 353.693C496.632 353.08 497.029 352.273 497.029 351.273V351.136C497.029 349.773 496.507 348.727 495.461 348C494.416 347.273 493.075 346.909 491.438 346.909C489.643 346.909 488.177 347.307 487.041 348.102C485.927 348.875 485.257 350.068 485.029 351.682H467.711C467.938 348.5 468.95 345.568 470.745 342.886C472.563 340.182 475.211 338.023 478.688 336.409C482.166 334.773 486.507 333.955 491.711 333.955C495.461 333.955 498.825 334.398 501.802 335.284C504.779 336.148 507.313 337.364 509.404 338.932C511.495 340.477 513.086 342.295 514.177 344.386C515.291 346.455 515.848 348.705 515.848 351.136V387H498.257V379.636H497.848C496.802 381.591 495.529 383.17 494.029 384.375C492.552 385.58 490.859 386.455 488.95 387C487.063 387.545 484.984 387.818 482.711 387.818ZM488.848 375.955C490.279 375.955 491.62 375.659 492.87 375.068C494.143 374.477 495.177 373.625 495.973 372.511C496.768 371.398 497.166 370.045 497.166 368.455V364.091C496.666 364.295 496.132 364.489 495.563 364.67C495.018 364.852 494.427 365.023 493.791 365.182C493.177 365.341 492.518 365.489 491.813 365.625C491.132 365.761 490.416 365.886 489.666 366C488.211 366.227 487.018 366.602 486.086 367.125C485.177 367.625 484.495 368.25 484.041 369C483.609 369.727 483.393 370.545 483.393 371.455C483.393 372.909 483.904 374.023 484.927 374.795C485.95 375.568 487.257 375.955 488.848 375.955ZM552.946 387.955C547.264 387.955 542.401 386.83 538.355 384.58C534.31 382.307 531.208 379.148 529.049 375.102C526.889 371.034 525.81 366.318 525.81 360.955C525.81 355.591 526.889 350.886 529.049 346.841C531.208 342.773 534.31 339.614 538.355 337.364C542.401 335.091 547.264 333.955 552.946 333.955C558.083 333.955 562.526 334.886 566.276 336.75C570.049 338.591 572.969 341.205 575.037 344.591C577.105 347.955 578.151 351.909 578.174 356.455H560.719C560.469 353.705 559.674 351.614 558.333 350.182C557.014 348.727 555.31 348 553.219 348C551.583 348 550.151 348.477 548.924 349.432C547.696 350.364 546.742 351.784 546.06 353.693C545.378 355.58 545.037 357.955 545.037 360.818C545.037 363.682 545.378 366.068 546.06 367.977C546.742 369.864 547.696 371.284 548.924 372.239C550.151 373.17 551.583 373.636 553.219 373.636C554.605 373.636 555.833 373.318 556.901 372.682C557.969 372.023 558.833 371.068 559.492 369.818C560.174 368.545 560.583 367 560.719 365.182H578.174C578.105 369.795 577.049 373.818 575.003 377.25C572.958 380.659 570.06 383.295 566.31 385.159C562.583 387.023 558.128 387.955 552.946 387.955ZM620.045 334.636V348.273H585.545V334.636H620.045ZM592.227 322.091H611.045V370.159C611.045 370.886 611.17 371.5 611.42 372C611.67 372.477 612.056 372.841 612.579 373.091C613.102 373.318 613.772 373.432 614.59 373.432C615.159 373.432 615.818 373.364 616.568 373.227C617.34 373.091 617.909 372.977 618.272 372.886L621 386.114C620.159 386.364 618.954 386.67 617.386 387.034C615.84 387.398 614 387.636 611.863 387.75C607.545 387.977 603.92 387.534 600.988 386.42C598.056 385.284 595.852 383.5 594.375 381.068C592.897 378.636 592.181 375.591 592.227 371.932V322.091ZM630.604 387V334.636H649.422V387H630.604ZM640.013 329.182C637.468 329.182 635.286 328.341 633.468 326.659C631.649 324.977 630.74 322.955 630.74 320.591C630.74 318.227 631.649 316.205 633.468 314.523C635.286 312.841 637.468 312 640.013 312C642.581 312 644.763 312.841 646.559 314.523C648.377 316.205 649.286 318.227 649.286 320.591C649.286 322.955 648.377 324.977 646.559 326.659C644.763 328.341 642.581 329.182 640.013 329.182ZM687.117 387.955C681.436 387.955 676.572 386.83 672.527 384.58C668.481 382.307 665.379 379.148 663.22 375.102C661.061 371.034 659.981 366.318 659.981 360.955C659.981 355.591 661.061 350.886 663.22 346.841C665.379 342.773 668.481 339.614 672.527 337.364C676.572 335.091 681.436 333.955 687.117 333.955C692.254 333.955 696.697 334.886 700.447 336.75C704.22 338.591 707.14 341.205 709.208 344.591C711.277 347.955 712.322 351.909 712.345 356.455H694.89C694.64 353.705 693.845 351.614 692.504 350.182C691.186 348.727 689.481 348 687.39 348C685.754 348 684.322 348.477 683.095 349.432C681.867 350.364 680.913 351.784 680.231 353.693C679.549 355.58 679.208 357.955 679.208 360.818C679.208 363.682 679.549 366.068 680.231 367.977C680.913 369.864 681.867 371.284 683.095 372.239C684.322 373.17 685.754 373.636 687.39 373.636C688.777 373.636 690.004 373.318 691.072 372.682C692.14 372.023 693.004 371.068 693.663 369.818C694.345 368.545 694.754 367 694.89 365.182H712.345C712.277 369.795 711.22 373.818 709.174 377.25C707.129 380.659 704.231 383.295 700.481 385.159C696.754 387.023 692.299 387.955 687.117 387.955ZM748.08 387.955C742.489 387.955 737.671 386.886 733.625 384.75C729.603 382.591 726.5 379.5 724.319 375.477C722.159 371.432 721.08 366.591 721.08 360.955C721.08 355.545 722.171 350.818 724.353 346.773C726.534 342.727 729.614 339.58 733.591 337.33C737.569 335.08 742.262 333.955 747.671 333.955C751.625 333.955 755.205 334.568 758.409 335.795C761.614 337.023 764.353 338.807 766.625 341.148C768.898 343.466 770.648 346.284 771.875 349.602C773.103 352.92 773.716 356.659 773.716 360.818V365.182H726.944V354.818H756.398C756.375 353.318 755.989 352 755.239 350.864C754.512 349.705 753.523 348.807 752.273 348.17C751.046 347.511 749.648 347.182 748.08 347.182C746.557 347.182 745.159 347.511 743.887 348.17C742.614 348.807 741.591 349.693 740.819 350.83C740.069 351.966 739.671 353.295 739.625 354.818V366C739.625 367.682 739.978 369.182 740.682 370.5C741.387 371.818 742.398 372.852 743.716 373.602C745.034 374.352 746.625 374.727 748.489 374.727C749.784 374.727 750.966 374.545 752.034 374.182C753.125 373.818 754.057 373.295 754.83 372.614C755.603 371.909 756.171 371.068 756.534 370.091H773.716C773.125 373.727 771.728 376.886 769.523 379.568C767.319 382.227 764.398 384.295 760.762 385.773C757.148 387.227 752.921 387.955 748.08 387.955ZM832.139 351.682H814.821C814.73 350.614 814.355 349.693 813.696 348.92C813.037 348.148 812.184 347.557 811.139 347.148C810.116 346.716 808.98 346.5 807.73 346.5C806.116 346.5 804.73 346.795 803.571 347.386C802.412 347.977 801.843 348.818 801.866 349.909C801.843 350.682 802.173 351.398 802.855 352.057C803.559 352.716 804.912 353.227 806.912 353.591L817.548 355.5C822.912 356.477 826.9 358.125 829.514 360.443C832.15 362.739 833.48 365.818 833.503 369.682C833.48 373.409 832.366 376.648 830.162 379.398C827.98 382.125 824.991 384.239 821.196 385.739C817.423 387.216 813.116 387.955 808.275 387.955C800.275 387.955 794.014 386.318 789.491 383.045C784.991 379.773 782.48 375.455 781.957 370.091H800.639C800.889 371.75 801.707 373.034 803.093 373.943C804.503 374.83 806.275 375.273 808.412 375.273C810.139 375.273 811.559 374.977 812.673 374.386C813.809 373.795 814.389 372.955 814.412 371.864C814.389 370.864 813.889 370.068 812.912 369.477C811.957 368.886 810.457 368.409 808.412 368.045L799.139 366.409C793.798 365.477 789.798 363.705 787.139 361.091C784.48 358.477 783.162 355.114 783.184 351C783.162 347.364 784.116 344.284 786.048 341.761C788.003 339.216 790.787 337.284 794.4 335.966C798.037 334.625 802.343 333.955 807.321 333.955C814.889 333.955 820.855 335.523 825.218 338.659C829.605 341.795 831.912 346.136 832.139 351.682Z" fill="white"/>
<path d="M1023.7 674.308V769.591L1109.64 820.849L1194.5 770.065V674.071L1109.64 623.316L1023.7 674.308Z" fill="white" fill-opacity="0.15" stroke="white" stroke-width="4"/>
<path d="M1188.55 676.752V767.621L1108.91 815.099L1029.27 767.621V676.752L1108.91 629.273L1188.55 676.752ZM1115.55 617.778C1113.53 616.613 1111.24 616 1108.91 616C1106.58 616 1104.29 616.613 1102.28 617.778L1022.64 665.257C1020.62 666.422 1018.94 668.097 1017.78 670.115C1016.61 672.133 1016 674.422 1016 676.752V767.621C1016 769.951 1016.61 772.24 1017.78 774.257C1018.94 776.275 1020.62 777.951 1022.64 779.115L1102.28 826.594C1104.29 827.759 1106.58 828.372 1108.91 828.372C1111.24 828.372 1113.53 827.759 1115.55 826.594L1195.19 779.115C1197.21 777.951 1198.88 776.275 1200.05 774.257C1201.21 772.24 1201.83 769.951 1201.83 767.621V676.752C1201.83 674.422 1201.21 672.133 1200.05 670.115C1198.88 668.097 1197.21 666.422 1195.19 665.257L1115.55 617.778Z" fill="white" fill-opacity="0.15"/>
<g opacity="0.8">
<path d="M1105.62 775.373L1059.3 748.826V695.733L1105.62 722.28V775.373Z" fill="white"/>
<path d="M1151.95 748.826L1105.62 775.373V722.28L1151.95 695.733V748.826Z" fill="#EBEBEB"/>
<path d="M1105.62 721.744L1059.3 695.333L1105.62 668.922L1151.94 695.333L1105.62 721.744Z" fill="#FBFBFB"/>
<path d="M1105.62 721.897L1061.31 696.863L1059.3 698.012L1105.62 724.176L1151.94 698.012V695.733L1105.62 721.897Z" fill="white"/>
</g>
<path d="M743.656 951.305V1145.27L918.601 1249.61L1091.36 1146.23V950.823L918.601 847.506L743.656 951.305Z" fill="white" fill-opacity="0.15" stroke="white" stroke-width="4"/>
<path d="M1079.25 956.281V1141.26L917.136 1237.9L755.019 1141.26V956.281L917.136 859.632L1079.25 956.281ZM930.646 836.233C926.538 833.862 921.879 832.613 917.136 832.613C912.393 832.613 907.734 833.862 903.626 836.233L741.51 932.882C737.402 935.253 733.992 938.664 731.62 942.771C729.249 946.879 728 951.538 728 956.281V1141.26C728 1146 729.249 1150.66 731.62 1154.77C733.992 1158.87 737.402 1162.28 741.51 1164.65L903.626 1261.3C907.734 1263.67 912.393 1264.92 917.136 1264.92C921.879 1264.92 926.538 1263.67 930.646 1261.3L1092.76 1164.65C1096.87 1162.28 1100.28 1158.87 1102.65 1154.77C1105.02 1150.66 1106.27 1146 1106.27 1141.26V956.281C1106.27 951.538 1105.02 946.879 1102.65 942.771C1100.28 938.664 1096.87 935.253 1092.76 932.882L930.646 836.233Z" fill="white" fill-opacity="0.15"/>
<path d="M996.039 1030.56H974.574C973.504 1027.1 972.116 1023.74 970.43 1020.54L985.585 1005.38C986.165 1004.81 986.625 1004.12 986.939 1003.37C987.253 1002.61 987.415 1001.81 987.415 1000.99C987.415 1000.17 987.253 999.364 986.939 998.61C986.625 997.856 986.165 997.172 985.585 996.597L968.141 979.153C967.566 978.574 966.882 978.113 966.128 977.799C965.374 977.485 964.566 977.324 963.749 977.324C962.933 977.324 962.124 977.485 961.37 977.799C960.617 978.113 959.932 978.574 959.357 979.153L944.202 994.308C940.996 992.622 937.642 991.235 934.181 990.164V968.699C934.181 967.059 933.53 965.485 932.37 964.325C931.209 963.165 929.636 962.514 927.996 962.514H903.253C901.612 962.514 900.039 963.165 898.879 964.325C897.718 965.485 897.067 967.059 897.067 968.699V990.164C893.606 991.235 890.252 992.622 887.046 994.308L871.891 979.153C871.316 978.574 870.632 978.113 869.878 977.799C869.124 977.485 868.315 977.324 867.499 977.324C866.682 977.324 865.874 977.485 865.12 977.799C864.366 978.113 863.682 978.574 863.107 979.153L845.663 996.597C845.083 997.172 844.623 997.856 844.309 998.61C843.995 999.364 843.833 1000.17 843.833 1000.99C843.833 1001.81 843.995 1002.61 844.309 1003.37C844.623 1004.12 845.083 1004.81 845.663 1005.38L860.818 1020.54C860.076 1021.96 859.396 1023.44 858.715 1024.93C857.933 1026.77 857.252 1028.65 856.674 1030.56H835.209C833.569 1030.56 831.995 1031.21 830.835 1032.37C829.675 1033.53 829.023 1035.1 829.023 1036.74V1061.49C829.023 1063.13 829.675 1064.7 830.835 1065.86C831.995 1067.02 833.569 1067.67 835.209 1067.67H856.674C857.744 1071.13 859.132 1074.49 860.818 1077.69L845.663 1092.85C845.083 1093.42 844.623 1094.11 844.309 1094.86C843.995 1095.61 843.833 1096.42 843.833 1097.24C843.833 1098.06 843.995 1098.86 844.309 1099.62C844.623 1100.37 845.083 1101.06 845.663 1101.63L863.107 1119.08C863.682 1119.65 864.366 1120.12 865.12 1120.43C865.874 1120.74 866.682 1120.9 867.499 1120.9C868.315 1120.9 869.124 1120.74 869.878 1120.43C870.632 1120.12 871.316 1119.65 871.891 1119.08L887.046 1103.92C890.252 1105.61 893.606 1106.99 897.067 1108.06V1129.53C897.067 1131.17 897.718 1132.74 898.879 1133.9C900.039 1135.06 901.612 1135.71 903.253 1135.71H927.996C929.636 1135.71 931.209 1135.06 932.37 1133.9C933.53 1132.74 934.181 1131.17 934.181 1129.53V1108.06C937.642 1106.99 940.996 1105.61 944.202 1103.92L959.357 1119.08C959.932 1119.65 960.617 1120.12 961.37 1120.43C962.124 1120.74 962.933 1120.9 963.749 1120.9C964.566 1120.9 965.374 1120.74 966.128 1120.43C966.882 1120.12 967.566 1119.65 968.141 1119.08L985.585 1101.63C986.165 1101.06 986.625 1100.37 986.939 1099.62C987.253 1098.86 987.415 1098.06 987.415 1097.24C987.415 1096.42 987.253 1095.61 986.939 1094.86C986.625 1094.11 986.165 1093.42 985.585 1092.85L970.43 1077.69C972.116 1074.49 973.504 1071.13 974.574 1067.67H996.039C997.679 1067.67 999.253 1067.02 1000.41 1065.86C1001.57 1064.7 1002.22 1063.13 1002.22 1061.49V1036.74C1002.22 1035.1 1001.57 1033.53 1000.41 1032.37C999.253 1031.21 997.679 1030.56 996.039 1030.56Z" fill="white"/>
<path d="M952.28 1069.72L919.605 1016.75C919.146 1016 918.292 1015.44 917.375 1015.44C916.442 1015.44 915.588 1016 915.145 1016.75L882.47 1069.72C882.028 1070.48 881.711 1071.69 882.17 1072.44C882.629 1073.18 883.467 1073.63 884.384 1073.63H950.35C951.267 1073.63 952.106 1073.18 952.564 1072.44C953.039 1071.69 952.722 1070.47 952.28 1069.72ZM922.436 1066.36H912.314V1059.08H922.436V1066.36ZM922.436 1054.23H912.314V1032.41H922.436V1054.23Z" fill="#40335C"/>
<defs>
<filter id="filter0_d_3007_1114" x="64" y="464" width="711" height="212" filterUnits="userSpaceOnUse" color-interpolation-filters="sRGB">
<feFlood flood-opacity="0" result="BackgroundImageFix"/>
<feColorMatrix in="SourceAlpha" type="matrix" values="0 0 0 0 0 0 0 0 0 0 0 0 0 0 0 0 0 0 127 0" result="hardAlpha"/>
<feOffset dy="16"/>
<feGaussianBlur stdDeviation="20"/>
<feComposite in2="hardAlpha" operator="out"/>
<feColorMatrix type="matrix" values="0 0 0 0 0 0 0 0 0 0 0 0 0 0 0 0 0 0 0.05 0"/>
<feBlend mode="normal" in2="BackgroundImageFix" result="effect1_dropShadow_3007_1114"/>
<feBlend mode="normal" in="SourceGraphic" in2="effect1_dropShadow_3007_1114" result="shape"/>
</filter>
<radialGradient id="paint0_radial_3007_1114" cx="0" cy="0" r="1" gradientUnits="userSpaceOnUse" gradientTransform="translate(-355.2 -322.136) rotate(36.5012) scale(2238.73 3337.02)">
<stop offset="0.120942" stop-color="#321179"/>
<stop offset="1" stop-color="#160E2B"/>
</radialGradient>
</defs>
</svg>
