<svg width="1332" height="1332" viewBox="0 0 1332 1332" fill="none" xmlns="http://www.w3.org/2000/svg">
<rect width="1332" height="1332" fill="url(#paint0_radial_3057_1396)"/>
<g filter="url(#filter0_d_3057_1396)">
<rect x="104" y="488" width="631" height="132" rx="40" fill="white" shape-rendering="crispEdges"/>
<path d="M199.688 544.449H189.063C188.76 542.706 188.201 541.163 187.387 539.818C186.573 538.455 185.559 537.299 184.347 536.352C183.135 535.405 181.753 534.695 180.2 534.222C178.665 533.729 177.008 533.483 175.228 533.483C172.065 533.483 169.262 534.278 166.819 535.869C164.376 537.441 162.463 539.752 161.08 542.801C159.698 545.831 159.006 549.534 159.006 553.909C159.006 558.36 159.698 562.11 161.08 565.159C162.482 568.189 164.395 570.481 166.819 572.034C169.262 573.568 172.056 574.335 175.2 574.335C176.942 574.335 178.571 574.108 180.086 573.653C181.62 573.18 182.993 572.489 184.205 571.58C185.436 570.67 186.469 569.553 187.302 568.227C188.154 566.902 188.741 565.386 189.063 563.682L199.688 563.739C199.29 566.504 198.429 569.098 197.103 571.523C195.796 573.947 194.082 576.087 191.961 577.943C189.84 579.78 187.359 581.22 184.518 582.261C181.677 583.284 178.523 583.795 175.058 583.795C169.944 583.795 165.379 582.612 161.364 580.244C157.349 577.877 154.186 574.458 151.876 569.989C149.565 565.519 148.41 560.159 148.41 553.909C148.41 547.64 149.575 542.28 151.904 537.83C154.234 533.36 157.406 529.941 161.421 527.574C165.436 525.206 169.982 524.023 175.058 524.023C178.296 524.023 181.308 524.477 184.092 525.386C186.876 526.295 189.357 527.631 191.535 529.392C193.713 531.134 195.503 533.275 196.904 535.812C198.325 538.331 199.253 541.21 199.688 544.449ZM215.668 599.364C214.267 599.364 212.969 599.25 211.776 599.023C210.602 598.814 209.665 598.568 208.964 598.284L211.35 590.273C212.846 590.708 214.182 590.917 215.356 590.898C216.53 590.879 217.562 590.509 218.452 589.79C219.362 589.089 220.129 587.915 220.754 586.267L221.634 583.909L205.81 539.364H216.719L226.776 572.318H227.231L237.316 539.364H248.254L230.782 588.284C229.968 590.595 228.888 592.574 227.543 594.222C226.199 595.888 224.551 597.157 222.6 598.028C220.668 598.919 218.358 599.364 215.668 599.364ZM255.825 583V524.818H266.109V546.58H266.535C267.065 545.519 267.813 544.392 268.779 543.199C269.745 541.987 271.052 540.955 272.7 540.102C274.347 539.231 276.45 538.795 279.006 538.795C282.378 538.795 285.417 539.657 288.126 541.381C290.853 543.085 293.012 545.614 294.603 548.966C296.213 552.299 297.018 556.39 297.018 561.239C297.018 566.03 296.232 570.102 294.66 573.455C293.088 576.807 290.948 579.364 288.239 581.125C285.531 582.886 282.463 583.767 279.035 583.767C276.535 583.767 274.461 583.35 272.813 582.517C271.165 581.684 269.84 580.68 268.836 579.506C267.851 578.312 267.084 577.186 266.535 576.125H265.938V583H255.825ZM265.91 561.182C265.91 564.004 266.308 566.475 267.103 568.597C267.917 570.718 269.082 572.375 270.597 573.568C272.131 574.742 273.987 575.33 276.165 575.33C278.438 575.33 280.342 574.723 281.876 573.511C283.41 572.28 284.565 570.604 285.342 568.483C286.137 566.343 286.535 563.909 286.535 561.182C286.535 558.473 286.147 556.068 285.37 553.966C284.594 551.864 283.438 550.216 281.904 549.023C280.37 547.83 278.457 547.233 276.165 547.233C273.969 547.233 272.103 547.811 270.569 548.966C269.035 550.121 267.87 551.741 267.075 553.824C266.298 555.907 265.91 558.36 265.91 561.182ZM325.079 583.852C320.704 583.852 316.925 582.943 313.744 581.125C310.581 579.288 308.147 576.693 306.442 573.341C304.738 569.97 303.886 566.002 303.886 561.438C303.886 556.949 304.738 553.009 306.442 549.619C308.166 546.21 310.571 543.559 313.658 541.665C316.746 539.752 320.372 538.795 324.539 538.795C327.228 538.795 329.766 539.231 332.153 540.102C334.558 540.955 336.679 542.28 338.516 544.08C340.372 545.879 341.831 548.17 342.891 550.955C343.952 553.72 344.482 557.015 344.482 560.841V563.994H308.715V557.062H334.624C334.605 555.093 334.179 553.341 333.346 551.807C332.513 550.254 331.348 549.032 329.852 548.142C328.374 547.252 326.651 546.807 324.681 546.807C322.579 546.807 320.732 547.318 319.141 548.341C317.55 549.345 316.31 550.67 315.42 552.318C314.549 553.947 314.103 555.737 314.085 557.688V563.739C314.085 566.277 314.549 568.455 315.477 570.273C316.405 572.072 317.702 573.455 319.369 574.42C321.035 575.367 322.986 575.841 325.221 575.841C326.717 575.841 328.071 575.633 329.283 575.216C330.496 574.78 331.547 574.146 332.437 573.312C333.327 572.479 333.999 571.447 334.454 570.216L344.056 571.295C343.45 573.833 342.295 576.049 340.59 577.943C338.905 579.818 336.746 581.277 334.113 582.318C331.48 583.341 328.469 583.852 325.079 583.852ZM353.183 583V539.364H363.154V546.636H363.609C364.404 544.117 365.768 542.176 367.7 540.812C369.65 539.43 371.876 538.739 374.376 538.739C374.944 538.739 375.578 538.767 376.279 538.824C376.999 538.862 377.595 538.928 378.069 539.023V548.483C377.633 548.331 376.942 548.199 375.995 548.085C375.067 547.953 374.167 547.886 373.296 547.886C371.421 547.886 369.736 548.294 368.239 549.108C366.762 549.903 365.597 551.011 364.745 552.432C363.893 553.852 363.467 555.491 363.467 557.347V583H353.183ZM419.39 550.898L410.015 551.92C409.75 550.973 409.286 550.083 408.623 549.25C407.979 548.417 407.108 547.744 406.009 547.233C404.911 546.722 403.566 546.466 401.975 546.466C399.835 546.466 398.036 546.93 396.577 547.858C395.138 548.786 394.428 549.989 394.447 551.466C394.428 552.735 394.892 553.767 395.839 554.562C396.805 555.358 398.396 556.011 400.612 556.523L408.055 558.114C412.183 559.004 415.252 560.415 417.259 562.347C419.286 564.278 420.308 566.807 420.327 569.932C420.308 572.678 419.504 575.102 417.913 577.205C416.341 579.288 414.153 580.917 411.35 582.091C408.547 583.265 405.327 583.852 401.691 583.852C396.35 583.852 392.051 582.735 388.793 580.5C385.536 578.246 383.594 575.112 382.969 571.097L392.998 570.131C393.452 572.1 394.418 573.587 395.896 574.591C397.373 575.595 399.295 576.097 401.663 576.097C404.106 576.097 406.066 575.595 407.543 574.591C409.04 573.587 409.788 572.347 409.788 570.869C409.788 569.619 409.305 568.587 408.339 567.773C407.392 566.958 405.915 566.333 403.907 565.898L396.464 564.335C392.278 563.464 389.182 561.996 387.174 559.932C385.166 557.848 384.172 555.216 384.191 552.034C384.172 549.345 384.901 547.015 386.379 545.045C387.875 543.057 389.949 541.523 392.6 540.443C395.271 539.345 398.348 538.795 401.833 538.795C406.947 538.795 410.971 539.884 413.907 542.062C416.862 544.241 418.689 547.186 419.39 550.898ZM448.126 583.852C443.751 583.852 439.972 582.943 436.79 581.125C433.628 579.288 431.194 576.693 429.489 573.341C427.785 569.97 426.933 566.002 426.933 561.438C426.933 556.949 427.785 553.009 429.489 549.619C431.213 546.21 433.618 543.559 436.705 541.665C439.792 539.752 443.419 538.795 447.586 538.795C450.275 538.795 452.813 539.231 455.2 540.102C457.605 540.955 459.726 542.28 461.563 544.08C463.419 545.879 464.878 548.17 465.938 550.955C466.999 553.72 467.529 557.015 467.529 560.841V563.994H431.762V557.062H457.671C457.652 555.093 457.226 553.341 456.393 551.807C455.559 550.254 454.395 549.032 452.898 548.142C451.421 547.252 449.698 546.807 447.728 546.807C445.626 546.807 443.779 547.318 442.188 548.341C440.597 549.345 439.357 550.67 438.467 552.318C437.595 553.947 437.15 555.737 437.131 557.688V563.739C437.131 566.277 437.595 568.455 438.523 570.273C439.451 572.072 440.749 573.455 442.415 574.42C444.082 575.367 446.033 575.841 448.268 575.841C449.764 575.841 451.118 575.633 452.33 575.216C453.542 574.78 454.594 574.146 455.484 573.312C456.374 572.479 457.046 571.447 457.501 570.216L467.103 571.295C466.497 573.833 465.342 576.049 463.637 577.943C461.951 579.818 459.792 581.277 457.16 582.318C454.527 583.341 451.516 583.852 448.126 583.852ZM495.263 583.852C490.907 583.852 487.167 582.896 484.042 580.983C480.936 579.07 478.54 576.428 476.854 573.057C475.188 569.667 474.354 565.765 474.354 561.352C474.354 556.92 475.207 553.009 476.911 549.619C478.616 546.21 481.021 543.559 484.127 541.665C487.252 539.752 490.945 538.795 495.207 538.795C498.748 538.795 501.883 539.449 504.61 540.756C507.356 542.044 509.544 543.871 511.173 546.239C512.801 548.587 513.729 551.333 513.957 554.477H504.127C503.729 552.375 502.782 550.623 501.286 549.222C499.809 547.801 497.83 547.091 495.349 547.091C493.246 547.091 491.4 547.659 489.809 548.795C488.218 549.913 486.978 551.523 486.087 553.625C485.216 555.727 484.781 558.246 484.781 561.182C484.781 564.155 485.216 566.712 486.087 568.852C486.959 570.973 488.18 572.612 489.752 573.767C491.343 574.903 493.209 575.472 495.349 575.472C496.864 575.472 498.218 575.187 499.411 574.619C500.623 574.032 501.637 573.189 502.451 572.091C503.265 570.992 503.824 569.657 504.127 568.085H513.957C513.71 571.172 512.801 573.909 511.229 576.295C509.657 578.663 507.517 580.519 504.809 581.864C502.101 583.189 498.919 583.852 495.263 583.852ZM550.214 564.648V539.364H560.498V583H550.526V575.244H550.072C549.087 577.687 547.468 579.686 545.214 581.239C542.979 582.792 540.223 583.568 536.947 583.568C534.087 583.568 531.558 582.934 529.362 581.665C527.183 580.377 525.479 578.511 524.248 576.068C523.017 573.606 522.401 570.633 522.401 567.148V539.364H532.685V565.557C532.685 568.322 533.443 570.519 534.958 572.148C536.473 573.777 538.462 574.591 540.924 574.591C542.439 574.591 543.907 574.222 545.327 573.483C546.748 572.744 547.913 571.646 548.822 570.188C549.75 568.71 550.214 566.864 550.214 564.648ZM571.073 583V539.364H581.045V546.636H581.499C582.295 544.117 583.658 542.176 585.59 540.812C587.541 539.43 589.766 538.739 592.266 538.739C592.835 538.739 593.469 538.767 594.17 538.824C594.889 538.862 595.486 538.928 595.96 539.023V548.483C595.524 548.331 594.833 548.199 593.886 548.085C592.958 547.953 592.058 547.886 591.187 547.886C589.312 547.886 587.626 548.294 586.13 549.108C584.653 549.903 583.488 551.011 582.636 552.432C581.783 553.852 581.357 555.491 581.357 557.347V583H571.073ZM602.792 583V539.364H613.076V583H602.792ZM607.962 533.17C606.334 533.17 604.932 532.631 603.758 531.551C602.584 530.453 601.996 529.136 601.996 527.602C601.996 526.049 602.584 524.733 603.758 523.653C604.932 522.555 606.334 522.006 607.962 522.006C609.61 522.006 611.012 522.555 612.167 523.653C613.341 524.733 613.928 526.049 613.928 527.602C613.928 529.136 613.341 530.453 612.167 531.551C611.012 532.631 609.61 533.17 607.962 533.17ZM645.441 539.364V547.318H620.356V539.364H645.441ZM626.549 528.909H636.833V569.875C636.833 571.258 637.041 572.318 637.458 573.057C637.894 573.777 638.462 574.269 639.163 574.534C639.863 574.799 640.64 574.932 641.492 574.932C642.136 574.932 642.723 574.884 643.254 574.79C643.803 574.695 644.219 574.61 644.504 574.534L646.237 582.574C645.687 582.763 644.901 582.972 643.879 583.199C642.875 583.426 641.644 583.559 640.185 583.597C637.61 583.672 635.29 583.284 633.225 582.432C631.161 581.561 629.522 580.216 628.31 578.398C627.117 576.58 626.53 574.307 626.549 571.58V528.909ZM660.434 599.364C659.032 599.364 657.735 599.25 656.542 599.023C655.368 598.814 654.43 598.568 653.729 598.284L656.116 590.273C657.612 590.708 658.947 590.917 660.121 590.898C661.296 590.879 662.328 590.509 663.218 589.79C664.127 589.089 664.894 587.915 665.519 586.267L666.4 583.909L650.576 539.364H661.485L671.542 572.318H671.996L682.082 539.364H693.019L675.548 588.284C674.733 590.595 673.654 592.574 672.309 594.222C670.964 595.888 669.317 597.157 667.366 598.028C665.434 598.919 663.123 599.364 660.434 599.364Z" fill="#428DFF"/>
</g>
<path d="M106.591 212.455V197.182H167.273V212.455H146.273V267H127.591V212.455H106.591ZM195.193 267.955C189.511 267.955 184.647 266.83 180.602 264.58C176.556 262.307 173.454 259.148 171.295 255.102C169.136 251.034 168.056 246.318 168.056 240.955C168.056 235.591 169.136 230.886 171.295 226.841C173.454 222.773 176.556 219.614 180.602 217.364C184.647 215.091 189.511 213.955 195.193 213.955C200.874 213.955 205.738 215.091 209.783 217.364C213.829 219.614 216.931 222.773 219.09 226.841C221.249 230.886 222.329 235.591 222.329 240.955C222.329 246.318 221.249 251.034 219.09 255.102C216.931 259.148 213.829 262.307 209.783 264.58C205.738 266.83 200.874 267.955 195.193 267.955ZM195.329 254.045C196.92 254.045 198.295 253.511 199.454 252.443C200.613 251.375 201.511 249.852 202.147 247.875C202.783 245.898 203.102 243.545 203.102 240.818C203.102 238.068 202.783 235.716 202.147 233.761C201.511 231.784 200.613 230.261 199.454 229.193C198.295 228.125 196.92 227.591 195.329 227.591C193.647 227.591 192.204 228.125 190.999 229.193C189.795 230.261 188.874 231.784 188.238 233.761C187.602 235.716 187.283 238.068 187.283 240.818C187.283 243.545 187.602 245.898 188.238 247.875C188.874 249.852 189.795 251.375 190.999 252.443C192.204 253.511 193.647 254.045 195.329 254.045ZM232.845 286.636V214.636H251.527V223.773H251.936C252.618 222 253.618 220.375 254.936 218.898C256.254 217.398 257.891 216.205 259.845 215.318C261.8 214.409 264.073 213.955 266.663 213.955C270.118 213.955 273.402 214.875 276.516 216.716C279.652 218.557 282.198 221.455 284.152 225.409C286.129 229.364 287.118 234.5 287.118 240.818C287.118 246.864 286.175 251.875 284.288 255.852C282.425 259.83 279.925 262.795 276.788 264.75C273.675 266.705 270.254 267.682 266.527 267.682C264.073 267.682 261.879 267.284 259.948 266.489C258.038 265.67 256.402 264.568 255.038 263.182C253.698 261.773 252.663 260.182 251.936 258.409H251.663V286.636H232.845ZM251.254 240.818C251.254 243.364 251.584 245.568 252.243 247.432C252.925 249.273 253.879 250.705 255.107 251.727C256.357 252.727 257.845 253.227 259.573 253.227C261.3 253.227 262.766 252.739 263.97 251.761C265.198 250.761 266.129 249.341 266.766 247.5C267.425 245.636 267.754 243.409 267.754 240.818C267.754 238.227 267.425 236.011 266.766 234.17C266.129 232.307 265.198 230.886 263.97 229.909C262.766 228.909 261.3 228.409 259.573 228.409C257.845 228.409 256.357 228.909 255.107 229.909C253.879 230.886 252.925 232.307 252.243 234.17C251.584 236.011 251.254 238.227 251.254 240.818ZM319.614 267V197.182H369.932V212.455H338.568V224.455H367.341V239.727H338.568V251.727H369.796V267H319.614ZM398.712 214.636L406.349 230.864L414.394 214.636H433.076L419.031 240.818L433.758 267H415.212L406.349 250.364L397.758 267H378.94L393.803 240.818L379.894 214.636H398.712ZM473.874 214.636V228.273H439.374V214.636H473.874ZM446.056 202.091H464.874V250.159C464.874 250.886 464.999 251.5 465.249 252C465.499 252.477 465.885 252.841 466.408 253.091C466.931 253.318 467.601 253.432 468.419 253.432C468.987 253.432 469.646 253.364 470.396 253.227C471.169 253.091 471.737 252.977 472.101 252.886L474.828 266.114C473.987 266.364 472.783 266.67 471.215 267.034C469.669 267.398 467.828 267.636 465.692 267.75C461.374 267.977 457.749 267.534 454.817 266.42C451.885 265.284 449.681 263.5 448.203 261.068C446.726 258.636 446.01 255.591 446.056 251.932V202.091ZM508.961 267.955C503.37 267.955 498.552 266.886 494.507 264.75C490.484 262.591 487.382 259.5 485.2 255.477C483.041 251.432 481.961 246.591 481.961 240.955C481.961 235.545 483.052 230.818 485.234 226.773C487.416 222.727 490.495 219.58 494.473 217.33C498.45 215.08 503.143 213.955 508.552 213.955C512.507 213.955 516.086 214.568 519.291 215.795C522.495 217.023 525.234 218.807 527.507 221.148C529.779 223.466 531.529 226.284 532.757 229.602C533.984 232.92 534.598 236.659 534.598 240.818V245.182H487.825V234.818H517.279C517.257 233.318 516.87 232 516.12 230.864C515.393 229.705 514.404 228.807 513.154 228.17C511.927 227.511 510.529 227.182 508.961 227.182C507.438 227.182 506.041 227.511 504.768 228.17C503.495 228.807 502.473 229.693 501.7 230.83C500.95 231.966 500.552 233.295 500.507 234.818V246C500.507 247.682 500.859 249.182 501.563 250.5C502.268 251.818 503.279 252.852 504.598 253.602C505.916 254.352 507.507 254.727 509.37 254.727C510.666 254.727 511.848 254.545 512.916 254.182C514.007 253.818 514.938 253.295 515.711 252.614C516.484 251.909 517.052 251.068 517.416 250.091H534.598C534.007 253.727 532.609 256.886 530.404 259.568C528.2 262.227 525.279 264.295 521.643 265.773C518.029 267.227 513.802 267.955 508.961 267.955ZM563.975 237.545V267H545.156V214.636H563.02V224.591H563.566C564.702 221.273 566.702 218.67 569.566 216.784C572.452 214.898 575.816 213.955 579.656 213.955C583.361 213.955 586.577 214.807 589.304 216.511C592.054 218.193 594.179 220.511 595.679 223.466C597.202 226.42 597.952 229.795 597.929 233.591V267H579.111V237.545C579.134 234.955 578.475 232.92 577.134 231.443C575.816 229.966 573.975 229.227 571.611 229.227C570.066 229.227 568.713 229.568 567.554 230.25C566.418 230.909 565.543 231.864 564.929 233.114C564.316 234.341 563.997 235.818 563.975 237.545ZM657.963 231.682H640.644C640.554 230.614 640.179 229.693 639.519 228.92C638.86 228.148 638.008 227.557 636.963 227.148C635.94 226.716 634.804 226.5 633.554 226.5C631.94 226.5 630.554 226.795 629.394 227.386C628.235 227.977 627.667 228.818 627.69 229.909C627.667 230.682 627.997 231.398 628.679 232.057C629.383 232.716 630.735 233.227 632.735 233.591L643.372 235.5C648.735 236.477 652.724 238.125 655.338 240.443C657.974 242.739 659.304 245.818 659.326 249.682C659.304 253.409 658.19 256.648 655.985 259.398C653.804 262.125 650.815 264.239 647.019 265.739C643.247 267.216 638.94 267.955 634.099 267.955C626.099 267.955 619.838 266.318 615.315 263.045C610.815 259.773 608.304 255.455 607.781 250.091H626.463C626.713 251.75 627.531 253.034 628.917 253.943C630.326 254.83 632.099 255.273 634.235 255.273C635.963 255.273 637.383 254.977 638.497 254.386C639.633 253.795 640.213 252.955 640.235 251.864C640.213 250.864 639.713 250.068 638.735 249.477C637.781 248.886 636.281 248.409 634.235 248.045L624.963 246.409C619.622 245.477 615.622 243.705 612.963 241.091C610.304 238.477 608.985 235.114 609.008 231C608.985 227.364 609.94 224.284 611.872 221.761C613.826 219.216 616.61 217.284 620.224 215.966C623.86 214.625 628.167 213.955 633.144 213.955C640.713 213.955 646.679 215.523 651.042 218.659C655.429 221.795 657.735 226.136 657.963 231.682ZM669.416 267V214.636H688.235V267H669.416ZM678.826 209.182C676.28 209.182 674.098 208.341 672.28 206.659C670.462 204.977 669.553 202.955 669.553 200.591C669.553 198.227 670.462 196.205 672.28 194.523C674.098 192.841 676.28 192 678.826 192C681.394 192 683.576 192.841 685.371 194.523C687.189 196.205 688.098 198.227 688.098 200.591C688.098 202.955 687.189 204.977 685.371 206.659C683.576 208.341 681.394 209.182 678.826 209.182ZM725.93 267.955C720.248 267.955 715.385 266.83 711.339 264.58C707.294 262.307 704.191 259.148 702.032 255.102C699.873 251.034 698.794 246.318 698.794 240.955C698.794 235.591 699.873 230.886 702.032 226.841C704.191 222.773 707.294 219.614 711.339 217.364C715.385 215.091 720.248 213.955 725.93 213.955C731.612 213.955 736.475 215.091 740.521 217.364C744.566 219.614 747.669 222.773 749.828 226.841C751.987 230.886 753.066 235.591 753.066 240.955C753.066 246.318 751.987 251.034 749.828 255.102C747.669 259.148 744.566 262.307 740.521 264.58C736.475 266.83 731.612 267.955 725.93 267.955ZM726.066 254.045C727.657 254.045 729.032 253.511 730.191 252.443C731.35 251.375 732.248 249.852 732.885 247.875C733.521 245.898 733.839 243.545 733.839 240.818C733.839 238.068 733.521 235.716 732.885 233.761C732.248 231.784 731.35 230.261 730.191 229.193C729.032 228.125 727.657 227.591 726.066 227.591C724.385 227.591 722.941 228.125 721.737 229.193C720.532 230.261 719.612 231.784 718.975 233.761C718.339 235.716 718.021 238.068 718.021 240.818C718.021 243.545 718.339 245.898 718.975 247.875C719.612 249.852 720.532 251.375 721.737 252.443C722.941 253.511 724.385 254.045 726.066 254.045ZM782.401 237.545V267H763.583V214.636H781.446V224.591H781.992C783.128 221.273 785.128 218.67 787.992 216.784C790.878 214.898 794.242 213.955 798.083 213.955C801.787 213.955 805.003 214.807 807.73 216.511C810.48 218.193 812.605 220.511 814.105 223.466C815.628 226.42 816.378 229.795 816.355 233.591V267H797.537V237.545C797.56 234.955 796.901 232.92 795.56 231.443C794.242 229.966 792.401 229.227 790.037 229.227C788.492 229.227 787.14 229.568 785.98 230.25C784.844 230.909 783.969 231.864 783.355 233.114C782.742 234.341 782.424 235.818 782.401 237.545ZM876.389 231.682H859.071C858.98 230.614 858.605 229.693 857.946 228.92C857.287 228.148 856.434 227.557 855.389 227.148C854.366 226.716 853.23 226.5 851.98 226.5C850.366 226.5 848.98 226.795 847.821 227.386C846.662 227.977 846.093 228.818 846.116 229.909C846.093 230.682 846.423 231.398 847.105 232.057C847.809 232.716 849.162 233.227 851.162 233.591L861.798 235.5C867.162 236.477 871.15 238.125 873.764 240.443C876.4 242.739 877.73 245.818 877.753 249.682C877.73 253.409 876.616 256.648 874.412 259.398C872.23 262.125 869.241 264.239 865.446 265.739C861.673 267.216 857.366 267.955 852.525 267.955C844.525 267.955 838.264 266.318 833.741 263.045C829.241 259.773 826.73 255.455 826.207 250.091H844.889C845.139 251.75 845.957 253.034 847.343 253.943C848.753 254.83 850.525 255.273 852.662 255.273C854.389 255.273 855.809 254.977 856.923 254.386C858.059 253.795 858.639 252.955 858.662 251.864C858.639 250.864 858.139 250.068 857.162 249.477C856.207 248.886 854.707 248.409 852.662 248.045L843.389 246.409C838.048 245.477 834.048 243.705 831.389 241.091C828.73 238.477 827.412 235.114 827.434 231C827.412 227.364 828.366 224.284 830.298 221.761C832.253 219.216 835.037 217.284 838.65 215.966C842.287 214.625 846.593 213.955 851.571 213.955C859.139 213.955 865.105 215.523 869.468 218.659C873.855 221.795 876.162 226.136 876.389 231.682ZM909.575 267V197.182H958.666V212.455H928.53V224.455H955.666V239.727H928.53V267H909.575ZM990.174 267.955C984.492 267.955 979.628 266.83 975.583 264.58C971.537 262.307 968.435 259.148 966.276 255.102C964.117 251.034 963.037 246.318 963.037 240.955C963.037 235.591 964.117 230.886 966.276 226.841C968.435 222.773 971.537 219.614 975.583 217.364C979.628 215.091 984.492 213.955 990.174 213.955C995.856 213.955 1000.72 215.091 1004.76 217.364C1008.81 219.614 1011.91 222.773 1014.07 226.841C1016.23 230.886 1017.31 235.591 1017.31 240.955C1017.31 246.318 1016.23 251.034 1014.07 255.102C1011.91 259.148 1008.81 262.307 1004.76 264.58C1000.72 266.83 995.856 267.955 990.174 267.955ZM990.31 254.045C991.901 254.045 993.276 253.511 994.435 252.443C995.594 251.375 996.492 249.852 997.128 247.875C997.765 245.898 998.083 243.545 998.083 240.818C998.083 238.068 997.765 235.716 997.128 233.761C996.492 231.784 995.594 230.261 994.435 229.193C993.276 228.125 991.901 227.591 990.31 227.591C988.628 227.591 987.185 228.125 985.981 229.193C984.776 230.261 983.856 231.784 983.219 233.761C982.583 235.716 982.265 238.068 982.265 240.818C982.265 243.545 982.583 245.898 983.219 247.875C983.856 249.852 984.776 251.375 985.981 252.443C987.185 253.511 988.628 254.045 990.31 254.045ZM1027.83 267V214.636H1046.1V224.591H1046.64C1047.6 220.909 1049.11 218.216 1051.18 216.511C1053.27 214.807 1055.71 213.955 1058.51 213.955C1059.33 213.955 1060.13 214.023 1060.93 214.159C1061.75 214.273 1062.53 214.443 1063.28 214.67V230.727C1062.35 230.409 1061.2 230.17 1059.84 230.011C1058.47 229.852 1057.3 229.773 1056.33 229.773C1054.49 229.773 1052.83 230.193 1051.35 231.034C1049.89 231.852 1048.75 233.011 1047.91 234.511C1047.07 235.989 1046.64 237.727 1046.64 239.727V267H1027.83ZM108.5 387V317.182H157.591V332.455H127.455V344.455H154.591V359.727H127.455V387H108.5ZM166.59 387V334.636H184.863V344.591H185.408C186.363 340.909 187.874 338.216 189.943 336.511C192.033 334.807 194.477 333.955 197.272 333.955C198.09 333.955 198.897 334.023 199.693 334.159C200.511 334.273 201.295 334.443 202.045 334.67V350.727C201.113 350.409 199.965 350.17 198.602 350.011C197.238 349.852 196.068 349.773 195.09 349.773C193.249 349.773 191.59 350.193 190.113 351.034C188.658 351.852 187.511 353.011 186.67 354.511C185.829 355.989 185.408 357.727 185.408 359.727V387H166.59ZM233.323 387.955C227.641 387.955 222.777 386.83 218.732 384.58C214.686 382.307 211.584 379.148 209.425 375.102C207.266 371.034 206.186 366.318 206.186 360.955C206.186 355.591 207.266 350.886 209.425 346.841C211.584 342.773 214.686 339.614 218.732 337.364C222.777 335.091 227.641 333.955 233.323 333.955C239.004 333.955 243.868 335.091 247.913 337.364C251.959 339.614 255.061 342.773 257.22 346.841C259.379 350.886 260.459 355.591 260.459 360.955C260.459 366.318 259.379 371.034 257.22 375.102C255.061 379.148 251.959 382.307 247.913 384.58C243.868 386.83 239.004 387.955 233.323 387.955ZM233.459 374.045C235.05 374.045 236.425 373.511 237.584 372.443C238.743 371.375 239.641 369.852 240.277 367.875C240.913 365.898 241.232 363.545 241.232 360.818C241.232 358.068 240.913 355.716 240.277 353.761C239.641 351.784 238.743 350.261 237.584 349.193C236.425 348.125 235.05 347.591 233.459 347.591C231.777 347.591 230.334 348.125 229.129 349.193C227.925 350.261 227.004 351.784 226.368 353.761C225.732 355.716 225.413 358.068 225.413 360.818C225.413 363.545 225.732 365.898 226.368 367.875C227.004 369.852 227.925 371.375 229.129 372.443C230.334 373.511 231.777 374.045 233.459 374.045ZM289.793 357.545V387H270.975V334.636H288.839V344.591H289.384C290.521 341.273 292.521 338.67 295.384 336.784C298.271 334.898 301.634 333.955 305.475 333.955C309.18 333.955 312.396 334.807 315.123 336.511C317.873 338.193 319.998 340.511 321.498 343.466C323.021 346.42 323.771 349.795 323.748 353.591V387H304.93V357.545C304.953 354.955 304.293 352.92 302.952 351.443C301.634 349.966 299.793 349.227 297.43 349.227C295.884 349.227 294.532 349.568 293.373 350.25C292.237 350.909 291.362 351.864 290.748 353.114C290.134 354.341 289.816 355.818 289.793 357.545ZM367.145 334.636V348.273H332.645V334.636H367.145ZM339.327 322.091H358.145V370.159C358.145 370.886 358.27 371.5 358.52 372C358.77 372.477 359.156 372.841 359.679 373.091C360.202 373.318 360.872 373.432 361.69 373.432C362.259 373.432 362.918 373.364 363.668 373.227C364.44 373.091 365.009 372.977 365.372 372.886L368.1 386.114C367.259 386.364 366.054 386.67 364.486 387.034C362.94 387.398 361.1 387.636 358.963 387.75C354.645 387.977 351.02 387.534 348.088 386.42C345.156 385.284 342.952 383.5 341.475 381.068C339.997 378.636 339.281 375.591 339.327 371.932V322.091ZM410.755 352.091V366.273H378.028V352.091H410.755ZM424.561 387V317.182H474.879V332.455H443.516V344.455H472.289V359.727H443.516V371.727H474.743V387H424.561ZM506.251 357.545V387H487.433V334.636H505.296V344.591H505.842C506.978 341.273 508.978 338.67 511.842 336.784C514.728 334.898 518.092 333.955 521.933 333.955C525.637 333.955 528.853 334.807 531.58 336.511C534.33 338.193 536.455 340.511 537.955 343.466C539.478 346.42 540.228 349.795 540.205 353.591V387H521.387V357.545C521.41 354.955 520.751 352.92 519.41 351.443C518.092 349.966 516.251 349.227 513.887 349.227C512.342 349.227 510.99 349.568 509.83 350.25C508.694 350.909 507.819 351.864 507.205 353.114C506.592 354.341 506.274 355.818 506.251 357.545ZM571.33 387.682C567.603 387.682 564.171 386.705 561.034 384.75C557.921 382.795 555.421 379.83 553.534 375.852C551.671 371.875 550.739 366.864 550.739 360.818C550.739 354.5 551.716 349.364 553.671 345.409C555.648 341.455 558.193 338.557 561.307 336.716C564.443 334.875 567.739 333.955 571.193 333.955C573.784 333.955 576.057 334.409 578.012 335.318C579.966 336.205 581.603 337.398 582.921 338.898C584.239 340.375 585.239 342 585.921 343.773H586.193V317.182H605.012V387H586.33V378.409H585.921C585.193 380.182 584.148 381.773 582.784 383.182C581.443 384.568 579.807 385.67 577.875 386.489C575.966 387.284 573.784 387.682 571.33 387.682ZM578.284 373.227C580.012 373.227 581.489 372.727 582.716 371.727C583.966 370.705 584.921 369.273 585.58 367.432C586.262 365.568 586.603 363.364 586.603 360.818C586.603 358.227 586.262 356.011 585.58 354.17C584.921 352.307 583.966 350.886 582.716 349.909C581.489 348.909 580.012 348.409 578.284 348.409C576.557 348.409 575.08 348.909 573.853 349.909C572.648 350.886 571.716 352.307 571.057 354.17C570.421 356.011 570.103 358.227 570.103 360.818C570.103 363.409 570.421 365.636 571.057 367.5C571.716 369.341 572.648 370.761 573.853 371.761C575.08 372.739 576.557 373.227 578.284 373.227ZM665.726 387H638.862V317.182H665.453C672.635 317.182 678.84 318.58 684.067 321.375C689.317 324.148 693.362 328.148 696.203 333.375C699.067 338.58 700.499 344.818 700.499 352.091C700.499 359.364 699.078 365.614 696.237 370.841C693.397 376.045 689.374 380.045 684.169 382.841C678.965 385.614 672.817 387 665.726 387ZM657.817 370.909H665.044C668.499 370.909 671.442 370.352 673.874 369.239C676.328 368.125 678.192 366.205 679.465 363.477C680.76 360.75 681.408 356.955 681.408 352.091C681.408 347.227 680.749 343.432 679.431 340.705C678.135 337.977 676.226 336.057 673.703 334.943C671.203 333.83 668.135 333.273 664.499 333.273H657.817V370.909ZM737.512 387.955C731.921 387.955 727.103 386.886 723.058 384.75C719.035 382.591 715.933 379.5 713.751 375.477C711.592 371.432 710.512 366.591 710.512 360.955C710.512 355.545 711.603 350.818 713.785 346.773C715.967 342.727 719.046 339.58 723.024 337.33C727.001 335.08 731.694 333.955 737.103 333.955C741.058 333.955 744.637 334.568 747.842 335.795C751.046 337.023 753.785 338.807 756.058 341.148C758.331 343.466 760.081 346.284 761.308 349.602C762.535 352.92 763.149 356.659 763.149 360.818V365.182H716.376V354.818H745.831C745.808 353.318 745.421 352 744.671 350.864C743.944 349.705 742.956 348.807 741.706 348.17C740.478 347.511 739.081 347.182 737.512 347.182C735.99 347.182 734.592 347.511 733.319 348.17C732.046 348.807 731.024 349.693 730.251 350.83C729.501 351.966 729.103 353.295 729.058 354.818V366C729.058 367.682 729.41 369.182 730.115 370.5C730.819 371.818 731.831 372.852 733.149 373.602C734.467 374.352 736.058 374.727 737.921 374.727C739.217 374.727 740.399 374.545 741.467 374.182C742.558 373.818 743.49 373.295 744.262 372.614C745.035 371.909 745.603 371.068 745.967 370.091H763.149C762.558 373.727 761.16 376.886 758.956 379.568C756.751 382.227 753.831 384.295 750.194 385.773C746.581 387.227 742.353 387.955 737.512 387.955ZM825.168 334.636L807.577 387H785.759L768.168 334.636H787.941L796.395 369.273H796.941L805.395 334.636H825.168ZM856.897 387.955C851.306 387.955 846.488 386.886 842.443 384.75C838.42 382.591 835.318 379.5 833.136 375.477C830.977 371.432 829.897 366.591 829.897 360.955C829.897 355.545 830.988 350.818 833.17 346.773C835.352 342.727 838.431 339.58 842.409 337.33C846.386 335.08 851.079 333.955 856.488 333.955C860.443 333.955 864.022 334.568 867.227 335.795C870.431 337.023 873.17 338.807 875.443 341.148C877.716 343.466 879.466 346.284 880.693 349.602C881.92 352.92 882.534 356.659 882.534 360.818V365.182H835.761V354.818H865.216C865.193 353.318 864.806 352 864.056 350.864C863.329 349.705 862.341 348.807 861.091 348.17C859.863 347.511 858.466 347.182 856.897 347.182C855.375 347.182 853.977 347.511 852.704 348.17C851.431 348.807 850.409 349.693 849.636 350.83C848.886 351.966 848.488 353.295 848.443 354.818V366C848.443 367.682 848.795 369.182 849.5 370.5C850.204 371.818 851.216 372.852 852.534 373.602C853.852 374.352 855.443 374.727 857.306 374.727C858.602 374.727 859.784 374.545 860.852 374.182C861.943 373.818 862.875 373.295 863.647 372.614C864.42 371.909 864.988 371.068 865.352 370.091H882.534C881.943 373.727 880.545 376.886 878.341 379.568C876.136 382.227 873.216 384.295 869.579 385.773C865.966 387.227 861.738 387.955 856.897 387.955ZM911.911 317.182V387H893.093V317.182H911.911ZM949.606 387.955C943.924 387.955 939.061 386.83 935.015 384.58C930.97 382.307 927.868 379.148 925.709 375.102C923.549 371.034 922.47 366.318 922.47 360.955C922.47 355.591 923.549 350.886 925.709 346.841C927.868 342.773 930.97 339.614 935.015 337.364C939.061 335.091 943.924 333.955 949.606 333.955C955.288 333.955 960.152 335.091 964.197 337.364C968.243 339.614 971.345 342.773 973.504 346.841C975.663 350.886 976.743 355.591 976.743 360.955C976.743 366.318 975.663 371.034 973.504 375.102C971.345 379.148 968.243 382.307 964.197 384.58C960.152 386.83 955.288 387.955 949.606 387.955ZM949.743 374.045C951.334 374.045 952.709 373.511 953.868 372.443C955.027 371.375 955.924 369.852 956.561 367.875C957.197 365.898 957.515 363.545 957.515 360.818C957.515 358.068 957.197 355.716 956.561 353.761C955.924 351.784 955.027 350.261 953.868 349.193C952.709 348.125 951.334 347.591 949.743 347.591C948.061 347.591 946.618 348.125 945.413 349.193C944.209 350.261 943.288 351.784 942.652 353.761C942.015 355.716 941.697 358.068 941.697 360.818C941.697 363.545 942.015 365.898 942.652 367.875C943.288 369.852 944.209 371.375 945.413 372.443C946.618 373.511 948.061 374.045 949.743 374.045ZM987.259 406.636V334.636H1005.94V343.773H1006.35C1007.03 342 1008.03 340.375 1009.35 338.898C1010.67 337.398 1012.3 336.205 1014.26 335.318C1016.21 334.409 1018.49 333.955 1021.08 333.955C1024.53 333.955 1027.82 334.875 1030.93 336.716C1034.07 338.557 1036.61 341.455 1038.57 345.409C1040.54 349.364 1041.53 354.5 1041.53 360.818C1041.53 366.864 1040.59 371.875 1038.7 375.852C1036.84 379.83 1034.34 382.795 1031.2 384.75C1028.09 386.705 1024.67 387.682 1020.94 387.682C1018.49 387.682 1016.29 387.284 1014.36 386.489C1012.45 385.67 1010.82 384.568 1009.45 383.182C1008.11 381.773 1007.08 380.182 1006.35 378.409H1006.08V406.636H987.259ZM1005.67 360.818C1005.67 363.364 1006 365.568 1006.66 367.432C1007.34 369.273 1008.29 370.705 1009.52 371.727C1010.77 372.727 1012.26 373.227 1013.99 373.227C1015.71 373.227 1017.18 372.739 1018.38 371.761C1019.61 370.761 1020.54 369.341 1021.18 367.5C1021.84 365.636 1022.17 363.409 1022.17 360.818C1022.17 358.227 1021.84 356.011 1021.18 354.17C1020.54 352.307 1019.61 350.886 1018.38 349.909C1017.18 348.909 1015.71 348.409 1013.99 348.409C1012.26 348.409 1010.77 348.909 1009.52 349.909C1008.29 350.886 1007.34 352.307 1006.66 354.17C1006 356.011 1005.67 358.227 1005.67 360.818ZM1077.39 387.955C1071.8 387.955 1066.98 386.886 1062.93 384.75C1058.91 382.591 1055.81 379.5 1053.62 375.477C1051.47 371.432 1050.39 366.591 1050.39 360.955C1050.39 355.545 1051.48 350.818 1053.66 346.773C1055.84 342.727 1058.92 339.58 1062.9 337.33C1066.87 335.08 1071.57 333.955 1076.98 333.955C1080.93 333.955 1084.51 334.568 1087.72 335.795C1090.92 337.023 1093.66 338.807 1095.93 341.148C1098.2 343.466 1099.95 346.284 1101.18 349.602C1102.41 352.92 1103.02 356.659 1103.02 360.818V365.182H1056.25V354.818H1085.7C1085.68 353.318 1085.3 352 1084.55 350.864C1083.82 349.705 1082.83 348.807 1081.58 348.17C1080.35 347.511 1078.95 347.182 1077.39 347.182C1075.86 347.182 1074.47 347.511 1073.19 348.17C1071.92 348.807 1070.9 349.693 1070.12 350.83C1069.37 351.966 1068.98 353.295 1068.93 354.818V366C1068.93 367.682 1069.28 369.182 1069.99 370.5C1070.69 371.818 1071.7 372.852 1073.02 373.602C1074.34 374.352 1075.93 374.727 1077.8 374.727C1079.09 374.727 1080.27 374.545 1081.34 374.182C1082.43 373.818 1083.36 373.295 1084.14 372.614C1084.91 371.909 1085.48 371.068 1085.84 370.091H1103.02C1102.43 373.727 1101.03 376.886 1098.83 379.568C1096.62 382.227 1093.7 384.295 1090.07 385.773C1086.45 387.227 1082.23 387.955 1077.39 387.955ZM1113.58 387V334.636H1131.85V344.591H1132.4C1133.35 340.909 1134.87 338.216 1136.93 336.511C1139.02 334.807 1141.47 333.955 1144.26 333.955C1145.08 333.955 1145.89 334.023 1146.68 334.159C1147.5 334.273 1148.29 334.443 1149.04 334.67V350.727C1148.1 350.409 1146.96 350.17 1145.59 350.011C1144.23 349.852 1143.06 349.773 1142.08 349.773C1140.24 349.773 1138.58 350.193 1137.1 351.034C1135.65 351.852 1134.5 353.011 1133.66 354.511C1132.82 355.989 1132.4 357.727 1132.4 359.727V387H1113.58Z" fill="white"/>
<path d="M1023.7 674.308V769.591L1109.64 820.849L1194.5 770.065V674.071L1109.64 623.316L1023.7 674.308Z" fill="white" fill-opacity="0.15" stroke="white" stroke-width="4"/>
<path d="M1188.55 676.752V767.621L1108.91 815.099L1029.27 767.621V676.752L1108.91 629.273L1188.55 676.752ZM1115.55 617.778C1113.53 616.613 1111.24 616 1108.91 616C1106.58 616 1104.29 616.613 1102.28 617.778L1022.64 665.257C1020.62 666.422 1018.94 668.097 1017.78 670.115C1016.61 672.133 1016 674.422 1016 676.752V767.621C1016 769.951 1016.61 772.24 1017.78 774.257C1018.94 776.275 1020.62 777.951 1022.64 779.115L1102.28 826.594C1104.29 827.759 1106.58 828.372 1108.91 828.372C1111.24 828.372 1113.53 827.759 1115.55 826.594L1195.19 779.115C1197.21 777.951 1198.88 776.275 1200.05 774.257C1201.21 772.24 1201.83 769.951 1201.83 767.621V676.752C1201.83 674.422 1201.21 672.133 1200.05 670.115C1198.88 668.097 1197.21 666.422 1195.19 665.257L1115.55 617.778Z" fill="white" fill-opacity="0.15"/>
<g opacity="0.8">
<path d="M1105.62 775.372L1059.3 748.826V695.732L1105.62 722.279V775.372Z" fill="white"/>
<path d="M1151.95 748.826L1105.62 775.372V722.279L1151.95 695.732V748.826Z" fill="#EBEBEB"/>
<path d="M1105.62 721.744L1059.3 695.333L1105.62 668.922L1151.94 695.333L1105.62 721.744Z" fill="#FBFBFB"/>
<path d="M1105.62 721.896L1061.31 696.863L1059.3 698.011L1105.62 724.175L1151.94 698.011V695.732L1105.62 721.896Z" fill="white"/>
</g>
<path d="M743.656 951.305V1145.27L918.601 1249.61L1091.36 1146.23V950.823L918.601 847.506L743.656 951.305Z" fill="white" fill-opacity="0.15" stroke="white" stroke-width="4"/>
<path d="M1079.25 956.281V1141.26L917.136 1237.9L755.019 1141.26V956.281L917.136 859.632L1079.25 956.281ZM930.646 836.233C926.538 833.862 921.879 832.613 917.136 832.613C912.393 832.613 907.734 833.862 903.626 836.233L741.51 932.882C737.402 935.253 733.992 938.664 731.62 942.771C729.249 946.879 728 951.538 728 956.281V1141.26C728 1146 729.249 1150.66 731.62 1154.77C733.992 1158.87 737.402 1162.28 741.51 1164.65L903.626 1261.3C907.734 1263.67 912.393 1264.92 917.136 1264.92C921.879 1264.92 926.538 1263.67 930.646 1261.3L1092.76 1164.65C1096.87 1162.28 1100.28 1158.87 1102.65 1154.77C1105.02 1150.66 1106.27 1146 1106.27 1141.26V956.281C1106.27 951.538 1105.02 946.879 1102.65 942.771C1100.28 938.664 1096.87 935.253 1092.76 932.882L930.646 836.233Z" fill="white" fill-opacity="0.15"/>
<path d="M953.882 1074.51L951.407 1076.98L945.139 1070.72C947.9 1067.45 950.291 1063.88 952.352 1060.11C952.387 1060.04 952.419 1059.98 952.45 1059.92C953.388 1058.19 954.243 1056.41 955.016 1054.59C955.037 1054.55 955.054 1054.51 955.072 1054.46C958.25 1046.95 960.067 1038.71 960.067 1030.04C960.067 995.224 931.843 967 897.032 967C897.028 967 897.021 967 897.017 967C897.01 967 897.004 967 897 967C862.207 967 834 995.21 834 1030C834 1030 834 1030.01 834 1030.02C834 1030.02 834 1030.03 834 1030.03C834 1064.84 862.221 1093.07 897.032 1093.07C905.708 1093.07 913.944 1091.25 921.458 1088.07C921.5 1088.05 921.542 1088.03 921.588 1088.01C923.411 1087.24 925.186 1086.38 926.915 1085.45C926.978 1085.42 927.04 1085.38 927.104 1085.35C930.88 1083.29 934.453 1080.9 937.712 1078.14L943.98 1084.4L941.506 1086.89L989.62 1135L1002 1122.63L953.882 1074.51ZM897 1080.46C869.938 1080.46 848 1058.52 848 1031.46C848 1004.4 869.938 982.463 897 982.463C924.062 982.463 946 1004.4 946 1031.46C946 1058.52 924.062 1080.46 897 1080.46Z" fill="white" stroke="white" stroke-width="0.5"/>
<path d="M929.847 1016.9L910.754 1035.99L896.061 1033.76C896.061 1033.76 893.853 1018.88 893.79 1018.94L912.844 999.896C908.556 997.957 903.824 996.851 898.816 996.851C880.003 996.851 864.747 1012.1 864.747 1030.92C864.747 1035.93 865.853 1040.67 867.788 1044.94L861.992 1050.74C864.61 1056.49 869.647 1063.46 879.146 1067.61L884.798 1061.95C889.072 1063.88 893.818 1065 898.812 1065C917.632 1065 932.885 1049.74 932.885 1030.92C932.888 1025.91 931.779 1021.19 929.847 1016.9Z" fill="white" stroke="white" stroke-width="0.5"/>
<defs>
<filter id="filter0_d_3057_1396" x="64" y="464" width="711" height="212" filterUnits="userSpaceOnUse" color-interpolation-filters="sRGB">
<feFlood flood-opacity="0" result="BackgroundImageFix"/>
<feColorMatrix in="SourceAlpha" type="matrix" values="0 0 0 0 0 0 0 0 0 0 0 0 0 0 0 0 0 0 127 0" result="hardAlpha"/>
<feOffset dy="16"/>
<feGaussianBlur stdDeviation="20"/>
<feComposite in2="hardAlpha" operator="out"/>
<feColorMatrix type="matrix" values="0 0 0 0 0 0 0 0 0 0 0 0 0 0 0 0 0 0 0.05 0"/>
<feBlend mode="normal" in2="BackgroundImageFix" result="effect1_dropShadow_3057_1396"/>
<feBlend mode="normal" in="SourceGraphic" in2="effect1_dropShadow_3057_1396" result="shape"/>
</filter>
<radialGradient id="paint0_radial_3057_1396" cx="0" cy="0" r="1" gradientUnits="userSpaceOnUse" gradientTransform="translate(-355.2 -322.136) rotate(36.5012) scale(2238.73 3337.02)">
<stop offset="0.120942" stop-color="#321179"/>
<stop offset="1" stop-color="#160E2B"/>
</radialGradient>
</defs>
</svg>
